<?xml version="1.0" encoding="UTF-8"?><svg xmlns="http://www.w3.org/2000/svg" xmlns:xlink="http://www.w3.org/1999/xlink" fill-opacity="1" color-rendering="auto" color-interpolation="auto" text-rendering="auto" stroke="black" stroke-linecap="square" width="711" stroke-miterlimit="10" shape-rendering="auto" stroke-opacity="1" fill="black" stroke-dasharray="none" font-weight="normal" stroke-width="1" height="257" font-family="'Dialog'" font-style="normal" stroke-linejoin="miter" font-size="12px" stroke-dashoffset="0" image-rendering="auto">
  <!--Generated by ySVG 2.5-->
  <defs id="genericDefs"/>
  <g>
    <defs id="defs1">
      <clipPath clipPathUnits="userSpaceOnUse" id="clipPath1">
        <path d="M0 0 L711 0 L711 257 L0 257 L0 0 Z"/>
      </clipPath>
      <clipPath clipPathUnits="userSpaceOnUse" id="clipPath2">
        <path d="M296 318 L1007 318 L1007 575 L296 575 L296 318 Z"/>
      </clipPath>
      <clipPath clipPathUnits="userSpaceOnUse" id="clipPath3">
        <path d="M-400.1637 -48.8446 L300.0346 -172.3085 L344.6622 80.7871 L-355.5361 204.2509 L-400.1637 -48.8446 Z"/>
      </clipPath>
      <clipPath clipPathUnits="userSpaceOnUse" id="clipPath4">
        <path d="M-368.8833 -103.8938 L333.3631 7.3312 L293.1595 261.1671 L-409.0869 149.9422 L-368.8833 -103.8938 Z"/>
      </clipPath>
    </defs>
    <g fill="white" text-rendering="geometricPrecision" shape-rendering="geometricPrecision" transform="translate(-296,-318)" stroke="white">
      <rect x="296" width="711" height="257" y="318" clip-path="url(#clipPath2)" stroke="none"/>
    </g>
    <g stroke-linecap="butt" transform="matrix(1,0,0,1,-296,-318)" fill="navy" text-rendering="geometricPrecision" shape-rendering="geometricPrecision" stroke="navy" stroke-miterlimit="1.45">
      <ellipse rx="194.8" fill="none" ry="21" clip-path="url(#clipPath2)" cx="505.8" cy="538.6093"/>
      <text x="350.7111" y="543.3231" clip-path="url(#clipPath2)" fill="black" font-family="sans-serif" stroke="none" xml:space="preserve">Cizinci podle státního občanství, věku a pohlaví - rok 2018</text>
      <ellipse rx="62.8" fill="none" ry="18" clip-path="url(#clipPath2)" cx="505.8" cy="419.6093"/>
      <text x="493.132" y="424.3232" clip-path="url(#clipPath2)" fill="black" font-family="sans-serif" stroke="none" xml:space="preserve">ČSÚ</text>
      <ellipse rx="51.8" fill="none" ry="18" clip-path="url(#clipPath2)" cx="913.6" cy="419.6093"/>
      <text x="892.5853" y="424.3232" clip-path="url(#clipPath2)" fill="black" font-family="sans-serif" stroke="none" xml:space="preserve">2gfaasy</text>
      <ellipse rx="84.6" fill="none" ry="18" clip-path="url(#clipPath2)" cx="906.4" cy="485.6093"/>
      <text x="840.7018" y="490.3232" clip-path="url(#clipPath2)" fill="black" font-family="sans-serif" stroke="none" xml:space="preserve">Organizační složka státu</text>
      <text x="828.9236" y="352.7324" clip-path="url(#clipPath2)" fill="black" font-family="sans-serif" stroke="none" xml:space="preserve">"Český statistický úřad"</text>
      <path fill="none" d="M505.8 517.6093 L505.8 445.6093" clip-path="url(#clipPath2)" stroke="black"/>
      <path fill="black" d="M505.8 437.6093 L500.8 449.6093 L505.8 446.6093 L510.8 449.6093 Z" clip-path="url(#clipPath2)" stroke="none"/>
    </g>
    <g font-size="11px" stroke-linecap="butt" transform="matrix(1,0,0,1,-296,-318)" text-rendering="geometricPrecision" font-family="sans-serif" shape-rendering="geometricPrecision" stroke-miterlimit="1.45">
      <text x="420.6884" xml:space="preserve" y="479.817" clip-path="url(#clipPath2)" stroke="none">má poskytovatele</text>
      <path fill="none" d="M568.6 419.6093 L853.8 419.6093" clip-path="url(#clipPath2)"/>
      <path d="M861.8 419.6093 L849.8 414.6093 L852.8 419.6093 L849.8 424.6093 Z" stroke="none" clip-path="url(#clipPath2)"/>
      <text x="684.9023" xml:space="preserve" y="411.817" clip-path="url(#clipPath2)" stroke="none">má datovou schránku</text>
      <path fill="none" d="M556.5543 430.2099 L813.969 483.9737" clip-path="url(#clipPath2)"/>
      <path d="M821.8 485.6093 L811.0757 478.2615 L812.9901 483.7692 L809.0312 488.0503 Z" stroke="none" clip-path="url(#clipPath2)"/>
    </g>
    <g font-size="11px" stroke-linecap="butt" transform="matrix(0.9848,0.1736,-0.1736,0.9848,385.6025,117.5903)" text-rendering="geometricPrecision" font-family="sans-serif" shape-rendering="geometricPrecision" stroke-miterlimit="1.45">
      <text x="2" xml:space="preserve" y="13.0591" clip-path="url(#clipPath3)" stroke="none">má právní formu</text>
    </g>
    <g text-rendering="geometricPrecision" stroke-miterlimit="1.45" shape-rendering="geometricPrecision" transform="matrix(1,0,0,1,-296,-318)" stroke-linecap="butt">
      <path fill="none" d="M558.5003 409.8198 L813.9346 362.3712" clip-path="url(#clipPath2)"/>
      <path d="M821.8 360.9101 L809.0887 358.1858 L812.9514 362.5538 L810.915 368.0176 Z" clip-path="url(#clipPath2)" stroke="none"/>
    </g>
    <g font-size="11px" stroke-linecap="butt" transform="matrix(0.9877,-0.1564,0.1564,0.9877,380.5943,44.9086)" text-rendering="geometricPrecision" font-family="sans-serif" shape-rendering="geometricPrecision" stroke-miterlimit="1.45">
      <text x="2" xml:space="preserve" y="13.0591" clip-path="url(#clipPath4)" stroke="none">má název</text>
    </g>
  </g>
</svg>
