<?xml version="1.0" encoding="UTF-8"?><svg xmlns="http://www.w3.org/2000/svg" xmlns:xlink="http://www.w3.org/1999/xlink" fill-opacity="1" color-rendering="auto" color-interpolation="auto" text-rendering="auto" stroke="black" stroke-linecap="square" width="1030" stroke-miterlimit="10" shape-rendering="auto" stroke-opacity="1" fill="black" stroke-dasharray="none" font-weight="normal" stroke-width="1" height="284" font-family="'Dialog'" font-style="normal" stroke-linejoin="miter" font-size="12px" stroke-dashoffset="0" image-rendering="auto">
  <!--Generated by ySVG 2.5-->
  <defs id="genericDefs"/>
  <g>
    <defs id="defs1">
      <clipPath clipPathUnits="userSpaceOnUse" id="clipPath1">
        <path d="M0 0 L1030 0 L1030 284 L0 284 L0 0 Z"/>
      </clipPath>
      <clipPath clipPathUnits="userSpaceOnUse" id="clipPath2">
        <path d="M169 76 L1199 76 L1199 360 L169 360 L169 76 Z"/>
      </clipPath>
      <clipPath clipPathUnits="userSpaceOnUse" id="clipPath3">
        <path d="M-427.9852 -73.7203 L586.3668 -252.5779 L635.6829 27.1075 L-378.6691 205.9651 L-427.9852 -73.7203 Z"/>
      </clipPath>
      <clipPath clipPathUnits="userSpaceOnUse" id="clipPath4">
        <path d="M-435.8867 -159.5122 L581.4323 1.6153 L537.0049 282.1188 L-480.3141 120.9913 L-435.8867 -159.5122 Z"/>
      </clipPath>
    </defs>
    <g fill="white" text-rendering="geometricPrecision" shape-rendering="geometricPrecision" transform="translate(-169,-76)" stroke="white">
      <rect x="169" width="1030" height="284" y="76" clip-path="url(#clipPath2)" stroke="none"/>
    </g>
    <g stroke-linecap="butt" transform="matrix(1,0,0,1,-169,-76)" fill="navy" text-rendering="geometricPrecision" shape-rendering="geometricPrecision" stroke="navy" stroke-miterlimit="1.45">
      <ellipse rx="262" fill="none" ry="21" clip-path="url(#clipPath2)" cx="436" cy="334"/>
      <text x="185.5381" y="338.7139" clip-path="url(#clipPath2)" fill="black" font-family="sans-serif" stroke="none" xml:space="preserve">https://data.gov.cz/zdroj/datové-sady/http---vdb.czso.cz-pll-eweb-package_show-id-290038r19</text>
      <ellipse rx="146" fill="none" ry="18" clip-path="url(#clipPath2)" cx="436" cy="215"/>
      <text x="331.2695" y="219.7139" clip-path="url(#clipPath2)" fill="black" font-family="sans-serif" stroke="none" xml:space="preserve">https://data.gov.cz/zdroj/ovm/00025593</text>
      <ellipse rx="171" fill="none" ry="18" clip-path="url(#clipPath2)" cx="1023" cy="215"/>
      <text x="891.2637" y="219.7139" clip-path="url(#clipPath2)" fill="black" font-family="sans-serif" stroke="none" xml:space="preserve">https://data.gov.cz/zdroj/datové-schránky/2gfaasy</text>
      <ellipse rx="171" fill="none" ry="18" clip-path="url(#clipPath2)" cx="983" cy="281"/>
      <text x="859.2764" y="285.7139" clip-path="url(#clipPath2)" fill="black" font-family="sans-serif" stroke="none" xml:space="preserve">https://data.gov.cz/zdroj/ovm/právní-forma/325</text>
      <text x="807.0328" y="148.1232" clip-path="url(#clipPath2)" fill="black" font-family="sans-serif" stroke="none" xml:space="preserve">"Český statistický úřad"@cs</text>
      <ellipse rx="116" fill="none" ry="18" clip-path="url(#clipPath2)" cx="342" cy="113"/>
      <text x="256.957" y="117.7139" clip-path="url(#clipPath2)" fill="black" font-family="sans-serif" stroke="none" xml:space="preserve">https://schema.org/Organization</text>
      <ellipse rx="146" fill="none" ry="18" clip-path="url(#clipPath2)" cx="624" cy="99"/>
      <text x="503.2559" y="103.7139" clip-path="url(#clipPath2)" fill="black" font-family="sans-serif" stroke="none" xml:space="preserve">http://data.europa.eu/m8g/PublicOrganisation</text>
      <path fill="none" d="M436 313 L436 241" clip-path="url(#clipPath2)" stroke="black"/>
      <path fill="black" d="M436 233 L431 245 L436 242 L441 245 Z" clip-path="url(#clipPath2)" stroke="none"/>
    </g>
    <g font-size="11px" stroke-linecap="butt" transform="matrix(1,0,0,1,-169,-76)" text-rendering="geometricPrecision" font-family="sans-serif" shape-rendering="geometricPrecision" stroke-miterlimit="1.45">
      <text x="280.1309" xml:space="preserve" y="280.321" clip-path="url(#clipPath2)" stroke="none">http://purl.org/dc/terms/publisher</text>
      <path fill="none" d="M582 215 L844 215" clip-path="url(#clipPath2)"/>
      <path d="M852 215 L840 210 L843 215 L840 220 Z" stroke="none" clip-path="url(#clipPath2)"/>
      <text x="602.5225" xml:space="preserve" y="211.5639" clip-path="url(#clipPath2)" stroke="none">https://data.gov.cz/slovník/ovm/datováSchránka</text>
      <path fill="none" d="M519.9151 229.7298 L804.1205 279.6169" clip-path="url(#clipPath2)"/>
      <path d="M812 281 L801.0452 274.0006 L803.1356 279.444 L799.3163 283.85 Z" stroke="none" clip-path="url(#clipPath2)"/>
    </g>
    <g font-size="11px" stroke-linecap="butt" transform="matrix(0.9848,0.1736,-0.1736,0.9848,408.6818,146.9191)" text-rendering="geometricPrecision" font-family="sans-serif" shape-rendering="geometricPrecision" stroke-miterlimit="1.45">
      <text x="2" xml:space="preserve" y="13.0591" clip-path="url(#clipPath3)" stroke="none">https://data.gov.cz/slovník/ovm/právníForma</text>
    </g>
    <g text-rendering="geometricPrecision" stroke-miterlimit="1.45" shape-rendering="geometricPrecision" transform="matrix(1,0,0,1,-169,-76)" stroke-linecap="butt">
      <path fill="none" d="M524.8576 200.7176 L804.1014 155.8338" clip-path="url(#clipPath2)"/>
      <path d="M812 154.5642 L799.3586 151.5319 L803.1141 155.9924 L800.9456 161.4052 Z" clip-path="url(#clipPath2)" stroke="none"/>
    </g>
    <g font-size="11px" stroke-linecap="butt" transform="matrix(0.9877,-0.1564,0.1564,0.9877,455.4734,89.3606)" text-rendering="geometricPrecision" font-family="sans-serif" shape-rendering="geometricPrecision" stroke-miterlimit="1.45">
      <text x="2" xml:space="preserve" y="13.0591" clip-path="url(#clipPath4)" stroke="none">https://schema.org/name</text>
    </g>
    <g text-rendering="geometricPrecision" stroke-miterlimit="1.45" shape-rendering="geometricPrecision" transform="matrix(1,0,0,1,-169,-76)" stroke-linecap="butt">
      <path fill="none" d="M419.5178 197.1151 L365.8757 138.9076" clip-path="url(#clipPath2)"/>
      <path d="M358.4212 130.8187 L362.1412 143.7091 L370.9655 135.5769 Z" clip-path="url(#clipPath2)" stroke="none"/>
      <text x="306.4294" font-size="11px" y="164.4906" clip-path="url(#clipPath2)" font-family="sans-serif" stroke="none" xml:space="preserve">http://www.w3.org/1999/02/22-rdf-syntax-ns#type</text>
    </g>
    <g text-rendering="geometricPrecision" stroke-miterlimit="1.45" shape-rendering="geometricPrecision" transform="matrix(1,0,0,1,-169,-76)" stroke-linecap="butt">
      <path fill="none" d="M464.6069 197.3489 L586.0317 122.4273" clip-path="url(#clipPath2)"/>
      <path d="M595.3931 116.6511 L582.03 117.8462 L588.3313 128.0586 Z" clip-path="url(#clipPath2)" stroke="none"/>
    </g>
  </g>
</svg>
