<?xml version="1.0" encoding="UTF-8"?><svg xmlns="http://www.w3.org/2000/svg" xmlns:xlink="http://www.w3.org/1999/xlink" fill-opacity="1" color-rendering="auto" color-interpolation="auto" text-rendering="auto" stroke="black" stroke-linecap="square" width="1050" stroke-miterlimit="10" shape-rendering="auto" stroke-opacity="1" fill="black" stroke-dasharray="none" font-weight="normal" stroke-width="1" height="258" font-family="'Dialog'" font-style="normal" stroke-linejoin="miter" font-size="12px" stroke-dashoffset="0" image-rendering="auto">
  <!--Generated by ySVG 2.5-->
  <defs id="genericDefs"/>
  <g>
    <defs id="defs1">
      <clipPath clipPathUnits="userSpaceOnUse" id="clipPath1">
        <path d="M0 0 L1050 0 L1050 258 L0 258 L0 0 Z"/>
      </clipPath>
      <clipPath clipPathUnits="userSpaceOnUse" id="clipPath2">
        <path d="M184 360 L1234 360 L1234 618 L184 618 L184 360 Z"/>
      </clipPath>
      <clipPath clipPathUnits="userSpaceOnUse" id="clipPath3">
        <path d="M-499.3432 -35.949 L534.705 -218.2795 L579.5062 35.8009 L-454.5419 218.1314 L-499.3432 -35.949 Z"/>
      </clipPath>
      <clipPath clipPathUnits="userSpaceOnUse" id="clipPath4">
        <path d="M-488.1721 -124.9363 L548.9006 39.3199 L508.5405 294.1435 L-528.5322 129.8873 L-488.1721 -124.9363 Z"/>
      </clipPath>
    </defs>
    <g fill="white" text-rendering="geometricPrecision" shape-rendering="geometricPrecision" transform="translate(-184,-360)" stroke="white">
      <rect x="184" width="1050" height="258" y="360" clip-path="url(#clipPath2)" stroke="none"/>
    </g>
    <g stroke-linecap="butt" transform="matrix(1,0,0,1,-184,-360)" fill="navy" text-rendering="geometricPrecision" shape-rendering="geometricPrecision" stroke="navy" stroke-miterlimit="1.45">
      <ellipse rx="262" fill="none" ry="21" clip-path="url(#clipPath2)" cx="461" cy="581.4093"/>
      <text x="210.5381" y="586.1232" clip-path="url(#clipPath2)" fill="black" font-family="sans-serif" stroke="none" xml:space="preserve">https://data.gov.cz/zdroj/datové-sady/http---vdb.czso.cz-pll-eweb-package_show-id-290038r19</text>
      <ellipse rx="146" fill="none" ry="18" clip-path="url(#clipPath2)" cx="461" cy="462.4093"/>
      <text x="356.2695" y="467.1231" clip-path="url(#clipPath2)" fill="black" font-family="sans-serif" stroke="none" xml:space="preserve">https://data.gov.cz/zdroj/ovm/00025593</text>
      <ellipse rx="171" fill="none" ry="18" clip-path="url(#clipPath2)" cx="1048" cy="462.4093"/>
      <text x="916.2637" y="467.1231" clip-path="url(#clipPath2)" fill="black" font-family="sans-serif" stroke="none" xml:space="preserve">https://data.gov.cz/zdroj/datové-schránky/2gfaasy</text>
      <ellipse rx="171" fill="none" ry="18" clip-path="url(#clipPath2)" cx="1008" cy="528.4093"/>
      <text x="884.2764" y="533.1232" clip-path="url(#clipPath2)" fill="black" font-family="sans-serif" stroke="none" xml:space="preserve">https://data.gov.cz/zdroj/ovm/právní-forma/325</text>
      <text x="846.2535" y="395.5324" clip-path="url(#clipPath2)" fill="black" font-family="sans-serif" stroke="none" xml:space="preserve">"Český statistický úřad</text>
      <path fill="none" d="M461 560.4093 L461 488.4093" clip-path="url(#clipPath2)" stroke="black"/>
      <path fill="black" d="M461 480.4093 L456 492.4093 L461 489.4093 L466 492.4093 Z" clip-path="url(#clipPath2)" stroke="none"/>
    </g>
    <g font-size="11px" stroke-linecap="butt" transform="matrix(1,0,0,1,-184,-360)" text-rendering="geometricPrecision" font-family="sans-serif" shape-rendering="geometricPrecision" stroke-miterlimit="1.45">
      <text x="374.7004" xml:space="preserve" y="528.321" clip-path="url(#clipPath2)" stroke="none">má poskytovatele</text>
      <path fill="none" d="M607 462.4093 L869 462.4093" clip-path="url(#clipPath2)"/>
      <path d="M877 462.4093 L865 457.4093 L868 462.4093 L865 467.4093 Z" stroke="none" clip-path="url(#clipPath2)"/>
      <text x="691.4143" xml:space="preserve" y="458.9732" clip-path="url(#clipPath2)" stroke="none">má datovou schránku</text>
      <path fill="none" d="M544.9151 477.1391 L829.1205 527.0262" clip-path="url(#clipPath2)"/>
      <path d="M837 528.4093 L826.0452 521.4099 L828.1356 526.8533 L824.3163 531.2593 Z" stroke="none" clip-path="url(#clipPath2)"/>
    </g>
    <g font-size="11px" stroke-linecap="butt" transform="matrix(0.9848,0.1736,-0.1736,0.9848,485.5145,122.1128)" text-rendering="geometricPrecision" font-family="sans-serif" shape-rendering="geometricPrecision" stroke-miterlimit="1.45">
      <text x="2" xml:space="preserve" y="13.0591" clip-path="url(#clipPath3)" stroke="none">má právní formu</text>
    </g>
    <g text-rendering="geometricPrecision" stroke-miterlimit="1.45" shape-rendering="geometricPrecision" transform="matrix(1,0,0,1,-184,-360)" stroke-linecap="butt">
      <path fill="none" d="M549.8576 448.1269 L829.1014 403.243" clip-path="url(#clipPath2)"/>
      <path d="M837 401.9735 L824.3586 398.9412 L828.1141 403.4017 L825.9456 408.8145 Z" clip-path="url(#clipPath2)" stroke="none"/>
    </g>
    <g font-size="11px" stroke-linecap="butt" transform="matrix(0.9877,-0.1564,0.1564,0.9877,501.7063,47.0311)" text-rendering="geometricPrecision" font-family="sans-serif" shape-rendering="geometricPrecision" stroke-miterlimit="1.45">
      <text x="2" xml:space="preserve" y="13.0591" clip-path="url(#clipPath4)" stroke="none">má název</text>
    </g>
  </g>
</svg>
