<?xml version="1.0" encoding="UTF-8"?><svg xmlns="http://www.w3.org/2000/svg" xmlns:xlink="http://www.w3.org/1999/xlink" fill-opacity="1" color-rendering="auto" color-interpolation="auto" text-rendering="auto" stroke="black" stroke-linecap="square" width="520" stroke-miterlimit="10" shape-rendering="auto" stroke-opacity="1" fill="black" stroke-dasharray="none" font-weight="normal" stroke-width="1" height="237" font-family="'Dialog'" font-style="normal" stroke-linejoin="miter" font-size="12px" stroke-dashoffset="0" image-rendering="auto">
  <!--Generated by ySVG 2.5-->
  <defs id="genericDefs"/>
  <g>
    <defs id="defs1">
      <clipPath clipPathUnits="userSpaceOnUse" id="clipPath1">
        <path d="M0 0 L520 0 L520 237 L0 237 L0 0 Z"/>
      </clipPath>
      <clipPath clipPathUnits="userSpaceOnUse" id="clipPath2">
        <path d="M413 287 L933 287 L933 524 L413 524 L413 287 Z"/>
      </clipPath>
      <clipPath clipPathUnits="userSpaceOnUse" id="clipPath3">
        <path d="M-205.7074 -86.9797 L306.3926 3.3173 L265.238 236.7168 L-246.862 146.4197 L-205.7074 -86.9797 Z"/>
      </clipPath>
    </defs>
    <g fill="white" text-rendering="geometricPrecision" shape-rendering="geometricPrecision" transform="translate(-413,-287)" stroke="white">
      <rect x="413" width="520" height="237" y="287" clip-path="url(#clipPath2)" stroke="none"/>
    </g>
    <g stroke-linecap="butt" transform="matrix(1,0,0,1,-413,-287)" fill="navy" text-rendering="geometricPrecision" shape-rendering="geometricPrecision" stroke="navy" stroke-miterlimit="1.45">
      <ellipse rx="62.8" fill="none" ry="18" clip-path="url(#clipPath2)" cx="506.8" cy="382.7581"/>
      <text x="462.4504" y="387.472" clip-path="url(#clipPath2)" fill="black" font-family="sans-serif" stroke="none" xml:space="preserve">Statistika cizinců</text>
      <text x="739.0703" y="316.2932" clip-path="url(#clipPath2)" fill="black" font-family="sans-serif" stroke="none" xml:space="preserve">"Cizinci podle státního občanství,</text>
      <text x="757.7441" y="330.9944" clip-path="url(#clipPath2)" fill="black" font-family="sans-serif" stroke="none" xml:space="preserve">věku a pohlaví - rok 2018"</text>
      <text x="807.5888" y="387.472" clip-path="url(#clipPath2)" fill="black" font-family="sans-serif" stroke="none" xml:space="preserve">"státní občanství"</text>
      <text x="765.7364" y="456.1961" clip-path="url(#clipPath2)" fill="black" font-family="sans-serif" stroke="none" xml:space="preserve">"cizinec"</text>
      <ellipse rx="62.8" fill="none" ry="18" clip-path="url(#clipPath2)" cx="506.8" cy="490.5162"/>
      <text x="464.7736" y="487.8795" clip-path="url(#clipPath2)" fill="black" font-family="sans-serif" stroke="none" xml:space="preserve">Národni katalog</text>
      <text x="467.4426" y="502.5806" clip-path="url(#clipPath2)" fill="black" font-family="sans-serif" stroke="none" xml:space="preserve">otevřených dat</text>
      <path fill="none" d="M558.3702 372.4861 L750.0021 334.3161" clip-path="url(#clipPath2)" stroke="black"/>
      <path fill="black" d="M757.848 332.7533 L745.1025 330.1938 L749.0214 334.5114 L747.056 340.0011 Z" clip-path="url(#clipPath2)" stroke="none"/>
    </g>
    <g font-size="11px" stroke-linecap="butt" transform="matrix(0.9848,-0.1736,0.1736,0.9848,217.6861,49.9376)" text-rendering="geometricPrecision" font-family="sans-serif" shape-rendering="geometricPrecision" stroke-miterlimit="1.45">
      <text x="2" xml:space="preserve" y="13.0591" clip-path="url(#clipPath3)" stroke="none">má název</text>
    </g>
    <g text-rendering="geometricPrecision" stroke-miterlimit="1.45" shape-rendering="geometricPrecision" transform="matrix(1,0,0,1,-413,-287)" stroke-linecap="butt">
      <path fill="none" d="M569.6 382.7581 L796.952 382.7581" clip-path="url(#clipPath2)"/>
      <path d="M804.952 382.7581 L792.952 377.7581 L795.952 382.7581 L792.952 387.7581 Z" clip-path="url(#clipPath2)" stroke="none"/>
      <text x="645.8748" font-size="11px" y="402.3612" clip-path="url(#clipPath2)" font-family="sans-serif" stroke="none" xml:space="preserve">je charakterizována</text>
      <text x="653.2278" font-size="11px" y="415.8372" clip-path="url(#clipPath2)" font-family="sans-serif" stroke="none" xml:space="preserve">klíčovým slovem</text>
    </g>
    <g text-rendering="geometricPrecision" stroke-miterlimit="1.45" shape-rendering="geometricPrecision" transform="matrix(1,0,0,1,-413,-287)" stroke-linecap="butt">
      <path fill="none" d="M554.6108 394.4289 L750.0762 442.1429" clip-path="url(#clipPath2)"/>
      <path d="M757.848 444.04 L747.376 436.3369 L749.1047 441.9057 L745.0046 446.0517 Z" clip-path="url(#clipPath2)" stroke="none"/>
    </g>
    <g text-rendering="geometricPrecision" stroke-miterlimit="1.45" shape-rendering="geometricPrecision" transform="matrix(1,0,0,1,-413,-287)" stroke-linecap="butt">
      <path fill="none" d="M506.8 472.5162 L506.8 408.7581" clip-path="url(#clipPath2)"/>
      <path d="M506.8 400.7581 L501.8 412.7581 L506.8 409.7581 L511.8 412.7581 Z" clip-path="url(#clipPath2)" stroke="none"/>
      <text x="441.5663" font-size="11px" y="439.1353" clip-path="url(#clipPath2)" font-family="sans-serif" stroke="none" xml:space="preserve">obsahuje</text>
      <text x="430.8643" font-size="11px" y="452.6114" clip-path="url(#clipPath2)" font-family="sans-serif" stroke="none" xml:space="preserve">datovou sadu</text>
    </g>
  </g>
</svg>
