<?xml version="1.0" encoding="UTF-8"?><svg xmlns="http://www.w3.org/2000/svg" xmlns:xlink="http://www.w3.org/1999/xlink" fill-opacity="1" color-rendering="auto" color-interpolation="auto" text-rendering="auto" stroke="black" stroke-linecap="square" width="1165" stroke-miterlimit="10" shape-rendering="auto" stroke-opacity="1" fill="black" stroke-dasharray="none" font-weight="normal" stroke-width="1" height="426" font-family="'Dialog'" font-style="normal" stroke-linejoin="miter" font-size="12px" stroke-dashoffset="0" image-rendering="auto">
  <!--Generated by ySVG 2.5-->
  <defs id="genericDefs"/>
  <g>
    <defs id="defs1">
      <clipPath clipPathUnits="userSpaceOnUse" id="clipPath1">
        <path d="M0 0 L1165 0 L1165 426 L0 426 L0 0 Z"/>
      </clipPath>
      <clipPath clipPathUnits="userSpaceOnUse" id="clipPath2">
        <path d="M44 -56 L1209 -56 L1209 370 L44 370 L44 -56 Z"/>
      </clipPath>
      <clipPath clipPathUnits="userSpaceOnUse" id="clipPath3">
        <path d="M-583.8173 -182.6214 L563.4837 -384.9215 L637.4578 34.6066 L-509.8432 236.9067 L-583.8173 -182.6214 Z"/>
      </clipPath>
      <clipPath clipPathUnits="userSpaceOnUse" id="clipPath4">
        <path d="M-544.201 -310.0539 L606.4559 -127.8077 L539.8148 292.9475 L-610.8421 110.7014 L-544.201 -310.0539 Z"/>
      </clipPath>
    </defs>
    <g fill="white" text-rendering="geometricPrecision" shape-rendering="geometricPrecision" transform="translate(-44,56)" stroke="white">
      <rect x="44" width="1165" height="426" y="-56" clip-path="url(#clipPath2)" stroke="none"/>
    </g>
    <g stroke-linecap="butt" transform="matrix(1,0,0,1,-44,56)" fill="rgb(153,204,0)" text-rendering="geometricPrecision" shape-rendering="geometricPrecision" stroke="rgb(153,204,0)" stroke-miterlimit="1.45">
      <ellipse rx="262" fill="none" ry="21" clip-path="url(#clipPath2)" cx="436" cy="334"/>
      <text x="185.5381" y="338.7139" clip-path="url(#clipPath2)" fill="black" font-family="sans-serif" stroke="none" xml:space="preserve">https://data.gov.cz/zdroj/datové-sady/http---vdb.czso.cz-pll-eweb-package_show-id-290038r19</text>
      <ellipse rx="146" fill="none" ry="18" clip-path="url(#clipPath2)" cx="436" cy="215"/>
      <text x="331.2695" y="219.7139" clip-path="url(#clipPath2)" fill="black" font-family="sans-serif" stroke="none" xml:space="preserve">https://data.gov.cz/zdroj/ovm/00025593</text>
      <ellipse rx="171" fill="none" ry="18" clip-path="url(#clipPath2)" cx="1023" cy="215"/>
      <text x="891.2637" y="219.7139" clip-path="url(#clipPath2)" fill="black" font-family="sans-serif" stroke="none" xml:space="preserve">https://data.gov.cz/zdroj/datové-schránky/2gfaasy</text>
      <ellipse rx="171" fill="none" ry="18" clip-path="url(#clipPath2)" cx="983" cy="281"/>
      <text x="859.2764" y="285.7139" clip-path="url(#clipPath2)" fill="black" font-family="sans-serif" stroke="none" xml:space="preserve">https://data.gov.cz/zdroj/ovm/právní-forma/325</text>
      <rect fill="none" x="812" width="138.8" height="30" y="128.4093" clip-path="url(#clipPath2)"/>
      <text x="821.2535" y="148.1232" clip-path="url(#clipPath2)" fill="black" font-family="sans-serif" stroke="none" xml:space="preserve">"Český statistický úřad</text>
      <ellipse clip-path="url(#clipPath2)" fill="none" rx="171" cx="230.8" ry="18" cy="48.4" stroke="rgb(255,153,0)"/>
      <text x="74.0207" y="53.1139" clip-path="url(#clipPath2)" fill="black" font-family="sans-serif" stroke="none" xml:space="preserve">https://rpp-opendata.egon.gov.cz/odrpp/zdroj/agenda/A687</text>
      <ellipse clip-path="url(#clipPath2)" fill="none" rx="171" cx="411" ry="18" cy="-3.6" stroke="rgb(255,153,0)"/>
      <text x="254.2207" y="1.1139" clip-path="url(#clipPath2)" fill="black" font-family="sans-serif" stroke="none" xml:space="preserve">https://rpp-opendata.egon.gov.cz/odrpp/zdroj/agenda/A688</text>
      <ellipse clip-path="url(#clipPath2)" fill="none" rx="171" cx="709" ry="18" cy="48.4" stroke="rgb(153,51,102)"/>
      <text x="547.583" y="53.1139" clip-path="url(#clipPath2)" fill="black" font-family="sans-serif" stroke="none" xml:space="preserve">https://linked.cuzk.cz/resource/ruian/adresni-misto/25852213</text>
      <rect x="823" y="-40.1814" clip-path="url(#clipPath2)" fill="none" width="294.8" height="30" stroke="rgb(153,51,102)"/>
      <text x="828.691" y="-20.4676" clip-path="url(#clipPath2)" fill="black" font-family="sans-serif" stroke="none" xml:space="preserve">"POINT(14.507664872462017 50.06974511746305)"</text>
      <path fill="none" d="M436 313 L436 241" clip-path="url(#clipPath2)"/>
      <path d="M436 233 L431 245 L436 242 L441 245 Z" clip-path="url(#clipPath2)" stroke="none"/>
    </g>
    <g font-size="10px" stroke-linecap="butt" transform="matrix(1,0,0,1,-44,56)" text-rendering="geometricPrecision" font-family="sans-serif" shape-rendering="geometricPrecision" stroke-miterlimit="1.45">
      <text x="287.3008" xml:space="preserve" y="279.9282" clip-path="url(#clipPath2)" stroke="none">http://purl.org/dc/terms/publisher</text>
    </g>
    <g stroke-linecap="butt" transform="matrix(1,0,0,1,-44,56)" fill="rgb(153,204,0)" text-rendering="geometricPrecision" shape-rendering="geometricPrecision" stroke="rgb(153,204,0)" stroke-miterlimit="1.45">
      <path fill="none" d="M582 215 L844 215" clip-path="url(#clipPath2)"/>
      <path d="M852 215 L840 210 L843 215 L840 220 Z" clip-path="url(#clipPath2)" stroke="none"/>
    </g>
    <g font-size="10px" stroke-linecap="butt" transform="matrix(1,0,0,1,-44,56)" text-rendering="geometricPrecision" font-family="sans-serif" shape-rendering="geometricPrecision" stroke-miterlimit="1.45">
      <text x="613.1113" xml:space="preserve" y="211.1711" clip-path="url(#clipPath2)" stroke="none">https://data.gov.cz/slovník/ovm/datováSchránka</text>
    </g>
    <g stroke-linecap="butt" transform="matrix(1,0,0,1,-44,56)" fill="rgb(153,204,0)" text-rendering="geometricPrecision" shape-rendering="geometricPrecision" stroke="rgb(153,204,0)" stroke-miterlimit="1.45">
      <path fill="none" d="M519.9151 229.7298 L804.1205 279.6169" clip-path="url(#clipPath2)"/>
      <path d="M812 281 L801.0452 274.0006 L803.1356 279.444 L799.3163 283.85 Z" clip-path="url(#clipPath2)" stroke="none"/>
    </g>
    <g font-size="10px" stroke-linecap="butt" transform="matrix(0.9848,0.1736,-0.1736,0.9848,543.236,281.2258)" text-rendering="geometricPrecision" font-family="sans-serif" shape-rendering="geometricPrecision" stroke-miterlimit="1.45">
      <text x="2" xml:space="preserve" y="12.0537" clip-path="url(#clipPath3)" stroke="none">https://data.gov.cz/slovník/ovm/právníForma</text>
    </g>
    <g stroke-linecap="butt" transform="matrix(1,0,0,1,-44,56)" fill="rgb(153,204,0)" text-rendering="geometricPrecision" shape-rendering="geometricPrecision" stroke="rgb(153,204,0)" stroke-miterlimit="1.45">
      <path fill="none" d="M524.8576 200.7176 L804.1014 155.8338" clip-path="url(#clipPath2)"/>
      <path d="M812 154.5642 L799.3586 151.5319 L803.1141 155.9924 L800.9456 161.4052 Z" clip-path="url(#clipPath2)" stroke="none"/>
    </g>
    <g font-size="10px" stroke-linecap="butt" transform="matrix(0.9877,-0.1564,0.1564,0.9877,586.0041,221.1048)" text-rendering="geometricPrecision" font-family="sans-serif" shape-rendering="geometricPrecision" stroke-miterlimit="1.45">
      <text x="2" xml:space="preserve" y="12.0537" clip-path="url(#clipPath4)" stroke="none">https://schema.org/name</text>
    </g>
    <g stroke-linecap="butt" transform="matrix(1,0,0,1,-44,56)" fill="rgb(255,153,0)" text-rendering="geometricPrecision" shape-rendering="geometricPrecision" stroke="rgb(255,153,0)" stroke-miterlimit="1.45">
      <path fill="none" d="M414.0808 197.204 L258.9972 71.2931" clip-path="url(#clipPath2)"/>
      <path d="M252.7865 66.2506 L258.9511 77.696 L259.7736 71.9234 L265.2542 69.9325 Z" clip-path="url(#clipPath2)" stroke="none"/>
      <path fill="none" d="M433.9417 197.0018 L413.9674 22.3469" clip-path="url(#clipPath2)"/>
      <path d="M413.0584 14.3987 L409.4543 26.8891 L414.081 23.3404 L419.3895 25.7529 Z" clip-path="url(#clipPath2)" stroke="none"/>
    </g>
    <g font-size="10px" stroke-linecap="butt" transform="matrix(1,0,0,1,-44,56)" text-rendering="geometricPrecision" font-family="sans-serif" shape-rendering="geometricPrecision" stroke-miterlimit="1.45">
      <text x="184.2373" xml:space="preserve" y="119.3282" clip-path="url(#clipPath2)" stroke="none">https://slovník.gov.cz/legislativní/sbírka/111/2009/pojem/ohlašuje-agendu</text>
    </g>
    <g stroke-linecap="butt" transform="matrix(1,0,0,1,-44,56)" fill="rgb(255,153,0)" text-rendering="geometricPrecision" shape-rendering="geometricPrecision" stroke="rgb(255,153,0)" stroke-miterlimit="1.45">
      <path fill="none" d="M464.9117 197.3565 L673.1046 70.3054" clip-path="url(#clipPath2)"/>
      <path d="M679.9335 66.138 L667.0856 68.1211 L672.251 70.8263 L672.2948 76.6571 Z" clip-path="url(#clipPath2)" stroke="none"/>
    </g>
    <g font-size="10px" stroke-linecap="butt" transform="matrix(1,0,0,1,-44,56)" text-rendering="geometricPrecision" font-family="sans-serif" shape-rendering="geometricPrecision" stroke-miterlimit="1.45">
      <text x="617.5674" xml:space="preserve" y="111.3282" clip-path="url(#clipPath2)" stroke="none">https://slovník.gov.cz/legislativní/sbírka/111/2009/pojem/má-adresu-sídla-orgánu-veřejné-moci</text>
    </g>
    <g stroke-linecap="butt" transform="matrix(1,0,0,1,-44,56)" fill="rgb(153,51,102)" text-rendering="geometricPrecision" shape-rendering="geometricPrecision" stroke="rgb(153,51,102)" stroke-miterlimit="1.45">
      <path fill="none" d="M768.8947 31.5403 L909.4114 -8.0138" clip-path="url(#clipPath2)"/>
      <path d="M917.1121 -10.1814 L904.2062 -11.7429 L908.4488 -7.7428 L906.9158 -2.117 Z" clip-path="url(#clipPath2)" stroke="none"/>
    </g>
    <g font-size="10px" stroke-linecap="butt" transform="matrix(1,0,0,1,-44,56)" text-rendering="geometricPrecision" font-family="sans-serif" shape-rendering="geometricPrecision" stroke-miterlimit="1.45">
      <text x="701.4092" xml:space="preserve" y="5.3282" clip-path="url(#clipPath2)" stroke="none">http://www.w3.org/ns/locn#geometry</text>
    </g>
  </g>
</svg>
