<?xml version="1.0" encoding="UTF-8"?><svg xmlns="http://www.w3.org/2000/svg" xmlns:xlink="http://www.w3.org/1999/xlink" fill-opacity="1" color-rendering="auto" color-interpolation="auto" text-rendering="auto" stroke="black" stroke-linecap="square" width="575" stroke-miterlimit="10" shape-rendering="auto" stroke-opacity="1" fill="black" stroke-dasharray="none" font-weight="normal" stroke-width="1" height="70" font-family="'Dialog'" font-style="normal" stroke-linejoin="miter" font-size="12px" stroke-dashoffset="0" image-rendering="auto">
  <!--Generated by ySVG 2.5-->
  <defs id="genericDefs"/>
  <g>
    <defs id="defs1">
      <clipPath clipPathUnits="userSpaceOnUse" id="clipPath1">
        <path d="M0 0 L575 0 L575 70 L0 70 L0 0 Z"/>
      </clipPath>
      <clipPath clipPathUnits="userSpaceOnUse" id="clipPath2">
        <path d="M154 63 L729 63 L729 133 L154 133 L154 63 Z"/>
      </clipPath>
    </defs>
    <g fill="white" text-rendering="geometricPrecision" shape-rendering="geometricPrecision" transform="translate(-154,-63)" stroke="white">
      <rect x="154" width="575" height="70" y="63" clip-path="url(#clipPath2)" stroke="none"/>
    </g>
    <g stroke-linecap="butt" transform="matrix(1,0,0,1,-154,-63)" fill="navy" text-rendering="geometricPrecision" shape-rendering="geometricPrecision" stroke="navy" stroke-miterlimit="1.45">
      <ellipse rx="146" fill="none" ry="18" clip-path="url(#clipPath2)" cx="315" cy="100"/>
      <text x="210.2695" y="104.7139" clip-path="url(#clipPath2)" fill="black" font-family="sans-serif" stroke="none" xml:space="preserve">https://data.gov.cz/zdroj/ovm/00025593</text>
      <text x="671.6523" y="101.7139" clip-path="url(#clipPath2)" fill="black" font-family="sans-serif" stroke="none" xml:space="preserve">?název</text>
      <path fill="none" d="M460.6952 98.8375 L660.6003 97.2426" clip-path="url(#clipPath2)" stroke="black"/>
      <path fill="black" d="M668.6 97.1787 L656.5605 92.2746 L659.6003 97.2505 L656.6403 102.2743 Z" clip-path="url(#clipPath2)" stroke="none"/>
    </g>
    <g font-size="11px" stroke-linecap="butt" transform="matrix(1,0,0,1,-154,-63)" text-rendering="geometricPrecision" font-family="sans-serif" shape-rendering="geometricPrecision" stroke-miterlimit="1.45">
      <text x="510.8527" xml:space="preserve" y="92.0561" clip-path="url(#clipPath2)" stroke="none">https://schema.org/name</text>
    </g>
  </g>
</svg>
