<?xml version="1.0" encoding="UTF-8"?><svg xmlns="http://www.w3.org/2000/svg" xmlns:xlink="http://www.w3.org/1999/xlink" fill-opacity="1" color-rendering="auto" color-interpolation="auto" text-rendering="auto" stroke="black" stroke-linecap="square" width="1161" stroke-miterlimit="10" shape-rendering="auto" stroke-opacity="1" fill="black" stroke-dasharray="none" font-weight="normal" stroke-width="1" height="441" font-family="'Dialog'" font-style="normal" stroke-linejoin="miter" font-size="12px" stroke-dashoffset="0" image-rendering="auto">
  <!--Generated by ySVG 2.5-->
  <defs id="genericDefs"/>
  <g>
    <defs id="defs1">
      <clipPath clipPathUnits="userSpaceOnUse" id="clipPath1">
        <path d="M0 0 L1161 0 L1161 441 L0 441 L0 0 Z"/>
      </clipPath>
      <clipPath clipPathUnits="userSpaceOnUse" id="clipPath2">
        <path d="M60 1 L1221 1 L1221 442 L60 442 L60 1 Z"/>
      </clipPath>
      <clipPath clipPathUnits="userSpaceOnUse" id="clipPath3">
        <path d="M-597.1931 -223.9263 L546.1688 -425.5318 L622.7476 8.7684 L-520.6142 210.374 L-597.1931 -223.9263 Z"/>
      </clipPath>
      <clipPath clipPathUnits="userSpaceOnUse" id="clipPath4">
        <path d="M-543.4005 -353.4631 L603.3057 -171.8427 L534.3181 263.7279 L-612.3881 82.1075 L-543.4005 -353.4631 Z"/>
      </clipPath>
    </defs>
    <g fill="white" text-rendering="geometricPrecision" shape-rendering="geometricPrecision" transform="translate(-60,-1)" stroke="white">
      <rect x="60" width="1161" height="441" y="1" clip-path="url(#clipPath2)" stroke="none"/>
    </g>
    <g stroke-linecap="butt" transform="matrix(1,0,0,1,-60,-1)" fill="rgb(153,204,0)" text-rendering="geometricPrecision" shape-rendering="geometricPrecision" stroke="rgb(153,204,0)" stroke-miterlimit="1.45">
      <ellipse rx="262" fill="none" ry="21" clip-path="url(#clipPath2)" cx="442" cy="416"/>
      <text x="191.5381" y="420.7139" clip-path="url(#clipPath2)" fill="black" font-family="sans-serif" stroke="none" xml:space="preserve">https://data.gov.cz/zdroj/datové-sady/00025593/719f7b9f2cf4ab7fa40c7e7c459995a7</text>
      <ellipse rx="146" fill="none" ry="18" clip-path="url(#clipPath2)" cx="458" cy="315"/>
      <text x="353.2695" y="319.7139" clip-path="url(#clipPath2)" fill="black" font-family="sans-serif" stroke="none" xml:space="preserve">https://data.gov.cz/zdroj/ovm/00025593</text>
      <ellipse rx="171" fill="none" ry="18" clip-path="url(#clipPath2)" cx="1045" cy="315"/>
      <text x="913.2637" y="319.7139" clip-path="url(#clipPath2)" fill="black" font-family="sans-serif" stroke="none" xml:space="preserve">https://data.gov.cz/zdroj/datové-schránky/2gfaasy</text>
      <ellipse rx="171" fill="none" ry="18" clip-path="url(#clipPath2)" cx="1005" cy="381"/>
      <text x="881.2764" y="385.7139" clip-path="url(#clipPath2)" fill="black" font-family="sans-serif" stroke="none" xml:space="preserve">https://data.gov.cz/zdroj/ovm/právní-forma/325</text>
      <text x="829.0328" y="248.1232" clip-path="url(#clipPath2)" fill="black" font-family="sans-serif" stroke="none" xml:space="preserve">"Český statistický úřad"@cs</text>
      <ellipse clip-path="url(#clipPath2)" fill="none" rx="171" cx="236.8" ry="18" cy="94.4" stroke="rgb(255,153,0)"/>
      <text x="80.0207" y="99.1139" clip-path="url(#clipPath2)" fill="black" font-family="sans-serif" stroke="none" xml:space="preserve">https://rpp-opendata.egon.gov.cz/odrpp/zdroj/agenda/A687</text>
      <ellipse clip-path="url(#clipPath2)" fill="none" rx="171" cx="411" ry="18" cy="28.4" stroke="rgb(255,153,0)"/>
      <text x="254.2207" y="33.1139" clip-path="url(#clipPath2)" fill="black" font-family="sans-serif" stroke="none" xml:space="preserve">https://rpp-opendata.egon.gov.cz/odrpp/zdroj/agenda/A688</text>
      <ellipse clip-path="url(#clipPath2)" fill="none" rx="171" cx="699" ry="18" cy="84.4" stroke="rgb(153,51,102)"/>
      <text x="537.583" y="89.1139" clip-path="url(#clipPath2)" fill="black" font-family="sans-serif" stroke="none" xml:space="preserve">https://linked.cuzk.cz/resource/ruian/adresni-misto/25852213</text>
      <text x="875.691" y="26.1139" clip-path="url(#clipPath2)" fill="black" font-family="sans-serif" stroke="none" xml:space="preserve">"POINT(14.507664872462017 50.06974511746305)"</text>
      <ellipse clip-path="url(#clipPath2)" fill="none" rx="218" cx="447" ry="18" cy="234" stroke="rgb(255,153,0)"/>
      <text x="245.8711" y="238.7139" clip-path="url(#clipPath2)" fill="black" font-family="sans-serif" stroke="none" xml:space="preserve">https://rpp-opendata.egon.gov.cz/odrpp/zdroj/orgán-veřejné-moci/00025593</text>
      <path fill="none" d="M445.3265 395.0017 L453.8973 340.898" clip-path="url(#clipPath2)"/>
      <path d="M455.149 332.9966 L448.3331 344.0665 L453.7409 341.8857 L458.2099 345.6311 Z" clip-path="url(#clipPath2)" stroke="none"/>
    </g>
    <g font-size="10px" stroke-linecap="butt" transform="matrix(1,0,0,1,-60,-1)" text-rendering="geometricPrecision" font-family="sans-serif" shape-rendering="geometricPrecision" stroke-miterlimit="1.45">
      <text x="300.3008" xml:space="preserve" y="369.3282" clip-path="url(#clipPath2)" stroke="none">http://purl.org/dc/terms/publisher</text>
    </g>
    <g stroke-linecap="butt" transform="matrix(1,0,0,1,-60,-1)" fill="rgb(153,204,0)" text-rendering="geometricPrecision" shape-rendering="geometricPrecision" stroke="rgb(153,204,0)" stroke-miterlimit="1.45">
      <path fill="none" d="M604 315 L866 315" clip-path="url(#clipPath2)"/>
      <path d="M874 315 L862 310 L865 315 L862 320 Z" clip-path="url(#clipPath2)" stroke="none"/>
    </g>
    <g font-size="10px" stroke-linecap="butt" transform="matrix(1,0,0,1,-60,-1)" text-rendering="geometricPrecision" font-family="sans-serif" shape-rendering="geometricPrecision" stroke-miterlimit="1.45">
      <text x="635.1113" xml:space="preserve" y="311.1711" clip-path="url(#clipPath2)" stroke="none">https://data.gov.cz/slovník/ovm/datováSchránka</text>
    </g>
    <g stroke-linecap="butt" transform="matrix(1,0,0,1,-60,-1)" fill="rgb(153,204,0)" text-rendering="geometricPrecision" shape-rendering="geometricPrecision" stroke="rgb(153,204,0)" stroke-miterlimit="1.45">
      <path fill="none" d="M541.9151 329.7298 L826.1205 379.6169" clip-path="url(#clipPath2)"/>
      <path d="M834 381 L823.0452 374.0006 L825.1356 379.444 L821.3163 383.85 Z" clip-path="url(#clipPath2)" stroke="none"/>
    </g>
    <g font-size="10px" stroke-linecap="butt" transform="matrix(0.9848,0.1736,-0.1736,0.9848,549.236,324.2258)" text-rendering="geometricPrecision" font-family="sans-serif" shape-rendering="geometricPrecision" stroke-miterlimit="1.45">
      <text x="2" xml:space="preserve" y="12.0537" clip-path="url(#clipPath3)" stroke="none">https://data.gov.cz/slovník/ovm/právníForma</text>
    </g>
    <g stroke-linecap="butt" transform="matrix(1,0,0,1,-60,-1)" fill="rgb(153,204,0)" text-rendering="geometricPrecision" shape-rendering="geometricPrecision" stroke="rgb(153,204,0)" stroke-miterlimit="1.45">
      <path fill="none" d="M546.8576 300.7176 L815.5014 257.5375" clip-path="url(#clipPath2)"/>
      <path d="M823.4 256.268 L810.7586 253.2357 L814.5141 257.6962 L812.3456 263.1089 Z" clip-path="url(#clipPath2)" stroke="none"/>
    </g>
    <g font-size="10px" stroke-linecap="butt" transform="matrix(0.9877,-0.1564,0.1564,0.9877,592.0041,264.1048)" text-rendering="geometricPrecision" font-family="sans-serif" shape-rendering="geometricPrecision" stroke-miterlimit="1.45">
      <text x="2" xml:space="preserve" y="12.0537" clip-path="url(#clipPath4)" stroke="none">https://schema.org/name</text>
    </g>
    <g stroke-linecap="butt" transform="matrix(1,0,0,1,-60,-1)" fill="rgb(153,51,102)" text-rendering="geometricPrecision" shape-rendering="geometricPrecision" stroke="rgb(153,51,102)" stroke-miterlimit="1.45">
      <path fill="none" d="M779.3134 68.5088 L933.7426 37.9528" clip-path="url(#clipPath2)"/>
      <path d="M941.5905 36.4 L928.8481 33.8243 L932.7616 38.1469 L930.7892 43.6341 Z" clip-path="url(#clipPath2)" stroke="none"/>
    </g>
    <g font-size="10px" stroke-linecap="butt" transform="matrix(1,0,0,1,-60,-1)" text-rendering="geometricPrecision" font-family="sans-serif" shape-rendering="geometricPrecision" stroke-miterlimit="1.45">
      <text x="694.8926" xml:space="preserve" y="47.2395" clip-path="url(#clipPath2)" stroke="none">http://www.w3.org/ns/locn#geometry</text>
    </g>
    <g stroke-linecap="butt" transform="matrix(1,0,0,1,-60,-1)" fill="rgb(153,204,0)" text-rendering="geometricPrecision" shape-rendering="geometricPrecision" stroke-dasharray="12,4" stroke="rgb(153,204,0)" stroke-width="2" stroke-miterlimit="1.45">
      <path fill="none" d="M455.5559 297.0025 L450.6554 260.917" clip-path="url(#clipPath2)"/>
      <path d="M449.4443 251.9989 L445.6871 266.133 L450.8068 262.0318 L456.8348 264.6192 Z" clip-path="url(#clipPath2)" stroke="none"/>
    </g>
    <g font-size="10px" stroke-linecap="butt" transform="matrix(1,0,0,1,-60,-1)" text-rendering="geometricPrecision" font-family="sans-serif" shape-rendering="geometricPrecision" stroke-miterlimit="1.45">
      <text x="267.0669" xml:space="preserve" y="281.3282" clip-path="url(#clipPath2)" stroke="none">http://www.w3.org/2002/07/owl#sameAs</text>
    </g>
    <g stroke-linecap="butt" transform="matrix(1,0,0,1,-60,-1)" fill="rgb(255,153,0)" text-rendering="geometricPrecision" shape-rendering="geometricPrecision" stroke="rgb(255,153,0)" stroke-miterlimit="1.45">
      <path fill="none" d="M443.8486 216.0019 L415.531 54.2771" clip-path="url(#clipPath2)"/>
      <path d="M414.1512 46.3969 L411.2958 59.0795 L415.7035 55.2621 L421.146 57.3547 Z" clip-path="url(#clipPath2)" stroke="none"/>
    </g>
    <g font-size="10px" stroke-linecap="butt" transform="matrix(1,0,0,1,-60,-1)" text-rendering="geometricPrecision" font-family="sans-serif" shape-rendering="geometricPrecision" stroke-miterlimit="1.45">
      <text x="202.2373" xml:space="preserve" y="157.3282" clip-path="url(#clipPath2)" stroke="none">https://slovník.gov.cz/legislativní/sbírka/111/2009/pojem/ohlašuje-agendu</text>
    </g>
    <g stroke-linecap="butt" transform="matrix(1,0,0,1,-60,-1)" fill="rgb(255,153,0)" text-rendering="geometricPrecision" shape-rendering="geometricPrecision" stroke="rgb(255,153,0)" stroke-miterlimit="1.45">
      <path fill="none" d="M420.1039 216.1375 L270.2332 116.604" clip-path="url(#clipPath2)"/>
      <path d="M263.569 112.1781 L270.7991 122.982 L271.0662 117.1572 L276.3315 114.6518 Z" clip-path="url(#clipPath2)" stroke="none"/>
      <path fill="none" d="M477.0318 216.1716 L662.2657 106.2073" clip-path="url(#clipPath2)"/>
      <path d="M669.1448 102.1235 L656.2737 103.9498 L661.4058 106.7178 L661.3785 112.5487 Z" clip-path="url(#clipPath2)" stroke="none"/>
    </g>
    <g font-size="10px" stroke-linecap="butt" transform="matrix(1,0,0,1,-60,-1)" text-rendering="geometricPrecision" font-family="sans-serif" shape-rendering="geometricPrecision" stroke-miterlimit="1.45">
      <text x="611.5674" xml:space="preserve" y="145.3282" clip-path="url(#clipPath2)" stroke="none">https://slovník.gov.cz/legislativní/sbírka/111/2009/pojem/má-adresu-sídla-orgánu-veřejné-moci</text>
    </g>
  </g>
</svg>
