<?xml version="1.0" encoding="UTF-8"?><svg xmlns="http://www.w3.org/2000/svg" xmlns:xlink="http://www.w3.org/1999/xlink" fill-opacity="1" color-rendering="auto" color-interpolation="auto" text-rendering="auto" stroke="black" stroke-linecap="square" width="504" stroke-miterlimit="10" shape-rendering="auto" stroke-opacity="1" fill="black" stroke-dasharray="none" font-weight="normal" stroke-width="1" height="196" font-family="'Dialog'" font-style="normal" stroke-linejoin="miter" font-size="12px" stroke-dashoffset="0" image-rendering="auto">
  <!--Generated by ySVG 2.5-->
  <defs id="genericDefs"/>
  <g>
    <defs id="defs1">
      <clipPath clipPathUnits="userSpaceOnUse" id="clipPath1">
        <path d="M0 0 L504 0 L504 196 L0 196 L0 0 Z"/>
      </clipPath>
      <clipPath clipPathUnits="userSpaceOnUse" id="clipPath2">
        <path d="M404 259 L908 259 L908 455 L404 455 L404 259 Z"/>
      </clipPath>
      <clipPath clipPathUnits="userSpaceOnUse" id="clipPath3">
        <path d="M-189.8576 -84.7283 L306.4856 2.7904 L272.4505 195.8127 L-223.8926 108.294 L-189.8576 -84.7283 Z"/>
      </clipPath>
    </defs>
    <g fill="white" text-rendering="geometricPrecision" shape-rendering="geometricPrecision" transform="translate(-404,-259)" stroke="white">
      <rect x="404" width="504" height="196" y="259" clip-path="url(#clipPath2)" stroke="none"/>
    </g>
    <g stroke-linecap="butt" transform="matrix(1,0,0,1,-404,-259)" fill="navy" text-rendering="geometricPrecision" shape-rendering="geometricPrecision" stroke="navy" stroke-miterlimit="1.45">
      <ellipse rx="62.8" fill="none" ry="18" clip-path="url(#clipPath2)" cx="481.8" cy="355.2931"/>
      <text x="437.4504" y="360.007" clip-path="url(#clipPath2)" fill="black" font-family="sans-serif" stroke="none" xml:space="preserve">Statistika cizinců</text>
      <text x="714.0703" y="288.8282" clip-path="url(#clipPath2)" fill="black" font-family="sans-serif" stroke="none" xml:space="preserve">"Cizinci podle státního občanství,</text>
      <text x="732.7441" y="303.5294" clip-path="url(#clipPath2)" fill="black" font-family="sans-serif" stroke="none" xml:space="preserve">věku a pohlaví - rok 2018"</text>
      <text x="782.5888" y="360.007" clip-path="url(#clipPath2)" fill="black" font-family="sans-serif" stroke="none" xml:space="preserve">"státní občanství"</text>
      <text x="740.7364" y="428.7311" clip-path="url(#clipPath2)" fill="black" font-family="sans-serif" stroke="none" xml:space="preserve">"cizinec"</text>
      <path fill="none" d="M533.3702 345.0211 L725.0021 306.8511" clip-path="url(#clipPath2)" stroke="black"/>
      <path fill="black" d="M732.848 305.2883 L720.1025 302.7288 L724.0214 307.0464 L722.056 312.5362 Z" clip-path="url(#clipPath2)" stroke="none"/>
    </g>
    <g font-size="11px" stroke-linecap="butt" transform="matrix(0.9848,-0.1736,0.1736,0.9848,201.6861,50.4727)" text-rendering="geometricPrecision" font-family="sans-serif" shape-rendering="geometricPrecision" stroke-miterlimit="1.45">
      <text x="2" xml:space="preserve" y="13.0591" clip-path="url(#clipPath3)" stroke="none">má název</text>
    </g>
    <g text-rendering="geometricPrecision" stroke-miterlimit="1.45" shape-rendering="geometricPrecision" transform="matrix(1,0,0,1,-404,-259)" stroke-linecap="butt">
      <path fill="none" d="M544.6 355.2931 L771.952 355.2931" clip-path="url(#clipPath2)"/>
      <path d="M779.952 355.2931 L767.952 350.2931 L770.952 355.2931 L767.952 360.2931 Z" clip-path="url(#clipPath2)" stroke="none"/>
      <text x="620.8748" font-size="11px" y="374.8962" clip-path="url(#clipPath2)" font-family="sans-serif" stroke="none" xml:space="preserve">je charakterizována</text>
      <text x="628.2278" font-size="11px" y="388.3723" clip-path="url(#clipPath2)" font-family="sans-serif" stroke="none" xml:space="preserve">klíčovým slovem</text>
    </g>
    <g text-rendering="geometricPrecision" stroke-miterlimit="1.45" shape-rendering="geometricPrecision" transform="matrix(1,0,0,1,-404,-259)" stroke-linecap="butt">
      <path fill="none" d="M529.6108 366.9639 L725.0762 414.6779" clip-path="url(#clipPath2)"/>
      <path d="M732.848 416.575 L722.376 408.8719 L724.1047 414.4408 L720.0046 418.5867 Z" clip-path="url(#clipPath2)" stroke="none"/>
    </g>
  </g>
</svg>
