<?xml version="1.0" encoding="UTF-8"?><svg xmlns="http://www.w3.org/2000/svg" xmlns:xlink="http://www.w3.org/1999/xlink" fill-opacity="1" color-rendering="auto" color-interpolation="auto" text-rendering="auto" stroke="black" stroke-linecap="square" width="863" stroke-miterlimit="10" shape-rendering="auto" stroke-opacity="1" fill="black" stroke-dasharray="none" font-weight="normal" stroke-width="1" height="270" font-family="'Dialog'" font-style="normal" stroke-linejoin="miter" font-size="12px" stroke-dashoffset="0" image-rendering="auto">
  <!--Generated by ySVG 2.5-->
  <defs id="genericDefs"/>
  <g>
    <defs id="defs1">
      <clipPath clipPathUnits="userSpaceOnUse" id="clipPath1">
        <path d="M0 0 L863 0 L863 270 L0 270 L0 0 Z"/>
      </clipPath>
      <clipPath clipPathUnits="userSpaceOnUse" id="clipPath2">
        <path d="M106 -49 L969 -49 L969 221 L106 221 L106 -49 Z"/>
      </clipPath>
      <clipPath clipPathUnits="userSpaceOnUse" id="clipPath3">
        <path d="M-463.5402 -163.5252 L386.3489 -13.6668 L339.4639 252.2313 L-510.4252 102.3729 L-463.5402 -163.5252 Z"/>
      </clipPath>
    </defs>
    <g fill="white" text-rendering="geometricPrecision" shape-rendering="geometricPrecision" transform="translate(-106,49)" stroke="white">
      <rect x="106" width="863" height="270" y="-49" clip-path="url(#clipPath2)" stroke="none"/>
    </g>
    <g text-rendering="geometricPrecision" stroke-miterlimit="1.45" shape-rendering="geometricPrecision" transform="matrix(1,0,0,1,-106,49)" stroke-linecap="butt">
      <ellipse rx="270.8" fill="none" ry="26" clip-path="url(#clipPath2)" cx="392.048" cy="82.136"/>
      <text x="141.5861" xml:space="preserve" y="86.8499" clip-path="url(#clipPath2)" font-family="sans-serif" stroke="none">https://data.gov.cz/zdroj/datové-sady/00025593/719f7b9f2cf4ab7fa40c7e7c459995a7</text>
      <text x="774.6943" xml:space="preserve" y="8.3271" clip-path="url(#clipPath2)" font-family="sans-serif" stroke="none">"Cizinci podle státního občanství,</text>
      <text x="793.3681" xml:space="preserve" y="23.0283" clip-path="url(#clipPath2)" font-family="sans-serif" stroke="none">věku a pohlaví - rok 2018"</text>
      <text x="816.5888" xml:space="preserve" y="84.4019" clip-path="url(#clipPath2)" font-family="sans-serif" stroke="none">"státní občanství"</text>
      <text x="810.7364" xml:space="preserve" y="153.126" clip-path="url(#clipPath2)" font-family="sans-serif" stroke="none">"cizinec"</text>
      <ellipse rx="122.8" fill="none" ry="18" clip-path="url(#clipPath2)" cx="392.048" cy="187.4461"/>
      <text x="288.6652" xml:space="preserve" y="192.1599" clip-path="url(#clipPath2)" font-family="sans-serif" stroke="none">https://data.gov.cz/zdroj/katalog/NKOD</text>
      <ellipse rx="232" fill="none" ry="18" clip-path="url(#clipPath2)" cx="392.048" cy="-16"/>
      <text x="190.9191" xml:space="preserve" y="-11.2861" clip-path="url(#clipPath2)" font-family="sans-serif" stroke="none">https://rpp-opendata.egon.gov.cz/odrpp/zdroj/orgán-veřejné-moci/00025593</text>
      <path fill="none" d="M537.2356 60.1887 L785.5619 22.6504" clip-path="url(#clipPath2)"/>
      <path d="M793.472 21.4547 L780.8595 18.3045 L784.5731 22.7999 L782.3542 28.1921 Z" clip-path="url(#clipPath2)" stroke="none"/>
    </g>
    <g font-size="11px" stroke-linecap="butt" transform="matrix(0.9848,-0.1736,0.1736,0.9848,484.8938,80.548)" text-rendering="geometricPrecision" font-family="sans-serif" shape-rendering="geometricPrecision" stroke-miterlimit="1.45">
      <text x="2" xml:space="preserve" y="13.0591" clip-path="url(#clipPath3)" stroke="none">http://purl.org/dc/terms/title</text>
    </g>
    <g text-rendering="geometricPrecision" stroke-miterlimit="1.45" shape-rendering="geometricPrecision" transform="matrix(1,0,0,1,-106,49)" stroke-linecap="butt">
      <path fill="none" d="M662.4518 80.7301 L805.9521 79.9839" clip-path="url(#clipPath2)"/>
      <path d="M813.952 79.9424 L801.9261 75.0048 L804.9521 79.9891 L801.9781 85.0047 Z" clip-path="url(#clipPath2)" stroke="none"/>
      <text x="652.5549" font-size="11px" y="106.6732" clip-path="url(#clipPath2)" font-family="sans-serif" stroke="none" xml:space="preserve">http://www.w3.org/ns/dcat#keyword</text>
    </g>
    <g text-rendering="geometricPrecision" stroke-miterlimit="1.45" shape-rendering="geometricPrecision" transform="matrix(1,0,0,1,-106,49)" stroke-linecap="butt">
      <path fill="none" d="M537.9068 104.0422 L794.9367 142.6451" clip-path="url(#clipPath2)"/>
      <path d="M802.848 143.8332 L791.7236 137.1064 L793.9478 142.4965 L790.2385 146.9955 Z" clip-path="url(#clipPath2)" stroke="none"/>
    </g>
    <g text-rendering="geometricPrecision" stroke-miterlimit="1.45" shape-rendering="geometricPrecision" transform="matrix(1,0,0,1,-106,49)" stroke-linecap="butt">
      <path fill="none" d="M392.048 169.4461 L392.048 116.136" clip-path="url(#clipPath2)"/>
      <path d="M392.048 108.136 L387.048 120.136 L392.048 117.136 L397.048 120.136 Z" clip-path="url(#clipPath2)" stroke="none"/>
      <text x="213.0682" font-size="11px" y="148.5104" clip-path="url(#clipPath2)" font-family="sans-serif" stroke="none" xml:space="preserve">http://www.w3.org/ns/dcat#dataset</text>
    </g>
    <g text-rendering="geometricPrecision" stroke-miterlimit="1.45" shape-rendering="geometricPrecision" transform="matrix(1,0,0,1,-106,49)" stroke-linecap="butt">
      <path fill="none" d="M392.048 56.136 L392.048 10" clip-path="url(#clipPath2)"/>
      <path d="M392.048 2 L387.048 14 L392.048 11 L397.048 14 Z" clip-path="url(#clipPath2)" stroke="none"/>
      <text x="243.3488" font-size="10px" y="28.0642" clip-path="url(#clipPath2)" font-family="sans-serif" stroke="none" xml:space="preserve">http://purl.org/dc/terms/publisher</text>
    </g>
  </g>
</svg>
