<svg height="300px" width="300px" fill="#057fa5" xmlns="http://www.w3.org/2000/svg" viewBox="0 0 64 64" x="0px" y="0px"><g data-name="28-economy"><path d="M39,34a3.99354,3.99354,0,0,0-6.2-3.33514L31.2525,29.63318A11.94289,11.94289,0,0,0,33.94934,23H36.142a4,4,0,1,0,0-2H33.94934a11.94289,11.94289,0,0,0-2.69684-6.63318l1.54755-1.03168a4.12011,4.12011,0,1,0-1.3393-1.5108l-1.64019,1.09345A11.93628,11.93628,0,0,0,23,10.05066V7.858a4,4,0,1,0-2,0v2.19263a11.93628,11.93628,0,0,0-6.82056,2.86713l-1.64019-1.09345A3.94936,3.94936,0,0,0,13,10,4.01209,4.01209,0,1,0,11.2,13.33514l1.54755,1.03168A11.94289,11.94289,0,0,0,10.05066,21H7.858a4,4,0,1,0,0,2h2.19263a11.94289,11.94289,0,0,0,2.69684,6.63318L11.2,30.66486a4.12011,4.12011,0,1,0,1.3393,1.5108l1.64019-1.09345A11.93628,11.93628,0,0,0,21,33.94934V36.142a4,4,0,1,0,2,0V33.94934a11.93628,11.93628,0,0,0,6.82056-2.86713l1.64019,1.09345A3.94936,3.94936,0,0,0,31,34a4,4,0,0,0,8,0Zm1-14a2,2,0,1,1-2,2A2.0026,2.0026,0,0,1,40,20ZM4,24a2,2,0,1,1,2-2A2.0026,2.0026,0,0,1,4,24ZM35,8a2,2,0,1,1-2,2A2.0026,2.0026,0,0,1,35,8ZM20,4a2,2,0,1,1,2,2A2.0026,2.0026,0,0,1,20,4ZM9,12a2,2,0,1,1,2-2A2.0026,2.0026,0,0,1,9,12ZM9,36a2,2,0,1,1,2-2A2.0026,2.0026,0,0,1,9,36Zm15,4a2,2,0,1,1-2-2A2.0026,2.0026,0,0,1,24,40Zm-2-8A10,10,0,1,1,32,22,10.01177,10.01177,0,0,1,22,32Zm11,2a2,2,0,1,1,2,2A2.0026,2.0026,0,0,1,33,34Z"/><path d="M22,20a4,4,0,1,0-4,4A4.004,4.004,0,0,0,22,20Zm-4,2a2,2,0,1,1,2-2A2.0026,2.0026,0,0,1,18,22Z"/><path d="M30,19a3,3,0,1,0-3,3A3.00328,3.00328,0,0,0,30,19Zm-3,1a1,1,0,1,1,1-1A1.00067,1.00067,0,0,1,27,20Z"/><path d="M23,24a3,3,0,1,0,3,3A3.00328,3.00328,0,0,0,23,24Zm0,4a1,1,0,1,1,1-1A1.00067,1.00067,0,0,1,23,28Z"/><rect x="22" y="14" width="2" height="2"/><rect x="16" y="26" width="2" height="2"/><rect x="28" y="23" width="2" height="2"/><path d="M53,45a1,1,0,0,0,0-2H50V42a1,1,0,0,0-2,0v1h-.5a3.5,3.5,0,0,0,0,7H48v3H45a1,1,0,0,0,0,2h3v1a1,1,0,0,0,2,0V55h.5a3.5,3.5,0,0,0,0-7H50V45Zm-2.5,5a1.5,1.5,0,0,1,0,3H50V50ZM48,48h-.5a1.5,1.5,0,0,1,0-3H48Z"/><path d="M49,34A15,15,0,1,0,64,49,15.01641,15.01641,0,0,0,49,34Zm0,28A13,13,0,1,1,62,49,13.01505,13.01505,0,0,1,49,62Z"/><path d="M49,38A11,11,0,1,0,60,49,11.01245,11.01245,0,0,0,49,38Zm0,20a9,9,0,1,1,9-9A9.00984,9.00984,0,0,1,49,58Z"/><path d="M47,22h5.18066l1.83887,9.19629A.99957.99957,0,0,0,54.9834,32H55a1.00049,1.00049,0,0,0,.97363-.77051l4-17a.99975.99975,0,0,0-1.29-1.17773l-4.78515,1.59472L52.99707,2.92285a1.00027,1.00027,0,0,0-1.96094-.19043l-5,18A1.00037,1.00037,0,0,0,47,22ZM51.43945,8.75391l.56348,7.32324a1.00006,1.00006,0,0,0,1.31348.87109l4.2998-1.43262L55.0791,26.29688l-1.09863-5.49317A1.00066,1.00066,0,0,0,53,20H48.31543Z"/><path d="M31.26758,49.03613l-18-5A1.00037,1.00037,0,0,0,12,45v5.18066L2.80371,52.01953a1.00011,1.00011,0,0,0-.0332,1.9541l17,4A1.02166,1.02166,0,0,0,20,58a.9993.9993,0,0,0,.94824-1.31641l-1.59472-4.78515,11.72363-.90137a1.00027,1.00027,0,0,0,.19043-1.96094Zm-13.34473.9668a1.00006,1.00006,0,0,0-.87109,1.31348l1.43262,4.2998L7.70312,53.0791l5.49317-1.09863A1.00066,1.00066,0,0,0,14,51V46.31543l11.24609,3.124Z"/></g></svg>
