<svg width="24" height="24" viewBox="0 0 24 24" fill="none" xmlns="http://www.w3.org/2000/svg">
<path fill-rule="evenodd" clip-rule="evenodd" d="M5 14H3C1.89543 14 1 13.1046 1 12V2C1 0.89543 1.89543 0 3 0H13C14.1046 0 15 0.895431 15 2V5H17C18.1046 5 19 5.89543 19 7V10H21C22.1046 10 23 10.8954 23 12V22C23 23.1046 22.1046 24 21 24H11C9.89543 24 9 23.1046 9 22V19H7C5.89543 19 5 18.1046 5 17V14ZM3 1.5H13C13.2761 1.5 13.5 1.72386 13.5 2V5H7C5.89543 5 5 5.89543 5 7V12.5H3C2.72386 12.5 2.5 12.2761 2.5 12V2C2.5 1.72386 2.72386 1.5 3 1.5ZM9 17.5V12C9 10.8954 9.89543 10 11 10H17.5V7C17.5 6.72386 17.2761 6.5 17 6.5H7C6.72386 6.5 6.5 6.72386 6.5 7V17C6.5 17.2761 6.72386 17.5 7 17.5H9ZM21 11.5H11C10.7239 11.5 10.5 11.7239 10.5 12V22C10.5 22.2761 10.7239 22.5 11 22.5H21C21.2761 22.5 21.5 22.2761 21.5 22V12C21.5 11.7239 21.2761 11.5 21 11.5Z" fill="currentColor"/>
</svg>
