<svg width="24" height="24" viewBox="0 0 24 24" fill="none" xmlns="http://www.w3.org/2000/svg">
<path d="M18.9643 22.5C20.9684 22.5 22.5 20.7678 22.5 18.75V7.5H1.5V18.75C1.5 20.7678 3.03162 22.5 5.03571 22.5H18.9643ZM8.25 10.5H15.75C16.1642 10.5 16.5 10.8358 16.5 11.25C16.5 11.6642 16.1642 12 15.75 12H8.25C7.83579 12 7.5 11.6642 7.5 11.25C7.5 10.8358 7.83579 10.5 8.25 10.5Z" fill="currentColor"/>
<path d="M1.2 1.5C0.537258 1.5 0 2.03726 0 2.7V4.5C0 5.16274 0.537258 5.7 1.2 5.7H22.8C23.4627 5.7 24 5.16274 24 4.5V2.7C24 2.03726 23.4627 1.5 22.8 1.5H1.2Z" fill="currentColor"/>
</svg>
