<svg width="24" height="24" viewBox="0 0 24 24" fill="none" xmlns="http://www.w3.org/2000/svg">
<path d="M7.5 9.75C7.5 9.33579 7.83579 9 8.25 9H15.75C16.1642 9 16.5 9.33579 16.5 9.75C16.5 10.1642 16.1642 10.5 15.75 10.5H8.25C7.83579 10.5 7.5 10.1642 7.5 9.75Z" fill="currentColor"/>
<path fill-rule="evenodd" clip-rule="evenodd" d="M0 1.5C0 0.671572 0.671574 0 1.5 0H22.5C23.3284 0 24 0.671573 24 1.5V4.5C24 5.32843 23.3284 6 22.5 6V14.0313C23.4335 15.089 24 16.4783 24 18C24 21.3137 21.3137 24 18 24C15.7792 24 13.8401 22.7934 12.8027 21H5.25C3.17893 21 1.5 19.3211 1.5 17.25V6C0.671573 6 0 5.32843 0 4.5V1.5ZM12.189 19.5C12.0656 19.0206 12 18.518 12 18C12 14.6863 14.6863 12 18 12C19.0929 12 20.1175 12.2922 21 12.8027V6H3V17.25C3 18.4926 4.00736 19.5 5.25 19.5H12.189ZM22.5 1.5H1.5V4.5H22.5V1.5ZM20.8885 15.4501C21.0856 15.2504 21.4051 15.2504 21.6022 15.4501C21.7969 15.6473 21.7992 15.9656 21.6094 16.1658L17.5774 20.9319C17.5736 20.9368 17.5694 20.9415 17.565 20.946C17.368 21.1457 17.0484 21.1457 16.8514 20.946L14.3978 18.4598C14.2007 18.2601 14.2007 17.9363 14.3978 17.7366C14.5949 17.5369 14.9144 17.5369 15.1115 17.7366L17.193 19.8458L20.8751 15.4654L20.8806 15.4587C20.8831 15.4557 20.8858 15.4528 20.8885 15.4501Z" fill="currentColor"/>
</svg>
