<svg width="24" height="24" viewBox="0 0 24 24" fill="none" xmlns="http://www.w3.org/2000/svg">
<g clip-path="url(#clip0_985_3951)">
<path fill-rule="evenodd" clip-rule="evenodd" d="M8.74267 15.2574C8.44978 14.9645 7.9749 14.9645 7.68201 15.2574L1.53772 21.4017L1.53772 17.25C1.53772 16.8358 1.20193 16.5 0.787721 16.5C0.373507 16.5 0.0377197 16.8358 0.0377202 17.25L0.0377197 23.2123C0.0377197 23.6266 0.373507 23.9623 0.78772 23.9623L6.74997 23.9623C7.16418 23.9623 7.49997 23.6266 7.49997 23.2123C7.49997 22.7981 7.16419 22.4623 6.74997 22.4623L2.59838 22.4623L8.74267 16.3181C9.03556 16.0252 9.03556 15.5503 8.74267 15.2574Z" fill="currentColor"/>
<path fill-rule="evenodd" clip-rule="evenodd" d="M15.2574 15.2574C15.5503 14.9645 16.0252 14.9645 16.3181 15.2574L22.4623 21.4017V17.25C22.4623 16.8358 22.7981 16.5 23.2123 16.5C23.6266 16.5 23.9623 16.8358 23.9623 17.25V23.2123C23.9623 23.6266 23.6266 23.9623 23.2123 23.9623L17.2501 23.9623C16.8359 23.9623 16.5001 23.6266 16.5001 23.2123C16.5001 22.7981 16.8359 22.4623 17.2501 22.4623L21.4017 22.4623L15.2574 16.3181C14.9645 16.0252 14.9645 15.5503 15.2574 15.2574Z" fill="currentColor"/>
<path fill-rule="evenodd" clip-rule="evenodd" d="M15.2574 8.74267C15.5503 9.03556 16.0251 9.03556 16.318 8.74267L22.4623 2.59838V6.75004C22.4623 7.16425 22.7981 7.50004 23.2123 7.50004C23.6265 7.50004 23.9623 7.16425 23.9623 6.75004V0.78772C23.9623 0.373507 23.6265 0.0377197 23.2123 0.0377197L17.2501 0.037724C16.8359 0.0377238 16.5001 0.373511 16.5001 0.787725C16.5001 1.20194 16.8359 1.53773 17.2501 1.53773L21.4017 1.53772L15.2574 7.68201C14.9645 7.9749 14.9645 8.44978 15.2574 8.74267Z" fill="currentColor"/>
<path fill-rule="evenodd" clip-rule="evenodd" d="M8.74269 8.74267C8.44979 9.03556 7.97492 9.03556 7.68203 8.74267L1.53774 2.59838L1.53774 6.75004C1.53774 7.16425 1.20195 7.50004 0.787737 7.50004C0.373523 7.50004 0.0377355 7.16425 0.037736 6.75004L0.0377355 0.78772C0.0377355 0.373507 0.373523 0.0377197 0.787736 0.0377197L6.74999 0.037724C7.1642 0.0377238 7.49999 0.373511 7.49999 0.787725C7.49999 1.20194 7.1642 1.53773 6.74999 1.53773L2.5984 1.53772L8.74269 7.68201C9.03558 7.9749 9.03558 8.44978 8.74269 8.74267Z" fill="currentColor"/>
</g>
<defs>
<clipPath id="clip0_985_3951">
<rect width="24" height="24" fill="white"/>
</clipPath>
</defs>
</svg>
