<svg width="24" height="24" viewBox="0 0 24 24" fill="none" xmlns="http://www.w3.org/2000/svg">
<path fill-rule="evenodd" clip-rule="evenodd" d="M12.4981 4.75341C17.3298 4.75341 21.2466 8.67023 21.2466 13.5019C21.2466 18.3335 17.3298 22.2503 12.4981 22.2503C7.6665 22.2503 3.74969 18.3335 3.74969 13.5019C3.74969 12.1976 4.03454 10.9622 4.54458 9.8526C4.74637 9.41359 4.55407 8.89412 4.11506 8.69233C3.67606 8.49054 3.15659 8.68284 2.9548 9.12185C2.34153 10.4561 2 11.9403 2 13.5019C2 19.2998 6.70018 24 12.4981 24C18.2961 24 22.9963 19.2998 22.9963 13.5019C22.9963 7.7039 18.2961 3.00372 12.4981 3.00372V4.75341Z" fill="currentColor"/>
<path d="M12.4981 7.31888V0.438259C12.4981 0.0673956 12.0656 -0.1352 11.7807 0.102221L7.65231 3.54253C7.44246 3.71741 7.44246 4.03973 7.65231 4.21461L11.7807 7.65491C12.0656 7.89234 12.4981 7.68974 12.4981 7.31888Z" fill="currentColor"/>
</svg>
