<svg width="24" height="24" viewBox="0 0 24 24" fill="none" xmlns="http://www.w3.org/2000/svg">
<g clip-path="url(#clip0_6848_11672)">
<path fill-rule="evenodd" clip-rule="evenodd" d="M1.719 7.28097C1.64915 7.2113 1.59374 7.12854 1.55593 7.03742C1.51812 6.9463 1.49866 6.84862 1.49866 6.74997C1.49866 6.65132 1.51812 6.55364 1.55593 6.46252C1.59374 6.3714 1.64915 6.28864 1.719 6.21897L7.719 0.218971C7.85983 0.0781409 8.05083 -0.000976562 8.25 -0.000976562C8.44916 -0.000976563 8.64017 0.0781409 8.781 0.218971C8.92183 0.359801 9.00095 0.550807 9.00095 0.749971C9.00095 0.949134 8.92183 1.14014 8.781 1.28097L4.0605 5.99997H18.75C19.7446 5.99997 20.6984 6.39506 21.4016 7.09832C22.1049 7.80158 22.5 8.75541 22.5 9.74997V21.75C22.5 21.9489 22.421 22.1396 22.2803 22.2803C22.1397 22.421 21.9489 22.5 21.75 22.5C21.5511 22.5 21.3603 22.421 21.2197 22.2803C21.079 22.1396 21 21.9489 21 21.75V9.74997C21 9.15323 20.7629 8.58094 20.341 8.15898C19.919 7.73702 19.3467 7.49997 18.75 7.49997H4.0605L8.781 12.219C8.85073 12.2887 8.90604 12.3715 8.94378 12.4626C8.98152 12.5537 9.00095 12.6514 9.00095 12.75C9.00095 12.8486 8.98152 12.9462 8.94378 13.0373C8.90604 13.1285 8.85073 13.2112 8.781 13.281C8.71127 13.3507 8.62848 13.406 8.53737 13.4438C8.44626 13.4815 8.34861 13.5009 8.25 13.5009C8.15138 13.5009 8.05373 13.4815 7.96262 13.4438C7.87151 13.406 7.78873 13.3507 7.719 13.281L1.719 7.28097Z" fill="currentColor"/>
</g>
<defs>
<clipPath id="clip0_6848_11672">
<rect width="24" height="24" fill="white"/>
</clipPath>
</defs>
</svg>
