<svg width="24" height="24" viewBox="0 0 24 24" fill="none" xmlns="http://www.w3.org/2000/svg">
<g clip-path="url(#clip0_6848_11671)">
<path fill-rule="evenodd" clip-rule="evenodd" d="M22.2797 7.28097C22.3495 7.2113 22.4049 7.12854 22.4427 7.03742C22.4805 6.9463 22.5 6.84862 22.5 6.74997C22.5 6.65132 22.4805 6.55364 22.4427 6.46252C22.4049 6.3714 22.3495 6.28864 22.2797 6.21897L16.2797 0.218971C16.1388 0.0781409 15.9478 -0.000976562 15.7487 -0.000976562C15.5495 -0.000976563 15.3585 0.0781409 15.2177 0.218971C15.0768 0.359801 14.9977 0.550807 14.9977 0.749971C14.9977 0.949134 15.0768 1.14014 15.2177 1.28097L19.9382 5.99997H5.24866C4.2541 5.99997 3.30027 6.39506 2.59701 7.09832C1.89375 7.80158 1.49866 8.75541 1.49866 9.74997V21.75C1.49866 21.9489 1.57767 22.1396 1.71833 22.2803C1.85898 22.421 2.04974 22.5 2.24866 22.5C2.44757 22.5 2.63834 22.421 2.77899 22.2803C2.91964 22.1396 2.99866 21.9489 2.99866 21.75V9.74997C2.99866 9.15323 3.23571 8.58094 3.65767 8.15898C4.07962 7.73702 4.65192 7.49997 5.24866 7.49997H19.9382L15.2177 12.219C15.1479 12.2887 15.0926 12.3715 15.0549 12.4626C15.0171 12.5537 14.9977 12.6514 14.9977 12.75C14.9977 12.8486 15.0171 12.9462 15.0549 13.0373C15.0926 13.1285 15.1479 13.2112 15.2177 13.281C15.2874 13.3507 15.3702 13.406 15.4613 13.4438C15.5524 13.4815 15.65 13.5009 15.7487 13.5009C15.8473 13.5009 15.9449 13.4815 16.036 13.4438C16.1271 13.406 16.2099 13.3507 16.2797 13.281L22.2797 7.28097Z" fill="currentColor"/>
</g>
<defs>
<clipPath id="clip0_6848_11671">
<rect width="24" height="24" fill="white"/>
</clipPath>
</defs>
</svg>
