<svg width="24" height="24" viewBox="0 0 24 24" fill="none" xmlns="http://www.w3.org/2000/svg">
<path d="M17.4952 10.7753H23.6105C23.9401 10.7753 24.1202 11.1598 23.9091 11.413L20.8515 15.0821C20.6961 15.2686 20.4096 15.2686 20.2542 15.0821L17.1966 11.413C16.9856 11.1598 17.1656 10.7753 17.4952 10.7753Z" fill="currentColor"/>
<path d="M0.38951 13.8855H6.50477C6.83438 13.8855 7.01444 13.501 6.80343 13.2478L3.7458 9.57865C3.59037 9.39214 3.30391 9.39214 3.14848 9.57865L0.0908506 13.2478C-0.120161 13.501 0.0598991 13.8855 0.38951 13.8855Z" fill="currentColor"/>
<path fill-rule="evenodd" clip-rule="evenodd" d="M12 4.55507C9.58577 4.55507 7.42899 5.65444 6.00162 7.38278C5.72818 7.71388 5.2381 7.76062 4.90699 7.48718C4.57589 7.21373 4.52915 6.72365 4.8026 6.39255C6.51271 4.32185 9.10232 3 12 3C16.5745 3 20.3787 6.2913 21.1766 10.6349C21.1852 10.6816 21.1934 10.7284 21.2013 10.7753H19.6199C18.8999 7.22633 15.7611 4.55507 12 4.55507ZM4.38005 13.8855C5.10007 17.4345 8.23888 20.1057 12 20.1057C14.4142 20.1057 16.571 19.0063 17.9984 17.278C18.2718 16.9469 18.7619 16.9002 19.093 17.1736C19.4241 17.4471 19.4708 17.9371 19.1974 18.2682C17.4873 20.3389 14.8977 21.6608 12 21.6608C7.42546 21.6608 3.62128 18.3695 2.82343 14.0259C2.81485 13.9792 2.80662 13.9324 2.79874 13.8855H4.38005Z" fill="currentColor"/>
</svg>
