<svg width="24" height="24" viewBox="0 0 24 24" fill="none" xmlns="http://www.w3.org/2000/svg">
<path fill-rule="evenodd" clip-rule="evenodd" d="M20.2405 2.4519C18.9713 1.1827 16.9135 1.1827 15.6443 2.4519L5.03769 13.0585C2.98744 15.1088 2.98744 18.4329 5.03769 20.4831C7.08794 22.5334 10.4121 22.5334 12.4623 20.4831L20.3731 12.5724C20.666 12.2795 21.1408 12.2795 21.4337 12.5724C21.7266 12.8653 21.7266 13.3401 21.4337 13.633L13.523 21.5438C10.8869 24.1798 6.61307 24.1798 3.97703 21.5438C1.34099 18.9077 1.34099 14.6339 3.97703 11.9978L14.5836 1.39124C16.4386 -0.463747 19.4462 -0.463748 21.3011 1.39124C23.1561 3.24623 23.1561 6.25377 21.3011 8.10876L10.8713 18.5386C9.79738 19.6125 8.05617 19.6125 6.98223 18.5386C5.90829 17.4646 5.90829 15.7234 6.98223 14.6495L16.1304 5.5013C16.4233 5.20841 16.8982 5.20841 17.1911 5.5013C17.484 5.79419 17.484 6.26907 17.1911 6.56196L8.04289 15.7102C7.55474 16.1983 7.55474 16.9898 8.04289 17.4779C8.53105 17.9661 9.3225 17.9661 9.81066 17.4779L20.2405 7.0481C21.5097 5.77889 21.5097 3.72111 20.2405 2.4519Z" fill="currentColor"/>
</svg>
