<svg width="24" height="24" viewBox="0 0 24 24" fill="none" xmlns="http://www.w3.org/2000/svg">
<path d="M12.8143 5.92244L14.7885 7.89659L12.8143 9.87074V5.92244ZM12.8143 18.0776L14.7885 16.1034L12.8143 14.1293V18.0776ZM10.6992 12.0141L6.41246 7.69918L7.65335 6.45828L11.0658 9.87074V1.69213L17.2703 7.89659L13.181 12.0141L17.2985 16.1316L11.094 22.3361V14.1293L7.65335 17.5417L6.41246 16.3008L10.6992 12.0141ZM11.8555 24C17.1011 24 20.7109 21.5182 20.7109 11.9859C20.7109 2.48179 17.1011 0 11.8555 0C6.60987 0 3 2.48179 3 12.0141C3 21.5182 6.60987 24 11.8555 24Z" fill="currentColor"/>
</svg>
