<svg width="24" height="24" viewBox="0 0 24 24" fill="none" xmlns="http://www.w3.org/2000/svg">
<path d="M1.5 4.89746C2.82747 4.3428 4.73085 3.74526 6.58152 3.5586C8.57698 3.35733 10.2696 3.65323 11.25 4.68616V19.3049C9.84766 18.5099 8.07097 18.4008 6.43098 18.5662C4.66039 18.7448 2.87656 19.2578 1.5 19.7827V4.89746ZM12.75 4.68616C13.7304 3.65323 15.423 3.35733 17.4185 3.5586C19.2692 3.74526 21.1725 4.3428 22.5 4.89746V19.7827C21.1234 19.2578 19.3396 18.7448 17.569 18.5662C15.929 18.4008 14.1523 18.5099 12.75 19.3049V4.68616ZM12 3.33069C10.5226 2.0608 8.38025 1.86956 6.43098 2.06617C4.15983 2.29525 1.86688 3.07462 0.439648 3.72336C0.171902 3.84506 0 4.11203 0 4.40613V20.9061C0 21.1611 0.129564 21.3987 0.343961 21.5367C0.558357 21.6748 0.82821 21.6944 1.06035 21.5889C2.38312 20.9877 4.51517 20.267 6.58152 20.0586C8.69348 19.8456 10.4662 20.1895 11.4143 21.3747C11.5567 21.5526 11.7722 21.6561 12 21.6561C12.2278 21.6561 12.4433 21.5526 12.5857 21.3747C13.5338 20.1895 15.3065 19.8456 17.4185 20.0586C19.4848 20.267 21.6169 20.9877 22.9396 21.5889C23.1718 21.6944 23.4416 21.6748 23.656 21.5367C23.8704 21.3987 24 21.1611 24 20.9061V4.40613C24 4.11203 23.8281 3.84506 23.5604 3.72336C22.1331 3.07462 19.8402 2.29525 17.569 2.06617C15.6198 1.86956 13.4774 2.0608 12 3.33069Z" fill="currentColor"/>
</svg>
