<svg width="24" height="24" viewBox="0 0 24 24" fill="none" xmlns="http://www.w3.org/2000/svg">
<path fill-rule="evenodd" clip-rule="evenodd" d="M9 18.75C9 19.1642 9.33579 19.5 9.75 19.5H21.75C22.1642 19.5 22.5 19.1642 22.5 18.75L22.5 5.25C22.5 4.83579 22.1642 4.5 21.75 4.5L9.75 4.5C9.33579 4.5 9 4.83579 9 5.25L9 8.25C9 8.66421 8.66421 9 8.25 9C7.83579 9 7.5 8.66421 7.5 8.25V5.25C7.5 4.00736 8.50736 3 9.75 3L21.75 3C22.9926 3 24 4.00736 24 5.25L24 18.75C24 19.9926 22.9926 21 21.75 21H9.75C8.50736 21 7.5 19.9926 7.5 18.75V15.75C7.5 15.3358 7.83579 15 8.25 15C8.66421 15 9 15.3358 9 15.75V18.75Z" fill="currentColor"/>
<path fill-rule="evenodd" clip-rule="evenodd" d="M0.21967 12.5303C-0.0732233 12.2374 -0.0732233 11.7626 0.21967 11.4697L4.71967 6.96967C5.01256 6.67677 5.48744 6.67677 5.78033 6.96967C6.07322 7.26256 6.07322 7.73744 5.78033 8.03033L2.56066 11.25L15.75 11.25C16.1642 11.25 16.5 11.5858 16.5 12C16.5 12.4142 16.1642 12.75 15.75 12.75L2.56066 12.75L5.78033 15.9697C6.07322 16.2626 6.07322 16.7374 5.78033 17.0303C5.48744 17.3232 5.01256 17.3232 4.71967 17.0303L0.21967 12.5303Z" fill="currentColor"/>
</svg>
