<svg width="24" height="24" viewBox="0 0 24 24" fill="none" xmlns="http://www.w3.org/2000/svg">
<path fill-rule="evenodd" clip-rule="evenodd" d="M9 5.25C9 4.83579 9.33579 4.5 9.75 4.5H21.75C22.1642 4.5 22.5 4.83579 22.5 5.25V18.75C22.5 19.1642 22.1642 19.5 21.75 19.5H9.75C9.33579 19.5 9 19.1642 9 18.75V15.75C9 15.3358 8.66421 15 8.25 15C7.83579 15 7.5 15.3358 7.5 15.75V18.75C7.5 19.9926 8.50736 21 9.75 21H21.75C22.9926 21 24 19.9926 24 18.75V5.25C24 4.00736 22.9926 3 21.75 3H9.75C8.50736 3 7.5 4.00736 7.5 5.25V8.25C7.5 8.66421 7.83579 9 8.25 9C8.66421 9 9 8.66421 9 8.25V5.25Z" fill="currentColor"/>
<path fill-rule="evenodd" clip-rule="evenodd" d="M17.7803 12.5303C18.0732 12.2374 18.0732 11.7626 17.7803 11.4697L13.2803 6.96967C12.9874 6.67678 12.5126 6.67678 12.2197 6.96967C11.9268 7.26256 11.9268 7.73744 12.2197 8.03033L15.4393 11.25H2.25C1.83579 11.25 1.5 11.5858 1.5 12C1.5 12.4142 1.83579 12.75 2.25 12.75H15.4393L12.2197 15.9697C11.9268 16.2626 11.9268 16.7374 12.2197 17.0303C12.5126 17.3232 12.9874 17.3232 13.2803 17.0303L17.7803 12.5303Z" fill="currentColor"/>
</svg>
