<svg width="24" height="24" viewBox="0 0 24 24" fill="none" xmlns="http://www.w3.org/2000/svg">
<path d="M9.75 1.5C8.5076 1.5 7.5 2.50675 7.5 3.74963V4.5H2.25C1.00736 4.5 0 5.50736 0 6.75V8.82621L11.4203 11.8716C11.8001 11.9729 12.1999 11.9729 12.5797 11.8716L24 8.82621V6.75C24 5.50736 22.9926 4.5 21.75 4.5H16.5V3.74963C16.5 2.50675 15.4924 1.5 14.25 1.5H9.75ZM9.75 3H14.25C14.6645 3 15 3.33695 15 3.75092V4.5H9V3.74963C9 3.33566 9.33555 3 9.75 3Z" fill="currentColor"/>
<path d="M0 18.75C0 19.9926 1.00736 21 2.25 21H21.75C22.9926 21 24 19.9926 24 18.75V10.2738L12.1932 13.4223C12.0666 13.456 11.9334 13.456 11.8068 13.4223L0 10.2738V18.75Z" fill="currentColor"/>
</svg>
