<svg width="24" height="24" viewBox="0 0 24 24" fill="none" xmlns="http://www.w3.org/2000/svg">
<path d="M9.75 1.5C8.5076 1.5 7.5 2.50675 7.5 3.74963V4.5H2.25C1.00736 4.5 0 5.50736 0 6.75V18.75C0 19.9926 1.00736 21 2.25 21H21.75C22.9926 21 24 19.9926 24 18.75V6.75C24 5.50736 22.9926 4.5 21.75 4.5H16.5V3.74963C16.5 2.50675 15.4924 1.5 14.25 1.5H9.75ZM9.75 3H14.25C14.6645 3 15 3.33695 15 3.75092V4.5H9V3.74963C9 3.33566 9.33555 3 9.75 3ZM12.5797 13.3716L22.5 10.7262V18.75C22.5 19.1642 22.1642 19.5 21.75 19.5H2.25C1.83579 19.5 1.5 19.1642 1.5 18.75V10.7262L11.4203 13.3716C11.8001 13.4729 12.1999 13.4729 12.5797 13.3716ZM2.25 6H21.75C22.1642 6 22.5 6.33579 22.5 6.75V9.17379L12.1932 11.9223C12.0666 11.956 11.9334 11.956 11.8068 11.9223L1.5 9.17379V6.75C1.5 6.33579 1.83579 6 2.25 6Z" fill="currentColor"/>
</svg>
