<svg width="24" height="24" viewBox="0 0 24 24" fill="none" xmlns="http://www.w3.org/2000/svg">
<g clip-path="url(#clip0_45_296)">
<path d="M16.5 9.75C16.5 9.33579 16.8358 9 17.25 9H18.75C19.1642 9 19.5 9.33579 19.5 9.75V11.25C19.5 11.6642 19.1642 12 18.75 12H17.25C16.8358 12 16.5 11.6642 16.5 11.25V9.75Z" fill="currentColor"/>
<path d="M5.25 0C5.66421 0 6 0.335786 6 0.75V1.5H18V0.75C18 0.335786 18.3358 0 18.75 0C19.1642 0 19.5 0.335786 19.5 0.75V1.5H21C22.6569 1.5 24 2.84315 24 4.5V21C24 22.6569 22.6569 24 21 24H3C1.34315 24 0 22.6569 0 21V4.5C0 2.84315 1.34315 1.5 3 1.5H4.5V0.75C4.5 0.335786 4.83579 0 5.25 0ZM1.5 6V21C1.5 21.8284 2.17157 22.5 3 22.5H21C21.8284 22.5 22.5 21.8284 22.5 21V6H1.5Z" fill="currentColor"/>
</g>
<defs>
<clipPath id="clip0_45_296">
<rect width="24" height="24" fill="white"/>
</clipPath>
</defs>
</svg>
