<svg width="24" height="24" viewBox="0 0 24 24" fill="none" xmlns="http://www.w3.org/2000/svg">
<path d="M22.5 18C22.5 18.8284 21.8284 19.5 21 19.5H3C2.17157 19.5 1.5 18.8284 1.5 18V9C1.5 8.17157 2.17157 7.5 3 7.5H4.75736C5.95083 7.5 7.09543 7.02589 7.93934 6.18198L9.18198 4.93934C9.46329 4.65803 9.84482 4.5 10.2426 4.5H13.7574C14.1552 4.5 14.5367 4.65804 14.818 4.93934L16.0607 6.18198C16.9046 7.0259 18.0492 7.5 19.2426 7.5H21C21.8284 7.5 22.5 8.17157 22.5 9V18ZM3 6C1.34315 6 0 7.34315 0 9V18C0 19.6569 1.34315 21 3 21H21C22.6569 21 24 19.6569 24 18V9C24 7.34315 22.6569 6 21 6H19.2426C18.447 6 17.6839 5.68393 17.1213 5.12132L15.8787 3.87868C15.3161 3.31607 14.553 3 13.7574 3H10.2426C9.44699 3 8.68393 3.31607 8.12132 3.87868L6.87868 5.12132C6.31607 5.68393 5.55301 6 4.75736 6H3Z" fill="currentColor"/>
<path d="M12 16.5C9.92893 16.5 8.25 14.8211 8.25 12.75C8.25 10.6789 9.92893 9 12 9C14.0711 9 15.75 10.6789 15.75 12.75C15.75 14.8211 14.0711 16.5 12 16.5ZM12 18C14.8995 18 17.25 15.6495 17.25 12.75C17.25 9.8505 14.8995 7.5 12 7.5C9.1005 7.5 6.75 9.8505 6.75 12.75C6.75 15.6495 9.1005 18 12 18Z" fill="currentColor"/>
<path d="M4.5 9.75C4.5 10.1642 4.16421 10.5 3.75 10.5C3.33579 10.5 3 10.1642 3 9.75C3 9.33579 3.33579 9 3.75 9C4.16421 9 4.5 9.33579 4.5 9.75Z" fill="currentColor"/>
</svg>
