<svg width="24" height="24" viewBox="0 0 24 24" fill="none" xmlns="http://www.w3.org/2000/svg">
<g clip-path="url(#clip0_6848_11734)">
<path d="M7.22846 3C6.49431 2.99964 5.77621 3.21478 5.16319 3.61875C4.55018 4.02272 4.06922 4.59774 3.77996 5.2725L2.59196 8.0445C2.47953 8.3075 2.27759 8.52219 2.02196 8.6505C1.27196 9.0255 0.739465 9.723 0.574465 10.5435L0.0749649 13.062C0.026336 13.304 0.00171659 13.5502 0.00146484 13.797V14.4165C0.00146484 15.6375 0.586465 16.731 1.50146 17.412V20.25C1.50146 20.4489 1.58048 20.6397 1.72113 20.7803C1.86179 20.921 2.05255 21 2.25146 21H5.25146C5.45038 21 5.64114 20.921 5.7818 20.7803C5.92245 20.6397 6.00146 20.4489 6.00146 20.25V18.243C7.93946 18.315 10.119 18.375 12.0015 18.375C13.884 18.375 16.0635 18.315 18.0015 18.243V20.25C18.0015 20.4489 18.0805 20.6397 18.2211 20.7803C18.3618 20.921 18.5526 21 18.7515 21H21.7515C21.9504 21 22.1411 20.921 22.2818 20.7803C22.4224 20.6397 22.5015 20.4489 22.5015 20.25V17.412C23.4165 16.731 24.0015 15.6375 24.0015 14.4165V13.797C24.0015 13.5495 23.9775 13.3035 23.928 13.062L23.4255 10.542C23.3443 10.1375 23.1719 9.75678 22.9213 9.42898C22.6707 9.10119 22.3486 8.83493 21.9795 8.6505C21.7233 8.52247 21.5208 8.30775 21.408 8.0445L20.22 5.2725C19.9307 4.59774 19.4498 4.02272 18.8367 3.61875C18.2237 3.21478 17.5056 2.99964 16.7715 3H7.22846ZM5.15997 5.865C5.33335 5.45972 5.62197 5.1143 5.98997 4.87163C6.35797 4.62896 6.78915 4.49973 7.22997 4.5H16.773C17.2135 4.50003 17.6444 4.62939 18.0121 4.87204C18.3798 5.11469 18.6682 5.45996 18.8415 5.865L20.0295 8.6355C20.2814 9.22508 20.735 9.70576 21.309 9.9915C21.642 10.1595 21.8805 10.4715 21.954 10.8375L22.458 13.356C22.488 13.5015 22.5015 13.6485 22.5015 13.797V14.4165C22.5037 14.9881 22.2854 15.5385 21.892 15.9531C21.4985 16.3678 20.9604 16.6147 20.3895 16.6425C18.057 16.7475 14.7105 16.875 12.0015 16.875C9.29246 16.875 5.94596 16.749 3.61346 16.6425C3.04217 16.6154 2.5034 16.3688 2.1096 15.954C1.7158 15.5393 1.49739 14.9884 1.49996 14.4165V13.797C1.49996 13.6485 1.51496 13.5015 1.54496 13.356L2.04746 10.836C2.08366 10.6554 2.16057 10.4855 2.27234 10.3392C2.38412 10.1928 2.5278 10.0739 2.69246 9.9915C3.26696 9.7065 3.71996 9.225 3.97196 8.6355L5.15997 5.8635V5.865Z" fill="currentColor"/>
<path d="M8 13.5C8 14.3284 7.32843 15 6.5 15C5.67157 15 5 14.3284 5 13.5C5 12.6716 5.67157 12 6.5 12C7.32843 12 8 12.6716 8 13.5Z" fill="currentColor"/>
<path d="M19 13.5C19 14.3284 18.3284 15 17.5 15C16.6716 15 16 14.3284 16 13.5C16 12.6716 16.6716 12 17.5 12C18.3284 12 19 12.6716 19 13.5Z" fill="currentColor"/>
</g>
<defs>
<clipPath id="clip0_6848_11734">
<rect width="24" height="24" fill="white"/>
</clipPath>
</defs>
</svg>
