<svg width="24" height="24" viewBox="0 0 24 24" fill="none" xmlns="http://www.w3.org/2000/svg">
<path fill-rule="evenodd" clip-rule="evenodd" d="M20.8293 18H22C23.1046 18 24 17.1046 24 16V11.9995C24 10.3427 22.6569 9 21 9H18L15.6 5.8C15.2223 5.29639 14.6295 5 14 5H6.60555C6.2107 5 5.82469 5.11688 5.49615 5.3359L1.7812 7.81253C0.668405 8.5544 0 9.80332 0 11.1407V16C0 17.1046 0.89543 18 2 18H2.17071C2.58254 19.1652 3.69378 20 5 20C6.30622 20 7.41746 19.1652 7.82929 18H15.1707C15.5825 19.1652 16.6938 20 18 20C19.3062 20 20.4175 19.1652 20.8293 18ZM17.75 10.5C17.4352 10.5 17.1389 10.3518 16.95 10.1L14.4 6.7C14.3056 6.5741 14.1574 6.5 14 6.5H6.60555C6.50684 6.5 6.41034 6.52922 6.3282 6.58397L2.61325 9.06061C1.91775 9.52427 1.5 10.3049 1.5 11.1407V16C1.5 16.2761 1.72386 16.5 2 16.5H2.04148C2.27952 15.0811 3.5135 14 5 14C6.4865 14 7.72048 15.0811 7.95852 16.5H15.0415C15.2795 15.0811 16.5135 14 18 14C19.4865 14 20.7205 15.0811 20.9585 16.5H22C22.2761 16.5 22.5 16.2761 22.5 16V11.9993C22.5 11.1709 21.8284 10.5 21 10.5H17.75ZM5 18.5C5.82843 18.5 6.5 17.8284 6.5 17C6.5 16.1716 5.82843 15.5 5 15.5C4.17157 15.5 3.5 16.1716 3.5 17C3.5 17.8284 4.17157 18.5 5 18.5ZM19.5 17C19.5 17.8284 18.8284 18.5 18 18.5C17.1716 18.5 16.5 17.8284 16.5 17C16.5 16.1716 17.1716 15.5 18 15.5C18.8284 15.5 19.5 16.1716 19.5 17Z" fill="currentColor"/>
</svg>
