<svg width="24" height="24" viewBox="0 0 24 24" fill="none" xmlns="http://www.w3.org/2000/svg">
<path d="M21.75 4.5C21.9489 4.5 22.1397 4.57902 22.2803 4.71967C22.421 4.86032 22.5 5.05109 22.5 5.25V18.75C22.5 18.9489 22.421 19.1397 22.2803 19.2803C22.1397 19.421 21.9489 19.5 21.75 19.5H2.25C2.05109 19.5 1.86032 19.421 1.71967 19.2803C1.57902 19.1397 1.5 18.9489 1.5 18.75V5.25C1.5 5.05109 1.57902 4.86032 1.71967 4.71967C1.86032 4.57902 2.05109 4.5 2.25 4.5H21.75ZM2.25 3C1.65326 3 1.08097 3.23705 0.65901 3.65901C0.237053 4.08097 0 4.65326 0 5.25V18.75C0 19.3467 0.237053 19.919 0.65901 20.341C1.08097 20.7629 1.65326 21 2.25 21H21.75C22.3467 21 22.919 20.7629 23.341 20.341C23.7629 19.919 24 19.3467 24 18.75V5.25C24 4.65326 23.7629 4.08097 23.341 3.65901C22.919 3.23705 22.3467 3 21.75 3H2.25Z" fill="currentColor"/>
<path d="M4.5 8.25C4.5 8.05109 4.57902 7.86032 4.71967 7.71967C4.86032 7.57902 5.05109 7.5 5.25 7.5H18.75C18.9489 7.5 19.1397 7.57902 19.2803 7.71967C19.421 7.86032 19.5 8.05109 19.5 8.25C19.5 8.44891 19.421 8.63968 19.2803 8.78033C19.1397 8.92098 18.9489 9 18.75 9H5.25C5.05109 9 4.86032 8.92098 4.71967 8.78033C4.57902 8.63968 4.5 8.44891 4.5 8.25ZM4.5 12C4.5 11.8011 4.57902 11.6103 4.71967 11.4697C4.86032 11.329 5.05109 11.25 5.25 11.25H18.75C18.9489 11.25 19.1397 11.329 19.2803 11.4697C19.421 11.6103 19.5 11.8011 19.5 12C19.5 12.1989 19.421 12.3897 19.2803 12.5303C19.1397 12.671 18.9489 12.75 18.75 12.75H5.25C5.05109 12.75 4.86032 12.671 4.71967 12.5303C4.57902 12.3897 4.5 12.1989 4.5 12ZM4.5 15.75C4.5 15.5511 4.57902 15.3603 4.71967 15.2197C4.86032 15.079 5.05109 15 5.25 15H14.25C14.4489 15 14.6397 15.079 14.7803 15.2197C14.921 15.3603 15 15.5511 15 15.75C15 15.9489 14.921 16.1397 14.7803 16.2803C14.6397 16.421 14.4489 16.5 14.25 16.5H5.25C5.05109 16.5 4.86032 16.421 4.71967 16.2803C4.57902 16.1397 4.5 15.9489 4.5 15.75Z" fill="currentColor"/>
</svg>
