<svg width="24" height="24" viewBox="0 0 24 24" fill="none" xmlns="http://www.w3.org/2000/svg">
<path d="M12 15.5C13.6569 15.5 15 14.1569 15 12.5C15 10.8431 13.6569 9.5 12 9.5C10.3431 9.5 9 10.8431 9 12.5C9 14.1569 10.3431 15.5 12 15.5Z" fill="currentColor"/>
<path fill-rule="evenodd" clip-rule="evenodd" d="M0.43934 5.43934C0.158035 5.72064 0 6.10218 0 6.5V18.5C0 18.8978 0.158035 19.2794 0.43934 19.5607C0.720644 19.842 1.10218 20 1.5 20H22.5C22.8978 20 23.2794 19.842 23.5607 19.5607C23.842 19.2794 24 18.8978 24 18.5V6.5C24 6.10218 23.842 5.72064 23.5607 5.43934C23.2794 5.15804 22.8978 5 22.5 5H1.5C1.10218 5 0.720644 5.15804 0.43934 5.43934ZM3.62132 8.62132C4.18393 8.05871 4.5 7.29565 4.5 6.5H19.5C19.5 7.29565 19.8161 8.05871 20.3787 8.62132C20.9413 9.18393 21.7043 9.5 22.5 9.5V15.5C21.7043 15.5 20.9413 15.8161 20.3787 16.3787C19.8161 16.9413 19.5 17.7043 19.5 18.5H4.5C4.5 17.7043 4.18393 16.9413 3.62132 16.3787C3.05871 15.8161 2.29565 15.5 1.5 15.5V9.5C2.29565 9.5 3.05871 9.18393 3.62132 8.62132Z" fill="currentColor"/>
</svg>
