<svg width="24" height="24" viewBox="0 0 24 24" fill="none" xmlns="http://www.w3.org/2000/svg">
<path d="M0 3C0 1.34315 1.34315 0 3 0H21C22.6569 0 24 1.34315 24 3V15C24 16.6569 22.6569 18 21 18H6.62132C6.2235 18 5.84196 18.158 5.56066 18.4393L1.28033 22.7197C0.807855 23.1921 0 22.8575 0 22.1893V3ZM5.25 4.5C4.83579 4.5 4.5 4.83579 4.5 5.25C4.5 5.66421 4.83579 6 5.25 6H18.75C19.1642 6 19.5 5.66421 19.5 5.25C19.5 4.83579 19.1642 4.5 18.75 4.5H5.25ZM5.25 8.25C4.83579 8.25 4.5 8.58579 4.5 9C4.5 9.41421 4.83579 9.75 5.25 9.75H18.75C19.1642 9.75 19.5 9.41421 19.5 9C19.5 8.58579 19.1642 8.25 18.75 8.25H5.25ZM5.25 12C4.83579 12 4.5 12.3358 4.5 12.75C4.5 13.1642 4.83579 13.5 5.25 13.5H12.75C13.1642 13.5 13.5 13.1642 13.5 12.75C13.5 12.3358 13.1642 12 12.75 12H5.25Z" fill="currentColor"/>
</svg>
