<svg width="24" height="24" viewBox="0 0 24 24" fill="none" xmlns="http://www.w3.org/2000/svg">
<g clip-path="url(#clip0_6172_10991)">
<path d="M18.4545 5.4545C18.8938 5.01517 19.6061 5.01517 20.0455 5.4545C20.4794 5.88846 20.4848 6.58872 20.0615 7.02921L14.0731 14.5146C14.0645 14.5254 14.0553 14.5357 14.0455 14.5455C13.6061 14.9848 12.8938 14.9848 12.4545 14.5455L8.48482 10.5758C8.04548 10.1365 8.04548 9.42417 8.48482 8.98483C8.92416 8.5455 9.63647 8.5455 10.0758 8.98483L13.2161 12.1251L18.4247 5.48816C18.4339 5.47635 18.4439 5.46511 18.4545 5.4545Z" fill="currentColor"/>
<path fill-rule="evenodd" clip-rule="evenodd" d="M7 0C5.34315 0 4 1.34315 4 3V17C4 18.6569 5.34315 20 7 20H21C22.6569 20 24 18.6569 24 17V3C24 1.34315 22.6569 0 21 0H7ZM21 1.5C21.8284 1.5 22.5 2.17157 22.5 3V17C22.5 17.8284 21.8284 18.5 21 18.5H7C6.17157 18.5 5.5 17.8284 5.5 17V3C5.5 2.17157 6.17157 1.5 7 1.5H21Z" fill="currentColor"/>
<path d="M2.25759 4.09257C2.659 3.99038 3 4.33579 3 4.75C3 5.16421 2.64411 5.48446 2.28077 5.68335C1.81551 5.93805 1.5 6.43218 1.5 7V21C1.5 21.8284 2.17157 22.5 3 22.5H17C17.5678 22.5 18.062 22.1845 18.3166 21.7192C18.5155 21.3559 18.8358 21 19.25 21C19.6642 21 20.0096 21.341 19.9074 21.7424C19.577 23.0402 18.4006 24 17 24H3C1.34315 24 0 22.6569 0 21V7C0 5.59939 0.95982 4.42296 2.25759 4.09257Z" fill="currentColor"/>
</g>
<defs>
<clipPath id="clip0_6172_10991">
<rect width="24" height="24" fill="white"/>
</clipPath>
</defs>
</svg>
