<svg width="24" height="24" viewBox="0 0 24 24" fill="none" xmlns="http://www.w3.org/2000/svg">
<path fill-rule="evenodd" clip-rule="evenodd" d="M2.27036 0.270363C2.63085 -0.090121 3.21531 -0.090121 3.57579 0.270363L14.6527 11.3473C15.0132 11.7078 15.0132 12.2922 14.6527 12.6527L3.57579 23.7296C3.21531 24.0901 2.63085 24.0901 2.27036 23.7296C1.90988 23.3692 1.90988 22.7847 2.27036 22.4242L12.6946 12L2.27036 1.57579C1.90988 1.21531 1.90988 0.630847 2.27036 0.270363Z" fill="currentColor"/>
<path fill-rule="evenodd" clip-rule="evenodd" d="M9.65498 0.270363C10.0155 -0.090121 10.5999 -0.090121 10.9604 0.270363L22.0373 11.3473C22.3978 11.7078 22.3978 12.2922 22.0373 12.6527L10.9604 23.7296C10.5999 24.0901 10.0155 24.0901 9.65498 23.7296C9.29449 23.3692 9.29449 22.7847 9.65498 22.4242L20.0792 12L9.65498 1.57579C9.29449 1.21531 9.29449 0.630847 9.65498 0.270363Z" fill="currentColor"/>
</svg>
