<svg width="24" height="24" viewBox="0 0 24 24" fill="none" xmlns="http://www.w3.org/2000/svg">
<path fill-rule="evenodd" clip-rule="evenodd" d="M14.6527 0.270363C15.0132 0.630847 15.0132 1.21531 14.6527 1.57579L4.2285 12L14.6527 22.4242C15.0132 22.7847 15.0132 23.3692 14.6527 23.7296C14.2922 24.0901 13.7078 24.0901 13.3473 23.7296L2.27036 12.6527C1.90988 12.2922 1.90988 11.7078 2.27036 11.3473L13.3473 0.270363C13.7078 -0.090121 14.2922 -0.090121 14.6527 0.270363Z" fill="currentColor"/>
<path fill-rule="evenodd" clip-rule="evenodd" d="M22.0373 0.270363C22.3978 0.630847 22.3978 1.21531 22.0373 1.57579L11.6131 12L22.0373 22.4242C22.3978 22.7847 22.3978 23.3692 22.0373 23.7296C21.6768 24.0901 21.0924 24.0901 20.7319 23.7296L9.65498 12.6527C9.29449 12.2922 9.29449 11.7078 9.65498 11.3473L20.7319 0.270363C21.0924 -0.090121 21.6768 -0.090121 22.0373 0.270363Z" fill="currentColor"/>
</svg>
