<svg width="21" height="24" viewBox="0 0 21 24" fill="none" xmlns="http://www.w3.org/2000/svg">
<path d="M4.5 2.25H3C1.34315 2.25 0 3.59314 0 5.25V21C0 22.6569 1.34315 24 3 24H18C19.6569 24 21 22.6569 21 21V5.25C21 3.59315 19.6569 2.25 18 2.25H16.5V3.75H18C18.8284 3.75 19.5 4.42157 19.5 5.25V21C19.5 21.8284 18.8284 22.5 18 22.5H3C2.17157 22.5 1.5 21.8284 1.5 21V5.25C1.5 4.42157 2.17157 3.75 3 3.75H4.5V2.25Z" fill="currentColor"/>
<path d="M12.75 1.5C13.1642 1.5 13.5 1.83579 13.5 2.25V3.75C13.5 4.16421 13.1642 4.5 12.75 4.5H8.25C7.83579 4.5 7.5 4.16421 7.5 3.75V2.25C7.5 1.83579 7.83579 1.5 8.25 1.5H12.75ZM8.25 0C7.00736 0 6 1.00736 6 2.25V3.75C6 4.99264 7.00736 6 8.25 6H12.75C13.9926 6 15 4.99264 15 3.75V2.25C15 1.00736 13.9926 0 12.75 0H8.25Z" fill="currentColor"/>
</svg>
