<svg width="24" height="24" viewBox="0 0 24 24" fill="none" xmlns="http://www.w3.org/2000/svg">
<g clip-path="url(#clip0_985_3960)">
<path d="M12 5.25C12 4.83579 11.6642 4.5 11.25 4.5C10.8358 4.5 10.5 4.83579 10.5 5.25V13.5C10.5 13.7691 10.6442 14.0177 10.8779 14.1512L16.1279 17.1512C16.4875 17.3567 16.9457 17.2317 17.1512 16.8721C17.3567 16.5125 17.2317 16.0543 16.8721 15.8488L12 13.0648V5.25Z" fill="currentColor"/>
<path d="M12 24C18.6274 24 24 18.6274 24 12C24 5.37258 18.6274 0 12 0C5.37258 0 0 5.37258 0 12C0 18.6274 5.37258 24 12 24ZM22.5 12C22.5 17.799 17.799 22.5 12 22.5C6.20101 22.5 1.5 17.799 1.5 12C1.5 6.20101 6.20101 1.5 12 1.5C17.799 1.5 22.5 6.20101 22.5 12Z" fill="currentColor"/>
</g>
<defs>
<clipPath id="clip0_985_3960">
<rect width="24" height="24" fill="white"/>
</clipPath>
</defs>
</svg>
