<svg width="24" height="24" viewBox="0 0 24 24" fill="none" xmlns="http://www.w3.org/2000/svg">
<path fill-rule="evenodd" clip-rule="evenodd" d="M1.25 9.5C1.25 7.68165 2.7042 6.2378 4.5937 5.29322C6.52799 4.32624 9.14761 3.75 12 3.75C14.8524 3.75 17.472 4.32624 19.4063 5.29322C21.2958 6.2378 22.75 7.68165 22.75 9.5V13.5C22.75 15.3184 21.2958 16.7622 19.4063 17.7068C17.472 18.6738 14.8524 19.25 12 19.25C9.14761 19.25 6.52799 18.6738 4.5937 17.7068C2.7042 16.7622 1.25 15.3184 1.25 13.5V9.5ZM2.75 9.5C2.75 8.55585 3.53455 7.4997 5.26443 6.63491C6.94951 5.79251 9.32989 5.25 12 5.25C14.6701 5.25 17.0505 5.79251 18.7356 6.63491C20.4655 7.4997 21.25 8.55585 21.25 9.5C21.25 10.4441 20.4655 11.5003 18.7356 12.3651C17.0505 13.2075 14.6701 13.75 12 13.75C9.32989 13.75 6.94951 13.2075 5.26443 12.3651C3.53455 11.5003 2.75 10.4441 2.75 9.5ZM2.75 13.5C2.75 14.4441 3.53455 15.5003 5.26443 16.3651C6.94951 17.2075 9.32989 17.75 12 17.75C14.6701 17.75 17.0505 17.2075 18.7356 16.3651C20.4655 15.5003 21.25 14.4441 21.25 13.5V12.4806C20.7262 12.9516 20.0952 13.3624 19.4063 13.7068C17.472 14.6738 14.8524 15.25 12 15.25C9.14761 15.25 6.52799 14.6738 4.5937 13.7068C3.90481 13.3624 3.27379 12.9516 2.75 12.4806V13.5Z" fill="currentColor"/>
</svg>
