<svg width="24" height="24" viewBox="0 0 24 24" fill="none" xmlns="http://www.w3.org/2000/svg">
<path fill-rule="evenodd" clip-rule="evenodd" d="M21.144 1.66557C22.6873 2.36708 24 3.48951 24 5V18.5C24 20.0105 22.6873 21.1329 21.144 21.8344C19.533 22.5667 17.36 23 15 23C12.64 23 10.467 22.5667 8.85602 21.8344C8.30706 21.5849 7.78727 21.2821 7.34537 20.9276C5.6336 20.7758 4.08208 20.3917 2.85602 19.8344C1.3127 19.1329 0 18.0104 0 16.4999V11.9999C0 10.4894 1.3127 9.36702 2.85602 8.66552C3.75177 8.25836 4.82124 7.94363 6 7.74442V5C6 3.48951 7.3127 2.36708 8.85602 1.66557C10.467 0.933293 12.64 0.5 15 0.5C17.36 0.5 19.533 0.933293 21.144 1.66557ZM15 2C12.8037 2 10.8516 2.40617 9.47672 3.03112C8.03412 3.68685 7.5 4.43942 7.5 5C7.5 5.56058 8.03412 6.31315 9.47672 6.96888C10.8516 7.59383 12.8037 8 15 8C17.1963 8 19.1484 7.59383 20.5233 6.96888C21.9659 6.31315 22.5 5.56058 22.5 5C22.5 4.43942 21.9659 3.68685 20.5233 3.03112C19.1484 2.40617 17.1963 2 15 2ZM22.5 9.5V7.54719C22.0934 7.85069 21.6301 8.11344 21.144 8.33442C19.533 9.06671 17.36 9.5 15 9.5C12.64 9.5 10.467 9.06671 8.85602 8.33442C8.36985 8.11344 7.90657 7.85069 7.5 7.54719V9.5C7.5 10.0606 8.03412 10.8131 9.47672 11.4689C10.8516 12.0938 12.8037 12.5 15 12.5C17.1963 12.5 19.1484 12.0938 20.5233 11.4689C21.9659 10.8131 22.5 10.0606 22.5 9.5ZM6.11342 19.2527C6.0397 19.0137 6 18.7627 6 18.5V16.2555C4.82124 16.0563 3.75177 15.7415 2.85602 15.3344C2.36985 15.1134 1.90657 14.8506 1.5 14.5471V16.4999C1.5 17.0605 2.03412 17.8131 3.47672 18.4688C4.20875 18.8016 5.1044 19.0723 6.11342 19.2527ZM6 14.732V9.26793C5.03723 9.44806 4.18121 9.71084 3.47672 10.0311C2.03412 10.6868 1.5 11.4394 1.5 11.9999C1.5 12.5605 2.03412 13.3131 3.47672 13.9688C4.18121 14.289 5.03723 14.5518 6 14.732ZM22.5 14V12.0472C22.0934 12.3507 21.6301 12.6134 21.144 12.8344C19.533 13.5667 17.36 14 15 14C12.64 14 10.467 13.5667 8.85602 12.8344C8.36985 12.6134 7.90657 12.3507 7.5 12.0472V14C7.5 14.5606 8.03412 15.3131 9.47672 15.9689C10.8516 16.5938 12.8037 17 15 17C17.1963 17 19.1484 16.5938 20.5233 15.9689C21.9659 15.3131 22.5 14.5606 22.5 14ZM22.5 18.5V16.5472C22.0934 16.8507 21.6301 17.1134 21.144 17.3344C19.533 18.0667 17.36 18.5 15 18.5C12.64 18.5 10.467 18.0667 8.85602 17.3344C8.36985 17.1134 7.90657 16.8507 7.5 16.5472V18.5C7.5 19.0606 8.03412 19.8131 9.47672 20.4689C10.8516 21.0938 12.8037 21.5 15 21.5C17.1963 21.5 19.1484 21.0938 20.5233 20.4689C21.9659 19.8131 22.5 19.0606 22.5 18.5Z" fill="currentColor" />
</svg>
