<svg width="24" height="24" viewBox="0 0 24 24" fill="none" xmlns="http://www.w3.org/2000/svg">
<g clip-path="url(#clip0_45_306)">
<path d="M12 24.0246C18.2132 24.0246 23.25 18.9878 23.25 12.7746C23.25 7.57943 19.7285 3.20673 14.9423 1.91329C14.9799 1.782 15 1.64335 15 1.5C15 0.671573 14.3284 0 13.5 0H10.5C9.67156 0 8.99998 0.671573 8.99998 1.5C8.99998 1.64335 9.02009 1.78201 9.05765 1.9133C4.27147 3.20675 0.75 7.57944 0.75 12.7746C0.75 18.9878 5.7868 24.0246 12 24.0246ZM21.75 12.7746C21.75 18.1594 17.3848 22.5246 12 22.5246C6.61522 22.5246 2.25 18.1594 2.25 12.7746C2.25 7.38985 6.61522 3.02463 12 3.02463C17.3848 3.02463 21.75 7.38985 21.75 12.7746Z" fill="currentColor"/>
<path d="M10.4091 11.159L17.8337 6.91635L13.5911 14.341L6.16644 18.5836L10.4091 11.159Z" fill="currentColor"/>
</g>
<defs>
<clipPath id="clip0_45_306">
<rect width="24" height="24" fill="white"/>
</clipPath>
</defs>
</svg>
