<svg width="24" height="24" viewBox="0 0 24 24" fill="none" xmlns="http://www.w3.org/2000/svg">
<path fill-rule="evenodd" clip-rule="evenodd" d="M17 18H20C21.6569 18 23 16.6569 23 15V3C23 1.34315 21.6569 0 20 0H10C8.34315 0 7 1.34315 7 3V6H4C2.34315 6 1 7.34315 1 9V21C1 22.6569 2.34315 24 4 24H14C15.6569 24 17 22.6569 17 21V18ZM20 1.5H10C9.17157 1.5 8.5 2.17157 8.5 3V6H14C15.6569 6 17 7.34315 17 9V16.5H20C20.8284 16.5 21.5 15.8284 21.5 15V3C21.5 2.17157 20.8284 1.5 20 1.5ZM4 7.5H14C14.8284 7.5 15.5 8.17157 15.5 9V21C15.5 21.8284 14.8284 22.5 14 22.5H4C3.17157 22.5 2.5 21.8284 2.5 21V9C2.5 8.17157 3.17157 7.5 4 7.5Z" fill="currentColor"/>
</svg>
