<svg width="24" height="24" viewBox="0 0 24 24" fill="none" xmlns="http://www.w3.org/2000/svg">
<path fill-rule="evenodd" clip-rule="evenodd" d="M23.9493 5.12645C23.8954 5.04316 23.8283 5 23.7533 5L14.5741 5.00151C14.4395 5.00151 14.332 5.14138 14.332 5.31435V7.9063C14.332 8.07472 14.4395 8.21297 14.5741 8.21297H18.5642L9.96012 16.8783C9.90631 16.9355 9.87183 17.0137 9.87183 17.0963C9.87183 17.1793 9.90631 17.2563 9.96012 17.3148L11.785 19.1503C11.8908 19.2582 12.1077 19.2582 12.2167 19.1503L20.806 10.4985V18.9769C20.806 19.1127 20.945 19.2207 21.1172 19.2207H23.6951C23.8626 19.2207 24 19.1127 24 18.9769V5.2568C24 5.21245 23.9853 5.16626 23.9493 5.12645Z" fill="currentColor"/>
<path fill-rule="evenodd" clip-rule="evenodd" d="M12.2841 5.00244H0.245114C0.17637 5.00244 0.107519 5.0442 0.055317 5.1237C0.0193341 5.16946 0 5.21338 0 5.26V18.9794C0 19.1143 0.138991 19.2249 0.306231 19.2249H2.88443C3.05619 19.2249 3.19077 19.1143 3.19077 18.9794V10.5005L8.29143 15.6351C8.38628 15.7309 8.56071 15.7085 8.68188 15.5865L10.5021 13.7534C10.6203 13.6345 10.6413 13.4601 10.546 13.364L5.4375 8.21703H12.2841C12.4186 8.21703 12.529 8.0776 12.529 7.90841V5.31203C12.529 5.14177 12.4186 5.00244 12.2841 5.00244Z" fill="currentColor"/>
</svg>
