<svg width="24" height="24" viewBox="0 0 24 24" fill="none" xmlns="http://www.w3.org/2000/svg">
<path d="M10.0303 6.96967C9.73744 6.67678 9.26256 6.67678 8.96967 6.96967C8.67678 7.26256 8.67678 7.73744 8.96967 8.03033L12.9393 12L8.96967 15.9697C8.67678 16.2626 8.67678 16.7374 8.96967 17.0303C9.26256 17.3232 9.73744 17.3232 10.0303 17.0303L14 13.0607L17.9697 17.0303C18.2626 17.3232 18.7374 17.3232 19.0303 17.0303C19.3232 16.7374 19.3232 16.2626 19.0303 15.9697L15.0607 12L19.0303 8.03033C19.3232 7.73744 19.3232 7.26256 19.0303 6.96967C18.7374 6.67678 18.2626 6.67678 17.9697 6.96967L14 10.9393L10.0303 6.96967Z" fill="currentColor"/>
<path fill-rule="evenodd" clip-rule="evenodd" d="M5.4423 3.27961C6.00369 2.47763 6.92106 2 7.9 2H21C22.6569 2 24 3.34315 24 5V19C24 20.6569 22.6569 22 21 22H7.9C6.92106 22 6.00369 21.5224 5.4423 20.7204L0.542305 13.7204C-0.180767 12.6874 -0.180769 11.3126 0.542304 10.2796L5.4423 3.27961ZM7.9 3.5H21C21.8284 3.5 22.5 4.17157 22.5 5V19C22.5 19.8284 21.8284 20.5 21 20.5H7.9C7.41053 20.5 6.95184 20.2612 6.67115 19.8602L1.77115 12.8602C1.40962 12.3437 1.40962 11.6563 1.77115 11.1398L6.67115 4.13981C6.95184 3.73882 7.41053 3.5 7.9 3.5Z" fill="currentColor"/>
</svg>
