<svg width="24" height="24" viewBox="0 0 24 24" fill="none" xmlns="http://www.w3.org/2000/svg">
<g>
<path d="M5.25 16.5C5.05109 16.5 4.86032 16.579 4.71967 16.7197C4.57902 16.8603 4.5 17.0511 4.5 17.25V18.75C4.5 18.9489 4.57902 19.1397 4.71967 19.2803C4.86032 19.421 5.05109 19.5 5.25 19.5H18.75C18.9489 19.5 19.1397 19.421 19.2803 19.2803C19.421 19.1397 19.5 18.9489 19.5 18.75V17.25C19.5 17.0511 19.421 16.8603 19.2803 16.7197C19.1397 16.579 18.9489 16.5 18.75 16.5H5.25Z" fill="currentColor"/>
<path d="M3.5625 1.50003C3.09644 1.49825 2.63459 1.58829 2.20332 1.765C1.77206 1.94172 1.37983 2.20165 1.04902 2.52995C0.718207 2.85825 0.455302 3.2485 0.275311 3.67841C0.0953203 4.10831 0.00176948 4.56946 0 5.03553L0 18.9645C0.00176948 19.4306 0.0953203 19.8917 0.275311 20.3216C0.455302 20.7516 0.718207 21.1418 1.04902 21.4701C1.37983 21.7984 1.77206 22.0583 2.20332 22.235C2.63459 22.4118 3.09644 22.5018 3.5625 22.5H20.4375C20.9036 22.5018 21.3654 22.4118 21.7967 22.235C22.2279 22.0583 22.6202 21.7984 22.951 21.4701C23.2818 21.1418 23.5447 20.7516 23.7247 20.3216C23.9047 19.8917 23.9982 19.4306 24 18.9645V5.03553C23.9982 4.56946 23.9047 4.10831 23.7247 3.67841C23.5447 3.2485 23.2818 2.85825 22.951 2.52995C22.6202 2.20165 22.2279 1.94172 21.7967 1.765C21.3654 1.58829 20.9036 1.49825 20.4375 1.50003H3.5625ZM1.5 5.03553C1.5 3.91803 2.4165 3.00003 3.5625 3.00003H20.4375C21.5835 3.00003 22.5 3.91803 22.5 5.03553V6.00003H1.5V5.03553ZM1.5 7.50003H22.5V18.9645C22.5 20.082 21.5835 21 20.4375 21H3.5625C3.29342 21.0018 3.02662 20.9506 2.77735 20.8492C2.52807 20.7479 2.30119 20.5985 2.10967 20.4094C1.91815 20.2204 1.76573 19.9955 1.66113 19.7476C1.55652 19.4997 1.50177 19.2336 1.5 18.9645V7.50003Z" fill="currentColor"/>
</g>
</svg>
