<svg width="24" height="24" viewBox="0 0 24 24" fill="none" xmlns="http://www.w3.org/2000/svg">
<path d="M0.75 14.85C1.16421 14.85 1.5 15.1858 1.5 15.6V19.35C1.5 20.1785 2.17157 20.85 3 20.85H21C21.8284 20.85 22.5 20.1785 22.5 19.35V15.6C22.5 15.1858 22.8358 14.85 23.25 14.85C23.6642 14.85 24 15.1858 24 15.6V19.35C24 21.0069 22.6569 22.35 21 22.35H3C1.34315 22.35 0 21.0069 0 19.35V15.6C0 15.1858 0.335786 14.85 0.75 14.85Z" fill="currentColor"/>
<path d="M11.4697 17.7803C11.7626 18.0732 12.2374 18.0732 12.5303 17.7803L17.0303 13.2803C17.3232 12.9874 17.3232 12.5126 17.0303 12.2197C16.7374 11.9268 16.2626 11.9268 15.9697 12.2197L12.75 15.4393V2.25C12.75 1.83579 12.4142 1.5 12 1.5C11.5858 1.5 11.25 1.83579 11.25 2.25V15.4393L8.03033 12.2197C7.73744 11.9268 7.26256 11.9268 6.96967 12.2197C6.67678 12.5126 6.67678 12.9874 6.96967 13.2803L11.4697 17.7803Z" fill="currentColor"/>
</svg>
