<svg width="24" height="24" viewBox="0 0 24 24" fill="none" xmlns="http://www.w3.org/2000/svg">
<path d="M0 6C0 4.34315 1.34315 3 3 3H21C22.6569 3 24 4.34315 24 6V18C24 19.6569 22.6569 21 21 21H3C1.34315 21 0 19.6569 0 18V6ZM3 4.5C2.17157 4.5 1.5 5.17157 1.5 6V6.32536L12 12.6254L22.5 6.32536V6C22.5 5.17157 21.8284 4.5 21 4.5H3ZM22.5 8.07464L15.4379 12.3119L22.5 16.6578V8.07464ZM22.4494 18.3879L13.9887 13.1814L12 14.3746L10.0113 13.1814L1.55065 18.3879C1.72162 19.0283 2.30573 19.5 3 19.5H21C21.6943 19.5 22.2784 19.0283 22.4494 18.3879ZM1.5 16.6578L8.56211 12.3119L1.5 8.07464V16.6578Z" fill="currentColor"/>
</svg>
