<svg width="24" height="24" viewBox="0 0 24 24" fill="none" xmlns="http://www.w3.org/2000/svg">
<path d="M3 3C1.34315 3 0 4.34315 0 6V18L3.87579e-05 18.0154C0.00833997 19.6652 1.34829 21 3 21H12.25C12.6642 21 13 20.6642 13 20.25C13 19.8358 12.6642 19.5 12.25 19.5H3C2.30572 19.5 1.72162 19.0283 1.55065 18.3879L10.0113 13.1814L12 14.3746L22.5 8.07464V11.75C22.5 12.1642 22.8358 12.5 23.25 12.5C23.6642 12.5 24 12.1642 24 11.75V6C24 4.34315 22.6569 3 21 3H3ZM8.56211 12.3119L1.5 16.6578V8.07464L8.56211 12.3119ZM1.5 6.32536V6C1.5 5.17157 2.17157 4.5 3 4.5H21C21.8284 4.5 22.5 5.17157 22.5 6V6.32536L12 12.6254L1.5 6.32536Z" fill="currentColor"/>
<path d="M23.01 21.3303C23.3568 21.6096 23.4242 22.1189 23.118 22.4422C22.6559 22.9301 22.1634 23.2929 21.6407 23.5305C20.9192 23.8435 20.0823 24 19.1299 24C18.3362 24 17.6219 23.8584 16.987 23.5752C16.3521 23.2771 15.811 22.8821 15.3636 22.3902C14.9307 21.8984 14.5916 21.3171 14.3463 20.6463C14.1154 19.9756 14 19.2602 14 18.5C14 17.6951 14.1299 16.9573 14.3896 16.2866C14.6494 15.6009 15.0101 15.0196 15.4719 14.5427C15.9336 14.0508 16.482 13.6707 17.1169 13.4024C17.7518 13.1341 18.4444 13 19.1948 13C19.9019 13 20.5512 13.1267 21.1429 13.3801C21.7345 13.6186 22.2395 13.9763 22.658 14.4533C23.0909 14.9153 23.4228 15.4892 23.6537 16.1748C23.8846 16.8455 24 17.6131 24 18.4776V19.0366H15.8182C15.847 19.4837 15.9481 19.916 16.1212 20.3333C16.3088 20.7358 16.5469 21.0935 16.8355 21.4065C17.1241 21.7046 17.4632 21.9431 17.8528 22.122C18.2424 22.3008 18.6681 22.3902 19.1299 22.3902C19.8658 22.3902 20.4863 22.2561 20.9913 21.9878C21.2724 21.8385 21.5378 21.65 21.7876 21.4222C22.1288 21.111 22.6503 21.0406 23.01 21.3303ZM22.1818 17.561C22.153 16.6667 21.8716 15.9512 21.3377 15.4146C20.8038 14.878 20.0678 14.6098 19.1299 14.6098C18.1919 14.6098 17.4343 14.878 16.8571 15.4146C16.2799 15.9512 15.9336 16.6667 15.8182 17.561H22.1818Z" fill="currentColor"/>
</svg>
