<svg width="24" height="24" viewBox="0 0 24 24" fill="none" xmlns="http://www.w3.org/2000/svg">
<g clip-path="url(#clip0_985_3936)">
<path d="M12.7059 1.97652C12.2647 1.74123 11.7353 1.74123 11.2941 1.97652L2.29412 6.77652C1.80532 7.03721 1.5 7.54608 1.5 8.10005V9.32541L10.125 14.5004L12 13.3754L13.875 14.5004L22.5 9.32541V8.10005C22.5 7.54608 22.1947 7.03721 21.7059 6.77652L12.7059 1.97652ZM22.5 11.0747L15.3327 15.375L22.5 19.6754V11.0747ZM22.4479 21.3934L12 15.1247L1.55211 21.3934C1.72493 22.031 2.30769 22.5 3 22.5H21C21.6923 22.5 22.2751 22.031 22.4479 21.3934ZM1.5 19.6754L8.66726 15.375L1.5 11.0747V19.6754ZM10.5882 0.65299C11.4706 0.182402 12.5294 0.182402 13.4118 0.65299L22.4118 5.45299C23.3894 5.97437 24 6.99211 24 8.10005V21C24 22.6569 22.6569 24 21 24H3C1.34315 24 0 22.6569 0 21V8.10005C0 6.99211 0.610645 5.97437 1.58824 5.45299L10.5882 0.65299Z" fill="currentColor"/>
</g>
<defs>
<clipPath id="clip0_985_3936">
<rect width="24" height="24" fill="white"/>
</clipPath>
</defs>
</svg>
