<svg width="24" height="24" viewBox="0 0 24 24" fill="none" xmlns="http://www.w3.org/2000/svg">
<g clip-path="url(#clip0_45_451)">
<path d="M13.4723 3.84963C12.8064 2.71679 11.1982 2.71679 10.5324 3.84963L0.246939 21.3496C-0.43861 22.5161 0.384418 24 1.71689 24H22.2877C23.6202 24 24.4432 22.5161 23.7577 21.3496L13.4723 3.84963ZM12 9C12.8031 9 13.4307 9.69343 13.3507 10.4926L12.8246 15.7537C12.7823 16.1774 12.4258 16.5 12 16.5C11.5742 16.5 11.2177 16.1774 11.1754 15.7537L10.6493 10.4926C10.5693 9.69343 11.1969 9 12 9ZM12.0023 18C12.8307 18 13.5023 18.6716 13.5023 19.5C13.5023 20.3284 12.8307 21 12.0023 21C11.1739 21 10.5023 20.3284 10.5023 19.5C10.5023 18.6716 11.1739 18 12.0023 18Z" fill="currentColor"/>
</g>
<defs>
<clipPath id="clip0_45_451">
<rect width="24" height="24" fill="white"/>
</clipPath>
</defs>
</svg>
