<svg width="24" height="24" viewBox="0 0 24 24" fill="none" xmlns="http://www.w3.org/2000/svg">
<path d="M20.0383 16.8563C22.5919 14.5814 24 12 24 12C24 12 19.5 3.75 12 3.75C10.4769 3.75 9.07758 4.09023 7.81451 4.6325L8.97081 5.78881C9.91475 5.44976 10.9266 5.25 12 5.25C15.1791 5.25 17.8185 7.00227 19.7518 8.93566C20.7055 9.88935 21.4468 10.8479 21.9491 11.5686C22.0582 11.7252 22.1556 11.8698 22.241 12C22.1556 12.1302 22.0582 12.2748 21.9491 12.4314C21.4468 13.1521 20.7055 14.1106 19.7518 15.0643C19.5046 15.3116 19.2458 15.5558 18.9759 15.7939L20.0383 16.8563Z" fill="currentColor"/>
<path d="M16.9462 13.7642C17.1429 13.2128 17.25 12.6189 17.25 12C17.25 9.1005 14.8995 6.75 12 6.75C11.3811 6.75 10.7872 6.8571 10.2358 7.05378L11.4693 8.28726C11.6426 8.2627 11.8198 8.25 12 8.25C14.0711 8.25 15.75 9.92893 15.75 12C15.75 12.1802 15.7373 12.3573 15.7127 12.5307L16.9462 13.7642Z" fill="currentColor"/>
<path d="M12.5308 15.7127L13.7642 16.9462C13.2129 17.1429 12.6189 17.25 12 17.25C9.1005 17.25 6.75 14.8995 6.75 12C6.75 11.3811 6.85711 10.7871 7.05379 10.2357L8.28727 11.4692C8.26271 11.6426 8.25 11.8198 8.25 12C8.25 14.0711 9.92893 15.75 12 15.75C12.1802 15.75 12.3574 15.7373 12.5308 15.7127Z" fill="currentColor"/>
<path d="M5.02416 8.20611C4.75418 8.44414 4.4954 8.68842 4.24816 8.93566C3.29446 9.88935 2.55324 10.8479 2.05091 11.5686C1.94181 11.7252 1.84444 11.8698 1.75905 12C1.84444 12.1302 1.94181 12.2748 2.05091 12.4314C2.55324 13.1521 3.29446 14.1106 4.24816 15.0643C6.18155 16.9977 8.82093 18.75 12 18.75C13.0734 18.75 14.0853 18.5502 15.0292 18.2112L16.1855 19.3675C14.9224 19.9098 13.5231 20.25 12 20.25C4.5 20.25 0 12 0 12C0 12 1.40807 9.41852 3.96168 7.14363L5.02416 8.20611Z" fill="currentColor"/>
<path d="M20.4697 21.5303L2.46967 3.53033L3.53033 2.46967L21.5303 20.4697L20.4697 21.5303Z" fill="currentColor"/>
</svg>
