<svg width="24" height="24" viewBox="0 0 24 24" fill="none" xmlns="http://www.w3.org/2000/svg">
<g clip-path="url(#clip0_116_628)">
<path d="M23.9999 12.0729C23.9999 5.40471 18.627 -0.000915527 11.9992 -0.000915527C5.37143 -0.000915527 -0.00146484 5.40471 -0.00146484 12.0729C-0.00146484 18.0993 4.38702 23.0943 10.1241 24V15.563H7.07708V12.0729H10.1241V9.41288C10.1241 6.38688 11.9158 4.71542 14.657 4.71542C15.9699 4.71542 17.3433 4.95123 17.3433 4.95123V7.92252H15.83C14.3393 7.92252 13.8743 8.85322 13.8743 9.80804V12.0729H17.2027L16.6706 15.563H13.8743V24C19.6115 23.0943 23.9999 18.0993 23.9999 12.0729Z" fill="currentColor"/>
</g>
<defs>
<clipPath id="clip0_116_628">
<rect width="24" height="24" fill="white"/>
</clipPath>
</defs>
</svg>
