<svg width="24" height="24" viewBox="0 0 24 24" fill="none" xmlns="http://www.w3.org/2000/svg">
<path d="M0.166992 0.774015C0.166992 0.438766 0.438766 0.166992 0.774015 0.166992H5.26443C5.59968 0.166992 5.87145 0.438766 5.87145 0.774015C5.87145 1.10926 5.59968 1.38104 5.26443 1.38104H1.38104V5.26443C1.38104 5.59968 1.10926 5.87145 0.774015 5.87145C0.438766 5.87145 0.166992 5.59968 0.166992 5.26443V0.774015Z" fill="currentColor"/>
<path d="M18.1286 0.774015C18.1286 0.438766 18.4004 0.166992 18.7356 0.166992H23.226C23.5613 0.166992 23.8331 0.438766 23.8331 0.774015V5.26443C23.8331 5.59968 23.5613 5.87145 23.226 5.87145C22.8908 5.87145 22.619 5.59968 22.619 5.26443V1.38104H18.7356C18.4004 1.38104 18.1286 1.10926 18.1286 0.774015Z" fill="currentColor"/>
<path d="M1.38134 18.7357C1.38134 18.4004 1.10957 18.1287 0.77432 18.1287C0.439071 18.1287 0.167297 18.4004 0.167297 18.7357V23.2261C0.167297 23.5613 0.439071 23.8331 0.77432 23.8331H5.26473C5.59998 23.8331 5.87176 23.5613 5.87176 23.2261C5.87176 22.8909 5.59998 22.6191 5.26473 22.6191H1.38134V18.7357Z" fill="currentColor"/>
<path d="M23.2263 18.1287C23.5616 18.1287 23.8334 18.4004 23.8334 18.7357V23.2261C23.8334 23.5613 23.5616 23.8331 23.2263 23.8331H18.7359C18.4007 23.8331 18.1289 23.5613 18.1289 23.2261C18.1289 22.8909 18.4007 22.6191 18.7359 22.6191H22.6193V18.7357C22.6193 18.4004 22.8911 18.1287 23.2263 18.1287Z" fill="currentColor"/>
<path d="M12.0003 2.41223C10.3507 2.41223 8.76857 3.06756 7.60209 4.23404C6.4356 5.40052 5.78028 6.98261 5.78028 8.63227V9.75488L5.78046 9.76983C5.81261 11.0739 6.15871 12.351 6.78942 13.4929C7.36687 14.5384 8.1673 15.4422 9.13237 16.1412V16.9766L9.13238 16.9795C9.13416 17.3462 9.01284 17.7029 8.78785 17.9925C8.56287 18.2821 8.24722 18.4878 7.89145 18.5767L5.11764 19.2694C4.79238 19.3506 4.59454 19.6801 4.67576 20.0054C4.75697 20.3306 5.08649 20.5285 5.41176 20.4472L8.18571 19.7546C8.80513 19.5998 9.35484 19.2416 9.74656 18.7374C10.138 18.2336 10.3492 17.6132 10.3464 16.9752V15.8237C10.3464 15.6203 10.2446 15.4305 10.0752 15.318C9.15104 14.7044 8.38848 13.877 7.85213 12.9059C7.31697 11.937 7.02277 10.8537 6.99432 9.74724V8.63227C6.99432 7.3046 7.52174 6.0313 8.46055 5.0925C9.39935 4.15369 10.6726 3.62628 12.0003 3.62628C13.328 3.62628 14.6013 4.15369 15.5401 5.0925C16.4789 6.0313 17.0063 7.3046 17.0063 8.63227V9.74727C16.9781 10.8535 16.6842 11.9368 16.1494 12.9057C15.6134 13.8767 14.8513 14.7042 13.9275 15.3181C13.7582 15.4306 13.6565 15.6204 13.6565 15.8237V16.9752C13.6537 17.6131 13.8649 18.2336 14.2563 18.7374C14.648 19.2416 15.1976 19.5997 15.817 19.7546L18.5888 20.4472C18.914 20.5285 19.2436 20.3307 19.3249 20.0055C19.4061 19.6802 19.2084 19.3507 18.8831 19.2694L16.1114 18.5767C15.7557 18.4878 15.44 18.2821 15.215 17.9925C14.99 17.7029 14.8687 17.3462 14.8705 16.9795L14.8705 16.9766V16.1411C15.8352 15.4418 16.6352 14.5379 17.2123 13.4924C17.8426 12.3506 18.1883 11.0736 18.2202 9.76971L18.2204 9.75488V8.63227C18.2204 6.98261 17.565 5.40052 16.3986 4.23404C15.2321 3.06756 13.65 2.41223 12.0003 2.41223Z" fill="currentColor"/>
</svg>
