<svg width="24" height="24" viewBox="0 0 24 24" fill="none" xmlns="http://www.w3.org/2000/svg">
<path d="M20.75 14.5C21.1642 14.5 21.5 14.1642 21.5 13.75C21.5 13.3358 21.1642 13 20.75 13L11.0607 13L12.7803 11.2803C13.0732 10.9874 13.0732 10.5126 12.7803 10.2197C12.4874 9.92678 12.0126 9.92678 11.7197 10.2197L8.71967 13.2197C8.42678 13.5126 8.42678 13.9874 8.71967 14.2803L11.7197 17.2803C12.0126 17.5732 12.4874 17.5732 12.7803 17.2803C13.0732 16.9874 13.0732 16.5126 12.7803 16.2197L11.0607 14.5H20.75Z" fill="currentColor"/>
<path d="M20 18V21C20 22.6569 18.6569 24 17 24H5C3.34315 24 2 22.6569 2 21V3C2 1.34314 3.34315 0 5 0H13.25L20 6.75V10H18.5V6.75H15.5C14.2574 6.75 13.25 5.74264 13.25 4.5V1.5H5C4.17157 1.5 3.5 2.17157 3.5 3V21C3.5 21.8284 4.17157 22.5 5 22.5H17C17.8284 22.5 18.5 21.8284 18.5 21V18H20Z" fill="currentColor"/>
</svg>
