<svg width="24" height="24" viewBox="0 0 24 24" fill="none" xmlns="http://www.w3.org/2000/svg">
<path d="M6 0H18C19.6569 0 21 1.34315 21 3V15.4393L16.9064 11.3457C16.2509 10.6903 15.1639 10.7803 14.6251 11.5345L11.7921 15.5006L9.13801 13.9082C8.54779 13.554 7.7923 13.647 7.3056 14.1337L3 18.4393V3C3 1.34314 4.34315 0 6 0ZM12.0023 8.25C12.0023 7.00736 10.9949 6 9.75229 6C8.50965 6 7.50229 7.00736 7.50229 8.25C7.50229 9.49264 8.50965 10.5 9.75229 10.5C10.9949 10.5 12.0023 9.49264 12.0023 8.25Z" fill="currentColor"/>
<path d="M15.8457 12.4064L21 17.5607V21C21 22.6569 19.6569 24 18 24H6C4.34315 24 3 22.6569 3 21V20.5607L8.36626 15.1944L12.2079 17.4994L15.8457 12.4064Z" fill="currentColor"/>
</svg>
