<svg width="24" height="24" viewBox="0 0 24 24" fill="none" xmlns="http://www.w3.org/2000/svg">
<path d="M8.25 10.5C7.83579 10.5 7.5 10.8358 7.5 11.25C7.5 11.6642 7.83579 12 8.25 12H15.75C16.1642 12 16.5 11.6642 16.5 11.25C16.5 10.8358 16.1642 10.5 15.75 10.5H8.25Z" fill="currentColor"/>
<path d="M7.5 14.25C7.5 13.8358 7.83579 13.5 8.25 13.5H15.75C16.1642 13.5 16.5 13.8358 16.5 14.25C16.5 14.6642 16.1642 15 15.75 15H8.25C7.83579 15 7.5 14.6642 7.5 14.25Z" fill="currentColor"/>
<path d="M7.5 17.25C7.5 16.8358 7.83579 16.5 8.25 16.5H11.25C11.6642 16.5 12 16.8358 12 17.25C12 17.6642 11.6642 18 11.25 18H8.25C7.83579 18 7.5 17.6642 7.5 17.25Z" fill="currentColor"/>
<path d="M14.25 0H6C4.34315 0 3 1.34314 3 3V21C3 22.6569 4.34315 24 6 24H18C19.6569 24 21 22.6569 21 21V6.75L14.25 0ZM14.25 1.5V4.5C14.25 5.74264 15.2574 6.75 16.5 6.75H19.5V21C19.5 21.8284 18.8284 22.5 18 22.5H6C5.17157 22.5 4.5 21.8284 4.5 21V3C4.5 2.17157 5.17157 1.5 6 1.5H14.25Z" fill="currentColor"/>
</svg>
