<svg width="24" height="24" viewBox="0 0 24 24" fill="none" xmlns="http://www.w3.org/2000/svg">
<path d="M12.75 9.75C12.75 9.33579 12.4142 9 12 9C11.5858 9 11.25 9.33579 11.25 9.75V15.4393L9.53033 13.7197C9.23744 13.4268 8.76256 13.4268 8.46967 13.7197C8.17678 14.0126 8.17678 14.4874 8.46967 14.7803L11.4697 17.7803C11.7626 18.0732 12.2374 18.0732 12.5303 17.7803L15.5303 14.7803C15.8232 14.4874 15.8232 14.0126 15.5303 13.7197C15.2374 13.4268 14.7626 13.4268 14.4697 13.7197L12.75 15.4393V9.75Z" fill="currentColor"/>
<path d="M21 21V6.75L14.25 0H6C4.34315 0 3 1.34314 3 3V21C3 22.6569 4.34315 24 6 24H18C19.6569 24 21 22.6569 21 21ZM14.25 4.5C14.25 5.74264 15.2574 6.75 16.5 6.75H19.5V21C19.5 21.8284 18.8284 22.5 18 22.5H6C5.17157 22.5 4.5 21.8284 4.5 21V3C4.5 2.17157 5.17157 1.5 6 1.5H14.25V4.5Z" fill="currentColor"/>
</svg>
