<svg width="24" height="24" viewBox="0 0 24 24" fill="none" xmlns="http://www.w3.org/2000/svg">
<path d="M13.9393 0H6C4.34315 0 3 1.34315 3 3V21C3 22.6569 4.34315 24 6 24H18C19.6569 24 21 22.6569 21 21V7.06066C21 6.66284 20.842 6.28131 20.5607 6L15 0.43934C14.7187 0.158035 14.3372 0 13.9393 0ZM14.25 5.25V2.25L18.75 6.75H15.75C14.9216 6.75 14.25 6.07843 14.25 5.25ZM6.75 13.5C6.33579 13.5 6 13.1642 6 12.75C6 12.3358 6.33579 12 6.75 12H17.25C17.6642 12 18 12.3358 18 12.75C18 13.1642 17.6642 13.5 17.25 13.5H6.75ZM6 15.75C6 15.3358 6.33579 15 6.75 15H17.25C17.6642 15 18 15.3358 18 15.75C18 16.1642 17.6642 16.5 17.25 16.5H6.75C6.33579 16.5 6 16.1642 6 15.75ZM6.75 19.5C6.33579 19.5 6 19.1642 6 18.75C6 18.3358 6.33579 18 6.75 18H12.75C13.1642 18 13.5 18.3358 13.5 18.75C13.5 19.1642 13.1642 19.5 12.75 19.5H6.75Z" fill="currentColor"/>
</svg>
