<svg width="24" height="24" viewBox="0 0 24 24" fill="none" xmlns="http://www.w3.org/2000/svg">
<path d="M13 9C13.4142 9 13.75 9.33579 13.75 9.75V15.4393L15.4697 13.7197C15.7626 13.4268 16.2374 13.4268 16.5303 13.7197C16.8232 14.0126 16.8232 14.4874 16.5303 14.7803L13.5303 17.7803C13.2374 18.0732 12.7626 18.0732 12.4697 17.7803L9.46967 14.7803C9.17678 14.4874 9.17678 14.0126 9.46967 13.7197C9.76256 13.4268 10.2374 13.4268 10.5303 13.7197L12.25 15.4393V9.75C12.25 9.33579 12.5858 9 13 9Z" fill="currentColor"/>
<path fill-rule="evenodd" clip-rule="evenodd" d="M22 6.75V21C22 22.6569 20.6569 24 19 24H7C5.34315 24 4 22.6569 4 21C2.34315 21 1 19.6569 1 18V6C1 4.34315 2.34315 3 4 3C4 1.34314 5.34315 0 7 0H15.25L22 6.75ZM4 4.5V19.5C3.17157 19.5 2.5 18.8284 2.5 18V6C2.5 5.17157 3.17157 4.5 4 4.5ZM17.5 6.75C16.2574 6.75 15.25 5.74264 15.25 4.5V1.5H7C6.17157 1.5 5.5 2.17157 5.5 3V21C5.5 21.8284 6.17157 22.5 7 22.5H19C19.8284 22.5 20.5 21.8284 20.5 21V6.75H17.5Z" fill="currentColor"/>
</svg>
