<svg width="24" height="24" viewBox="0 0 24 24" fill="none" xmlns="http://www.w3.org/2000/svg">
<path d="M19.5 0H9C7.34315 0 6 1.34315 6 3C4.34315 3 3 4.34315 3 6V21C3 22.6569 4.34315 24 6 24H16.5C18.1569 24 19.5 22.6569 19.5 21C21.1569 21 22.5 19.6569 22.5 18V3C22.5 1.34315 21.1569 0 19.5 0ZM19.5 19.5V6C19.5 4.34315 18.1569 3 16.5 3H7.5C7.5 2.17157 8.17157 1.5 9 1.5H19.5C20.3284 1.5 21 2.17157 21 3V18C21 18.8284 20.3284 19.5 19.5 19.5ZM4.5 6C4.5 5.17157 5.17157 4.5 6 4.5H16.5C17.3284 4.5 18 5.17157 18 6V21C18 21.8284 17.3284 22.5 16.5 22.5H6C5.17157 22.5 4.5 21.8284 4.5 21V6Z" fill="currentColor"/>
</svg>
