<svg width="24" height="24" viewBox="0 0 24 24" fill="none" xmlns="http://www.w3.org/2000/svg">
<path d="M12.0023 8.25C12.0023 9.49264 10.9949 10.5 9.75229 10.5C8.50965 10.5 7.50229 9.49264 7.50229 8.25C7.50229 7.00736 8.50965 6 9.75229 6C10.9949 6 12.0023 7.00736 12.0023 8.25Z" fill="currentColor"/>
<path d="M18 0H6C4.34315 0 3 1.34314 3 3V21C3 22.6569 4.34315 24 6 24H18C19.6569 24 21 22.6569 21 21V3C21 1.34315 19.6569 0 18 0ZM4.5 3C4.5 2.17157 5.17157 1.5 6 1.5H18C18.8284 1.5 19.5 2.17157 19.5 3V15L16.376 11.876C16.0483 11.5483 15.5048 11.5933 15.2354 11.9704L12 16.5L8.75213 14.5513C8.45703 14.3742 8.07928 14.4207 7.83593 14.6641L4.5 18V3Z" fill="currentColor"/>
</svg>
