<svg width="24" height="24" viewBox="0 0 24 24" fill="none" xmlns="http://www.w3.org/2000/svg">
<g>
<path fill-rule="evenodd" clip-rule="evenodd" d="M13.0805 4.75C13.4239 6.32259 14.8244 7.5 16.5 7.5C18.1756 7.5 19.5761 6.32259 19.9195 4.75H23.25C23.6642 4.75 24 4.41421 24 4C24 3.58579 23.6642 3.25 23.25 3.25H19.9195C19.5761 1.67741 18.1756 0.5 16.5 0.5C14.8244 0.5 13.4239 1.67741 13.0805 3.25H0.75C0.335787 3.25 0 3.58579 0 4C0 4.41421 0.335787 4.75 0.75 4.75H13.0805ZM14.5 4C14.5 5.10457 15.3954 6 16.5 6C17.6046 6 18.5 5.10457 18.5 4C18.5 2.89543 17.6046 2 16.5 2C15.3954 2 14.5 2.89543 14.5 4Z" fill="currentColor"/>
<path fill-rule="evenodd" clip-rule="evenodd" d="M5.08055 12.75C5.42388 14.3226 6.82444 15.5 8.5 15.5C10.1756 15.5 11.5761 14.3226 11.9195 12.75H23.25C23.6642 12.75 24 12.4142 24 12C24 11.5858 23.6642 11.25 23.25 11.25H11.9195C11.5761 9.67741 10.1756 8.5 8.5 8.5C6.82444 8.5 5.42388 9.67741 5.08055 11.25H0.75C0.335787 11.25 0 11.5858 0 12C0 12.4142 0.335787 12.75 0.75 12.75H5.08055ZM6.5 12C6.5 13.1046 7.39543 14 8.5 14C9.60457 14 10.5 13.1046 10.5 12C10.5 10.8954 9.60457 10 8.5 10C7.39543 10 6.5 10.8954 6.5 12Z" fill="currentColor"/>
<path fill-rule="evenodd" clip-rule="evenodd" d="M16.5 23.5C14.8244 23.5 13.4239 22.3226 13.0805 20.75H0.75C0.335787 20.75 0 20.4142 0 20C0 19.5858 0.335787 19.25 0.75 19.25H13.0805C13.4239 17.6774 14.8244 16.5 16.5 16.5C18.1756 16.5 19.5761 17.6774 19.9195 19.25H23.25C23.6642 19.25 24 19.5858 24 20C24 20.4142 23.6642 20.75 23.25 20.75H19.9195C19.5761 22.3226 18.1756 23.5 16.5 23.5ZM16.5 22C15.3954 22 14.5 21.1046 14.5 20C14.5 18.8954 15.3954 18 16.5 18C17.6046 18 18.5 18.8954 18.5 20C18.5 21.1046 17.6046 22 16.5 22Z" fill="currentColor"/>
</g>
</svg>
