<svg width="24" height="24" viewBox="0 0 24 24" fill="none" xmlns="http://www.w3.org/2000/svg">
<path d="M18.7758 2.964C18.6798 2.964 18.5838 2.94 18.4998 2.892C16.1958 1.704 14.2038 1.2 11.8158 1.2C9.43979 1.2 7.18379 1.764 5.13179 2.892C4.84379 3.048 4.48379 2.94 4.31579 2.652C4.15979 2.364 4.26779 1.992 4.55579 1.836C6.78779 0.624 9.23579 0 11.8158 0C14.3718 0 16.6038 0.564 19.0518 1.824C19.3518 1.98 19.4598 2.34 19.3038 2.628C19.1958 2.844 18.9918 2.964 18.7758 2.964ZM1.60379 9.264C1.48379 9.264 1.36379 9.228 1.25579 9.156C0.979791 8.964 0.91979 8.592 1.11179 8.316C2.29979 6.636 3.81179 5.316 5.61179 4.392C9.37979 2.448 14.2038 2.436 17.9838 4.38C19.7838 5.304 21.2958 6.612 22.4838 8.28C22.6758 8.544 22.6158 8.928 22.3398 9.12C22.0638 9.312 21.6918 9.252 21.4998 8.976C20.4198 7.464 19.0518 6.276 17.4318 5.448C13.9878 3.684 9.58379 3.684 6.15179 5.46C4.51979 6.3 3.15179 7.5 2.07179 9.012C1.97579 9.18 1.79579 9.264 1.60379 9.264ZM9.10379 23.748C8.94779 23.748 8.79179 23.688 8.68379 23.568C7.63979 22.524 7.07579 21.852 6.27179 20.4C5.44379 18.924 5.01179 17.124 5.01179 15.192C5.01179 11.628 8.05979 8.724 11.8038 8.724C15.5478 8.724 18.5958 11.628 18.5958 15.192C18.5958 15.528 18.3318 15.792 17.9958 15.792C17.6598 15.792 17.3958 15.528 17.3958 15.192C17.3958 12.288 14.8878 9.924 11.8038 9.924C8.71979 9.924 6.21179 12.288 6.21179 15.192C6.21179 16.92 6.59579 18.516 7.32779 19.812C8.09579 21.192 8.62379 21.78 9.54779 22.716C9.77579 22.956 9.77579 23.328 9.54779 23.568C9.41579 23.688 9.25979 23.748 9.10379 23.748ZM17.7078 21.528C16.2798 21.528 15.0198 21.168 13.9878 20.46C12.1998 19.248 11.1318 17.28 11.1318 15.192C11.1318 14.856 11.3958 14.592 11.7318 14.592C12.0678 14.592 12.3318 14.856 12.3318 15.192C12.3318 16.884 13.1958 18.48 14.6598 19.464C15.5118 20.04 16.5078 20.316 17.7078 20.316C17.9958 20.316 18.4758 20.28 18.9558 20.196C19.2798 20.136 19.5918 20.352 19.6518 20.688C19.7118 21.012 19.4958 21.324 19.1598 21.384C18.4758 21.516 17.8758 21.528 17.7078 21.528ZM15.2958 24C15.2478 24 15.1878 23.988 15.1398 23.976C13.2318 23.448 11.9838 22.74 10.6758 21.456C8.99579 19.788 8.07179 17.568 8.07179 15.192C8.07179 13.248 9.72779 11.664 11.7678 11.664C13.8078 11.664 15.4638 13.248 15.4638 15.192C15.4638 16.476 16.5798 17.52 17.9598 17.52C19.3398 17.52 20.4558 16.476 20.4558 15.192C20.4558 10.668 16.5558 6.996 11.7558 6.996C8.34779 6.996 5.22779 8.892 3.82379 11.832C3.35579 12.804 3.11579 13.944 3.11579 15.192C3.11579 16.128 3.19979 17.604 3.91979 19.524C4.03979 19.836 3.88379 20.184 3.57179 20.292C3.25979 20.412 2.91179 20.244 2.80379 19.944C2.21579 18.372 1.92779 16.812 1.92779 15.192C1.92779 13.752 2.20379 12.444 2.74379 11.304C4.33979 7.956 7.87979 5.784 11.7558 5.784C17.2158 5.784 21.6558 9.996 21.6558 15.18C21.6558 17.124 19.9998 18.708 17.9598 18.708C15.9198 18.708 14.2638 17.124 14.2638 15.18C14.2638 13.896 13.1478 12.852 11.7678 12.852C10.3878 12.852 9.27179 13.896 9.27179 15.18C9.27179 17.232 10.0638 19.152 11.5158 20.592C12.6558 21.72 13.7478 22.344 15.4398 22.812C15.7638 22.896 15.9438 23.232 15.8598 23.544C15.7998 23.82 15.5478 24 15.2958 24Z" fill="currentColor"/>
</svg>
