<svg width="24" height="24" viewBox="0 0 24 24" fill="none" xmlns="http://www.w3.org/2000/svg">
<path d="M14.2533 8.26934C14.1139 8.20691 13.95 8.30852 13.95 8.47014V9.97506C13.95 10.3893 13.6142 10.7251 13.2 10.7251H3.75V15.0751H13.2C13.6142 15.0751 13.95 15.4108 13.95 15.8251V17.33C13.95 17.4916 14.1139 17.5932 14.2533 17.5308L20.2286 13.1316C20.2492 13.1164 20.2705 13.1024 20.2925 13.0894C20.4358 13.0049 20.4358 12.7952 20.2925 12.7107C20.2705 12.6977 20.2492 12.6837 20.2286 12.6685L14.2533 8.26934ZM12.45 8.47014C12.45 7.127 13.9041 6.32085 15.037 6.9885C15.059 7.00146 15.0803 7.01553 15.1009 7.03067L21.0911 11.4409C22.1696 12.1116 22.1696 13.6885 21.0912 14.3592L15.1009 18.7694C15.0803 18.7846 15.059 18.7987 15.037 18.8116C13.9041 19.4793 12.45 18.6731 12.45 17.33V16.5751H3C2.58579 16.5751 2.25 16.2393 2.25 15.8251V9.97506C2.25 9.56085 2.58579 9.22506 3 9.22506H12.45V8.47014Z" fill="currentColor"/>
</svg>
