<svg width="24" height="24" viewBox="0 0 24 24" fill="none" xmlns="http://www.w3.org/2000/svg">
<path d="M2.25 2.25C2.25 1.83579 2.58579 1.5 3 1.5H21C21.4142 1.5 21.75 1.83579 21.75 2.25V5.25C21.75 5.43528 21.6814 5.61401 21.5575 5.75172L15 13.0378V20.25C15 20.5728 14.7934 20.8594 14.4872 20.9615L9.98717 22.4615C9.75846 22.5378 9.50704 22.4994 9.31147 22.3584C9.11589 22.2175 9 21.9911 9 21.75V13.0378L2.44253 5.75172C2.31858 5.61401 2.25 5.43528 2.25 5.25V2.25ZM3.75 3V4.9622L10.3075 12.2483C10.4314 12.386 10.5 12.5647 10.5 12.75V20.7094L13.5 19.7094V12.75C13.5 12.5647 13.5686 12.386 13.6925 12.2483L20.25 4.9622V3H3.75Z" fill="currentColor"/>
</svg>
