<svg width="24" height="24" viewBox="0 0 24 24" fill="none" xmlns="http://www.w3.org/2000/svg">
<g clip-path="url(#clip0_45_424)">
<path d="M14.107 1.57558C13.4878 -0.525193 10.5122 -0.525193 9.89301 1.57558L9.74284 2.08505C9.3472 3.42735 7.81403 4.06241 6.58512 3.39302L6.11869 3.13896C4.19539 2.09133 2.09133 4.19539 3.13896 6.1187L3.39302 6.58512C4.06241 7.81403 3.42735 9.3472 2.08505 9.74284L1.57558 9.89301C-0.525193 10.5122 -0.525193 13.4878 1.57558 14.107L2.08505 14.2572C3.42735 14.6528 4.06241 16.186 3.39302 17.4149L3.13896 17.8813C2.09133 19.8046 4.19538 21.9087 6.11869 20.861L6.58512 20.607C7.81403 19.9376 9.3472 20.5727 9.74284 21.915L9.89301 22.4244C10.5122 24.5252 13.4878 24.5252 14.107 22.4244L14.2572 21.915C14.6528 20.5727 16.186 19.9376 17.4149 20.607L17.8813 20.861C19.8046 21.9087 21.9087 19.8046 20.861 17.8813L20.607 17.4149C19.9376 16.186 20.5727 14.6528 21.915 14.2572L22.4244 14.107C24.5252 13.4878 24.5252 10.5122 22.4244 9.89301L21.915 9.74284C20.5727 9.3472 19.9376 7.81403 20.607 6.58512L20.861 6.11869C21.9087 4.19538 19.8046 2.09133 17.8813 3.13896L17.4149 3.39302C16.186 4.06241 14.6528 3.42735 14.2572 2.08505L14.107 1.57558ZM12 16.3932C9.57369 16.3932 7.60678 14.4263 7.60678 12C7.60678 9.57369 9.57369 7.60678 12 7.60678C14.4263 7.60678 16.3932 9.57369 16.3932 12C16.3932 14.4263 14.4263 16.3932 12 16.3932Z" fill="currentColor"/>
</g>
<defs>
<clipPath id="clip0_45_424">
<rect width="24" height="24" fill="white"/>
</clipPath>
</defs>
</svg>
