<svg width="24" height="24" viewBox="0 0 24 24" fill="none" xmlns="http://www.w3.org/2000/svg">
<g clip-path="url(#clip0_45_316)">
<path d="M0 1.71429C0 0.767512 0.767512 0 1.71429 0H5.14286C6.08963 0 6.85714 0.767512 6.85714 1.71429V5.14286C6.85714 6.08963 6.08963 6.85714 5.14286 6.85714H1.71429C0.767512 6.85714 0 6.08963 0 5.14286V1.71429Z" fill="currentColor"/>
<path d="M8.57143 1.71429C8.57143 0.767512 9.33894 0 10.2857 0H13.7143C14.6611 0 15.4286 0.767512 15.4286 1.71429V5.14286C15.4286 6.08963 14.6611 6.85714 13.7143 6.85714H10.2857C9.33894 6.85714 8.57143 6.08963 8.57143 5.14286V1.71429Z" fill="currentColor"/>
<path d="M17.1429 1.71429C17.1429 0.767512 17.9104 0 18.8571 0H22.2857C23.2325 0 24 0.767512 24 1.71429V5.14286C24 6.08963 23.2325 6.85714 22.2857 6.85714H18.8571C17.9104 6.85714 17.1429 6.08963 17.1429 5.14286V1.71429Z" fill="currentColor"/>
<path d="M0 10.2857C0 9.33894 0.767512 8.57143 1.71429 8.57143H5.14286C6.08963 8.57143 6.85714 9.33894 6.85714 10.2857V13.7143C6.85714 14.6611 6.08963 15.4286 5.14286 15.4286H1.71429C0.767512 15.4286 0 14.6611 0 13.7143V10.2857Z" fill="currentColor"/>
<path d="M8.57143 10.2857C8.57143 9.33894 9.33894 8.57143 10.2857 8.57143H13.7143C14.6611 8.57143 15.4286 9.33894 15.4286 10.2857V13.7143C15.4286 14.6611 14.6611 15.4286 13.7143 15.4286H10.2857C9.33894 15.4286 8.57143 14.6611 8.57143 13.7143V10.2857Z" fill="currentColor"/>
<path d="M17.1429 10.2857C17.1429 9.33894 17.9104 8.57143 18.8571 8.57143H22.2857C23.2325 8.57143 24 9.33894 24 10.2857V13.7143C24 14.6611 23.2325 15.4286 22.2857 15.4286H18.8571C17.9104 15.4286 17.1429 14.6611 17.1429 13.7143V10.2857Z" fill="currentColor"/>
<path d="M0 18.8571C0 17.9104 0.767512 17.1429 1.71429 17.1429H5.14286C6.08963 17.1429 6.85714 17.9104 6.85714 18.8571V22.2857C6.85714 23.2325 6.08963 24 5.14286 24H1.71429C0.767512 24 0 23.2325 0 22.2857V18.8571Z" fill="currentColor"/>
<path d="M8.57143 18.8571C8.57143 17.9104 9.33894 17.1429 10.2857 17.1429H13.7143C14.6611 17.1429 15.4286 17.9104 15.4286 18.8571V22.2857C15.4286 23.2325 14.6611 24 13.7143 24H10.2857C9.33894 24 8.57143 23.2325 8.57143 22.2857V18.8571Z" fill="currentColor"/>
<path d="M17.1429 18.8571C17.1429 17.9104 17.9104 17.1429 18.8571 17.1429H22.2857C23.2325 17.1429 24 17.9104 24 18.8571V22.2857C24 23.2325 23.2325 24 22.2857 24H18.8571C17.9104 24 17.1429 23.2325 17.1429 22.2857V18.8571Z" fill="currentColor"/>
</g>
<defs>
<clipPath id="clip0_45_316">
<rect width="24" height="24" fill="white"/>
</clipPath>
</defs>
</svg>
