<svg width="24" height="24" viewBox="0 0 24 24" fill="none" xmlns="http://www.w3.org/2000/svg">
<g clip-path="url(#clip0_45_408)">
<path d="M21.375 12.2277H17.3014L17.3044 12.299C17.3225 12.7663 17.3282 13.411 17.2354 13.8748C17.1514 14.2949 16.9656 14.69 16.8031 14.9823C16.5754 15.3919 16.2262 15.666 15.8398 15.8211C15.8462 15.8851 15.8523 15.9516 15.8576 16.02C15.894 16.488 15.9144 17.211 15.6964 17.7563C15.4742 18.3116 14.965 18.7898 14.6218 19.0772C14.4877 19.1896 14.3595 19.2884 14.25 19.3692V20.2415C14.25 22.0164 12.7175 23.4032 10.9515 23.2266L6.87853 22.8193C6.1454 22.746 5.43591 22.5192 4.7962 22.1536L1.13369 20.0608C0.432644 19.6602 0 18.9147 0 18.1072V8.65476C0 7.80253 0.481504 7.02344 1.24377 6.6423L4.88883 4.81977L11.1173 1.08269C12.1586 0.457917 13.507 0.761127 14.1806 1.77151C14.7821 2.6738 14.6631 3.87523 13.8964 4.64202L11.5607 6.97771H21.375C22.8247 6.97771 24 8.15297 24 9.60271C24 11.0525 22.8247 12.2277 21.375 12.2277Z" fill="currentColor"/>
</g>
<defs>
<clipPath id="clip0_45_408">
<rect width="24" height="24" fill="white"/>
</clipPath>
</defs>
</svg>
