<svg width="24" height="24" viewBox="0 0 24 24" fill="none" xmlns="http://www.w3.org/2000/svg">
<path d="M9.75 21.75V16.492C9.75 16.125 10.125 15.75 10.5 15.75H13.5C13.875 15.75 14.25 16.125 14.25 16.5V21.75C14.25 22.1642 14.5858 22.5 15 22.5H21C21.4142 22.5 21.75 22.1642 21.75 21.75V11.25C21.75 11.0511 21.671 10.8603 21.5303 10.7197L19.5 8.68934V3.75C19.5 3.33579 19.1642 3 18.75 3H17.25C16.8358 3 16.5 3.33579 16.5 3.75V5.68934L12.5303 1.71967C12.2374 1.42678 11.7626 1.42678 11.4697 1.71967L2.46967 10.7197C2.32902 10.8603 2.25 11.0511 2.25 11.25V21.75C2.25 22.1642 2.58579 22.5 3 22.5H9C9.41421 22.5 9.75 22.1642 9.75 21.75Z" fill="currentColor"/>
</svg>
