<svg width="24" height="24" viewBox="0 0 24 24" fill="none" xmlns="http://www.w3.org/2000/svg">
<path d="M3 9C3 4.02944 7.02944 0 12 0C16.9706 0 21 4.02944 21 9C21 11.5369 19.9494 13.8297 18.2615 15.4648C17.9571 15.7597 17.7228 16.066 17.5819 16.3931L16.4388 19.0467C16.3203 19.3218 16.0495 19.5 15.75 19.5H8.25C7.95048 19.5 7.67969 19.3218 7.56119 19.0467L6.41809 16.3931C6.27721 16.066 6.04287 15.7597 5.73845 15.4648C4.05059 13.8297 3 11.5369 3 9Z" fill="currentColor"/>
<path d="M7.5 21.75C7.5 21.3358 7.83579 21 8.25 21H15.75C16.1642 21 16.5 21.3358 16.5 21.75C16.5 22.1642 16.1642 22.5 15.75 22.5L15.4146 23.1708C15.1605 23.679 14.6411 24 14.0729 24H9.92705C9.35889 24 8.8395 23.679 8.58541 23.1708L8.25 22.5C7.83579 22.5 7.5 22.1642 7.5 21.75Z" fill="currentColor"/>
</svg>
