<svg width="24" height="24" viewBox="0 0 24 24" fill="none" xmlns="http://www.w3.org/2000/svg">
<path d="M7.07238 9.8136L5.01474 11.8712C3.25739 13.6286 3.25738 16.4778 5.01474 18.2352C6.7721 19.9926 9.62135 19.9926 11.3787 18.2352L14.1213 15.4926C15.8787 13.7352 15.8787 10.886 14.1213 9.1286C13.7494 8.7567 13.3286 8.4635 12.8796 8.249L12 9.1286C11.9086 9.22007 11.8314 9.32041 11.7685 9.42686C12.2416 9.56243 12.688 9.81657 13.0607 10.1893C14.2323 11.3608 14.2323 13.2603 13.0607 14.4319L10.318 17.1745C9.14647 18.3461 7.24698 18.3461 6.0754 17.1745C4.90383 16.003 4.90383 14.1035 6.0754 12.9319L7.26431 11.743C7.09602 11.1128 7.03205 10.4606 7.07238 9.8136Z" fill="#3B3B3B"/>
<path d="M9.87871 7.00728C8.12135 8.76464 8.12135 11.6139 9.87871 13.3712C10.2506 13.7431 10.6714 14.0363 11.1204 14.2508L12.2838 13.0874C11.7913 12.9559 11.3258 12.697 10.9394 12.3106C9.76779 11.139 9.76779 9.23952 10.9394 8.06794L13.682 5.3253C14.8536 4.15373 16.7531 4.15373 17.9246 5.3253C19.0962 6.49687 19.0962 8.39637 17.9246 9.56794L16.7357 10.7569C16.904 11.387 16.968 12.0393 16.9277 12.6862L18.9853 10.6286C20.7427 8.87124 20.7427 6.022 18.9853 4.26464C17.2279 2.50728 14.3787 2.50728 12.6213 4.26464L9.87871 7.00728Z" fill="currentColor"/>
</svg>
