<svg width="24" height="24" viewBox="0 0 24 24" fill="none" xmlns="http://www.w3.org/2000/svg">
<path d="M11.6667 1.5C12.7983 1.5 13.8835 1.81607 14.6837 2.37868C15.4838 2.94129 15.9333 3.70435 15.9333 4.5V10.5H7.4V4.5C7.4 3.70435 7.84952 2.94129 8.64968 2.37868C9.44983 1.81607 10.5351 1.5 11.6667 1.5ZM18.0667 10.5V4.5C18.0667 3.30653 17.3924 2.16193 16.1922 1.31802C14.9919 0.474106 13.3641 0 11.6667 0C9.96928 0 8.34142 0.474106 7.14118 1.31802C5.94095 2.16193 5.26667 3.30653 5.26667 4.5V10.5C4.13508 10.5 3.04983 10.8161 2.24968 11.3787C1.44952 11.9413 1 12.7044 1 13.5V21C1 21.7956 1.44952 22.5587 2.24968 23.1213C3.04983 23.6839 4.13508 24 5.26667 24H18.0667C19.1983 24 20.2835 23.6839 21.0837 23.1213C21.8838 22.5587 22.3333 21.7956 22.3333 21V13.5C22.3333 12.7044 21.8838 11.9413 21.0837 11.3787C20.2835 10.8161 19.1983 10.5 18.0667 10.5ZM5.26667 12H18.0667C18.6325 12 19.1751 12.158 19.5752 12.4393C19.9752 12.7206 20.2 13.1022 20.2 13.5V21C20.2 21.3978 19.9752 21.7794 19.5752 22.0607C19.1751 22.342 18.6325 22.5 18.0667 22.5H5.26667C4.70087 22.5 4.15825 22.342 3.75817 22.0607C3.3581 21.7794 3.13333 21.3978 3.13333 21V13.5C3.13333 13.1022 3.3581 12.7206 3.75817 12.4393C4.15825 12.158 4.70087 12 5.26667 12Z" fill="currentColor"/>
</svg>
