<svg width="24" height="24" viewBox="0 0 24 24" fill="none" xmlns="http://www.w3.org/2000/svg">
<path fill-rule="evenodd" clip-rule="evenodd" d="M23.7255 0.17C23.8993 0.312454 24 0.525312 24 0.750006V21.75C24 22.1075 23.7477 22.4153 23.3971 22.4854L15.8971 23.9854C15.8 24.0049 15.7 24.0049 15.6029 23.9854L8.25 22.5149L0.897087 23.9854C0.676756 24.0295 0.448274 23.9725 0.274508 23.83C0.100742 23.6876 0 23.4747 0 23.25V2.25001C0 1.8925 0.252345 1.58468 0.602913 1.51457L8.10291 0.0145709C8.20001 -0.00484834 8.29999 -0.00484834 8.39709 0.0145709L15.75 1.48515L23.1029 0.0145709C23.3232 -0.0294953 23.5517 0.0275458 23.7255 0.17ZM15 2.86486L9 1.66486V21.1352L15 22.3352V2.86486ZM16.5 22.3352L22.5 21.1352V1.66486L16.5 2.86486V22.3352ZM7.5 21.1352V1.66486L1.5 2.86486V22.3352L7.5 21.1352Z" fill="currentColor"/>
</svg>
