<svg width="24" height="24" viewBox="0 0 24 24" fill="none" xmlns="http://www.w3.org/2000/svg">
<path d="M9.00045 0.417456C9.27375 0.750653 9.36704 1.25282 9.12105 1.70419C8.28016 3.24711 7.80226 5.01453 7.80226 6.89529C7.80226 12.9259 12.7204 17.809 18.7802 17.809C19.5698 17.809 20.3391 17.7263 21.0801 17.5693C21.5868 17.462 22.0476 17.691 22.2947 18.0429C22.5495 18.406 22.603 18.9477 22.2478 19.3837C19.955 22.1978 16.4472 24 12.5154 24C5.60013 24 0 18.4295 0 11.565C0 6.3987 3.17122 1.96795 7.68531 0.0901317C8.20685 -0.126827 8.71843 0.0736398 9.00045 0.417456ZM7.28696 1.96596C3.8625 3.81343 1.53737 7.41914 1.53737 11.565C1.53737 17.5957 6.45556 22.4788 12.5154 22.4788C15.5693 22.4788 18.3324 21.2397 20.3237 19.2366C19.8177 19.2984 19.3026 19.3303 18.7802 19.3303C11.865 19.3303 6.26489 13.7598 6.26489 6.89529C6.26489 5.14522 6.62918 3.47809 7.28696 1.96596Z" fill="currentColor"/>
</svg>
