<svg width="24" height="24" viewBox="0 0 24 24" fill="none" xmlns="http://www.w3.org/2000/svg">
<path d="M3.53033 2.46967C3.23744 2.17678 2.76256 2.17678 2.46967 2.46967C2.17678 2.76256 2.17678 3.23744 2.46967 3.53033L20.4697 21.5303C20.7626 21.8232 21.2374 21.8232 21.5303 21.5303C21.8232 21.2374 21.8232 20.7626 21.5303 20.4697L3.53033 2.46967Z" fill="currentColor"/>
<path d="M12 3C10.6362 3 9.44308 3.3626 8.44729 3.95605C8.09148 4.1681 7.97493 4.62845 8.18699 4.98427C8.39904 5.34009 8.85939 5.45663 9.21521 5.24458C9.98285 4.78709 10.9113 4.5 12 4.5C14.9958 4.5 17.6209 6.71881 18.0037 10.5741C18.0403 10.9429 18.3408 11.2297 18.711 11.249C19.6004 11.2953 20.5711 11.5885 21.3003 12.1461C22.0052 12.6852 22.5 13.4777 22.5 14.625C22.5 15.8126 22.0782 16.6088 21.4504 17.1291C21.1315 17.3935 21.0873 17.8663 21.3516 18.1852C21.616 18.5041 22.0888 18.5483 22.4077 18.284C23.4131 17.4506 24 16.2133 24 14.625C24 12.9682 23.2526 11.7507 22.2114 10.9546C21.3799 10.3187 20.3729 9.95721 19.4176 9.81448C18.7522 5.62916 15.6722 3 12 3Z" fill="currentColor"/>
<path d="M4.63112 9.30108C5.02392 9.16964 5.2358 8.74466 5.10436 8.35185C4.97293 7.95905 4.54794 7.74717 4.15513 7.8786C1.834 8.65529 0 10.5469 0 13.5C0 17.0744 2.93675 19.5 6.375 19.5H15.0173C15.4316 19.5 15.7673 19.1642 15.7673 18.75C15.7673 18.3358 15.4316 18 15.0173 18H6.375C3.62575 18 1.5 16.1131 1.5 13.5C1.5 11.3063 2.80569 9.9119 4.63112 9.30108Z" fill="currentColor"/>
</svg>
