<svg width="24" height="24" viewBox="0 0 24 24" fill="none" xmlns="http://www.w3.org/2000/svg">
<path fill-rule="evenodd" clip-rule="evenodd" d="M18 0L17 3H12.75V4.37859L20.9147 8.5H22.25C22.6642 8.5 23 8.83579 23 9.25L22.9999 12.25C22.9999 12.6642 22.6642 13 22.2499 13H21.4999L21.5 19.5C21.8441 19.5 22.1441 19.7361 22.2276 20.07L22.9776 23.07C23.0336 23.2941 22.9833 23.533 22.8411 23.715C22.699 23.897 22.4809 24 22.25 24H1.74999C1.51904 24 1.30097 23.897 1.15884 23.715C1.01671 23.533 0.966371 23.2941 1.02239 23.07L1.77239 20.07C1.85585 19.7361 2.15584 19.5 2.49999 19.5L2.49994 13H1.74994C1.33573 13 0.999939 12.6642 0.999939 12.25L0.999992 9.25C0.999992 8.83579 1.33578 8.5 1.74999 8.5H3.08526L11.25 4.37858V0H18ZM17.3353 8.5L12 5.5L6.66472 8.5H17.3353ZM3.99994 13L3.99999 19.5H5.49999L5.49994 13H3.99994ZM6.99994 13L6.99999 19.5H9.74999L9.74994 13H6.99994ZM11.2499 13L11.25 19.5H12.75L12.7499 13H11.2499ZM14.2499 13L14.25 19.5H17L16.9999 13H14.2499ZM18.4999 13L18.5 19.5H19.9999V13H18.4999ZM21.5 11.5V10H2.49999V11.5H21.5ZM3.08557 21L2.71057 22.5H21.2894L20.9144 21H3.08557Z" fill="currentColor"/>
</svg>
