<svg width="24" height="24" viewBox="0 0 24 24" fill="none" xmlns="http://www.w3.org/2000/svg">
<path d="M22.7801 3.16176C23.0733 3.45502 23.0733 3.9305 22.7801 4.22376L21.2137 5.79008L18.2099 2.78626L19.7762 1.21995C20.0695 0.926683 20.545 0.926684 20.8382 1.21995L22.7801 3.16176Z" fill="currentColor"/>
<path d="M20.1517 6.85209L17.1479 3.84827L6.91543 14.0808C6.83299 14.1632 6.77088 14.2637 6.73401 14.3743L5.52564 17.9994C5.4278 18.2929 5.70705 18.5722 6.00058 18.4744L9.62571 17.266C9.73631 17.2291 9.83681 17.167 9.91924 17.0846L20.1517 6.85209Z" fill="currentColor"/>
<path fill-rule="evenodd" clip-rule="evenodd" d="M1 20.5248C1 21.769 2.00864 22.7777 3.25286 22.7777H19.7738C21.0181 22.7777 22.0267 21.769 22.0267 20.5248V11.5134C22.0267 11.0986 21.6905 10.7624 21.2757 10.7624C20.861 10.7624 20.5248 11.0986 20.5248 11.5134V20.5248C20.5248 20.9395 20.1886 21.2757 19.7738 21.2757H3.25286C2.83812 21.2757 2.50191 20.9395 2.50191 20.5248V4.00381C2.50191 3.58907 2.83812 3.25286 3.25286 3.25286H13.0153C13.43 3.25286 13.7662 2.91665 13.7662 2.50191C13.7662 2.08717 13.43 1.75095 13.0153 1.75095H3.25286C2.00864 1.75095 1 2.75959 1 4.00381V20.5248Z" fill="currentColor"/>
</svg>
