<svg width="24" height="24" viewBox="0 0 24 24" fill="none" xmlns="http://www.w3.org/2000/svg">
<path fill-rule="evenodd" clip-rule="evenodd" d="M9 9C11.4853 9 13.5 6.98528 13.5 4.5C13.5 2.01472 11.4853 0 9 0C6.51472 0 4.5 2.01472 4.5 4.5C4.5 6.98528 6.51472 9 9 9ZM12 4.5C12 6.15685 10.6569 7.5 9 7.5C7.34315 7.5 6 6.15685 6 4.5C6 2.84315 7.34315 1.5 9 1.5C10.6569 1.5 12 2.84315 12 4.5Z" fill="currentColor"/>
<path d="M9.04062 16.4948C9.09791 17.0167 9.21471 17.5208 9.38409 18H1.5C1.5 18 0 18 0 16.5C0 15 1.5 10.5 9 10.5C9.84598 10.5 10.6156 10.5573 11.3154 10.661C10.8547 11.0628 10.4491 11.526 10.1114 12.0381C9.76084 12.0132 9.39073 12 8.99998 12C5.56632 12 3.72653 13.0198 2.74815 13.9982C1.73063 15.0157 1.50214 16.1246 1.5 16.4948H9.04062Z" fill="currentColor"/>
<path fill-rule="evenodd" clip-rule="evenodd" d="M21.0625 15.7812C21.0625 16.9498 20.683 18.0297 20.0405 18.9044C20.073 18.9284 20.1041 18.9551 20.1335 18.9845L23.262 22.113C23.5793 22.4303 23.5793 22.9447 23.262 23.262C22.9447 23.5793 22.4303 23.5793 22.113 23.262L18.9845 20.1335C18.9551 20.1041 18.9284 20.073 18.9044 20.0405C18.0296 20.6833 16.9501 21.0625 15.7812 21.0625C12.8645 21.0625 10.5 18.698 10.5 15.7812C10.5 12.8645 12.8645 10.5 15.7812 10.5C18.698 10.5 21.0625 12.8645 21.0625 15.7812ZM19.5 15.75C19.5 17.8211 17.8211 19.5 15.75 19.5C13.6789 19.5 12 17.8211 12 15.75C12 13.6789 13.6789 12 15.75 12C17.8211 12 19.5 13.6789 19.5 15.75Z" fill="currentColor"/>
</svg>
