<svg width="24" height="24" viewBox="0 0 24 24" fill="none" xmlns="http://www.w3.org/2000/svg">
<path d="M17.5 6.5C17.5 9.53757 15.0376 12 12 12C8.96243 12 6.5 9.53757 6.5 6.5C6.5 3.46243 8.96243 1 12 1C15.0376 1 17.5 3.46243 17.5 6.5Z" fill="currentColor"/>
<path d="M1 21.1667C1 23 2.83333 23 2.83333 23H10.1154L11.5 17.5L10.5 15.5C10.5 15.5 11 15 12 15C13 15 13.5 15.5 13.5 15.5L12.5 17.5L13.8846 23H21.1667C21.1667 23 23 23 23 21.1667C23 19.3333 21.1667 13.8333 12 13.8333C2.83333 13.8333 1 19.3333 1 21.1667Z" fill="currentColor"/>
</svg>
