<svg width="24" height="24" viewBox="0 0 24 24" fill="none" xmlns="http://www.w3.org/2000/svg">
<path fill-rule="evenodd" clip-rule="evenodd" d="M21.1667 23C21.1667 23 23 23 23 21.1667C23 19.3333 21.1667 13.8333 12 13.8333C2.83333 13.8333 1 19.3333 1 21.1667C1 23 2.83333 23 2.83333 23H21.1667ZM2.85837 21.5C2.84677 21.4991 2.82379 21.4968 2.79347 21.4918C2.71984 21.4795 2.64458 21.4577 2.58749 21.4292C2.56174 21.4163 2.54717 21.4058 2.54035 21.4001C2.53709 21.3974 2.53556 21.3957 2.53512 21.3952L2.53453 21.3945C2.53443 21.3944 2.53319 21.3925 2.53113 21.3881C2.52907 21.3836 2.52531 21.3746 2.52106 21.3597C2.5128 21.3308 2.5 21.2701 2.5 21.1667C2.5 20.6351 2.80915 19.1872 4.12316 17.8732C5.39321 16.6031 7.733 15.3333 12 15.3333C16.267 15.3333 18.6068 16.6031 19.8768 17.8732C21.1909 19.1872 21.5 20.6351 21.5 21.1667C21.5 21.2701 21.4872 21.3308 21.4789 21.3597C21.4747 21.3746 21.4709 21.3836 21.4689 21.3881C21.4679 21.3903 21.467 21.3918 21.4665 21.3929C21.4659 21.3939 21.4655 21.3944 21.4655 21.3945L21.4649 21.3952C21.4644 21.3957 21.4629 21.3974 21.4596 21.4001C21.4528 21.4058 21.4383 21.4163 21.4125 21.4292C21.3554 21.4577 21.2802 21.4795 21.2065 21.4918C21.1762 21.4968 21.1532 21.4991 21.1416 21.5H2.85837ZM12 10.5C14.2091 10.5 16 8.70914 16 6.5C16 4.29086 14.2091 2.5 12 2.5C9.79086 2.5 8 4.29086 8 6.5C8 8.70914 9.79086 10.5 12 10.5ZM17.5 6.5C17.5 9.53757 15.0376 12 12 12C8.96243 12 6.5 9.53757 6.5 6.5C6.5 3.46243 8.96243 1 12 1C15.0376 1 17.5 3.46243 17.5 6.5Z" fill="currentColor"/>
</svg>
