<svg width="24" height="24" viewBox="0 0 24 24" fill="none" xmlns="http://www.w3.org/2000/svg">
<path d="M7.5 12C9.15685 12 10.5 10.6569 10.5 9C10.5 7.34315 9.15685 6 7.5 6C5.84315 6 4.5 7.34315 4.5 9C4.5 10.6569 5.84315 12 7.5 12Z" fill="currentColor"/>
<path d="M13.5 8.25C13.5 7.83579 13.8358 7.5 14.25 7.5H20.25C20.6642 7.5 21 7.83579 21 8.25C21 8.66421 20.6642 9 20.25 9H14.25C13.8358 9 13.5 8.66421 13.5 8.25Z" fill="currentColor"/>
<path d="M13.5 12C13.5 11.5858 13.8358 11.25 14.25 11.25H20.25C20.6642 11.25 21 11.5858 21 12C21 12.4142 20.6642 12.75 20.25 12.75H14.25C13.8358 12.75 13.5 12.4142 13.5 12Z" fill="currentColor"/>
<path d="M15 15.75C15 15.3358 15.3358 15 15.75 15H20.25C20.6642 15 21 15.3358 21 15.75C21 16.1642 20.6642 16.5 20.25 16.5H15.75C15.3358 16.5 15 16.1642 15 15.75Z" fill="currentColor"/>
<path d="M3 3C1.34315 3 0 4.34315 0 6V18C0 19.6569 1.34315 21 3 21H21C22.6569 21 24 19.6569 24 18V6C24 4.34315 22.6569 3 21 3H3ZM1.5 6C1.5 5.17157 2.17157 4.5 3 4.5H21C21.8284 4.5 22.5 5.17157 22.5 6V18C22.5 18.8284 21.8284 19.5 21 19.5H13.4392C13.4793 19.255 13.5 19.0046 13.5 18.75C13.5 15.8505 10.8137 13.5 7.5 13.5C4.37053 13.5 1.80065 15.5964 1.52456 18.2718C1.50843 18.1836 1.5 18.0928 1.5 18V6Z" fill="currentColor"/>
</svg>
