<svg width="24" height="24" viewBox="0 0 24 24" fill="none" xmlns="http://www.w3.org/2000/svg">
<g clip-path="url(#clip0_45_402)">
<path fill-rule="evenodd" clip-rule="evenodd" d="M12 0C12.5523 0 13 0.447715 13 1V11H23C23.5523 11 24 11.4477 24 12C24 12.5523 23.5523 13 23 13H13V23C13 23.5523 12.5523 24 12 24C11.4477 24 11 23.5523 11 23V13H1C0.447715 13 0 12.5523 0 12C0 11.4477 0.447715 11 1 11H11V1C11 0.447715 11.4477 0 12 0Z" fill="currentColor"/>
</g>
<defs>
<clipPath id="clip0_45_402">
<rect width="24" height="24" fill="white"/>
</clipPath>
</defs>
</svg>
