<svg width="24" height="24" viewBox="0 0 24 24" fill="none" xmlns="http://www.w3.org/2000/svg">
<path d="M3.75 12C4.16421 12 4.5 11.6642 4.5 11.25C4.5 10.8358 4.16421 10.5 3.75 10.5C3.33579 10.5 3 10.8358 3 11.25C3 11.6642 3.33579 12 3.75 12Z" fill="currentColor"/>
<path d="M7.5 1.5C5.84315 1.5 4.5 2.84315 4.5 4.5V7.5H3C1.34315 7.5 0 8.84315 0 10.5V15C0 16.6569 1.34315 18 3 18H4.5V19.5C4.5 21.1569 5.84315 22.5 7.5 22.5H16.5C18.1569 22.5 19.5 21.1569 19.5 19.5V18H21C22.6569 18 24 16.6569 24 15V10.5C24 8.84315 22.6569 7.5 21 7.5H19.5V4.5C19.5 2.84315 18.1569 1.5 16.5 1.5H7.5ZM6 4.5C6 3.67157 6.67157 3 7.5 3H16.5C17.3284 3 18 3.67157 18 4.5V7.5H6V4.5ZM7.5 12C5.84315 12 4.5 13.3431 4.5 15V16.5H3C2.17157 16.5 1.5 15.8284 1.5 15V10.5C1.5 9.67157 2.17157 9 3 9H21C21.8284 9 22.5 9.67157 22.5 10.5V15C22.5 15.8284 21.8284 16.5 21 16.5H19.5V15C19.5 13.3431 18.1569 12 16.5 12H7.5ZM18 15V19.5C18 20.3284 17.3284 21 16.5 21H7.5C6.67157 21 6 20.3284 6 19.5V15C6 14.1716 6.67157 13.5 7.5 13.5H16.5C17.3284 13.5 18 14.1716 18 15Z" fill="currentColor"/>
</svg>
