<svg width="24" height="24" viewBox="0 0 24 24" fill="none" xmlns="http://www.w3.org/2000/svg">
<path d="M3 3H6V6H3V3Z" fill="currentColor"/>
<path d="M9 0V9H0V0H9ZM7.5 1.5H1.5V7.5H7.5V1.5ZM6 18H3V21H6V18Z" fill="currentColor"/>
<path d="M9 15V24H0V15H9ZM1.5 16.5V22.5H7.5V16.5H1.5ZM18 3H21V6H18V3Z" fill="currentColor"/>
<path d="M15 0V9H24V0H15ZM22.5 1.5V7.5H16.5V1.5H22.5ZM12 1.5V0H13.5V3H12V6H10.5V1.5H12ZM12 9V6H13.5V9H12ZM9 12V10.5H10.5V9H12V12H13.5V10.5H21V12H15V13.5H10.5V12H9ZM9 12V13.5H3V12H1.5V13.5H0V10.5H4.5V12H9ZM24 13.5H22.5V10.5H24V13.5ZM22.5 13.5H21V16.5H24V15H22.5V13.5ZM16.5 13.5H19.5V15H18V16.5H16.5V13.5ZM19.5 18V16.5H18V18H16.5V19.5H13.5V21H18V18H19.5ZM19.5 18H24V19.5H21V21H19.5V18ZM13.5 16.5V18H15V15H10.5V16.5H13.5Z" fill="currentColor"/>
<path d="M10.5 18H12V22.5H18V24H10.5V18ZM24 21V24H19.5V22.5H22.5V21H24Z" fill="currentColor"/>
</svg>
