<svg width="24" height="24" viewBox="0 0 24 24" fill="none" xmlns="http://www.w3.org/2000/svg">
<g>
<path d="M24 12C24 18.6274 18.6274 24 12 24C5.37258 24 0 18.6274 0 12C0 5.37258 5.37258 0 12 0C18.6274 0 24 5.37258 24 12ZM8.2445 9.04907H9.48123C9.68834 9.04907 9.85302 8.88019 9.88084 8.67496C10.0143 7.69077 10.6898 6.97339 11.8938 6.97339C12.9221 6.97339 13.8648 7.48755 13.8648 8.72534C13.8648 9.67749 13.303 10.1155 12.4175 10.782C11.4082 11.5151 10.6084 12.3721 10.6656 13.7622L10.67 14.0874C10.6728 14.2925 10.8399 14.4573 11.045 14.4573H12.2615C12.4686 14.4573 12.6365 14.2894 12.6365 14.0823V13.9241C12.6365 12.8481 13.0459 12.5339 14.1504 11.696C15.0645 11.001 16.0166 10.2297 16.0166 8.61108C16.0166 6.34497 14.1028 5.25 12.0081 5.25C10.1075 5.25 8.02446 6.13592 7.88267 8.67922C7.87128 8.88355 8.03986 9.04907 8.2445 9.04907ZM11.732 18.7134C12.646 18.7134 13.2744 18.123 13.2744 17.3232C13.2744 16.4949 12.646 15.9141 11.732 15.9141C10.856 15.9141 10.218 16.4949 10.218 17.3232C10.218 18.123 10.856 18.7134 11.732 18.7134Z" fill="currentColor"/>
</g>
</svg>
