<svg width="24" height="24" viewBox="0 0 24 24" fill="none" xmlns="http://www.w3.org/2000/svg">
<path d="M9.89661 7.51934C10.036 7.45691 10.1999 7.55852 10.1999 7.72014V9.45006C10.1999 9.86427 10.5357 10.2001 10.9499 10.2001C11.9506 10.2001 13.9694 10.2079 15.9013 11.4334C17.3759 12.3688 18.8861 14.0729 19.7922 17.2475C18.2615 15.7721 16.5143 14.9737 14.9849 14.5492C13.8548 14.2356 12.8385 14.1239 12.1033 14.0903C11.735 14.0735 11.4351 14.0762 11.2242 14.0834C11.1187 14.087 11.0353 14.0917 10.9764 14.0957C10.947 14.0977 10.9237 14.0995 10.9069 14.1009L10.8866 14.1027L10.8801 14.1033L10.8778 14.1035C10.8778 14.1035 10.8761 14.1037 10.9499 14.8501L10.8761 14.1037C10.4924 14.1416 10.1999 14.4644 10.1999 14.8501V16.58C10.1999 16.7416 10.036 16.8432 9.89662 16.7808L3.92132 12.3816C3.90076 12.3664 3.87944 12.3524 3.85744 12.3394C3.7141 12.2549 3.7141 12.0452 3.85744 11.9607C3.87944 11.9477 3.90076 11.9337 3.92132 11.9185L9.89661 7.51934ZM11.6999 15.5787C11.8019 15.5801 11.9139 15.5832 12.0348 15.5887C12.6848 15.6184 13.5857 15.7176 14.5837 15.9946C16.5736 16.5469 18.9291 17.7969 20.4943 20.6143C20.6688 20.9283 21.0414 21.0745 21.3828 20.963C21.7243 20.8515 21.9387 20.5135 21.8941 20.157C21.1984 14.5914 19.0654 11.6642 16.7048 10.1667C14.8357 8.98108 12.9138 8.75388 11.6999 8.71036V7.72014C11.6999 6.377 10.2458 5.57085 9.11291 6.23849C9.09092 6.25146 9.0696 6.26553 9.04904 6.28067L3.05878 10.6909C1.98033 11.3616 1.98033 12.9385 3.05877 13.6092L9.04904 18.0194C9.0696 18.0346 9.09092 18.0487 9.11291 18.0616C10.2458 18.7293 11.6999 17.9231 11.6999 16.58V15.5787Z" fill="currentColor"/>
</svg>
