<svg width="25" height="24" viewBox="0 0 25 24" fill="none" xmlns="http://www.w3.org/2000/svg">
<path d="M12.1466 7.51934C12.286 7.45691 12.4499 7.55852 12.4499 7.72014V9.45006C12.4499 9.86427 12.7857 10.2001 13.1999 10.2001C14.2005 10.2001 16.2194 10.2079 18.1513 11.4334C19.6259 12.3688 21.1361 14.0729 22.0422 17.2475C20.5115 15.7721 18.7643 14.9737 17.2349 14.5492C16.1048 14.2356 15.0885 14.1239 14.3533 14.0903C13.985 14.0735 13.6851 14.0762 13.4742 14.0834C13.3687 14.087 13.2853 14.0917 13.2264 14.0957C13.197 14.0977 13.1737 14.0995 13.1569 14.1009L13.1366 14.1027L13.1301 14.1033L13.1278 14.1035C13.1278 14.1035 13.1261 14.1037 13.1999 14.8501L13.1261 14.1037C12.7424 14.1416 12.4499 14.4644 12.4499 14.8501V16.58C12.4499 16.7416 12.286 16.8432 12.1466 16.7808L6.17131 12.3816C6.15075 12.3664 6.12943 12.3524 6.10743 12.3394C5.9641 12.2549 5.9641 12.0452 6.10743 11.9607C6.12943 11.9477 6.15075 11.9337 6.17131 11.9185L12.1466 7.51934ZM13.9499 15.5787C14.0519 15.5801 14.1639 15.5832 14.2848 15.5887C14.9348 15.6184 15.8357 15.7176 16.8337 15.9946C18.8236 16.5469 21.1791 17.7969 22.7443 20.6143C22.9187 20.9283 23.2913 21.0745 23.6328 20.963C23.9743 20.8515 24.1887 20.5135 24.1441 20.157C23.4484 14.5914 21.3154 11.6642 18.9548 10.1667C17.0857 8.98108 15.1638 8.75388 13.9499 8.71036V7.72014C13.9499 6.377 12.4958 5.57085 11.3629 6.23849C11.3409 6.25146 11.3196 6.26553 11.299 6.28067L5.30877 10.6909C4.23032 11.3616 4.23032 12.9385 5.30876 13.6092L11.299 18.0194C11.3196 18.0346 11.3409 18.0487 11.3629 18.0616C12.4958 18.7293 13.9499 17.9231 13.9499 16.58V15.5787Z" fill="currentColor"/>
<path d="M7.84767 6.43998C7.60209 6.10642 7.1326 6.0351 6.79904 6.28067L0.80878 10.6909C-0.269671 11.3616 -0.269674 12.9385 0.808768 13.6092L6.79904 18.0194C7.1326 18.265 7.60209 18.1937 7.84767 17.8601C8.09325 17.5266 8.02192 17.0571 7.68836 16.8115L1.67132 12.3816C1.65076 12.3665 1.62944 12.3524 1.60744 12.3394C1.4641 12.2549 1.4641 12.0452 1.60744 11.9607C1.62944 11.9477 1.65076 11.9337 1.67132 11.9185L7.68836 7.48861C8.02192 7.24303 8.09325 6.77355 7.84767 6.43998Z" fill="currentColor"/>
</svg>
