<svg width="24" height="24" viewBox="0 0 24 24" fill="none" xmlns="http://www.w3.org/2000/svg">
<g clip-path="url(#clip0_5698_9541)">
<path d="M3 1.5C2.17157 1.5 1.5 2.17157 1.5 3V21C1.5 21.8284 2.17157 22.5 3 22.5H21C21.8284 22.5 22.5 21.8284 22.5 21V3C22.5 2.17157 21.8284 1.5 21 1.5H14.25C13.4216 1.5 12.75 2.17157 12.75 3V13.9393L16.7197 9.96967C17.0126 9.67678 17.4874 9.67678 17.7803 9.96967C18.0732 10.2626 18.0732 10.7374 17.7803 11.0303L12.5303 16.2803C12.2374 16.5732 11.7626 16.5732 11.4697 16.2803L6.21967 11.0303C5.92678 10.7374 5.92678 10.2626 6.21967 9.96967C6.51256 9.67678 6.98744 9.67678 7.28033 9.96967L11.25 13.9393V3C11.25 1.34315 12.5931 0 14.25 0H21C22.6569 0 24 1.34315 24 3V21C24 22.6569 22.6569 24 21 24H3C1.34315 24 0 22.6569 0 21V3C0 1.34315 1.34315 0 3 0H6.75C7.16421 0 7.5 0.335786 7.5 0.75C7.5 1.16421 7.16421 1.5 6.75 1.5H3Z" fill="currentColor"/>
</g>
<defs>
<clipPath id="clip0_5698_9541">
<rect width="24" height="24" fill="white"/>
</clipPath>
</defs>
</svg>
