<svg width="24" height="24" viewBox="0 0 24 24" fill="none" xmlns="http://www.w3.org/2000/svg">
<g clip-path="url(#clip0_985_3913)">
<path d="M23.9464 1.02856C24.0578 0.750002 23.9925 0.431839 23.7803 0.219692C23.5682 0.00754483 23.25 -0.0577607 22.9715 0.0536643L1.1508 8.78193L1.14861 8.78281L0.471467 9.05366C0.210206 9.15817 0.0294217 9.40012 0.00325917 9.68029C-0.0229034 9.96046 0.109958 10.2317 0.347354 10.3828L0.961783 10.7738L0.964629 10.7756L8.45675 15.5433L13.2244 23.0354L13.2267 23.039L13.6173 23.6527C13.7683 23.8901 14.0396 24.0229 14.3197 23.9968C14.5999 23.9706 14.8419 23.7898 14.9464 23.5286L23.9464 1.02856ZM21.1966 3.86405L9.95575 15.1049L9.63276 14.5974C9.57382 14.5048 9.49528 14.4262 9.40267 14.3673L8.89508 14.0443L20.1359 2.80343L21.9037 2.09631L21.1966 3.86405Z" fill="currentColor"/>
</g>
<defs>
<clipPath id="clip0_985_3913">
<rect width="24" height="24" fill="white"/>
</clipPath>
</defs>
</svg>
