<svg width="24" height="24" viewBox="0 0 24 24" fill="none" xmlns="http://www.w3.org/2000/svg">
<path d="M8.00691 2.38626C6.37792 2.82783 4.72821 3.34987 3.75183 3.66847C3.4832 3.75613 3.29456 3.98875 3.25914 4.25458C2.42833 10.4893 4.34795 15.04 6.63846 18.0364C7.78845 19.5409 9.03273 20.6536 10.07 21.3851C10.5891 21.7511 11.048 22.0158 11.4086 22.1855C11.5891 22.2705 11.7367 22.3278 11.8489 22.3625C11.9412 22.3911 11.9887 22.3979 12 22.3995C12.0113 22.3979 12.0588 22.3911 12.1511 22.3625C12.2633 22.3278 12.4109 22.2705 12.5914 22.1855C12.952 22.0158 13.4109 21.7511 13.93 21.3851C14.9673 20.6536 16.2115 19.5409 17.3615 18.0364C19.652 15.04 21.5717 10.4893 20.7409 4.25458C20.7054 3.98875 20.5168 3.75613 20.2482 3.66847C19.2718 3.34987 17.6221 2.82783 15.9931 2.38626C14.3275 1.93478 12.7963 1.6 12 1.6C11.2037 1.6 9.67246 1.93478 8.00691 2.38626ZM7.60749 0.839479C9.23608 0.398015 10.9658 0 12 0C13.0342 0 14.7639 0.398015 16.3925 0.839479C18.0577 1.29085 19.7353 1.82191 20.7221 2.14392C21.5456 2.41265 22.1685 3.14039 22.2882 4.03814C23.1831 10.7541 21.1079 15.7303 18.591 19.023C17.3373 20.6631 15.9746 21.8855 14.8154 22.7031C14.2361 23.1115 13.6993 23.4248 13.2434 23.6394C12.8222 23.8377 12.3716 24 12 24C11.6284 24 11.1778 23.8377 10.7566 23.6394C10.3007 23.4248 9.76386 23.1115 9.18464 22.7031C8.02536 21.8855 6.66274 20.6631 5.409 19.023C2.89206 15.7303 0.816912 10.7541 1.71185 4.03814C1.83148 3.14039 2.45438 2.41265 3.27792 2.14393C4.26474 1.82191 5.94234 1.29085 7.60749 0.839479Z" fill="currentColor"/>
<path d="M12 6.75C12.4142 6.75 12.75 7.08579 12.75 7.5V9.75H15C15.4142 9.75 15.75 10.0858 15.75 10.5C15.75 10.9142 15.4142 11.25 15 11.25H12.75V13.5C12.75 13.9142 12.4142 14.25 12 14.25C11.5858 14.25 11.25 13.9142 11.25 13.5V11.25H9C8.58579 11.25 8.25 10.9142 8.25 10.5C8.25 10.0858 8.58579 9.75 9 9.75H11.25V7.5C11.25 7.08579 11.5858 6.75 12 6.75Z" fill="currentColor"/>
</svg>
