<svg width="24" height="24" viewBox="0 0 24 24" fill="none" xmlns="http://www.w3.org/2000/svg">
<path d="M4.50272 1.5H19.5027V3.25C19.5027 3.66421 19.8385 4 20.2527 4V4C20.6669 4 21.0027 3.66421 21.0027 3.25V1.5C21.0027 0.671573 20.3311 0 19.5027 0H4.50272C3.26666 0 2.56108 1.41115 3.30272 2.4L9.82772 11.1C10.2277 11.6333 10.2277 12.3667 9.82772 12.9L3.30272 21.6C2.56108 22.5889 3.26666 24 4.50272 24H19.5027C20.3311 24 21.0027 23.3284 21.0027 22.5V20.75C21.0027 20.3358 20.6669 20 20.2527 20V20C19.8385 20 19.5027 20.3358 19.5027 20.75V22.5H4.50272L11.0277 13.8C11.8277 12.7333 11.8277 11.2667 11.0277 10.2L4.50272 1.5Z" fill="currentColor"/>
</svg>
