<svg width="24" height="24" viewBox="0 0 24 24" fill="none" xmlns="http://www.w3.org/2000/svg">
<path d="M4.74041 15.1187C3.34295 15.1187 2.56951 14.3804 2.4992 13.4224H3.47918C3.57586 13.9409 4.07244 14.2969 4.81512 14.2969C5.60174 14.2969 6.05877 13.9277 6.05877 13.3652C6.05877 12.9126 5.75555 12.6665 5.10516 12.5083L4.12078 12.2622C3.20672 12.0425 2.65301 11.4976 2.65301 10.645C2.65301 9.58594 3.54949 8.86963 4.81951 8.86963C6.09832 8.86963 6.89813 9.58154 6.97283 10.5H6.00604C5.90936 10.021 5.47869 9.68701 4.81072 9.68701C4.1032 9.68701 3.65496 10.0562 3.65496 10.5879C3.65496 10.979 3.94939 11.2427 4.48553 11.3701L5.46551 11.6118C6.47625 11.8579 7.05633 12.3413 7.05633 13.2773C7.05633 14.3804 6.195 15.1187 4.74041 15.1187Z" fill="currentColor"/>
<path d="M9.88043 9.854V15H8.88287V9.854H7.12945V9.00146H11.6382V9.854H9.88043Z" fill="currentColor"/>
<path fill-rule="evenodd" clip-rule="evenodd" d="M16.5673 11.5942V12.4116C16.5673 14.1079 15.6137 15.1187 14.0756 15.1187C12.5375 15.1187 11.5795 14.1079 11.5795 12.4116V11.5942C11.5795 9.88916 12.5375 8.88281 14.0756 8.88281C15.6137 8.88281 16.5673 9.89355 16.5673 11.5942ZM15.5566 12.416V11.5854C15.5566 10.3462 14.9238 9.73535 14.0756 9.73535C13.2187 9.73535 12.5903 10.3462 12.5903 11.5854V12.416C12.5903 13.6597 13.2187 14.2705 14.0756 14.2705C14.9238 14.2705 15.5566 13.6597 15.5566 12.416Z" fill="currentColor"/>
<path fill-rule="evenodd" clip-rule="evenodd" d="M17.2821 9.00146H19.5848C20.8153 9.00146 21.5579 9.82764 21.5579 10.9395C21.5579 12.0601 20.8065 12.873 19.576 12.873H18.2796V15H17.2821V9.00146ZM19.4354 12.0557C20.1297 12.0557 20.5384 11.647 20.5384 10.9395C20.5384 10.2319 20.1297 9.82764 19.4354 9.82764H18.2752V12.0557H19.4354Z" fill="currentColor"/>
<path fill-rule="evenodd" clip-rule="evenodd" d="M7.3401 0C7.14118 0 6.95042 0.0790176 6.80977 0.21967L0.21967 6.80977C0.0790176 6.95042 0 7.14118 0 7.3401V16.6599C0 16.8588 0.0790176 17.0496 0.21967 17.1902L6.80977 23.7803C6.95042 23.921 7.14118 24 7.3401 24H16.6599C16.8588 24 17.0496 23.921 17.1902 23.7803L23.7803 17.1902C23.921 17.0496 24 16.8588 24 16.6599V7.3401C24 7.14118 23.921 6.95042 23.7803 6.80977L17.1902 0.21967C17.0496 0.0790176 16.8588 0 16.6599 0H7.3401ZM1.5 7.65076L7.65076 1.5H16.3492L22.5 7.65076V16.3492L16.3492 22.5H7.65076L1.5 16.3492V7.65076Z" fill="currentColor"/>
</svg>
