<svg width="24" height="24" viewBox="0 0 24 24" fill="none" xmlns="http://www.w3.org/2000/svg">
<g clip-path="url(#clip0_6848_21205)">
<path d="M4.29929 22.2761C4.18259 22.9413 4.83894 23.462 5.4186 23.1641L12.0024 19.7802L18.5863 23.1641C19.1659 23.462 19.8223 22.9413 19.7056 22.2761L18.461 15.1819L23.7445 10.1469C24.2383 9.67639 23.9827 8.81605 23.3212 8.72208L15.9735 7.67827L12.6973 1.18846C12.4022 0.603848 11.6027 0.603848 11.3076 1.18846L8.03141 7.67827L0.683699 8.72208C0.0222155 8.81605 -0.233385 9.67639 0.260386 10.1469L5.54388 15.1819L4.29929 22.2761ZM11.6562 18.1239L6.12757 20.9655L7.16895 15.0296C7.21804 14.7497 7.12574 14.4632 6.92483 14.2718L2.56457 10.1166L8.64303 9.2531C8.89431 9.2174 9.11371 9.05692 9.23225 8.82211L12.0024 3.33461L14.7726 8.82211C14.8912 9.05692 15.1106 9.2174 15.3619 9.2531L21.4403 10.1166L17.0801 14.2718C16.8791 14.4632 16.7868 14.7497 16.8359 15.0296L17.8773 20.9655L12.3487 18.1239C12.1303 18.0117 11.8746 18.0117 11.6562 18.1239Z" fill="currentColor"/>
</g>
<defs>
<clipPath id="clip0_6848_21205">
<rect width="24" height="24" fill="white"/>
</clipPath>
</defs>
</svg>
