<svg width="24" height="24" viewBox="0 0 24 24" fill="none" xmlns="http://www.w3.org/2000/svg">
<path d="M4.54573 2.47213V9.2233L15.3659 19.5282L22.4546 12.777L11.6345 2.47213H4.54573ZM3 2.47213C3 2.08169 3.16285 1.70725 3.45273 1.43118C3.74262 1.1551 4.13578 1 4.54573 1H11.6345C12.0444 1.00008 12.4375 1.15524 12.7273 1.43133L23.5474 11.7362C23.8372 12.0123 24 12.3867 24 12.777C24 13.1674 23.8372 13.5417 23.5474 13.8178L16.4587 20.569C16.1688 20.845 15.7757 21 15.3659 21C14.956 21 14.5629 20.845 14.273 20.569L3.4529 10.2641C3.163 9.98808 3.00009 9.6137 3 9.2233V2.47213Z" fill="currentColor"/>
<path d="M8.17143 6.6372C7.97441 6.6372 7.78546 6.55577 7.64615 6.41083C7.50684 6.26589 7.42857 6.06931 7.42857 5.86433C7.42857 5.65936 7.50684 5.46277 7.64615 5.31783C7.78546 5.17289 7.97441 5.09147 8.17143 5.09147C8.36845 5.09147 8.55739 5.17289 8.69671 5.31783C8.83602 5.46277 8.91429 5.65936 8.91429 5.86433C8.91429 6.06931 8.83602 6.26589 8.69671 6.41083C8.55739 6.55577 8.36845 6.6372 8.17143 6.6372ZM8.17143 8.18293C8.76248 8.18293 9.32933 7.93865 9.74727 7.50383C10.1652 7.06901 10.4 6.47926 10.4 5.86433C10.4 5.2494 10.1652 4.65966 9.74727 4.22484C9.32933 3.79001 8.76248 3.54573 8.17143 3.54573C7.58037 3.54573 7.01353 3.79001 6.59559 4.22484C6.17765 4.65966 5.94286 5.2494 5.94286 5.86433C5.94286 6.47926 6.17765 7.06901 6.59559 7.50383C7.01353 7.93865 7.58037 8.18293 8.17143 8.18293ZM1.48571 9.8616C1.4858 10.2715 1.64238 10.6646 1.92103 10.9544L13 22.481L12.9361 22.5474C12.6575 22.8372 12.2797 23 11.8857 23C11.4918 23 11.1139 22.8372 10.8353 22.5474L0.435314 11.7273C0.15667 11.4375 8.4147e-05 11.0444 0 10.6345V3.54573C0 3.13578 0.15653 2.74262 0.435156 2.45273C0.713781 2.16285 1.09168 2 1.48571 2V9.8616Z" fill="currentColor"/>
</svg>
