<svg width="24" height="24" viewBox="0 0 24 24" fill="none" xmlns="http://www.w3.org/2000/svg">
<path d="M14.5385 21.2308C14.5385 22.7602 13.2986 24 11.7692 24C10.2398 24 9 22.7602 9 21.2308C9 19.7014 10.2398 18.4615 11.7692 18.4615C13.2986 18.4615 14.5385 19.7014 14.5385 21.2308ZM14.5385 12C14.5385 13.5294 13.2986 14.7692 11.7692 14.7692C10.2398 14.7692 9 13.5294 9 12C9 10.4706 10.2398 9.23077 11.7692 9.23077C13.2986 9.23077 14.5385 10.4706 14.5385 12ZM14.5385 2.76923C14.5385 4.29863 13.2986 5.53846 11.7692 5.53846C10.2398 5.53846 9 4.29863 9 2.76923C9 1.23983 10.2398 0 11.7692 0C13.2986 0 14.5385 1.23983 14.5385 2.76923Z" fill="currentColor"/>
</svg>
