<svg width="24" height="24" viewBox="0 0 24 24" fill="none" xmlns="http://www.w3.org/2000/svg">
<path d="M2.76923 14.5385C1.23983 14.5385 0 13.2986 0 11.7692C0 10.2398 1.23983 9 2.76923 9C4.29863 9 5.53846 10.2398 5.53846 11.7692C5.53846 13.2986 4.29863 14.5385 2.76923 14.5385ZM12 14.5385C10.4706 14.5385 9.23077 13.2986 9.23077 11.7692C9.23077 10.2398 10.4706 9 12 9C13.5294 9 14.7692 10.2398 14.7692 11.7692C14.7692 13.2986 13.5294 14.5385 12 14.5385ZM21.2308 14.5385C19.7014 14.5385 18.4615 13.2986 18.4615 11.7692C18.4615 10.2398 19.7014 9 21.2308 9C22.7602 9 24 10.2398 24 11.7692C24 13.2986 22.7602 14.5385 21.2308 14.5385Z" fill="currentColor"/>
</svg>
