<svg width="24" height="24" viewBox="0 0 24 24" fill="none" xmlns="http://www.w3.org/2000/svg">
<path d="M8.4 8.8C8.84183 8.8 9.2 9.15817 9.2 9.6V19.2C9.2 19.6418 8.84183 20 8.4 20C7.95817 20 7.6 19.6418 7.6 19.2V9.6C7.6 9.15817 7.95817 8.8 8.4 8.8Z" fill="currentColor"/>
<path d="M12.4 8.8C12.8418 8.8 13.2 9.15817 13.2 9.6V19.2C13.2 19.6418 12.8418 20 12.4 20C11.9582 20 11.6 19.6418 11.6 19.2V9.6C11.6 9.15817 11.9582 8.8 12.4 8.8Z" fill="currentColor"/>
<path d="M17.2 9.6C17.2 9.15817 16.8418 8.8 16.4 8.8C15.9582 8.8 15.6 9.15817 15.6 9.6V19.2C15.6 19.6418 15.9582 20 16.4 20C16.8418 20 17.2 19.6418 17.2 19.2V9.6Z" fill="currentColor"/>
<path fill-rule="evenodd" clip-rule="evenodd" d="M22.8 4.8C22.8 5.68366 22.0837 6.4 21.2 6.4H20.4V20.8C20.4 22.5673 18.9673 24 17.2 24H7.6C5.83269 24 4.4 22.5673 4.4 20.8V6.4H3.6C2.71634 6.4 2 5.68366 2 4.8V3.2C2 2.31634 2.71634 1.6 3.6 1.6H9.2C9.2 0.716344 9.91634 0 10.8 0H14C14.8837 0 15.6 0.716344 15.6 1.6H21.2C22.0837 1.6 22.8 2.31634 22.8 3.2V4.8ZM6.18885 6.4L6 6.49443V20.8C6 21.6837 6.71634 22.4 7.6 22.4H17.2C18.0837 22.4 18.8 21.6837 18.8 20.8V6.49443L18.6111 6.4H6.18885ZM3.6 4.8V3.2H21.2V4.8H3.6Z" fill="currentColor"/>
</svg>
