<svg width="24" height="24" viewBox="0 0 24 24" fill="none" xmlns="http://www.w3.org/2000/svg">
<g clip-path="url(#clip0_2449_5167)">
<path fill-rule="evenodd" clip-rule="evenodd" d="M19.5 4.5C19.5 5.32843 18.8284 6 18 6H17.25V8H15.75V6.08853L15.5729 6H3.92705L3.75 6.08853V19.5C3.75 20.3284 4.42157 21 5.25 21H11V22.5H5.25C3.59315 22.5 2.25 21.1569 2.25 19.5V6H1.5C0.671573 6 0 5.32843 0 4.5V3C0 2.17157 0.671573 1.5 1.5 1.5H6.75C6.75 0.671573 7.42157 0 8.25 0H11.25C12.0784 0 12.75 0.671573 12.75 1.5H18C18.8284 1.5 19.5 2.17157 19.5 3V4.5ZM1.5 4.5V3H18V4.5H1.5Z" fill="currentColor"/>
<path d="M6.75 9C6.75 8.58579 6.41421 8.25 6 8.25C5.58579 8.25 5.25 8.58579 5.25 9V18C5.25 18.4142 5.58579 18.75 6 18.75C6.41421 18.75 6.75 18.4142 6.75 18V9Z" fill="currentColor"/>
<path d="M10.5 9C10.5 8.58579 10.1642 8.25 9.75 8.25C9.33579 8.25 9 8.58579 9 9V18C9 18.4142 9.33579 18.75 9.75 18.75C10.1642 18.75 10.5 18.4142 10.5 18V9Z" fill="currentColor"/>
<path d="M18.5392 16.0244V14.0097C20.7516 14.1584 22.5 16 22.5 18.25C22.5 20.5972 20.5972 22.5 18.25 22.5C15.9028 22.5 14 20.5972 14 18.25C14 17.6442 14.1263 17.0698 14.3533 16.5503C14.5191 16.1707 14.3459 15.7286 13.9663 15.5627C13.5868 15.3969 13.1446 15.5702 12.9788 15.9497C12.6706 16.6551 12.5 17.4336 12.5 18.25C12.5 21.4256 15.0744 24 18.25 24C21.4256 24 24 21.4256 24 18.25C24 15.1714 21.5805 12.6578 18.5392 12.5071V10.1257C18.5392 9.80778 18.1684 9.63409 17.9242 9.83763L14.3849 12.787C14.205 12.9369 14.205 13.2132 14.3849 13.3632L17.9242 16.3125C18.1684 16.5161 18.5392 16.3424 18.5392 16.0244Z" fill="currentColor"/>
<path d="M14.25 9C14.25 8.58579 13.9142 8.25 13.5 8.25C13.0858 8.25 12.75 8.58579 12.75 9V10C12.75 10.4142 13.0858 10.75 13.5 10.75C13.9142 10.75 14.25 10.4142 14.25 10V9Z" fill="currentColor"/>
</g>
<defs>
<clipPath id="clip0_2449_5167">
<rect width="24" height="24" fill="white"/>
</clipPath>
</defs>
</svg>
