<svg width="24" height="24" viewBox="0 0 24 24" fill="none" xmlns="http://www.w3.org/2000/svg">
<path d="M3.6 1.6C2.71634 1.6 2 2.31634 2 3.2V4.8C2 5.68366 2.71634 6.4 3.6 6.4H4.4V20.8C4.4 22.5673 5.83269 24 7.6 24H17.2C18.9673 24 20.4 22.5673 20.4 20.8V6.4H21.2C22.0837 6.4 22.8 5.68366 22.8 4.8V3.2C22.8 2.31634 22.0837 1.6 21.2 1.6H15.6C15.6 0.716344 14.8837 0 14 0H10.8C9.91634 0 9.2 0.716344 9.2 1.6H3.6ZM8.4 8C8.84183 8 9.2 8.35817 9.2 8.8V20C9.2 20.4418 8.84183 20.8 8.4 20.8C7.95817 20.8 7.6 20.4418 7.6 20L7.6 8.8C7.6 8.35817 7.95817 8 8.4 8ZM12.4 8C12.8418 8 13.2 8.35817 13.2 8.8V20C13.2 20.4418 12.8418 20.8 12.4 20.8C11.9582 20.8 11.6 20.4418 11.6 20V8.8C11.6 8.35817 11.9582 8 12.4 8ZM17.2 8.8V20C17.2 20.4418 16.8418 20.8 16.4 20.8C15.9582 20.8 15.6 20.4418 15.6 20V8.8C15.6 8.35817 15.9582 8 16.4 8C16.8418 8 17.2 8.35817 17.2 8.8Z" fill="currentColor"/>
</svg>
