<svg width="24" height="24" viewBox="0 0 24 24" fill="none" xmlns="http://www.w3.org/2000/svg">
<path d="M0.75 14.85C1.16421 14.85 1.5 15.1858 1.5 15.6V19.35C1.5 20.1785 2.17157 20.85 3 20.85H21C21.8284 20.85 22.5 20.1785 22.5 19.35V15.6C22.5 15.1858 22.8358 14.85 23.25 14.85C23.6642 14.85 24 15.1858 24 15.6V19.35C24 21.0069 22.6569 22.35 21 22.35H3C1.34315 22.35 0 21.0069 0 19.35V15.6C0 15.1858 0.335786 14.85 0.75 14.85Z" fill="currentColor"/>
<path d="M11.4697 1.71967C11.7626 1.42678 12.2374 1.42678 12.5303 1.71967L17.0303 6.21967C17.3232 6.51256 17.3232 6.98744 17.0303 7.28033C16.7374 7.57322 16.2626 7.57322 15.9697 7.28033L12.75 4.06066V17.25C12.75 17.6642 12.4142 18 12 18C11.5858 18 11.25 17.6642 11.25 17.25V4.06066L8.03033 7.28033C7.73744 7.57322 7.26256 7.57322 6.96967 7.28033C6.67678 6.98744 6.67678 6.51256 6.96967 6.21967L11.4697 1.71967Z" fill="currentColor"/>
</svg>
