<svg width="24" height="24" viewBox="0 0 24 24" fill="none" xmlns="http://www.w3.org/2000/svg">
<g clip-path="url(#clip0_45_311)">
<path d="M0.292894 1.70711C-0.0976312 1.31658 -0.0976312 0.683417 0.292894 0.292893C0.683418 -0.0976311 1.31658 -0.0976311 1.70711 0.292893L12 10.5858L22.2929 0.292893C22.6834 -0.0976311 23.3166 -0.0976311 23.7071 0.292893C24.0976 0.683417 24.0976 1.31658 23.7071 1.70711L13.4142 12L23.7071 22.2929C24.0976 22.6834 24.0976 23.3166 23.7071 23.7071C23.3166 24.0976 22.6834 24.0976 22.2929 23.7071L12 13.4142L1.70711 23.7071C1.31658 24.0976 0.683419 24.0976 0.292894 23.7071C-0.0976299 23.3166 -0.0976299 22.6834 0.292894 22.2929L10.5858 12L0.292894 1.70711Z" fill="currentColor"/>
</g>
<defs>
<clipPath id="clip0_45_311">
<rect width="24" height="24" fill="white"/>
</clipPath>
</defs>
</svg>
