<svg width="24" height="24" viewBox="0 0 24 24" fill="none" xmlns="http://www.w3.org/2000/svg">
<g clip-path="url(#clip0_116_636)">
<path d="M12.0767 2.99805C12.0853 2.99806 12.0945 2.99809 12.1043 2.99811L12.2105 2.99844C13.4432 3.00297 19.6909 3.04826 21.3754 3.50112C22.408 3.77809 23.2212 4.59432 23.4971 5.63042C23.6491 6.19966 23.755 6.95626 23.8288 7.73439L23.8431 7.89026C23.8547 8.0203 23.8655 8.15064 23.8754 8.2805L23.8869 8.43605C23.9855 9.80721 23.997 11.0903 23.9984 11.371L23.9985 11.4089C23.9985 11.412 23.9985 11.4171 23.9985 11.4171V11.4383C23.9985 11.4383 23.9985 11.4434 23.9985 11.4465L23.9984 11.4844C23.997 11.7757 23.9846 13.1466 23.8754 14.575L23.8631 14.731L23.85 14.8872C23.7757 15.7461 23.6643 16.5989 23.4971 17.225C23.2212 18.2611 22.408 19.0775 21.3754 19.3543C19.6347 19.8224 13.0216 19.8552 12.1043 19.8575L12.0337 19.8577C12.0279 19.8577 12.0228 19.8577 12.0184 19.8577L11.9896 19.8577C11.9896 19.8577 11.983 19.8577 11.9786 19.8577L11.8927 19.8575C11.4291 19.8564 9.51085 19.8474 7.50194 19.7784L7.2451 19.7693C7.20225 19.7677 7.15938 19.7661 7.11651 19.7645L6.85937 19.7543L6.60282 19.7434C4.93856 19.6704 3.35178 19.5506 2.62184 19.3543C1.5892 19.0775 0.776057 18.2611 0.500069 17.225C0.33287 16.5989 0.221403 15.7461 0.147092 14.8872L0.133987 14.731L0.121675 14.575C0.016355 13.1985 0.00106667 11.8755 -0.0011526 11.5204L-0.0014178 11.4696C-0.00143641 11.465 -0.00145192 11.4608 -0.00146484 11.4569V11.3985C-0.00145192 11.3946 -0.00143641 11.3904 -0.0014178 11.3859L-0.0011526 11.335C0.000857307 11.0134 0.0135868 9.898 0.0942065 8.66787L0.104642 8.51356C0.106441 8.48776 0.108271 8.46192 0.110132 8.43605L0.121675 8.2805C0.131611 8.15064 0.142348 8.0203 0.153951 7.89026L0.168294 7.73439C0.24213 6.95626 0.34807 6.19966 0.500069 5.63042C0.776057 4.59432 1.5892 3.77809 2.62184 3.50112C3.35178 3.30488 4.93856 3.18517 6.60282 3.11215L6.85937 3.10128L7.11651 3.09112C7.15938 3.08949 7.20225 3.08788 7.2451 3.0863L7.50194 3.07717C9.38262 3.01261 11.1839 3.00066 11.7865 2.99844L11.8927 2.99811C11.9026 2.99809 11.9118 2.99806 11.9203 2.99805H12.0767ZM9.59858 7.81484V15.0406L15.8337 11.4279L9.59858 7.81484Z" fill="currentColor"/>
</g>
<defs>
<clipPath id="clip0_116_636">
<rect width="24" height="24" fill="white"/>
</clipPath>
</defs>
</svg>
