<svg width="48" height="48" viewBox="0 0 48 48" fill="none" xmlns="http://www.w3.org/2000/svg">
<path fill-rule="evenodd" clip-rule="evenodd" d="M24 8.00085C25.1804 8.00085 26.2414 7.48955 26.9736 6.67633L35.8491 15.5518C36.0085 15.7112 36.2247 15.8008 36.4501 15.8008C37.2074 15.8008 37.5866 14.8852 37.0512 14.3498L27.8368 5.13541C27.943 4.77573 28 4.39495 28 4.00085C28 1.79172 26.2091 0.000854492 24 0.000854492C21.7909 0.000854492 20 1.79172 20 4.00085C20 4.39495 20.057 4.77573 20.1632 5.13541L10.9488 14.3498C10.4134 14.8852 10.7926 15.8008 11.5499 15.8008C11.7753 15.8008 11.9915 15.7112 12.1509 15.5518L21.0264 6.67633C21.7586 7.48955 22.8196 8.00085 24 8.00085ZM24 6.30085C25.2703 6.30085 26.3 5.27111 26.3 4.00085C26.3 2.7306 25.2703 1.70085 24 1.70085C22.7297 1.70085 21.7 2.7306 21.7 4.00085C21.7 5.27111 22.7297 6.30085 24 6.30085Z" fill="currentColor"/>
<path d="M15.4844 39.0009V37.5009H10.2344L12.6953 34.7899C13.0391 34.4357 13.3542 34.0868 13.6406 33.743C13.9271 33.3941 14.1745 33.0477 14.3828 32.704C14.5964 32.355 14.7604 32.0061 14.875 31.6571C14.9896 31.3081 15.0469 30.9566 15.0469 30.6024C15.0469 29.9618 14.9062 29.4071 14.625 28.9384C14.349 28.4696 13.9453 28.1076 13.4141 27.8524C12.8828 27.5972 12.237 27.4696 11.4766 27.4696C10.6693 27.4696 9.97917 27.6337 9.40625 27.9618C8.83333 28.2847 8.39583 28.7222 8.09375 29.2743C7.79167 29.8212 7.64062 30.4253 7.64062 31.0868H9.52344C9.52344 30.6753 9.59635 30.3108 9.74219 29.993C9.88802 29.6701 10.1042 29.4175 10.3906 29.2352C10.6771 29.0529 11.0312 28.9618 11.4531 28.9618C11.8177 28.9618 12.1276 29.0425 12.3828 29.204C12.638 29.3602 12.8307 29.5764 12.9609 29.8524C13.0964 30.1233 13.1641 30.4384 13.1641 30.7977C13.1641 31.0529 13.1146 31.316 13.0156 31.5868C12.9219 31.8524 12.7578 32.1519 12.5234 32.4852C12.2891 32.8186 11.9688 33.2144 11.5625 33.6727L7.85938 37.7118V39.0009H15.4844Z" fill="currentColor"/>
<path fill-rule="evenodd" clip-rule="evenodd" d="M24.7891 34.9462V36.4462H23.3672V39.0009H21.4844V36.4462H16.5859L16.5234 35.3134L21.4297 27.6259H23.3672V34.9462H24.7891ZM21.3047 30.4227L21.4844 30.1149V34.9462H18.4844L21.3047 30.4227Z" fill="currentColor"/>
<path d="M31.1016 27.6259L26.6719 39.9774H25.1953L29.6328 27.6259H31.1016Z" fill="currentColor"/>
<path d="M39.8516 27.6259V28.6571L35.3047 39.0009H33.3203L37.8594 29.1259H31.9688V27.6259H39.8516Z" fill="currentColor"/>
<path d="M4.79997 24.0009C5.33016 24.0009 5.75997 23.5711 5.75997 23.0409C5.75997 22.5107 5.33016 22.0809 4.79997 22.0809C4.26977 22.0809 3.83997 22.5107 3.83997 23.0409C3.83997 23.5711 4.26977 24.0009 4.79997 24.0009Z" fill="currentColor"/>
<path d="M5.75997 43.2009C5.75997 43.7311 5.33016 44.1609 4.79997 44.1609C4.26977 44.1609 3.83997 43.7311 3.83997 43.2009C3.83997 42.6707 4.26977 42.2409 4.79997 42.2409C5.33016 42.2409 5.75997 42.6707 5.75997 43.2009Z" fill="currentColor"/>
<path d="M44.16 23.0409C44.16 23.5711 43.7302 24.0009 43.2 24.0009C42.6698 24.0009 42.24 23.5711 42.24 23.0409C42.24 22.5107 42.6698 22.0809 43.2 22.0809C43.7302 22.0809 44.16 22.5107 44.16 23.0409Z" fill="currentColor"/>
<path d="M44.16 43.2009C44.16 43.7311 43.7302 44.1609 43.2 44.1609C42.6698 44.1609 42.24 43.7311 42.24 43.2009C42.24 42.6707 42.6698 42.2409 43.2 42.2409C43.7302 42.2409 44.16 42.6707 44.16 43.2009Z" fill="currentColor"/>
<path fill-rule="evenodd" clip-rule="evenodd" d="M4 18.0009C1.79086 18.0009 0 19.7917 0 22.0009V44.0009C0 46.21 1.79086 48.0009 4 48.0009H44C46.2091 48.0009 48 46.21 48 44.0009V22.0009C48 19.7917 46.2091 18.0009 44 18.0009H4ZM44 19.5009H4C2.61929 19.5009 1.5 20.6201 1.5 22.0009V44.0009C1.5 45.3816 2.61929 46.5009 4 46.5009H44C45.3807 46.5009 46.5 45.3816 46.5 44.0009V22.0009C46.5 20.6201 45.3807 19.5009 44 19.5009Z" fill="currentColor"/>
</svg>
