<svg width="48" height="48" viewBox="0 0 48 48" fill="none" xmlns="http://www.w3.org/2000/svg">
<path fill-rule="evenodd" clip-rule="evenodd" d="M34 10.0009H30V4.00085C30 1.79172 28.2091 0.000854492 26 0.000854492H6C3.79086 0.000854492 2 1.79172 2 4.00085V24.0009C2 26.21 3.79086 28.0009 6 28.0009H10V34.0009C10 36.21 11.7909 38.0009 14 38.0009H18V44.0009C18 46.21 19.7909 48.0009 22 48.0009H42C44.2091 48.0009 46 46.21 46 44.0009V24.0009C46 21.7917 44.2091 20.0009 42 20.0009H38V14.0009C38 11.7917 36.2091 10.0009 34 10.0009ZM6 1.50085H26C27.3807 1.50085 28.5 2.62014 28.5 4.00085V10.0009H14C11.7909 10.0009 10 11.7917 10 14.0009V26.5009H6C4.61929 26.5009 3.5 25.3816 3.5 24.0009V4.00085C3.5 2.62014 4.61929 1.50085 6 1.50085ZM36.5 20.0009V14.0009C36.5 12.6201 35.3807 11.5009 34 11.5009H14C12.6193 11.5009 11.5 12.6201 11.5 14.0009V34.0009C11.5 35.3816 12.6193 36.5009 14 36.5009H18V24.0009C18 21.7917 19.7909 20.0009 22 20.0009H36.5ZM22 21.5009H42C43.3807 21.5009 44.5 22.6201 44.5 24.0009V44.0009C44.5 45.3816 43.3807 46.5009 42 46.5009H22C20.6193 46.5009 19.5 45.3816 19.5 44.0009V24.0009C19.5 22.6201 20.6193 21.5009 22 21.5009Z" fill="currentColor"/>
</svg>
