<svg width="48" height="48" viewBox="0 0 48 48" fill="none" xmlns="http://www.w3.org/2000/svg">
<g clip-path="url(#clip0_985_3772)">
<path fill-rule="evenodd" clip-rule="evenodd" d="M24.2456 5.62363C24.2456 7.11488 23.6532 8.54506 22.5987 9.59953C21.5442 10.654 20.114 11.2464 18.6228 11.2464C17.1315 11.2464 15.7013 10.654 14.6469 9.59953C13.5924 8.54506 13 7.11488 13 5.62363C13 4.13238 13.5924 2.7022 14.6469 1.64773C15.7013 0.593252 17.1315 0.000854492 18.6228 0.000854492C20.114 0.000854492 21.5442 0.593252 22.5987 1.64773C23.6532 2.7022 24.2456 4.13238 24.2456 5.62363ZM22.7456 5.62363C22.7456 6.71706 22.3112 7.7657 21.538 8.53887C20.7648 9.31204 19.7162 9.74641 18.6228 9.74641C17.5293 9.74641 16.4807 9.31204 15.7075 8.53887C14.9344 7.7657 14.5 6.71706 14.5 5.62363C14.5 4.5302 14.9344 3.48156 15.7075 2.70839C16.4807 1.93522 17.5293 1.50085 18.6228 1.50085C19.7162 1.50085 20.7648 1.93522 21.538 2.70839C22.3112 3.48156 22.7456 4.5302 22.7456 5.62363Z" fill="currentColor"/>
<path d="M26.25 31.0009C26.25 30.5866 26.5858 30.2509 27 30.2509H38C38.4142 30.2509 38.75 30.5866 38.75 31.0009C38.75 31.4151 38.4142 31.7509 38 31.7509H27C26.5858 31.7509 26.25 31.4151 26.25 31.0009Z" fill="currentColor"/>
<path fill-rule="evenodd" clip-rule="evenodd" d="M9.42055 32.7237C9.92606 32.7681 10.4362 32.7095 10.9199 32.5504C10.9199 34.4974 10.9201 36.4442 10.9202 38.3912C10.9204 40.3382 10.9206 42.2853 10.9206 44.2326C10.9193 45.1982 11.2906 46.127 11.9573 46.8256C12.6239 47.5241 13.5344 47.9384 14.499 47.9823C15.4636 48.0261 16.4078 47.696 17.1351 47.0608C17.4014 46.8281 17.6311 46.5611 17.8195 46.2689C18.1374 45.7759 18.3377 45.211 18.3982 44.6181L18.4014 44.5857L18.4026 44.5725L18.6658 33.9871L18.9303 44.5725L18.9315 44.5857L18.9347 44.6202C18.9932 45.2129 19.1914 45.7781 19.5072 46.272C19.6957 46.5667 19.9261 46.836 20.1936 47.0707C20.9215 47.709 21.8681 48.041 22.8352 47.9971C23.8024 47.9531 24.715 47.5367 25.382 46.835C25.6514 46.5516 25.8723 46.2306 26.0396 45.8848C26.3472 45.9606 26.6689 46.0009 27 46.0009V47.0009C27 47.5531 27.4478 48.0009 28 48.0009C28.5522 48.0009 29 47.5531 29 47.0009V46.0009H36V47.0009C36 47.5531 36.4478 48.0009 37 48.0009C37.5522 48.0009 38 47.5531 38 47.0009V46.0009C40.2092 46.0009 42 44.2101 42 42.0009V28.0009C42 25.7916 40.2092 24.0009 38 24.0009H35.5V21.7509H37C37.4143 21.7509 37.75 21.4152 37.75 21.0009C37.75 20.5865 37.4143 20.2509 37 20.2509H30.9873C30.7429 19.0712 30.3745 17.956 29.8373 16.9563C29.1875 15.748 28.2554 14.6435 26.9597 13.86C25.6602 13.0729 24.2207 12.7455 22.7701 12.7455H14.6403C13.1909 12.7455 11.7502 13.0729 10.452 13.86C9.15625 14.6435 8.22412 15.7468 7.57438 16.9563C6.34361 19.2429 6 22.1368 6 25.0231V28.9891C5.99992 29.5819 6.14044 30.1663 6.41002 30.6942C6.67961 31.2222 7.07057 31.6787 7.55081 32.0263C8.03105 32.3738 8.58688 32.6025 9.17266 32.6936C9.25507 32.7064 9.33775 32.7164 9.42055 32.7237ZM29.4521 20.2509C29.2352 19.3078 28.9306 18.438 28.5162 17.6667C27.9694 16.65 27.2096 15.764 26.1836 15.1437L26.1825 15.143C25.1542 14.5201 23.9932 14.2455 22.7701 14.2455H14.6403C13.4182 14.2455 12.2563 14.5202 11.2297 15.1427L11.2281 15.1437C10.2016 15.7643 9.44215 16.6491 8.89578 17.6662L8.8952 17.6673C7.84347 19.6212 7.5 22.211 7.5 25.0231V28.9891C7.49995 29.3447 7.58424 29.6954 7.74595 30.0121C7.90766 30.3288 8.14217 30.6026 8.43024 30.8111C8.71831 31.0196 9.05172 31.1568 9.40309 31.2114C9.75447 31.266 10.1138 31.2365 10.4516 31.1254C10.6046 31.075 10.9199 31.0009 10.9199 31.0009V22.5009C10.9199 22.0866 11.2557 21.7509 11.6699 21.7509C12.0841 21.7509 12.4199 22.0866 12.4199 22.5009C12.4199 26.1234 12.4201 29.7457 12.4202 33.3679C12.4204 36.9901 12.4206 40.6122 12.4206 44.2346C12.4198 44.8138 12.6425 45.371 13.0424 45.79C13.4423 46.209 13.9884 46.4575 14.567 46.4838C15.1456 46.5101 15.7121 46.3121 16.1483 45.931C16.5739 45.5593 16.8435 45.0413 16.9044 44.4806L17.1663 33.9498C17.1865 33.1362 17.8519 32.4871 18.6658 32.4871C19.4796 32.487 20.145 33.136 20.1654 33.9496L20.4286 44.4839C20.4869 45.0474 20.7559 45.5687 21.1826 45.9429C21.6192 46.3258 22.187 46.5249 22.7672 46.4986C23.3473 46.4723 23.8948 46.2225 24.2949 45.8016C24.4497 45.6386 24.5779 45.455 24.6766 45.2573C23.6616 44.5319 23 43.3437 23 42.0009V28.0009C23 26.5577 23.7641 25.2931 24.9099 24.5896V22.5009C24.9099 22.0866 25.2457 21.7509 25.6599 21.7509C26.0741 21.7509 26.4099 22.0866 26.4099 22.5009V24.0441C26.6025 24.0156 26.7995 24.0009 27 24.0009H29.5V21.7509H28C27.5857 21.7509 27.25 21.4152 27.25 21.0009C27.25 20.9117 27.2656 20.8263 27.2939 20.7472C27.3296 20.6481 27.3855 20.5585 27.4568 20.4838C27.5935 20.3402 27.7861 20.2509 28 20.2509H29.4521ZM34 21.7509V24.0009H31V21.7509H34ZM38 25.5009H27C25.6194 25.5009 24.5 26.6202 24.5 28.0009V42.0009C24.5 43.3815 25.6194 44.5009 27 44.5009H38C39.3806 44.5009 40.5 43.3815 40.5 42.0009V28.0009C40.5 26.6202 39.3806 25.5009 38 25.5009Z" fill="currentColor"/>
</g>
<defs>
<clipPath id="clip0_985_3772">
<rect width="48" height="48" fill="white" transform="translate(0 0.000854492)"/>
</clipPath>
</defs>
</svg>
