<svg width="48" height="48" viewBox="0 0 48 48" fill="none" xmlns="http://www.w3.org/2000/svg">
<path fill-rule="evenodd" clip-rule="evenodd" d="M42.7916 39.9999C43.9192 39.9999 44.8333 39.1393 44.8333 38.0776V37.4778C44.8333 36.9628 44.6138 36.4693 44.2241 36.108L42.7752 34.7648C40.8265 32.9581 39.7291 30.4908 39.7291 27.9157V20.1109C39.7291 12.7763 35.6458 6.86136 28.2448 5.20517V3.54898C28.2448 1.65619 26.4583 0 24.4166 0C22.375 0 20.5885 1.65619 20.5885 3.54898V5.20517C13.1875 6.86136 9.10416 12.7763 9.10416 20.1109V27.9157C9.10416 30.4908 8.0068 32.9581 6.05804 34.7648L4.60922 36.108C4.21947 36.4693 4 36.9628 4 37.4778V38.0776C4 39.1393 4.91408 39.9999 6.04166 39.9999H42.7916ZM26.5093 3.54898V6.56061L27.8583 6.86247C34.3551 8.31631 37.9937 13.4477 37.9937 20.1109V27.9157C37.9937 30.9687 39.2954 33.8793 41.5824 35.9995L43.0312 37.3427C43.0827 37.3905 43.0979 37.4407 43.0979 37.4778V38.0776C43.0979 38.1169 43.0837 38.1632 43.0327 38.2113C42.9805 38.2604 42.8988 38.2999 42.7916 38.2999H6.04166C5.93452 38.2999 5.85282 38.2604 5.80059 38.2113C5.74957 38.1632 5.73541 38.1169 5.73541 38.0776V37.4778C5.73541 37.4407 5.75057 37.3905 5.8021 37.3427L7.25092 35.9995C9.5379 33.8793 10.8396 30.9687 10.8396 27.9157V20.1109C10.8396 13.4477 14.4782 8.31631 20.975 6.86247L22.3239 6.56061V3.54898C22.3239 2.68211 23.2421 1.7 24.4166 1.7C25.5912 1.7 26.5093 2.68211 26.5093 3.54898Z" fill="currentColor"/>
<path d="M24.4166 48C27.2239 48 29.5208 45.7846 29.5208 43.0769H19.3125C19.3125 45.7846 21.6094 48 24.4166 48Z" fill="currentColor"/>
</svg>
