<svg width="48" height="48" viewBox="0 0 48 48" fill="none" xmlns="http://www.w3.org/2000/svg">
<g clip-path="url(#clip0_3795_10867)">
<path d="M9 6.75085C9 7.16507 9.33579 7.50085 9.75 7.50085H18.25C18.6642 7.50085 19 7.16507 19 6.75085C19 6.33664 18.6642 6.00085 18.25 6.00085H9.75C9.33579 6.00085 9 6.33664 9 6.75085Z" fill="currentColor"/>
<path d="M19 10.7509C19 11.1651 18.6642 11.5009 18.25 11.5009H9.75C9.33579 11.5009 9 11.1651 9 10.7509C9 10.3366 9.33579 10.0009 9.75 10.0009H18.25C18.6642 10.0009 19 10.3366 19 10.7509Z" fill="currentColor"/>
<path d="M9.75 15.5009C9.33579 15.5009 9 15.1651 9 14.7509C9 14.3366 9.33579 14.0009 9.75 14.0009H15.25C15.6642 14.0009 16 14.3366 16 14.7509C16 15.1651 15.6642 15.5009 15.25 15.5009H9.75Z" fill="currentColor"/>
<path fill-rule="evenodd" clip-rule="evenodd" d="M34 11.5009C34 14.5384 31.5376 17.0009 28.5 17.0009C25.4624 17.0009 23 14.5384 23 11.5009C23 8.46329 25.4624 6.00085 28.5 6.00085C31.5376 6.00085 34 8.46329 34 11.5009ZM32.5 11.5009C32.5 13.71 30.7091 15.5009 28.5 15.5009C26.2909 15.5009 24.5 13.71 24.5 11.5009C24.5 9.29172 26.2909 7.50086 28.5 7.50086C30.7091 7.50086 32.5 9.29172 32.5 11.5009Z" fill="currentColor"/>
<path fill-rule="evenodd" clip-rule="evenodd" d="M39 0.000854492C40.1046 0.000854492 41 0.896285 41 2.00085V16.0009H43C44.1046 16.0009 45 16.8963 45 18.0009V30.0009H45.6391C46.875 30.0009 47.815 31.1106 47.6119 32.3297L45.2785 46.3297C45.1178 47.294 44.2834 48.0009 43.3057 48.0009H2C0.895431 48.0009 0 47.1054 0 46.0009V18.0009C0 16.8963 0.89543 16.0009 2 16.0009H5V2.00085C5 0.896285 5.89543 0.000854492 7 0.000854492H39ZM17.0788 27.9931C16.7204 27.3787 16.0626 27.0009 15.3513 27.0009H6.5V2.00085C6.5 1.72471 6.72386 1.50085 7 1.50085H39C39.2761 1.50085 39.5 1.72471 39.5 2.00085V30.0009H37V26.5009C37 21.8064 33.1944 18.0009 28.5 18.0009C23.8056 18.0009 20 21.8064 20 26.5009V30.0009H18.25L17.0788 27.9931ZM35.5 26.5009V30.0009H21.5V26.5009C21.5 23.1025 23.9216 20.2698 27.1333 19.6342L28 20.5009L26.5 26.5009L28.5 29.5009L30.5 26.5009L29 20.5009L29.8667 19.6342C33.0784 20.2698 35.5 23.1025 35.5 26.5009ZM43.5 30.0009H41V17.5009H43C43.2761 17.5009 43.5 17.7247 43.5 18.0009V30.0009ZM1.5 18.0009C1.5 17.7247 1.72386 17.5009 2 17.5009H5V27.0009H4.73459C3.73929 27.0009 2.89545 27.7327 2.75469 28.718L1.5 37.5009V18.0009ZM17.3884 31.5009H45.6391C45.948 31.5009 46.1831 31.7783 46.1323 32.0831L43.7989 46.0831C43.7588 46.3241 43.5502 46.5009 43.3057 46.5009H2.30602C2.00174 46.5009 1.76801 46.2314 1.81104 45.9301L4.23962 28.9301C4.27481 28.6838 4.48577 28.5009 4.73459 28.5009H15.3513C15.5291 28.5009 15.6935 28.5953 15.7831 28.7489L17.3884 31.5009Z" fill="currentColor"/>
</g>
<defs>
<clipPath id="clip0_3795_10867">
<rect width="48" height="48" fill="white" transform="translate(0 0.000854492)"/>
</clipPath>
</defs>
</svg>
