<svg width="48" height="48" viewBox="0 0 48 48" fill="none" xmlns="http://www.w3.org/2000/svg">
<path fill-rule="evenodd" clip-rule="evenodd" d="M10.25 7.75085V10H4C1.79086 10 0 11.7909 0 14V41C0 43.2091 1.79086 45 4 45H44C46.2091 45 48 43.2091 48 41V14C48 11.7909 46.2091 10 44 10H37.75V7.75085C37.75 5.1275 35.6234 3.00085 33 3.00085H15C12.3766 3.00085 10.25 5.1275 10.25 7.75085ZM15 4.50085C13.2051 4.50085 11.75 5.95593 11.75 7.75085V10H36.25V7.75085C36.25 5.95593 34.7949 4.50085 33 4.50085H15ZM4 11.5H44C45.3807 11.5 46.5 12.6193 46.5 14V22.7999L40 23.5065V20.75C40 20.3358 39.6642 20 39.25 20C38.8358 20 38.5 20.3358 38.5 20.75V23.6695L24 25.2456L9.5 23.6695V20.75C9.5 20.3358 9.16421 20 8.75 20C8.33579 20 8 20.3358 8 20.75V23.5065L1.5 22.7999V14C1.5 12.6193 2.61929 11.5 4 11.5ZM8 25.0153L1.5 24.3088V41C1.5 42.3807 2.61929 43.5 4 43.5H44C45.3807 43.5 46.5 42.3807 46.5 41V24.3088L40 25.0153V28.25C40 28.6642 39.6642 29 39.25 29C38.8358 29 38.5 28.6642 38.5 28.25V25.1783L24 26.7544L9.5 25.1783V28.25C9.5 28.6642 9.16421 29 8.75 29C8.33579 29 8 28.6642 8 28.25V25.0153Z" fill="currentColor"/>
</svg>
