<svg width="48" height="48" viewBox="0 0 48 48" fill="none" xmlns="http://www.w3.org/2000/svg">
<g clip-path="url(#clip0_6035_10599)">
<path d="M22 32.7509C22 32.3366 22.3358 32.0009 22.75 32.0009H24.25C24.6642 32.0009 25 32.3366 25 32.7509C25 33.1651 24.6642 33.5009 24.25 33.5009H22.75C22.3358 33.5009 22 33.1651 22 32.7509Z" fill="currentColor"/>
<path d="M24.75 27.0009C24.3358 27.0009 24 27.3366 24 27.7509C24 28.1651 24.3358 28.5009 24.75 28.5009H26.25C26.6642 28.5009 27 28.1651 27 27.7509C27 27.3366 26.6642 27.0009 26.25 27.0009H24.75Z" fill="currentColor"/>
<path d="M20.75 20.0009C20.3358 20.0009 20 20.3366 20 20.7509C20 21.1651 20.3358 21.5009 20.75 21.5009H22.25C22.6642 21.5009 23 21.1651 23 20.7509C23 20.3366 22.6642 20.0009 22.25 20.0009H20.75Z" fill="currentColor"/>
<path d="M25 11.7509C25 11.3366 25.3358 11.0009 25.75 11.0009H27.25C27.6642 11.0009 28 11.3366 28 11.7509C28 12.1651 27.6642 12.5009 27.25 12.5009H25.75C25.3358 12.5009 25 12.1651 25 11.7509Z" fill="currentColor"/>
<path fill-rule="evenodd" clip-rule="evenodd" d="M30 46.5009V36.0009H32C35.5452 36.0009 38.5518 33.6948 39.6016 30.5009H40.25C40.6642 30.5009 41 30.1651 41 29.7509C41 29.3366 40.6642 29.0009 40.25 29.0009H39.9381C39.979 28.6733 40 28.3395 40 28.0009V24.5009H40.25C40.6642 24.5009 41 24.1651 41 23.7509C41 23.3366 40.6642 23.0009 40.25 23.0009H40V19.5009H40.25C40.6642 19.5009 41 19.1651 41 18.7509C41 18.3366 40.6642 18.0009 40.25 18.0009H40V15.0009C40 13.344 38.6569 12.0009 37 12.0009C35.3431 12.0009 34 13.344 34 15.0009V16.0009H33.75C33.3358 16.0009 33 16.3366 33 16.7509C33 17.1651 33.3358 17.5009 33.75 17.5009H34V25.0009H33.75C33.3358 25.0009 33 25.3366 33 25.7509C33 26.1651 33.3358 26.5009 33.75 26.5009H34V28.0009C34 29.1054 33.1046 30.0009 32 30.0009H30V21.5009H30.25C30.6642 21.5009 31 21.1651 31 20.7509C31 20.3366 30.6642 20.0009 30.25 20.0009H30V6.50085H30.25C30.6642 6.50085 31 6.16507 31 5.75085C31 5.33664 30.6642 5.00085 30.25 5.00085H29.8261C29.1489 2.13415 26.5736 0.000854492 23.5 0.000854492C20.0784 0.000854492 17.2743 2.64463 17.0189 6.00085H16.75C16.3358 6.00085 16 6.33664 16 6.75085C16 7.16507 16.3358 7.50085 16.75 7.50085H17V12.0009H16.75C16.3358 12.0009 16 12.3366 16 12.7509C16 13.1651 16.3358 13.5009 16.75 13.5009H17V24.0009C15.8954 24.0009 15 23.1054 15 22.0009V18.5009H15.25C15.6642 18.5009 16 18.1651 16 17.7509C16 17.3366 15.6642 17.0009 15.25 17.0009H15V11.5009C15 9.56786 13.433 8.00085 11.5 8.00085C9.567 8.00085 8 9.56786 8 11.5009V12.0009H7.75C7.33579 12.0009 7 12.3366 7 12.7509C7 13.1651 7.33579 13.5009 7.75 13.5009H8V20.0009H6.75C6.33579 20.0009 6 20.3366 6 20.7509C6 21.1651 6.33579 21.5009 6.75 21.5009H8V23.0009C8 27.4191 11.5817 31.0009 16 31.0009H17V46.5009H2.75C2.33579 46.5009 2 46.8366 2 47.2509C2 47.6651 2.33579 48.0009 2.75 48.0009H45.25C45.6642 48.0009 46 47.6651 46 47.2509C46 46.8366 45.6642 46.5009 45.25 46.5009H30ZM35.5 26.4582V28.0009C35.5 29.9339 33.933 31.5009 32 31.5009H30V34.5009H32C34.7039 34.5009 37.0223 32.8498 38.0018 30.5009H37.75C37.3358 30.5009 37 30.1651 37 29.7509C37 29.3366 37.3358 29.0009 37.75 29.0009H38.4236C38.4739 28.6749 38.5 28.3409 38.5 28.0009V24.5009H37.75C37.3358 24.5009 37 24.1651 37 23.7509C37 23.3366 37.3358 23.0009 37.75 23.0009H38.5V19.4582C38.2087 19.3552 38 19.0774 38 18.7509C38 18.4243 38.2087 18.1465 38.5 18.0435V15.0009C38.5 14.1724 37.8284 13.5009 37 13.5009C36.1716 13.5009 35.5 14.1724 35.5 15.0009V16.0009H36.25C36.6642 16.0009 37 16.3366 37 16.7509C37 17.1651 36.6642 17.5009 36.25 17.5009H35.5V25.0435C35.7913 25.1465 36 25.4243 36 25.7509C36 26.0774 35.7913 26.3552 35.5 26.4582ZM10.25 21.5009H9.5V23.0009C9.5 26.5907 12.4101 29.5009 16 29.5009H17V25.5009C15.067 25.5009 13.5 23.9339 13.5 22.0009V18.5009H12.75C12.3358 18.5009 12 18.1651 12 17.7509C12 17.3366 12.3358 17.0009 12.75 17.0009H13.5V11.5009C13.5 10.3963 12.6046 9.50085 11.5 9.50085C10.3954 9.50085 9.5 10.3963 9.5 11.5009V12.0435C9.7913 12.1465 10 12.4243 10 12.7509C10 13.0774 9.7913 13.3552 9.5 13.4582V20.0009H10.25C10.6642 20.0009 11 20.3366 11 20.7509C11 21.1651 10.6642 21.5009 10.25 21.5009ZM18.5 13.5009V46.5009H28.5V21.5009H27.75C27.3358 21.5009 27 21.1651 27 20.7509C27 20.3366 27.3358 20.0009 27.75 20.0009H28.5V6.50085H27.75C27.3358 6.50085 27 6.16507 27 5.75085C27 5.33664 27.3358 5.00085 27.75 5.00085H28.2711C27.634 2.9723 25.7388 1.50085 23.5 1.50085C20.8902 1.50085 18.7475 3.50031 18.52 6.05091C18.8008 6.1593 19 6.43181 19 6.75085C19 7.07741 18.7913 7.35522 18.5 7.45818V12.0009H19.25C19.6642 12.0009 20 12.3366 20 12.7509C20 13.1651 19.6642 13.5009 19.25 13.5009H18.5Z" fill="currentColor"/>
</g>
<defs>
<clipPath id="clip0_6035_10599">
<rect width="48" height="48" fill="white" transform="translate(0 0.000854492)"/>
</clipPath>
</defs>
</svg>
