<svg width="48" height="48" viewBox="0 0 48 48" fill="none" xmlns="http://www.w3.org/2000/svg">
<path fill-rule="evenodd" clip-rule="evenodd" d="M40 16.251C38.4812 16.251 37.25 17.4822 37.25 19.0009C37.25 20.5197 38.4812 21.7509 40 21.7509C41.5188 21.7509 42.75 20.5197 42.75 19.0009C42.75 17.4822 41.5188 16.251 40 16.251ZM38.75 19.0009C38.75 18.3106 39.3096 17.751 40 17.751C40.6904 17.751 41.25 18.3106 41.25 19.0009C41.25 19.6913 40.6904 20.2509 40 20.2509C39.3096 20.2509 38.75 19.6913 38.75 19.0009Z" fill="currentColor"/>
<path d="M24 19.751C20.5482 19.751 17.75 22.5492 17.75 26.0009H16.25C16.25 21.7208 19.7198 18.251 24 18.251V19.751Z" fill="currentColor"/>
<path fill-rule="evenodd" clip-rule="evenodd" d="M16.5936 6.25098C15.9532 6.25098 15.364 6.60078 15.0573 7.16299L12.6258 11.6207C12.582 11.701 12.4979 11.751 12.4064 11.751H5C2.37665 11.751 0.25 13.8777 0.25 16.501V37.001C0.25 39.6243 2.37665 41.751 5 41.751H43C45.6234 41.751 47.75 39.6243 47.75 37.001V16.501C47.75 13.8777 45.6234 11.751 43 11.751H35.5936C35.5021 11.751 35.418 11.701 35.3742 11.6207L32.9427 7.16299C32.636 6.60078 32.0468 6.25098 31.4064 6.25098H16.5936ZM16.3742 7.88126C16.418 7.80095 16.5021 7.75098 16.5936 7.75098H31.4064C31.4979 7.75098 31.582 7.80095 31.6258 7.88126L34.0573 12.339C34.364 12.9012 34.9532 13.251 35.5936 13.251H43C44.7949 13.251 46.25 14.7061 46.25 16.501V32.251H32.7474C34.008 30.4898 34.75 28.332 34.75 26.0009C34.75 20.0639 29.9371 15.251 24 15.251C18.0629 15.251 13.25 20.0639 13.25 26.0009C13.25 28.332 13.992 30.4898 15.2526 32.251H1.75V16.501C1.75 14.7061 3.20508 13.251 5 13.251H12.4064C13.0468 13.251 13.636 12.9012 13.9427 12.339L16.3742 7.88126ZM31.4498 33.751C29.5176 35.6088 26.8922 36.7509 24 36.7509C21.1078 36.7509 18.4824 35.6088 16.5502 33.751H1.75V37.001C1.75 38.7959 3.20507 40.251 5 40.251H43C44.7949 40.251 46.25 38.7959 46.25 37.001V33.751H31.4498ZM14.75 26.0009C14.75 20.8923 18.8914 16.751 24 16.751C29.1086 16.751 33.25 20.8923 33.25 26.0009C33.25 31.1096 29.1086 35.2509 24 35.2509C18.8914 35.2509 14.75 31.1096 14.75 26.0009Z" fill="currentColor"/>
</svg>
