<svg width="48" height="48" viewBox="0 0 48 48" fill="none" xmlns="http://www.w3.org/2000/svg">
<path fill-rule="evenodd" clip-rule="evenodd" d="M13 27C13 29.2091 11.2091 31 9 31C6.79086 31 5 29.2091 5 27C5 24.7909 6.79086 23 9 23C11.2091 23 13 24.7909 13 27ZM11.5 27C11.5 28.3807 10.3807 29.5 9 29.5C7.61929 29.5 6.5 28.3807 6.5 27C6.5 25.6193 7.61929 24.5 9 24.5C10.3807 24.5 11.5 25.6193 11.5 27Z" fill="currentColor"/>
<path fill-rule="evenodd" clip-rule="evenodd" d="M39 31C41.2091 31 43 29.2091 43 27C43 24.7909 41.2091 23 39 23C36.7909 23 35 24.7909 35 27C35 29.2091 36.7909 31 39 31ZM39 29.5C40.3807 29.5 41.5 28.3807 41.5 27C41.5 25.6193 40.3807 24.5 39 24.5C37.6193 24.5 36.5 25.6193 36.5 27C36.5 28.3807 37.6193 29.5 39 29.5Z" fill="currentColor"/>
<path fill-rule="evenodd" clip-rule="evenodd" d="M13.4342 6C11.055 6 8.92154 7.46527 8.06746 9.68587L6.31203 14.25H3.25C1.45507 14.25 0 15.7051 0 17.5C0 19.141 1.21623 20.498 2.79647 20.7186C1.68772 21.8073 1 23.3233 1 25V29.9534C1 32.0456 2.07927 33.9204 3.75 34.9978V39.25C3.75 40.7688 4.98122 42 6.5 42H9C10.5188 42 11.75 40.7688 11.75 39.25V36.7458C19.8857 37.75 28.1143 37.75 36.25 36.7458V39.25C36.25 40.7688 37.4812 42 39 42H41.5C43.0188 42 44.25 40.7688 44.25 39.25V34.9978C45.9207 33.9204 47 32.0456 47 29.9534V25C47 23.3233 46.3123 21.8073 45.2035 20.7186C46.7838 20.498 48 19.141 48 17.5C48 15.7051 46.5449 14.25 44.75 14.25H41.6884L39.9329 9.68587C39.0789 7.46527 36.9454 6 34.5662 6H13.4342ZM42.2653 15.75L43.6115 19.25H44.75C45.7165 19.25 46.5 18.4665 46.5 17.5C46.5 16.5335 45.7165 15.75 44.75 15.75H42.2653ZM3.25 15.75H5.7351L4.38895 19.25H3.25C2.2835 19.25 1.5 18.4665 1.5 17.5C1.5 16.5335 2.2835 15.75 3.25 15.75ZM41.9361 19.0726L38.5329 10.2243C37.9016 8.58302 36.3247 7.5 34.5662 7.5H13.4342C11.6757 7.5 10.0988 8.58303 9.46748 10.2243L6.06433 19.0725C6.36922 19.0248 6.68171 19 7 19H41C41.3184 19 41.6311 19.0248 41.9361 19.0726ZM7 20.5H41C43.4853 20.5 45.5 22.5147 45.5 25V29.9534C45.5 32.1412 43.9265 34.012 41.771 34.3869L40.8771 34.5423C29.7095 36.4845 18.2905 36.4845 7.1229 34.5423L6.22897 34.3869C4.07352 34.012 2.5 32.1412 2.5 29.9534V25C2.5 22.5147 4.51472 20.5 7 20.5ZM37.75 36.5492V39.25C37.75 39.9404 38.3096 40.5 39 40.5H41.5C42.1904 40.5 42.75 39.9404 42.75 39.25V35.6929C42.5156 35.7642 42.2747 35.8218 42.028 35.8647L41.1341 36.0202C40.0084 36.2159 38.8802 36.3923 37.75 36.5492ZM6.86589 36.0202C7.99157 36.2159 9.11978 36.3923 10.25 36.5492V39.25C10.25 39.9404 9.69036 40.5 9 40.5H6.5C5.80964 40.5 5.25 39.9404 5.25 39.25V35.6929C5.48438 35.7642 5.72531 35.8218 5.97196 35.8647L6.86589 36.0202Z" fill="currentColor"/>
</svg>
