<svg width="48" height="48" viewBox="0 0 48 48" fill="none" xmlns="http://www.w3.org/2000/svg">
<path fill-rule="evenodd" clip-rule="evenodd" d="M24 8.00085C25.1804 8.00085 26.2414 7.48955 26.9736 6.67633L36.098 15.8008H38.5022L27.8368 5.13541C27.943 4.77573 28 4.39495 28 4.00085C28 1.79172 26.2091 0.000854492 24 0.000854492C21.7909 0.000854492 20 1.79172 20 4.00085C20 4.39495 20.057 4.77573 20.1632 5.13541L9.4978 15.8008H11.902L21.0264 6.67633C21.7586 7.48955 22.8196 8.00085 24 8.00085ZM24 6.30085C25.2703 6.30085 26.3 5.27111 26.3 4.00085C26.3 2.7306 25.2703 1.70085 24 1.70085C22.7297 1.70085 21.7 2.7306 21.7 4.00085C21.7 5.27111 22.7297 6.30085 24 6.30085Z" fill="currentColor"/>
<path d="M4.79997 24.0009C5.33016 24.0009 5.75997 23.5711 5.75997 23.0409C5.75997 22.5107 5.33016 22.0809 4.79997 22.0809C4.26977 22.0809 3.83997 22.5107 3.83997 23.0409C3.83997 23.5711 4.26977 24.0009 4.79997 24.0009Z" fill="currentColor"/>
<path d="M5.75997 43.2009C5.75997 43.7311 5.33016 44.1609 4.79997 44.1609C4.26977 44.1609 3.83997 43.7311 3.83997 43.2009C3.83997 42.6707 4.26977 42.2409 4.79997 42.2409C5.33016 42.2409 5.75997 42.6707 5.75997 43.2009Z" fill="currentColor"/>
<path d="M44.16 23.0409C44.16 23.5711 43.7302 24.0009 43.2 24.0009C42.6698 24.0009 42.24 23.5711 42.24 23.0409C42.24 22.5107 42.6698 22.0809 43.2 22.0809C43.7302 22.0809 44.16 22.5107 44.16 23.0409Z" fill="currentColor"/>
<path d="M44.16 43.2009C44.16 43.7311 43.7302 44.1609 43.2 44.1609C42.6698 44.1609 42.24 43.7311 42.24 43.2009C42.24 42.6707 42.6698 42.2409 43.2 42.2409C43.7302 42.2409 44.16 42.6707 44.16 43.2009Z" fill="currentColor"/>
<path fill-rule="evenodd" clip-rule="evenodd" d="M4 18.0009C1.79086 18.0009 0 19.7917 0 22.0009V44.0009C0 46.21 1.79086 48.0009 4 48.0009H44C46.2091 48.0009 48 46.21 48 44.0009V22.0009C48 19.7917 46.2091 18.0009 44 18.0009H4ZM44 19.5009H4C2.61929 19.5009 1.5 20.6201 1.5 22.0009V44.0009C1.5 45.3816 2.61929 46.5009 4 46.5009H44C45.3807 46.5009 46.5 45.3816 46.5 44.0009V22.0009C46.5 20.6201 45.3807 19.5009 44 19.5009Z" fill="currentColor"/>
<path d="M27.9455 32.3933V34.2278C27.9455 35.1066 27.8581 35.8568 27.6834 36.4786C27.5138 37.0953 27.2672 37.5963 26.9434 37.9817C26.6197 38.3671 26.2317 38.6497 25.7795 38.8296C25.3324 39.0094 24.8314 39.0994 24.2764 39.0994C23.8345 39.0994 23.4234 39.0429 23.0431 38.9298C22.668 38.8167 22.3288 38.6395 22.0256 38.3979C21.7224 38.1564 21.4629 37.8455 21.2471 37.4652C21.0364 37.0798 20.872 36.6199 20.7538 36.0855C20.6407 35.5511 20.5842 34.9318 20.5842 34.2278V32.3933C20.5842 31.5094 20.6715 30.7643 20.8463 30.1579C21.021 29.5464 21.2702 29.0505 21.594 28.6702C21.9177 28.2848 22.3031 28.0048 22.7502 27.8301C23.2024 27.6553 23.706 27.568 24.261 27.568C24.708 27.568 25.1191 27.6245 25.4943 27.7376C25.8745 27.8455 26.2137 28.0176 26.5118 28.254C26.8149 28.4904 27.0719 28.7987 27.2826 29.179C27.4984 29.5541 27.6628 30.0089 27.7759 30.5433C27.8889 31.0726 27.9455 31.6893 27.9455 32.3933ZM26.0878 34.4899V32.1158C26.0878 31.6687 26.0621 31.2756 26.0107 30.9364C25.9593 30.5921 25.8823 30.3018 25.7795 30.0654C25.6818 29.8239 25.5585 29.6286 25.4095 29.4796C25.2605 29.3254 25.0909 29.215 24.9007 29.1481C24.7106 29.0762 24.4974 29.0402 24.261 29.0402C23.9732 29.0402 23.7163 29.0968 23.4902 29.2098C23.2641 29.3177 23.0739 29.4924 22.9198 29.734C22.7656 29.9755 22.6474 30.2941 22.5652 30.6898C22.4881 31.0803 22.4496 31.5557 22.4496 32.1158V34.4899C22.4496 34.9421 22.4753 35.3404 22.5266 35.6847C22.578 36.029 22.6551 36.3244 22.7579 36.5711C22.8607 36.8126 22.984 37.013 23.1279 37.1723C23.2769 37.3265 23.4465 37.4396 23.6366 37.5115C23.8319 37.5834 24.0451 37.6194 24.2764 37.6194C24.5693 37.6194 24.8288 37.5629 25.0549 37.4498C25.281 37.3368 25.4712 37.1569 25.6253 36.9103C25.7795 36.6585 25.8951 36.3321 25.9722 35.9313C26.0493 35.5305 26.0878 35.05 26.0878 34.4899Z" fill="currentColor"/>
<path fill-rule="evenodd" clip-rule="evenodd" d="M18.758 34.9447V36.4246H17.3551V38.9452H15.4974V36.4246H10.6644L10.6027 35.307L15.4435 27.7221H17.3551V34.9447H18.758ZM12.5375 34.9447L15.4803 30.2274V34.9447H12.5375Z" fill="currentColor"/>
<path fill-rule="evenodd" clip-rule="evenodd" d="M37.6243 35.0526V36.5326H36.2214V39.0531H34.3638V36.5326H29.5307L29.4691 35.4149L34.3098 27.8301H36.2214V35.0526H37.6243ZM31.4038 35.0526L34.3466 30.3353V35.0526H31.4038Z" fill="currentColor"/>
</svg>
