<svg width="48" height="48" viewBox="0 0 48 48" fill="none" xmlns="http://www.w3.org/2000/svg">
<path fill-rule="evenodd" clip-rule="evenodd" d="M24 8.00085C25.1804 8.00085 26.2414 7.48955 26.9736 6.67633L36.098 15.8008H38.5022L27.8368 5.13541C27.943 4.77573 28 4.39495 28 4.00085C28 1.79172 26.2091 0.000854492 24 0.000854492C21.7909 0.000854492 20 1.79172 20 4.00085C20 4.39495 20.057 4.77573 20.1632 5.13541L9.4978 15.8008H11.902L21.0264 6.67633C21.7586 7.48955 22.8196 8.00085 24 8.00085ZM24 6.30085C25.2703 6.30085 26.3 5.27111 26.3 4.00085C26.3 2.7306 25.2703 1.70085 24 1.70085C22.7297 1.70085 21.7 2.7306 21.7 4.00085C21.7 5.27111 22.7297 6.30085 24 6.30085Z" fill="currentColor"/>
<path d="M4.79997 24.0009C5.33016 24.0009 5.75997 23.5711 5.75997 23.0409C5.75997 22.5107 5.33016 22.0809 4.79997 22.0809C4.26977 22.0809 3.83997 22.5107 3.83997 23.0409C3.83997 23.5711 4.26977 24.0009 4.79997 24.0009Z" fill="currentColor"/>
<path d="M5.75997 43.2009C5.75997 43.7311 5.33016 44.1609 4.79997 44.1609C4.26977 44.1609 3.83997 43.7311 3.83997 43.2009C3.83997 42.6707 4.26977 42.2409 4.79997 42.2409C5.33016 42.2409 5.75997 42.6707 5.75997 43.2009Z" fill="currentColor"/>
<path d="M44.16 23.0409C44.16 23.5711 43.7302 24.0009 43.2 24.0009C42.6698 24.0009 42.24 23.5711 42.24 23.0409C42.24 22.5107 42.6698 22.0809 43.2 22.0809C43.7302 22.0809 44.16 22.5107 44.16 23.0409Z" fill="currentColor"/>
<path d="M44.16 43.2009C44.16 43.7311 43.7302 44.1609 43.2 44.1609C42.6698 44.1609 42.24 43.7311 42.24 43.2009C42.24 42.6707 42.6698 42.2409 43.2 42.2409C43.7302 42.2409 44.16 42.6707 44.16 43.2009Z" fill="currentColor"/>
<path fill-rule="evenodd" clip-rule="evenodd" d="M4 18.0009C1.79086 18.0009 0 19.7917 0 22.0009V44.0009C0 46.21 1.79086 48.0009 4 48.0009H44C46.2091 48.0009 48 46.21 48 44.0009V22.0009C48 19.7917 46.2091 18.0009 44 18.0009H4ZM44 19.5009H4C2.61929 19.5009 1.5 20.6201 1.5 22.0009V44.0009C1.5 45.3816 2.61929 46.5009 4 46.5009H44C45.3807 46.5009 46.5 45.3816 46.5 44.0009V22.0009C46.5 20.6201 45.3807 19.5009 44 19.5009Z" fill="currentColor"/>
<path d="M12.6575 34.6693L11.1775 34.307L11.7865 28.6646H17.8374V30.2371H13.3281L13.0198 32.9889C13.1945 32.8861 13.436 32.7859 13.7443 32.6883C14.0527 32.5855 14.4047 32.5341 14.8003 32.5341C15.3296 32.5341 15.8024 32.6215 16.2186 32.7962C16.64 32.9658 16.9972 33.215 17.2901 33.5439C17.583 33.8676 17.8065 34.2633 17.9607 34.7309C18.1149 35.1934 18.1919 35.715 18.1919 36.2957C18.1919 36.8147 18.1149 37.3003 17.9607 37.7525C17.8117 38.2047 17.5856 38.603 17.2824 38.9473C16.9792 39.2916 16.5963 39.5614 16.1339 39.7566C15.6765 39.9468 15.1344 40.0418 14.5074 40.0418C14.0398 40.0418 13.5902 39.975 13.1585 39.8414C12.732 39.7027 12.3492 39.4997 12.01 39.2325C11.6708 38.9601 11.3985 38.6261 11.1929 38.2304C10.9874 37.8296 10.8692 37.3697 10.8384 36.8507H12.6575C12.7037 37.2155 12.8039 37.5264 12.9581 37.7834C13.1174 38.0352 13.3281 38.2279 13.5902 38.3615C13.8522 38.4951 14.1554 38.5619 14.4997 38.5619C14.8132 38.5619 15.083 38.5079 15.3091 38.4C15.5352 38.287 15.7228 38.1277 15.8718 37.9221C16.0259 37.7114 16.139 37.4647 16.2109 37.1821C16.288 36.8995 16.3266 36.586 16.3266 36.2417C16.3266 35.9128 16.2829 35.6122 16.1955 35.3399C16.1133 35.0675 15.9874 34.8311 15.8178 34.6307C15.6534 34.4303 15.4453 34.2761 15.1935 34.1682C14.9417 34.0552 14.6513 33.9986 14.3224 33.9986C13.8805 33.9986 13.5413 34.0629 13.305 34.1914C13.0737 34.3198 12.8579 34.4791 12.6575 34.6693Z" fill="currentColor"/>
<path d="M27.6261 33.3357V35.1703C27.6261 36.049 27.5387 36.7993 27.364 37.4211C27.1944 38.0377 26.9478 38.5388 26.624 38.9242C26.3003 39.3096 25.9123 39.5922 25.4601 39.7721C25.013 39.9519 24.512 40.0418 23.957 40.0418C23.5151 40.0418 23.104 39.9853 22.7237 39.8723C22.3486 39.7592 22.0094 39.5819 21.7062 39.3404C21.403 39.0989 21.1435 38.788 20.9277 38.4077C20.717 38.0223 20.5526 37.5624 20.4344 37.028C20.3213 36.4935 20.2648 35.8743 20.2648 35.1703V33.3357C20.2648 32.4519 20.3522 31.7068 20.5269 31.1004C20.7016 30.4889 20.9508 29.993 21.2746 29.6127C21.5983 29.2273 21.9837 28.9472 22.4308 28.7725C22.883 28.5978 23.3866 28.5104 23.9416 28.5104C24.3887 28.5104 24.7998 28.567 25.1749 28.68C25.5552 28.7879 25.8943 28.9601 26.1924 29.1965C26.4956 29.4329 26.7525 29.7412 26.9632 30.1214C27.179 30.4966 27.3435 30.9514 27.4565 31.4858C27.5696 32.0151 27.6261 32.6317 27.6261 33.3357ZM25.7684 35.4324V33.0583C25.7684 32.6112 25.7427 32.2181 25.6914 31.8789C25.64 31.5346 25.5629 31.2443 25.4601 31.0079C25.3625 30.7664 25.2391 30.5711 25.0901 30.4221C24.9411 30.2679 24.7715 30.1574 24.5814 30.0906C24.3912 30.0187 24.178 29.9827 23.9416 29.9827C23.6538 29.9827 23.3969 30.0392 23.1708 30.1523C22.9447 30.2602 22.7545 30.4349 22.6004 30.6764C22.4462 30.918 22.328 31.2366 22.2458 31.6322C22.1687 32.0228 22.1302 32.4981 22.1302 33.0583V35.4324C22.1302 35.8846 22.1559 36.2828 22.2073 36.6271C22.2587 36.9714 22.3357 37.2669 22.4385 37.5136C22.5413 37.7551 22.6646 37.9555 22.8085 38.1148C22.9575 38.269 23.1271 38.382 23.3172 38.454C23.5125 38.5259 23.7258 38.5619 23.957 38.5619C24.2499 38.5619 24.5094 38.5053 24.7355 38.3923C24.9616 38.2792 25.1518 38.0994 25.3059 37.8527C25.4601 37.6009 25.5757 37.2746 25.6528 36.8738C25.7299 36.473 25.7684 35.9925 25.7684 35.4324Z" fill="currentColor"/>
<path d="M37.2298 33.3357V35.1703C37.2298 36.049 37.1425 36.7993 36.9678 37.4211C36.7982 38.0377 36.5515 38.5388 36.2278 38.9242C35.904 39.3096 35.5161 39.5922 35.0639 39.7721C34.6168 39.9519 34.1157 40.0418 33.5608 40.0418C33.1188 40.0418 32.7077 39.9853 32.3275 39.8723C31.9523 39.7592 31.6132 39.5819 31.31 39.3404C31.0068 39.0989 30.7473 38.788 30.5315 38.4077C30.3208 38.0223 30.1563 37.5624 30.0381 37.028C29.9251 36.4935 29.8686 35.8743 29.8686 35.1703V33.3357C29.8686 32.4519 29.9559 31.7068 30.1306 31.1004C30.3054 30.4889 30.5546 29.993 30.8783 29.6127C31.2021 29.2273 31.5875 28.9472 32.0345 28.7725C32.4868 28.5978 32.9904 28.5104 33.5453 28.5104C33.9924 28.5104 34.4035 28.567 34.7787 28.68C35.1589 28.7879 35.4981 28.9601 35.7961 29.1965C36.0993 29.4329 36.3563 29.7412 36.5669 30.1214C36.7828 30.4966 36.9472 30.9514 37.0603 31.4858C37.1733 32.0151 37.2298 32.6317 37.2298 33.3357ZM35.3722 35.4324V33.0583C35.3722 32.6112 35.3465 32.2181 35.2951 31.8789C35.2437 31.5346 35.1666 31.2443 35.0639 31.0079C34.9662 30.7664 34.8429 30.5711 34.6939 30.4221C34.5448 30.2679 34.3753 30.1574 34.1851 30.0906C33.995 30.0187 33.7817 29.9827 33.5453 29.9827C33.2576 29.9827 33.0006 30.0392 32.7745 30.1523C32.5484 30.2602 32.3583 30.4349 32.2041 30.6764C32.05 30.918 31.9318 31.2366 31.8496 31.6322C31.7725 32.0228 31.7339 32.4981 31.7339 33.0583V35.4324C31.7339 35.8846 31.7596 36.2828 31.811 36.6271C31.8624 36.9714 31.9395 37.2669 32.0423 37.5136C32.145 37.7551 32.2684 37.9555 32.4122 38.1148C32.5613 38.269 32.7309 38.382 32.921 38.454C33.1163 38.5259 33.3295 38.5619 33.5608 38.5619C33.8537 38.5619 34.1132 38.5053 34.3393 38.3923C34.5654 38.2792 34.7555 38.0994 34.9097 37.8527C35.0639 37.6009 35.1795 37.2746 35.2566 36.8738C35.3336 36.473 35.3722 35.9925 35.3722 35.4324Z" fill="currentColor"/>
</svg>
