<svg width="48" height="48" viewBox="0 0 48 48" fill="none" xmlns="http://www.w3.org/2000/svg">
<path fill-rule="evenodd" clip-rule="evenodd" d="M24 8.00085C25.1804 8.00085 26.2414 7.48955 26.9736 6.67633L36.098 15.8008H38.5022L27.8368 5.13541C27.943 4.77573 28 4.39495 28 4.00085C28 1.79172 26.2091 0.000854492 24 0.000854492C21.7909 0.000854492 20 1.79172 20 4.00085C20 4.39495 20.057 4.77573 20.1632 5.13541L9.4978 15.8008H11.902L21.0264 6.67633C21.7586 7.48955 22.8196 8.00085 24 8.00085ZM24 6.30085C25.2703 6.30085 26.3 5.27111 26.3 4.00085C26.3 2.7306 25.2703 1.70085 24 1.70085C22.7297 1.70085 21.7 2.7306 21.7 4.00085C21.7 5.27111 22.7297 6.30085 24 6.30085Z" fill="currentColor"/>
<path d="M4.79997 24.0009C5.33016 24.0009 5.75997 23.5711 5.75997 23.0409C5.75997 22.5107 5.33016 22.0809 4.79997 22.0809C4.26977 22.0809 3.83997 22.5107 3.83997 23.0409C3.83997 23.5711 4.26977 24.0009 4.79997 24.0009Z" fill="currentColor"/>
<path d="M5.75997 43.2009C5.75997 43.7311 5.33016 44.1609 4.79997 44.1609C4.26977 44.1609 3.83997 43.7311 3.83997 43.2009C3.83997 42.6707 4.26977 42.2409 4.79997 42.2409C5.33016 42.2409 5.75997 42.6707 5.75997 43.2009Z" fill="currentColor"/>
<path d="M44.16 23.0409C44.16 23.5711 43.7302 24.0009 43.2 24.0009C42.6698 24.0009 42.24 23.5711 42.24 23.0409C42.24 22.5107 42.6698 22.0809 43.2 22.0809C43.7302 22.0809 44.16 22.5107 44.16 23.0409Z" fill="currentColor"/>
<path d="M44.16 43.2009C44.16 43.7311 43.7302 44.1609 43.2 44.1609C42.6698 44.1609 42.24 43.7311 42.24 43.2009C42.24 42.6707 42.6698 42.2409 43.2 42.2409C43.7302 42.2409 44.16 42.6707 44.16 43.2009Z" fill="currentColor"/>
<path fill-rule="evenodd" clip-rule="evenodd" d="M4 18.0009C1.79086 18.0009 0 19.7917 0 22.0009V44.0009C0 46.21 1.79086 48.0009 4 48.0009H44C46.2091 48.0009 48 46.21 48 44.0009V22.0009C48 19.7917 46.2091 18.0009 44 18.0009H4ZM44 19.5009H4C2.61929 19.5009 1.5 20.6201 1.5 22.0009V44.0009C1.5 45.3816 2.61929 46.5009 4 46.5009H44C45.3807 46.5009 46.5 45.3816 46.5 44.0009V22.0009C46.5 20.6201 45.3807 19.5009 44 19.5009Z" fill="currentColor"/>
<path d="M27.7905 32.3933V34.2278C27.7905 35.1066 27.7032 35.8568 27.5285 36.4786C27.3589 37.0953 27.1122 37.5963 26.7885 37.9817C26.4647 38.3671 26.0768 38.6497 25.6246 38.8296C25.1775 39.0094 24.6764 39.0994 24.1215 39.0994C23.6795 39.0994 23.2684 39.0429 22.8882 38.9298C22.513 38.8167 22.1739 38.6395 21.8707 38.3979C21.5675 38.1564 21.308 37.8455 21.0922 37.4652C20.8815 37.0798 20.717 36.6199 20.5988 36.0855C20.4858 35.5511 20.4293 34.9318 20.4293 34.2278V32.3933C20.4293 31.5094 20.5166 30.7643 20.6913 30.1579C20.8661 29.5464 21.1153 29.0505 21.439 28.6702C21.7628 28.2848 22.1482 28.0048 22.5952 27.8301C23.0475 27.6553 23.5511 27.568 24.106 27.568C24.5531 27.568 24.9642 27.6245 25.3393 27.7376C25.7196 27.8455 26.0588 28.0176 26.3568 28.254C26.66 28.4904 26.917 28.7987 27.1276 29.179C27.3435 29.5541 27.5079 30.0089 27.621 30.5433C27.734 31.0726 27.7905 31.6893 27.7905 32.3933ZM25.9329 34.4899V32.1158C25.9329 31.6687 25.9072 31.2756 25.8558 30.9364C25.8044 30.5921 25.7273 30.3018 25.6246 30.0654C25.5269 29.8239 25.4036 29.6286 25.2546 29.4796C25.1055 29.3254 24.936 29.215 24.7458 29.1481C24.5557 29.0762 24.3424 29.0402 24.106 29.0402C23.8183 29.0402 23.5613 29.0968 23.3352 29.2098C23.1091 29.3177 22.919 29.4924 22.7648 29.734C22.6107 29.9755 22.4925 30.2941 22.4103 30.6898C22.3332 31.0803 22.2946 31.5557 22.2946 32.1158V34.4899C22.2946 34.9421 22.3203 35.3404 22.3717 35.6847C22.4231 36.029 22.5002 36.3244 22.603 36.5711C22.7057 36.8126 22.8291 37.013 22.9729 37.1723C23.122 37.3265 23.2916 37.4396 23.4817 37.5115C23.677 37.5834 23.8902 37.6194 24.1215 37.6194C24.4144 37.6194 24.6739 37.5629 24.9 37.4498C25.1261 37.3368 25.3162 37.1569 25.4704 36.9103C25.6246 36.6585 25.7402 36.3321 25.8173 35.9313C25.8943 35.5305 25.9329 35.05 25.9329 34.4899Z" fill="currentColor"/>
<path d="M37.3943 32.3933V34.2278C37.3943 35.1066 37.3069 35.8568 37.1322 36.4786C36.9626 37.0953 36.716 37.5963 36.3922 37.9817C36.0685 38.3671 35.6805 38.6497 35.2283 38.8296C34.7812 39.0094 34.2802 39.0994 33.7252 39.0994C33.2833 39.0994 32.8722 39.0429 32.4919 38.9298C32.1168 38.8167 31.7776 38.6395 31.4744 38.3979C31.1712 38.1564 30.9117 37.8455 30.6959 37.4652C30.4852 37.0798 30.3208 36.6199 30.2026 36.0855C30.0895 35.5511 30.033 34.9318 30.033 34.2278V32.3933C30.033 31.5094 30.1204 30.7643 30.2951 30.1579C30.4698 29.5464 30.719 29.0505 31.0428 28.6702C31.3665 28.2848 31.7519 28.0048 32.199 27.8301C32.6512 27.6553 33.1548 27.568 33.7098 27.568C34.1569 27.568 34.568 27.6245 34.9431 27.7376C35.3234 27.8455 35.6625 28.0176 35.9606 28.254C36.2638 28.4904 36.5207 28.7987 36.7314 29.179C36.9472 29.5541 37.1117 30.0089 37.2247 30.5433C37.3378 31.0726 37.3943 31.6893 37.3943 32.3933ZM35.5366 34.4899V32.1158C35.5366 31.6687 35.5109 31.2756 35.4595 30.9364C35.4081 30.5921 35.3311 30.3018 35.2283 30.0654C35.1307 29.8239 35.0073 29.6286 34.8583 29.4796C34.7093 29.3254 34.5397 29.215 34.3496 29.1481C34.1594 29.0762 33.9462 29.0402 33.7098 29.0402C33.422 29.0402 33.1651 29.0968 32.939 29.2098C32.7129 29.3177 32.5227 29.4924 32.3686 29.734C32.2144 29.9755 32.0962 30.2941 32.014 30.6898C31.9369 31.0803 31.8984 31.5557 31.8984 32.1158V34.4899C31.8984 34.9421 31.9241 35.3404 31.9755 35.6847C32.0268 36.029 32.1039 36.3244 32.2067 36.5711C32.3095 36.8126 32.4328 37.013 32.5767 37.1723C32.7257 37.3265 32.8953 37.4396 33.0854 37.5115C33.2807 37.5834 33.494 37.6194 33.7252 37.6194C34.0181 37.6194 34.2776 37.5629 34.5037 37.4498C34.7298 37.3368 34.92 37.1569 35.0741 36.9103C35.2283 36.6585 35.3439 36.3321 35.421 35.9313C35.4981 35.5305 35.5366 35.05 35.5366 34.4899Z" fill="currentColor"/>
<path fill-rule="evenodd" clip-rule="evenodd" d="M18.758 35.0123V36.4923H17.3551V39.0129H15.4974V36.4923H10.6644L10.6027 35.3746L15.4435 27.7898H17.3551V35.0123H18.758ZM12.5375 35.0123L15.4803 30.2951V35.0123H12.5375Z" fill="currentColor"/>
</svg>
