<svg width="48" height="48" viewBox="0 0 48 48" fill="none" xmlns="http://www.w3.org/2000/svg">
<path fill-rule="evenodd" clip-rule="evenodd" d="M24 8.00085C25.1804 8.00085 26.2414 7.48955 26.9736 6.67633L36.098 15.8008H38.5022L27.8368 5.13541C27.943 4.77573 28 4.39495 28 4.00085C28 1.79172 26.2091 0.000854492 24 0.000854492C21.7909 0.000854492 20 1.79172 20 4.00085C20 4.39495 20.057 4.77573 20.1632 5.13541L9.4978 15.8008H11.902L21.0264 6.67633C21.7586 7.48955 22.8196 8.00085 24 8.00085ZM24 6.30085C25.2703 6.30085 26.3 5.27111 26.3 4.00085C26.3 2.7306 25.2703 1.70085 24 1.70085C22.7297 1.70085 21.7 2.7306 21.7 4.00085C21.7 5.27111 22.7297 6.30085 24 6.30085Z" fill="currentColor"/>
<path d="M4.79997 24.0009C5.33016 24.0009 5.75997 23.5711 5.75997 23.0409C5.75997 22.5107 5.33016 22.0809 4.79997 22.0809C4.26977 22.0809 3.83997 22.5107 3.83997 23.0409C3.83997 23.5711 4.26977 24.0009 4.79997 24.0009Z" fill="currentColor"/>
<path d="M5.75997 43.2009C5.75997 43.7311 5.33016 44.1609 4.79997 44.1609C4.26977 44.1609 3.83997 43.7311 3.83997 43.2009C3.83997 42.6707 4.26977 42.2409 4.79997 42.2409C5.33016 42.2409 5.75997 42.6707 5.75997 43.2009Z" fill="currentColor"/>
<path d="M44.16 23.0409C44.16 23.5711 43.7302 24.0009 43.2 24.0009C42.6698 24.0009 42.24 23.5711 42.24 23.0409C42.24 22.5107 42.6698 22.0809 43.2 22.0809C43.7302 22.0809 44.16 22.5107 44.16 23.0409Z" fill="currentColor"/>
<path d="M44.16 43.2009C44.16 43.7311 43.7302 44.1609 43.2 44.1609C42.6698 44.1609 42.24 43.7311 42.24 43.2009C42.24 42.6707 42.6698 42.2409 43.2 42.2409C43.7302 42.2409 44.16 42.6707 44.16 43.2009Z" fill="currentColor"/>
<path fill-rule="evenodd" clip-rule="evenodd" d="M4 18.0009C1.79086 18.0009 0 19.7917 0 22.0009V44.0009C0 46.21 1.79086 48.0009 4 48.0009H44C46.2091 48.0009 48 46.21 48 44.0009V22.0009C48 19.7917 46.2091 18.0009 44 18.0009H4ZM44 19.5009H4C2.61929 19.5009 1.5 20.6201 1.5 22.0009V44.0009C1.5 45.3816 2.61929 46.5009 4 46.5009H44C45.3807 46.5009 46.5 45.3816 46.5 44.0009V22.0009C46.5 20.6201 45.3807 19.5009 44 19.5009Z" fill="currentColor"/>
<path d="M27.8901 32.3933V34.2278C27.8901 35.1066 27.8027 35.8568 27.628 36.4786C27.4584 37.0953 27.2117 37.5963 26.888 37.9817C26.5643 38.3671 26.1763 38.6497 25.7241 38.8296C25.277 39.0094 24.776 39.0994 24.221 39.0994C23.779 39.0994 23.3679 39.0429 22.9877 38.9298C22.6125 38.8167 22.2734 38.6395 21.9702 38.3979C21.667 38.1564 21.4075 37.8455 21.1917 37.4652C20.981 37.0798 20.8165 36.6199 20.6984 36.0855C20.5853 35.5511 20.5288 34.9318 20.5288 34.2278V32.3933C20.5288 31.5094 20.6161 30.7643 20.7908 30.1579C20.9656 29.5464 21.2148 29.0505 21.5385 28.6702C21.8623 28.2848 22.2477 28.0048 22.6948 27.8301C23.147 27.6553 23.6506 27.568 24.2056 27.568C24.6526 27.568 25.0637 27.6245 25.4389 27.7376C25.8191 27.8455 26.1583 28.0176 26.4563 28.254C26.7595 28.4904 27.0165 28.7987 27.2272 29.179C27.443 29.5541 27.6074 30.0089 27.7205 30.5433C27.8335 31.0726 27.8901 31.6893 27.8901 32.3933ZM26.0324 34.4899V32.1158C26.0324 31.6687 26.0067 31.2756 25.9553 30.9364C25.9039 30.5921 25.8268 30.3018 25.7241 30.0654C25.6264 29.8239 25.5031 29.6286 25.3541 29.4796C25.2051 29.3254 25.0355 29.215 24.8453 29.1481C24.6552 29.0762 24.4419 29.0402 24.2056 29.0402C23.9178 29.0402 23.6609 29.0968 23.4347 29.2098C23.2086 29.3177 23.0185 29.4924 22.8643 29.734C22.7102 29.9755 22.592 30.2941 22.5098 30.6898C22.4327 31.0803 22.3941 31.5557 22.3941 32.1158V34.4899C22.3941 34.9421 22.4198 35.3404 22.4712 35.6847C22.5226 36.029 22.5997 36.3244 22.7025 36.5711C22.8052 36.8126 22.9286 37.013 23.0725 37.1723C23.2215 37.3265 23.3911 37.4396 23.5812 37.5115C23.7765 37.5834 23.9897 37.6194 24.221 37.6194C24.5139 37.6194 24.7734 37.5629 24.9995 37.4498C25.2256 37.3368 25.4157 37.1569 25.5699 36.9103C25.7241 36.6585 25.8397 36.3321 25.9168 35.9313C25.9939 35.5305 26.0324 35.05 26.0324 34.4899Z" fill="currentColor"/>
<path fill-rule="evenodd" clip-rule="evenodd" d="M18.758 35.0123V36.4923H17.3551V39.0129H15.4974V36.4923H10.6644L10.6027 35.3746L15.4435 27.7898H17.3551V35.0123H18.758ZM12.5375 35.0123L15.4803 30.2951V35.0123H12.5375Z" fill="currentColor"/>
<path d="M32.3602 32.4935H33.4701C33.9018 32.4935 34.2589 32.419 34.5416 32.27C34.8293 32.1209 35.0426 31.9154 35.1814 31.6533C35.3201 31.3912 35.3895 31.0906 35.3895 30.7514C35.3895 30.3969 35.3252 30.0937 35.1968 29.8419C35.0734 29.5849 34.8833 29.3871 34.6264 29.2484C34.3746 29.1096 34.0534 29.0402 33.6628 29.0402C33.334 29.0402 33.0359 29.107 32.7687 29.2406C32.5066 29.3691 32.2985 29.5541 32.1443 29.7956C31.9902 30.032 31.9131 30.3146 31.9131 30.6435H30.0477C30.0477 30.0474 30.2045 29.5181 30.5179 29.0557C30.8314 28.5932 31.2579 28.2309 31.7975 27.9688C32.3422 27.7016 32.9537 27.568 33.632 27.568C34.3566 27.568 34.9887 27.6887 35.5282 27.9303C36.0729 28.1666 36.4969 28.5212 36.8001 28.994C37.1033 29.4668 37.2548 30.0526 37.2548 30.7514C37.2548 31.07 37.1803 31.3938 37.0313 31.7227C36.8823 32.0516 36.6613 32.3522 36.3684 32.6245C36.1379 32.8348 35.8628 33.0149 35.5431 33.1648C35.9619 33.3154 36.3064 33.545 36.5765 33.7962C36.8694 34.0634 37.0827 34.3691 37.2163 34.7134C37.3551 35.0577 37.4244 35.4226 37.4244 35.808C37.4244 36.3321 37.3294 36.7998 37.1392 37.2109C36.9542 37.6168 36.6896 37.9611 36.3453 38.2438C36.001 38.5264 35.5976 38.7397 35.1351 38.8835C34.6778 39.0274 34.1793 39.0994 33.6397 39.0994C33.1567 39.0994 32.6942 39.0326 32.2523 38.899C31.8103 38.7654 31.4146 38.5675 31.0652 38.3054C30.7158 38.0382 30.4383 37.7068 30.2327 37.3111C30.0323 36.9103 29.9321 36.4478 29.9321 35.9236H31.7898C31.7898 36.2576 31.8668 36.5531 32.021 36.8101C32.1803 37.0619 32.4013 37.2597 32.6839 37.4036C32.9717 37.5475 33.3006 37.6194 33.6706 37.6194C34.0611 37.6194 34.3977 37.55 34.6803 37.4113C34.963 37.2725 35.1788 37.067 35.3278 36.7946C35.482 36.5223 35.5591 36.1934 35.5591 35.808C35.5591 35.3712 35.4743 35.0166 35.3047 34.7443C35.1351 34.4719 34.8936 34.2715 34.5801 34.143C34.2667 34.0094 33.8967 33.9426 33.4701 33.9426H32.3602V32.4935Z" fill="currentColor"/>
</svg>
