<svg width="48" height="48" viewBox="0 0 48 48" fill="none" xmlns="http://www.w3.org/2000/svg">
<path fill-rule="evenodd" clip-rule="evenodd" d="M24 8.00085C25.1804 8.00085 26.2414 7.48955 26.9736 6.67633L36.098 15.8008H38.5022L27.8368 5.13541C27.943 4.77573 28 4.39495 28 4.00085C28 1.79172 26.2091 0.000854492 24 0.000854492C21.7909 0.000854492 20 1.79172 20 4.00085C20 4.39495 20.057 4.77573 20.1632 5.13541L9.4978 15.8008H11.902L21.0264 6.67633C21.7586 7.48955 22.8196 8.00085 24 8.00085ZM24 6.30085C25.2703 6.30085 26.3 5.27111 26.3 4.00085C26.3 2.7306 25.2703 1.70085 24 1.70085C22.7297 1.70085 21.7 2.7306 21.7 4.00085C21.7 5.27111 22.7297 6.30085 24 6.30085Z" fill="currentColor"/>
<path d="M4.79997 24.0009C5.33016 24.0009 5.75997 23.5711 5.75997 23.0409C5.75997 22.5107 5.33016 22.0809 4.79997 22.0809C4.26977 22.0809 3.83997 22.5107 3.83997 23.0409C3.83997 23.5711 4.26977 24.0009 4.79997 24.0009Z" fill="currentColor"/>
<path d="M5.75997 43.2009C5.75997 43.7311 5.33016 44.1609 4.79997 44.1609C4.26977 44.1609 3.83997 43.7311 3.83997 43.2009C3.83997 42.6707 4.26977 42.2409 4.79997 42.2409C5.33016 42.2409 5.75997 42.6707 5.75997 43.2009Z" fill="currentColor"/>
<path d="M44.16 23.0409C44.16 23.5711 43.7302 24.0009 43.2 24.0009C42.6698 24.0009 42.24 23.5711 42.24 23.0409C42.24 22.5107 42.6698 22.0809 43.2 22.0809C43.7302 22.0809 44.16 22.5107 44.16 23.0409Z" fill="currentColor"/>
<path d="M44.16 43.2009C44.16 43.7311 43.7302 44.1609 43.2 44.1609C42.6698 44.1609 42.24 43.7311 42.24 43.2009C42.24 42.6707 42.6698 42.2409 43.2 42.2409C43.7302 42.2409 44.16 42.6707 44.16 43.2009Z" fill="currentColor"/>
<path fill-rule="evenodd" clip-rule="evenodd" d="M4 18.0009C1.79086 18.0009 0 19.7917 0 22.0009V44.0009C0 46.21 1.79086 48.0009 4 48.0009H44C46.2091 48.0009 48 46.21 48 44.0009V22.0009C48 19.7917 46.2091 18.0009 44 18.0009H4ZM44 19.5009H4C2.61929 19.5009 1.5 20.6201 1.5 22.0009V44.0009C1.5 45.3816 2.61929 46.5009 4 46.5009H44C45.3807 46.5009 46.5 45.3816 46.5 44.0009V22.0009C46.5 20.6201 45.3807 19.5009 44 19.5009Z" fill="currentColor"/>
<path d="M29.2053 32.3933V34.2278C29.2053 35.1066 29.1179 35.8568 28.9432 36.4786C28.7736 37.0953 28.527 37.5963 28.2032 37.9817C27.8795 38.3671 27.4915 38.6497 27.0393 38.8296C26.5922 39.0094 26.0912 39.0994 25.5362 39.0994C25.0943 39.0994 24.6832 39.0429 24.3029 38.9298C23.9278 38.8167 23.5886 38.6395 23.2854 38.3979C22.9822 38.1564 22.7227 37.8455 22.5069 37.4652C22.2962 37.0798 22.1318 36.6199 22.0136 36.0855C21.9005 35.5511 21.844 34.9318 21.844 34.2278V32.3933C21.844 31.5094 21.9313 30.7643 22.1061 30.1579C22.2808 29.5464 22.53 29.0505 22.8538 28.6702C23.1775 28.2848 23.5629 28.0048 24.01 27.8301C24.4622 27.6553 24.9658 27.568 25.5208 27.568C25.9679 27.568 26.379 27.6245 26.7541 27.7376C27.1344 27.8455 27.4735 28.0176 27.7716 28.254C28.0747 28.4904 28.3317 28.7987 28.5424 29.179C28.7582 29.5541 28.9226 30.0089 29.0357 30.5433C29.1488 31.0726 29.2053 31.6893 29.2053 32.3933ZM27.3476 34.4899V32.1158C27.3476 31.6687 27.3219 31.2756 27.2705 30.9364C27.2191 30.5921 27.1421 30.3018 27.0393 30.0654C26.9417 29.8239 26.8183 29.6286 26.6693 29.4796C26.5203 29.3254 26.3507 29.215 26.1606 29.1481C25.9704 29.0762 25.7572 29.0402 25.5208 29.0402C25.233 29.0402 24.9761 29.0968 24.75 29.2098C24.5239 29.3177 24.3337 29.4924 24.1796 29.734C24.0254 29.9755 23.9072 30.2941 23.825 30.6898C23.7479 31.0803 23.7094 31.5557 23.7094 32.1158V34.4899C23.7094 34.9421 23.7351 35.3404 23.7864 35.6847C23.8378 36.029 23.9149 36.3244 24.0177 36.5711C24.1205 36.8126 24.2438 37.013 24.3877 37.1723C24.5367 37.3265 24.7063 37.4396 24.8964 37.5115C25.0917 37.5834 25.305 37.6194 25.5362 37.6194C25.8291 37.6194 26.0886 37.5629 26.3147 37.4498C26.5408 37.3368 26.731 37.1569 26.8851 36.9103C27.0393 36.6585 27.1549 36.3321 27.232 35.9313C27.3091 35.5305 27.3476 35.05 27.3476 34.4899Z" fill="currentColor"/>
<path d="M36.5659 27.6836V38.9452H34.7083V29.8881L31.9565 30.8208V29.2869L36.3424 27.6836H36.5659Z" fill="currentColor"/>
<path fill-rule="evenodd" clip-rule="evenodd" d="M19.7004 34.8945V36.3745H18.2975V38.8951H16.4399V36.3745H11.6069L11.5452 35.2568L16.3859 27.672H18.2975V34.8945H19.7004ZM13.48 34.8945L16.4227 30.1772V34.8945H13.48Z" fill="currentColor"/>
</svg>
