<svg width="48" height="48" viewBox="0 0 48 48" fill="none" xmlns="http://www.w3.org/2000/svg">
<g clip-path="url(#clip0_6263_10998)">
<path d="M32.25 36.501C32.6642 36.501 33 36.1652 33 35.751C33 35.3368 32.6642 35.001 32.25 35.001H15.75C15.3358 35.001 15 35.3368 15 35.751C15 36.1652 15.3358 36.501 15.75 36.501H32.25Z" fill="currentColor"/>
<path d="M29.25 40.001C29.6642 40.001 30 40.3368 30 40.751C30 41.1652 29.6642 41.501 29.25 41.501H18.75C18.3358 41.501 18 41.1652 18 40.751C18 40.3368 18.3358 40.001 18.75 40.001H29.25Z" fill="currentColor"/>
<path fill-rule="evenodd" clip-rule="evenodd" d="M8 48.001C6.89543 48.001 6 47.1055 6 46.001V2.00098C6 0.896408 6.89543 0.000976562 8 0.000976562H40C41.1046 0.000976562 42 0.896407 42 2.00098V46.001C42 47.1055 41.1046 48.001 40 48.001H8ZM7.5 2.00098C7.5 1.72484 7.72386 1.50098 8 1.50098H40C40.2761 1.50098 40.5 1.72483 40.5 2.00098V46.001C40.5 46.2771 40.2761 46.501 40 46.501H8C7.72386 46.501 7.5 46.2771 7.5 46.001V2.00098Z" fill="currentColor"/>
<path fill-rule="evenodd" clip-rule="evenodd" d="M16 12.001L18.8263 9.85795L18.3431 6.34412L21.857 6.82725L24 4.00098L26.143 6.82725L29.6569 6.34412L29.1737 9.85795L32 12.001L29.1737 14.144L29.6569 17.6578L27.9829 17.4277L28.8787 29.7453L23.9999 25.5526L19.1211 29.7453L20.0169 17.4277L18.3431 17.6578L18.8263 14.144L16 12.001ZM21.5361 17.2188L20.8787 26.257L23.9999 23.5748L27.1211 26.257L26.4638 17.2188L26.143 17.1747L24 20.001L21.857 17.1747L21.5361 17.2188ZM20.4318 10.523L20.0986 8.0996L22.522 8.4328L24 6.4836L25.478 8.4328L27.9014 8.0996L27.5682 10.523L29.5174 12.001L27.5682 13.479L27.9014 15.9024L25.478 15.5692L24 17.5184L22.522 15.5692L20.0986 15.9024L20.4318 13.479L18.4826 12.001L20.4318 10.523Z" fill="currentColor"/>
</g>
<defs>
<clipPath id="clip0_6263_10998">
<rect width="48" height="48" fill="white" transform="translate(0 0.000976562)"/>
</clipPath>
</defs>
</svg>
