<svg width="48" height="48" viewBox="0 0 48 48" fill="none" xmlns="http://www.w3.org/2000/svg">
<g clip-path="url(#clip0_7051_11944)">
<path d="M25.73 24.8952C26.0314 24.8952 26.1175 25.0674 26.1606 25.1965V25.2827C26.1606 25.3688 26.1606 25.4979 26.1175 25.541L26.0745 25.6271V25.6701L26.1175 25.7132L26.2467 25.9284L26.3328 26.0576C26.505 26.359 26.7203 26.7465 26.7203 27.1339C26.7203 27.7797 26.8494 28.5547 27.4522 29.2005H27.323L27.2369 29.1574C27.0647 29.1144 26.8925 28.9852 26.6772 28.813C26.6341 28.813 26.6341 28.8991 26.6341 29.0283V29.4588C26.6341 29.5018 26.6341 29.5879 26.6341 29.631V29.8032C26.6341 29.8463 26.6341 29.8463 26.6341 29.8893V30.0615C26.6772 30.3198 26.7203 30.5351 26.8064 30.6643C26.8925 30.7504 26.7203 30.7073 26.548 30.5351L26.3328 30.3198C26.2897 30.2337 26.2467 30.1907 26.2036 30.2337H26.1606L26.1175 30.2768L25.9884 30.5351C25.9022 30.8795 25.8161 31.3962 26.1175 31.9128C26.1606 31.9989 26.1175 31.9989 26.0314 31.9558L25.9884 31.9128L25.9022 31.8697C25.7731 31.7836 25.5578 31.6114 25.4717 31.4392C25.4717 31.3962 25.4287 31.4392 25.3856 31.5253L25.2995 31.6975V31.8267C25.2134 32.2142 25.2134 32.86 25.5148 33.4196C25.5578 33.5057 25.4717 33.4627 25.3856 33.4196L25.2134 33.3335L25.2995 33.2905C25.2995 33.2905 25.2565 33.2905 25.2565 33.2474L25.2134 33.2044C25.1703 33.1613 25.1704 33.1613 25.1273 33.1183V33.0752C25.0412 32.9461 24.912 33.2474 25.1273 33.721L25.3856 34.1946L25.5578 34.539C25.687 34.7543 25.7731 34.9265 25.8592 35.0126C25.9453 35.0987 26.1175 35.2279 26.3328 35.314L26.6772 35.4862C26.7203 35.5292 26.7633 35.5292 26.8064 35.5723H26.8494L27.2369 35.8306C27.5813 36.0459 28.0979 36.3042 28.5715 36.3042C29.3034 36.3042 29.6909 35.7875 29.6909 35.5292H29.6478L29.3895 35.4862H29.3034L29.2173 35.4431L28.959 35.357H28.9159L28.7868 35.314C28.141 35.0556 27.323 34.496 27.323 33.1183C27.323 32.042 28.0118 31.267 28.5715 30.7934L28.8298 30.6212L28.9159 30.5351L29.1743 30.3629L29.5617 30.7504L29.4326 30.8365L29.2604 30.9656L29.1312 31.0517L28.959 31.2239C28.4854 31.6545 27.8827 32.3433 27.8827 33.1183C27.8827 34.4099 29.0451 35.0126 29.734 35.0126V34.7973C29.734 34.7973 29.734 34.7973 29.734 34.7543V34.6251C29.734 34.5821 29.734 34.5821 29.734 34.539L29.6909 34.4529C29.5617 34.1515 29.2604 33.8071 28.4854 33.4627H28.7437C29.0021 33.4627 29.4326 33.5057 29.734 33.9363C29.8631 34.1085 29.9062 33.9793 29.9492 33.9363C29.9923 33.8932 30.2075 33.6349 30.552 33.7641L30.4658 33.8071C30.4658 33.8071 30.4658 33.8071 30.4658 33.8502L30.4228 33.8932C30.2936 34.0654 30.1214 34.4529 30.2936 34.9695H30.4228L30.5089 34.9265H30.552L30.6381 34.8834C31.0255 34.6682 31.6283 34.2376 31.6283 33.2905C31.6283 32.4294 31.0255 31.7836 30.4228 31.2239L30.2506 31.0517L29.9062 30.7504C29.8631 30.7073 29.8631 30.7073 29.8201 30.6643L29.6909 30.5351C29.6048 30.492 29.5617 30.4059 29.5187 30.3629L29.4756 30.3198C29.3895 30.2337 29.3034 30.1046 29.2173 30.0185L28.8298 29.631C28.3993 29.2005 28.0118 28.7269 27.9257 28.038L27.8827 27.9519H27.8396C27.7105 27.8658 27.366 27.6936 27.366 27.1339C27.366 26.7895 27.5813 26.4451 27.7966 26.1868L27.8827 26.0576L28.0979 25.8423L28.184 25.7993L28.2271 25.7562H28.2702C28.2702 25.7562 28.2702 25.7562 28.2702 25.7993L28.2271 26.0146L28.184 26.1007C28.141 26.2729 28.141 26.4881 28.3132 26.4881C28.5715 26.4881 29.1312 25.8423 29.1312 25.7132C29.1312 25.6701 29.1743 25.7132 29.1743 25.7562V25.9715L29.1312 26.0576C29.0882 26.1868 29.0451 26.3159 28.959 26.402L28.9159 26.4451C28.8729 26.5312 28.7868 26.5742 28.7437 26.6603L28.4854 26.9617C28.3563 27.1339 28.2271 27.2631 28.3563 27.3922C28.4854 27.5645 28.7868 27.3492 28.959 27.177L29.0021 27.0909L29.0451 27.0478V27.0048C29.0451 26.9617 29.0882 26.9617 29.0451 27.0048V27.0478V27.1339L29.0021 27.22V27.2631L28.959 27.3492C28.8729 27.5645 28.7007 27.8228 28.4424 27.9519V28.2533L28.4854 28.2964L28.5715 28.4686C28.5715 28.4686 28.5715 28.5116 28.6146 28.5116L28.6576 28.5977L28.8729 28.813L28.959 28.9421L29.2173 29.2005C29.1312 29.2435 29.1743 29.2435 29.1743 29.2866L29.6478 29.7602L30.0784 30.1046L30.2506 30.2768L30.5089 30.492L30.9394 30.8365L31.1977 31.0948H31.2408C31.2839 31.0517 31.3269 31.0087 31.3269 30.8795V30.8365C31.3269 30.5782 31.413 30.3198 31.5422 30.2337V30.9226C31.5422 31.267 31.5852 31.6545 31.7144 31.7406C31.8435 31.7836 31.8866 31.6545 31.8866 31.4823C31.9296 31.3101 32.0588 31.1378 32.1019 31.1809L32.0588 31.3101L32.0158 31.4823V31.7406C31.9727 32.085 31.9727 32.4294 32.188 32.5586C32.231 32.5586 32.231 32.5586 32.2741 32.5155L32.3171 32.4725C32.3602 32.3864 32.4893 32.3433 32.7046 32.4294L32.6615 32.2572L32.6185 32.3003C32.4463 32.3864 32.188 32.6877 32.231 33.1183C32.2741 33.721 31.7144 35.2709 30.2936 35.4862V35.5723L30.2506 35.6584L30.2075 35.7014L30.1214 35.8737C29.9062 36.2611 29.4756 36.8208 28.3993 36.6917L28.7007 36.993L28.8729 37.2513C28.8729 37.2944 28.9159 37.2944 28.9159 37.3374L29.0021 37.4666C29.3895 38.0263 29.777 38.8443 29.734 39.7484L29.6909 39.6623L29.6478 39.4901L29.4756 39.0596L29.3895 38.9304C29.3895 38.8874 29.3465 38.8874 29.3465 38.8443L29.2604 38.7151L29.0882 38.3707L28.8298 38.0263C28.7437 37.8541 28.6146 37.7249 28.4854 37.5527L28.3132 37.3805C27.8827 36.8639 27.366 36.3903 26.7633 36.0459L26.6341 35.9598C26.5911 35.9598 26.548 36.0028 26.5911 36.175C26.6341 36.3903 26.4619 36.8639 26.3328 37.0791C26.3328 37.1222 26.2897 37.1222 26.2897 37.2083V37.8541C26.3758 38.586 26.7633 39.5762 27.9688 39.9206C28.184 39.9637 28.3563 39.9637 28.5285 39.9637H28.7007L28.7868 39.9206V39.9637L28.7007 40.0498L28.7437 39.9637C28.5715 40.0928 28.2702 40.265 27.6674 40.265C27.4091 40.265 27.4091 40.6525 27.7966 40.6525C27.7966 40.6525 27.7966 40.6525 27.7966 40.6956V40.9108L27.6674 41.2983L27.5383 41.8149L27.2799 42.3316C27.2799 42.3746 27.2369 42.3746 27.2369 42.4177L27.1508 42.5899C26.9786 42.9774 26.7633 43.3218 26.548 43.5371C26.4189 43.6232 26.505 43.6662 26.548 43.7093H26.6341C26.6772 43.7093 26.7203 43.7523 26.8064 43.7954L26.8925 43.8384C26.8925 43.8384 26.9355 43.8384 26.9355 43.8815L27.0216 43.9245C27.0647 43.9676 27.1077 43.9676 27.1508 44.0106H27.1077C27.0216 44.0106 26.9355 44.0106 26.9355 44.0537V44.312C26.8925 44.4412 26.8494 44.6134 26.5911 44.6134C26.2467 44.6134 26.1606 44.269 26.1606 44.0967C26.1606 43.9245 25.9884 43.9245 25.9022 43.9245C25.8592 43.9245 25.6009 44.0106 25.5148 44.312L25.4717 44.4412C25.4287 44.7425 25.2995 45.0009 25.0412 45.0009C24.7398 45.0009 24.6537 44.7856 24.6537 44.6134C24.6537 44.5703 24.6537 44.5703 24.6107 44.5703H24.5676C24.5246 44.5703 24.4385 44.5703 24.3523 44.5273L24.4815 44.4412L24.5676 44.3981L24.8259 44.2259C25.0412 44.0537 25.2134 43.8815 25.1703 43.7954C25.0842 43.5801 24.9551 43.6232 24.869 43.7093L24.8259 43.7523L24.7398 43.7954C24.6107 43.8815 24.3954 44.0106 24.2232 44.0537C23.9649 44.0967 23.8357 43.7523 23.9649 43.494L24.0079 43.451C24.051 43.4079 24.0079 43.4079 23.9649 43.3648L23.8788 43.3218C23.8357 43.2787 23.7927 43.2787 23.7496 43.2357H24.2232C24.5676 43.2357 24.9551 43.2357 24.9551 43.0635C24.912 42.8052 24.6968 42.8052 24.5676 42.8482C24.4384 42.8913 24.051 42.8482 24.051 42.5899C24.051 42.5468 24.094 42.5038 24.094 42.4607L24.1371 42.3746C24.1801 42.3316 24.1801 42.2885 24.1801 42.2455C24.1801 42.2024 24.1371 42.1594 24.094 42.1163L24.051 42.0733H24.094C24.094 42.0733 24.094 42.0733 24.1371 42.0733H24.2232C24.3093 42.0733 24.4384 42.0733 24.5676 42.1163C24.6537 42.1594 24.7398 42.2024 24.8259 42.3316L24.9981 42.5038C25.1704 42.676 25.3856 42.8913 25.5578 42.8913C25.9022 42.8913 26.2036 42.3746 26.2036 41.3414V40.4373C26.1606 40.265 26.1606 40.1789 26.0745 40.1359L26.0314 40.0928L25.9453 40.0498L25.9022 40.0067C25.9022 40.0067 25.8592 39.9637 25.8592 39.9206V39.8345C25.8592 39.7915 25.8592 39.7054 25.7731 39.6623C25.6439 39.6192 25.4717 39.7915 25.4287 40.4803V40.6525C25.4287 40.6956 25.4287 40.6956 25.4287 40.7386V41.1692L25.3856 41.2983L25.2995 41.1261V41.083L25.2134 40.8247C25.1703 40.6525 25.1273 40.4803 25.1273 40.265C25.1273 40.222 25.1273 40.1789 25.1273 40.1359V39.9206C25.1273 39.8345 25.1273 39.7915 25.0842 39.7484C25.0842 39.7484 25.0412 39.7484 24.9981 39.7915L24.8259 39.9637C24.6968 40.0928 24.5246 40.265 24.3093 40.3511L24.4385 40.0928C24.5246 39.9206 24.6107 39.6623 24.6107 39.447C24.6107 39.404 24.6107 39.3609 24.5676 39.3179V39.2748L24.6107 39.1457L24.4815 39.0165C24.3523 38.8443 24.1801 38.4999 24.1801 37.5958C24.1801 37.2944 24.2232 37.0791 24.2662 36.9069L24.3093 36.7778C24.3523 36.6056 24.3954 36.4333 24.3954 36.175C24.3954 35.8737 24.051 35.5292 23.6635 35.1848L23.3191 34.9265L23.233 34.8404L22.6733 34.4529L22.3289 34.1946C22.2858 34.1515 22.2858 34.1515 22.2428 34.1085L22.0275 33.9363L21.5109 33.4196C21.5109 33.4196 21.5109 33.4196 21.5109 33.3766C21.4678 33.3335 21.5539 33.2474 21.597 33.1613L21.8553 32.86L21.9414 32.7308C22.0705 32.5586 22.1567 32.3864 22.0275 32.3003C21.8553 32.1711 21.7692 32.2572 21.64 32.4294L21.5109 32.6877C21.5109 32.7308 21.4678 32.7308 21.4678 32.7738C21.2956 33.0322 20.9942 33.2905 20.8651 33.3766C20.822 33.3766 20.822 33.3335 20.822 33.2474V32.7738C20.822 32.5586 20.779 32.3433 20.6498 32.3433C20.3484 32.3433 20.3054 32.6447 20.3484 32.7738V32.8169C20.3484 32.86 20.3484 32.86 20.2623 32.86H20.1762C20.0471 32.86 19.9179 32.903 19.7887 33.0322L19.7457 33.1183C19.7457 33.1183 19.7457 33.1613 19.7026 33.1613L19.6596 33.2474C19.5735 33.4196 19.4443 33.6349 19.4013 33.9793V33.8932C19.3582 33.7641 19.3152 33.4627 19.4013 33.2044L19.4443 33.1183C19.4443 33.0752 19.4443 33.0752 19.3582 33.0752H18.8416L18.4972 33.1613L18.1958 33.2044L17.7653 33.2905C17.7222 33.2905 17.6792 33.2905 17.6361 33.3335C17.5069 33.3766 17.4639 33.4196 17.4639 33.6349V34.1515C17.4639 34.3238 17.4639 34.4099 17.4639 34.539C17.4639 34.5821 17.4208 34.539 17.4208 34.496V34.3668C17.4208 34.3668 17.4208 34.3668 17.3778 34.3668H17.2486C17.0764 34.4099 16.8181 34.4099 16.8181 34.1515C16.8181 33.9363 16.8612 33.8932 16.9473 33.8502L16.9903 33.8071C17.0334 33.7641 17.0764 33.7641 17.0764 33.678C17.0764 33.4196 16.9042 33.2905 16.6889 33.2905C16.5598 33.2905 16.4737 33.3766 16.3876 33.4627L16.3015 33.5488C16.1723 33.678 16.0431 33.8071 15.8709 33.8071C15.4835 33.8071 15.4404 33.5488 15.4404 33.4196C15.4404 33.2905 15.4835 33.2474 15.4835 33.1613C15.4835 33.0752 15.3974 32.9891 15.3112 32.9891C15.2682 32.9891 15.3543 32.9461 15.4835 32.9461H15.5265L15.7848 32.9891C16.0862 33.0322 16.4737 32.9891 16.4737 32.7308C16.4737 32.6447 16.3876 32.6016 16.3015 32.6447H16.1723C16.1293 32.6447 16.1293 32.6447 16.0862 32.6447L15.914 32.6016C15.6987 32.5586 15.3974 32.4725 15.3974 32.1281C15.3974 31.9558 15.5696 31.8697 15.6557 31.8267H15.6987C15.6987 31.7836 15.7418 31.6975 15.7418 31.6114C15.7418 31.5684 15.7418 31.5684 15.8279 31.6114V31.5253L15.914 31.5684L16.0431 31.6545L16.4306 32.042C16.5167 32.1711 16.6459 32.1281 16.6889 32.085H16.732C16.775 32.042 16.8612 31.9128 16.6459 31.7836C16.3876 31.6545 16.3876 31.5253 16.3876 31.3101C16.3876 31.1378 16.5167 31.0948 16.6028 31.0517H16.6459C16.6889 31.0517 16.732 30.8795 16.6889 30.7934V30.7504C16.6459 30.6212 16.9903 30.9226 17.1625 31.267C17.1625 31.3101 17.2056 31.3531 17.2056 31.3962V31.6114C17.2056 31.8267 17.2486 31.9989 17.5069 32.1281H17.6792C17.6792 32.1281 17.6792 32.1281 17.7222 32.1281H17.8083L17.8944 32.085L18.0236 32.042C18.0236 32.042 18.0666 32.042 18.1097 31.9989L18.1958 31.9558L18.4541 31.8697L19.2291 31.5684L20.4345 31.1378C20.5206 31.0948 20.6929 31.0087 20.6067 30.8795C20.5206 30.7073 20.2193 30.6643 19.7887 30.9656L19.7457 31.0087C19.6596 31.0948 19.6165 31.0517 19.6596 30.9656L19.7026 30.9226L19.7457 30.8365C19.7457 30.8365 19.7457 30.7934 19.7887 30.7934L19.8318 30.7073C19.8318 30.7073 19.8318 30.6643 19.8748 30.6643L19.961 30.5782C20.004 30.5351 20.004 30.492 20.0471 30.492L20.1332 30.4059C20.4345 30.0185 20.9081 29.631 21.3386 29.631C21.5109 29.631 21.5539 29.5449 21.5539 29.4588V29.4157C21.5539 29.3296 21.4678 29.2435 21.1664 29.2435C20.779 29.2435 20.2623 29.631 20.0471 30.0185C20.0471 30.0185 20.004 30.0185 19.961 30.0185L19.8318 29.9324C19.7457 29.8463 19.5735 29.8032 19.3582 29.8032C19.0999 29.8032 18.9277 29.8463 18.7985 29.8463L18.7124 29.8893H18.5833C18.4972 29.8893 18.7985 29.4588 19.3152 29.4588C19.4013 29.4588 19.4013 29.3296 19.2291 29.2005L19.186 29.1574C19.0999 29.1144 18.9707 28.9421 18.8416 28.813L18.4541 28.2964C18.4111 28.2533 18.4111 28.2533 18.368 28.2102C18.2819 28.1241 18.1958 28.2533 18.0666 28.4686L18.0236 28.5547L17.8944 28.9421C17.8944 28.9852 17.8514 28.9421 17.8514 28.8991V28.7699C17.8514 28.7269 17.8083 28.7269 17.8083 28.7269L17.7222 28.6838C17.593 28.6408 17.4639 28.5547 17.4639 28.2964C17.4639 27.995 17.6361 27.9519 17.8083 27.995H17.8514L17.9375 28.038C17.9375 28.038 17.9375 28.038 17.9805 28.038C18.1527 28.0811 18.3249 27.8658 18.2819 27.6936C17.9805 27.5214 17.8083 27.3061 17.55 27.3061H17.5069C17.2056 27.3492 16.775 27.1339 16.775 26.7895C16.775 26.6173 16.8612 26.5312 16.9473 26.4881L17.0334 26.4451H17.0764C17.1195 26.402 17.1195 26.2298 17.1195 26.1868C17.1195 26.1868 17.1195 26.1868 17.1625 26.1868L17.2056 26.2298L17.2917 26.2729L17.593 26.5742C17.6361 26.6173 17.6361 26.6173 17.6792 26.6603L17.8083 26.7895C17.9375 26.9187 17.9805 26.9617 18.0666 26.9187C18.1527 26.8756 18.1958 26.6603 17.8944 26.402C17.593 26.1437 17.6361 25.8423 17.7653 25.6701C17.7653 25.6701 17.8083 25.6701 17.8514 25.6701H17.9805C18.1097 25.6701 18.2388 25.6701 18.2819 25.584C18.2819 25.4979 18.3249 25.541 18.3249 25.584V25.7132L18.368 25.7993V26.1437L18.4111 26.2298V26.359C18.4111 26.6173 18.4972 26.6603 18.5833 26.6603C18.6694 26.6603 18.7555 26.6173 18.7124 26.2298C18.6694 25.8854 18.7555 25.7993 18.8416 25.7562L18.8846 25.7132C18.9707 25.6701 19.0999 25.6701 19.186 25.7562C19.2721 25.8423 19.4443 25.7132 19.4443 25.584V25.7562C19.4874 25.8854 19.4874 26.0576 19.3582 26.2298C19.3152 26.2729 19.3152 26.3159 19.2721 26.3159L19.0999 26.4881C18.9277 26.6603 18.7985 26.8756 18.9707 27.22L19.0138 27.3061L20.7359 29.0713C20.779 29.0713 20.822 29.0283 20.7359 28.9421C20.6498 28.813 20.6498 28.6838 20.7359 28.5977V28.5547L20.779 28.5977L20.9512 28.6838C20.9512 28.6838 20.9942 28.6838 20.9942 28.7269L21.0803 28.7699C21.3817 28.8991 21.8122 29.0283 22.458 28.9421C23.6204 28.813 24.094 27.995 23.9218 27.8228L24.0079 27.8658L23.7927 28.0811C23.5774 28.2102 23.3191 28.3825 23.0608 28.3825C22.5872 28.3825 22.3289 27.9089 22.415 27.6075V27.5645L22.5011 27.6506C22.5872 27.7367 22.8024 27.8658 23.0608 27.8658C23.4482 27.8658 23.8788 27.3922 23.7927 27.1339C23.7927 27.0909 23.7496 27.0909 23.6635 27.1339L23.5774 27.0909L23.1469 27.22L22.9747 27.2631C22.9316 27.2631 22.9316 27.2631 22.8885 27.3061L22.7163 27.3492C22.415 27.4353 21.9844 27.4783 21.5539 27.4783C20.1762 27.4783 19.961 26.1007 20.9512 25.541L20.9081 25.584L20.8651 25.6701V26.0576C20.779 26.5312 20.9081 27.1339 22.0275 27.1339C22.2428 27.1339 22.458 27.1339 22.6302 27.0909L22.8024 27.0478C22.8455 27.0478 22.9316 27.0478 22.9747 27.0048L23.1469 26.9617L23.4052 26.8756L23.5774 26.7895L23.7066 26.7465V26.6603C23.6635 26.5312 23.4913 26.2298 23.1038 26.2298C22.7163 26.2298 22.5441 26.5312 22.458 26.6603L22.415 26.7034V26.7465L22.3719 26.7034L22.2858 26.7895C22.1567 26.7034 21.9414 26.4451 22.0275 26.1437C22.0275 26.1007 22.0705 26.1007 22.1136 26.1007H22.2858C22.415 26.0576 22.5441 26.0146 22.5441 25.8423C22.5441 25.7562 22.5011 25.7132 22.458 25.7132H22.415C22.3719 25.7132 22.3289 25.7562 22.2858 25.7993L22.2428 25.8854C22.1997 25.9284 22.1997 25.9715 22.1136 25.9715C21.9414 25.9715 21.9414 25.4549 22.2858 25.4549H22.3289C22.415 25.4549 22.5441 25.4549 22.5872 25.3688V25.3257C22.5872 25.1965 22.8885 25.0674 23.5343 25.0243H23.7496C23.8357 25.0243 23.9649 25.0243 24.094 25.0243C24.5676 25.0243 24.869 25.1104 25.0412 25.1535L25.1273 25.1965L25.2565 25.3257V25.2827C25.2995 25.1104 25.4287 24.8952 25.73 24.8952ZM21.1664 34.7973H22.8455C22.8885 34.7973 22.8885 34.8404 22.8885 34.8834V34.9265C22.8885 34.9695 22.8885 35.0556 23.0177 35.0987C23.1899 35.1418 23.7066 35.5723 23.7066 35.7875C23.7066 35.8306 23.6635 35.9167 23.6204 35.9598L23.4913 36.132C23.4482 36.2181 23.4052 36.3042 23.4913 36.4764C23.7066 36.7778 23.8788 36.7778 24.0079 36.7778H23.9649C23.9649 36.7778 23.9649 36.7778 23.9218 36.7778L23.8788 36.8208C23.7496 36.8639 23.4913 36.9069 23.1038 36.9069H23.0177C22.8455 36.9069 22.6733 36.8639 22.5011 36.8208L22.0275 36.7347C21.7692 36.6917 21.5539 36.6486 21.2956 36.6917H21.1664C20.6929 36.7778 20.3915 37.2083 20.6067 38.586V38.7151C20.6067 38.7582 20.6929 38.8012 20.8651 38.8012C21.1234 38.8012 21.7692 39.1026 22.1567 39.7484L21.9844 39.6623V39.5762L21.7261 39.4901C21.3817 39.3179 21.0373 39.1887 20.9081 39.404C20.822 39.5762 20.8651 39.7054 20.9942 39.7915C21.0373 39.7915 20.9512 39.8345 20.822 39.8776L20.6929 39.9206L20.4776 40.0067H20.2623L19.8318 40.1359L19.0568 40.3511C18.9277 40.3942 18.8846 40.4803 19.143 40.6525L19.186 40.6956L19.4443 40.8678L19.4874 40.9108C19.5304 40.9539 19.5735 40.9969 19.5304 40.9969H19.4013C19.2721 40.9969 19.143 40.9969 19.143 41.083C19.143 41.1692 19.0999 41.3844 18.8846 41.3844C18.6694 41.3844 18.5402 41.2553 18.5402 41.083V40.8678C18.5402 40.6956 18.4541 40.5664 18.2819 40.5664C18.0236 40.5664 17.8514 40.8247 17.8514 41.2983C17.8514 41.6427 17.5069 41.7288 17.3778 41.7288C17.2486 41.7288 17.1195 41.6858 17.1195 41.4705C17.1195 41.4275 17.0334 41.4275 16.9473 41.4275H16.8612C16.8181 41.4275 16.8612 41.3844 16.9473 41.2983L17.0334 41.2553L17.2917 41.083L17.55 40.8678C17.6361 40.8247 17.6361 40.6525 17.593 40.6095L17.55 40.5664C17.4639 40.5234 17.3778 40.4803 17.2056 40.6095C17.0334 40.7817 16.8181 40.9108 16.6459 40.9108C16.4737 40.9108 16.3015 40.7386 16.3015 40.5664V40.3511C16.3015 40.265 16.3015 40.1359 16.1723 40.0928L16.1293 40.0498C16.0862 40.0067 16.0862 40.0067 16.1723 40.0067H17.1625C17.3347 40.0067 17.5069 39.9637 17.5069 39.9206C17.5069 39.7054 17.2917 39.6623 17.2056 39.6623H17.0764C16.8612 39.6623 16.5598 39.6623 16.5598 39.3609C16.5598 39.2748 16.6028 39.2318 16.6459 39.1887H16.6889C16.6889 39.1457 16.732 39.1457 16.732 39.1026C16.732 39.0165 16.6028 39.0165 16.5598 39.0165L16.6459 38.9304C16.775 38.8874 17.0334 38.8012 17.2917 39.0165C17.3347 39.0596 17.4208 39.1457 17.4639 39.1887L17.6361 39.447C17.7653 39.6192 17.8944 39.7484 18.1097 39.7484H18.1958C18.6263 39.7054 19.6596 39.3179 19.6596 38.1555C19.6596 37.811 19.5735 37.5097 19.4874 37.2513L19.4013 36.993L19.2721 36.7347C19.2721 36.6917 19.2721 36.6917 19.2721 36.6917C19.2721 36.6486 19.2721 36.6486 19.3152 36.6486H19.4013C19.4874 36.6486 19.6165 36.6056 19.6165 36.4333C19.6165 36.0889 17.55 36.0459 16.9042 36.6917V36.5194L16.9473 36.4333C17.0764 36.2181 17.3778 35.9167 18.0666 35.9167C18.2388 35.9167 18.368 35.9598 18.4541 35.9598L18.5833 36.0028C18.7124 36.0459 18.7985 36.0459 18.9277 36.0028C18.9707 36.0028 18.9707 35.9598 18.9277 35.9167L18.7555 35.7014C18.6263 35.5723 18.4972 35.4431 18.5402 35.1848L18.5833 35.2279C18.7124 35.357 19.0138 35.6153 19.3582 35.6153C19.4013 35.6153 19.4013 35.6153 19.4443 35.5723L19.4874 35.5292L19.5735 35.4001L19.7457 35.2279C20.004 35.0556 20.4345 34.7973 21.1664 34.7973ZM23.276 32.2142C23.1899 32.2142 23.1038 32.2572 23.1038 32.3433V32.4725C23.1038 32.4725 23.1038 32.5155 23.0608 32.5155L22.9747 32.6877C22.8455 32.86 22.6733 33.0752 22.2858 33.2474C22.2428 33.2905 22.1997 33.3766 22.2428 33.4627C22.2858 33.5057 22.3289 33.5488 22.415 33.5488H22.458C23.0177 33.2905 23.276 32.9461 23.3621 32.6877L23.4052 32.6016V32.3864C23.4052 32.3003 23.3621 32.2142 23.276 32.2142ZM24.4815 32.1281C24.3954 32.1281 24.3523 32.1711 24.3093 32.2572V32.4294C24.2662 32.6447 24.1371 33.0322 23.6635 33.2905C23.6204 33.3335 23.5774 33.4196 23.6204 33.5057C23.6635 33.5488 23.7066 33.5919 23.7927 33.5919H23.8357C24.3523 33.3335 24.5676 32.903 24.6537 32.6016V32.3003C24.6107 32.1711 24.5676 32.1281 24.4815 32.1281ZM22.5441 30.1476C22.5011 30.2337 22.5441 30.3198 22.5872 30.4059L22.6302 30.449C22.6733 30.492 22.8024 30.6212 22.8455 30.7934C22.9316 31.0948 22.8455 31.5253 22.5872 31.9558C22.5441 31.9989 22.5441 32.1281 22.6302 32.1711C22.6733 32.2142 22.6733 32.2142 22.7163 32.2142C22.7594 32.2142 22.8455 32.1711 22.8885 32.1281C23.1899 31.6114 23.3191 31.1378 23.233 30.7504V30.6643C23.1899 30.4059 23.0177 30.2768 22.9316 30.1907L22.8885 30.1476L22.7594 30.1046C22.6733 30.0615 22.5441 30.0615 22.5441 30.1476ZM21.7261 30.2768L21.64 30.3198L21.4678 30.492C21.2525 30.7073 21.0373 31.0948 20.9512 31.7406C20.9512 31.8267 20.9942 31.9128 21.0803 31.9128H21.1664C21.2095 31.9128 21.2956 31.8697 21.3386 31.7836V31.7406C21.3817 31.1378 21.64 30.7934 21.8122 30.6212L21.8983 30.5351C21.9844 30.492 21.9844 30.3629 21.9414 30.3198C21.8983 30.2768 21.8122 30.2768 21.7261 30.2768ZM23.7496 29.1574C23.7066 29.2435 23.7066 29.3296 23.7927 29.3727L23.9218 29.5018C23.9218 29.5018 23.9218 29.5018 23.9218 29.5449L23.9649 29.5879C24.094 29.8032 24.2232 30.1476 24.094 30.7934L24.051 30.9226C24.0079 31.0087 24.051 31.0517 24.1371 31.0948H24.2232C24.2662 31.0948 24.3523 31.0517 24.3954 30.9656C24.6107 30.0185 24.3093 29.5018 24.1371 29.2866L24.051 29.2005L24.0079 29.1144L23.9649 29.0713C23.8788 29.0713 23.7927 29.0713 23.7496 29.1574ZM30.595 25.6271L30.7242 25.8854C30.8533 26.1437 31.1116 26.4451 31.37 26.402C31.4561 26.402 31.4561 26.2729 31.413 26.1437L31.37 25.9715L31.3269 25.8854V25.7993C31.3269 25.7562 31.3269 25.7562 31.3269 25.7132L31.5852 25.9715C31.7144 26.1007 31.8435 26.2298 31.9727 26.3159C32.231 26.4881 32.2741 27.0048 32.1449 27.3061C32.0158 27.5214 31.8005 27.7367 31.7574 27.9519V27.995C31.7144 28.1241 31.6283 28.2964 31.4991 28.5547L31.413 28.7269C31.3269 28.856 31.2839 28.9421 31.1547 29.0713L30.9825 29.2435C30.8533 29.4157 30.6811 29.5879 30.5089 29.7602L30.4228 29.8463L29.9923 29.4588L30.6811 28.7699C30.9825 28.4255 31.2408 28.0811 31.1977 27.8228H31.1547L31.1116 27.7797C31.1116 27.7797 31.1116 27.7797 31.0686 27.7797L30.9825 27.7367C30.8103 27.6075 30.552 27.3492 30.595 26.9617L30.6381 27.0478C30.6381 27.0478 30.6381 27.0478 30.6811 27.0909L30.7242 27.177C30.8533 27.3492 31.0686 27.5214 31.1977 27.3922C31.413 27.2631 31.2408 26.9187 30.9825 26.6603L30.8964 26.5742V26.4451L30.8533 26.402C30.6811 26.2298 30.595 25.9715 30.595 25.7993V25.6271ZM24.4815 27.0478C24.4385 27.1339 24.4815 27.22 24.5676 27.2631C25.0412 27.4353 25.4717 27.6936 25.5148 27.8228H25.4717C25.4717 27.8228 25.4717 27.8228 25.4287 27.8228H24.869C24.8259 27.8228 24.7398 27.8658 24.6968 27.9089C24.6537 27.9519 24.6968 27.995 24.6968 28.0811L24.7398 28.1672L24.7829 28.2102V28.2533C24.7829 28.2533 24.7829 28.2533 24.7829 28.2964V28.6838C24.7829 28.856 24.7829 29.0713 24.7398 29.2866C24.7398 29.3727 24.7829 29.4157 24.912 29.4588H24.9981C25.0412 29.4588 25.1273 29.3727 25.1273 29.2866C25.1273 29.2005 25.1273 29.1144 25.1273 29.0713V28.856C25.1273 28.813 25.1273 28.813 25.1273 28.7699V28.5977C25.1273 28.3825 25.0842 28.2533 25.0412 28.1241C25.2995 28.1241 25.5148 28.0811 25.6439 27.9519C25.687 27.9089 25.73 27.8228 25.73 27.7367C25.73 27.4353 25.2995 27.177 24.9551 27.0048L24.6968 26.9187L24.6107 26.8756H24.5676C24.6107 26.9187 24.5246 26.9617 24.4815 27.0478ZM24.094 25.3688H23.3191C23.1899 25.3688 23.1899 25.4118 23.1469 25.4549C23.1469 25.541 23.1899 25.584 23.1899 25.6271L23.233 25.6701H23.7066C23.7496 25.6701 23.8357 25.6701 23.8357 25.7132C23.8357 25.7562 23.7066 25.7993 23.5774 25.8423H23.3621L23.4052 25.8854C23.4482 25.9715 23.5343 26.0146 23.7066 26.0146C23.9649 26.0146 24.051 25.7993 24.051 25.6271V25.541C24.094 25.541 24.2232 25.541 24.2232 25.4549C24.2662 25.4118 24.1801 25.3688 24.094 25.3688ZM23.9218 23.0009L24.051 23.0439L24.1801 23.1731L24.3093 23.2161C24.4815 23.3453 24.6537 23.5175 24.6537 23.6897C24.6537 23.905 24.4385 23.9911 24.3093 24.0341H24.2662C24.3523 24.2494 24.5246 24.3355 24.6107 24.3785H24.9981C25.2565 24.3785 25.2565 24.1633 25.2565 24.0772V23.9911H25.2134C25.1273 23.9911 24.9551 23.905 24.9551 23.7328C24.9551 23.5175 25.2565 23.3453 25.5578 23.2592L25.73 23.1731L25.8592 23.13L25.7731 23.4744H25.73C25.6439 23.4744 25.5578 23.5605 25.5578 23.6897C25.5578 23.7328 25.6009 23.7758 25.6439 23.8189H25.687L25.4287 24.6799H22.5872L22.3719 23.8619C22.415 23.8189 22.5011 23.7758 22.5011 23.6897C22.5011 23.5605 22.415 23.4744 22.3289 23.4744H22.2858L22.1567 23.087C22.415 23.13 23.0608 23.3883 23.0608 23.6897C23.0608 23.905 22.8885 23.9911 22.8024 23.9911H22.7594C22.7594 24.2494 22.9316 24.3355 23.0177 24.3355H23.4913C23.7066 24.3355 23.7496 24.0772 23.7496 23.9911V23.948H23.6204C23.4913 23.905 23.3621 23.8619 23.3621 23.7328C23.3621 23.5175 23.5343 23.3453 23.7066 23.1731L23.8788 23.0009H23.9218ZM24.0079 23.5175C23.8788 23.5175 23.7927 23.6036 23.7927 23.7328C23.7927 23.8619 23.8788 23.948 24.0079 23.948C24.1371 23.948 24.2232 23.8619 24.2232 23.7328C24.2232 23.6036 24.1371 23.5175 24.0079 23.5175Z" fill="currentColor"/>
<path fill-rule="evenodd" clip-rule="evenodd" d="M34.4409 10.5009L36.2132 8.72857L27.7279 0.243286L17.4704 10.5009H7.16065C6.44293 10.5009 5.78024 10.8854 5.42416 11.5086L0.263514 20.5397C0.0908306 20.8419 0 21.1839 0 21.532V46.0009C0 47.1054 0.895432 48.0009 2 48.0009H46C47.1046 48.0009 48 47.1054 48 46.0009V21.532C48 21.1839 47.9092 20.8419 47.7365 20.5397L42.5758 11.5086C42.2198 10.8854 41.5571 10.5009 40.8394 10.5009H34.4409ZM27.7279 2.36461L17.1213 12.9712L19.151 15.0009H27.8196L34.0919 8.72857L27.7279 2.36461ZM15 12.9712L17.0296 15.0009H12.75C12.3358 15.0009 12 15.3366 12 15.7509C12 16.1651 12.3358 16.5009 12.75 16.5009H35.25C35.6642 16.5009 36 16.1651 36 15.7509C36 15.3366 35.6642 15.0009 35.25 15.0009H29.9409L32.9409 12.0009H40.8394C41.0188 12.0009 41.1845 12.097 41.2735 12.2528L45.7009 20.0009H2.29905L6.72652 12.2528C6.81555 12.097 6.98122 12.0009 7.16065 12.0009H15.9704L15 12.9712ZM1.50097 21.5009C1.50032 21.5112 1.5 21.5216 1.5 21.532V46.0009C1.5 46.277 1.72386 46.5009 2 46.5009H46C46.2761 46.5009 46.5 46.277 46.5 46.0009V21.532C46.5 21.5216 46.4997 21.5112 46.499 21.5009H1.50097Z" fill="currentColor"/>
</g>
<defs>
<clipPath id="clip0_7051_11944">
<rect width="48" height="48" fill="white" transform="translate(0 0.000854492)"/>
</clipPath>
</defs>
</svg>
