<svg width="48" height="48" viewBox="0 0 48 48" fill="none" xmlns="http://www.w3.org/2000/svg">
<g clip-path="url(#clip0_7051_11942)">
<path fill-rule="evenodd" clip-rule="evenodd" d="M23.019 29.5388C22.9977 29.2635 23.2035 29.022 23.4794 29.0111C23.6522 29.0043 23.8258 29.0009 24.0002 29.0009C24.1746 29.0009 24.3482 29.0043 24.521 29.0111C24.7969 29.022 25.0028 29.2635 24.9814 29.5388L24.9039 30.5358C24.8825 30.8111 24.642 31.0158 24.366 31.0068C24.2446 31.0029 24.1227 31.0009 24.0002 31.0009C23.8778 31.0009 23.7558 31.0029 23.6344 31.0068C23.3584 31.0158 23.1179 30.8111 23.0965 30.5358L23.019 29.5388ZM26.9191 29.8436C26.9834 29.575 27.2535 29.4085 27.5194 29.4831C27.8557 29.5774 28.1865 29.685 28.5113 29.8052C28.7702 29.901 28.891 30.1945 28.7852 30.4496L28.4021 31.3733C28.2964 31.6284 28.0042 31.7482 27.7445 31.6543C27.5176 31.5721 27.2871 31.4972 27.0535 31.4299C26.7882 31.3534 26.6222 31.0847 26.6864 30.8162L26.9191 29.8436ZM19.2152 30.4496C19.1095 30.1945 19.2302 29.901 19.4892 29.8052C19.8139 29.685 20.1447 29.5774 20.4811 29.4831C20.7469 29.4085 21.0171 29.575 21.0813 29.8436L21.314 30.8162C21.3783 31.0847 21.2122 31.3534 20.9469 31.4299C20.7133 31.4972 20.4829 31.5721 20.2559 31.6543C19.9962 31.7482 19.7041 31.6284 19.5983 31.3733L19.2152 30.4496ZM30.5326 31.3415C30.6771 31.1062 30.9856 31.0318 31.2152 31.1852C31.5043 31.3785 31.7852 31.583 32.0573 31.7981C32.2739 31.9694 32.298 32.2858 32.1186 32.4957L31.4688 33.2558C31.2893 33.4657 30.9744 33.4894 30.7566 33.3197C30.5652 33.1705 30.3688 33.0275 30.1676 32.891C29.9391 32.736 29.8648 32.429 30.0093 32.1937L30.5326 31.3415ZM15.8818 32.4957C15.7024 32.2858 15.7265 31.9694 15.9431 31.7981C16.2152 31.583 16.4961 31.3785 16.7853 31.1852C17.0148 31.0318 17.3233 31.1062 17.4678 31.3416L17.9911 32.1937C18.1356 32.429 18.0613 32.736 17.8328 32.891C17.6316 33.0275 17.4352 33.1705 17.2438 33.3197C17.026 33.4894 16.7111 33.4657 16.5316 33.2558L15.8818 32.4957ZM33.5054 33.8825C33.7153 33.7031 34.0317 33.7272 34.203 33.9438C34.4181 34.2158 34.6226 34.4968 34.8158 34.7859C34.9693 35.0155 34.8948 35.324 34.6595 35.4685L33.8074 35.9918C33.5721 36.1363 33.2651 36.062 33.1101 35.8334C32.9736 35.6323 32.8306 35.4358 32.6814 35.2445C32.5116 35.0267 32.5354 34.7117 32.7453 34.5323L33.5054 33.8825ZM13.3409 35.4685C13.1056 35.324 13.0312 35.0155 13.1846 34.7859C13.3778 34.4968 13.5823 34.2158 13.7975 33.9438C13.9687 33.7272 14.2852 33.7031 14.4951 33.8825L15.2552 34.5323C15.4651 34.7117 15.4888 35.0267 15.319 35.2445C15.1698 35.4358 15.0268 35.6323 14.8904 35.8334C14.7353 36.062 14.4284 36.1363 14.1931 35.9918L13.3409 35.4685ZM35.5515 37.2159C35.8066 37.1101 36.1001 37.2308 36.1959 37.4898C36.3161 37.8145 36.4236 38.1454 36.518 38.4817C36.5926 38.7476 36.426 39.0177 36.1575 39.082L35.1849 39.3146C34.9163 39.3789 34.6477 39.2129 34.5712 38.9475C34.5038 38.7139 34.429 38.4835 34.3468 38.2565C34.2528 37.9969 34.3727 37.7047 34.6278 37.5989L35.5515 37.2159ZM11.843 39.082C11.5744 39.0177 11.4078 38.7476 11.4824 38.4817C11.5768 38.1454 11.6844 37.8145 11.8045 37.4898C11.9003 37.2308 12.1938 37.1101 12.4489 37.2159L13.3726 37.5989C13.6277 37.7047 13.7476 37.9969 13.6536 38.2565C13.5715 38.4835 13.4966 38.7139 13.4292 38.9475C13.3527 39.2129 13.0841 39.3789 12.8155 39.3146L11.843 39.082Z" fill="currentColor"/>
<path fill-rule="evenodd" clip-rule="evenodd" d="M22.8907 33.5727C22.8549 33.2989 23.0479 33.0465 23.3233 33.026C23.5469 33.0093 23.7727 33.0009 24.0002 33.0009C24.2278 33.0009 24.4535 33.0093 24.6771 33.026C24.9525 33.0465 25.1455 33.2989 25.1098 33.5727L24.9804 34.5643C24.9447 34.8381 24.6937 35.0293 24.4181 35.0131C24.2799 35.005 24.1406 35.0009 24.0002 35.0009C23.8598 35.0009 23.7205 35.005 23.5824 35.0131C23.3067 35.0293 23.0557 34.8381 23.02 34.5643L22.8907 33.5727ZM27.254 34.146C27.3598 33.891 27.6531 33.7687 27.9019 33.8885C28.3112 34.0857 28.7033 34.3129 29.0751 34.5672C29.3031 34.7231 29.3434 35.0382 29.1751 35.2572L28.5658 36.0501C28.3976 36.2691 28.0846 36.3085 27.8542 36.1563C27.6233 36.0036 27.3829 35.8644 27.1341 35.7396C26.8872 35.6158 26.7652 35.3248 26.871 35.0698L27.254 34.146ZM18.8253 35.2572C18.657 35.0382 18.6974 34.7231 18.9253 34.5672C19.2971 34.3129 19.6892 34.0857 20.0986 33.8885C20.3474 33.7687 20.6406 33.891 20.7464 34.146L21.1294 35.0698C21.2352 35.3248 21.1132 35.6158 20.8664 35.7396C20.6176 35.8644 20.3772 36.0036 20.1462 36.1563C19.9159 36.3085 19.6029 36.2691 19.4346 36.0501L18.8253 35.2572ZM30.7439 36.8259C30.9628 36.6577 31.278 36.698 31.4339 36.9259C31.6882 37.2978 31.9154 37.6898 32.1126 38.0992C32.2324 38.348 32.1101 38.6412 31.855 38.747L30.9313 39.1301C30.6762 39.2359 30.3853 39.1138 30.2615 38.867C30.1367 38.6182 29.9974 38.3778 29.8448 38.1469C29.6925 37.9165 29.732 37.6035 29.9509 37.4352L30.7439 36.8259ZM16.1454 38.747C15.8903 38.6412 15.768 38.348 15.8879 38.0992C16.0851 37.6898 16.3123 37.2978 16.5666 36.9259C16.7224 36.698 17.0376 36.6577 17.2566 36.8259L18.0495 37.4352C18.2684 37.6035 18.3079 37.9165 18.1556 38.1469C18.003 38.3778 17.8637 38.6182 17.7389 38.867C17.6151 39.1138 17.3242 39.2359 17.0691 39.1301L16.1454 38.747ZM32.4284 40.8913C32.7022 40.8556 32.9546 41.0486 32.9751 41.324C32.9918 41.5476 33.0002 41.7733 33.0002 42.0009C33.0002 42.2284 32.9918 42.4541 32.9751 42.6777C32.9546 42.9531 32.7022 43.1461 32.4284 43.1104L31.4368 42.9811C31.163 42.9453 30.9718 42.6944 30.988 42.4187C30.9961 42.2806 31.0002 42.1412 31.0002 42.0009C31.0002 41.8605 30.9961 41.7212 30.988 41.583C30.9718 41.3073 31.163 41.0564 31.4368 41.0207L32.4284 40.8913ZM15.0002 42.0009C15.0002 41.7733 15.0087 41.5476 15.0253 41.324C15.0458 41.0486 15.2982 40.8556 15.572 40.8913L16.5636 41.0207C16.8375 41.0564 17.0286 41.3073 17.0124 41.583C17.0043 41.7212 17.0002 41.8605 17.0002 42.0009C17.0002 42.1412 17.0043 42.2806 17.0124 42.4187C17.0286 42.6944 16.8375 42.9453 16.5636 42.9811L15.572 43.1104C15.2982 43.1461 15.0458 42.9531 15.0253 42.6777C15.0087 42.4541 15.0002 42.2284 15.0002 42.0009Z" fill="currentColor"/>
<path fill-rule="evenodd" clip-rule="evenodd" d="M22.9205 25.5356C22.9027 25.2601 23.1117 25.0215 23.3876 25.0117C23.591 25.0045 23.7952 25.0009 24.0002 25.0009C24.2052 25.0009 24.4094 25.0045 24.6128 25.0117C24.8888 25.0215 25.0977 25.2601 25.0799 25.5356L25.0154 26.5336C24.9976 26.8091 24.7598 27.0172 24.4838 27.0085C24.3232 27.0034 24.162 27.0009 24.0002 27.0009C23.8384 27.0009 23.6772 27.0034 23.5166 27.0085C23.2406 27.0172 23.0028 26.8091 22.985 26.5336L22.9205 25.5356ZM27.2198 25.8149C27.2734 25.544 27.5367 25.3671 27.8059 25.4287C28.2064 25.5203 28.6015 25.6261 28.9907 25.7454C29.2547 25.8264 29.3946 26.111 29.3058 26.3725L28.9844 27.3195C28.8957 27.581 28.612 27.7202 28.3477 27.6403C28.0416 27.5478 27.7315 27.4648 27.4175 27.3916C27.1486 27.329 26.9722 27.0668 27.0258 26.7959L27.2198 25.8149ZM18.6946 26.3725C18.6059 26.111 18.7457 25.8264 19.0097 25.7454C19.3989 25.6261 19.7941 25.5203 20.1946 25.4287C20.4638 25.3671 20.727 25.544 20.7806 25.8149L20.9747 26.7959C21.0282 27.0668 20.8519 27.329 20.5829 27.3916C20.2689 27.4648 19.9588 27.5478 19.6528 27.6403C19.3884 27.7202 19.1047 27.581 19.016 27.3195L18.6946 26.3725ZM31.2999 27.1994C31.4222 26.9518 31.7224 26.8496 31.9663 26.9792C32.3278 27.1713 32.6815 27.376 33.0269 27.5928C33.2608 27.7396 33.3218 28.0509 33.1682 28.2803L32.6119 29.1113C32.4583 29.3408 32.1482 29.4015 31.9137 29.2556C31.6414 29.0862 31.3634 28.9252 31.0799 28.7731C30.8365 28.6426 30.7346 28.3435 30.8569 28.0959L31.2999 27.1994ZM14.8322 28.2803C14.6786 28.0509 14.7397 27.7396 14.9736 27.5928C15.3189 27.376 15.6726 27.1713 16.0342 26.9792C16.278 26.8496 16.5783 26.9518 16.7006 27.1994L17.1435 28.0959C17.2659 28.3435 17.1639 28.6426 16.9205 28.7731C16.637 28.9252 16.359 29.0862 16.0867 29.2556C15.8523 29.4015 15.5421 29.3408 15.3885 29.1113L14.8322 28.2803ZM34.8796 29.5954C35.0618 29.3879 35.3783 29.3667 35.5804 29.5549C35.8792 29.8331 36.168 30.1219 36.4462 30.4207C36.6343 30.6228 36.6132 30.9393 36.4057 31.1214L35.6541 31.7811C35.4465 31.9632 35.1312 31.942 34.9423 31.7406C34.7223 31.5061 34.4949 31.2787 34.2604 31.0588C34.059 30.8698 34.0378 30.5545 34.22 30.347L34.8796 29.5954ZM11.5948 31.1214C11.3872 30.9393 11.3661 30.6228 11.5542 30.4207C11.8324 30.1219 12.1212 29.8331 12.42 29.5549C12.6222 29.3667 12.9386 29.3879 13.1208 29.5954L13.7804 30.347C13.9626 30.5545 13.9414 30.8698 13.74 31.0588C13.5055 31.2787 13.2781 31.5061 13.0581 31.7406C12.8692 31.942 12.5539 31.9632 12.3464 31.7811L11.5948 31.1214ZM37.7207 32.8328C37.9502 32.6792 38.2614 32.7403 38.4082 32.9742C38.625 33.3195 38.8298 33.6733 39.0219 34.0348C39.1514 34.2787 39.0492 34.5789 38.8017 34.7012L37.9051 35.1442C37.6576 35.2665 37.3585 35.1645 37.2279 34.9212C37.0758 34.6377 36.9149 34.3596 36.7455 34.0874C36.5996 33.8529 36.6603 33.5428 36.8898 33.3892L37.7207 32.8328ZM9.19876 34.7012C8.95119 34.5789 8.84898 34.2787 8.97855 34.0348C9.17065 33.6733 9.37539 33.3195 9.59218 32.9742C9.73899 32.7403 10.0502 32.6792 10.2797 32.8328L11.1106 33.3892C11.3401 33.5428 11.4008 33.8529 11.2549 34.0874C11.0855 34.3596 10.9246 34.6377 10.7725 34.9212C10.642 35.1645 10.3429 35.2665 10.0953 35.1442L9.19876 34.7012Z" fill="currentColor"/>
<path fill-rule="evenodd" clip-rule="evenodd" d="M34.4409 10.5009L36.2132 8.72857L27.7279 0.243286L17.4704 10.5009H7.16065C6.44293 10.5009 5.78024 10.8854 5.42416 11.5086L0.263514 20.5397C0.0908306 20.8419 0 21.1839 0 21.532V46.0009C0 47.1054 0.895432 48.0009 2 48.0009H46C47.1046 48.0009 48 47.1054 48 46.0009V21.532C48 21.1839 47.9092 20.8419 47.7365 20.5397L42.5758 11.5086C42.2198 10.8854 41.5571 10.5009 40.8394 10.5009H34.4409ZM27.7279 2.36461L17.1213 12.9712L19.151 15.0009H27.8196L34.0919 8.72857L27.7279 2.36461ZM15 12.9712L17.0296 15.0009H12.75C12.3358 15.0009 12 15.3366 12 15.7509C12 16.1651 12.3358 16.5009 12.75 16.5009H35.25C35.6642 16.5009 36 16.1651 36 15.7509C36 15.3366 35.6642 15.0009 35.25 15.0009H29.9409L32.9409 12.0009H40.8394C41.0188 12.0009 41.1845 12.097 41.2735 12.2528L45.7009 20.0009H2.29905L6.72652 12.2528C6.81555 12.097 6.98122 12.0009 7.16065 12.0009H15.9704L15 12.9712ZM1.50097 21.5009C1.50032 21.5112 1.5 21.5216 1.5 21.532V46.0009C1.5 46.277 1.72386 46.5009 2 46.5009H46C46.2761 46.5009 46.5 46.277 46.5 46.0009V21.532C46.5 21.5216 46.4997 21.5112 46.499 21.5009H1.50097Z" fill="currentColor"/>
</g>
<defs>
<clipPath id="clip0_7051_11942">
<rect width="48" height="48" fill="white" transform="translate(0 0.000854492)"/>
</clipPath>
</defs>
</svg>
