<svg width="48" height="48" viewBox="0 0 48 48" fill="none" xmlns="http://www.w3.org/2000/svg">
<g clip-path="url(#clip0_7051_11943)">
<path fill-rule="evenodd" clip-rule="evenodd" d="M23.019 28.5388C22.9977 28.2635 23.2035 28.022 23.4794 28.0111C23.6522 28.0043 23.8258 28.0009 24.0002 28.0009C24.1746 28.0009 24.3482 28.0043 24.521 28.0111C24.7969 28.022 25.0028 28.2635 24.9814 28.5388L24.9039 29.5358C24.8825 29.8111 24.642 30.0158 24.366 30.0068C24.2446 30.0029 24.1227 30.0009 24.0002 30.0009C23.8778 30.0009 23.7558 30.0029 23.6344 30.0068C23.3584 30.0158 23.1179 29.8111 23.0965 29.5358L23.019 28.5388ZM26.9191 28.8436C26.9834 28.575 27.2535 28.4085 27.5194 28.4831C27.8557 28.5774 28.1865 28.685 28.5113 28.8052C28.7702 28.901 28.891 29.1945 28.7852 29.4496L28.4021 30.3733C28.2964 30.6284 28.0042 30.7482 27.7445 30.6543C27.5176 30.5721 27.2871 30.4972 27.0535 30.4299C26.7882 30.3534 26.6222 30.0847 26.6864 29.8162L26.9191 28.8436ZM19.2152 29.4496C19.1095 29.1945 19.2302 28.901 19.4892 28.8052C19.8139 28.685 20.1447 28.5774 20.4811 28.4831C20.7469 28.4085 21.0171 28.575 21.0813 28.8436L21.314 29.8162C21.3783 30.0847 21.2122 30.3534 20.9469 30.4299C20.7133 30.4972 20.4829 30.5721 20.2559 30.6543C19.9962 30.7482 19.7041 30.6284 19.5983 30.3733L19.2152 29.4496ZM30.5326 30.3415C30.6771 30.1062 30.9856 30.0318 31.2152 30.1852C31.5043 30.3785 31.7852 30.583 32.0573 30.7981C32.2739 30.9694 32.298 31.2858 32.1186 31.4957L31.4688 32.2558C31.2893 32.4657 30.9744 32.4894 30.7566 32.3197C30.5652 32.1705 30.3688 32.0275 30.1676 31.891C29.9391 31.736 29.8648 31.429 30.0093 31.1937L30.5326 30.3415ZM15.8818 31.4957C15.7024 31.2858 15.7265 30.9694 15.9431 30.7981C16.2152 30.583 16.4961 30.3785 16.7853 30.1852C17.0148 30.0318 17.3233 30.1062 17.4678 30.3416L17.9911 31.1937C18.1356 31.429 18.0613 31.736 17.8328 31.891C17.6316 32.0275 17.4352 32.1705 17.2438 32.3197C17.026 32.4894 16.7111 32.4657 16.5316 32.2558L15.8818 31.4957ZM33.5054 32.8825C33.7153 32.7031 34.0317 32.7272 34.203 32.9438C34.4181 33.2158 34.6226 33.4968 34.8158 33.7859C34.9693 34.0155 34.8948 34.324 34.6595 34.4685L33.8074 34.9918C33.5721 35.1363 33.2651 35.062 33.1101 34.8334C32.9736 34.6323 32.8306 34.4358 32.6814 34.2445C32.5116 34.0267 32.5354 33.7117 32.7453 33.5323L33.5054 32.8825ZM13.3409 34.4685C13.1056 34.324 13.0312 34.0155 13.1846 33.7859C13.3778 33.4968 13.5823 33.2158 13.7975 32.9438C13.9687 32.7272 14.2852 32.7031 14.4951 32.8825L15.2552 33.5323C15.4651 33.7117 15.4888 34.0267 15.319 34.2445C15.1698 34.4358 15.0268 34.6323 14.8904 34.8334C14.7353 35.062 14.4284 35.1363 14.1931 34.9918L13.3409 34.4685ZM35.5515 36.2159C35.8066 36.1101 36.1001 36.2308 36.1959 36.4898C36.3161 36.8145 36.4236 37.1454 36.518 37.4817C36.5926 37.7476 36.426 38.0177 36.1575 38.082L35.1849 38.3146C34.9163 38.3789 34.6477 38.2129 34.5712 37.9475C34.5038 37.7139 34.429 37.4835 34.3468 37.2565C34.2528 36.9969 34.3727 36.7047 34.6278 36.5989L35.5515 36.2159ZM11.843 38.082C11.5744 38.0177 11.4078 37.7476 11.4824 37.4817C11.5768 37.1454 11.6844 36.8145 11.8045 36.4898C11.9003 36.2308 12.1938 36.1101 12.4489 36.2159L13.3726 36.5989C13.6277 36.7047 13.7476 36.9969 13.6536 37.2565C13.5715 37.4835 13.4966 37.7139 13.4292 37.9475C13.3527 38.2129 13.0841 38.3789 12.8155 38.3146L11.843 38.082Z" fill="currentColor"/>
<path fill-rule="evenodd" clip-rule="evenodd" d="M22.8907 32.5727C22.8549 32.2989 23.0479 32.0465 23.3233 32.026C23.5469 32.0093 23.7727 32.0009 24.0002 32.0009C24.2278 32.0009 24.4535 32.0093 24.6771 32.026C24.9525 32.0465 25.1455 32.2989 25.1098 32.5727L24.9804 33.5643C24.9447 33.8381 24.6937 34.0293 24.4181 34.0131C24.2799 34.005 24.1406 34.0009 24.0002 34.0009C23.8598 34.0009 23.7205 34.005 23.5824 34.0131C23.3067 34.0293 23.0557 33.8381 23.02 33.5643L22.8907 32.5727ZM27.254 33.146C27.3598 32.891 27.6531 32.7687 27.9019 32.8885C28.3112 33.0857 28.7033 33.3129 29.0751 33.5672C29.3031 33.7231 29.3434 34.0382 29.1751 34.2572L28.5658 35.0501C28.3976 35.2691 28.0846 35.3085 27.8542 35.1563C27.6233 35.0036 27.3829 34.8644 27.1341 34.7396C26.8872 34.6158 26.7652 34.3248 26.871 34.0698L27.254 33.146ZM18.8253 34.2572C18.657 34.0382 18.6974 33.7231 18.9253 33.5672C19.2971 33.3129 19.6892 33.0857 20.0986 32.8885C20.3474 32.7687 20.6406 32.891 20.7464 33.146L21.1294 34.0698C21.2352 34.3248 21.1132 34.6158 20.8664 34.7396C20.6176 34.8644 20.3772 35.0036 20.1462 35.1563C19.9159 35.3085 19.6029 35.2691 19.4346 35.0501L18.8253 34.2572ZM30.7439 35.8259C30.9628 35.6577 31.278 35.698 31.4339 35.9259C31.6882 36.2978 31.9154 36.6898 32.1126 37.0992C32.2324 37.348 32.1101 37.6412 31.855 37.747L30.9313 38.1301C30.6762 38.2359 30.3853 38.1138 30.2615 37.867C30.1367 37.6182 29.9974 37.3778 29.8448 37.1469C29.6925 36.9165 29.732 36.6035 29.9509 36.4352L30.7439 35.8259ZM16.1454 37.747C15.8903 37.6412 15.768 37.348 15.8879 37.0992C16.0851 36.6898 16.3123 36.2978 16.5666 35.9259C16.7224 35.698 17.0376 35.6577 17.2566 35.8259L18.0495 36.4352C18.2684 36.6035 18.3079 36.9165 18.1556 37.1469C18.003 37.3778 17.8637 37.6182 17.7389 37.867C17.6151 38.1138 17.3242 38.2359 17.0691 38.1301L16.1454 37.747ZM32.4284 39.8913C32.7022 39.8556 32.9546 40.0486 32.9751 40.324C32.9918 40.5476 33.0002 40.7733 33.0002 41.0009C33.0002 41.2284 32.9918 41.4541 32.9751 41.6777C32.9546 41.9531 32.7022 42.1461 32.4284 42.1104L31.4368 41.9811C31.163 41.9453 30.9718 41.6944 30.988 41.4187C30.9961 41.2806 31.0002 41.1412 31.0002 41.0009C31.0002 40.8605 30.9961 40.7212 30.988 40.583C30.9718 40.3073 31.163 40.0564 31.4368 40.0207L32.4284 39.8913ZM15.0002 41.0009C15.0002 40.7733 15.0087 40.5476 15.0253 40.324C15.0458 40.0486 15.2982 39.8556 15.572 39.8913L16.5636 40.0207C16.8375 40.0564 17.0286 40.3073 17.0124 40.583C17.0043 40.7212 17.0002 40.8605 17.0002 41.0009C17.0002 41.1412 17.0043 41.2806 17.0124 41.4187C17.0286 41.6944 16.8375 41.9453 16.5636 41.9811L15.572 42.1104C15.2982 42.1461 15.0458 41.9531 15.0253 41.6777C15.0087 41.4541 15.0002 41.2284 15.0002 41.0009Z" fill="currentColor"/>
<path fill-rule="evenodd" clip-rule="evenodd" d="M22.9205 24.5356C22.9027 24.2601 23.1117 24.0215 23.3876 24.0117C23.591 24.0045 23.7952 24.0009 24.0002 24.0009C24.2052 24.0009 24.4094 24.0045 24.6128 24.0117C24.8888 24.0215 25.0977 24.2601 25.0799 24.5356L25.0154 25.5336C24.9976 25.8091 24.7598 26.0172 24.4838 26.0085C24.3232 26.0034 24.162 26.0009 24.0002 26.0009C23.8384 26.0009 23.6772 26.0034 23.5166 26.0085C23.2406 26.0172 23.0028 25.8091 22.985 25.5336L22.9205 24.5356ZM27.2198 24.8149C27.2734 24.544 27.5367 24.3671 27.8059 24.4287C28.2064 24.5203 28.6015 24.6261 28.9907 24.7454C29.2547 24.8264 29.3946 25.111 29.3058 25.3725L28.9844 26.3195C28.8957 26.581 28.612 26.7202 28.3477 26.6403C28.0416 26.5478 27.7315 26.4648 27.4175 26.3916C27.1486 26.329 26.9722 26.0668 27.0258 25.7959L27.2198 24.8149ZM18.6946 25.3725C18.6059 25.111 18.7457 24.8264 19.0097 24.7454C19.3989 24.6261 19.7941 24.5203 20.1946 24.4287C20.4638 24.3671 20.727 24.544 20.7806 24.8149L20.9747 25.7959C21.0282 26.0668 20.8519 26.329 20.5829 26.3916C20.2689 26.4648 19.9588 26.5478 19.6528 26.6403C19.3884 26.7202 19.1047 26.581 19.016 26.3195L18.6946 25.3725ZM31.2999 26.1994C31.4222 25.9518 31.7224 25.8496 31.9663 25.9792C32.3278 26.1713 32.6815 26.376 33.0269 26.5928C33.2608 26.7396 33.3218 27.0509 33.1682 27.2803L32.6119 28.1113C32.4583 28.3408 32.1482 28.4015 31.9137 28.2556C31.6414 28.0862 31.3634 27.9252 31.0799 27.7731C30.8365 27.6426 30.7346 27.3435 30.8569 27.0959L31.2999 26.1994ZM14.8322 27.2803C14.6786 27.0509 14.7397 26.7396 14.9736 26.5928C15.3189 26.376 15.6726 26.1713 16.0342 25.9792C16.278 25.8496 16.5783 25.9518 16.7006 26.1994L17.1435 27.0959C17.2659 27.3435 17.1639 27.6426 16.9205 27.7731C16.637 27.9252 16.359 28.0862 16.0867 28.2556C15.8523 28.4015 15.5421 28.3408 15.3885 28.1113L14.8322 27.2803ZM34.8796 28.5954C35.0618 28.3879 35.3783 28.3667 35.5804 28.5549C35.8792 28.8331 36.168 29.1219 36.4462 29.4207C36.6343 29.6228 36.6132 29.9393 36.4057 30.1214L35.6541 30.7811C35.4465 30.9632 35.1312 30.942 34.9423 30.7406C34.7223 30.5061 34.4949 30.2787 34.2604 30.0588C34.059 29.8698 34.0378 29.5545 34.22 29.347L34.8796 28.5954ZM11.5948 30.1214C11.3872 29.9393 11.3661 29.6228 11.5542 29.4207C11.8324 29.1219 12.1212 28.8331 12.42 28.5549C12.6222 28.3667 12.9386 28.3879 13.1208 28.5954L13.7804 29.347C13.9626 29.5545 13.9414 29.8698 13.74 30.0588C13.5055 30.2787 13.2781 30.5061 13.0581 30.7406C12.8692 30.942 12.5539 30.9632 12.3464 30.7811L11.5948 30.1214ZM37.7207 31.8328C37.9502 31.6792 38.2614 31.7403 38.4082 31.9742C38.625 32.3195 38.8298 32.6733 39.0219 33.0348C39.1514 33.2787 39.0492 33.5789 38.8017 33.7012L37.9051 34.1442C37.6576 34.2665 37.3585 34.1645 37.2279 33.9212C37.0758 33.6377 36.9149 33.3596 36.7455 33.0874C36.5996 32.8529 36.6603 32.5428 36.8898 32.3892L37.7207 31.8328ZM9.19876 33.7012C8.95119 33.5789 8.84898 33.2787 8.97855 33.0348C9.17065 32.6733 9.37539 32.3195 9.59218 31.9742C9.73899 31.7403 10.0502 31.6792 10.2797 31.8328L11.1106 32.3892C11.3401 32.5428 11.4008 32.8529 11.2549 33.0874C11.0855 33.3596 10.9246 33.6377 10.7725 33.9212C10.642 34.1645 10.3429 34.2665 10.0953 34.1442L9.19876 33.7012Z" fill="currentColor"/>
<path d="M21.7735 42.1826V42.9341H18.4468V42.2928L20.02 40.6061C20.1781 40.4302 20.3028 40.2754 20.3941 40.1418C20.4854 40.006 20.551 39.8846 20.5911 39.7777C20.6334 39.6686 20.6546 39.5651 20.6546 39.4671C20.6546 39.3202 20.6301 39.1944 20.5811 39.0897C20.5321 38.9828 20.4598 38.9004 20.364 38.8425C20.2705 38.7846 20.1547 38.7557 20.0166 38.7557C19.8697 38.7557 19.7428 38.7913 19.6359 38.8626C19.5312 38.9338 19.4511 39.0329 19.3954 39.1598C19.342 39.2868 19.3152 39.4304 19.3152 39.5907H18.35C18.35 39.3012 18.419 39.0363 18.5571 38.7958C18.6951 38.5531 18.8899 38.3605 19.1416 38.218C19.3932 38.0732 19.6915 38.0009 20.0367 38.0009C20.3774 38.0009 20.6646 38.0565 20.8984 38.1679C21.1344 38.277 21.3126 38.4351 21.4328 38.6421C21.5553 38.847 21.6165 39.0919 21.6165 39.3769C21.6165 39.5373 21.5909 39.6942 21.5397 39.8479C21.4885 39.9993 21.415 40.1507 21.3192 40.3021C21.2257 40.4513 21.1122 40.6027 20.9786 40.7564C20.845 40.91 20.6969 41.0692 20.5343 41.234L19.6893 42.1826H21.7735Z" fill="currentColor"/>
<path d="M25.7334 40.075V40.9167C25.7334 41.2819 25.6944 41.5969 25.6165 41.8619C25.5386 42.1247 25.4261 42.3406 25.2792 42.5099C25.1344 42.6769 24.9619 42.8005 24.7615 42.8806C24.5611 42.9608 24.3384 43.0009 24.0935 43.0009C23.8975 43.0009 23.7149 42.9764 23.5457 42.9274C23.3765 42.8762 23.2239 42.7971 23.0881 42.6902C22.9545 42.5834 22.8387 42.4486 22.7408 42.2861C22.645 42.1213 22.5715 41.9254 22.5203 41.6982C22.4691 41.4711 22.4435 41.2106 22.4435 40.9167V40.075C22.4435 39.7098 22.4825 39.397 22.5604 39.1365C22.6406 38.8737 22.753 38.6588 22.8977 38.4918C23.0447 38.3248 23.2184 38.2024 23.4188 38.1244C23.6192 38.0443 23.8418 38.0042 24.0868 38.0042C24.2827 38.0042 24.4642 38.0298 24.6312 38.081C24.8004 38.13 24.953 38.2068 25.0888 38.3115C25.2246 38.4161 25.3404 38.5508 25.4361 38.7156C25.5319 38.8782 25.6054 39.073 25.6566 39.3001C25.7078 39.525 25.7334 39.7833 25.7334 40.075ZM24.7681 41.0436V39.9447C24.7681 39.7688 24.7581 39.6152 24.7381 39.4838C24.7203 39.3524 24.6924 39.2411 24.6546 39.1498C24.6167 39.0563 24.57 38.9806 24.5143 38.9227C24.4586 38.8648 24.3952 38.8225 24.3239 38.7958C24.2527 38.7691 24.1736 38.7557 24.0868 38.7557C23.9777 38.7557 23.8808 38.7769 23.7962 38.8192C23.7138 38.8615 23.6437 38.9294 23.5858 39.0229C23.5279 39.1142 23.4834 39.2367 23.4522 39.3903C23.4232 39.5417 23.4088 39.7265 23.4088 39.9447V41.0436C23.4088 41.2195 23.4177 41.3743 23.4355 41.5079C23.4555 41.6415 23.4845 41.7561 23.5223 41.8519C23.5624 41.9454 23.6092 42.0222 23.6626 42.0824C23.7183 42.1402 23.7817 42.1826 23.853 42.2093C23.9265 42.236 24.0066 42.2494 24.0935 42.2494C24.2003 42.2494 24.295 42.2282 24.3774 42.1859C24.462 42.1414 24.5332 42.0723 24.5911 41.9788C24.6512 41.8831 24.6958 41.7584 24.7247 41.6047C24.7537 41.4511 24.7681 41.264 24.7681 41.0436Z" fill="currentColor"/>
<path d="M29.7468 40.075V40.9167C29.7468 41.2819 29.7078 41.5969 29.6299 41.8619C29.5519 42.1247 29.4395 42.3406 29.2925 42.5099C29.1478 42.6769 28.9752 42.8005 28.7748 42.8806C28.5744 42.9608 28.3518 43.0009 28.1068 43.0009C27.9109 43.0009 27.7283 42.9764 27.5591 42.9274C27.3898 42.8762 27.2373 42.7971 27.1015 42.6902C26.9679 42.5834 26.8521 42.4486 26.7541 42.2861C26.6584 42.1213 26.5849 41.9254 26.5337 41.6982C26.4825 41.4711 26.4569 41.2106 26.4569 40.9167V40.075C26.4569 39.7098 26.4958 39.397 26.5738 39.1365C26.6539 38.8737 26.7664 38.6588 26.9111 38.4918C27.0581 38.3248 27.2317 38.2024 27.4321 38.1244C27.6325 38.0443 27.8552 38.0042 28.1001 38.0042C28.2961 38.0042 28.4776 38.0298 28.6446 38.081C28.8138 38.13 28.9663 38.2068 29.1021 38.3115C29.238 38.4161 29.3538 38.5508 29.4495 38.7156C29.5453 38.8782 29.6187 39.073 29.6699 39.3001C29.7212 39.525 29.7468 39.7833 29.7468 40.075ZM28.7815 41.0436V39.9447C28.7815 39.7688 28.7715 39.6152 28.7514 39.4838C28.7336 39.3524 28.7058 39.2411 28.6679 39.1498C28.6301 39.0563 28.5833 38.9806 28.5277 38.9227C28.472 38.8648 28.4085 38.8225 28.3373 38.7958C28.266 38.7691 28.187 38.7557 28.1001 38.7557C27.991 38.7557 27.8942 38.7769 27.8096 38.8192C27.7272 38.8615 27.657 38.9294 27.5991 39.0229C27.5412 39.1142 27.4967 39.2367 27.4655 39.3903C27.4366 39.5417 27.4221 39.7265 27.4221 39.9447V41.0436C27.4221 41.2195 27.431 41.3743 27.4488 41.5079C27.4689 41.6415 27.4978 41.7561 27.5357 41.8519C27.5758 41.9454 27.6225 42.0222 27.676 42.0824C27.7316 42.1402 27.7951 42.1826 27.8663 42.2093C27.9398 42.236 28.02 42.2494 28.1068 42.2494C28.2137 42.2494 28.3083 42.2282 28.3907 42.1859C28.4753 42.1414 28.5466 42.0723 28.6045 41.9788C28.6646 41.8831 28.7091 41.7584 28.7381 41.6047C28.767 41.4511 28.7815 41.264 28.7815 41.0436Z" fill="currentColor"/>
<path fill-rule="evenodd" clip-rule="evenodd" d="M34.4409 10.5009L36.2132 8.72857L27.7279 0.243286L17.4704 10.5009H7.16065C6.44293 10.5009 5.78024 10.8854 5.42416 11.5086L0.263514 20.5397C0.0908306 20.8419 0 21.1839 0 21.532V46.0009C0 47.1054 0.895432 48.0009 2 48.0009H46C47.1046 48.0009 48 47.1054 48 46.0009V21.532C48 21.1839 47.9092 20.8419 47.7365 20.5397L42.5758 11.5086C42.2198 10.8854 41.5571 10.5009 40.8394 10.5009H34.4409ZM27.7279 2.36461L17.1213 12.9712L19.151 15.0009H27.8196L34.0919 8.72857L27.7279 2.36461ZM15 12.9712L17.0296 15.0009H12.75C12.3358 15.0009 12 15.3366 12 15.7509C12 16.1651 12.3358 16.5009 12.75 16.5009H35.25C35.6642 16.5009 36 16.1651 36 15.7509C36 15.3366 35.6642 15.0009 35.25 15.0009H29.9409L32.9409 12.0009H40.8394C41.0188 12.0009 41.1845 12.097 41.2735 12.2528L45.7009 20.0009H2.29905L6.72652 12.2528C6.81555 12.097 6.98122 12.0009 7.16065 12.0009H15.9704L15 12.9712ZM1.50097 21.5009C1.50032 21.5112 1.5 21.5216 1.5 21.532V46.0009C1.5 46.277 1.72386 46.5009 2 46.5009H46C46.2761 46.5009 46.5 46.277 46.5 46.0009V21.532C46.5 21.5216 46.4997 21.5112 46.499 21.5009H1.50097Z" fill="currentColor"/>
</g>
<defs>
<clipPath id="clip0_7051_11943">
<rect width="48" height="48" fill="white" transform="translate(0 0.000854492)"/>
</clipPath>
</defs>
</svg>
