<svg width="48" height="48" viewBox="0 0 48 48" fill="none" xmlns="http://www.w3.org/2000/svg">
<g clip-path="url(#clip0_7051_12084)">
<path fill-rule="evenodd" clip-rule="evenodd" d="M36.4019 0.250977C33.4572 0.250977 30.7612 1.12524 28.7834 2.57564C26.806 4.02572 25.5049 6.091 25.5049 8.44215C25.5049 10.7933 26.806 12.8586 28.7834 14.3087C30.7612 15.7591 33.4572 16.6333 36.4019 16.6333C37.2658 16.6333 38.1071 16.5581 38.9145 16.4157L44.6053 20.799L43.4458 14.7009C45.7458 13.2382 47.2989 11.0155 47.2989 8.44215C47.2989 6.091 45.9978 4.02572 44.0205 2.57564C42.0426 1.12524 39.3466 0.250977 36.4019 0.250977ZM27.0049 8.44215C27.0049 6.68366 27.9753 5.02835 29.6704 3.78525C31.3651 2.54248 33.7426 1.75098 36.4019 1.75098C39.0612 1.75098 41.4387 2.54248 43.1334 3.78525C44.8285 5.02835 45.7989 6.68366 45.7989 8.44215C45.7989 10.488 44.4793 12.4038 42.2409 13.6757L41.7744 13.9407L42.3947 17.2029L39.2923 14.8133L38.957 14.8811C38.1455 15.0452 37.2886 15.1333 36.4019 15.1333C33.7426 15.1333 31.3651 14.3418 29.6704 13.0991C27.9753 11.856 27.0049 10.2006 27.0049 8.44215Z" fill="currentColor"/>
<path fill-rule="evenodd" clip-rule="evenodd" d="M18.3626 14.5843C13.5468 14.5843 9.15774 16.0409 5.95553 18.4319C2.75321 20.8229 0.700928 24.1844 0.700928 27.9618C0.700928 32.2965 3.39659 36.073 7.44053 38.4828L3.89626 46.8691L13.6559 40.8604C15.1554 41.1727 16.7339 41.3392 18.3626 41.3392C23.1785 41.3392 27.5675 39.8827 30.7697 37.4917C33.972 35.1006 36.0243 31.7392 36.0243 27.9618C36.0243 24.1844 33.972 20.8229 30.7697 18.4319C27.5675 16.0409 23.1785 14.5843 18.3626 14.5843ZM2.20093 27.9618C2.20093 24.7652 3.93445 21.8129 6.85297 19.6338C9.77159 17.4545 13.8384 16.0843 18.3626 16.0843C22.8869 16.0843 26.9537 17.4545 29.8723 19.6338C32.7908 21.8129 34.5243 24.7652 34.5243 27.9618C34.5243 31.1583 32.7908 34.1106 29.8723 36.2898C26.9537 38.469 22.8869 39.8392 18.3626 39.8392C16.7338 39.8392 15.1628 39.6615 13.6824 39.3317L13.3853 39.2655L7.10374 43.1329L9.34554 37.8284L8.74996 37.5032C4.70588 35.2951 2.20093 31.7985 2.20093 27.9618Z" fill="currentColor"/>
</g>
<defs>
<clipPath id="clip0_7051_12084">
<rect width="48" height="48" fill="white" transform="translate(0 0.000976562)"/>
</clipPath>
</defs>
</svg>
