<svg width="48" height="48" viewBox="0 0 48 48" fill="none" xmlns="http://www.w3.org/2000/svg">
<g>
<path fill-rule="evenodd" clip-rule="evenodd" d="M13 21.001V32.001H19V21.001H13ZM17.5 22.501H14.5V24.751H17.5V22.501ZM14.5 30.501V26.251H17.5V30.501H14.5Z" fill="currentColor"/>
<path fill-rule="evenodd" clip-rule="evenodd" d="M21 21.001V32.001H27V21.001H21ZM25.5 24.751V22.501H22.5V24.751H25.5ZM22.5 30.501V26.251H25.5V30.501H22.5Z" fill="currentColor"/>
<path fill-rule="evenodd" clip-rule="evenodd" d="M29 21.001V32.001H35V21.001H29ZM33.5 22.501H30.5V24.751H33.5V22.501ZM30.5 30.501V26.251H33.5V30.501H30.5Z" fill="currentColor"/>
<path fill-rule="evenodd" clip-rule="evenodd" d="M29 36.001V43.001H35V36.001H29ZM33.5 37.501H30.5V41.501H33.5V37.501Z" fill="currentColor"/>
<path fill-rule="evenodd" clip-rule="evenodd" d="M13 36.001V43.001H19V36.001H13ZM17.5 37.501H14.5V41.501H17.5V37.501Z" fill="currentColor"/>
<path fill-rule="evenodd" clip-rule="evenodd" d="M3 42.001V31.001H8V42.001H3ZM4.5 32.501H6.5V36.751H4.5V32.501ZM4.5 38.251V40.501H6.5V38.251H4.5Z" fill="currentColor"/>
<path fill-rule="evenodd" clip-rule="evenodd" d="M40 42.001V31.001H45V42.001H40ZM41.5 32.501H43.5V36.751H41.5V32.501ZM41.5 38.251V40.501H43.5V38.251H41.5Z" fill="currentColor"/>
<path fill-rule="evenodd" clip-rule="evenodd" d="M33.1701 0.000976562H23.25V8.32676L10 19.6839V26.001H2C0.895431 26.001 0 26.8964 0 28.001V44.001C0 45.1055 0.895432 46.001 2 46.001H10C10 47.1055 10.8954 48.001 12 48.001H36C37.1046 48.001 38 47.1055 38 46.001H46C47.1046 46.001 48 45.1055 48 44.001V28.001C48 26.8964 47.1046 26.001 46 26.001H38V19.6839L24.75 8.32676V6.00098H33.1701L30.5035 3.00098L33.1701 0.000976562ZM29.8299 4.50098H24.75V1.50098H29.8299L28.4965 3.00098L29.8299 4.50098ZM27.5 46.501H36C36.2761 46.501 36.5 46.2771 36.5 46.001V20.3738L24 9.65952L11.5 20.3738V46.001C11.5 46.2771 11.7239 46.501 12 46.501H20.5V36.001H27.5V46.501ZM2 27.501H10V44.501H2C1.72386 44.501 1.5 44.2771 1.5 44.001V28.001C1.5 27.7248 1.72386 27.501 2 27.501ZM46 44.501H38V27.501H46C46.2761 27.501 46.5 27.7248 46.5 28.001V44.001C46.5 44.2771 46.2761 44.501 46 44.501ZM22 46.501H26V37.501H22V46.501Z" fill="currentColor"/>
</g>
</svg>
