<svg width="48" height="48" viewBox="0 0 48 48" fill="none" xmlns="http://www.w3.org/2000/svg">
<g clip-path="url(#clip0_985_3861)">
<path d="M46.5 14.0009C46.5 17.9099 44.7057 21.3998 41.8957 23.692C41.6727 23.8739 41.5638 24.1609 41.6178 24.4436C41.7207 24.9828 42.3409 25.2594 42.7686 24.9153C45.9586 22.3493 48 18.4135 48 14.0009C48 6.26887 41.732 0.000854492 34 0.000854492C29.2277 0.000854492 25.0131 2.38868 22.4858 6.03476C22.173 6.48604 22.4935 7.08502 23.0388 7.14918C23.3247 7.1828 23.6029 7.05354 23.7685 6.81812C26.0302 3.60225 29.7697 1.50085 34 1.50085C40.9036 1.50085 46.5 7.0973 46.5 14.0009Z" fill="currentColor"/>
<path fill-rule="evenodd" clip-rule="evenodd" d="M20.7645 29.8179V27.5993C20.7645 26.7479 20.6963 26.0022 20.5598 25.3621C20.4234 24.7157 20.225 24.1657 19.9645 23.7121C19.7103 23.2522 19.4002 22.8793 19.0344 22.5934C18.6747 22.3076 18.2654 22.0994 17.8066 21.9689C17.3539 21.8322 16.8578 21.7638 16.3183 21.7638C15.6486 21.7638 15.0409 21.8694 14.4952 22.0807C13.9557 22.292 13.4906 22.6307 13.1 23.0968C12.7093 23.5567 12.4086 24.1564 12.1977 24.896C11.9869 25.6293 11.8815 26.5304 11.8815 27.5993V29.8179C11.8815 30.6693 11.9497 31.4182 12.0861 32.0645C12.2287 32.7108 12.4272 33.2671 12.6814 33.7331C12.9418 34.193 13.255 34.569 13.6209 34.8611C13.9867 35.1532 14.396 35.3676 14.8487 35.5043C15.3075 35.641 15.8036 35.7094 16.3369 35.7094C17.0066 35.7094 17.6112 35.6006 18.1507 35.3831C18.6964 35.1656 19.1646 34.8238 19.5553 34.3577C19.9459 33.8916 20.2436 33.2857 20.4482 32.5399C20.659 31.788 20.7645 30.8806 20.7645 29.8179ZM18.5228 27.2637V30.1349C18.5228 30.8123 18.4763 31.3933 18.3833 31.8781C18.2902 32.3628 18.1507 32.7575 17.9647 33.062C17.7787 33.3603 17.5492 33.5778 17.2764 33.7145C17.0035 33.8512 16.6904 33.9196 16.3369 33.9196C16.0579 33.9196 15.8005 33.8761 15.5649 33.7891C15.3355 33.7021 15.1308 33.5654 14.951 33.3789C14.7774 33.1863 14.6285 32.9439 14.5045 32.6518C14.3805 32.3535 14.2875 31.9962 14.2255 31.5798C14.1635 31.1634 14.1324 30.6818 14.1324 30.1349V27.2637C14.1324 26.5863 14.179 26.0115 14.272 25.5392C14.3712 25.0606 14.5138 24.6753 14.6998 24.3833C14.8859 24.0912 15.1153 23.8799 15.3882 23.7494C15.661 23.6126 15.9711 23.5443 16.3183 23.5443C16.6036 23.5443 16.8609 23.5878 17.0903 23.6748C17.3198 23.7556 17.5244 23.8892 17.7042 24.0756C17.8841 24.2559 18.0329 24.492 18.1507 24.7841C18.2747 25.07 18.3678 25.4211 18.4298 25.8375C18.4918 26.2476 18.5228 26.7231 18.5228 27.2637Z" fill="currentColor"/>
<path d="M23.9981 34.9636L24.0017 34.3584C24.0049 33.8081 23.5596 33.3603 23.0093 33.3603C22.4612 33.3603 22.0169 33.8046 22.0169 34.3527V35.0475C22.0169 35.4391 21.9735 35.7964 21.8867 36.1196C21.7999 36.4427 21.6852 36.7472 21.5425 37.0331C21.5208 37.0768 21.4986 37.1203 21.4761 37.1639C21.2684 37.5655 21.3908 38.0694 21.7815 38.2971C22.0735 38.4672 22.4463 38.4408 22.6762 38.1931C23.0123 37.831 23.2949 37.4071 23.5238 36.9212C23.84 36.2501 23.9981 35.5975 23.9981 34.9636Z" fill="currentColor"/>
<path d="M28.7925 30.6196C29.2868 30.6196 29.6875 30.219 29.6875 29.7247C29.6875 29.2305 29.2868 28.8298 28.7925 28.8298H25.6618C25.1676 28.8298 24.7669 29.2305 24.7669 29.7247C24.7669 30.219 25.1676 30.6196 25.6618 30.6196H28.7925Z" fill="currentColor"/>
<path fill-rule="evenodd" clip-rule="evenodd" d="M20.5 48.0009C31.2696 48.0009 40 39.2704 40 28.5009C40 17.7313 31.2696 9.00085 20.5 9.00085C9.73045 9.00085 1 17.7313 1 28.5009C1 39.2704 9.73045 48.0009 20.5 48.0009ZM20.5 46.5009C30.4411 46.5009 38.5 38.442 38.5 28.5009C38.5 18.5597 30.4411 10.5009 20.5 10.5009C10.5589 10.5009 2.5 18.5597 2.5 28.5009C2.5 38.442 10.5589 46.5009 20.5 46.5009Z" fill="currentColor"/>
</g>
<defs>
<clipPath id="clip0_985_3861">
<rect width="48" height="48" fill="white" transform="translate(0 0.000854492)"/>
</clipPath>
</defs>
</svg>
