<svg width="48" height="48" viewBox="0 0 48 48" fill="none" xmlns="http://www.w3.org/2000/svg">
<path d="M20.2929 25.3537C20.6835 25.7442 21.3166 25.7442 21.7072 25.3537L35.0001 12.0608C35.2929 11.7679 35.2929 11.293 35.0001 11.0001C34.7072 10.7072 34.2323 10.7072 33.9394 11.0001L21.0001 23.9395L15.5607 18.5001C15.2678 18.2072 14.793 18.2072 14.5001 18.5001C14.2072 18.793 14.2072 19.2679 14.5001 19.5608L20.2929 25.3537Z" fill="currentColor"/>
<path fill-rule="evenodd" clip-rule="evenodd" d="M45.3728 35.7152C45.3728 36.8198 44.4774 37.7152 43.3728 37.7152H34.5296V45.674C34.5296 46.5522 33.4786 47.0039 32.8414 46.3995L23.6864 37.7152H4C2.89543 37.7152 2 36.8198 2 35.7152V2.00092C2 0.896346 2.89543 0.000915527 4 0.000915527H43.3728C44.4774 0.000915527 45.3728 0.896349 45.3728 2.00092V35.7152ZM34.0296 36.2152C33.4773 36.2152 33.0296 36.6629 33.0296 37.2152V44.5105L24.574 36.4897C24.3882 36.3134 24.1419 36.2152 23.8858 36.2152H4C3.72386 36.2152 3.5 35.9913 3.5 35.7152V2.00092C3.5 1.72477 3.72386 1.50092 4 1.50092H43.3728C43.649 1.50092 43.8728 1.72477 43.8728 2.00092V35.7152C43.8728 35.9913 43.649 36.2152 43.3728 36.2152H34.0296Z" fill="currentColor"/>
</svg>
