<svg width="48" height="48" viewBox="0 0 48 48" fill="none" xmlns="http://www.w3.org/2000/svg">
<path d="M41.3184 11.7977C41.1828 12.1224 41.0828 12.5053 41.0185 12.9467C40.9119 13.6786 41.5313 14.2821 42.271 14.2821C43.0034 14.2821 43.568 13.683 43.7522 12.9741C43.8838 12.4678 44.096 12.0483 44.3887 11.7157L45.8301 10.2977C47.0176 9.06335 47.6113 7.80945 47.6113 6.53601C47.6113 5.10632 47.1699 3.99304 46.2871 3.19617C45.4121 2.39929 44.1895 2.00085 42.6191 2.00085C41.0957 2.00085 39.8691 2.4032 38.9395 3.20789C38.3578 3.7156 37.9565 4.3384 37.7356 5.07626C37.5096 5.83133 38.1769 6.48914 38.9651 6.48914C39.747 6.48914 40.3098 5.77673 40.7953 5.16382C40.854 5.08967 40.919 5.01972 40.9902 4.95398C41.4043 4.57117 41.9473 4.37976 42.6191 4.37976C43.3223 4.37976 43.8535 4.57507 44.2129 4.9657C44.5801 5.34851 44.7637 5.9071 44.7637 6.64148C44.7637 7.19617 44.6074 7.71179 44.2949 8.18835C44.0918 8.50085 43.6074 9.0282 42.8418 9.77039C42.084 10.5048 41.5762 11.1805 41.3184 11.7977Z" fill="currentColor"/>
<path d="M41.166 16.8134C40.877 17.0946 40.7324 17.4657 40.7324 17.9266C40.7324 18.3563 40.8691 18.7157 41.1426 19.0048C41.4238 19.2938 41.8223 19.4384 42.3379 19.4384C42.8535 19.4384 43.252 19.2938 43.5332 19.0048C43.8145 18.7157 43.9551 18.3563 43.9551 17.9266C43.9551 17.4813 43.8105 17.1141 43.5215 16.8251C43.2324 16.5282 42.8379 16.3798 42.3379 16.3798C41.8457 16.3798 41.4551 16.5243 41.166 16.8134Z" fill="currentColor"/>
<path d="M14.0969 29.3269C14.0969 30.1566 13.4243 30.8292 12.5947 30.8292C11.765 30.8292 11.0924 30.1566 11.0924 29.3269C11.0924 28.4973 11.765 27.8247 12.5947 27.8247C13.4243 27.8247 14.0969 28.4973 14.0969 29.3269Z" fill="currentColor"/>
<path d="M28.7827 29.3271C28.7827 30.1567 28.1101 30.8293 27.2804 30.8293C26.4508 30.8293 25.7782 30.1567 25.7782 29.3271C25.7782 28.4974 26.4508 27.8248 27.2804 27.8248C28.1101 27.8248 28.7827 28.4974 28.7827 29.3271Z" fill="currentColor"/>
<path d="M16.0682 37.6335C16.0682 37.2328 16.393 36.908 16.7937 36.908H23.0812C23.4818 36.908 23.8066 37.2328 23.8066 37.6335C23.8066 38.0342 23.4818 38.359 23.0812 38.359H16.7937C16.393 38.359 16.0682 38.0342 16.0682 37.6335Z" fill="currentColor"/>
<path fill-rule="evenodd" clip-rule="evenodd" d="M27.067 6.07538C28.4605 6.73448 29.6235 7.69466 30.1387 9.05807C30.2874 9.07041 30.4459 9.09267 30.6077 9.12129C31.0813 9.2051 31.657 9.35713 32.2433 9.55285C32.831 9.74898 33.4474 9.99506 34.0004 10.2733C34.5423 10.5459 35.0707 10.8727 35.4433 11.2454C36.1717 11.9738 36.5627 13.0043 36.7599 14.1063C36.9586 15.2173 36.9742 16.4792 36.8874 17.7564C36.7156 20.2845 36.1823 22.7666 35.5764 25.2216C37.4735 25.7308 38.8745 27.4643 38.8745 29.5198C38.8745 31.7784 37.183 33.6483 35.0005 33.9324C34.4675 37.0119 33.0035 39.8479 30.7481 42.1032C27.8609 44.9904 24.022 46.5808 19.9387 46.5812H19.9373C15.8488 46.5812 12.005 44.966 9.11353 42.0329C6.89897 39.7863 5.4505 36.979 4.89943 33.9356C2.70458 33.6629 1 31.7874 1 29.52C1 27.3398 2.57611 25.522 4.64839 25.1428V21.911C3.67544 21.677 2.84296 21.4128 2.21894 21.1216L1.82547 20.9379L1.80138 20.5044C1.61963 17.233 2.20689 14.1344 3.70843 11.5257C5.2148 8.9086 7.61628 6.82946 10.9773 5.57184C11.9992 5.18949 13.6138 4.88451 15.4428 4.71878C17.2851 4.55183 19.3984 4.52141 21.4378 4.71355C23.4685 4.90488 25.4722 5.32101 27.067 6.07538ZM11.4858 6.93078C12.3292 6.61521 13.7945 6.32504 15.5737 6.16381C17.3396 6.00379 19.3627 5.97542 21.3017 6.15811C23.2493 6.3416 25.0658 6.7339 26.4466 7.387C27.7629 8.0096 28.5866 8.81844 28.8636 9.82445C28.8437 9.92944 28.8309 10.0353 28.8213 10.1326C28.8034 10.3135 28.7916 10.5235 28.7807 10.745C28.7772 10.8164 28.7738 10.8898 28.7703 10.9652L28.7701 10.968C28.7513 11.3695 28.7298 11.8272 28.6837 12.3349C28.574 13.5412 28.3286 14.9737 27.684 16.347C27.0445 17.7095 26.0074 19.025 24.2856 20.0079C22.5559 20.9953 20.0886 21.6733 16.5516 21.6733C13.8688 21.6733 10.9995 21.474 8.50652 21.1358C6.26578 20.8318 4.39233 20.4236 3.2303 19.9749C3.13676 17.0956 3.69878 14.451 4.96594 12.2495C6.29385 9.94247 8.42098 8.07756 11.4858 6.93078ZM32.8148 25.0173C33.1014 25.1185 33.3742 25.2018 33.621 25.2698V31.292C33.621 34.9471 32.1978 38.3835 29.6131 40.968C27.029 43.5521 23.5933 44.9754 19.9387 44.9758H19.9373C16.2822 44.9758 12.8439 43.5303 10.2566 40.9058C7.67521 38.2872 6.25355 34.819 6.25355 31.1402V22.2479C6.90703 22.3679 7.59776 22.4767 8.31147 22.5735C10.8691 22.9205 13.8036 23.1242 16.5516 23.1242C20.2694 23.1242 23.0014 22.4117 25.0049 21.268C26.682 20.3106 27.8159 19.0697 28.5818 17.7562C28.5978 18.4273 28.6299 19.0795 28.6837 19.6821C28.7421 20.3355 28.8273 20.9473 28.9506 21.4695C29.0698 21.9741 29.241 22.4703 29.5137 22.8338C30.37 23.9755 31.7462 24.6401 32.8148 25.0173ZM33.2978 23.6491C33.7085 23.7941 34.0894 23.8981 34.3906 23.9695C34.8292 22.1312 35.2934 19.8123 35.4398 17.658C35.5223 16.4445 35.5016 15.3123 35.3316 14.3618C35.16 13.4023 34.8497 12.7037 34.4173 12.2714C34.206 12.06 33.8379 11.8157 33.3483 11.5694C32.8698 11.3287 32.3199 11.108 31.7839 10.9292C31.2467 10.7498 30.7416 10.6185 30.3548 10.55C30.3288 10.5454 30.3036 10.5412 30.2793 10.5372C30.2581 10.8098 30.2325 11.1585 30.2056 11.5643C30.1381 12.5852 30.0632 13.9642 30.0333 15.4007C30.0034 16.8408 30.019 18.322 30.1289 19.553C30.184 20.1691 30.2612 20.7061 30.3627 21.136C30.4684 21.5835 30.5843 21.8431 30.6744 21.9632C31.2691 22.7561 32.311 23.3008 33.2978 23.6491ZM4.64839 26.79C3.4689 27.1375 2.60516 28.2294 2.60516 29.5198C2.60516 30.8248 3.4885 31.9267 4.6883 32.2611C4.66185 31.8898 4.64839 31.5161 4.64839 31.1403V26.79ZM35.2262 31.2921C35.2262 31.6159 35.215 31.9381 35.1952 32.2585C36.3905 31.9212 37.2694 30.8215 37.2694 29.5198C37.2694 28.2294 36.4057 27.1375 35.2262 26.79V31.2921Z" fill="currentColor"/>
</svg>
