<svg width="48" height="48" viewBox="0 0 48 48" fill="none" xmlns="http://www.w3.org/2000/svg">
<path fill-rule="evenodd" clip-rule="evenodd" d="M7 7.00098V5.75098C7 5.33676 6.66421 5.00098 6.25 5.00098C5.83579 5.00098 5.5 5.33676 5.5 5.75098V7.00098L2 7.00098C0.895433 7.00098 0 7.89641 0 9.00098V41.001C0 42.1055 0.895431 43.001 2 43.001H46C47.1046 43.001 48 42.1055 48 41.001V9.00098C48 7.89641 47.1046 7.00098 46 7.00098L43 7.00098V5.75098C43 5.33676 42.6642 5.00098 42.25 5.00098C41.8358 5.00098 41.5 5.33676 41.5 5.75098V7.00098L37 7.00098V5.75098C37 5.33676 36.6642 5.00098 36.25 5.00098C35.8358 5.00098 35.5 5.33676 35.5 5.75098V7.00098L31 7.00098V5.75098C31 5.33676 30.6642 5.00098 30.25 5.00098C29.8358 5.00098 29.5 5.33676 29.5 5.75098V7.00098L25 7.00098V5.75098C25 5.33676 24.6642 5.00098 24.25 5.00098C23.8358 5.00098 23.5 5.33676 23.5 5.75098V7.00098L19 7.00098V5.75098C19 5.33676 18.6642 5.00098 18.25 5.00098C17.8358 5.00098 17.5 5.33676 17.5 5.75098V7.00098L13 7.00098V5.75098C13 5.33676 12.6642 5.00098 12.25 5.00098C11.8358 5.00098 11.5 5.33676 11.5 5.75098V7.00098L7 7.00098ZM5.5 10.251C5.5 10.6652 5.83579 11.001 6.25 11.001C6.66421 11.001 7 10.6652 7 10.251V8.50098L11.5 8.50098V10.251C11.5 10.6652 11.8358 11.001 12.25 11.001C12.6642 11.001 13 10.6652 13 10.251V8.50098L17.5 8.50098V10.251C17.5 10.6652 17.8358 11.001 18.25 11.001C18.6642 11.001 19 10.6652 19 10.251V8.50098L23.5 8.50098V10.251C23.5 10.6652 23.8358 11.001 24.25 11.001C24.6642 11.001 25 10.6652 25 10.251V8.50098L29.5 8.50098V10.251C29.5 10.6652 29.8358 11.001 30.25 11.001C30.6642 11.001 31 10.6652 31 10.251V8.50098L35.5 8.50098V10.251C35.5 10.6652 35.8358 11.001 36.25 11.001C36.6642 11.001 37 10.6652 37 10.251V8.50098L41.5 8.50098V10.251C41.5 10.6652 41.8358 11.001 42.25 11.001C42.6642 11.001 43 10.6652 43 10.251V8.50098H45.5C46.0523 8.50098 46.5 8.94869 46.5 9.50098V40.501C46.5 41.0533 46.0523 41.501 45.5 41.501H2.5C1.94772 41.501 1.5 41.0533 1.5 40.501L1.5 9.50098C1.5 8.94869 1.94772 8.50098 2.5 8.50098L5.5 8.50098V10.251Z" fill="currentColor"/>
<path fill-rule="evenodd" clip-rule="evenodd" d="M41 19.001H26C24.6193 19.001 23.5 20.1203 23.5 21.501V31.501C23.5 32.8817 24.6193 34.001 26 34.001H41C42.3807 34.001 43.5 32.8817 43.5 31.501V21.501C43.5 20.1203 42.3807 19.001 41 19.001ZM25 21.5303V31.501C25 32.0533 25.4477 32.501 26 32.501H41C41.5523 32.501 42 32.0533 42 31.501V21.531L35.3851 27.7568C34.3262 28.7534 32.6745 28.7534 31.6156 27.7568L25 21.5303ZM40.9058 20.501H26.0949L32.6436 26.6645C33.125 27.1175 33.8757 27.1175 34.3571 26.6645L40.9058 20.501Z" fill="currentColor"/>
<path fill-rule="evenodd" clip-rule="evenodd" d="M6.00198 19.8956L6.0132 19.8834C6.64206 19.1999 7.41876 19.001 7.96455 19.001C8.10041 19.001 8.22827 19.005 8.32833 19.0082C8.43742 19.0116 8.50712 19.0138 8.56804 19.0138H8.61487L8.6467 19.0158C8.65076 19.0159 8.65682 19.016 8.66537 19.0161L8.66831 19.0161C8.6969 19.0164 8.76455 19.0172 8.84156 19.0229C9.01577 19.0358 9.27787 19.0752 9.56489 19.2149C10.1555 19.5024 10.4758 20.0217 10.6685 20.4814C10.7882 20.7609 10.9745 21.2132 11.1503 21.6397C11.1808 21.7138 11.2109 21.787 11.2404 21.8584C11.3424 22.1059 11.4365 22.3334 11.5095 22.507C11.5786 22.6714 11.6058 22.731 11.6047 22.7315C11.6044 22.7317 11.6013 22.7261 11.5959 22.7162L11.6054 22.7338L11.6174 22.7577C11.7988 23.1206 12.0366 23.8164 11.6587 24.6194L11.6511 24.6355L11.6431 24.6515C11.6372 24.6632 11.6297 24.6793 11.6204 24.6992C11.559 24.831 11.4199 25.129 11.1647 25.4316C11.1309 25.4792 11.0955 25.5265 11.0595 25.5731C11.324 25.948 11.6897 26.4065 12.1345 26.8032L12.1356 26.8041C12.772 27.3728 13.3016 27.6666 13.728 27.8667C13.9326 27.618 14.0767 27.4299 14.1228 27.358L14.1634 27.2946L14.2101 27.2355C14.4663 26.9118 14.897 26.5205 15.5561 26.4451C16.0353 26.3904 16.4628 26.5464 16.5781 26.5885C16.5864 26.5916 16.593 26.594 16.598 26.5957L16.6079 26.5992L16.6178 26.6028C16.8528 26.6882 17.4048 26.9527 17.8336 27.162C18.245 27.3627 18.699 27.5898 18.9357 27.717C18.9409 27.7193 18.9464 27.7216 18.9519 27.724C19.0676 27.7742 19.23 27.8446 19.3575 27.9103C19.511 27.9895 19.8584 28.1777 20.1204 28.5519L20.1683 28.6204L20.2084 28.6938C20.3918 29.03 20.4191 29.374 20.4279 29.4942C20.4417 29.6827 20.4369 29.8813 20.4192 30.0775C20.3837 30.4727 20.2886 30.9428 20.1093 31.4379C19.8019 32.287 19.0685 32.8691 18.5701 33.1907C18.0396 33.5331 17.3657 33.8399 16.7711 33.9266L16.7619 33.928L16.7619 33.928C16.1087 34.0191 15.163 34.0841 14.1032 33.7454C13.612 33.5952 12.9615 33.3826 12.1348 33.0056C10.2795 32.2112 8.80075 30.9123 7.78928 29.8388C6.82713 28.8177 6.05972 27.717 6.12612 27.7976L6.07141 27.7312L6.02728 27.6629C6.02641 27.6617 6.02199 27.6551 6.01168 27.6402L5.95275 27.5549C5.90351 27.4834 5.83877 27.3882 5.76493 27.2742C5.61785 27.0472 5.43291 26.743 5.25101 26.3841C4.90034 25.692 4.5 24.6788 4.5 23.5569C4.5 21.5307 5.56244 20.3751 5.92186 19.9842C5.94926 19.9544 5.97258 19.929 5.99103 19.9081L6.00198 19.8956ZM12.7411 31.6334C13.4987 31.9801 14.0893 32.1727 14.5516 32.314C15.3091 32.5579 16.0025 32.5194 16.5546 32.4424C17.171 32.3525 18.4293 31.6719 18.6989 30.9272C18.9686 30.1825 18.9686 29.5533 18.8915 29.4121C18.8125 29.2992 18.6442 29.226 18.3865 29.114C18.3511 29.0986 18.314 29.0824 18.2752 29.0654C17.9542 28.8856 16.3877 28.1152 16.1052 28.0125C15.8099 27.9098 15.6301 27.8584 15.3862 28.1666C15.1807 28.4876 14.5644 29.2066 14.3846 29.4121C14.192 29.6304 14.0123 29.656 13.7041 29.5019C13.6484 29.4741 13.5734 29.4416 13.4815 29.4018C13.0226 29.2029 12.1417 28.8213 11.1361 27.9226C10.1859 27.0752 9.55673 26.0351 9.36413 25.7141C9.21005 25.4059 9.35129 25.2133 9.50537 25.0721C9.64661 24.9308 9.85206 24.6997 9.98046 24.5071C10.1184 24.3586 10.1774 24.2363 10.2517 24.0824C10.2674 24.0501 10.2836 24.0163 10.3015 23.9807C10.4042 23.7624 10.3528 23.5826 10.2758 23.4285C10.2316 23.3475 10.0015 22.7891 9.76241 22.2088C9.58471 21.7775 9.40206 21.3342 9.28709 21.0659C9.05993 20.5208 8.83277 20.5181 8.64115 20.5159C8.61615 20.5156 8.59175 20.5153 8.56804 20.5138C8.48252 20.5138 8.39118 20.5109 8.29542 20.5079C8.18989 20.5045 8.07898 20.501 7.96455 20.501C7.75911 20.501 7.41242 20.578 7.1171 20.899C7.09497 20.9242 7.06946 20.9521 7.04123 20.9831C6.709 21.3474 6 22.125 6 23.5569C6 24.9873 6.95282 26.3642 7.22593 26.7589C7.25191 26.7964 7.27175 26.8251 7.28402 26.844C7.30062 26.8642 7.33341 26.9098 7.38179 26.9772C7.8574 27.6393 9.83907 30.398 12.7411 31.6334Z" fill="currentColor"/>
</svg>
