<svg width="48" height="48" viewBox="0 0 48 48" fill="none" xmlns="http://www.w3.org/2000/svg">
<path fill-rule="evenodd" clip-rule="evenodd" d="M22 29.9999C23.6569 29.9999 25 28.6567 25 26.9999C25 25.343 23.6569 23.9999 22 23.9999C20.3431 23.9999 19 25.343 19 26.9999C19 28.6567 20.3431 29.9999 22 29.9999ZM22 28.4999C22.8284 28.4999 23.5 27.8283 23.5 26.9999C23.5 26.1715 22.8284 25.4999 22 25.4999C21.1716 25.4999 20.5 26.1715 20.5 26.9999C20.5 27.8283 21.1716 28.4999 22 28.4999Z" fill="currentColor"/>
<path fill-rule="evenodd" clip-rule="evenodd" d="M29 23.9999C31.2091 23.9999 33 22.209 33 19.9999C33 17.7907 31.2091 15.9999 29 15.9999C26.7909 15.9999 25 17.7907 25 19.9999C25 22.209 26.7909 23.9999 29 23.9999ZM29 22.4999C30.3807 22.4999 31.5 21.3806 31.5 19.9999C31.5 18.6192 30.3807 17.4999 29 17.4999C27.6193 17.4999 26.5 18.6192 26.5 19.9999C26.5 21.3806 27.6193 22.4999 29 22.4999Z" fill="currentColor"/>
<path fill-rule="evenodd" clip-rule="evenodd" d="M6.20866 26.7499H5.01904C4.8415 27.2001 4.6139 27.6059 4.3361 27.9334C3.9512 28.3871 3.41318 28.7499 2.75 28.7499C1.76059 28.7499 1.06676 27.9673 0.664966 27.1637C0.240743 26.3153 0 25.1956 0 23.9999C0 22.8041 0.240742 21.6845 0.664966 20.836C1.06676 20.0325 1.76059 19.2499 2.75 19.2499C3.41318 19.2499 3.95119 19.6126 4.3361 20.0664C4.6139 20.3939 4.8415 20.7996 5.01904 21.2499H6.20866C6.656 18.3318 7.80408 15.6446 9.47572 13.3654L8.63362 12.5233C8.1897 12.7162 7.74186 12.8421 7.31385 12.8773C6.72081 12.926 6.08389 12.802 5.61495 12.3331C4.91534 11.6335 4.97809 10.5895 5.2622 9.73717C5.56217 8.83725 6.18364 7.87532 7.02917 7.02979C7.87469 6.18427 8.83663 5.56279 9.73654 5.26283C10.5889 4.97871 11.6329 4.91596 12.3325 5.61558C12.8014 6.08452 12.9254 6.72144 12.8767 7.31447C12.8415 7.74249 12.7156 8.19033 12.5227 8.63424L13.3647 9.47625C15.6441 7.80429 18.3316 6.65599 21.25 6.20861V5.01941C20.7997 4.84187 20.394 4.61427 20.0665 4.33646C19.6127 3.95156 19.25 3.41355 19.25 2.75037C19.25 1.76096 20.0326 1.06713 20.8362 0.665333C21.6846 0.241108 22.8042 0.000366211 24 0.000366211C25.1958 0.000366211 26.3154 0.241108 27.1638 0.665333C27.9674 1.06713 28.75 1.76096 28.75 2.75037C28.75 3.41355 28.3873 3.95156 27.9335 4.33646C27.606 4.61427 27.2003 4.84187 26.75 5.01941V6.20864C29.6682 6.65603 32.3556 7.80426 34.6349 9.47611L35.4768 8.63424C35.284 8.19033 35.158 7.74249 35.1229 7.31447C35.0742 6.72144 35.1981 6.08452 35.667 5.61558C36.3667 4.91596 37.4106 4.97871 38.263 5.26283C39.1629 5.56279 40.1248 6.18427 40.9703 7.02979C41.8159 7.87532 42.4373 8.83725 42.7373 9.73717C43.0214 10.5895 43.0842 11.6335 42.3846 12.3331C41.9156 12.802 41.2787 12.926 40.6857 12.8773C40.2576 12.8421 39.8098 12.7162 39.3659 12.5233L38.524 13.3653C40.1957 15.6445 41.3438 18.3318 41.7912 21.2499H42.981C43.1585 20.7996 43.3861 20.3939 43.6639 20.0664C44.0488 19.6126 44.5868 19.2499 45.25 19.2499C46.2394 19.2499 46.9332 20.0325 47.335 20.836C47.7593 21.6845 48 22.8041 48 23.9999C48 25.1956 47.7593 26.3153 47.335 27.1637C46.9332 27.9673 46.2394 28.7499 45.25 28.7499C44.5868 28.7499 44.0488 28.3871 43.6639 27.9334C43.3861 27.6059 43.1585 27.2001 42.981 26.7499H41.7912C41.3438 29.6682 40.1955 32.3557 38.5236 34.6351L39.3659 35.4774C39.8098 35.2846 40.2576 35.1586 40.6857 35.1235C41.2787 35.0748 41.9156 35.1987 42.3846 35.6676C43.0842 36.3673 43.0214 37.4112 42.7373 38.2636C42.4373 39.1635 41.8159 40.1254 40.9703 40.9709C40.1248 41.8165 39.1629 42.4379 38.263 42.7379C37.4106 43.022 36.3667 43.0848 35.667 42.3852C35.1981 41.9162 35.0742 41.2793 35.1229 40.6863C35.158 40.2582 35.284 39.8104 35.4768 39.3665L34.6344 38.5241C32.3552 40.1957 29.668 41.3438 26.75 41.7911V42.9813C27.2003 43.1589 27.606 43.3865 27.9335 43.6643C28.3873 44.0492 28.75 44.5872 28.75 45.2504C28.75 46.2398 27.9674 46.9336 27.1638 47.3354C26.3154 47.7596 25.1958 48.0004 24 48.0004C22.8042 48.0004 21.6846 47.7596 20.8362 47.3354C20.0326 46.9336 19.25 46.2398 19.25 45.2504C19.25 44.5872 19.6127 44.0492 20.0665 43.6643C20.394 43.3865 20.7997 43.1589 21.25 42.9813V41.7912C18.332 41.3438 15.6448 40.1958 13.3655 38.5241L12.5232 39.3665C12.716 39.8104 12.842 40.2582 12.8771 40.6863C12.9258 41.2793 12.8019 41.9162 12.333 42.3852C11.6333 43.0848 10.5894 43.022 9.73703 42.7379C8.83711 42.4379 7.87518 41.8165 7.02966 40.9709C6.18413 40.1254 5.56266 39.1635 5.26269 38.2636C4.97858 37.4112 4.91583 36.3673 5.61544 35.6676C6.08438 35.1987 6.7213 35.0748 7.31434 35.1235C7.74235 35.1586 8.19019 35.2846 8.63411 35.4774L9.47633 34.6352C7.80436 32.3558 6.65605 29.6683 6.20866 26.7499ZM2.75 27.2499C2.63484 27.2499 2.32867 27.137 2.00661 26.4929C1.70697 25.8936 1.5 25.0133 1.5 23.9999C1.5 22.9865 1.70697 22.1061 2.00661 21.5069C2.32867 20.8627 2.63484 20.7499 2.75 20.7499C2.8271 20.7499 2.9824 20.7893 3.19219 21.0367C3.40142 21.2833 3.60868 21.6783 3.76197 22.2083C3.85475 22.5291 4.14848 22.7499 4.48244 22.7499H9.75C10.1642 22.7499 10.5 22.4141 10.5 21.9999C10.5 21.5857 10.1642 21.2499 9.75 21.2499H7.72805C8.14863 18.743 9.13449 16.4278 10.5501 14.4398L12.1557 16.0454C12.4486 16.3383 12.9235 16.3383 13.2164 16.0454C13.5092 15.7525 13.5092 15.2776 13.2164 14.9847L9.31484 11.0832C9.0787 10.8471 8.71487 10.7955 8.42242 10.9568C7.93927 11.2231 7.51345 11.3558 7.19109 11.3823C6.86786 11.4089 6.73013 11.327 6.67561 11.2724C6.59418 11.191 6.45749 10.8947 6.68522 10.2115C6.8971 9.57589 7.37326 8.80702 8.08983 8.09045C8.8064 7.37388 9.57526 6.89772 10.2109 6.68585C10.8941 6.45811 11.1904 6.59481 11.2718 6.67624C11.3263 6.73076 11.4082 6.86848 11.3817 7.19171C11.3552 7.51408 11.2225 7.9399 10.9561 8.42304C10.7949 8.7155 10.8465 9.07933 11.0826 9.31547L14.9841 13.217C15.277 13.5099 15.7519 13.5099 16.0448 13.217C16.3377 12.9241 16.3377 12.4492 16.0448 12.1563L14.4391 10.5506C16.4272 9.1347 18.7428 8.14863 21.25 7.72801V14.0004C21.25 14.4146 21.5858 14.7504 22 14.7504C22.4142 14.7504 22.75 14.4146 22.75 14.0004V4.4828C22.75 4.14885 22.5292 3.85512 22.2084 3.76233C21.6784 3.60904 21.2835 3.40179 21.0368 3.19256C20.7895 2.98277 20.75 2.82747 20.75 2.75037C20.75 2.6352 20.8629 2.32904 21.507 2.00697C22.1063 1.70734 22.9866 1.50037 24 1.50037C25.0134 1.50037 25.8937 1.70734 26.493 2.00697C27.1371 2.32904 27.25 2.6352 27.25 2.75037C27.25 2.82747 27.2105 2.98277 26.9632 3.19256C26.7165 3.40179 26.3216 3.60904 25.7916 3.76233C25.4708 3.85512 25.25 4.14885 25.25 4.4828V9.75037C25.25 10.1646 25.5858 10.5004 26 10.5004C26.4142 10.5004 26.75 10.1646 26.75 9.75037V7.72803C29.2571 8.14866 31.5725 9.13467 33.5606 10.5505L31.9547 12.1563C31.6618 12.4492 31.6618 12.9241 31.9547 13.217C32.2476 13.5099 32.7225 13.5099 33.0154 13.217L36.9169 9.31547C37.153 9.07933 37.2046 8.7155 37.0434 8.42304C36.777 7.9399 36.6443 7.51408 36.6178 7.19171C36.5913 6.86848 36.6732 6.73076 36.7277 6.67624C36.8091 6.59481 37.1054 6.45811 37.7886 6.68585C38.4243 6.89772 39.1931 7.37388 39.9097 8.09045C40.6263 8.80702 41.1024 9.57589 41.3143 10.2115C41.542 10.8947 41.4053 11.191 41.3239 11.2724C41.2694 11.327 41.1317 11.4089 40.8084 11.3823C40.4861 11.3558 40.0602 11.2231 39.5771 10.9568C39.2846 10.7955 38.9208 10.8471 38.6847 11.0832L34.7832 14.9847C34.4903 15.2776 34.4903 15.7525 34.7832 16.0454C35.0761 16.3383 35.5509 16.3383 35.8438 16.0454L37.4496 14.4396C38.8653 16.4276 39.8512 18.7429 40.2718 21.2499H38.25C37.8358 21.2499 37.5 21.5857 37.5 21.9999C37.5 22.4141 37.8358 22.7499 38.25 22.7499H43.5176C43.8515 22.7499 44.1452 22.5291 44.238 22.2083C44.3913 21.6783 44.5986 21.2833 44.8078 21.0367C45.0176 20.7893 45.1729 20.7499 45.25 20.7499C45.3652 20.7499 45.6713 20.8627 45.9934 21.5069C46.293 22.1061 46.5 22.9865 46.5 23.9999C46.5 25.0133 46.293 25.8936 45.9934 26.4929C45.6713 27.137 45.3652 27.2499 45.25 27.2499C45.1729 27.2499 45.0176 27.2104 44.8078 26.9631C44.5986 26.7164 44.3913 26.3215 44.238 25.7915C44.1452 25.4707 43.8515 25.2499 43.5176 25.2499H38C37.5858 25.2499 37.25 25.5857 37.25 25.9999C37.25 26.4141 37.5858 26.7499 38 26.7499H40.2718C39.8512 29.2571 38.8651 31.5726 37.4492 33.5607L35.8438 31.9553C35.5509 31.6624 35.0761 31.6624 34.7832 31.9553C34.4903 32.2482 34.4903 32.7231 34.7832 33.016L38.6847 36.9175C38.9208 37.1536 39.2846 37.2052 39.5771 37.044C40.0602 36.7776 40.4861 36.6449 40.8084 36.6184C41.1317 36.5919 41.2694 36.6738 41.3239 36.7283C41.4053 36.8097 41.542 37.106 41.3143 37.7892C41.1024 38.4248 40.6263 39.1937 39.9097 39.9103C39.1931 40.6268 38.4243 41.103 37.7886 41.3149C37.1054 41.5426 36.8091 41.4059 36.7277 41.3245C36.6732 41.27 36.5913 41.1323 36.6178 40.809C36.6443 40.4867 36.777 40.0608 37.0434 39.5777C37.2046 39.2852 37.153 38.9214 36.9169 38.6853L30.3637 32.1321C30.0709 31.8392 29.596 31.8392 29.3031 32.1321C29.0102 32.425 29.0102 32.8999 29.3031 33.1928L33.56 37.4497C31.5721 38.8653 29.2569 39.8512 26.75 40.2717V38.2504C26.75 37.8362 26.4142 37.5004 26 37.5004C25.5858 37.5004 25.25 37.8362 25.25 38.2504V43.5179C25.25 43.8519 25.4708 44.1456 25.7916 44.2384C26.3216 44.3917 26.7165 44.5989 26.9632 44.8082C27.2105 45.018 27.25 45.1733 27.25 45.2504C27.25 45.3655 27.1371 45.6717 26.493 45.9938C25.8937 46.2934 25.0134 46.5004 24 46.5004C22.9866 46.5004 22.1063 46.2934 21.507 45.9938C20.8629 45.6717 20.75 45.3655 20.75 45.2504C20.75 45.1733 20.7895 45.018 21.0368 44.8082C21.2835 44.5989 21.6784 44.3917 22.2084 44.2384C22.5292 44.1456 22.75 43.8519 22.75 43.5179V38.0004C22.75 37.5862 22.4142 37.2504 22 37.2504C21.5858 37.2504 21.25 37.5862 21.25 38.0004V40.2718C18.7431 39.8512 16.4279 38.8654 14.4399 37.4498L18.6969 33.1928C18.9898 32.8999 18.9898 32.425 18.6969 32.1321C18.404 31.8392 17.9291 31.8392 17.6363 32.1321L11.0831 38.6853C10.847 38.9214 10.7954 39.2852 10.9566 39.5777C11.223 40.0608 11.3557 40.4867 11.3822 40.809C11.4087 41.1323 11.3268 41.27 11.2723 41.3245C11.1909 41.4059 10.8946 41.5426 10.2114 41.3149C9.57575 41.103 8.80689 40.6268 8.09032 39.9103C7.37375 39.1937 6.89759 38.4248 6.68571 37.7892C6.45798 37.106 6.59467 36.8097 6.6761 36.7283C6.73062 36.6738 6.86834 36.5919 7.19158 36.6184C7.51394 36.6449 7.93976 36.7776 8.4229 37.044C8.71536 37.2052 9.07919 37.1536 9.31533 36.9175L13.2168 33.016C13.5097 32.7231 13.5097 32.2482 13.2168 31.9553C12.9239 31.6624 12.4491 31.6624 12.1562 31.9553L10.5507 33.5608C9.13477 31.5727 8.14868 29.2571 7.72805 26.7499H14C14.4142 26.7499 14.75 26.4141 14.75 25.9999C14.75 25.5857 14.4142 25.2499 14 25.2499H4.48244C4.14848 25.2499 3.85475 25.4707 3.76197 25.7915C3.60868 26.3215 3.40142 26.7164 3.19219 26.9631C2.9824 27.2104 2.8271 27.2499 2.75 27.2499Z" fill="currentColor"/>
</svg>
