<svg width="48" height="48" viewBox="0 0 48 48" fill="none" xmlns="http://www.w3.org/2000/svg">
<g clip-path="url(#clip0_7051_12081)">
<path fill-rule="evenodd" clip-rule="evenodd" d="M24 0.250977C21.6528 0.250977 19.75 2.15377 19.75 4.50098C19.75 6.59227 21.2605 8.33078 23.25 8.68501V32.875L14.25 26.5511V21.9453C16.2395 21.5911 17.75 19.8526 17.75 17.7613C17.75 15.4141 15.8472 13.5113 13.5 13.5113C11.1528 13.5113 9.25 15.4141 9.25 17.7613C9.25 19.8526 10.7605 21.5911 12.75 21.9453V27.3304L23.25 34.7082V39.3169C21.2605 39.6712 19.75 41.4097 19.75 43.501C19.75 45.8482 21.6528 47.751 24 47.751C26.3472 47.751 28.25 45.8482 28.25 43.501C28.25 41.4097 26.7395 39.6712 24.75 39.3169V29.4831C24.8462 29.4609 24.9395 29.4193 25.0242 29.3573L34.25 22.6033V17.2274C36.2395 16.8731 37.75 15.1346 37.75 13.0433C37.75 10.6961 35.8472 8.79333 33.5 8.79333C31.1528 8.79333 29.25 10.6961 29.25 13.0433C29.25 15.1346 30.7605 16.8731 32.75 17.2274V21.8424L24.75 27.699V8.68501C26.7395 8.33078 28.25 6.59228 28.25 4.50098C28.25 2.15377 26.3472 0.250977 24 0.250977ZM21.25 4.50098C21.25 2.98219 22.4812 1.75098 24 1.75098C25.5188 1.75098 26.75 2.98219 26.75 4.50098C26.75 6.01976 25.5188 7.25098 24 7.25098C22.4812 7.25098 21.25 6.01976 21.25 4.50098ZM24 40.751C22.4812 40.751 21.25 41.9822 21.25 43.501C21.25 45.0198 22.4812 46.251 24 46.251C25.5188 46.251 26.75 45.0198 26.75 43.501C26.75 41.9822 25.5188 40.751 24 40.751ZM33.5 10.2933C31.9812 10.2933 30.75 11.5246 30.75 13.0433C30.75 14.5621 31.9812 15.7933 33.5 15.7933C35.0188 15.7933 36.25 14.5621 36.25 13.0433C36.25 11.5246 35.0188 10.2933 33.5 10.2933ZM10.75 17.7613C10.75 16.2425 11.9812 15.0113 13.5 15.0113C15.0188 15.0113 16.25 16.2425 16.25 17.7613C16.25 19.2801 15.0188 20.5113 13.5 20.5113C11.9812 20.5113 10.75 19.2801 10.75 17.7613Z" fill="currentColor"/>
</g>
<defs>
<clipPath id="clip0_7051_12081">
<rect width="48" height="48" fill="white" transform="translate(0 0.000976562)"/>
</clipPath>
</defs>
</svg>
