<svg width="48" height="48" viewBox="0 0 48 48" fill="none" xmlns="http://www.w3.org/2000/svg">
<g clip-path="url(#clip0_3795_10608)">
<path d="M3 46.0009C3 47.1054 3.89543 48.0009 5 48.0009H38.1478C39.2524 48.0009 40.1478 47.1054 40.1478 46.0009V34.2426C40.1478 33.7729 39.7671 33.3922 39.2974 33.3922C38.8277 33.3922 38.447 33.7729 38.447 34.2426V45.7953C38.447 46.0714 38.2231 46.2953 37.947 46.2953H5.19952C4.92338 46.2953 4.69952 46.0714 4.69952 45.7953V2.20644C4.69952 1.9303 4.92338 1.70644 5.19952 1.70644H37.9472C38.2234 1.70644 38.4472 1.9303 38.4472 2.20644V9.87191C38.4472 10.3412 38.8277 10.7217 39.297 10.7217C39.7663 10.7217 40.1468 10.3412 40.1468 9.87191V2.00085C40.1468 0.896285 39.2513 0.000854492 38.1468 0.000854492H5C3.89543 0.000854492 3 0.896286 3 2.00086V46.0009Z" fill="currentColor"/>
<path d="M13.95 38.7057C14.0948 38.5126 14.4017 38.6029 14.4189 38.8437L14.5689 40.9439C14.6831 42.5423 16.6536 43.229 17.7364 42.0477L19.9213 39.6643C19.8973 41.0773 21.3252 42.1605 22.7311 41.6333L23.9337 41.1823C24.3384 41.0305 24.5435 40.5794 24.3917 40.1747C24.24 39.77 23.7888 39.565 23.3841 39.7167L22.1815 40.1677C21.8 40.3108 21.412 39.9736 21.5004 39.5759C21.8179 38.147 20.0386 37.22 19.0495 38.299L16.5826 40.9901C16.4279 41.1588 16.1464 41.0607 16.1301 40.8324L15.9801 38.7322C15.8597 37.0467 13.7117 36.4148 12.6978 37.7666L10.1482 41.166C9.8889 41.5118 9.95898 42.0023 10.3048 42.2617C10.6505 42.521 11.1411 42.4509 11.4004 42.1052L13.95 38.7057Z" fill="currentColor"/>
<path fill-rule="evenodd" clip-rule="evenodd" d="M44.4639 17.8664L32.4639 38.651L27.1441 41.6042L27.0418 35.5206L39.0418 14.736C39.6181 13.7378 40.8944 13.3958 41.8926 13.9721L43.7 15.0156C44.6982 15.5919 45.0402 16.8683 44.4639 17.8664ZM28.6141 35.9278L37.4625 20.6018L40.1736 22.167L31.3251 37.493L28.6652 38.9696L28.6141 35.9278ZM38.2451 19.2463L40.9562 20.8115L43.1083 17.0838C43.2524 16.8343 43.1669 16.5152 42.9174 16.3711L41.11 15.3276C40.8605 15.1836 40.5414 15.2691 40.3973 15.5186L38.2451 19.2463Z" fill="currentColor"/>
<path d="M26.3086 15.1895C26.3086 14.7521 25.954 14.3976 25.5167 14.3976H10.5908C10.1535 14.3976 9.79891 14.7521 9.79891 15.1895C9.79891 15.6268 10.1535 15.9814 10.5908 15.9814H25.5167C25.954 15.9814 26.3086 15.6268 26.3086 15.1895Z" fill="currentColor"/>
<path d="M9.79891 30.3301C9.79891 29.8928 10.1535 29.5382 10.5908 29.5382H25.5167C25.954 29.5382 26.3086 29.8928 26.3086 30.3301C26.3086 30.7674 25.954 31.122 25.5167 31.122H10.5908C10.1535 31.122 9.79891 30.7674 9.79891 30.3301Z" fill="currentColor"/>
<path d="M14.4189 7.53984C14.4017 7.29906 14.0948 7.20879 13.95 7.4019L11.4004 10.8013C11.1411 11.1471 10.6505 11.2172 10.3048 10.9578C9.95898 10.6985 9.8889 10.208 10.1482 9.86218L12.6978 6.46277C13.7117 5.11096 15.8597 5.74285 15.9801 7.42832L16.1301 9.52856C16.1464 9.75689 16.4279 9.855 16.5826 9.68625L19.0495 6.99514C20.0386 5.91612 21.8179 6.84315 21.5004 8.27208C21.412 8.66978 21.8 9.00693 22.1815 8.86388L23.3841 8.41289C23.7888 8.26113 24.24 8.46618 24.3917 8.87088C24.5435 9.27558 24.3384 9.72669 23.9337 9.87845L22.7311 10.3294C21.3252 10.8566 19.8973 9.77345 19.9213 8.36046L17.7364 10.7439C16.6536 11.9252 14.6831 11.2385 14.5689 9.64007L14.4189 7.53984Z" fill="currentColor"/>
<path d="M13.95 22.5425C14.0948 22.3494 14.4017 22.4397 14.4189 22.6805L14.5689 24.7807C14.6831 26.3791 16.6536 27.0658 17.7364 25.8845L19.9213 23.5011C19.8973 24.9141 21.3252 25.9973 22.7311 25.4701L23.9337 25.0191C24.3384 24.8673 24.5435 24.4162 24.3917 24.0115C24.24 23.6068 23.7888 23.4018 23.3841 23.5535L22.1815 24.0045C21.8 24.1476 21.412 23.8104 21.5004 23.4127C21.8179 21.9838 20.0386 21.0567 19.0495 22.1358L16.5826 24.8269C16.4279 24.9956 16.1464 24.8975 16.1301 24.6692L15.9801 22.5689C15.8597 20.8835 13.7117 20.2516 12.6978 21.6034L10.1482 25.0028C9.8889 25.3486 9.95898 25.8391 10.3048 26.0985C10.6505 26.3578 11.1411 26.2877 11.4004 25.9419L13.95 22.5425Z" fill="currentColor"/>
</g>
<defs>
<clipPath id="clip0_3795_10608">
<rect width="48" height="48" fill="white" transform="translate(0 0.000854492)"/>
</clipPath>
</defs>
</svg>
