<svg width="48" height="48" viewBox="0 0 48 48" fill="none" xmlns="http://www.w3.org/2000/svg">
<path fill-rule="evenodd" clip-rule="evenodd" d="M35.9068 0.000854492C36.6826 0.000854492 37.4036 0.400498 37.8148 1.05836L39.2692 3.38547H41.3846C42.7866 3.38547 43.9231 4.52198 43.9231 5.92393V7.61624C43.9231 8.55088 43.1654 9.30855 42.2308 9.30855H42.087C41.7388 10.2949 40.7983 11.0016 39.6928 11.0016C38.5872 11.0016 37.6467 10.2949 37.2985 9.30855H33.6242C33.2759 10.2949 32.3354 11.0016 31.2299 11.0016C30.1243 11.0016 29.1838 10.2949 28.8356 9.30855H28.6923C27.7577 9.30855 27 8.55087 27 7.61624V5.20572C27 4.57862 27.2321 3.97371 27.6516 3.50758L29.7993 1.12128C30.4412 0.408095 31.3556 0.000854492 32.3151 0.000854492H35.9068ZM42.2308 8.03932H42.196C41.9943 6.83911 40.9503 5.92468 39.6928 5.92468C38.4352 5.92468 37.3912 6.83911 37.1895 8.03932H33.7331C33.5314 6.83911 32.4874 5.92468 31.2299 5.92468C29.9723 5.92468 28.9284 6.83911 28.7266 8.03932H28.6923C28.4586 8.03932 28.2692 7.8499 28.2692 7.61624V5.20572C28.2692 5.01344 28.3129 4.82534 28.395 4.65485L41.3846 4.6547C42.0856 4.6547 42.6538 5.22296 42.6538 5.92393V7.61624C42.6538 7.8499 42.4644 8.03932 42.2308 8.03932ZM32.3151 1.27009H35.8961C36.2409 1.27009 36.5614 1.44771 36.7441 1.74009L37.7726 3.38562H29.469L30.7427 1.97035C31.1439 1.52461 31.7154 1.27009 32.3151 1.27009ZM32.4991 8.46314C32.4991 9.16412 31.9308 9.73238 31.2299 9.73238C30.5289 9.73238 29.9606 9.16412 29.9606 8.46314C29.9606 7.76217 30.5289 7.19391 31.2299 7.19391C31.9308 7.19391 32.4991 7.76217 32.4991 8.46314ZM40.962 8.46314C40.962 9.16412 40.3937 9.73238 39.6928 9.73238C38.9918 9.73238 38.4235 9.16412 38.4235 8.46314C38.4235 7.76217 38.9918 7.19391 39.6928 7.19391C40.3937 7.19391 40.962 7.76217 40.962 8.46314Z" fill="currentColor"/>
<path fill-rule="evenodd" clip-rule="evenodd" d="M25 3.75085C25 3.33664 24.6642 3.00085 24.25 3.00085H7C5.89543 3.00085 5 3.89629 5 5.00085V46.0009C5 47.1054 5.89543 48.0009 7 48.0009H37C38.1046 48.0009 39 47.1054 39 46.0009V13.7509C39 13.3366 38.6642 13.0009 38.25 13.0009C37.8358 13.0009 37.5 13.3366 37.5 13.7509V46.0009C37.5 46.277 37.2761 46.5009 37 46.5009H30.5V44.5009C30.5 39.8064 26.6944 36.0009 22 36.0009C17.3056 36.0009 13.5 39.8064 13.5 44.5009V46.5009H7C6.72386 46.5009 6.5 46.277 6.5 46.0009V5.00085C6.5 4.72471 6.72386 4.50085 7 4.50085H24.25C24.6642 4.50085 25 4.16507 25 3.75085ZM29 44.5009V46.5009H15V44.5009C15 40.6349 18.134 37.5009 22 37.5009C25.866 37.5009 29 40.6349 29 44.5009Z" fill="currentColor"/>
<path d="M16.2946 10.038C16.7088 10.038 17.0446 9.70218 17.0446 9.28796C17.0446 8.87375 16.7088 8.53796 16.2946 8.53796H10.75C10.3358 8.53796 10 8.87375 10 9.28796C10 9.70218 10.3358 10.038 10.75 10.038H16.2946Z" fill="currentColor"/>
<path d="M19.25 14.1356C19.6642 14.1356 20 13.7998 20 13.3856C20 12.9714 19.6642 12.6356 19.25 12.6356H10.75C10.3358 12.6356 10 12.9714 10 13.3856C10 13.7998 10.3358 14.1356 10.75 14.1356H19.25Z" fill="currentColor"/>
<path d="M10.75 18.2333C10.3358 18.2333 10 17.8975 10 17.4833C10 17.0691 10.3358 16.7333 10.75 16.7333H19.25C19.6642 16.7333 20 17.0691 20 17.4833C20 17.8975 19.6642 18.2333 19.25 18.2333H10.75Z" fill="currentColor"/>
<path fill-rule="evenodd" clip-rule="evenodd" d="M22 35.0009C25.0376 35.0009 27.5 32.5384 27.5 29.5009C27.5 26.4633 25.0376 24.0009 22 24.0009C18.9624 24.0009 16.5 26.4633 16.5 29.5009C16.5 32.5384 18.9624 35.0009 22 35.0009ZM22 33.5009C24.2091 33.5009 26 31.71 26 29.5009C26 27.2917 24.2091 25.5009 22 25.5009C19.7909 25.5009 18 27.2917 18 29.5009C18 31.71 19.7909 33.5009 22 33.5009Z" fill="currentColor"/>
</svg>
