<svg width="48" height="48" viewBox="0 0 48 48" fill="none" xmlns="http://www.w3.org/2000/svg">
<g clip-path="url(#clip0_3863_9601)">
<path d="M25.4937 34.0935C25.6325 33.9085 25.9266 33.995 25.9431 34.2257L26.0868 36.2384C26.1963 37.7702 28.0847 38.4283 29.1224 37.2963L31.2162 35.0121C31.1933 36.3663 32.5617 37.4043 33.909 36.8991L35.0615 36.4669C35.4493 36.3214 35.6458 35.8891 35.5004 35.5013C35.355 35.1135 34.9226 34.917 34.5348 35.0624L33.3823 35.4946C33.0167 35.6317 32.6448 35.3086 32.7295 34.9274C33.0339 33.5581 31.3286 32.6696 30.3807 33.7037L28.0167 36.2827C27.8684 36.4444 27.5987 36.3504 27.583 36.1316L27.4393 34.1188C27.3239 32.5036 25.2653 31.898 24.2937 33.1935L21.8504 36.4513C21.6019 36.7827 21.669 37.2528 22.0004 37.5013C22.3318 37.7498 22.8019 37.6827 23.0504 37.3513L25.4937 34.0935Z" fill="currentColor"/>
<path d="M35.1787 43.3837C35.5945 43.3837 35.9316 43.0466 35.9316 42.6308C35.9316 42.2149 35.5945 41.8778 35.1787 41.8778H21.6846C21.2688 41.8778 20.9316 42.2149 20.9316 42.6308C20.9316 43.0466 21.2688 43.3837 21.6846 43.3837H35.1787Z" fill="currentColor"/>
<path fill-rule="evenodd" clip-rule="evenodd" d="M33.486 8.17236L31.1575 10.5009H31.7203C32.5004 10.5009 33.2093 10.9544 33.5363 11.6627L36 17.0009V25.0009C36 26.1054 35.1046 27.0009 34 27.0009H14C12.8954 27.0009 12 26.1054 12 25.0009V17.0009L14.4637 11.6627C14.7907 10.9544 15.4996 10.5009 16.2797 10.5009H19.8438L27.8292 2.5155L33.486 8.17236ZM20.051 12.415L27.8292 4.63682L31.3647 8.17236L25.7862 13.7509H21.3869L20.051 12.415ZM30.5 14.5009C30.5 14.0866 30.1642 13.7509 29.75 13.7509H27.9075L29.6575 12.0009H31.7203C31.9154 12.0009 32.0926 12.1143 32.1743 12.2913L34.2326 16.7509H13.7674L15.8257 12.2913C15.9074 12.1143 16.0846 12.0009 16.2797 12.0009H18.3438L17.9297 12.415L19.2655 13.7509H18.25C17.8358 13.7509 17.5 14.0866 17.5 14.5009C17.5 14.9151 17.8358 15.2509 18.25 15.2509H29.75C30.1642 15.2509 30.5 14.9151 30.5 14.5009ZM34.5 18.2509H13.5V25.0009C13.5 25.277 13.7239 25.5009 14 25.5009H34C34.2761 25.5009 34.5 25.277 34.5 25.0009V18.2509Z" fill="currentColor"/>
<path fill-rule="evenodd" clip-rule="evenodd" d="M8 0.000854492C6.89543 0.000854492 6 0.896286 6 2.00086V46.0009C6 47.1054 6.89543 48.0009 8 48.0009H40C41.1046 48.0009 42 47.1054 42 46.0009V2.00085C42 0.896285 41.1046 0.000854492 40 0.000854492H8ZM40.5 1.50085H8C7.72386 1.50085 7.5 1.72471 7.5 2.00086V46.0009C7.5 46.277 7.72386 46.5009 8 46.5009H40C40.2761 46.5009 40.5 46.277 40.5 46.0009V1.50085Z" fill="currentColor"/>
</g>
<defs>
<clipPath id="clip0_3863_9601">
<rect width="48" height="48" fill="white" transform="translate(0 0.000854492)"/>
</clipPath>
</defs>
</svg>
