<svg width="48" height="48" viewBox="0 0 48 48" fill="none" xmlns="http://www.w3.org/2000/svg">
<g clip-path="url(#clip0_985_3778)">
<path fill-rule="evenodd" clip-rule="evenodd" d="M24 25.0009C29.5228 25.0009 34 20.5237 34 15.0009C34 9.47801 29.5228 5.00085 24 5.00085C18.4772 5.00085 14 9.47801 14 15.0009C14 20.5237 18.4772 25.0009 24 25.0009ZM32.0453 17.7509C32.3401 16.8883 32.5 15.9633 32.5 15.0009C32.5 14.0385 32.3401 13.1134 32.0453 12.2509H27.8088C27.9271 13.0818 27.9962 13.9969 27.9962 15.0008C27.9962 16.0048 27.9271 16.9199 27.8088 17.7509H32.0453ZM26.4962 15.0008C26.4962 13.9803 26.4196 13.0659 26.2922 12.2509H21.7039C21.5765 13.0659 21.4998 13.9803 21.4998 15.0008C21.4998 16.0214 21.5765 16.9358 21.7039 17.7509H26.2922C26.4196 16.9358 26.4962 16.0214 26.4962 15.0008ZM20.1873 17.7509H15.9547C15.6599 16.8883 15.5 15.9633 15.5 15.0009C15.5 14.0385 15.6599 13.1134 15.9547 12.2509H20.1873C20.069 13.0818 19.9998 13.9969 19.9998 15.0008C19.9998 16.0048 20.069 16.9199 20.1873 17.7509ZM22.0188 10.7509H25.9773C25.7204 9.79129 25.3981 9.01736 25.0813 8.41025C24.7332 7.74314 24.3892 7.27225 24.1399 6.97446C24.0883 6.91283 24.0408 6.85859 23.9981 6.81155C23.9553 6.85859 23.9078 6.91283 23.8562 6.97446C23.6069 7.27225 23.2628 7.74314 22.9148 8.41025C22.598 9.01736 22.2757 9.79129 22.0188 10.7509ZM22.1938 6.69316C21.9985 6.98108 21.7912 7.32109 21.5849 7.7164C21.1734 8.50516 20.7689 9.50878 20.4715 10.7509H16.6371C17.8173 8.71071 19.8211 7.20661 22.1938 6.69316ZM20.4715 19.2509C20.7689 20.4929 21.1734 21.4965 21.5849 22.2852C21.7912 22.6806 21.9985 23.0206 22.1938 23.3086C19.8211 22.7951 17.8173 21.291 16.6371 19.2509H20.4715ZM23.998 23.1901C23.9553 23.1431 23.9078 23.0888 23.8562 23.0272C23.6069 22.7294 23.2628 22.2585 22.9148 21.5914C22.598 20.9843 22.2757 20.2104 22.0188 19.2509H25.9773C25.7204 20.2104 25.3981 20.9843 25.0813 21.5914C24.7332 22.2585 24.3892 22.7294 24.1399 23.0272C24.0883 23.0888 24.0408 23.1431 23.998 23.1901ZM31.3629 10.7509H27.5246C27.2272 9.50878 26.8227 8.50516 26.4112 7.7164C26.2047 7.32064 25.9971 6.9803 25.8017 6.69217C28.1764 7.20467 30.1819 8.7094 31.3629 10.7509ZM31.3629 19.2509C30.1819 21.2923 28.1763 22.7971 25.8016 23.3095C25.9971 23.0214 26.2047 22.681 26.4112 22.2852C26.8227 21.4965 27.2272 20.4929 27.5246 19.2509H31.3629Z" fill="currentColor"/>
<path d="M29.25 42.5009C29.6642 42.5009 30 42.1651 30 41.7509C30 41.3366 29.6642 41.0009 29.25 41.0009H18.75C18.3358 41.0009 18 41.3366 18 41.7509C18 42.1651 18.3358 42.5009 18.75 42.5009H29.25Z" fill="currentColor"/>
<path d="M32.25 36.0009C32.6642 36.0009 33 36.3366 33 36.7509C33 37.1651 32.6642 37.5009 32.25 37.5009H15.75C15.3358 37.5009 15 37.1651 15 36.7509C15 36.3366 15.3358 36.0009 15.75 36.0009H32.25Z" fill="currentColor"/>
<path d="M32.25 32.5009C32.6642 32.5009 33 32.1651 33 31.7509C33 31.3366 32.6642 31.0009 32.25 31.0009H15.75C15.3358 31.0009 15 31.3366 15 31.7509C15 32.1651 15.3358 32.5009 15.75 32.5009H32.25Z" fill="currentColor"/>
<path fill-rule="evenodd" clip-rule="evenodd" d="M8 0.000854492C6.89543 0.000854492 6 0.896286 6 2.00086V46.0009C6 47.1054 6.89543 48.0009 8 48.0009H40C41.1046 48.0009 42 47.1054 42 46.0009V2.00085C42 0.896285 41.1046 0.000854492 40 0.000854492H8ZM40.5 2.00085C40.5 1.72471 40.2761 1.50085 40 1.50085H8C7.72386 1.50085 7.5 1.72471 7.5 2.00086V46.0009C7.5 46.277 7.72386 46.5009 8 46.5009H40C40.2761 46.5009 40.5 46.277 40.5 46.0009V2.00085Z" fill="currentColor"/>
</g>
<defs>
<clipPath id="clip0_985_3778">
<rect width="48" height="48" fill="white" transform="translate(0 0.000854492)"/>
</clipPath>
</defs>
</svg>
