<svg width="48" height="48" viewBox="0 0 48 48" fill="none" xmlns="http://www.w3.org/2000/svg">
<path d="M18.0002 17.057L13.0626 12.1195C11.6463 10.7038 11.6457 8.48018 13.0614 7.05852C13.3933 6.72383 13.7881 6.45808 14.2231 6.27656C14.6581 6.09505 15.1247 6.00135 15.596 6.00085C16.4866 6.00088 17.3446 6.33542 18.0002 6.9382C18.6558 6.33553 19.5138 6.001 20.4043 6.00085C20.8751 6.00122 21.3412 6.09463 21.7757 6.27573C22.2103 6.45683 22.6048 6.72204 22.9365 7.05612L21.8722 8.11304C21.6797 7.91923 21.4509 7.76538 21.1987 7.66032C20.9469 7.55535 20.6767 7.50116 20.4039 7.50085C19.8895 7.5011 19.394 7.69439 19.0153 8.0425L18 8.97581L16.9849 8.04236C16.6063 7.69432 16.111 7.50107 15.5968 7.50085C15.3235 7.50125 15.0529 7.55563 14.8007 7.66088C14.5482 7.76623 14.3191 7.92048 14.1264 8.11473L14.1243 8.11693C13.2905 8.95419 13.2937 10.2296 14.123 11.0586L18.0002 14.9357L21.8771 11.0588C22.7057 10.2305 22.7104 8.95486 21.8736 8.11453L22.9365 7.05612C24.3546 8.48018 24.354 10.7038 22.9377 12.1195L18.0002 17.057Z" fill="currentColor"/>
<path d="M32.2946 8.03796C32.7088 8.03796 33.0446 7.70218 33.0446 7.28796C33.0446 6.87375 32.7088 6.53796 32.2946 6.53796H26.75C26.3358 6.53796 26 6.87375 26 7.28796C26 7.70218 26.3358 8.03796 26.75 8.03796H32.2946Z" fill="currentColor"/>
<path d="M36 11.3856C36 11.7998 35.6642 12.1356 35.25 12.1356H26.75C26.3358 12.1356 26 11.7998 26 11.3856C26 10.9714 26.3358 10.6356 26.75 10.6356H35.25C35.6642 10.6356 36 10.9714 36 11.3856Z" fill="currentColor"/>
<path d="M26 15.4833C26 15.8975 26.3358 16.2333 26.75 16.2333H35.25C35.6642 16.2333 36 15.8975 36 15.4833C36 15.0691 35.6642 14.7333 35.25 14.7333H26.75C26.3358 14.7333 26 15.0691 26 15.4833Z" fill="currentColor"/>
<path fill-rule="evenodd" clip-rule="evenodd" d="M29.5 29.5009C29.5 32.5384 27.0376 35.0009 24 35.0009C20.9624 35.0009 18.5 32.5384 18.5 29.5009C18.5 26.4633 20.9624 24.0009 24 24.0009C27.0376 24.0009 29.5 26.4633 29.5 29.5009ZM28 29.5009C28 31.71 26.2091 33.5009 24 33.5009C21.7909 33.5009 20 31.71 20 29.5009C20 27.2917 21.7909 25.5009 24 25.5009C26.2091 25.5009 28 27.2917 28 29.5009Z" fill="currentColor"/>
<path fill-rule="evenodd" clip-rule="evenodd" d="M8 48.0009C6.89543 48.0009 6 47.1054 6 46.0009V2.00085C6 0.896285 6.89543 0.000854492 8 0.000854492H40C41.1046 0.000854492 42 0.896286 42 2.00086V46.0009C42 47.1054 41.1046 48.0009 40 48.0009H8ZM7.5 2.00085C7.5 1.72471 7.72386 1.50085 8 1.50085H40C40.2761 1.50085 40.5 1.72471 40.5 2.00086V46.0009C40.5 46.277 40.2761 46.5009 40 46.5009H32.5V44.5009C32.5 39.8064 28.6944 36.0009 24 36.0009C19.3056 36.0009 15.5 39.8064 15.5 44.5009V46.5009H8C7.72386 46.5009 7.5 46.277 7.5 46.0009V2.00085ZM17 46.5009H31V44.5009C31 40.6349 27.866 37.5009 24 37.5009C20.134 37.5009 17 40.6349 17 44.5009V46.5009Z" fill="currentColor"/>
</svg>
