<svg width="48" height="48" viewBox="0 0 48 48" fill="none" xmlns="http://www.w3.org/2000/svg">
<g clip-path="url(#clip0_45_247)">
<path d="M22.6 12.55C22.3515 12.2187 21.8814 12.1515 21.55 12.4C21.2187 12.6486 21.1515 13.1187 21.4 13.45C23.95 16.85 29.05 16.85 31.6 13.45C31.8486 13.1187 31.7814 12.6486 31.45 12.4C31.1187 12.1515 30.6486 12.2187 30.4 12.55C28.45 15.15 24.55 15.15 22.6 12.55Z" fill="currentColor"/>
<path d="M24 8C24 8.55229 23.5523 9 23 9C22.4477 9 22 8.55229 22 8C22 7.44772 22.4477 7 23 7C23.5523 7 24 7.44772 24 8Z" fill="currentColor"/>
<path d="M30 9C30.5523 9 31 8.55229 31 8C31 7.44772 30.5523 7 30 7C29.4477 7 29 7.44772 29 8C29 8.55229 29.4477 9 30 9Z" fill="currentColor"/>
<path fill-rule="evenodd" clip-rule="evenodd" d="M26.5 0C32.3435 0 37 4.65652 37 10.5C37 16.3435 32.3435 21 26.5 21C20.6565 21 16 16.3435 16 10.5C16 4.65652 20.6565 0 26.5 0ZM35.5 10.5C35.5 5.48495 31.5151 1.5 26.5 1.5C21.485 1.5 17.5 5.48495 17.5 10.5C17.5 15.5151 21.485 19.5 26.5 19.5C31.5151 19.5 35.5 15.5151 35.5 10.5Z" fill="currentColor"/>
<path d="M14 5.75085C14 5.33664 13.6642 5.00085 13.25 5.00085H2C0.895432 5.00085 0 5.89629 0 7.00085V46.0009C0 47.1054 0.895431 48.0009 2 48.0009H33C34.1046 48.0009 35 47.1054 35 46.0009V28.75C35 28.3358 34.6642 28 34.25 28C33.8358 28 33.5 28.3358 33.5 28.75V46.0009C33.5 46.277 33.2761 46.5009 33 46.5009H2C1.72386 46.5009 1.5 46.277 1.5 46.0009V7.00085C1.5 6.72471 1.72386 6.50085 2 6.50085H13.25C13.6642 6.50085 14 6.16507 14 5.75085Z" fill="currentColor"/>
<path d="M16.8501 24.5C17.2643 24.5 17.6001 24.1642 17.6001 23.75C17.6001 23.3358 17.2643 23 16.8501 23H6.3501C5.93588 23 5.6001 23.3358 5.6001 23.75C5.6001 24.1642 5.93588 24.5 6.3501 24.5H16.8501Z" fill="currentColor"/>
<path d="M22.8501 31C23.2643 31 23.6001 31.3358 23.6001 31.75C23.6001 32.1642 23.2643 32.5 22.8501 32.5H6.3501C5.93588 32.5 5.6001 32.1642 5.6001 31.75C5.6001 31.3358 5.93588 31 6.3501 31H22.8501Z" fill="currentColor"/>
<path d="M22.8501 39C23.2643 39 23.6001 39.3358 23.6001 39.75C23.6001 40.1642 23.2643 40.5 22.8501 40.5H6.3501C5.93588 40.5 5.6001 40.1642 5.6001 39.75C5.6001 39.3358 5.93588 39 6.3501 39H22.8501Z" fill="currentColor"/>
<path d="M38.3233 6.52398C38.0256 6.49818 37.7642 6.30557 37.6541 6.02777C37.4594 5.53652 37.7949 4.97966 38.3219 5.01866C42.6127 5.33622 46.3971 8.28387 47.6194 12.6976C49.179 18.3291 45.9342 24.0595 40.3027 25.6191C36.5298 26.664 32.7125 25.5524 30.1348 23.0114C29.7562 22.6382 29.9647 22.0143 30.4673 21.841C30.7474 21.7444 31.056 21.8171 31.2696 22.0224C33.4761 24.1433 36.7048 25.0591 39.9024 24.1735C44.7355 22.835 47.5123 17.9311 46.1738 13.098C45.1359 9.34998 41.9538 6.83858 38.3233 6.52398Z" fill="currentColor"/>
<path d="M42 13C42 13.5523 41.5523 14 41 14C40.4477 14 40 13.5523 40 13C40 12.4477 40.4477 12 41 12C41.5523 12 42 12.4477 42 13Z" fill="currentColor"/>
<path d="M34.4881 21.5695C36.2213 20.0839 38.7788 20.0839 40.5119 21.5695C40.8264 21.8391 41.2999 21.8026 41.5695 21.4881C41.839 21.1737 41.8026 20.7002 41.4881 20.4306C39.1932 18.4636 35.8068 18.4636 33.5119 20.4306C33.1974 20.7002 33.161 21.1737 33.4306 21.4881C33.7001 21.8026 34.1736 21.8391 34.4881 21.5695Z" fill="currentColor"/>
</g>
<defs>
<clipPath id="clip0_45_247">
<rect width="48" height="48" fill="white"/>
</clipPath>
</defs>
</svg>
