<svg width="48" height="48" viewBox="0 0 48 48" fill="none" xmlns="http://www.w3.org/2000/svg">
<g clip-path="url(#clip0_3795_10607)">
<path d="M35.5112 3.50085C35.8464 3.50085 36.1816 3.61259 36.405 3.83605C36.6285 4.05951 36.7961 4.33884 36.7961 4.67404C36.7961 5.00923 36.6844 5.28856 36.405 5.51203C36.1257 5.73549 35.8464 5.84722 35.5112 5.84722C35.176 5.84722 34.8408 5.73549 34.6173 5.51203C34.338 5.28856 34.2263 5.00923 34.2263 4.67404C34.2263 4.33884 34.338 4.05951 34.6173 3.83605C34.8408 3.61259 35.176 3.50085 35.5112 3.50085Z" fill="currentColor"/>
<path d="M36.6285 7.02041L36.7402 7.13214V12.2718C36.7402 12.4394 36.7961 12.5511 36.852 12.6629C36.9078 12.7746 37.0196 12.8305 37.1313 12.8863C37.1871 12.9143 37.229 12.9282 37.271 12.9422C37.3129 12.9562 37.3547 12.9701 37.4106 12.9981C37.5223 13.0539 37.6341 13.0539 37.7458 13.0539V13.5009H33.6676V13.0539C33.7793 13.0539 33.8911 13.0539 34.0028 12.9981C34.0682 12.9981 34.1337 12.9789 34.1879 12.963C34.2263 12.9518 34.259 12.9422 34.2821 12.9422C34.3939 12.8863 34.5056 12.8305 34.5615 12.7187C34.6173 12.607 34.6732 12.4953 34.6732 12.3277V8.58465C34.6732 8.41706 34.6173 8.30532 34.5615 8.19359C34.5056 8.08186 34.3939 7.97013 34.2821 7.91426C34.2263 7.8584 34.1145 7.80253 33.9469 7.74666C33.8631 7.71873 33.7933 7.70477 33.7235 7.6908C33.6536 7.67683 33.5838 7.66287 33.5 7.63493V7.18801L36.6285 7.02041Z" fill="currentColor"/>
<path fill-rule="evenodd" clip-rule="evenodd" d="M35.5 17.0009C40.1944 17.0009 44 13.1953 44 8.50085C44 3.80643 40.1944 0.000854492 35.5 0.000854492C30.8056 0.000854492 27 3.80643 27 8.50085C27 13.1953 30.8056 17.0009 35.5 17.0009ZM35.5 15.5009C39.366 15.5009 42.5 12.3668 42.5 8.50085C42.5 4.63486 39.366 1.50085 35.5 1.50085C31.634 1.50085 28.5 4.63486 28.5 8.50085C28.5 12.3668 31.634 15.5009 35.5 15.5009Z" fill="currentColor"/>
<path d="M24.25 5.00085C24.6642 5.00085 25 5.33664 25 5.75085C25 6.16507 24.6642 6.50085 24.25 6.50085H6C5.72386 6.50085 5.5 6.72471 5.5 7.00085V46.0009C5.5 46.277 5.72386 46.5009 6 46.5009H36C36.2761 46.5009 36.5 46.277 36.5 46.0009V19.7509C36.5 19.3366 36.8358 19.0009 37.25 19.0009C37.6642 19.0009 38 19.3366 38 19.7509V46.0005C38 47.1051 37.1046 48.0005 36 48.0005H6C4.89543 48.0005 4 47.1051 4 46.0005V7.00085C4 5.89629 4.89543 5.00085 6 5.00085H24.25Z" fill="currentColor"/>
<path d="M31.389 25.9492C31.8049 25.9492 32.142 26.2864 32.142 26.7022C32.142 27.1181 31.8049 27.4552 31.389 27.4552H10.6851C10.2692 27.4552 9.9321 27.1181 9.9321 26.7022C9.9321 26.2864 10.2692 25.9492 10.6851 25.9492H31.389Z" fill="currentColor"/>
<path d="M31.389 19.9137C31.8049 19.9137 32.142 20.2509 32.142 20.6667C32.142 21.0826 31.8049 21.4197 31.389 21.4197H10.6851C10.2692 21.4197 9.9321 21.0826 9.9321 20.6667C9.9321 20.2509 10.2692 19.9137 10.6851 19.9137H31.389Z" fill="currentColor"/>
<path d="M15.9446 13.8782C16.3604 13.8782 16.6975 14.2154 16.6975 14.6312C16.6975 15.0471 16.3604 15.3842 15.9446 15.3842H10.6851C10.2692 15.3842 9.9321 15.0471 9.9321 14.6312C9.9321 14.2154 10.2692 13.8782 10.6851 13.8782H15.9446Z" fill="currentColor"/>
<path d="M21.9431 34.2257C21.9266 33.995 21.6325 33.9085 21.4937 34.0935L19.0504 37.3513C18.8019 37.6827 18.3318 37.7498 18.0004 37.5013C17.669 37.2528 17.6019 36.7827 17.8504 36.4513L20.2937 33.1935C21.2653 31.898 23.3239 32.5036 23.4393 34.1188L23.583 36.1316C23.5987 36.3504 23.8684 36.4444 24.0167 36.2827L26.3807 33.7037C27.3286 32.6696 29.0339 33.5581 28.7295 34.9274C28.6448 35.3086 29.0167 35.6317 29.3823 35.4946L30.5348 35.0624C30.9226 34.917 31.355 35.1135 31.5004 35.5013C31.6458 35.8891 31.4493 36.3214 31.0615 36.4669L29.909 36.8991C28.5617 37.4043 27.1933 36.3663 27.2162 35.0121L25.1224 37.2963C24.0847 38.4283 22.1963 37.7702 22.0868 36.2384L21.9431 34.2257Z" fill="currentColor"/>
<path d="M31.1787 41.8778C31.5945 41.8778 31.9316 42.2149 31.9316 42.6308C31.9316 43.0466 31.5945 43.3837 31.1787 43.3837H17.6846C17.2688 43.3837 16.9316 43.0466 16.9316 42.6308C16.9316 42.2149 17.2688 41.8778 17.6846 41.8778H31.1787Z" fill="currentColor"/>
</g>
<defs>
<clipPath id="clip0_3795_10607">
<rect width="48" height="48" fill="white" transform="translate(0 0.000854492)"/>
</clipPath>
</defs>
</svg>
