<svg width="48" height="48" viewBox="0 0 48 48" fill="none" xmlns="http://www.w3.org/2000/svg">
<path fill-rule="evenodd" clip-rule="evenodd" d="M32.5 0.250854C30.9812 0.250854 29.75 1.48207 29.75 3.00085H27C25.8954 3.00085 25 3.89629 25 5.00085V16.0009C25 17.1054 25.8954 18.0009 27 18.0009H43C44.1046 18.0009 45 17.1054 45 16.0009V5.00085C45 3.89629 44.1046 3.00085 43 3.00085H40.25C40.25 1.48207 39.0188 0.250854 37.5 0.250854H32.5ZM32.5 1.75085C31.8096 1.75085 31.25 2.3105 31.25 3.00085H38.75C38.75 2.3105 38.1904 1.75085 37.5 1.75085H32.5ZM27 4.50085H43C43.2761 4.50085 43.5 4.72471 43.5 5.00085V8.3012L40.75 8.60676V8.50085C40.75 8.08664 40.4142 7.75085 40 7.75085C39.5858 7.75085 39.25 8.08664 39.25 8.50085V8.77342L35.0008 9.24556L30.75 8.77325V8.50085C30.75 8.08664 30.4142 7.75085 30 7.75085C29.5858 7.75085 29.25 8.08664 29.25 8.50085V8.60658L26.5 8.30103V5.00085C26.5 4.72471 26.7239 4.50085 27 4.50085ZM29.25 10.1158L26.5 9.81026V16.0009C26.5 16.277 26.7239 16.5009 27 16.5009H43C43.2761 16.5009 43.5 16.277 43.5 16.0009V9.81043L40.75 10.116V11.5009C40.75 11.9151 40.4142 12.2509 40 12.2509C39.5858 12.2509 39.25 11.9151 39.25 11.5009V10.2827L35.0008 10.7548L30.75 10.2825V11.5009C30.75 11.9151 30.4142 12.2509 30 12.2509C29.5858 12.2509 29.25 11.9151 29.25 11.5009V10.1158Z" fill="currentColor"/>
<path fill-rule="evenodd" clip-rule="evenodd" d="M3 5.00085C3 3.89629 3.89543 3.00085 5 3.00085H22.25C22.6642 3.00085 23 3.33664 23 3.75085C23 4.16507 22.6642 4.50085 22.25 4.50085H5C4.72386 4.50085 4.5 4.72471 4.5 5.00085V46.0009C4.5 46.277 4.72386 46.5009 5 46.5009H11.5V44.5009C11.5 39.8064 15.3056 36.0009 20 36.0009C24.6944 36.0009 28.5 39.8064 28.5 44.5009V46.5009H35C35.2761 46.5009 35.5 46.277 35.5 46.0009V20.7509C35.5 20.3366 35.8358 20.0009 36.25 20.0009C36.6642 20.0009 37 20.3366 37 20.7509V46.0009C37 47.1054 36.1046 48.0009 35 48.0009H5C3.89543 48.0009 3 47.1054 3 46.0009V5.00085ZM27 46.5009V44.5009C27 41.0931 24.5649 38.2541 21.3399 37.629L20.5 38.3009L22 43.1009L20 45.5009L18 43.1009L19.5 38.3009L18.6601 37.629C15.4351 38.2541 13 41.0931 13 44.5009V46.5009H27Z" fill="currentColor"/>
<path d="M14.7477 10.0009C15.1619 10.0009 15.4977 9.66507 15.4977 9.25085C15.4977 8.83664 15.1619 8.50085 14.7477 8.50085H9.20312C8.78891 8.50085 8.45312 8.83664 8.45312 9.25085C8.45312 9.66507 8.78891 10.0009 9.20312 10.0009H14.7477Z" fill="currentColor"/>
<path d="M8.45312 13.2509C8.45312 13.6651 8.78891 14.0009 9.20312 14.0009H20.3331C20.7473 14.0009 21.0831 13.6651 21.0831 13.2509C21.0831 12.8366 20.7473 12.5009 20.3331 12.5009H9.20312C8.78891 12.5009 8.45312 12.8366 8.45312 13.2509Z" fill="currentColor"/>
<path d="M9.20312 18.0009C8.78891 18.0009 8.45312 17.6651 8.45312 17.2509C8.45312 16.8366 8.78891 16.5009 9.20312 16.5009H20.3331C20.7473 16.5009 21.0831 16.8366 21.0831 17.2509C21.0831 17.6651 20.7473 18.0009 20.3331 18.0009H9.20312Z" fill="currentColor"/>
<path fill-rule="evenodd" clip-rule="evenodd" d="M20 35.0009C23.0376 35.0009 25.5 32.5384 25.5 29.5009C25.5 26.4633 23.0376 24.0009 20 24.0009C16.9624 24.0009 14.5 26.4633 14.5 29.5009C14.5 32.5384 16.9624 35.0009 20 35.0009ZM20 33.5009C22.2091 33.5009 24 31.71 24 29.5009C24 27.2917 22.2091 25.5009 20 25.5009C17.7909 25.5009 16 27.2917 16 29.5009C16 31.71 17.7909 33.5009 20 33.5009Z" fill="currentColor"/>
</svg>
