<svg width="48" height="48" viewBox="0 0 48 48" fill="none" xmlns="http://www.w3.org/2000/svg">
<path fill-rule="evenodd" clip-rule="evenodd" d="M39.25 13.7509H36.25V2.98124L39.9479 3.98976L37.1001 10.1599L37.4722 10.532L37.4749 10.5346L37.4814 10.5409L37.499 10.5578C37.5129 10.5708 37.531 10.5873 37.5533 10.6068C37.5978 10.6458 37.6593 10.6968 37.7378 10.7556C37.8946 10.8733 38.1202 11.0229 38.4149 11.1702C39.0066 11.4661 39.8707 11.7494 41.0003 11.7494C42.1298 11.7494 42.994 11.4661 43.5857 11.1702C43.8803 11.0229 44.1059 10.8733 44.2628 10.7556C44.3412 10.6968 44.4027 10.6458 44.4473 10.6068C44.4696 10.5873 44.4876 10.5708 44.5015 10.5578L44.5192 10.5409L44.5257 10.5346L44.5283 10.532L44.5295 10.5308L44.5336 10.5267L44.9004 10.1599L42.0123 3.90235L43.0825 3.47428C43.467 3.32044 43.6541 2.88397 43.5003 2.49938C43.3464 2.11479 42.91 1.92773 42.5254 2.08156L40.9551 2.70967L36.25 1.42646V0.750855C36.25 0.336641 35.9142 0.000854492 35.5 0.000854492C35.0858 0.000854492 34.75 0.336641 34.75 0.750854V1.42646L30.0449 2.70967L28.4746 2.08156C28.09 1.92773 27.6536 2.11479 27.4997 2.49938C27.3459 2.88397 27.533 3.32044 27.9175 3.47428L28.9877 3.90235L26.0996 10.1599L26.4658 10.5261L26.4705 10.5308L26.4717 10.532L26.4743 10.5346L26.4808 10.5409L26.4985 10.5578C26.5124 10.5708 26.5304 10.5873 26.5527 10.6068C26.5973 10.6458 26.6588 10.6968 26.7372 10.7556C26.8941 10.8733 27.1197 11.0229 27.4143 11.1702C28.006 11.4661 28.8702 11.7494 29.9997 11.7494C31.1293 11.7494 31.9934 11.4661 32.5851 11.1702C32.8798 11.0229 33.1054 10.8733 33.2622 10.7556C33.3407 10.6968 33.4022 10.6458 33.4467 10.6068C33.469 10.5873 33.4871 10.5708 33.501 10.5578L33.5186 10.5409L33.5251 10.5346L33.5278 10.532L33.8999 10.1599L31.0521 3.98976L34.75 2.98124V13.7509H31.75C31.3358 13.7509 31 14.0866 31 14.5009C31 14.9151 31.3358 15.2509 31.75 15.2509H39.25C39.6642 15.2509 40 14.9151 40 14.5009C40 14.0866 39.6642 13.7509 39.25 13.7509ZM29.9997 5.28911L27.9401 9.75158C27.9849 9.77679 28.0332 9.8026 28.0851 9.82856C28.4934 10.0327 29.1293 10.2494 29.9997 10.2494C30.8702 10.2494 31.506 10.0327 31.9143 9.82856C31.9662 9.8026 32.0146 9.77679 32.0593 9.75158L29.9997 5.28911ZM41.0003 5.28911L43.0599 9.75158C43.0151 9.77679 42.9668 9.8026 42.9149 9.82856C42.5066 10.0327 41.8707 10.2494 41.0003 10.2494C40.1298 10.2494 39.494 10.0327 39.0857 9.82856C39.0338 9.8026 38.9854 9.77679 38.9407 9.75158L41.0003 5.28911Z" fill="currentColor"/>
<path fill-rule="evenodd" clip-rule="evenodd" d="M24 3.75085C24 3.33664 23.6642 3.00085 23.25 3.00085H6C4.89543 3.00085 4 3.89629 4 5.00085V46.0009C4 47.1054 4.89543 48.0009 6 48.0009H36C37.1046 48.0009 38 47.1054 38 46.0009V17.7509C38 17.3366 37.6642 17.0009 37.25 17.0009C36.8358 17.0009 36.5 17.3366 36.5 17.7509V46.0009C36.5 46.277 36.2761 46.5009 36 46.5009H29.5V44.5009C29.5 39.8064 25.6944 36.0009 21 36.0009C16.3056 36.0009 12.5 39.8064 12.5 44.5009V46.5009H6C5.72386 46.5009 5.5 46.277 5.5 46.0009V5.00085C5.5 4.72471 5.72386 4.50085 6 4.50085H23.25C23.6642 4.50085 24 4.16507 24 3.75085ZM28 44.5009V46.5009H14V44.5009C14 40.6349 17.134 37.5009 21 37.5009C24.866 37.5009 28 40.6349 28 44.5009Z" fill="currentColor"/>
<path d="M15.2946 10.038C15.7088 10.038 16.0446 9.70218 16.0446 9.28796C16.0446 8.87375 15.7088 8.53796 15.2946 8.53796H9.75C9.33579 8.53796 9 8.87375 9 9.28796C9 9.70218 9.33579 10.038 9.75 10.038H15.2946Z" fill="currentColor"/>
<path d="M18.25 14.1356C18.6642 14.1356 19 13.7998 19 13.3856C19 12.9714 18.6642 12.6356 18.25 12.6356H9.75C9.33579 12.6356 9 12.9714 9 13.3856C9 13.7998 9.33579 14.1356 9.75 14.1356H18.25Z" fill="currentColor"/>
<path d="M9.75 18.2333C9.33579 18.2333 9 17.8975 9 17.4833C9 17.0691 9.33579 16.7333 9.75 16.7333H18.25C18.6642 16.7333 19 17.0691 19 17.4833C19 17.8975 18.6642 18.2333 18.25 18.2333H9.75Z" fill="currentColor"/>
<path fill-rule="evenodd" clip-rule="evenodd" d="M21 35.0009C24.0376 35.0009 26.5 32.5384 26.5 29.5009C26.5 26.4633 24.0376 24.0009 21 24.0009C17.9624 24.0009 15.5 26.4633 15.5 29.5009C15.5 32.5384 17.9624 35.0009 21 35.0009ZM21 33.5009C23.2091 33.5009 25 31.71 25 29.5009C25 27.2917 23.2091 25.5009 21 25.5009C18.7909 25.5009 17 27.2917 17 29.5009C17 31.71 18.7909 33.5009 21 33.5009Z" fill="currentColor"/>
</svg>
