<svg width="48" height="48" viewBox="0 0 48 48" fill="none" xmlns="http://www.w3.org/2000/svg">
<path fill-rule="evenodd" clip-rule="evenodd" d="M6 32V46C6 47.1046 6.89543 48 8 48H42C43.1046 48 44 47.1046 44 46V17.7932C44 17.2837 43.8056 16.7934 43.4564 16.4224L28.5923 0.629271C28.2143 0.227697 27.6873 0 27.1359 0H8C6.89543 0 6 0.895432 6 2V23H5C4.44772 23 4 23.4477 4 24V31C4 31.5523 4.44772 32 5 32H6ZM42.5 18.25H28.75C27.6454 18.25 26.75 17.3546 26.75 16.25V1.5H8C7.72386 1.5 7.5 1.72386 7.5 2V23H11.5V16.5C11.5 15.9477 11.9477 15.5 12.5 15.5H19.5C20.0523 15.5 20.5 15.9477 20.5 16.5V23H27C27.5523 23 28 23.4477 28 24V31C28 31.5523 27.5523 32 27 32H20.5V38.5C20.5 39.0523 20.0523 39.5 19.5 39.5H12.5C11.9477 39.5 11.5 39.0523 11.5 38.5V32H7.5V46C7.5 46.2761 7.72386 46.5 8 46.5H42C42.2761 46.5 42.5 46.2761 42.5 46V18.25ZM41.7048 16.75L28.25 2.45424V16.25C28.25 16.5261 28.4739 16.75 28.75 16.75H41.7048ZM19 30.5V38H13V30.5H5.5V24.5H13V17H19V24.5H26.5V30.5H19Z" fill="currentColor"/>
</svg>
