<svg width="48" height="48" viewBox="0 0 48 48" fill="none" xmlns="http://www.w3.org/2000/svg">
<g clip-path="url(#clip0_45_223)">
<path d="M20 45.2509C20 45.6651 19.6642 46.0009 19.25 46.0009H2C0.895432 46.0009 0 45.1054 0 44.0009V2.00085C0 0.896286 0.895431 0.000854492 2 0.000854492H33C34.1046 0.000854492 35 0.896286 35 2.00085V11.2517C35 11.6659 34.6642 12.0017 34.25 12.0017C33.8358 12.0017 33.5 11.6659 33.5 11.2517V2.00085C33.5 1.72471 33.2761 1.50085 33 1.50085H2C1.72386 1.50085 1.5 1.72471 1.5 2.00085V44.0009C1.5 44.277 1.72386 44.5009 2 44.5009H19.25C19.6642 44.5009 20 44.8366 20 45.2509Z" fill="currentColor"/>
<path d="M19.8501 26.5017C20.2643 26.5017 20.6001 26.8375 20.6001 27.2517C20.6001 27.6659 20.2643 28.0017 19.8501 28.0017H6.3501C5.93588 28.0017 5.6001 27.6659 5.6001 27.2517C5.6001 26.8375 5.93588 26.5017 6.3501 26.5017H19.8501Z" fill="currentColor"/>
<path d="M19.8501 20.0017C20.2643 20.0017 20.6001 19.6659 20.6001 19.2517C20.6001 18.8375 20.2643 18.5017 19.8501 18.5017H6.3501C5.93588 18.5017 5.6001 18.8375 5.6001 19.2517C5.6001 19.6659 5.93588 20.0017 6.3501 20.0017H19.8501Z" fill="currentColor"/>
<path d="M14.8501 12.0017C15.2643 12.0017 15.6001 11.6659 15.6001 11.2517C15.6001 10.8375 15.2643 10.5017 14.8501 10.5017H6.3501C5.93588 10.5017 5.6001 10.8375 5.6001 11.2517C5.6001 11.6659 5.93588 12.0017 6.3501 12.0017H14.8501Z" fill="currentColor"/>
<path d="M40.7595 20.6799C40.9544 20.9477 40.9067 21.3141 40.6725 21.5483C40.3253 21.8954 39.7371 21.7994 39.4338 21.4134C38.664 20.4337 37.5362 19.7486 36.2474 19.5555C35.8377 19.4941 35.5 19.1642 35.5 18.75C35.5 18.3358 35.8371 17.9955 36.2486 18.0426C38.1007 18.255 39.7162 19.2459 40.7595 20.6799Z" fill="currentColor"/>
<path fill-rule="evenodd" clip-rule="evenodd" d="M31.5 36.9468V40H25C23.8954 40 23 40.8954 23 42V43C23 44.1046 23.8954 45 25 45V46C25 47.1046 25.8954 48 27 48H44C45.1046 48 46 47.1046 46 46V45C47.1046 45 48 44.1046 48 43V42C48 40.8954 47.1046 40 46 40H39.5V36.9468C39.5 34.6124 40.9942 32.5932 42.5575 30.8595C44.0757 29.1757 45 26.9458 45 24.5C45 19.2533 40.7467 15 35.5 15C30.2533 15 26 19.2533 26 24.5C26 26.9458 26.9243 29.1757 28.4425 30.8595C30.0058 32.5932 31.5 34.6124 31.5 36.9468ZM41.4435 29.8551C42.7229 28.4361 43.5 26.5605 43.5 24.5C43.5 20.0817 39.9183 16.5 35.5 16.5C31.0817 16.5 27.5 20.0817 27.5 24.5C27.5 26.5605 28.2771 28.4361 29.5565 29.8551C31.1222 31.5915 33 33.9906 33 36.9468V40H38V36.9468C38 33.9906 39.8778 31.5915 41.4435 29.8551ZM46.5 43C46.5 43.2761 46.2761 43.5 46 43.5H25C24.7239 43.5 24.5 43.2761 24.5 43V42C24.5 41.7239 24.7239 41.5 25 41.5H46C46.2761 41.5 46.5 41.7239 46.5 42V43ZM26.5 46C26.5 46.2761 26.7239 46.5 27 46.5H44C44.2761 46.5 44.5 46.2761 44.5 46V45H26.5V46Z" fill="currentColor"/>
</g>
<defs>
<clipPath id="clip0_45_223">
<rect width="48" height="48" fill="white"/>
</clipPath>
</defs>
</svg>
