<svg width="48" height="48" viewBox="0 0 48 48" fill="none" xmlns="http://www.w3.org/2000/svg">
<g clip-path="url(#clip0_3795_10976)">
<path d="M32.25 36.501C32.6642 36.501 33 36.1652 33 35.751C33 35.3368 32.6642 35.001 32.25 35.001H15.75C15.3358 35.001 15 35.3368 15 35.751C15 36.1652 15.3358 36.501 15.75 36.501H32.25Z" fill="currentColor"/>
<path d="M29.25 40.001C29.6642 40.001 30 40.3368 30 40.751C30 41.1652 29.6642 41.501 29.25 41.501H18.75C18.3358 41.501 18 41.1652 18 40.751C18 40.3368 18.3358 40.001 18.75 40.001H29.25Z" fill="currentColor"/>
<path fill-rule="evenodd" clip-rule="evenodd" d="M8 48.001C6.89543 48.001 6 47.1055 6 46.001V2.00098C6 0.896408 6.89543 0.000976562 8 0.000976562H40C41.1046 0.000976562 42 0.896407 42 2.00098V46.001C42 47.1055 41.1046 48.001 40 48.001H8ZM7.5 2.00098C7.5 1.72484 7.72386 1.50098 8 1.50098H40C40.2761 1.50098 40.5 1.72483 40.5 2.00098V46.001C40.5 46.2771 40.2761 46.501 40 46.501H8C7.72386 46.501 7.5 46.2771 7.5 46.001V2.00098Z" fill="currentColor"/>
<path d="M26.2745 6.41194C26.6581 6.41194 26.7677 6.63111 26.8225 6.7955V6.90509C26.8225 7.01468 26.8225 7.17906 26.7677 7.23385L26.7129 7.34344V7.39824L26.7677 7.45303L26.9321 7.727L27.0417 7.89139C27.2608 8.27495 27.5348 8.7681 27.5348 9.26125C27.5348 10.0832 27.6992 11.0695 28.4663 11.8914H28.3019L28.1923 11.8366C27.9732 11.7818 27.754 11.6174 27.48 11.3982C27.4252 11.3982 27.4252 11.5078 27.4252 11.6722V12.2202C27.4252 12.2749 27.4252 12.3845 27.4252 12.4393V12.6585C27.4252 12.7133 27.4252 12.7133 27.4252 12.7681V12.9873C27.48 13.316 27.5348 13.59 27.6444 13.7544C27.754 13.864 27.5348 13.8092 27.3156 13.59L27.0417 13.316C26.9869 13.2065 26.9321 13.1517 26.8773 13.2065H26.8225L26.7677 13.2613L26.6033 13.59C26.4937 14.0284 26.3841 14.6859 26.7677 15.3434C26.8225 15.453 26.7677 15.453 26.6581 15.3982L26.6033 15.3434L26.4937 15.2886C26.3293 15.1791 26.0553 14.9599 25.9458 14.7407C25.9458 14.6859 25.891 14.7407 25.8362 14.8503L25.7266 15.0695V15.2339C25.617 15.727 25.617 16.5489 26.0006 17.2612C26.0553 17.3708 25.9458 17.316 25.8362 17.2612L25.617 17.1517L25.7266 17.0969C25.7266 17.0969 25.6718 17.0969 25.6718 17.0421L25.617 16.9873C25.5622 16.9325 25.5622 16.9325 25.5074 16.8777V16.8229C25.3978 16.6585 25.2334 17.0421 25.5074 17.6448L25.8362 18.2476L26.0553 18.6859C26.2197 18.9599 26.3293 19.1791 26.4389 19.2886C26.5485 19.3982 26.7677 19.5626 27.0417 19.6722L27.48 19.8914C27.5348 19.9462 27.5896 19.9462 27.6444 20.001H27.6992L28.1923 20.3297C28.6307 20.6037 29.2882 20.9325 29.891 20.9325C30.8225 20.9325 31.3156 20.275 31.3156 19.9462H31.2608L30.9321 19.8914H30.8225L30.7129 19.8366L30.3841 19.727H30.3293L30.1649 19.6722C29.343 19.3434 28.3019 18.6311 28.3019 16.8777C28.3019 15.5078 29.1786 14.5215 29.891 13.9188L30.2197 13.6996L30.3293 13.59L30.6581 13.3708L31.1512 13.864L30.9869 13.9736L30.7677 14.138L30.6033 14.2476L30.3841 14.4667C29.7814 15.0147 29.0143 15.8914 29.0143 16.8777C29.0143 18.5215 30.4937 19.2886 31.3704 19.2886V19.0147C31.3704 19.0147 31.3704 19.0147 31.3704 18.9599V18.7955C31.3704 18.7407 31.3704 18.7407 31.3704 18.6859L31.3156 18.5763C31.1512 18.1928 30.7677 17.7544 29.7814 17.316H30.1101C30.4389 17.316 30.9869 17.3708 31.3704 17.9188C31.5348 18.138 31.5896 17.9736 31.6444 17.9188C31.6992 17.864 31.9732 17.5352 32.4115 17.6996L32.3019 17.7544C32.3019 17.7544 32.3019 17.7544 32.3019 17.8092L32.2471 17.864C32.0827 18.0832 31.8636 18.5763 32.0827 19.2339H32.2471L32.3567 19.1791H32.4115L32.5211 19.1243C33.0143 18.8503 33.7814 18.3023 33.7814 17.0969C33.7814 16.001 33.0143 15.1791 32.2471 14.4667L32.028 14.2476L31.5896 13.864C31.5348 13.8092 31.5348 13.8092 31.48 13.7544L31.3156 13.59C31.206 13.5352 31.1512 13.4256 31.0964 13.3708L31.0417 13.316C30.9321 13.2065 30.8225 13.0421 30.7129 12.9325L30.2197 12.4393C29.6718 11.8914 29.1786 11.2886 29.069 10.4119L29.0143 10.3023H28.9595C28.7951 10.1928 28.3567 9.97358 28.3567 9.26125C28.3567 8.8229 28.6307 8.38454 28.9047 8.05577L29.0143 7.89139L29.2882 7.61741L29.3978 7.56262L29.4526 7.50783H29.5074C29.5074 7.50783 29.5074 7.50783 29.5074 7.56262L29.4526 7.83659L29.3978 7.94618C29.343 8.16536 29.343 8.43933 29.5622 8.43933C29.891 8.43933 30.6033 7.61741 30.6033 7.45303C30.6033 7.39824 30.6581 7.45303 30.6581 7.50783V7.7818L30.6033 7.89139C30.5485 8.05577 30.4937 8.22015 30.3841 8.32974L30.3293 8.38454C30.2745 8.49413 30.1649 8.54892 30.1101 8.65851L29.7814 9.04207C29.617 9.26125 29.4526 9.42563 29.617 9.59002C29.7814 9.8092 30.1649 9.53522 30.3841 9.31604L30.4389 9.20646L30.4937 9.15166V9.09687C30.4937 9.04207 30.5485 9.04207 30.4937 9.09687V9.15166V9.26125L30.4389 9.37084V9.42563L30.3841 9.53522C30.2745 9.8092 30.0553 10.138 29.7266 10.3023V10.6859L29.7814 10.7407L29.891 10.9599C29.891 10.9599 29.891 11.0147 29.9458 11.0147L30.0006 11.1243L30.2745 11.3982L30.3841 11.5626L30.7129 11.8914C30.6033 11.9462 30.6581 11.9462 30.6581 12.001L31.2608 12.6037L31.8088 13.0421L32.028 13.2613L32.3567 13.5352L32.9047 13.9736L33.2334 14.3023H33.2882C33.343 14.2476 33.3978 14.1928 33.3978 14.0284V13.9736C33.3978 13.6448 33.5074 13.316 33.6718 13.2065V14.0832C33.6718 14.5215 33.7266 15.0147 33.891 15.1243C34.0554 15.1791 34.1101 15.0147 34.1101 14.7955C34.1649 14.5763 34.3293 14.3571 34.3841 14.4119L34.3293 14.5763L34.2745 14.7955V15.1243C34.2197 15.5626 34.2197 16.001 34.4937 16.1654C34.5485 16.1654 34.5485 16.1654 34.6033 16.1106L34.6581 16.0558C34.7129 15.9462 34.8773 15.8914 35.1512 16.001L35.0964 15.7818L35.0417 15.8366C34.8225 15.9462 34.4937 16.3297 34.5485 16.8777C34.6033 17.6448 33.891 19.6174 32.0827 19.8914V20.001L32.028 20.1106L31.9732 20.1654L31.8636 20.3845C31.5896 20.8777 31.0417 21.59 29.6718 21.4256L30.0554 21.8092L30.2745 22.138C30.2745 22.1928 30.3293 22.1928 30.3293 22.2476L30.4389 22.4119C30.9321 23.1243 31.4252 24.1654 31.3704 25.316L31.3156 25.2065L31.2608 24.9873L31.0417 24.4393L30.9321 24.2749C30.9321 24.2202 30.8773 24.2202 30.8773 24.1654L30.7677 24.001L30.5485 23.5626L30.2197 23.1243C30.1101 22.9051 29.9458 22.7407 29.7814 22.5215L29.5622 22.3023C29.0143 21.6448 28.3567 21.0421 27.5896 20.6037L27.4252 20.4941C27.3704 20.4941 27.3156 20.5489 27.3704 20.7681C27.4252 21.0421 27.206 21.6448 27.0417 21.9188C27.0417 21.9736 26.9869 21.9736 26.9869 22.0832V22.9051C27.0964 23.8366 27.5896 25.0969 29.1238 25.5352C29.3978 25.59 29.617 25.59 29.8362 25.59H30.0554L30.1649 25.5352V25.59L30.0554 25.6996L30.1101 25.59C29.891 25.7544 29.5074 25.9736 28.7403 25.9736C28.4115 25.9736 28.4115 26.4667 28.9047 26.4667C28.9047 26.4667 28.9047 26.4667 28.9047 26.5215V26.7955L28.7403 27.2886L28.5759 27.9462L28.2471 28.6037C28.2471 28.6585 28.1923 28.6585 28.1923 28.7133L28.0827 28.9325C27.8636 29.4256 27.5896 29.864 27.3156 30.138C27.1512 30.2476 27.2608 30.3023 27.3156 30.3571H27.4252C27.48 30.3571 27.5348 30.4119 27.6444 30.4667L27.754 30.5215C27.754 30.5215 27.8088 30.5215 27.8088 30.5763L27.9184 30.6311C27.9732 30.6859 28.028 30.6859 28.0827 30.7407H28.028C27.9184 30.7407 27.8088 30.7407 27.8088 30.7955V31.1243C27.754 31.2886 27.6992 31.5078 27.3704 31.5078C26.9321 31.5078 26.8225 31.0695 26.8225 30.8503C26.8225 30.6311 26.6033 30.6311 26.4937 30.6311C26.4389 30.6311 26.1101 30.7407 26.0006 31.1243L25.9458 31.2886C25.891 31.6722 25.7266 32.001 25.3978 32.001C25.0143 32.001 24.9047 31.727 24.9047 31.5078C24.9047 31.453 24.9047 31.453 24.8499 31.453H24.7951C24.7403 31.453 24.6307 31.453 24.5211 31.3982L24.6855 31.2886L24.7951 31.2339L25.1238 31.0147C25.3978 30.7955 25.617 30.5763 25.5622 30.4667C25.4526 30.1928 25.2882 30.2476 25.1786 30.3571L25.1238 30.4119L25.0143 30.4667C24.8499 30.5763 24.5759 30.7407 24.3567 30.7955C24.028 30.8503 23.8636 30.4119 24.028 30.0832L24.0827 30.0284C24.1375 29.9736 24.0827 29.9736 24.028 29.9188L23.9184 29.864C23.8636 29.8092 23.8088 29.8092 23.754 29.7544H24.3567C24.7951 29.7544 25.2882 29.7544 25.2882 29.5352C25.2334 29.2065 24.9595 29.2065 24.7951 29.2612C24.6307 29.316 24.1375 29.2612 24.1375 28.9325C24.1375 28.8777 24.1923 28.8229 24.1923 28.7681L24.2471 28.6585C24.3019 28.6037 24.3019 28.5489 24.3019 28.4941C24.3019 28.4393 24.2471 28.3845 24.1923 28.3297L24.1375 28.2749H24.1923C24.1923 28.2749 24.1923 28.2749 24.2471 28.2749H24.3567C24.4663 28.2749 24.6307 28.275 24.7951 28.3297C24.9047 28.3845 25.0143 28.4393 25.1238 28.6037L25.343 28.8229C25.5622 29.0421 25.8362 29.316 26.0553 29.316C26.4937 29.316 26.8773 28.6585 26.8773 27.3434V26.1928C26.8225 25.9736 26.8225 25.864 26.7129 25.8092L26.6581 25.7544L26.5485 25.6996L26.4937 25.6448C26.4937 25.6448 26.4389 25.59 26.4389 25.5352V25.4256C26.4389 25.3708 26.4389 25.2613 26.3293 25.2065C26.1649 25.1517 25.9458 25.3708 25.891 26.2476V26.4667C25.891 26.5215 25.891 26.5215 25.891 26.5763V27.1243L25.8362 27.2886L25.7266 27.0695V27.0147L25.617 26.6859C25.5622 26.4667 25.5074 26.2476 25.5074 25.9736C25.5074 25.9188 25.5074 25.864 25.5074 25.8092V25.5352C25.5074 25.4256 25.5074 25.3708 25.4526 25.316C25.4526 25.316 25.3978 25.316 25.343 25.3708L25.1238 25.59C24.9595 25.7544 24.7403 25.9736 24.4663 26.0832L24.6307 25.7544C24.7403 25.5352 24.8499 25.2065 24.8499 24.9325C24.8499 24.8777 24.8499 24.8229 24.7951 24.7681V24.7133L24.8499 24.5489L24.6855 24.3845C24.5211 24.1654 24.3019 23.727 24.3019 22.5763C24.3019 22.1928 24.3567 21.9188 24.4115 21.6996L24.4663 21.5352C24.5211 21.316 24.5759 21.0969 24.5759 20.7681C24.5759 20.3845 24.1375 19.9462 23.6444 19.5078L23.206 19.1791L23.0964 19.0695L22.3841 18.5763L21.9458 18.2476C21.891 18.1928 21.891 18.1928 21.8362 18.138L21.5622 17.9188L20.9047 17.2612C20.9047 17.2612 20.9047 17.2612 20.9047 17.2065C20.8499 17.1517 20.9595 17.0421 21.0143 16.9325L21.343 16.5489L21.4526 16.3845C21.617 16.1654 21.7266 15.9462 21.5622 15.8366C21.343 15.6722 21.2334 15.7818 21.069 16.001L20.9047 16.3297C20.9047 16.3845 20.8499 16.3845 20.8499 16.4393C20.6307 16.7681 20.2471 17.0969 20.0827 17.2065C20.028 17.2065 20.028 17.1517 20.028 17.0421V16.4393C20.028 16.1654 19.9732 15.8914 19.8088 15.8914C19.4252 15.8914 19.3704 16.2749 19.4252 16.4393V16.4941C19.4252 16.5489 19.4252 16.5489 19.3156 16.5489H19.206C19.0417 16.5489 18.8773 16.6037 18.7129 16.7681L18.6581 16.8777C18.6581 16.8777 18.6581 16.9325 18.6033 16.9325L18.5485 17.0421C18.4389 17.2612 18.2745 17.5352 18.2197 17.9736V17.864C18.1649 17.6996 18.1101 17.316 18.2197 16.9873L18.2745 16.8777C18.2745 16.8229 18.2745 16.8229 18.1649 16.8229H17.5074L17.069 16.9325L16.6855 16.9873L16.1375 17.0969C16.0827 17.0969 16.028 17.0969 15.9732 17.1517C15.8088 17.2065 15.754 17.2612 15.754 17.5352V18.1928C15.754 18.4119 15.754 18.5215 15.754 18.6859C15.754 18.7407 15.6992 18.6859 15.6992 18.6311V18.4667C15.6992 18.4667 15.6992 18.4667 15.6444 18.4667H15.48C15.2608 18.5215 14.9321 18.5215 14.9321 18.1928C14.9321 17.9188 14.9869 17.864 15.0964 17.8092L15.1512 17.7544C15.206 17.6996 15.2608 17.6996 15.2608 17.59C15.2608 17.2612 15.0417 17.0969 14.7677 17.0969C14.6033 17.0969 14.4937 17.2065 14.3841 17.316L14.2745 17.4256C14.1101 17.59 13.9458 17.7544 13.7266 17.7544C13.2334 17.7544 13.1786 17.4256 13.1786 17.2612C13.1786 17.0969 13.2334 17.0421 13.2334 16.9325C13.2334 16.8229 13.1238 16.7133 13.0143 16.7133C12.9595 16.7133 13.069 16.6585 13.2334 16.6585H13.2882L13.617 16.7133C14.0006 16.7681 14.4937 16.7133 14.4937 16.3845C14.4937 16.2749 14.3841 16.2202 14.2745 16.2749H14.1101C14.0553 16.2749 14.0553 16.2749 14.0006 16.2749L13.7814 16.2202C13.5074 16.1654 13.1238 16.0558 13.1238 15.6174C13.1238 15.3982 13.343 15.2886 13.4526 15.2339H13.5074C13.5074 15.1791 13.5622 15.0695 13.5622 14.9599C13.5622 14.9051 13.5622 14.9051 13.6718 14.9599V14.8503L13.7814 14.9051L13.9458 15.0147L14.4389 15.5078C14.5485 15.6722 14.7129 15.6174 14.7677 15.5626H14.8225C14.8773 15.5078 14.9869 15.3434 14.7129 15.1791C14.3841 15.0147 14.3841 14.8503 14.3841 14.5763C14.3841 14.3571 14.5485 14.3023 14.6581 14.2476H14.7129C14.7677 14.2476 14.8225 14.0284 14.7677 13.9188V13.864C14.7129 13.6996 15.1512 14.0832 15.3704 14.5215C15.3704 14.5763 15.4252 14.6311 15.4252 14.6859V14.9599C15.4252 15.2339 15.48 15.453 15.8088 15.6174H16.028C16.028 15.6174 16.028 15.6174 16.0827 15.6174H16.1923L16.3019 15.5626L16.4663 15.5078C16.4663 15.5078 16.5211 15.5078 16.5759 15.453L16.6855 15.3982L17.0143 15.2886L18.0006 14.9051L19.5348 14.3571C19.6444 14.3023 19.8636 14.1928 19.754 14.0284C19.6444 13.8092 19.2608 13.7544 18.7129 14.138L18.6581 14.1928C18.5485 14.3023 18.4937 14.2476 18.5485 14.138L18.6033 14.0832L18.6581 13.9736C18.6581 13.9736 18.6581 13.9188 18.7129 13.9188L18.7677 13.8092C18.7677 13.8092 18.7677 13.7544 18.8225 13.7544L18.9321 13.6448C18.9869 13.59 18.9869 13.5352 19.0417 13.5352L19.1512 13.4256C19.5348 12.9325 20.1375 12.4393 20.6855 12.4393C20.9047 12.4393 20.9595 12.3297 20.9595 12.2202V12.1654C20.9595 12.0558 20.8499 11.9462 20.4663 11.9462C19.9732 11.9462 19.3156 12.4393 19.0417 12.9325C19.0417 12.9325 18.9869 12.9325 18.9321 12.9325L18.7677 12.8229C18.6581 12.7133 18.4389 12.6585 18.1649 12.6585C17.8362 12.6585 17.617 12.7133 17.4526 12.7133L17.343 12.7681H17.1786C17.069 12.7681 17.4526 12.2202 18.1101 12.2202C18.2197 12.2202 18.2197 12.0558 18.0006 11.8914L17.9458 11.8366C17.8362 11.7818 17.6718 11.5626 17.5074 11.3982L17.0143 10.7407C16.9595 10.6859 16.9595 10.6859 16.9047 10.6311C16.7951 10.5215 16.6855 10.6859 16.5211 10.9599L16.4663 11.0695L16.3019 11.5626C16.3019 11.6174 16.2471 11.5626 16.2471 11.5078V11.3434C16.2471 11.2886 16.1923 11.2886 16.1923 11.2886L16.0827 11.2339C15.9184 11.1791 15.754 11.0695 15.754 10.7407C15.754 10.3571 15.9732 10.3023 16.1923 10.3571H16.2471L16.3567 10.4119C16.3567 10.4119 16.3567 10.4119 16.4115 10.4119C16.6307 10.4667 16.8499 10.1928 16.7951 9.97358C16.4115 9.7544 16.1923 9.48043 15.8636 9.48043H15.8088C15.4252 9.53522 14.8773 9.26125 14.8773 8.8229C14.8773 8.60372 14.9869 8.49413 15.0964 8.43933L15.206 8.38454H15.2608C15.3156 8.32974 15.3156 8.11057 15.3156 8.05577C15.3156 8.05577 15.3156 8.05577 15.3704 8.05577L15.4252 8.11057L15.5348 8.16536L15.9184 8.54892C15.9732 8.60372 15.9732 8.60372 16.028 8.65851L16.1923 8.8229C16.3567 8.98728 16.4115 9.04207 16.5211 8.98728C16.6307 8.93248 16.6855 8.65851 16.3019 8.32974C15.9184 8.00098 15.9732 7.61741 16.1375 7.39824C16.1375 7.39824 16.1923 7.39824 16.2471 7.39824H16.4115C16.5759 7.39824 16.7403 7.39824 16.7951 7.28865C16.7951 7.17906 16.8499 7.23385 16.8499 7.28865V7.45303L16.9047 7.56262V8.00098L16.9595 8.11057V8.27495C16.9595 8.60372 17.069 8.65851 17.1786 8.65851C17.2882 8.65851 17.3978 8.60372 17.343 8.11057C17.2882 7.67221 17.3978 7.56262 17.5074 7.50783L17.5622 7.45303C17.6718 7.39824 17.8362 7.39824 17.9458 7.50783C18.0553 7.61741 18.2745 7.45303 18.2745 7.28865V7.50783C18.3293 7.67221 18.3293 7.89139 18.1649 8.11057C18.1101 8.16536 18.1101 8.22015 18.0553 8.22015L17.8362 8.43933C17.617 8.65851 17.4526 8.93248 17.6718 9.37084L17.7266 9.48043L19.9184 11.727C19.9732 11.727 20.028 11.6722 19.9184 11.5626C19.8088 11.3982 19.8088 11.2339 19.9184 11.1243V11.0695L19.9732 11.1243L20.1923 11.2339C20.1923 11.2339 20.2471 11.2339 20.2471 11.2886L20.3567 11.3434C20.7403 11.5078 21.2882 11.6722 22.1101 11.5626C23.5896 11.3982 24.1923 10.3571 23.9732 10.138L24.0827 10.1928L23.8088 10.4667C23.5348 10.6311 23.206 10.8503 22.8773 10.8503C22.2745 10.8503 21.9458 10.2476 22.0553 9.86399V9.8092L22.1649 9.91879C22.2745 10.0284 22.5485 10.1928 22.8773 10.1928C23.3704 10.1928 23.9184 9.59002 23.8088 9.26125C23.8088 9.20646 23.754 9.20646 23.6444 9.26125L23.5348 9.20646L22.9869 9.37084L22.7677 9.42563C22.7129 9.42563 22.7129 9.42563 22.6581 9.48043L22.4389 9.53522C22.0553 9.64481 21.5074 9.69961 20.9595 9.69961C19.206 9.69961 18.9321 7.94618 20.1923 7.23385L20.1375 7.28865L20.0827 7.39824V7.89139C19.9732 8.49413 20.1375 9.26125 21.5622 9.26125C21.8362 9.26125 22.1101 9.26125 22.3293 9.20646L22.5485 9.15166C22.6033 9.15166 22.7129 9.15166 22.7677 9.09687L22.9869 9.04207L23.3156 8.93248L23.5348 8.8229L23.6992 8.7681V8.65851C23.6444 8.49413 23.4252 8.11057 22.9321 8.11057C22.4389 8.11057 22.2197 8.49413 22.1101 8.65851L22.0553 8.71331V8.7681L22.0006 8.71331L21.891 8.8229C21.7266 8.71331 21.4526 8.38454 21.5622 8.00098C21.5622 7.94618 21.617 7.94618 21.6718 7.94618H21.891C22.0553 7.89139 22.2197 7.83659 22.2197 7.61741C22.2197 7.50783 22.1649 7.45303 22.1101 7.45303H22.0553C22.0006 7.45303 21.9458 7.50783 21.891 7.56262L21.8362 7.67221C21.7814 7.727 21.7814 7.7818 21.6718 7.7818C21.4526 7.7818 21.4526 7.12426 21.891 7.12426H21.9458C22.0554 7.12426 22.2197 7.12426 22.2745 7.01468V6.95988C22.2745 6.7955 22.6581 6.63111 23.48 6.57632H23.754C23.8636 6.57632 24.028 6.57632 24.1923 6.57632C24.7951 6.57632 25.1786 6.68591 25.3978 6.7407L25.5074 6.7955L25.6718 6.95988V6.90509C25.7266 6.68591 25.891 6.41194 26.2745 6.41194ZM20.4663 19.0147H22.6033C22.6581 19.0147 22.6581 19.0695 22.6581 19.1243V19.1791C22.6581 19.2339 22.6581 19.3434 22.8225 19.3982C23.0417 19.453 23.6992 20.001 23.6992 20.275C23.6992 20.3297 23.6444 20.4393 23.5896 20.4941L23.4252 20.7133C23.3704 20.8229 23.3156 20.9325 23.4252 21.1517C23.6992 21.5352 23.9184 21.5352 24.0827 21.5352H24.028C24.028 21.5352 24.028 21.5352 23.9732 21.5352L23.9184 21.59C23.754 21.6448 23.4252 21.6996 22.9321 21.6996H22.8225C22.6033 21.6996 22.3841 21.6448 22.1649 21.59L21.5622 21.4804C21.2334 21.4256 20.9595 21.3708 20.6307 21.4256H20.4663C19.8636 21.5352 19.48 22.0832 19.754 23.8366V24.001C19.754 24.0558 19.8636 24.1106 20.0827 24.1106C20.4115 24.1106 21.2334 24.4941 21.7266 25.316L21.5074 25.2065V25.0969L21.1786 24.9873C20.7403 24.7681 20.3019 24.6037 20.1375 24.8777C20.028 25.0969 20.0827 25.2612 20.2471 25.3708C20.3019 25.3708 20.1923 25.4256 20.028 25.4804L19.8636 25.5352L19.5896 25.6448H19.3156L18.7677 25.8092L17.7814 26.0832C17.617 26.138 17.5622 26.2476 17.891 26.4667L17.9458 26.5215L18.2745 26.7407L18.3293 26.7955C18.3841 26.8503 18.4389 26.9051 18.3841 26.9051H18.2197C18.0553 26.9051 17.891 26.9051 17.891 27.0147C17.891 27.1243 17.8362 27.3982 17.5622 27.3982C17.2882 27.3982 17.1238 27.2339 17.1238 27.0147V26.7407C17.1238 26.5215 17.0143 26.3571 16.7951 26.3571C16.4663 26.3571 16.2471 26.6859 16.2471 27.2886C16.2471 27.727 15.8088 27.8366 15.6444 27.8366C15.48 27.8366 15.3156 27.7818 15.3156 27.5078C15.3156 27.453 15.206 27.453 15.0964 27.453H14.9869C14.9321 27.453 14.9869 27.3982 15.0964 27.2886L15.206 27.2339L15.5348 27.0147L15.8636 26.7407C15.9732 26.6859 15.9732 26.4667 15.9184 26.4119L15.8636 26.3571C15.754 26.3023 15.6444 26.2476 15.4252 26.4119C15.206 26.6311 14.9321 26.7955 14.7129 26.7955C14.4937 26.7955 14.2745 26.5763 14.2745 26.3571V26.0832C14.2745 25.9736 14.2745 25.8092 14.1101 25.7544L14.0553 25.6996C14.0006 25.6448 14.0006 25.6448 14.1101 25.6448H15.3704C15.5896 25.6448 15.8088 25.59 15.8088 25.5352C15.8088 25.2612 15.5348 25.2065 15.4252 25.2065H15.2608C14.9869 25.2065 14.6033 25.2065 14.6033 24.8229C14.6033 24.7133 14.6581 24.6585 14.7129 24.6037H14.7677C14.7677 24.5489 14.8225 24.5489 14.8225 24.4941C14.8225 24.3845 14.6581 24.3845 14.6033 24.3845L14.7129 24.2749C14.8773 24.2202 15.206 24.1106 15.5348 24.3845C15.5896 24.4393 15.6992 24.5489 15.754 24.6037L15.9732 24.9325C16.1375 25.1517 16.3019 25.316 16.5759 25.316H16.6855C17.2334 25.2613 18.5485 24.7681 18.5485 23.2886C18.5485 22.8503 18.4389 22.4667 18.3293 22.138L18.2197 21.8092L18.0553 21.4804C18.0553 21.4256 18.0553 21.4256 18.0553 21.4256C18.0553 21.3708 18.0553 21.3708 18.1101 21.3708H18.2197C18.3293 21.3708 18.4937 21.316 18.4937 21.0969C18.4937 20.6585 15.8636 20.6037 15.0417 21.4256V21.2065L15.0964 21.0969C15.2608 20.8229 15.6444 20.4393 16.5211 20.4393C16.7403 20.4393 16.9047 20.4941 17.0143 20.4941L17.1786 20.5489C17.343 20.6037 17.4526 20.6037 17.617 20.5489C17.6718 20.5489 17.6718 20.4941 17.617 20.4393L17.3978 20.1654C17.2334 20.001 17.069 19.8366 17.1238 19.5078L17.1786 19.5626C17.343 19.727 17.7266 20.0558 18.1649 20.0558C18.2197 20.0558 18.2197 20.0558 18.2745 20.001L18.3293 19.9462L18.4389 19.7818L18.6581 19.5626C18.9869 19.3434 19.5348 19.0147 20.4663 19.0147ZM23.1512 15.727C23.0417 15.727 22.9321 15.7818 22.9321 15.8914V16.0558C22.9321 16.0558 22.9321 16.1106 22.8773 16.1106L22.7677 16.3297C22.6033 16.5489 22.3841 16.8229 21.891 17.0421C21.8362 17.0969 21.7814 17.2065 21.8362 17.316C21.891 17.3708 21.9458 17.4256 22.0553 17.4256H22.1101C22.8225 17.0969 23.1512 16.6585 23.2608 16.3297L23.3156 16.2202V15.9462C23.3156 15.8366 23.2608 15.727 23.1512 15.727ZM24.6855 15.6174C24.5759 15.6174 24.5211 15.6722 24.4663 15.7818V16.001C24.4115 16.2749 24.2471 16.7681 23.6444 17.0969C23.5896 17.1517 23.5348 17.2612 23.5896 17.3708C23.6444 17.4256 23.6992 17.4804 23.8088 17.4804H23.8636C24.5211 17.1517 24.7951 16.6037 24.9047 16.2202V15.8366C24.8499 15.6722 24.7951 15.6174 24.6855 15.6174ZM22.2197 13.0969C22.1649 13.2065 22.2197 13.316 22.2745 13.4256L22.3293 13.4804C22.3841 13.5352 22.5485 13.6996 22.6033 13.9188C22.7129 14.3023 22.6033 14.8503 22.2745 15.3982C22.2197 15.453 22.2197 15.6174 22.3293 15.6722C22.3841 15.727 22.3841 15.727 22.4389 15.727C22.4937 15.727 22.6033 15.6722 22.6581 15.6174C23.0417 14.9599 23.206 14.3571 23.0964 13.864V13.7544C23.0417 13.4256 22.8225 13.2613 22.7129 13.1517L22.6581 13.0969L22.4937 13.0421C22.3841 12.9873 22.2197 12.9873 22.2197 13.0969ZM21.1786 13.2613L21.069 13.316L20.8499 13.5352C20.5759 13.8092 20.3019 14.3023 20.1923 15.1243C20.1923 15.2339 20.2471 15.3434 20.3567 15.3434H20.4663C20.5211 15.3434 20.6307 15.2886 20.6855 15.1791V15.1243C20.7403 14.3571 21.069 13.9188 21.2882 13.6996L21.3978 13.59C21.5074 13.5352 21.5074 13.3708 21.4526 13.316C21.3978 13.2613 21.2882 13.2613 21.1786 13.2613ZM23.754 11.8366C23.6992 11.9462 23.6992 12.0558 23.8088 12.1106L23.9732 12.2749C23.9732 12.2749 23.9732 12.2749 23.9732 12.3297L24.028 12.3845C24.1923 12.6585 24.3567 13.0969 24.1923 13.9188L24.1375 14.0832C24.0827 14.1928 24.1375 14.2476 24.2471 14.3023H24.3567C24.4115 14.3023 24.5211 14.2476 24.5759 14.138C24.8499 12.9325 24.4663 12.2749 24.2471 12.001L24.1375 11.8914L24.0827 11.7818L24.028 11.727C23.9184 11.727 23.8088 11.727 23.754 11.8366ZM32.4663 7.34344L32.6307 7.67221C32.7951 8.00098 33.1238 8.38454 33.4526 8.32974C33.5622 8.32974 33.5622 8.16536 33.5074 8.00098L33.4526 7.7818L33.3978 7.67221V7.56262C33.3978 7.50783 33.3978 7.50783 33.3978 7.45303L33.7266 7.7818C33.891 7.94618 34.0553 8.11057 34.2197 8.22015C34.5485 8.43933 34.6033 9.09687 34.4389 9.48043C34.2745 9.7544 34.0006 10.0284 33.9458 10.3023V10.3571C33.891 10.5215 33.7814 10.7407 33.617 11.0695L33.5074 11.2886C33.3978 11.453 33.343 11.5626 33.1786 11.727L32.9595 11.9462C32.7951 12.1654 32.5759 12.3845 32.3567 12.6037L32.2471 12.7133L31.6992 12.2202L32.5759 11.3434C32.9595 10.9051 33.2882 10.4667 33.2334 10.138H33.1786L33.1238 10.0832C33.1238 10.0832 33.1238 10.0832 33.069 10.0832L32.9595 10.0284C32.7403 9.86399 32.4115 9.53522 32.4663 9.04207L32.5211 9.15166C32.5211 9.15166 32.5211 9.15166 32.5759 9.20646L32.6307 9.31604C32.7951 9.53522 33.069 9.7544 33.2334 9.59002C33.5074 9.42563 33.2882 8.98728 32.9595 8.65851L32.8499 8.54892V8.38454L32.7951 8.32974C32.5759 8.11057 32.4663 7.7818 32.4663 7.56262V7.34344ZM24.6855 9.15166C24.6307 9.26125 24.6855 9.37084 24.7951 9.42563C25.3978 9.64481 25.9458 9.97358 26.0006 10.138H25.9458C25.9458 10.138 25.9458 10.138 25.891 10.138H25.1786C25.1238 10.138 25.0143 10.1928 24.9595 10.2476C24.9047 10.3023 24.9595 10.3571 24.9595 10.4667L25.0143 10.5763L25.069 10.6311V10.6859C25.069 10.6859 25.069 10.6859 25.069 10.7407V11.2339C25.069 11.453 25.069 11.727 25.0143 12.001C25.0143 12.1106 25.069 12.1654 25.2334 12.2202H25.343C25.3978 12.2202 25.5074 12.1106 25.5074 12.001C25.5074 11.8914 25.5074 11.7818 25.5074 11.727V11.453C25.5074 11.3982 25.5074 11.3982 25.5074 11.3434V11.1243C25.5074 10.8503 25.4526 10.6859 25.3978 10.5215C25.7266 10.5215 26.0006 10.4667 26.1649 10.3023C26.2197 10.2476 26.2745 10.138 26.2745 10.0284C26.2745 9.64481 25.7266 9.31604 25.2882 9.09687L24.9595 8.98728L24.8499 8.93248H24.7951C24.8499 8.98728 24.7403 9.04207 24.6855 9.15166ZM24.1923 7.01468H23.206C23.0417 7.01468 23.0417 7.06947 22.9869 7.12426C22.9869 7.23385 23.0417 7.28865 23.0417 7.34344L23.0964 7.39824H23.6992C23.754 7.39824 23.8636 7.39824 23.8636 7.45303C23.8636 7.50783 23.6992 7.56262 23.5348 7.61741H23.2608L23.3156 7.67221C23.3704 7.7818 23.48 7.83659 23.6992 7.83659C24.028 7.83659 24.1375 7.56262 24.1375 7.34344V7.23385C24.1923 7.23385 24.3567 7.23385 24.3567 7.12426C24.4115 7.06947 24.3019 7.01468 24.1923 7.01468ZM23.9732 4.00098L24.1375 4.05577L24.3019 4.22015L24.4663 4.27495C24.6855 4.43933 24.9047 4.65851 24.9047 4.87769C24.9047 5.15166 24.6307 5.26125 24.4663 5.31604H24.4115C24.5211 5.59002 24.7403 5.69961 24.8499 5.7544H25.343C25.6718 5.7544 25.6718 5.48043 25.6718 5.37084V5.26125H25.617C25.5074 5.26125 25.2882 5.15166 25.2882 4.93248C25.2882 4.65851 25.6718 4.43933 26.0553 4.32974L26.2745 4.22015L26.4389 4.16536L26.3293 4.60372H26.2745C26.1649 4.60372 26.0553 4.71331 26.0553 4.87769C26.0553 4.93248 26.1101 4.98728 26.1649 5.04207H26.2197L25.891 6.13796H22.2745L22.0006 5.09687C22.0554 5.04207 22.1649 4.98728 22.1649 4.87769C22.1649 4.71331 22.0554 4.60372 21.9458 4.60372H21.891L21.7266 4.11057C22.0554 4.16536 22.8773 4.49413 22.8773 4.87769C22.8773 5.15166 22.6581 5.26125 22.5485 5.26125H22.4937C22.4937 5.59002 22.7129 5.69961 22.8225 5.69961H23.4252C23.6992 5.69961 23.754 5.37084 23.754 5.26125V5.20646H23.5896C23.4252 5.15166 23.2608 5.09687 23.2608 4.93248C23.2608 4.65851 23.48 4.43933 23.6992 4.22015L23.9184 4.00098H23.9732ZM24.0827 4.65851C23.9184 4.65851 23.8088 4.7681 23.8088 4.93248C23.8088 5.09687 23.9184 5.20646 24.0827 5.20646C24.2471 5.20646 24.3567 5.09687 24.3567 4.93248C24.3567 4.7681 24.2471 4.65851 24.0827 4.65851Z" fill="currentColor"/>
</g>
<defs>
<clipPath id="clip0_3795_10976">
<rect width="48" height="48" fill="white" transform="translate(0 0.000976562)"/>
</clipPath>
</defs>
</svg>
