<svg width="48" height="48" viewBox="0 0 48 48" fill="none" xmlns="http://www.w3.org/2000/svg">
<path fill-rule="evenodd" clip-rule="evenodd" d="M38 0.000854492C35.7907 0.000854492 34 1.79155 34 4.00085C34 6.21016 35.7907 8.00085 38 8.00085C40.2093 8.00085 42 6.21016 42 4.00085C42 1.79155 40.2093 0.000854492 38 0.000854492ZM38 1.50085C36.6191 1.50085 35.5 2.61998 35.5 4.00085C35.5 5.38173 36.6191 6.50085 38 6.50085C39.3809 6.50085 40.5 5.38173 40.5 4.00085C40.5 2.61998 39.3809 1.50085 38 1.50085Z" fill="currentColor"/>
<path fill-rule="evenodd" clip-rule="evenodd" d="M38 9.00085C41.5275 9.00085 44.4456 11.6101 44.9295 15.0038C45.0075 15.5506 44.5523 16.0009 44 16.0009H32C31.4477 16.0009 30.9925 15.5506 31.0705 15.0038C31.5544 11.6101 34.4725 9.00085 38 9.00085ZM43.293 14.5009C42.64 12.1923 40.5176 10.5009 38 10.5009C35.4824 10.5009 33.36 12.1923 32.707 14.5009H43.293Z" fill="currentColor"/>
<path d="M31 3.75085C31 3.33664 30.6642 3.00085 30.25 3.00085H7C5.89543 3.00085 5 3.89629 5 5.00085V46.0009C5 47.1054 5.89543 48.0009 7 48.0009H37C38.1046 48.0009 39 47.1054 39 46.0009V18.7509C39 18.3366 38.6642 18.0009 38.25 18.0009C37.8358 18.0009 37.5 18.3366 37.5 18.7509V46.0009C37.5 46.277 37.2761 46.5009 37 46.5009H7C6.72386 46.5009 6.5 46.277 6.5 46.0009V5.00085C6.5 4.72471 6.72386 4.50085 7 4.50085H30.25C30.6642 4.50085 31 4.16507 31 3.75085Z" fill="currentColor"/>
<path d="M11.4531 9.25085C11.4531 9.66507 11.7889 10.0009 12.2031 10.0009H17.7477C18.1619 10.0009 18.4977 9.66507 18.4977 9.25085C18.4977 8.83664 18.1619 8.50085 17.7477 8.50085H12.2031C11.7889 8.50085 11.4531 8.83664 11.4531 9.25085Z" fill="currentColor"/>
<path d="M11.4531 24.2509C11.4531 24.6651 11.7889 25.0009 12.2031 25.0009H17.7477C18.1619 25.0009 18.4977 24.6651 18.4977 24.2509C18.4977 23.8366 18.1619 23.5009 17.7477 23.5009H12.2031C11.7889 23.5009 11.4531 23.8366 11.4531 24.2509Z" fill="currentColor"/>
<path d="M26.0831 13.2509C26.0831 13.6651 25.7473 14.0009 25.3331 14.0009H12.2031C11.7889 14.0009 11.4531 13.6651 11.4531 13.2509C11.4531 12.8366 11.7889 12.5009 12.2031 12.5009H25.3331C25.7473 12.5009 26.0831 12.8366 26.0831 13.2509Z" fill="currentColor"/>
<path d="M11.4531 28.2509C11.4531 28.6651 11.7889 29.0009 12.2031 29.0009H31.3331C31.7473 29.0009 32.0831 28.6651 32.0831 28.2509C32.0831 27.8366 31.7473 27.5009 31.3331 27.5009H12.2031C11.7889 27.5009 11.4531 27.8366 11.4531 28.2509Z" fill="currentColor"/>
<path d="M32.0831 32.2509C32.0831 32.6651 31.7473 33.0009 31.3331 33.0009H12.2031C11.7889 33.0009 11.4531 32.6651 11.4531 32.2509C11.4531 31.8366 11.7889 31.5009 12.2031 31.5009H31.3331C31.7473 31.5009 32.0831 31.8366 32.0831 32.2509Z" fill="currentColor"/>
<path d="M11.4531 40.2509C11.4531 40.6651 11.7889 41.0009 12.2031 41.0009H31.3331C31.7473 41.0009 32.0831 40.6651 32.0831 40.2509C32.0831 39.8366 31.7473 39.5009 31.3331 39.5009H12.2031C11.7889 39.5009 11.4531 39.8366 11.4531 40.2509Z" fill="currentColor"/>
</svg>
