<svg width="48" height="48" viewBox="0 0 48 48" fill="none" xmlns="http://www.w3.org/2000/svg">
<g clip-path="url(#clip0_3795_10977)">
<path d="M22 13.751C22 14.1652 21.6642 14.501 21.25 14.501H15.75C15.3358 14.501 15 14.1652 15 13.751C15 13.3368 15.3358 13.001 15.75 13.001H21.25C21.6642 13.001 22 13.3368 22 13.751Z" fill="currentColor"/>
<path d="M35 17.751C35 18.1652 34.6642 18.501 34.25 18.501H15.75C15.3358 18.501 15 18.1652 15 17.751C15 17.3368 15.3358 17.001 15.75 17.001H34.25C34.6642 17.001 35 17.3368 35 17.751Z" fill="currentColor"/>
<path d="M15 21.751C15 22.1652 15.3358 22.501 15.75 22.501H34.25C34.6642 22.501 35 22.1652 35 21.751C35 21.3368 34.6642 21.001 34.25 21.001H15.75C15.3358 21.001 15 21.3368 15 21.751Z" fill="currentColor"/>
<path fill-rule="evenodd" clip-rule="evenodd" d="M6 5.00098V2.00098C6 0.896407 6.89543 0.000976562 8 0.000976562H40C41.1046 0.000976562 42 0.896408 42 2.00098V46.001C42 47.1055 41.1046 48.001 40 48.001H8C6.89543 48.001 6 47.1055 6 46.001V42.501H4.75C4.33579 42.501 4 42.1652 4 41.751C4 41.3368 4.33579 41.001 4.75 41.001H6V36.501H4.75C4.33579 36.501 4 36.1652 4 35.751C4 35.3368 4.33579 35.001 4.75 35.001H6V30.501H4.75C4.33579 30.501 4 30.1652 4 29.751C4 29.3368 4.33579 29.001 4.75 29.001H6V24.501H4.75C4.33579 24.501 4 24.1652 4 23.751C4 23.3368 4.33579 23.001 4.75 23.001H6V18.501H4.75C4.33579 18.501 4 18.1652 4 17.751C4 17.3368 4.33579 17.001 4.75 17.001H6V12.501H4.75C4.33579 12.501 4 12.1652 4 11.751C4 11.3368 4.33579 11.001 4.75 11.001H6V6.50098H4.75C4.33579 6.50098 4 6.16519 4 5.75098C4 5.33676 4.33579 5.00098 4.75 5.00098H6ZM7.5 42.501H8.25C8.66421 42.501 9 42.1652 9 41.751C9 41.3368 8.66421 41.001 8.25 41.001H7.5V36.501H8.25C8.66421 36.501 9 36.1652 9 35.751C9 35.3368 8.66421 35.001 8.25 35.001H7.5V30.501H8.25C8.66421 30.501 9 30.1652 9 29.751C9 29.3368 8.66421 29.001 8.25 29.001H7.5V24.501H8.25C8.66421 24.501 9 24.1652 9 23.751C9 23.3368 8.66421 23.001 8.25 23.001H7.5V18.501H8.25C8.66421 18.501 9 18.1652 9 17.751C9 17.3368 8.66421 17.001 8.25 17.001H7.5V12.501H8.25C8.66421 12.501 9 12.1652 9 11.751C9 11.3368 8.66421 11.001 8.25 11.001H7.5V6.50098H8.25C8.66421 6.50098 9 6.16519 9 5.75098C9 5.33676 8.66421 5.00098 8.25 5.00098H7.5V2.00098C7.5 1.72483 7.72386 1.50098 8 1.50098H40C40.2761 1.50098 40.5 1.72484 40.5 2.00098V46.001C40.5 46.2771 40.2761 46.501 40 46.501H8C7.72386 46.501 7.5 46.2771 7.5 46.001V42.501Z" fill="currentColor"/>
</g>
<defs>
<clipPath id="clip0_3795_10977">
<rect width="48" height="48" fill="white" transform="translate(0 0.000976562)"/>
</clipPath>
</defs>
</svg>
