<svg width="48" height="48" viewBox="0 0 48 48" fill="none" xmlns="http://www.w3.org/2000/svg">
<path fill-rule="evenodd" clip-rule="evenodd" d="M42.3608 11.5C42.3608 17.8513 37.2121 23 30.8608 23C24.5096 23 19.3608 17.8513 19.3608 11.5C19.3608 5.14873 24.5096 0 30.8608 0C37.2121 0 42.3608 5.14873 42.3608 11.5ZM40.8608 11.5C40.8608 17.0228 36.3837 21.5 30.8608 21.5C25.338 21.5 20.8608 17.0228 20.8608 11.5C20.8608 5.97715 25.338 1.5 30.8608 1.5C36.3837 1.5 40.8608 5.97715 40.8608 11.5Z" fill="currentColor"/>
<path d="M16.6001 17.75C16.6001 18.1642 16.2643 18.5 15.8501 18.5H6.3501C5.93588 18.5 5.6001 18.1642 5.6001 17.75C5.6001 17.3358 5.93588 17 6.3501 17H15.8501C16.2643 17 16.6001 17.3358 16.6001 17.75Z" fill="currentColor"/>
<path d="M21.8501 25C22.2643 25 22.6001 25.3358 22.6001 25.75C22.6001 26.1642 22.2643 26.5 21.8501 26.5H6.3501C5.93588 26.5 5.6001 26.1642 5.6001 25.75C5.6001 25.3358 5.93588 25 6.3501 25H21.8501Z" fill="currentColor"/>
<path d="M21.8501 33C22.2643 33 22.6001 33.3358 22.6001 33.75C22.6001 34.1642 22.2643 34.5 21.8501 34.5H6.3501C5.93588 34.5 5.6001 34.1642 5.6001 33.75C5.6001 33.3358 5.93588 33 6.3501 33H21.8501Z" fill="currentColor"/>
<path d="M41.1999 20.4973C40.9513 20.2579 40.5168 20.3057 40.2295 20.604C39.9422 20.9024 39.9109 21.3384 40.1595 21.5778L46.4625 27.647C46.7111 27.8864 47.1456 27.8386 47.4329 27.5403C47.7202 27.2419 47.7516 26.8059 47.5029 26.5665L41.1999 20.4973Z" fill="currentColor"/>
<path d="M17.25 2.00085C17.6642 2.00085 18 2.33664 18 2.75085C18 3.16507 17.6642 3.50085 17.25 3.50085H2C1.72386 3.50085 1.5 3.72471 1.5 4.00085V45.0009C1.5 45.277 1.72386 45.5009 2 45.5009H33C33.2761 45.5009 33.5 45.277 33.5 45.0009V25.75C33.5 25.3358 33.8358 25 34.25 25C34.6642 25 35 25.3358 35 25.75V45.0009C35 46.1054 34.1046 47.0009 33 47.0009H2C0.895431 47.0009 0 46.1054 0 45.0009V4.00085C0 2.89629 0.895432 2.00085 2 2.00085H17.25Z" fill="currentColor"/>
</svg>
