<svg width="48" height="48" viewBox="0 0 48 48" fill="none" xmlns="http://www.w3.org/2000/svg">
<path d="M23.4973 7.25085C23.4973 7.66507 23.1615 8.00085 22.7473 8.00085H17.2028C16.7885 8.00085 16.4528 7.66507 16.4528 7.25085C16.4528 6.83664 16.7885 6.50085 17.2028 6.50085H22.7473C23.1615 6.50085 23.4973 6.83664 23.4973 7.25085Z" fill="currentColor"/>
<path d="M32.0827 11.2509C32.0827 11.6651 31.7469 12.0009 31.3327 12.0009H17.2028C16.7885 12.0009 16.4528 11.6651 16.4528 11.2509C16.4528 10.8366 16.7885 10.5009 17.2028 10.5009H31.3327C31.7469 10.5009 32.0827 10.8366 32.0827 11.2509Z" fill="currentColor"/>
<path d="M31.3327 16.0009C31.7469 16.0009 32.0827 15.6651 32.0827 15.2509C32.0827 14.8366 31.7469 14.5009 31.3327 14.5009H17.2028C16.7885 14.5009 16.4528 14.8366 16.4528 15.2509C16.4528 15.6651 16.7885 16.0009 17.2028 16.0009H31.3327Z" fill="currentColor"/>
<path fill-rule="evenodd" clip-rule="evenodd" d="M24 35C27.5899 35 30.5 32.0899 30.5 28.5C30.5 24.9101 27.5899 22 24 22C20.4101 22 17.5 24.9101 17.5 28.5C17.5 32.0899 20.4101 35 24 35ZM24 33.5C26.7614 33.5 29 31.2614 29 28.5C29 25.7386 26.7614 23.5 24 23.5C21.2386 23.5 19 25.7386 19 28.5C19 31.2614 21.2386 33.5 24 33.5Z" fill="currentColor"/>
<path fill-rule="evenodd" clip-rule="evenodd" d="M7 2.00086C7 0.896286 7.89543 0.000854492 9 0.000854492H39C40.1046 0.000854492 41 0.896285 41 2.00085V46.0009C41 47.1054 40.1046 48.0009 39 48.0009H9C7.89543 48.0009 7 47.1054 7 46.0009V2.00086ZM39 1.50085C39.2761 1.50085 39.5 1.72471 39.5 2.00085V46.0009C39.5 46.277 39.2761 46.5009 39 46.5009H34C34 40.978 29.5228 36.5009 24 36.5009C18.4772 36.5009 14 40.978 14 46.5009H9C8.72386 46.5009 8.5 46.277 8.5 46.0009V2.00086C8.5 1.72471 8.72386 1.50085 9 1.50085H39ZM15.5 46.5009H32.5C32.5 41.8064 28.6944 38.0009 24 38.0009C19.3056 38.0009 15.5 41.8064 15.5 46.5009Z" fill="currentColor"/>
</svg>
