<svg width="48" height="48" viewBox="0 0 48 48" fill="none" xmlns="http://www.w3.org/2000/svg">
<g clip-path="url(#clip0_406_1114)">
<path d="M20.6001 9.75C20.6001 10.1642 20.2643 10.5 19.8501 10.5H10.3501C9.93588 10.5 9.6001 10.1642 9.6001 9.75C9.6001 9.33579 9.93588 9 10.3501 9H19.8501C20.2643 9 20.6001 9.33579 20.6001 9.75Z" fill="currentColor"/>
<path d="M25.8501 17C26.2643 17 26.6001 17.3358 26.6001 17.75C26.6001 18.1642 26.2643 18.5 25.8501 18.5H10.3501C9.93588 18.5 9.6001 18.1642 9.6001 17.75C9.6001 17.3358 9.93588 17 10.3501 17H25.8501Z" fill="currentColor"/>
<path d="M25.8501 25C26.2643 25 26.6001 25.3358 26.6001 25.75C26.6001 26.1642 26.2643 26.5 25.8501 26.5H10.3501C9.93588 26.5 9.6001 26.1642 9.6001 25.75C9.6001 25.3358 9.93588 25 10.3501 25H25.8501Z" fill="currentColor"/>
<path fill-rule="evenodd" clip-rule="evenodd" d="M32.236 38.0398L43.736 18.1212C44.2883 17.1646 43.9606 15.9414 43.004 15.3891L41.2719 14.3891C40.3154 13.8368 39.0922 14.1646 38.5399 15.1212L27.0399 35.0398L27.138 40.8699L32.236 38.0398ZM37.0264 20.7426L28.5467 35.43L28.5957 38.345L31.1447 36.93L39.6245 22.2426L37.0264 20.7426ZM40.3745 20.9435L37.7764 19.4435L39.8389 15.8712C39.977 15.632 40.2828 15.5501 40.5219 15.6882L42.254 16.6882C42.4931 16.8262 42.5751 17.132 42.437 17.3712L40.3745 20.9435Z" fill="currentColor"/>
<path d="M14.4936 38.0922C14.6324 37.9071 14.9264 37.9936 14.9429 38.2244L15.0867 40.2371C15.1961 41.7689 17.0846 42.427 18.1223 41.2949L20.2161 39.0108C20.1931 40.3649 21.5615 41.403 22.9088 40.8977L24.0613 40.4655C24.4492 40.3201 24.6457 39.8878 24.5002 39.5C24.3548 39.1121 23.9225 38.9156 23.5347 39.061L22.3821 39.4932C22.0166 39.6303 21.6447 39.3072 21.7294 38.9261C22.0337 37.5567 20.3285 36.6683 19.3806 37.7024L17.0165 40.2813C16.8683 40.4431 16.5985 40.349 16.5829 40.1302L16.4391 38.1175C16.3237 36.5023 14.2652 35.8967 13.2936 37.1922L10.8502 40.45C10.6017 40.7813 10.6689 41.2514 11.0002 41.5C11.3316 41.7485 11.8017 41.6813 12.0502 41.3499L14.4936 38.0922Z" fill="currentColor"/>
<path d="M5.5 2C5.5 1.72386 5.72386 1.5 6 1.5H38C38.2761 1.5 38.5 1.72386 38.5 2V9.25C38.5 9.66421 38.8358 10 39.25 10Lnan nanL39.25 10C39.6642 10 40 9.66421 40 9.25V2C40 0.89543 39.1046 0 38 0H6C4.89543 0 4 0.895431 4 2V46C4 47.1046 4.89543 48 6 48H38C39.1046 48 40 47.1046 40 46V33.75C40 33.3358 39.6642 33 39.25 33Lnan nanL39.25 33C38.8358 33 38.5 33.3358 38.5 33.75V46C38.5 46.2761 38.2761 46.5 38 46.5H6C5.72386 46.5 5.5 46.2761 5.5 46V2Z" fill="currentColor"/>
</g>
<defs>
<clipPath id="clip0_406_1114">
<rect width="48" height="48" fill="white"/>
</clipPath>
</defs>
</svg>
