<svg width="48" height="48" viewBox="0 0 48 48" fill="none" xmlns="http://www.w3.org/2000/svg">
<g clip-path="url(#clip0_45_232)">
<path d="M44.4496 13.4497C47.1832 10.7161 47.1832 6.28392 44.4496 3.55025C42.0003 1.10095 38.1875 0.846163 35.4545 2.7859C35.1786 2.9817 34.8073 2.9935 34.529 2.80125C34.1302 2.52578 34.0658 1.94513 34.4556 1.65704C37.7825 -0.801718 42.4964 -0.524202 45.5102 2.48959C48.8297 5.80905 48.8297 11.191 45.5102 14.5104C44.1334 15.8872 42.4017 16.693 40.6096 16.9277C40.1314 16.9903 39.7743 16.5367 39.8663 16.0633C39.9314 15.729 40.2088 15.4725 40.5456 15.4219C41.9744 15.2072 43.3495 14.5498 44.4496 13.4497Z" fill="currentColor"/>
<path d="M28.0998 9.78505V17.0313C28.0998 17.4455 27.7641 17.7813 27.3498 17.7813C26.9356 17.7813 26.5998 17.4455 26.5998 17.0313V12.0588L26.0533 12.5576C25.748 12.8363 25.2743 12.8137 24.9969 12.5073C24.7217 12.2034 24.7431 11.7346 25.0447 11.457L27.2613 9.41713C27.5817 9.12221 28.0998 9.34953 28.0998 9.78505Z" fill="currentColor"/>
<path fill-rule="evenodd" clip-rule="evenodd" d="M27.155 2.01929C33.5299 2.01929 38.6098 7.11929 38.6098 13.5193C38.6098 19.9193 33.5299 25.0193 27.155 25.0193C20.7802 25.0193 15.7002 19.9193 15.7002 13.5193C15.7002 7.11929 20.7802 2.01929 27.155 2.01929ZM37.1098 13.5193C37.1098 7.94214 32.6959 3.51929 27.155 3.51929C21.6141 3.51929 17.2002 7.94214 17.2002 13.5193C17.2002 19.0964 21.6141 23.5193 27.155 23.5193C32.6959 23.5193 37.1098 19.0964 37.1098 13.5193Z" fill="currentColor"/>
<path d="M15.25 5.00085C15.6642 5.00085 16 5.33664 16 5.75085C16 6.16507 15.6642 6.50085 15.25 6.50085H2C1.72386 6.50085 1.5 6.72471 1.5 7.00085V46.0009C1.5 46.277 1.72386 46.5009 2 46.5009H33C33.2761 46.5009 33.5 46.277 33.5 46.0009V26.75C33.5 26.3358 33.8358 26 34.25 26C34.6642 26 35 26.3358 35 26.75V46.0009C35 47.1054 34.1046 48.0009 33 48.0009H2C0.895431 48.0009 0 47.1054 0 46.0009V7.00085C0 5.89629 0.895432 5.00085 2 5.00085H15.25Z" fill="currentColor"/>
<path d="M15.8501 24.5C16.2643 24.5 16.6001 24.1642 16.6001 23.75C16.6001 23.3358 16.2643 23 15.8501 23H6.3501C5.93588 23 5.6001 23.3358 5.6001 23.75C5.6001 24.1642 5.93588 24.5 6.3501 24.5H15.8501Z" fill="currentColor"/>
<path d="M21.8501 31C22.2643 31 22.6001 31.3358 22.6001 31.75C22.6001 32.1642 22.2643 32.5 21.8501 32.5H6.3501C5.93588 32.5 5.6001 32.1642 5.6001 31.75C5.6001 31.3358 5.93588 31 6.3501 31H21.8501Z" fill="currentColor"/>
<path d="M21.8501 39C22.2643 39 22.6001 39.3358 22.6001 39.75C22.6001 40.1642 22.2643 40.5 21.8501 40.5H6.3501C5.93588 40.5 5.6001 40.1642 5.6001 39.75C5.6001 39.3358 5.93588 39 6.3501 39H21.8501Z" fill="currentColor"/>
</g>
<defs>
<clipPath id="clip0_45_232">
<rect width="48" height="48" fill="white"/>
</clipPath>
</defs>
</svg>
