<svg width="48" height="48" viewBox="0 0 48 48" fill="none" xmlns="http://www.w3.org/2000/svg">
<g clip-path="url(#clip0_3795_10610)">
<path fill-rule="evenodd" clip-rule="evenodd" d="M15.636 17.6993L8.68198 24.6534C6.92462 26.4108 4.07539 26.4108 2.31802 24.6534C0.560658 22.896 0.560661 20.0468 2.31802 18.2894L19.2886 1.31887C21.0459 -0.43848 23.8952 -0.438491 25.6525 1.31887C27.4099 3.07624 27.4099 5.92548 25.6525 7.68284L19.886 13.4493V23.3074L17.761 20.4779L15.636 26.1369V17.6993ZM7.55061 23.522C8.68313 22.3895 8.68313 20.5533 7.55061 19.4208C6.41809 18.2883 4.58191 18.2883 3.44939 19.4208C2.31687 20.5533 2.31687 22.3895 3.44939 23.522C4.58192 24.6546 6.41809 24.6545 7.55061 23.522ZM24.5212 6.55146L19.8833 11.1893C19.7967 10.1683 19.3628 9.17123 18.5815 8.38994C17.8002 7.60866 16.8031 7.17472 15.7821 7.08812L20.42 2.45025C21.5525 1.31773 23.3886 1.31772 24.5212 2.45025C25.6537 3.58277 25.6537 5.41895 24.5212 6.55146ZM14.6217 12.3497C15.7542 13.4823 15.7542 15.3184 14.6217 16.451L9.98381 21.0888C9.89721 20.0678 9.46327 19.0707 8.68198 18.2894C7.9007 17.5082 6.90361 17.0742 5.88259 16.9876L10.5205 12.3497C11.653 11.2172 13.4892 11.2172 14.6217 12.3497Z" fill="currentColor"/>
<path d="M39.6725 21.5491C39.9067 21.3149 39.9544 20.9485 39.7595 20.6807C38.7162 19.2468 37.1007 18.2559 35.2486 18.0435C34.8371 17.9963 34.5 18.3366 34.5 18.7509C34.5 19.1651 34.8377 19.4949 35.2474 19.5563C36.5362 19.7495 37.664 20.4345 38.4338 21.4143C38.7371 21.8003 39.3253 21.8962 39.6725 21.5491Z" fill="currentColor"/>
<path fill-rule="evenodd" clip-rule="evenodd" d="M30.5 40.0009V36.9477C30.5 34.6133 29.0058 32.5941 27.4425 30.8604C25.9243 29.1766 25 26.9466 25 24.5009C25 19.2541 29.2533 15.0009 34.5 15.0009C39.7467 15.0009 44 19.2541 44 24.5009C44 26.9466 43.0757 29.1766 41.5575 30.8604C39.9942 32.5941 38.5 34.6133 38.5 36.9477V40.0009H45C46.1046 40.0009 47 40.8963 47 42.0009V43.0009C47 44.1054 46.1046 45.0009 45 45.0009V46.0009C45 47.1054 44.1046 48.0009 43 48.0009H26C24.8954 48.0009 24 47.1054 24 46.0009V45.0009C22.8954 45.0009 22 44.1054 22 43.0009V42.0009C22 40.8963 22.8954 40.0009 24 40.0009H30.5ZM42.5 24.5009C42.5 26.5614 41.7229 28.4369 40.4435 29.8559C38.8778 31.5923 37 33.9915 37 36.9477V40.0009H32V36.9477C32 33.9915 30.1222 31.5923 28.5565 29.8559C27.2771 28.4369 26.5 26.5614 26.5 24.5009C26.5 20.0826 30.0817 16.5009 34.5 16.5009C38.9183 16.5009 42.5 20.0826 42.5 24.5009ZM45 43.5009C45.2761 43.5009 45.5 43.277 45.5 43.0009V42.0009C45.5 41.7247 45.2761 41.5009 45 41.5009H24C23.7239 41.5009 23.5 41.7247 23.5 42.0009V43.0009C23.5 43.277 23.7239 43.5009 24 43.5009H45ZM26 46.5009C25.7239 46.5009 25.5 46.277 25.5 46.0009V45.0009H43.5V46.0009C43.5 46.277 43.2761 46.5009 43 46.5009H26Z" fill="currentColor"/>
<path d="M4 4.00085C4 2.89629 4.89543 2.00085 6 2.00085H14.1827C14.6341 2.00085 15 2.36675 15 2.81811C15 3.26947 14.6341 3.63537 14.1827 3.63537H6.12871C5.85257 3.63537 5.62871 3.85923 5.62871 4.13537V12.1865C5.62871 12.6363 5.26411 13.0009 4.81436 13.0009C4.3646 13.0009 4 12.6363 4 12.1865V4.00085Z" fill="currentColor"/>
<path d="M4.81436 28.0009C4.3646 28.0009 4 28.3655 4 28.8152V46.0009C4 47.1054 4.89543 48.0009 6 48.0009H20.2396C20.691 48.0009 21.0569 47.635 21.0569 47.1836C21.0569 46.7322 20.691 46.3663 20.2396 46.3663H5.62871V28.8152C5.62871 28.3655 5.26411 28.0009 4.81436 28.0009Z" fill="currentColor"/>
<path d="M34.9703 4.13537C34.9703 3.85923 34.7464 3.63537 34.4703 3.63537H29.8173C29.3659 3.63537 29 3.26947 29 2.81811C29 2.36675 29.3659 2.00085 29.8173 2.00085H34.599C35.7035 2.00085 36.599 2.89629 36.599 4.00085V10.4606C36.599 10.9104 36.2344 11.275 35.7846 11.275C35.3349 11.275 34.9703 10.9104 34.9703 10.4606V4.13537Z" fill="currentColor"/>
<path d="M20.25 29.0009C20.6642 29.0009 21 29.3366 21 29.7509C21 30.1651 20.6642 30.5009 20.25 30.5009H10.75C10.3358 30.5009 10 30.1651 10 29.7509C10 29.3366 10.3358 29.0009 10.75 29.0009H20.25Z" fill="currentColor"/>
<path d="M20.25 34.0009C20.6642 34.0009 21 34.3366 21 34.7509C21 35.1651 20.6642 35.5009 20.25 35.5009H10.75C10.3358 35.5009 10 35.1651 10 34.7509C10 34.3366 10.3358 34.0009 10.75 34.0009H20.25Z" fill="currentColor"/>
</g>
<defs>
<clipPath id="clip0_3795_10610">
<rect width="48" height="48" fill="white" transform="translate(0 0.000854492)"/>
</clipPath>
</defs>
</svg>
