<svg width="48" height="48" viewBox="0 0 48 48" fill="none" xmlns="http://www.w3.org/2000/svg">
<path fill-rule="evenodd" clip-rule="evenodd" d="M15.43 12.8953C15.7314 12.8953 15.8175 13.0675 15.8605 13.1967V13.2828C15.8605 13.3689 15.8605 13.498 15.8175 13.5411L15.7744 13.6272V13.6703L15.8175 13.7133L15.9466 13.9286L16.0327 14.0577C16.2049 14.3591 16.4202 14.7466 16.4202 15.134C16.4202 15.7798 16.5494 16.5548 17.1521 17.2006H17.0229L16.9368 17.1575C16.7646 17.1145 16.5924 16.9853 16.3771 16.8131C16.3341 16.8131 16.3341 16.8992 16.3341 17.0284V18.0616C16.3771 18.32 16.4202 18.5352 16.5063 18.6644C16.5924 18.7505 16.4202 18.7074 16.248 18.5352L16.0327 18.32C15.9897 18.2339 15.9466 18.1908 15.9036 18.2339H15.8605L15.8175 18.2769L15.6883 18.5352C15.6022 18.8796 15.5161 19.3963 15.8175 19.9129C15.8605 19.999 15.8175 19.999 15.7314 19.956L15.6883 19.9129L15.6022 19.8699C15.473 19.7838 15.2578 19.6115 15.1717 19.4393C15.1717 19.3963 15.1286 19.4393 15.0856 19.5254L14.9995 19.6977V19.8268C14.9134 20.2143 14.9134 20.8601 15.2147 21.4198C15.2578 21.5059 15.1717 21.4628 15.0856 21.4198L14.9134 21.3337L14.9995 21.2906C14.9995 21.2906 14.9564 21.2906 14.9564 21.2476L14.8272 21.1184V21.0753C14.7411 20.9462 14.612 21.2476 14.8272 21.7211L15.0856 22.1947L15.2578 22.5391C15.2924 22.5968 15.3239 22.6514 15.3532 22.7021C15.4331 22.8405 15.4961 22.9497 15.5591 23.0127C15.6453 23.0988 15.8175 23.228 16.0327 23.3141L16.3771 23.4863C16.3987 23.5078 16.4202 23.5186 16.4417 23.5294C16.4633 23.5401 16.4848 23.5509 16.5063 23.5724H16.5494L16.9368 23.8307C17.2813 24.046 17.7979 24.3043 18.2715 24.3043C19.0034 24.3043 19.3908 23.7877 19.3908 23.5294H19.3478L19.0895 23.4863H19.0034L18.9173 23.4432L18.659 23.3571H18.6159L18.4867 23.3141C17.8409 23.0558 17.0229 22.4961 17.0229 21.1184C17.0229 20.0421 17.7118 19.2671 18.2715 18.7935L18.5298 18.6213L18.6159 18.5352L18.8742 18.363L19.2617 18.7505L19.1325 18.8366L18.9603 18.9658L18.8312 19.0519L18.659 19.2241C18.1854 19.6546 17.5826 20.3434 17.5826 21.1184C17.5826 22.41 18.7451 23.0127 19.4339 23.0127V22.5391L19.3908 22.453C19.2617 22.1517 18.9603 21.8072 18.1854 21.4628H18.4437C18.702 21.4628 19.1325 21.5059 19.4339 21.9364C19.541 22.0791 19.5889 22.0148 19.6266 21.9641C19.6344 21.9537 19.6418 21.9438 19.6492 21.9364L19.6591 21.9261C19.7194 21.8629 19.9288 21.643 20.2519 21.7642L20.1658 21.8072V21.8503L20.1227 21.8933C19.9936 22.0656 19.8214 22.453 19.9936 22.9697H20.1227L20.2089 22.9266H20.2519L20.338 22.8836C20.7255 22.6683 21.3282 22.2378 21.3282 21.2906C21.3282 20.4295 20.7255 19.7838 20.1227 19.2241L19.9505 19.0519L19.6061 18.7505L19.3908 18.5352C19.3308 18.5052 19.2917 18.4543 19.2589 18.4116C19.2447 18.393 19.2317 18.376 19.2186 18.363L19.1756 18.32C19.1325 18.2769 19.0895 18.2231 19.0464 18.1693C19.0034 18.1155 18.9603 18.0616 18.9173 18.0186L18.5298 17.6311C18.0993 17.2006 17.7118 16.727 17.6257 16.0382L17.5826 15.9521H17.5396C17.5296 15.9454 17.5183 15.9382 17.506 15.9304C17.3592 15.837 17.066 15.6504 17.066 15.134C17.066 14.7896 17.2813 14.4452 17.4965 14.1869L17.5826 14.0577L17.7979 13.8425L17.884 13.7994L17.9271 13.7564H17.9701V13.7994L17.9271 14.0147L17.884 14.1008C17.8409 14.273 17.8409 14.4883 18.0132 14.4883C18.2715 14.4883 18.8312 13.8425 18.8312 13.7133C18.8312 13.6703 18.8742 13.7133 18.8742 13.7564V13.9716L18.8312 14.0577C18.7881 14.1869 18.7451 14.316 18.659 14.4022L18.6159 14.4452C18.5944 14.4883 18.5621 14.5205 18.5298 14.5528C18.4975 14.5851 18.4652 14.6174 18.4437 14.6605L18.1854 14.9618C18.1706 14.9815 18.1559 15.0005 18.1416 15.0191C18.0301 15.1635 17.9418 15.2779 18.0562 15.3924C18.1854 15.5646 18.4867 15.3493 18.659 15.1771L18.702 15.091L18.7451 15.0479V15.134L18.702 15.2202V15.2632L18.659 15.3493C18.5728 15.5646 18.4006 15.8229 18.1423 15.9521V16.2534L18.1854 16.2965L18.2715 16.4687C18.2715 16.4687 18.2715 16.5117 18.3145 16.5117L18.3576 16.5978L18.5728 16.8131L18.659 16.9423L18.9173 17.2006C18.8564 17.231 18.8601 17.2399 18.8675 17.2578C18.8705 17.2652 18.8742 17.2741 18.8742 17.2867L19.3478 17.7603L19.7783 18.1047L19.9505 18.2769L20.2089 18.4922L20.6394 18.8366L20.8977 19.0949H20.9408C20.9838 19.0519 21.0269 19.0088 21.0269 18.8796V18.8366C21.0269 18.5783 21.113 18.32 21.2421 18.2339V18.9227C21.2421 19.2671 21.2852 19.6546 21.4143 19.7407C21.5435 19.7838 21.5865 19.6546 21.5865 19.4824C21.6296 19.3102 21.7588 19.138 21.8018 19.181L21.7588 19.3102L21.7157 19.4824V19.7407C21.6726 20.0851 21.6726 20.4295 21.8879 20.5587C21.9062 20.5587 21.9167 20.5587 21.9261 20.5554C21.9387 20.5509 21.9493 20.5404 21.974 20.5157L22.0171 20.4726C22.0443 20.4182 22.1058 20.381 22.2018 20.3827C22.0508 20.5192 21.897 20.7786 21.931 21.1184C21.974 21.7211 21.4143 23.271 19.9936 23.4863V23.5724L19.9505 23.6585L19.9075 23.7016L19.8214 23.8738C19.6061 24.2613 19.1756 24.8209 18.0993 24.6918L18.4006 24.9931L18.5728 25.2515C18.5728 25.273 18.5836 25.2838 18.5944 25.2945C18.6051 25.3053 18.6159 25.316 18.6159 25.3376L18.702 25.4667C19.0895 26.0264 19.477 26.8444 19.4339 27.7485L19.3908 27.6624L19.3478 27.4902L19.1756 27.0597L19.0895 26.9305C19.0895 26.909 19.0787 26.8982 19.068 26.8875C19.0572 26.8767 19.0464 26.8659 19.0464 26.8444L18.9603 26.7153L18.7881 26.3708L18.5298 26.0264C18.4703 25.9075 18.3904 25.8091 18.304 25.703C18.2654 25.6554 18.2253 25.6061 18.1854 25.5528L18.0132 25.3806C17.5826 24.864 17.066 24.3904 16.4633 24.046L16.3341 23.9599C16.291 23.9599 16.248 24.0029 16.291 24.1751C16.3341 24.3904 16.1619 24.864 16.0327 25.0793C16.0327 25.0971 16.0253 25.1075 16.0167 25.1198C16.0044 25.1371 15.9897 25.158 15.9897 25.2084V25.8542C16.0758 26.5861 16.4633 27.5763 17.6687 27.9207C17.884 27.9638 18.0562 27.9638 18.2284 27.9638H18.4006L18.4867 27.9207V27.9638L18.4006 28.0499L18.4437 27.9638C18.2715 28.093 17.9701 28.2652 17.3674 28.2652C17.109 28.2652 17.109 28.6526 17.4965 28.6526V28.911L17.3674 29.2984L17.2382 29.8151L16.9799 30.3317C16.9799 30.3532 16.9691 30.364 16.9584 30.3748C16.9476 30.3855 16.9368 30.3963 16.9368 30.4178L16.8507 30.59C16.6785 30.9775 16.4633 31.3219 16.248 31.5372C16.1369 31.6112 16.185 31.6534 16.2281 31.6912C16.2351 31.6973 16.242 31.7034 16.248 31.7094H16.3341C16.3607 31.7094 16.3873 31.7258 16.4241 31.7486C16.4468 31.7626 16.4734 31.7791 16.5063 31.7955L16.5924 31.8386C16.5924 31.8386 16.6355 31.8386 16.6355 31.8816L16.7216 31.9247C16.7431 31.9462 16.7646 31.9569 16.7862 31.9677C16.8077 31.9785 16.8292 31.9892 16.8507 32.0108H16.8077C16.7216 32.0108 16.6355 32.0108 16.6355 32.0538V32.3121L16.6291 32.3316C16.5876 32.4579 16.5366 32.6135 16.291 32.6135C15.9466 32.6135 15.8605 32.2691 15.8605 32.0969C15.8605 31.9247 15.6883 31.9247 15.6022 31.9247C15.5591 31.9247 15.3008 32.0108 15.2147 32.3121L15.1717 32.4413C15.1286 32.7427 14.9995 33.001 14.7411 33.001C14.4398 33.001 14.3537 32.7857 14.3537 32.6135C14.3537 32.5704 14.3537 32.5704 14.3106 32.5704H14.2676C14.2245 32.5704 14.1384 32.5704 14.0523 32.5274L14.1815 32.4413L14.2676 32.3982L14.5259 32.226C14.7411 32.0538 14.9134 31.8816 14.8703 31.7955C14.7842 31.5802 14.655 31.6233 14.5689 31.7094L14.5259 31.7524L14.4398 31.7955C14.3106 31.8816 14.0953 32.0108 13.9231 32.0538C13.6648 32.0969 13.5357 31.7524 13.6648 31.4941L13.7079 31.4511C13.7383 31.4206 13.7257 31.4117 13.7005 31.3939C13.69 31.3865 13.6774 31.3776 13.6648 31.365L13.5787 31.3219C13.5572 31.3004 13.5357 31.2896 13.5141 31.2789C13.4926 31.2681 13.4711 31.2573 13.4496 31.2358H13.9231C14.2676 31.2358 14.655 31.2358 14.655 31.0636C14.612 30.8053 14.3967 30.8053 14.2676 30.8483C14.1384 30.8914 13.7509 30.8483 13.7509 30.59C13.7509 30.5685 13.7617 30.547 13.7725 30.5254C13.7832 30.5039 13.794 30.4824 13.794 30.4609L13.837 30.3748C13.8801 30.3317 13.8801 30.2886 13.8801 30.2456C13.8801 30.2025 13.837 30.1595 13.794 30.1164L13.7509 30.0734H13.9231C14.0092 30.0734 14.1384 30.0734 14.2676 30.1164C14.3537 30.1595 14.4398 30.2025 14.5259 30.3317L14.6981 30.5039C14.8703 30.6761 15.0856 30.8914 15.2578 30.8914C15.6022 30.8914 15.9036 30.3748 15.9036 29.3415V28.4374C15.895 28.4029 15.8881 28.3719 15.8819 28.344C15.8571 28.2324 15.8433 28.1705 15.7744 28.136L15.7314 28.093L15.6453 28.0499L15.6022 28.0068C15.6022 28.0068 15.5591 27.9638 15.5591 27.9207V27.8346C15.5591 27.7916 15.5591 27.7055 15.473 27.6624C15.3439 27.6194 15.1717 27.7916 15.1286 28.4804V29.1693L15.0856 29.2984L14.9995 29.1262V29.0832L14.9134 28.8249C14.8703 28.6526 14.8272 28.4804 14.8272 28.2652V27.9207C14.8272 27.8346 14.8272 27.7916 14.7842 27.7485C14.7842 27.7485 14.7411 27.7485 14.6981 27.7916L14.5259 27.9638C14.3967 28.093 14.2245 28.2652 14.0092 28.3513L14.1384 28.093C14.2245 27.9207 14.3106 27.6624 14.3106 27.4472C14.3106 27.4041 14.3106 27.3611 14.2676 27.318V27.275L14.3106 27.1458L14.1815 27.0166C14.0523 26.8444 13.8801 26.5 13.8801 25.5959C13.8801 25.2945 13.9231 25.0793 13.9662 24.907L14.0092 24.7779C14.0523 24.6057 14.0953 24.4335 14.0953 24.1751C14.0953 23.8738 13.7509 23.5294 13.3635 23.1849L13.019 22.9266L12.9329 22.8405L12.3732 22.453L12.0288 22.1947L11.9427 22.1086L11.7274 21.9364L11.2108 21.4198V21.3767C11.1806 21.3465 11.214 21.2951 11.2514 21.2374C11.2674 21.2128 11.2841 21.1871 11.2969 21.1614L11.5552 20.8601L11.6413 20.7309C11.7705 20.5587 11.8566 20.3865 11.7274 20.3004C11.5552 20.1712 11.4691 20.2573 11.34 20.4295L11.2108 20.6879C11.2108 20.7094 11.2 20.7202 11.1893 20.7309C11.1785 20.7417 11.1678 20.7524 11.1678 20.774C10.9955 21.0323 10.6942 21.2906 10.565 21.3767C10.522 21.3767 10.522 21.3337 10.522 21.2476V20.774C10.522 20.5587 10.4789 20.3434 10.3498 20.3434C10.0484 20.3434 10.0053 20.6448 10.0484 20.774V20.817C10.0484 20.8337 10.0484 20.8439 10.0434 20.8501C10.0355 20.8601 10.0151 20.8601 9.96228 20.8601H9.87617C9.74701 20.8601 9.61785 20.9031 9.4887 21.0323L9.44564 21.1184C9.44564 21.1184 9.44564 21.1614 9.40259 21.1614L9.35954 21.2476C9.34916 21.2683 9.33817 21.2897 9.32677 21.3118C9.24356 21.4735 9.13909 21.6765 9.10122 21.9795V21.8933C9.05817 21.7642 9.01511 21.4628 9.10122 21.2045L9.14427 21.1184C9.14427 21.1018 9.14427 21.0915 9.1393 21.0853C9.13141 21.0753 9.11099 21.0753 9.05817 21.0753H8.54153L8.19711 21.1614L7.89574 21.2045L7.46521 21.2906C7.42216 21.2906 7.37911 21.2906 7.33605 21.3337C7.20689 21.3767 7.16384 21.4198 7.16384 21.635V22.5391C7.16384 22.5822 7.12079 22.5391 7.12079 22.4961V22.3669H6.94858C6.77637 22.41 6.51805 22.41 6.51805 22.1517C6.51805 21.9364 6.5611 21.8933 6.64721 21.8503L6.69026 21.8072C6.7018 21.7957 6.71333 21.7873 6.72404 21.7794C6.75329 21.758 6.77637 21.7411 6.77637 21.6781C6.77637 21.4198 6.60415 21.2906 6.38889 21.2906C6.25973 21.2906 6.17363 21.3767 6.08752 21.4628L6.00141 21.5489C5.87226 21.6781 5.7431 21.8072 5.57089 21.8072C5.18341 21.8072 5.14036 21.5489 5.14036 21.4198C5.14036 21.3487 5.15341 21.3037 5.16513 21.2632C5.17471 21.2302 5.18341 21.2002 5.18341 21.1614C5.18341 21.0753 5.0973 20.9892 5.0112 20.9892C4.96815 20.9892 5.05425 20.9462 5.18341 20.9462H5.22646L5.48478 20.9892C5.78615 21.0323 6.17363 20.9892 6.17363 20.7309C6.17363 20.6448 6.08752 20.6018 6.00141 20.6448H5.78615L5.61394 20.6018C5.39867 20.5587 5.0973 20.4726 5.0973 20.1282C5.0973 19.956 5.26952 19.8699 5.35562 19.8268H5.39867C5.39867 19.809 5.40606 19.7838 5.41472 19.7542C5.42695 19.7124 5.44173 19.662 5.44173 19.6115C5.44173 19.5949 5.44173 19.5848 5.44666 19.5809C5.45452 19.5749 5.47492 19.5851 5.52783 19.6115V19.5254L5.61394 19.5685L5.7431 19.6546L6.13057 20.0421C6.21668 20.1712 6.34584 20.1282 6.38889 20.0851H6.43194C6.475 20.0421 6.5611 19.9129 6.34584 19.7838C6.08752 19.6546 6.08752 19.5254 6.08752 19.3102C6.08752 19.1547 6.1928 19.1045 6.27662 19.0645C6.28564 19.0602 6.29442 19.056 6.30278 19.0519H6.34584C6.38889 19.0519 6.43194 18.8796 6.38889 18.7935V18.7505C6.34584 18.6213 6.69026 18.9227 6.86247 19.2671C6.86247 19.2886 6.87323 19.3102 6.884 19.3317C6.89476 19.3532 6.90552 19.3748 6.90552 19.3963V19.6115C6.90552 19.8268 6.94858 19.999 7.20689 20.1282H7.50826L7.59437 20.0851L7.72353 20.0421C7.72353 20.0421 7.76658 20.0421 7.80963 19.999L7.89574 19.956L8.15406 19.8699L8.92901 19.5685L10.1345 19.138C10.2206 19.0949 10.3928 19.0088 10.3067 18.8796C10.2206 18.7074 9.91922 18.6644 9.4887 18.9658L9.44564 19.0088C9.35954 19.0949 9.31648 19.0519 9.35954 18.9658L9.40259 18.9227L9.44564 18.8366C9.44564 18.8366 9.44564 18.7935 9.4887 18.7935L9.53175 18.7074C9.53175 18.7074 9.53175 18.6644 9.5748 18.6644L9.66091 18.5783C9.67735 18.5618 9.68751 18.5454 9.69619 18.5313C9.71024 18.5086 9.7204 18.4922 9.74701 18.4922L9.83312 18.4061C10.1345 18.0186 10.6081 17.6311 11.0386 17.6311C11.2108 17.6311 11.2539 17.545 11.2539 17.4589V17.4158C11.2539 17.3297 11.1678 17.2436 10.8664 17.2436C10.4789 17.2436 9.96228 17.6311 9.74701 18.0186H9.66091L9.53175 17.9325C9.44564 17.8464 9.27343 17.8033 9.05817 17.8033C8.90685 17.8033 8.78508 17.8181 8.6842 17.8303C8.61286 17.839 8.55198 17.8464 8.49848 17.8464L8.41237 17.8894H8.28321C8.19711 17.8894 8.49848 17.4589 9.01511 17.4589C9.10122 17.4589 9.10122 17.3297 8.92901 17.2006L8.88595 17.1575C8.8297 17.1294 8.75507 17.0462 8.67407 16.9558C8.63109 16.9078 8.58631 16.8579 8.54153 16.8131L8.15406 16.2965L8.06795 16.2104C7.98184 16.1243 7.89574 16.2534 7.76658 16.4687L7.72353 16.5548L7.59437 16.9423C7.59437 16.9853 7.55132 16.9423 7.55132 16.8992V16.7701C7.55132 16.727 7.50826 16.727 7.50826 16.727L7.42216 16.684C7.293 16.6409 7.16384 16.5548 7.16384 16.2965C7.16384 15.9951 7.33605 15.9521 7.50826 15.9951H7.55132L7.63742 16.0382H7.68048C7.85269 16.0812 8.0249 15.8659 7.98184 15.6937C7.88264 15.637 7.79744 15.5757 7.71855 15.5189C7.55777 15.4031 7.42323 15.3063 7.24995 15.3063H7.20689C6.90552 15.3493 6.475 15.134 6.475 14.7896C6.475 14.6174 6.5611 14.5313 6.64721 14.4883L6.73331 14.4452H6.77637C6.81942 14.4022 6.81942 14.2299 6.81942 14.1869H6.86247L6.90552 14.2299L6.99163 14.273L7.50826 14.7896C7.63742 14.9188 7.68048 14.9618 7.76658 14.9188C7.85269 14.8757 7.89574 14.6605 7.59437 14.4022C7.293 14.1438 7.33605 13.8425 7.46521 13.6703H7.68048C7.80963 13.6703 7.93879 13.6703 7.98184 13.5841C7.98184 13.498 8.0249 13.5411 8.0249 13.5841V13.7133L8.06795 13.7994V14.1438L8.111 14.2299V14.3591C8.111 14.6174 8.19711 14.6605 8.28321 14.6605C8.36932 14.6605 8.45543 14.6174 8.41237 14.2299C8.36932 13.8855 8.45543 13.7994 8.54153 13.7564L8.58459 13.7133C8.67069 13.6703 8.79985 13.6703 8.88595 13.7564C8.97206 13.8425 9.14427 13.7133 9.14427 13.5841V13.7564C9.18732 13.8855 9.18732 14.0577 9.05817 14.2299C9.04172 14.2464 9.03156 14.2628 9.02288 14.2769C9.00883 14.2996 8.99867 14.316 8.97206 14.316L8.79985 14.4883C8.62764 14.6605 8.49848 14.8757 8.67069 15.2202L8.71374 15.3063L10.4359 17.0714C10.4789 17.0714 10.522 17.0284 10.4359 16.9423C10.3498 16.8131 10.3498 16.684 10.4359 16.5978V16.5548L10.4789 16.5978L10.6511 16.684C10.6511 16.684 10.6942 16.684 10.6942 16.727L10.7803 16.7701C11.0816 16.8992 11.5122 17.0284 12.158 16.9423C13.1719 16.8296 13.6617 16.1929 13.6561 15.9178L13.4926 16.0812L13.4338 16.1167C13.2311 16.2398 12.9959 16.3826 12.7607 16.3826C12.2871 16.3826 12.0288 15.909 12.1149 15.6076V15.5646L12.201 15.6507C12.2871 15.7368 12.5024 15.8659 12.7607 15.8659C13.1482 15.8659 13.5787 15.3924 13.4926 15.134C13.4926 15.091 13.4496 15.091 13.3635 15.134L13.2773 15.091L12.8468 15.2202L12.6746 15.2632C12.6316 15.2632 12.6316 15.2632 12.5885 15.3063L12.4163 15.3493C12.1149 15.4354 11.6844 15.4785 11.2539 15.4785C9.87617 15.4785 9.66091 14.1008 10.6511 13.5411L10.6081 13.5841L10.565 13.6703V14.0577C10.4789 14.5313 10.6081 15.134 11.7274 15.134C11.9427 15.134 12.158 15.134 12.3302 15.091L12.5024 15.0479C12.5454 15.0479 12.6316 15.0479 12.6746 15.0049L12.8468 14.9618L13.1051 14.8757L13.2773 14.7896L13.4065 14.7466V14.6605C13.3635 14.5313 13.1912 14.2299 12.8038 14.2299C12.4397 14.2299 12.2657 14.4959 12.1746 14.6352L12.158 14.6605L12.1149 14.7035V14.7466L12.0719 14.7035L11.9858 14.7896C11.8566 14.7035 11.6413 14.4452 11.7274 14.1438C11.7274 14.1008 11.7705 14.1008 11.8135 14.1008H11.9858C12.1149 14.0577 12.2441 14.0147 12.2441 13.8425C12.2441 13.7564 12.201 13.7133 12.158 13.7133H12.1149C12.0719 13.7133 12.0288 13.7564 11.9858 13.7994L11.9427 13.8855C11.9312 13.8971 11.9227 13.9086 11.9149 13.9193C11.8935 13.9486 11.8766 13.9716 11.8135 13.9716C11.6413 13.9716 11.6413 13.455 11.9858 13.455H12.0288C12.1149 13.455 12.2441 13.455 12.2871 13.3689V13.3258C12.2871 13.1967 12.5885 13.0675 13.2343 13.0245H13.794C14.2331 13.0245 14.5241 13.0985 14.7014 13.1436L14.7411 13.1536L14.8272 13.1967L14.9564 13.3258V13.2828C14.9995 13.1106 15.1286 12.8953 15.43 12.8953ZM12.976 20.2143C12.8899 20.2143 12.8038 20.2573 12.8038 20.3434V20.4726C12.8038 20.4726 12.8038 20.5157 12.7607 20.5157L12.6746 20.6879C12.5454 20.8601 12.3732 21.0753 11.9858 21.2476C11.9427 21.2906 11.8997 21.3767 11.9427 21.4628C11.9858 21.5059 12.0288 21.5489 12.1149 21.5489H12.158C12.7177 21.2906 12.976 20.9462 13.0621 20.6879L13.1051 20.6018V20.3865C13.1051 20.3004 13.0621 20.2143 12.976 20.2143ZM14.1815 20.1282C14.0953 20.1282 14.0523 20.1712 14.0092 20.2573V20.4295C13.9662 20.6448 13.837 21.0323 13.3635 21.2906C13.3204 21.3337 13.2773 21.4198 13.3204 21.5059C13.3635 21.5489 13.4065 21.592 13.4926 21.592H13.5357C14.0523 21.3337 14.2676 20.9031 14.3537 20.6018V20.3004C14.3106 20.1712 14.2676 20.1282 14.1815 20.1282ZM12.2441 18.1477C12.201 18.2339 12.2441 18.32 12.2871 18.4061L12.3302 18.4491C12.3732 18.4922 12.5024 18.6213 12.5454 18.7935C12.6316 19.0949 12.5454 19.5254 12.2871 19.956C12.2441 19.999 12.2441 20.1282 12.3302 20.1712C12.3732 20.2143 12.3732 20.2143 12.4163 20.2143C12.4593 20.2143 12.5454 20.1712 12.5885 20.1282C12.8899 19.6115 13.019 19.138 12.9329 18.7505V18.6644C12.8955 18.4401 12.7608 18.3132 12.6696 18.2273C12.6557 18.2142 12.6429 18.2021 12.6316 18.1908L12.5885 18.1477L12.4593 18.1047C12.3732 18.0616 12.2441 18.0616 12.2441 18.1477ZM11.4261 18.2769L11.34 18.32L11.1678 18.4922C10.9525 18.7074 10.7372 19.0949 10.6511 19.7407C10.6511 19.8268 10.6942 19.9129 10.7803 19.9129H10.8664C10.9094 19.9129 10.9955 19.8699 11.0386 19.7838V19.7407C11.0816 19.138 11.34 18.7935 11.5122 18.6213L11.5983 18.5352C11.6844 18.4922 11.6844 18.363 11.6413 18.32C11.5983 18.2769 11.5122 18.2769 11.4261 18.2769ZM13.4496 17.1575C13.4065 17.2436 13.4065 17.3297 13.4926 17.3728L13.6218 17.502V17.545L13.6648 17.5881C13.794 17.8033 13.9231 18.1477 13.794 18.7935L13.7509 18.9227C13.7079 19.0088 13.7509 19.0519 13.837 19.0949H13.9231C13.9662 19.0949 14.0523 19.0519 14.0953 18.9658C14.3106 18.0186 14.0092 17.502 13.837 17.2867L13.7509 17.2006L13.7079 17.1145L13.6648 17.0714C13.5787 17.0714 13.4926 17.0714 13.4496 17.1575ZM14.1815 15.0479C14.1384 15.134 14.1815 15.2202 14.2676 15.2632C14.7411 15.4354 15.1717 15.6937 15.2147 15.8229H14.5689C14.5259 15.8229 14.4398 15.8659 14.3967 15.909C14.3701 15.9356 14.3764 15.9622 14.3851 15.999C14.3904 16.0217 14.3967 16.0483 14.3967 16.0812L14.4398 16.1673L14.4828 16.2104V16.684C14.4828 16.8562 14.4828 17.0714 14.4398 17.2867C14.4398 17.3728 14.4828 17.4158 14.612 17.4589H14.6981C14.7411 17.4589 14.8272 17.3728 14.8272 17.2867V16.5978C14.8272 16.3826 14.7842 16.2534 14.7411 16.1243C14.9995 16.1243 15.2147 16.0812 15.3439 15.9521C15.3869 15.909 15.43 15.8229 15.43 15.7368C15.43 15.4354 14.9995 15.1771 14.655 15.0049L14.3967 14.9188L14.3106 14.8757H14.2676C14.2942 14.9023 14.2714 14.9289 14.24 14.9657C14.2206 14.9884 14.1979 15.0151 14.1815 15.0479ZM13.794 13.3689H13.019C12.9168 13.3689 12.8955 13.3958 12.8697 13.4284C12.8629 13.437 12.8558 13.446 12.8468 13.455C12.8468 13.5054 12.8616 13.5411 12.8738 13.5706C12.8825 13.5915 12.8899 13.6094 12.8899 13.6272L12.9329 13.6703H13.4065C13.4496 13.6703 13.5357 13.6703 13.5357 13.7133C13.5357 13.7564 13.4065 13.7994 13.2773 13.8425H13.0621L13.1051 13.8855C13.1482 13.9716 13.2343 14.0147 13.4065 14.0147C13.6648 14.0147 13.7509 13.7994 13.7509 13.6272V13.5411C13.794 13.5411 13.9231 13.5411 13.9231 13.455C13.9662 13.4119 13.8801 13.3689 13.794 13.3689Z" fill="currentColor"/>
<path d="M22.2018 20.3827C22.2421 20.3462 22.2822 20.3185 22.3184 20.3004L22.3615 20.2573L22.4045 20.4295C22.3253 20.3978 22.2577 20.3836 22.2018 20.3827Z" fill="currentColor"/>
<path d="M10.8664 22.7975H12.5454C12.5885 22.7975 12.5885 22.8405 12.5885 22.8836V22.9266C12.5885 22.9697 12.5885 23.0558 12.7177 23.0988C12.8899 23.1419 13.4065 23.5724 13.4065 23.7877C13.4065 23.8307 13.3635 23.9168 13.3204 23.9599L13.1912 24.1321C13.1482 24.2182 13.1051 24.3043 13.1912 24.4765C13.4065 24.7779 13.5787 24.7779 13.7079 24.7779H13.6218L13.5787 24.8209C13.4496 24.864 13.1912 24.907 12.8038 24.907H12.7177C12.5454 24.907 12.3732 24.864 12.201 24.8209L11.7274 24.7348L11.6722 24.7255C11.4378 24.686 11.2352 24.6518 10.9955 24.6918H10.8664C10.3928 24.7779 10.0914 25.2084 10.3067 26.5861V26.7153C10.3067 26.7583 10.3928 26.8014 10.565 26.8014C10.8233 26.8014 11.4691 27.1027 11.8566 27.7485L11.6844 27.6624V27.5763L11.4261 27.4902C11.0816 27.318 10.7372 27.1888 10.6081 27.4041C10.522 27.5763 10.565 27.7055 10.6942 27.7916C10.7372 27.7916 10.6511 27.8346 10.522 27.8777L10.3928 27.9207L10.1775 28.0068H9.96228L9.53175 28.136L8.7568 28.3513C8.62764 28.3943 8.58459 28.4804 8.8429 28.6526L8.88595 28.6957L9.14427 28.8679L9.18732 28.911C9.23038 28.954 9.27343 28.9971 9.23038 28.9971H9.10122C8.97206 28.9971 8.8429 28.9971 8.8429 29.0832C8.8429 29.1693 8.79985 29.3845 8.58459 29.3845C8.36932 29.3845 8.24016 29.2554 8.24016 29.0832V28.8679C8.24016 28.6957 8.15406 28.5665 7.98184 28.5665C7.72353 28.5665 7.55132 28.8249 7.55132 29.2984C7.55132 29.6429 7.20689 29.729 7.07774 29.729C6.94858 29.729 6.81942 29.6859 6.81942 29.4706C6.81942 29.4276 6.73331 29.4276 6.64721 29.4276H6.5611C6.51805 29.4276 6.5611 29.3845 6.64721 29.2984L6.73331 29.2554L6.99163 29.0832L7.24995 28.8679C7.33605 28.8249 7.33605 28.6526 7.293 28.6096L7.24995 28.5665C7.16384 28.5235 7.07774 28.4804 6.90552 28.6096C6.73331 28.7818 6.51805 28.911 6.34584 28.911C6.17363 28.911 6.00141 28.7387 6.00141 28.5665V28.3513C6.00141 28.2652 6.00141 28.136 5.87226 28.093L5.8292 28.0499C5.80968 28.0304 5.79901 28.0197 5.80121 28.0139C5.80385 28.0068 5.82518 28.0068 5.87222 28.0068H6.86247C7.03468 28.0068 7.20689 27.9638 7.20689 27.9207C7.20689 27.7055 6.99163 27.6624 6.90552 27.6624H6.77637C6.5611 27.6624 6.25973 27.6624 6.25973 27.3611C6.25973 27.275 6.30278 27.2319 6.34584 27.1888H6.38889C6.38889 27.1673 6.39965 27.1566 6.41042 27.1458C6.42118 27.135 6.43194 27.1243 6.43194 27.1027C6.43194 27.0166 6.30278 27.0166 6.25973 27.0166L6.34584 26.9305C6.475 26.8875 6.73331 26.8014 6.99163 27.0166L7.16384 27.1888L7.33605 27.4472C7.46521 27.6194 7.59437 27.7485 7.80963 27.7485H7.89574C8.32627 27.7055 9.35954 27.318 9.35954 26.1556C9.35954 25.8112 9.27343 25.5098 9.18732 25.2515L9.10122 24.9931L8.97206 24.7348V24.6918C8.97206 24.6703 8.97206 24.6595 8.97744 24.6541C8.98282 24.6487 8.99359 24.6487 9.01511 24.6487H9.10122C9.18732 24.6487 9.31648 24.6057 9.31648 24.4335C9.31648 24.089 7.24995 24.046 6.60415 24.6918V24.5196L6.64721 24.4335C6.77637 24.2182 7.07774 23.9168 7.76658 23.9168C7.86746 23.9168 7.95357 23.9316 8.0249 23.9438C8.07533 23.9525 8.1184 23.9599 8.15406 23.9599L8.28321 24.0029C8.41237 24.046 8.49848 24.046 8.62764 24.0029C8.67069 24.0029 8.67069 23.9599 8.62764 23.9168L8.45543 23.7016C8.32627 23.5724 8.19711 23.4432 8.24016 23.1849L8.28321 23.228C8.41237 23.3571 8.71374 23.6155 9.05817 23.6155C9.07646 23.6155 9.08698 23.6155 9.09634 23.6122C9.10899 23.6077 9.11951 23.5972 9.14427 23.5724L9.18732 23.5294L9.27343 23.4002L9.44564 23.228C9.70396 23.0558 10.1345 22.7975 10.8664 22.7975Z" fill="currentColor"/>
<path d="M20.4241 13.8855C20.5533 14.1438 20.8116 14.4452 21.0699 14.4022C21.156 14.4022 21.156 14.273 21.113 14.1438L21.0699 13.9716L21.0269 13.8855V13.7133L21.2852 13.9716C21.4143 14.1008 21.5435 14.2299 21.6726 14.316C21.931 14.4883 21.974 15.0049 21.8449 15.3063C21.8018 15.378 21.7492 15.4498 21.6966 15.5215C21.5913 15.665 21.4861 15.8085 21.4574 15.9521V15.9951C21.4143 16.1243 21.3282 16.2965 21.1991 16.5548L21.113 16.727C21.095 16.754 21.0789 16.779 21.0635 16.803C21.0051 16.894 20.9568 16.9692 20.8546 17.0714L20.6824 17.2436C20.5533 17.4158 20.3811 17.588 20.2089 17.7602L20.1227 17.8464L19.6922 17.4589L20.3811 16.7701C20.6824 16.4256 20.9408 16.0812 20.8977 15.8229H20.8546L20.8116 15.7798H20.7685L20.6824 15.7368C20.5102 15.6076 20.2519 15.3493 20.295 14.9618L20.338 15.0479L20.3811 15.091L20.4241 15.1771C20.5533 15.3493 20.7685 15.5215 20.8977 15.3924C21.113 15.2632 20.9408 14.9188 20.6824 14.6605L20.5963 14.5744V14.4452L20.5533 14.4022C20.3811 14.2299 20.295 13.9716 20.295 13.7994V13.6272L20.4241 13.8855Z" fill="currentColor"/>
<path fill-rule="evenodd" clip-rule="evenodd" d="M13.6218 11.001L13.7509 11.044L13.8801 11.1732L14.0092 11.2162C14.1815 11.3454 14.3537 11.5176 14.3537 11.6898C14.3537 11.9051 14.1384 11.9912 14.0092 12.0342H13.9662C14.0523 12.2495 14.2245 12.3356 14.3106 12.3787H14.6981C14.9564 12.3787 14.9564 12.1634 14.9564 12.0773V11.9912H14.9134C14.8272 11.9912 14.655 11.9051 14.655 11.7329C14.655 11.5176 14.9564 11.3454 15.2578 11.2593L15.43 11.1732L15.5591 11.1301L15.473 11.4746H15.43C15.3439 11.4746 15.2578 11.5607 15.2578 11.6898C15.2578 11.7329 15.3008 11.7759 15.3439 11.819H15.3869L15.1286 12.68H12.2871L12.0719 11.862C12.082 11.8519 12.0946 11.8417 12.1079 11.831C12.1508 11.7963 12.201 11.7556 12.201 11.6898C12.201 11.5607 12.1149 11.4746 12.0288 11.4746H11.9858L11.8566 11.0871C12.1149 11.1301 12.7607 11.3885 12.7607 11.6898C12.7607 11.9051 12.5885 11.9912 12.5024 11.9912H12.4593C12.4593 12.2495 12.6316 12.3356 12.7177 12.3356H13.1912C13.4065 12.3356 13.4496 12.0773 13.4496 11.9912V11.9481H13.3204C13.1912 11.9051 13.0621 11.862 13.0621 11.7329C13.0621 11.5176 13.2343 11.3454 13.4065 11.1732L13.5787 11.001H13.6218ZM13.7079 11.5176C13.5787 11.5176 13.4926 11.6037 13.4926 11.7329C13.4926 11.862 13.5787 11.9481 13.7079 11.9481C13.837 11.9481 13.9231 11.862 13.9231 11.7329C13.9231 11.6037 13.837 11.5176 13.7079 11.5176Z" fill="currentColor"/>
<path d="M33.25 15.001C33.6642 15.001 34 15.3368 34 15.751C34 16.1652 33.6642 16.501 33.25 16.501H26.75C26.3358 16.501 26 16.1652 26 15.751C26 15.3368 26.3358 15.001 26.75 15.001H33.25Z" fill="currentColor"/>
<path d="M32.25 23.001C32.6642 23.001 33 23.3368 33 23.751C33 24.1652 32.6642 24.501 32.25 24.501H26.75C26.3358 24.501 26 24.1652 26 23.751C26 23.3368 26.3358 23.001 26.75 23.001H32.25Z" fill="currentColor"/>
<path d="M38.25 20.501C38.6642 20.501 39 20.1652 39 19.751C39 19.3368 38.6642 19.001 38.25 19.001H26.75C26.3358 19.001 26 19.3368 26 19.751C26 20.1652 26.3358 20.501 26.75 20.501H38.25Z" fill="currentColor"/>
<path fill-rule="evenodd" clip-rule="evenodd" d="M2 37.001C0.895431 37.001 0 36.1055 0 35.001V8.00098C0 6.89641 0.895431 6.00098 2 6.00098H42C43.1046 6.00098 44 6.89641 44 8.00098V10.001H46C47.1046 10.001 48 10.8964 48 12.001V39.001C48 40.1055 47.1046 41.001 46 41.001H6C4.89543 41.001 4 40.1055 4 39.001V37.001H2ZM1.5 8.00098C1.5 7.72483 1.72386 7.50098 2 7.50098H42C42.2761 7.50098 42.5 7.72483 42.5 8.00098V35.001C42.5 35.2771 42.2761 35.501 42 35.501H2C1.72386 35.501 1.5 35.2771 1.5 35.001V8.00098ZM5.5 37.001V39.501H46C46.2761 39.501 46.5 39.2771 46.5 39.001V12.001C46.5 11.7248 46.2761 11.501 46 11.501H44V35.001C44 36.1055 43.1046 37.001 42 37.001H5.5Z" fill="currentColor"/>
</svg>
