<svg width="48" height="48" viewBox="0 0 48 48" fill="none" xmlns="http://www.w3.org/2000/svg">
<path fill-rule="evenodd" clip-rule="evenodd" d="M30.0311 12.7173L33.7905 19.0009H3.61035L8.12586 13.9836C9.54818 12.4033 11.5744 11.5009 13.7006 11.5009H27.8858C28.765 11.5009 29.5797 11.9628 30.0311 12.7173ZM35 20.5009H34.6879H2.30721C1.78425 21.2518 1.5 22.1486 1.5 23.0725V29.6932C1.5 31.2438 2.75705 32.5009 4.30769 32.5009H4.37976C4.33289 32.1869 4.30859 31.8656 4.30859 31.5386C4.30859 27.97 7.20152 25.077 10.7701 25.077C14.3387 25.077 17.2317 27.97 17.2317 31.5386C17.2317 31.8656 17.2074 32.1869 17.1605 32.5009H30.2255C30.1786 32.1869 30.1543 31.8656 30.1543 31.5386C30.1543 27.97 33.0472 25.077 36.6158 25.077C40.1844 25.077 43.0774 27.97 43.0774 31.5386C43.0774 31.8656 43.0531 32.1869 43.0062 32.5009H43.6923C45.243 32.5009 46.5 31.2438 46.5 29.6932V25.0009C46.5 22.5156 44.4853 20.5009 42 20.5009H35ZM42.5917 34.0009H43.6923C46.0714 34.0009 48 32.0722 48 29.6932V25.0009C48 21.6871 45.3137 19.0009 42 19.0009H35.5385L31.3183 11.9472C30.596 10.7399 29.2926 10.0009 27.8858 10.0009H13.7006C11.1492 10.0009 8.71771 11.0837 7.01092 12.9802L1.54024 19.0587C0.548662 20.1605 0 21.5903 0 23.0725V29.6932C0 32.0722 1.92862 34.0009 4.30769 34.0009H4.7943C5.76251 36.3481 8.0734 38.0001 10.7701 38.0001C13.4669 38.0001 15.7778 36.3481 16.746 34.0009H30.64C31.6082 36.3481 33.9191 38.0001 36.6158 38.0001C39.3126 38.0001 41.6235 36.3481 42.5917 34.0009ZM15.7317 31.5386C15.7317 34.2787 13.5103 36.5001 10.7701 36.5001C8.02995 36.5001 5.80859 34.2787 5.80859 31.5386C5.80859 28.7984 8.02995 26.577 10.7701 26.577C13.5103 26.577 15.7317 28.7984 15.7317 31.5386ZM41.5774 31.5386C41.5774 34.2787 39.356 36.5001 36.6158 36.5001C33.8757 36.5001 31.6543 34.2787 31.6543 31.5386C31.6543 28.7984 33.8757 26.577 36.6158 26.577C39.356 26.577 41.5774 28.7984 41.5774 31.5386Z" fill="currentColor"/>
</svg>
