<svg width="48" height="48" viewBox="0 0 48 48" fill="none" xmlns="http://www.w3.org/2000/svg">
<g clip-path="url(#clip0_3795_10638)">
<path d="M16.25 23.5009C16.6642 23.5009 17 23.1651 17 22.7509C17 22.3366 16.6642 22.0009 16.25 22.0009H14.75C14.3358 22.0009 14 22.3366 14 22.7509C14 23.1651 14.3358 23.5009 14.75 23.5009H16.25Z" fill="currentColor"/>
<path d="M19 22.7509C19 22.3366 19.3358 22.0009 19.75 22.0009H31.25C31.6642 22.0009 32 22.3366 32 22.7509C32 23.1651 31.6642 23.5009 31.25 23.5009H19.75C19.3358 23.5009 19 23.1651 19 22.7509Z" fill="currentColor"/>
<path d="M19 26.7509C19 26.3366 19.3358 26.0009 19.75 26.0009H31.25C31.6642 26.0009 32 26.3366 32 26.7509C32 27.1651 31.6642 27.5009 31.25 27.5009H19.75C19.3358 27.5009 19 27.1651 19 26.7509Z" fill="currentColor"/>
<path fill-rule="evenodd" clip-rule="evenodd" d="M27.5875 5.94086L29.5 9.00085H32C33.6569 9.00085 35 10.344 35 12.0009V14.0009C35 15.1054 34.1046 16.0009 33 16.0009H32.8293C32.4175 17.166 31.3062 18.0009 30 18.0009C28.6938 18.0009 27.5825 17.166 27.1707 16.0009H18.8293C18.4175 17.166 17.3062 18.0009 16 18.0009C14.6938 18.0009 13.5825 17.166 13.1707 16.0009H13C11.8954 16.0009 11 15.1054 11 14.0009V11.1521C11 10.4109 11.2743 9.69604 11.7701 9.14517L14.3083 6.325C15.0668 5.48214 16.1475 5.00085 17.2815 5.00085H25.8915C26.5811 5.00085 27.222 5.35609 27.5875 5.94086ZM33 14.5009H32.9585C32.7205 13.082 31.4865 12.0009 30 12.0009C28.5135 12.0009 27.2795 13.082 27.0415 14.5009H18.9585C18.7205 13.082 17.4865 12.0009 16 12.0009C14.5135 12.0009 13.2795 13.082 13.0415 14.5009H13C12.7239 14.5009 12.5 14.277 12.5 14.0009V11.1521C12.5 10.9248 12.5516 10.7024 12.6487 10.5009H32C32.8284 10.5009 33.5 11.1724 33.5 12.0009V14.0009C33.5 14.277 33.2761 14.5009 33 14.5009ZM26.3155 6.73586L27.7311 9.00085H13.918L15.4232 7.32844C15.8973 6.80166 16.5727 6.50085 17.2815 6.50085H25.8915C26.0639 6.50085 26.2241 6.58966 26.3155 6.73586ZM17.5 15.0009C17.5 15.8293 16.8284 16.5009 16 16.5009C15.1716 16.5009 14.5 15.8293 14.5 15.0009C14.5 14.1724 15.1716 13.5009 16 13.5009C16.8284 13.5009 17.5 14.1724 17.5 15.0009ZM31.5 15.0009C31.5 15.8293 30.8284 16.5009 30 16.5009C29.1716 16.5009 28.5 15.8293 28.5 15.0009C28.5 14.1724 29.1716 13.5009 30 13.5009C30.8284 13.5009 31.5 14.1724 31.5 15.0009Z" fill="currentColor"/>
<path fill-rule="evenodd" clip-rule="evenodd" d="M39 0.000854492C40.1046 0.000854492 41 0.896285 41 2.00085V16.0009H43C44.1046 16.0009 45 16.8963 45 18.0009V30.0009H45.6391C46.875 30.0009 47.815 31.1106 47.6119 32.3297L45.2785 46.3297C45.1178 47.294 44.2834 48.0009 43.3057 48.0009H2C0.895431 48.0009 0 47.1054 0 46.0009V18.0009C0 16.8963 0.89543 16.0009 2 16.0009H5V2.00085C5 0.896285 5.89543 0.000854492 7 0.000854492H39ZM17.0788 27.9931C16.7204 27.3787 16.0626 27.0009 15.3513 27.0009H6.5V2.00085C6.5 1.72471 6.72386 1.50085 7 1.50085H39C39.2761 1.50085 39.5 1.72471 39.5 2.00085V30.0009H18.25L17.0788 27.9931ZM43.5 30.0009H41V17.5009H43C43.2761 17.5009 43.5 17.7247 43.5 18.0009V30.0009ZM1.5 18.0009C1.5 17.7247 1.72386 17.5009 2 17.5009H5V27.0009H4.73459C3.73929 27.0009 2.89545 27.7327 2.75469 28.718L1.5 37.5009V18.0009ZM46.1323 32.0831C46.1831 31.7783 45.9481 31.5009 45.6391 31.5009H17.3884L15.7831 28.7489C15.6935 28.5953 15.5291 28.5009 15.3513 28.5009H4.73459C4.48577 28.5009 4.27481 28.6838 4.23962 28.9301L1.81104 45.9301C1.76801 46.2314 2.00174 46.5009 2.30602 46.5009H43.3057C43.5502 46.5009 43.7588 46.3241 43.7989 46.0831L46.1323 32.0831Z" fill="currentColor"/>
</g>
<defs>
<clipPath id="clip0_3795_10638">
<rect width="48" height="48" fill="white" transform="translate(0 0.000854492)"/>
</clipPath>
</defs>
</svg>
