<svg width="48" height="48" viewBox="0 0 48 48" fill="none" xmlns="http://www.w3.org/2000/svg">
<path fill-rule="evenodd" clip-rule="evenodd" d="M33.9068 12.0009C34.6826 12.0009 35.4036 12.4005 35.8148 13.0584L37.2692 15.3855H39.3846C40.7866 15.3855 41.9231 16.522 41.9231 17.9239V19.6162C41.9231 20.5509 41.1654 21.3085 40.2308 21.3085H40.087C39.7388 22.2949 38.7983 23.0016 37.6928 23.0016C36.5872 23.0016 35.6467 22.2949 35.2985 21.3085H31.6242C31.2759 22.2949 30.3354 23.0016 29.2299 23.0016C28.1243 23.0016 27.1838 22.2949 26.8356 21.3085H26.6923C25.7577 21.3085 25 20.5509 25 19.6162V17.2057C25 16.5786 25.2321 15.9737 25.6516 15.5076L27.7993 13.1213C28.4412 12.4081 29.3556 12.0009 30.3151 12.0009H33.9068ZM40.2308 20.0393H40.196C39.9943 18.8391 38.9503 17.9247 37.6928 17.9247C36.4352 17.9247 35.3912 18.8391 35.1895 20.0393H31.7331C31.5314 18.8391 30.4874 17.9247 29.2299 17.9247C27.9723 17.9247 26.9284 18.8391 26.7266 20.0393H26.6923C26.4586 20.0393 26.2692 19.8499 26.2692 19.6162V17.2057C26.2692 17.0134 26.3129 16.8253 26.395 16.6549L39.3846 16.6547C40.0856 16.6547 40.6538 17.223 40.6538 17.9239V19.6162C40.6538 19.8499 40.4644 20.0393 40.2308 20.0393ZM30.3151 13.2701H33.8961C34.2409 13.2701 34.5614 13.4477 34.7441 13.7401L35.7726 15.3856H27.469L28.7427 13.9704C29.1439 13.5246 29.7154 13.2701 30.3151 13.2701ZM30.4991 20.4631C30.4991 21.1641 29.9308 21.7324 29.2299 21.7324C28.5289 21.7324 27.9606 21.1641 27.9606 20.4631C27.9606 19.7622 28.5289 19.1939 29.2299 19.1939C29.9308 19.1939 30.4991 19.7622 30.4991 20.4631ZM38.962 20.4631C38.962 21.1641 38.3937 21.7324 37.6928 21.7324C36.9918 21.7324 36.4235 21.1641 36.4235 20.4631C36.4235 19.7622 36.9918 19.1939 37.6928 19.1939C38.3937 19.1939 38.962 19.7622 38.962 20.4631Z" fill="currentColor"/>
<path fill-rule="evenodd" clip-rule="evenodd" d="M20 22.5009C20 25.5384 17.5376 28.0009 14.5 28.0009C11.4624 28.0009 9 25.5384 9 22.5009C9 19.4633 11.4624 17.0009 14.5 17.0009C17.5376 17.0009 20 19.4633 20 22.5009ZM18.5 22.5009C18.5 24.71 16.7091 26.5009 14.5 26.5009C12.2909 26.5009 10.5 24.71 10.5 22.5009C10.5 20.2917 12.2909 18.5009 14.5 18.5009C16.7091 18.5009 18.5 20.2917 18.5 22.5009Z" fill="currentColor"/>
<path fill-rule="evenodd" clip-rule="evenodd" d="M0 39.0009C0 40.1054 0.895431 41.0009 2 41.0009H46C47.1046 41.0009 48 40.1054 48 39.0009V9.00085C48 7.89628 47.1046 7.00085 46 7.00085H2C0.895432 7.00085 0 7.89629 0 9.00085V39.0009ZM2 8.50085C1.72386 8.50085 1.5 8.72471 1.5 9.00085V39.0009C1.5 39.277 1.72386 39.5009 2 39.5009H6V37.5009C6 32.8064 9.80558 29.0009 14.5 29.0009C19.1944 29.0009 23 32.8064 23 37.5009V39.5009H46C46.2761 39.5009 46.5 39.277 46.5 39.0009V9.00085C46.5 8.72471 46.2761 8.50085 46 8.50085H2ZM21.5 39.5009V37.5009C21.5 33.6349 18.366 30.5009 14.5 30.5009C10.634 30.5009 7.5 33.6349 7.5 37.5009V39.5009H21.5Z" fill="currentColor"/>
<path d="M34.25 30.5009C34.6642 30.5009 35 30.8366 35 31.2509C35 31.6651 34.6642 32.0009 34.25 32.0009H26.75C26.3358 32.0009 26 31.6651 26 31.2509C26 30.8366 26.3358 30.5009 26.75 30.5009H34.25Z" fill="currentColor"/>
<path d="M43 35.2509C43 35.6651 42.6642 36.0009 42.25 36.0009H26.75C26.3358 36.0009 26 35.6651 26 35.2509C26 34.8366 26.3358 34.5009 26.75 34.5009H42.25C42.6642 34.5009 43 34.8366 43 35.2509Z" fill="currentColor"/>
</svg>
