<svg width="48" height="48" viewBox="0 0 48 48" fill="none" xmlns="http://www.w3.org/2000/svg">
<g clip-path="url(#clip0_4248_10861)">
<path d="M41.0832 17.9496C41.0832 19.0778 40.1457 20.0009 38.9998 20.0009C37.854 20.0009 36.9165 19.0778 36.9165 17.9496H41.0832Z" fill="currentColor"/>
<path d="M45.2498 13.498C45.2498 13.7213 45.3394 13.9352 45.4985 14.0918L47.1175 15.6859C47.2555 15.8218 47.3332 16.0073 47.3332 16.201C47.3332 16.6003 47.0095 16.9239 46.6103 16.9239H31.3894C30.9902 16.9239 30.6665 16.6003 30.6665 16.201C30.6665 16.0073 30.7442 15.8218 30.8822 15.6859L32.5012 14.0918C32.6603 13.9352 32.7498 13.7213 32.7498 13.498V8.7188C32.7498 5.53932 34.4165 2.97521 37.4373 2.25726V1.53932C37.4373 0.718803 38.1665 0.000854492 38.9998 0.000854492C39.8332 0.000854492 40.5623 0.718803 40.5623 1.53932V2.25726C43.5832 2.97521 45.2498 5.53932 45.2498 8.7188V13.498Z" fill="currentColor"/>
<path fill-rule="evenodd" clip-rule="evenodd" d="M28.2501 8.00085C28.6643 8.00085 29.0001 8.33664 29.0001 8.75085C29.0001 9.16507 28.6643 9.50085 28.2501 9.50085H2.56066L21.6465 28.5867C21.8418 28.782 22.1583 28.782 22.3536 28.5867L30.7198 20.2205C30.8604 20.0799 31.0512 20.0009 31.2501 20.0009C31.9183 20.0009 32.2529 20.8087 31.7804 21.2812L29.0607 24.001L42.5 37.4403V21.7509C42.5 21.3366 42.8358 21.0009 43.25 21.0009C43.6642 21.0009 44 21.3366 44 21.7509V38.0009C44 39.1054 43.1046 40.0009 42 40.0009H2C0.895431 40.0009 0 39.1054 0 38.0009V10.0009C0 8.89628 0.895431 8.00085 2 8.00085H28.2501ZM14.9394 24.0009L1.5 10.5615V37.4403L14.9394 24.0009ZM41.4392 38.5009H2.56077L16.0001 25.0616L20.5858 29.6474C21.3669 30.4284 22.6332 30.4284 23.4143 29.6474L28 25.0616L41.4392 38.5009Z" fill="currentColor"/>
</g>
<defs>
<clipPath id="clip0_4248_10861">
<rect width="48" height="48" fill="white" transform="translate(0 0.000854492)"/>
</clipPath>
</defs>
</svg>
