<svg width="47" height="48" viewBox="0 0 47 48" fill="none" xmlns="http://www.w3.org/2000/svg">
<g clip-path="url(#clip0_3028_9106)">
<path fill-rule="evenodd" clip-rule="evenodd" d="M32.6129 8.16557C32.6472 8.03068 32.6645 7.89224 32.6643 7.75329C32.6643 6.80519 31.8871 6.03235 30.9147 6.00168C30.8943 6.00085 30.8742 6.00085 30.8542 6.00085L30.8507 6.00086C30.802 6.00086 30.7533 6.00258 30.7055 6.00606C30.387 6.03106 30.1759 6.13446 29.9256 6.29788C29.7847 6.38915 29.6576 6.49917 29.5481 6.62471C29.5152 6.6624 29.4842 6.70158 29.4552 6.74213L19.3461 19.7382C18.9469 20.2696 18.8883 20.9711 19.195 21.5573C19.5012 22.1435 20.1205 22.515 20.7993 22.5198L26.007 22.5566L24.3697 31.9268C24.2141 32.7321 24.6561 33.5347 25.4342 33.858C25.6603 33.9524 25.9038 34.001 26.1499 34.0009C26.7169 34.0009 27.1828 33.7432 27.5324 33.278L37.6541 19.1949C38.0533 18.6634 38.1115 17.9611 37.8052 17.3758C37.4989 16.7896 36.8797 16.418 36.2009 16.4132L30.9932 16.4045L32.6129 8.16557ZM26.2684 32.3048L36.3772 18.2397C36.3838 18.2305 36.3905 18.2214 36.3973 18.2124C36.4131 18.1914 36.4159 18.1765 36.4165 18.1692C36.4171 18.1621 36.4165 18.152 36.4084 18.1365C36.3898 18.1008 36.3195 18.0304 36.1925 18.0286C36.1916 18.0286 36.1908 18.0286 36.1899 18.0286L30.9906 18.0199C30.5165 18.0191 30.0678 17.8016 29.7676 17.4272C29.4675 17.0529 29.3476 16.561 29.4408 16.0868L31.0604 7.8479C31.0663 7.81829 31.0729 7.78885 31.0803 7.75962C31.0809 7.75751 31.081 7.75609 31.081 7.75513L31.081 7.75329C31.081 7.74306 31.0794 7.7206 31.0464 7.6876C31.0116 7.65286 30.9511 7.61898 30.8658 7.61629L30.8643 7.61625L30.8507 7.61624C30.8493 7.61624 30.8479 7.61625 30.8466 7.61626C30.8315 7.62511 30.8099 7.63839 30.7791 7.6585L30.7742 7.66171C30.7562 7.67331 30.7424 7.68567 30.732 7.69732C30.7201 7.71389 30.7079 7.73022 30.6954 7.74632L20.5992 20.7258C20.5863 20.7446 20.584 20.7576 20.5835 20.7638C20.583 20.7703 20.5833 20.7804 20.5918 20.7966C20.6106 20.8325 20.6816 20.9036 20.8103 20.9045C20.8103 20.9045 20.8103 20.9045 20.8103 20.9045L26.018 20.9413C26.4846 20.9446 26.926 21.1577 27.2244 21.5238C27.5227 21.8898 27.6476 22.3715 27.5657 22.8402L25.9285 32.2103L25.9232 32.2392C25.9212 32.2492 25.9208 32.2611 25.932 32.2815C25.9439 32.3031 25.9721 32.3373 26.0315 32.362L26.0338 32.363C26.0678 32.3772 26.1072 32.3855 26.1489 32.3855C26.1723 32.3855 26.185 32.3829 26.1879 32.3822C26.1906 32.3815 26.1913 32.3812 26.1922 32.3807C26.1934 32.38 26.2008 32.3761 26.2139 32.3645C26.2262 32.3537 26.2449 32.335 26.2684 32.3048ZM30.8686 7.61626C30.8686 7.61626 30.8686 7.61626 30.8686 7.61626V7.61626Z" fill="currentColor"/>
<path fill-rule="evenodd" clip-rule="evenodd" d="M8.30263 33.79C5.56638 30.2468 3.93878 25.8054 3.93878 20.9843C3.93878 9.39547 13.3433 0.000854492 24.9443 0.000854492H44.9995C46.1043 0.000854492 47 0.89558 47 1.99928V20.4597C47 32.3383 37.3604 41.9678 25.4694 41.9678H24.9443C18.7408 41.9678 13.1654 39.2814 9.32016 35.0097C4.94053 39.7858 2.4185 44.8155 1.5352 47.4626C1.39763 47.8749 0.951538 48.0977 0.538825 47.9603C0.126112 47.8228 -0.0969348 47.3772 0.0406362 46.9649C0.990406 44.1186 3.66025 38.802 8.30263 33.79ZM24.9443 1.57461H44.9995C45.2343 1.57461 45.4246 1.76474 45.4246 1.99928V20.4597C45.4246 31.4691 36.4903 40.394 25.4694 40.394H24.9443C19.1619 40.394 13.9695 37.8708 10.4103 33.8665C12.5409 31.718 15.0603 29.6659 17.9892 27.9592C18.365 27.7402 18.4919 27.2584 18.2727 26.883C18.0535 26.5076 17.5712 26.3808 17.1954 26.5998C14.1921 28.3498 11.6035 30.4447 9.40745 32.6417C6.963 29.3957 5.51419 25.359 5.51419 20.9843C5.51419 10.2646 14.2133 1.57461 24.9443 1.57461Z" fill="currentColor"/>
</g>
<defs>
<clipPath id="clip0_3028_9106">
<rect width="47" height="48" fill="white" transform="translate(0 0.000854492)"/>
</clipPath>
</defs>
</svg>
