<svg width="48" height="48" viewBox="0 0 48 48" fill="none" xmlns="http://www.w3.org/2000/svg">
<path fill-rule="evenodd" clip-rule="evenodd" d="M2 40C0.895431 40 0 39.1046 0 38V10C0 8.89543 0.895431 8 2 8H46C47.1046 8 48 8.89543 48 10V38C48 39.1046 47.1046 40 46 40H2ZM45.3118 9.5H2.68823L23.6673 28.1988C23.8569 28.3677 24.1431 28.3677 24.3327 28.1988L45.3118 9.5ZM1.5 10.4503V37.5472L16.7007 23.9987L1.5 10.4503ZM2.68534 38.5H45.3147L30.1721 25.0034L25.3307 29.3185C24.5723 29.9945 23.4277 29.9945 22.6693 29.3185L17.8279 25.0034L2.68534 38.5ZM46.5 37.5472V10.4503L31.2993 23.9987L46.5 37.5472Z" fill="currentColor"/>
</svg>
