<svg width="48" height="48" viewBox="0 0 48 48" fill="none" xmlns="http://www.w3.org/2000/svg">
<g clip-path="url(#clip0_7051_11939)">
<path d="M24 24.0009L24.5327 25.6376H26.2465L24.8537 26.6453L25.3864 28.2884L23.9936 27.2743L22.6008 28.2884L23.1335 26.6453L21.7407 25.6376H23.4608L24 24.0009ZM16.9268 26.9277L18.4673 27.7107L19.6804 26.4912L19.4108 28.1921L20.9448 28.9752L19.2439 29.2448L18.9743 30.9457L18.1913 29.4052L16.4904 29.6812L17.7099 28.4617L16.9268 26.9277ZM14 34.0009L15.6367 33.4681V31.7544L16.6444 33.1472L18.2875 32.6145L17.2734 34.0073L18.2875 35.4001L16.6444 34.8674L15.6367 36.2602V34.54L14 34.0009ZM16.9268 41.074L17.7099 39.5336L16.4904 38.3205L18.1913 38.5901L18.9743 37.0561L19.2439 38.757L20.9448 39.0265L19.4044 39.8096L19.6804 41.5105L18.4608 40.291L16.9268 41.074ZM24 44.0009L23.4673 42.3641H21.7535L23.1463 41.3564L22.6136 39.7133L24.0064 40.7274L25.3992 39.7133L24.8665 41.3564L26.2593 42.3641H24.5392L24 44.0009ZM31.0732 41.074L29.5327 40.291L28.3196 41.5105L28.5892 39.8096L27.0552 39.0265L28.7561 38.757L29.0257 37.0561L29.8087 38.5965L31.5096 38.3205L30.2901 39.54L31.0732 41.074ZM34 34.0009L32.3633 34.5336V36.2473L31.3556 34.8545L29.7125 35.3872L30.7266 33.9944L29.7125 32.6016L31.3556 33.1344L32.3633 31.7415V33.4617L34 34.0009ZM31.0732 26.9277L30.2901 28.4681L31.5096 29.6812L29.8087 29.4116L29.0257 30.9457L28.7561 29.2448L27.0552 28.9752L28.5956 28.1921L28.3196 26.4912L29.5392 27.7107L31.0732 26.9277Z" fill="currentColor"/>
<path fill-rule="evenodd" clip-rule="evenodd" d="M34.4409 10.5009L36.2132 8.72857L27.7279 0.243286L17.4704 10.5009H7.16065C6.44293 10.5009 5.78024 10.8854 5.42416 11.5086L0.263514 20.5397C0.0908306 20.8419 0 21.1839 0 21.532V46.0009C0 47.1054 0.895432 48.0009 2 48.0009H46C47.1046 48.0009 48 47.1054 48 46.0009V21.532C48 21.1839 47.9092 20.8419 47.7365 20.5397L42.5758 11.5086C42.2198 10.8854 41.5571 10.5009 40.8394 10.5009H34.4409ZM27.7279 2.36461L17.1213 12.9712L19.151 15.0009H27.8196L34.0919 8.72857L27.7279 2.36461ZM15 12.9712L17.0296 15.0009H12.75C12.3358 15.0009 12 15.3366 12 15.7509C12 16.1651 12.3358 16.5009 12.75 16.5009H35.25C35.6642 16.5009 36 16.1651 36 15.7509C36 15.3366 35.6642 15.0009 35.25 15.0009H29.9409L32.9409 12.0009H40.8394C41.0188 12.0009 41.1845 12.097 41.2735 12.2528L45.7009 20.0009H2.29905L6.72652 12.2528C6.81555 12.097 6.98122 12.0009 7.16065 12.0009H15.9704L15 12.9712ZM1.50097 21.5009C1.50032 21.5112 1.5 21.5216 1.5 21.532V46.0009C1.5 46.277 1.72386 46.5009 2 46.5009H46C46.2761 46.5009 46.5 46.277 46.5 46.0009V21.532C46.5 21.5216 46.4997 21.5112 46.499 21.5009H1.50097Z" fill="currentColor"/>
</g>
<defs>
<clipPath id="clip0_7051_11939">
<rect width="48" height="48" fill="white" transform="translate(0 0.000854492)"/>
</clipPath>
</defs>
</svg>
