<svg width="48" height="48" viewBox="0 0 48 48" fill="none" xmlns="http://www.w3.org/2000/svg">
<g clip-path="url(#clip0_3028_9099)">
<path fill-rule="evenodd" clip-rule="evenodd" d="M12.625 11.2509C15.7316 11.2509 18.25 8.73246 18.25 5.62585C18.25 2.51925 15.7316 0.000854492 12.625 0.000854492C9.5184 0.000854492 7 2.51925 7 5.62585C7 8.73246 9.5184 11.2509 12.625 11.2509ZM12.625 9.75085C14.9032 9.75085 16.75 7.90403 16.75 5.62585C16.75 3.34768 14.9032 1.50085 12.625 1.50085C10.3468 1.50085 8.5 3.34768 8.5 5.62585C8.5 7.90403 10.3468 9.75085 12.625 9.75085Z" fill="currentColor"/>
<path fill-rule="evenodd" clip-rule="evenodd" d="M36.625 11.2509C39.7316 11.2509 42.25 8.73246 42.25 5.62585C42.25 2.51925 39.7316 0.000854492 36.625 0.000854492C33.5184 0.000854492 31 2.51925 31 5.62585C31 8.73246 33.5184 11.2509 36.625 11.2509ZM36.625 9.75085C38.9032 9.75085 40.75 7.90403 40.75 5.62585C40.75 3.34768 38.9032 1.50085 36.625 1.50085C34.3468 1.50085 32.5 3.34768 32.5 5.62585C32.5 7.90403 34.3468 9.75085 36.625 9.75085Z" fill="currentColor"/>
<path fill-rule="evenodd" clip-rule="evenodd" d="M8.64033 12.745L16.3597 12.744C17.8091 12.744 19.2498 13.0714 20.548 13.8586C21.8438 14.642 22.7759 15.7453 23.4256 16.9549C23.5789 17.2396 23.7184 17.5337 23.8452 17.8361C24.3542 17.6203 24.9133 17.5009 25.501 17.5009C25.764 17.5009 26.0213 17.5248 26.271 17.5705C26.3655 17.3613 26.4666 17.1562 26.5744 16.9558C27.2242 15.7463 28.1563 14.643 29.4521 13.8596C30.7503 13.0724 32.191 12.745 33.6404 12.745L39.3597 12.744C40.8092 12.744 42.2498 13.0714 43.5481 13.8586C44.8438 14.642 45.7759 15.7453 46.4257 16.9549C47.6565 19.2414 48.0001 22.1353 48.0001 25.0217V28.9876C48.0002 29.5804 47.8596 30.1648 47.59 30.6928C47.3205 31.2207 46.9295 31.6772 46.4493 32.0248C45.969 32.3724 45.4132 32.6011 44.8274 32.6921C44.745 32.7049 44.6623 32.715 44.5795 32.7223C44.3298 32.7442 43.9609 32.7021 43.6515 32.654L45.3307 39.258C45.6522 40.5222 44.6969 41.7509 43.3924 41.7509H42V45.5009C42 46.8816 40.8807 48.0009 39.5 48.0009C38.1193 48.0009 37 46.8816 37 45.5009V41.7509H36V45.5009C36 46.8816 34.8807 48.0009 33.5 48.0009C32.1193 48.0009 31 46.8816 31 45.5009V41.7509H30.2503V45.4384C30.2503 46.8412 29.1339 48.0009 27.7228 48.0009C26.7555 48.0009 25.9267 47.4559 25.501 46.6612C25.0754 47.4559 24.2466 48.0009 23.2792 48.0009C21.8681 48.0009 20.7518 46.8412 20.7518 45.4384V37.5535C20.5449 37.7034 20.3181 37.8192 20.0798 37.8993L20.0798 38.3897C20.0796 40.3368 20.0794 42.2839 20.0794 44.2312C20.0807 45.1967 19.7094 46.1256 19.0427 46.8241C18.3761 47.5226 17.4656 47.937 16.501 47.9808C15.5364 48.0246 14.5922 47.6945 13.8649 47.0593C13.5986 46.8267 13.3689 46.5597 13.1805 46.2674C12.8626 45.7744 12.6623 45.2095 12.6018 44.6166L12.5986 44.5843L12.5974 44.571L12.5 40.6552L12.4026 44.572L12.4014 44.5852L12.3982 44.6176C12.3377 45.2105 12.1374 45.7754 11.8195 46.2684C11.6311 46.5606 11.4014 46.8276 11.1351 47.0603C10.4078 47.6955 9.46355 48.0256 8.49897 47.9818C7.53439 47.9379 6.62391 47.5236 5.95728 46.8251C5.29065 46.1265 4.91928 45.1977 4.92055 44.2321C4.92055 42.2848 4.92039 40.3377 4.92024 38.3907C4.92008 36.4438 4.91992 34.4969 4.91992 32.5499C4.43624 32.709 3.92606 32.7676 3.42055 32.7232C3.33775 32.716 3.25507 32.7059 3.17266 32.6931C2.58688 32.602 2.03105 32.3733 1.55081 32.0258C1.07057 31.6782 0.679609 31.2217 0.410024 30.6937C0.140439 30.1658 -8.07779e-05 29.5814 3.48359e-08 28.9886V25.0226C3.48359e-08 22.1363 0.343613 19.2424 1.57438 16.9558C2.22412 15.7463 3.15625 14.643 4.45199 13.8596C5.75022 13.0724 7.1909 12.745 8.64033 12.745ZM40.5 41.7509H38.5V45.5009C38.5 46.0531 38.9477 46.5009 39.5 46.5009C40.0523 46.5009 40.5 46.0531 40.5 45.5009V41.7509ZM34.5 41.7509H32.5V45.5009C32.5 46.0531 32.9477 46.5009 33.5 46.5009C34.0523 46.5009 34.5 46.0531 34.5 45.5009V41.7509ZM18.5796 37.9401C18.3453 37.8761 18.1154 37.7784 17.8968 37.6458C17.8857 37.6391 17.8748 37.6321 17.8641 37.6248C16.7344 36.8568 16.419 35.2913 17.127 34.0778C17.1307 34.0713 17.1346 34.0649 17.1386 34.0585L18.5798 31.7503L18.5801 22.4994C18.5801 22.0852 18.9159 21.7494 19.3301 21.7494C19.7443 21.7494 20.0801 22.0852 20.0801 22.4994V29.3487C21.1954 27.6223 23.096 26.5124 25.1567 26.5124H25.8454C27.3817 26.5124 28.8233 27.126 29.92 28.1501V22.5004C29.92 22.0862 30.2558 21.7504 30.67 21.7504C31.0842 21.7504 31.42 22.0862 31.42 22.5004L31.4201 27.2509H41.58L41.5801 22.4994C41.5801 22.0852 41.9159 21.7494 42.3301 21.7494C42.7444 21.7494 43.0801 22.0852 43.0801 22.4994V30.5146C43.0801 30.7986 43.2788 31.0351 43.5485 31.1239C43.8863 31.2351 44.2456 31.2646 44.597 31.2099C44.9483 31.1553 45.2818 31.0181 45.5698 30.8096C45.8579 30.6012 46.0924 30.3273 46.2541 30.0106C46.4158 29.6939 46.5001 29.3432 46.5001 28.9876V25.0217C46.5001 22.2095 46.1566 19.6198 45.1049 17.6658L45.1043 17.6647C44.5579 16.6476 43.7984 15.7628 42.772 15.1422L42.7704 15.1412C41.7438 14.5187 40.5819 14.244 39.3597 14.244L33.6404 14.245C32.4182 14.245 31.2564 14.5197 30.2298 15.1422L30.2282 15.1432C29.2017 15.7638 28.4422 16.6486 27.8959 17.6657L27.8953 17.6668C27.8192 17.8082 27.7468 17.9529 27.678 18.1007C28.9538 18.863 29.8059 20.2736 29.8059 21.8759C29.8059 24.2788 27.8893 26.2509 25.501 26.2509C23.1127 26.2509 21.1962 24.2788 21.1962 21.8759C21.1962 20.617 21.7221 19.4765 22.5664 18.6757C22.4305 18.3232 22.2771 17.986 22.1048 17.6658L22.1042 17.6647C21.5579 16.6476 20.7984 15.7628 19.7719 15.1422L19.7703 15.1412C18.7437 14.5187 17.5818 14.244 16.3597 14.244L8.64033 14.245C7.41817 14.245 6.2563 14.5197 5.22971 15.1422L5.2281 15.1432C4.20164 15.7638 3.44215 16.6486 2.89578 17.6657L2.8952 17.6668C1.84347 19.6207 1.5 22.2105 1.5 25.0226V28.9886C1.49995 29.3442 1.58424 29.6949 1.74595 30.0116C1.90766 30.3283 2.14217 30.6021 2.43024 30.8106C2.71831 31.0191 3.05172 31.1563 3.40309 31.2109C3.75447 31.2655 4.11378 31.236 4.45155 31.1249C4.60464 31.0745 4.91992 31.0004 4.91992 31.0004V22.5004C4.91992 22.0862 5.25571 21.7504 5.66992 21.7504C6.08414 21.7504 6.41992 22.0862 6.41992 22.5004C6.41992 26.123 6.42008 29.7452 6.42024 33.3674C6.4204 36.9896 6.42055 40.6117 6.42055 44.2341C6.41979 44.8133 6.64255 45.3705 7.04242 45.7895C7.4423 46.2085 7.98844 46.457 8.56703 46.4833C9.14563 46.5096 9.71205 46.3116 10.1483 45.9306C10.5739 45.5588 10.8435 45.0409 10.9044 44.4801L11.1663 33.9493C11.1851 33.1917 11.7634 32.5768 12.5 32.4957C13.2366 32.5768 13.8149 33.1907 13.8337 33.9483L14.0956 44.4791C14.1565 45.0399 14.4261 45.5578 14.8517 45.9296C15.2879 46.3106 15.8544 46.5086 16.433 46.4823C17.0116 46.456 17.5577 46.2075 17.9576 45.7885C18.3575 45.3695 18.5802 44.8123 18.5794 44.2332L18.5796 37.9401ZM31.5012 30.2751L33.8635 34.0585C33.8674 34.0649 33.8713 34.0713 33.8751 34.0778C34.5862 35.2966 34.265 36.873 33.0702 37.6365C32.1736 38.2122 31.0597 38.1405 30.2503 37.553V40.2509H42.7494C43.4016 40.2509 43.8793 39.6365 43.7185 39.0044L41.1113 28.7509H31.8888L31.5012 30.2751ZM22.6962 21.8759C22.6962 20.2743 23.9679 19.0009 25.501 19.0009C27.0342 19.0009 28.3059 20.2743 28.3059 21.8759C28.3059 23.4774 27.0342 24.7509 25.501 24.7509C23.9679 24.7509 22.6962 23.4774 22.6962 21.8759ZM21.2849 30.2501C22.1357 28.8698 23.6076 28.0124 25.1567 28.0124H25.8454C27.3996 28.0124 28.8661 28.8694 29.7172 30.2501L32.5845 34.8424C32.9108 35.4114 32.7315 36.0728 32.2624 36.3726L32.2605 36.3738C31.7922 36.6751 31.1615 36.5373 30.8558 36.0398L30.1385 34.8775C29.9624 34.5921 29.6182 34.4583 29.2955 34.5498C28.9729 34.6414 28.7503 34.936 28.7503 35.2714V45.4384C28.7503 46.0406 28.278 46.5009 27.7228 46.5009C27.1676 46.5009 26.6954 46.0406 26.6954 45.4384C26.6954 45.4156 26.6944 45.3929 26.6923 45.3703L26.1968 39.9328C26.1614 39.5439 25.8334 39.2472 25.4429 39.2509C25.0524 39.2545 24.73 39.5572 24.7019 39.9468L24.3086 45.3843C24.3073 45.4023 24.3067 45.4203 24.3067 45.4384C24.3067 46.0406 23.8344 46.5009 23.2792 46.5009C22.7241 46.5009 22.2518 46.0406 22.2518 45.4384V35.2714C22.2518 34.936 22.0292 34.6414 21.7065 34.5498C21.3839 34.4583 21.0397 34.5921 20.8636 34.8775L20.1463 36.0398C19.8517 36.5192 19.227 36.6866 18.692 36.3736C18.2687 36.073 18.0921 35.41 18.4176 34.8424L21.2826 30.2537L21.2849 30.2501Z" fill="currentColor"/>
</g>
<defs>
<clipPath id="clip0_3028_9099">
<rect width="48" height="48" fill="white" transform="translate(0 0.000854492)"/>
</clipPath>
</defs>
</svg>
