<svg width="48" height="48" viewBox="0 0 48 48" fill="none" xmlns="http://www.w3.org/2000/svg">
<g clip-path="url(#clip0_45_216)">
<path fill-rule="evenodd" clip-rule="evenodd" d="M18.4131 16.6959C19.275 16.3089 20.8178 16.1758 22.45 17.4C23.1415 17.9186 23.6749 18.3341 24.0733 18.6541C24.4621 18.9663 24.9887 19.0875 25.4699 18.976C26.0718 18.8365 26.7487 18.7035 27.3256 18.6446C27.6114 18.6155 27.9011 18.6013 28.157 18.6225C28.2852 18.6332 28.4266 18.6543 28.5648 18.6975C28.6974 18.7389 28.8765 18.8158 29.0303 18.9696C29.1587 19.0979 29.2493 19.2688 29.2989 19.3658C29.3629 19.4908 29.4304 19.6409 29.4984 19.8028C29.6352 20.1283 29.7915 20.5421 29.9509 20.9849C30.2706 21.8729 30.6157 22.9135 30.8637 23.6766C31.0003 24.0971 31.3605 24.4446 31.8391 24.603C32.3701 24.7788 33.0318 25.0331 33.5746 25.3615C33.8454 25.5253 34.1209 25.7278 34.3363 25.9762C34.5529 26.2258 34.75 26.5717 34.75 26.9999C34.75 27.6354 34.4314 28.1491 34.1007 28.5349C33.7781 28.9113 33.3622 29.2578 33.0052 29.5552L32.9801 29.5761C32.5926 29.8991 32.2705 30.1701 32.0382 30.4412C31.8064 30.7116 31.75 30.8854 31.75 30.9999C31.75 31.5371 31.9001 32.3122 32.0636 33.1567C32.1004 33.3471 32.138 33.5411 32.1747 33.7367C32.2683 34.2361 32.3547 34.7458 32.3814 35.1719C32.3946 35.3842 32.3955 35.6088 32.3633 35.8175C32.3339 36.0081 32.2605 36.3001 32.0303 36.5303C32.0311 36.5295 32.0309 36.5297 32.0297 36.5311C32.0253 36.5362 32.0069 36.5571 31.9715 36.6029C31.9307 36.6556 31.8792 36.7258 31.8169 36.8136C31.6925 36.9891 31.5372 37.2182 31.3584 37.4863C31.1889 37.7405 31.0016 38.0249 30.8036 38.3257L30.7729 38.3724C30.564 38.6896 30.3441 39.0233 30.124 39.3535C29.686 40.0105 29.2381 40.667 28.8644 41.1624C28.6794 41.4079 28.499 41.632 28.3386 41.8008C28.2598 41.8837 28.1678 41.9725 28.0685 42.0461C28.0056 42.0927 27.793 42.2499 27.5 42.2499C27.2259 42.2499 26.9822 42.133 26.8449 42.0598C26.6792 41.9716 26.5088 41.8572 26.349 41.7395C26.0273 41.5027 25.6849 41.2054 25.4023 40.9448C25.0081 40.5813 24.7556 40.111 24.6396 39.6179L22.7779 31.7055C22.5391 30.9975 22.0939 29.9537 21.5346 29.0976C21.2504 28.6627 20.9566 28.3069 20.6702 28.0673C20.381 27.8252 20.159 27.7499 20 27.7499C19.3597 27.7499 18.8159 27.807 18.3839 27.8827C17.4705 28.0425 16.3523 27.9365 15.515 27.2387L14.2395 26.1758C13.6125 25.6533 13.25 24.8793 13.25 24.0632V23.2675C13.25 22.5881 13.5015 21.9328 13.9559 21.4278L17.7744 17.185C17.9116 17.0327 18.1197 16.8277 18.4131 16.6959ZM21.55 18.6C20.3702 17.7151 19.4099 17.8926 19.0275 18.0643C19.0243 18.0658 19.0111 18.0723 18.9866 18.0924C18.9614 18.1131 18.9301 18.1433 18.8894 18.1885L15.0709 22.4313C14.8643 22.6608 14.75 22.9587 14.75 23.2675V24.0632C14.75 24.4342 14.9148 24.786 15.1998 25.0235L16.4753 26.0864C16.8588 26.406 17.4732 26.5192 18.1253 26.4051C18.6406 26.3149 19.2709 26.2499 20 26.2499C20.641 26.2499 21.194 26.5496 21.6329 26.917C22.0747 27.2867 22.4621 27.7747 22.7904 28.2772C23.4477 29.2833 23.9476 30.4711 24.2115 31.2628L24.2223 31.295L26.0998 39.2743C26.1541 39.5053 26.2665 39.7013 26.4192 39.8421C26.6826 40.0851 26.9796 40.3411 27.2383 40.5316C27.2875 40.5678 27.3332 40.6 27.375 40.6283C27.4574 40.5308 27.555 40.4075 27.6668 40.2593C28.0119 39.8016 28.439 39.1769 28.876 38.5214C29.0934 38.1953 29.311 37.8649 29.5201 37.5474L29.5513 37.5L29.552 37.499C29.7491 37.1997 29.9384 36.9121 30.1103 36.6542C30.291 36.3833 30.456 36.1397 30.5933 35.946C30.6878 35.8126 30.79 35.6727 30.8842 35.5628C30.8907 35.5025 30.8931 35.406 30.8843 35.2655C30.864 34.9416 30.7942 34.5137 30.7003 34.0131C30.6702 33.8525 30.6372 33.6832 30.6032 33.5086C30.4386 32.6644 30.25 31.6974 30.25 30.9999C30.25 30.3645 30.5686 29.8508 30.8993 29.465C31.2219 29.0886 31.6378 28.7421 31.9948 28.4447L32.0199 28.4238C32.4074 28.1008 32.7295 27.8297 32.9618 27.5587C33.1794 27.3048 33.2424 27.1361 33.2493 27.0216C33.243 27.0102 33.2296 26.9895 33.2032 26.959C33.1295 26.8741 32.9983 26.766 32.7981 26.6449C32.3991 26.4035 31.8625 26.1908 31.3677 26.027C30.4965 25.7386 29.7398 25.0718 29.4371 24.1401C29.1906 23.3815 28.8512 22.3585 28.5396 21.493C28.3834 21.0591 28.2374 20.6737 28.1156 20.384C28.0699 20.2752 28.0299 20.1855 27.9961 20.1149C27.8734 20.1082 27.6999 20.1142 27.4779 20.1369C26.9926 20.1864 26.3859 20.3035 25.8085 20.4373C24.8746 20.6537 23.8778 20.421 23.134 19.8236C22.7505 19.5155 22.2304 19.1103 21.55 18.6Z" fill="currentColor"/>
<path fill-rule="evenodd" clip-rule="evenodd" d="M37.1737 32.52C38.0861 31.4251 39.8556 31.8299 40.2012 33.2125C40.2055 33.2296 40.2116 33.2462 40.2195 33.262L40.8093 34.4416C41.1783 35.1796 40.9816 36.0752 40.3373 36.5907L38.501 38.0597L37.7374 38.8233C36.635 39.9257 34.75 39.1449 34.75 37.5858V37.1926C34.75 36.97 34.7925 36.7494 34.8752 36.5427L35.7448 34.3686C35.813 34.198 35.9077 34.0393 36.0253 33.8982L37.1737 32.52ZM38.3261 33.4803C38.4526 33.3284 38.6981 33.3846 38.746 33.5763C38.7768 33.6996 38.821 33.8191 38.8779 33.9328L39.4676 35.1124C39.5204 35.2178 39.4923 35.3457 39.4002 35.4194L37.499 36.9403L36.6768 37.7626C36.5193 37.9201 36.25 37.8085 36.25 37.5858V37.1926C36.25 37.1608 36.2561 37.1293 36.2679 37.0998L37.1375 34.9257C37.1473 34.9013 37.1608 34.8786 37.1776 34.8585L38.3261 33.4803Z" fill="currentColor"/>
<path fill-rule="evenodd" clip-rule="evenodd" d="M47.7101 20.2586C45.9134 8.78076 35.9821 0 24 0C10.7452 0 0 10.7452 0 24C0 37.2548 10.7452 48 24 48C37.2548 48 48 37.2548 48 24C48 22.8189 47.9147 21.6577 47.7499 20.5223C47.7526 20.4319 47.7387 20.3426 47.7101 20.2586ZM46.5 24C46.5 36.4264 36.4264 46.5 24 46.5C18.1159 46.5 12.7593 44.2413 8.75004 40.5437L8.76002 40.4614C8.77 40.3809 8.78511 40.2638 8.80532 40.1198C8.84583 39.8312 8.90642 39.4376 8.98685 39.0153C9.06764 38.5912 9.16641 38.149 9.28169 37.76C9.4016 37.3553 9.52205 37.0692 9.62413 36.916C9.985 36.3748 10.4888 35.4727 10.8536 34.4849C11.2082 33.525 11.4845 32.3455 11.2277 31.3181C11.0942 30.784 10.8401 30.3696 10.4509 30.0892C10.0839 29.8248 9.67392 29.7379 9.35441 29.6929C9.2166 29.6734 9.07412 29.6595 8.94852 29.6471L8.88655 29.641C8.73907 29.6263 8.61067 29.6122 8.48872 29.5913C8.24762 29.5501 8.07501 29.489 7.93603 29.3897C7.43301 29.0304 7.09256 28.6913 6.75227 28.3133C6.65797 28.2086 6.55953 28.0958 6.45534 27.9765C6.19238 27.6753 5.89248 27.3317 5.53043 26.9696C4.66914 26.1083 3.80937 25.7359 2.96812 25.6308C2.46751 25.5682 1.98261 25.6051 1.56029 25.6598C1.52033 25.1118 1.5 24.5583 1.5 24C1.5 23.5529 1.51304 23.1088 1.53877 22.6681L1.62318 22.6549C1.68103 22.6459 1.74169 22.6364 1.80572 22.6263C2.05757 22.5862 2.34281 22.5373 2.63771 22.465C3.22869 22.3201 3.89255 22.0735 4.4846 21.5725C5.1733 20.9898 5.30799 20.1463 5.39018 19.6315C5.39767 19.5847 5.40473 19.5404 5.41172 19.4995C5.51498 18.8945 5.59966 18.7718 5.79119 18.6912C5.91587 18.6387 6.02039 18.6418 6.33476 18.7087L6.38969 18.7206C6.68619 18.7851 7.17353 18.8912 7.72781 18.7146C10.0893 17.9622 10.7531 15.3888 10.2271 13.3155C9.92496 12.1246 9.09701 11.2769 8.22301 10.7201C7.64712 10.3533 7.02137 10.0925 6.44096 9.92994C10.5646 4.79042 16.898 1.5 24 1.5C24.1454 1.5 24.2905 1.50138 24.4352 1.50412L21.4877 4.45163C21.2787 4.66069 21.0023 4.78888 20.7076 4.81343L17.2716 5.09976C15.8463 5.21854 14.75 6.41002 14.75 7.84027V8.68121C14.75 9.78129 15.4056 10.7755 16.4167 11.2089L18.1512 11.9522C18.6475 12.1649 19.1953 12.2268 19.7265 12.1302L23.0756 11.5213C23.8891 11.3734 24.7284 11.5411 25.4225 11.9903L31.897 16.1796C32.2698 16.4208 32.5892 16.7359 32.8355 17.1054L33.3663 17.9015C34.1533 19.082 35.7091 19.47 36.9582 18.7974L40.3401 16.9764C40.8846 16.6832 41.5617 16.8322 41.9327 17.327L43.5635 19.5013C43.8661 19.9048 44.2739 20.2173 44.7422 20.4046L46.3057 21.0301C46.4339 22.0019 46.5 22.9932 46.5 24ZM1.71916 27.1529C2.36698 31.7727 4.4177 35.9425 7.4268 39.2179C7.45268 39.0641 7.48152 38.9017 7.51334 38.7346C7.59922 38.2838 7.70878 37.7885 7.8435 37.3338C7.9736 36.8947 8.14481 36.4309 8.37606 36.084C8.68186 35.6253 9.12809 34.8273 9.44656 33.9652C9.77535 33.075 9.91565 32.2546 9.77249 31.6819C9.70601 31.416 9.6183 31.3381 9.57407 31.3062C9.50757 31.2583 9.39244 31.213 9.14519 31.1782C9.04127 31.1636 8.93446 31.153 8.80751 31.1405L8.73795 31.1336C8.58749 31.1187 8.41381 31.1003 8.2358 31.0698C7.87698 31.0085 7.45812 30.8917 7.06416 30.6103C6.44364 30.1671 6.02225 29.7443 5.6375 29.317C5.51562 29.1816 5.40225 29.0517 5.28976 28.9227C5.03984 28.6363 4.79434 28.3549 4.46976 28.0303C3.83105 27.3916 3.27416 27.1807 2.78207 27.1192C2.42643 27.0747 2.0898 27.1026 1.71916 27.1529ZM2.28052 21.0082C2.08349 21.0565 1.88444 21.0934 1.68173 21.1268C2.14491 17.4928 3.47497 14.1295 5.45802 11.2509C6.0161 11.3291 6.76314 11.5687 7.41714 11.9853C8.08976 12.4137 8.59515 12.9827 8.77318 13.6844C9.19302 15.3392 8.57575 16.8701 7.27248 17.2853C7.1183 17.3345 6.99239 17.3152 6.64726 17.2417L6.63741 17.2396C6.31695 17.1713 5.79818 17.0607 5.2091 17.3087C4.19341 17.7364 4.02806 18.6907 3.9331 19.2471C3.81868 19.9175 3.76418 20.2172 3.51569 20.4274C3.165 20.7242 2.74553 20.8942 2.28052 21.0082ZM46.0073 19.2952L45.2993 19.0119C45.0864 18.9268 44.9011 18.7847 44.7635 18.6013L43.1327 16.427C42.3164 15.3385 40.8269 15.0106 39.629 15.6557L36.2471 17.4767C35.6793 17.7824 34.9721 17.606 34.6144 17.0695L34.0836 16.2734C33.7236 15.7333 33.2567 15.2728 32.7118 14.9202L26.2374 10.7309C25.2229 10.0744 23.9962 9.8293 22.8073 10.0455L19.4581 10.6544C19.2167 10.6983 18.9677 10.6702 18.7421 10.5735L17.0076 9.83014C16.548 9.63317 16.25 9.18124 16.25 8.68121V7.84027C16.25 7.19016 16.7483 6.64857 17.3962 6.59458L20.8322 6.30825C21.4804 6.25423 22.0884 5.97222 22.5484 5.51229L26.4309 1.62979C36.1452 2.67336 44.0085 9.89963 46.0073 19.2952Z" fill="currentColor"/>
</g>
<defs>
<clipPath id="clip0_45_216">
<rect width="48" height="48" fill="white"/>
</clipPath>
</defs>
</svg>
