<svg width="48" height="48" viewBox="0 0 48 48" fill="none" xmlns="http://www.w3.org/2000/svg">
<path fill-rule="evenodd" clip-rule="evenodd" d="M1.98339 11.7061L0.751476 11.2947C-0.250492 10.96 -0.250492 9.53997 0.751476 9.20531L23.6525 1.55651C23.8781 1.48116 24.1219 1.48116 24.3475 1.55651L47.2485 9.20531C48.2505 9.53997 48.2505 10.96 47.2485 11.2947L40.75 13.4652V16.9602C40.75 17.2929 40.5025 17.5689 40.1776 17.6403C39.7239 17.7399 39.25 17.42 39.25 16.9555V13.9661L24.3475 18.9435C24.1219 19.0188 23.8781 19.0188 23.6525 18.9435L8.75 13.9661V21.9588C8.75 22.3129 8.95003 22.6366 9.26671 22.7949C15.313 25.818 22.0571 26.8704 28.5892 25.9519C29.288 25.8537 29.7544 26.731 29.2554 27.2299C29.1482 27.3371 29.0095 27.4073 28.8594 27.4286C22.0108 28.4041 14.9364 27.3068 8.59589 24.1365C7.77104 23.7241 7.25 22.881 7.25 21.9588V13.4652L3.99988 12.3796V23C3.99988 23.5523 3.55216 24 2.99988 24H2.08307C1.49935 24 1.03971 23.5021 1.08626 22.9203L1.98339 11.7061ZM2.35859 10.25L3.78688 10.727L23.9453 9.25203C24.3584 9.22181 24.7178 9.53219 24.748 9.9453C24.7783 10.3584 24.4679 10.7178 24.0548 10.748L7.48073 11.9608L24 17.4781L45.6414 10.25L24 3.02189L2.35859 10.25Z" fill="currentColor"/>
<path fill-rule="evenodd" clip-rule="evenodd" d="M34.636 36.6985L27.682 43.6525C25.9246 45.4099 23.0754 45.4099 21.318 43.6525C19.5607 41.8952 19.5607 39.0459 21.318 37.2886L38.2886 20.318C40.0459 18.5607 42.8952 18.5607 44.6525 20.318C46.4099 22.0754 46.4099 24.9246 44.6525 26.682L38.886 32.4485V42.3065L36.761 39.477L34.636 45.136V36.6985ZM33.6217 31.3489C34.7542 32.4814 34.8249 34.3883 33.6924 35.5208L28.9901 40.2231C28.9035 39.2021 28.5692 38.1758 27.682 37.2886C26.7948 36.4014 25.7685 36.067 24.7475 35.9804L29.4497 31.2782C30.5823 30.1457 32.4892 30.2164 33.6217 31.3489ZM43.6626 25.5506C44.7951 24.4181 44.7244 22.5112 43.5919 21.3787C42.4594 20.2462 40.5525 20.1754 39.42 21.308L34.5763 26.1517C35.5973 26.2383 36.6236 26.5726 37.5108 27.4598C38.398 28.347 38.7323 29.3733 38.8189 30.3943L43.6626 25.5506ZM26.6213 42.5919C25.4497 43.7635 23.5503 43.7635 22.3787 42.5919C21.2071 41.4203 21.2071 39.5208 22.3787 38.3492C23.5503 37.1777 25.4497 37.1777 26.6213 38.3492C27.7929 39.5208 27.7929 41.4203 26.6213 42.5919Z" fill="currentColor"/>
</svg>
