<svg width="48" height="48" viewBox="0 0 48 48" fill="none" xmlns="http://www.w3.org/2000/svg">
<path fill-rule="evenodd" clip-rule="evenodd" d="M3.57447 0.000854492H44.4255C46.3997 0.000854492 48 1.6012 48 3.57532V19.9157C48 21.8899 46.3997 23.4902 44.4255 23.4902H26.0426V28.717H28.8088C29.5549 28.717 30.2704 29.0134 30.798 29.541C31.3255 30.0685 31.6219 30.7841 31.6219 31.5301C31.6219 32.2674 31.3648 32.9732 30.902 33.4934C30.9714 33.5496 31.0378 33.6089 31.101 33.6711C31.6456 34.2071 31.9146 34.9194 31.9146 35.6245C31.9146 36.3296 31.6456 37.0418 31.101 37.5778C30.9453 37.731 30.7708 37.8663 30.579 37.9816C30.9914 38.4853 31.1954 39.1048 31.1954 39.7188C31.1954 40.4239 30.9263 41.1361 30.3818 41.6721C30.1309 41.919 29.8312 42.1194 29.4889 42.2643C29.8068 42.73 29.9643 43.2737 29.9643 43.8131C29.9643 44.5182 29.6953 45.2304 29.1507 45.7664C28.5997 46.3087 27.8132 46.6262 26.8585 46.6262H9.89928C9.46797 47.4256 8.62283 47.9688 7.65082 47.9688H5.10638C3.69629 47.9688 2.55319 46.8257 2.55319 45.4156V31.6604C2.55319 30.2503 3.69629 29.1072 5.10638 29.1072H7.65082C8.73855 29.1072 9.66742 29.7874 10.0353 30.7457L15.7273 26.3329C16.3247 25.7954 17.0894 25.4799 17.8927 25.4403C18.7073 25.4001 19.5102 25.6459 20.1626 26.1353L21.9574 27.4814V23.4902H3.57447C1.60035 23.4902 0 21.8899 0 19.9157V3.57532C0 1.6012 1.60034 0.000854492 3.57447 0.000854492ZM3.57447 1.53277C2.4464 1.53277 1.53192 2.44725 1.53192 3.57532V19.9157C1.53192 21.0438 2.4464 21.9583 3.57447 21.9583H44.4255C45.5536 21.9583 46.4681 21.0438 46.4681 19.9157V3.57532C46.4681 2.44725 45.5536 1.53277 44.4255 1.53277H3.57447ZM28.0761 42.9516C27.8471 42.7262 27.4637 42.5319 26.8585 42.5319H26.0792C25.6562 42.5319 25.3132 42.189 25.3132 41.766C25.3132 41.5545 25.399 41.363 25.5376 41.2244C25.5722 41.1897 25.6102 41.1584 25.6509 41.1308C25.7732 41.0482 25.9206 41 26.0792 41H28.0896C28.6948 41 29.0782 40.8057 29.3072 40.5803C29.5426 40.3486 29.6635 40.0373 29.6635 39.7188C29.6635 39.4003 29.5426 39.0889 29.3072 38.8572C29.0782 38.6319 28.6948 38.4376 28.0896 38.4376H26.0792C25.6562 38.4376 25.3133 38.0946 25.3133 37.6716C25.3133 37.2486 25.6562 36.9057 26.0792 36.9057H28.8088C29.414 36.9057 29.7974 36.7114 30.0264 36.486C30.2618 36.2543 30.3827 35.9429 30.3827 35.6245C30.3827 35.306 30.2618 34.9946 30.0264 34.7629C29.7974 34.5375 29.414 34.3433 28.8088 34.3433H26.0792C25.6562 34.3433 25.3133 34.0003 25.3133 33.5773C25.3133 33.1543 25.6562 32.8113 26.0792 32.8113H28.9671C29.5961 32.8113 30.09 32.3212 30.09 31.5301C30.09 31.1903 29.955 30.8645 29.7147 30.6242C29.4745 30.3839 29.1486 30.2489 28.8088 30.2489H23.3601C23.3528 30.249 23.3454 30.249 23.338 30.2489H19.2554C18.8324 30.2489 18.4894 29.906 18.4894 29.483C18.4894 29.06 18.8324 28.717 19.2554 28.717H21.0517L19.2434 27.3608C18.8769 27.0859 18.4258 26.9477 17.9683 26.9703C17.5107 26.9929 17.0754 27.1748 16.7378 27.4845C16.7223 27.4987 16.7061 27.5124 16.6894 27.5253L10.2128 32.5464V45.0943H26.8585C27.4637 45.0943 27.8471 44.9 28.0761 44.6746C28.3115 44.443 28.4324 44.1316 28.4324 43.8131C28.4324 43.4946 28.3115 43.1833 28.0761 42.9516ZM4.08511 31.6604C4.08511 31.0964 4.54235 30.6392 5.10638 30.6392H7.65082C8.21486 30.6392 8.6721 31.0964 8.6721 31.6604V45.4156C8.6721 45.9796 8.21486 46.4368 7.65082 46.4368H5.10638C4.54235 46.4368 4.08511 45.9796 4.08511 45.4156V31.6604Z" fill="currentColor"/>
<path d="M27.4244 11.4099V13.213C27.4244 14.0766 27.3397 14.814 27.1703 15.4251C27.006 16.0312 26.7668 16.5236 26.453 16.9024C26.1392 17.2812 25.7631 17.5589 25.3247 17.7357C24.8914 17.9125 24.4057 18.0009 23.8677 18.0009C23.4393 18.0009 23.0408 17.9453 22.6722 17.8342C22.3085 17.7231 21.9798 17.5488 21.6859 17.3115C21.392 17.0741 21.1404 16.7685 20.9312 16.3948C20.727 16.016 20.5676 15.564 20.453 15.0387C20.3434 14.5135 20.2886 13.9049 20.2886 13.213V11.4099C20.2886 10.5413 20.3733 9.80894 20.5427 9.21298C20.712 8.61197 20.9536 8.12459 21.2674 7.75085C21.5813 7.37207 21.9549 7.09681 22.3882 6.9251C22.8266 6.75338 23.3148 6.66752 23.8528 6.66752C24.2861 6.66752 24.6846 6.72308 25.0483 6.83419C25.4169 6.94025 25.7457 7.10944 26.0346 7.34176C26.3285 7.57409 26.5776 7.87712 26.7818 8.25085C26.991 8.61954 27.1504 9.06651 27.26 9.59176C27.3696 10.112 27.4244 10.718 27.4244 11.4099ZM25.6236 13.4706V11.1372C25.6236 10.6978 25.5987 10.3115 25.5489 9.97813C25.4991 9.63974 25.4244 9.35439 25.3247 9.12207C25.2301 8.88469 25.1106 8.69277 24.9661 8.54631C24.8216 8.39479 24.6572 8.28621 24.4729 8.22055C24.2886 8.14984 24.0819 8.11449 23.8528 8.11449C23.5738 8.11449 23.3247 8.17005 23.1056 8.28116C22.8864 8.38722 22.7021 8.55894 22.5526 8.79631C22.4032 9.03368 22.2886 9.34681 22.2089 9.7357C22.1342 10.1195 22.0968 10.5867 22.0968 11.1372V13.4706C22.0968 13.915 22.1217 14.3064 22.1716 14.6448C22.2214 14.9832 22.2961 15.2736 22.3957 15.516C22.4953 15.7534 22.6149 15.9504 22.7544 16.1069C22.8988 16.2584 23.0632 16.3695 23.2475 16.4403C23.4368 16.511 23.6435 16.5463 23.8677 16.5463C24.1516 16.5463 24.4032 16.4908 24.6224 16.3796C24.8416 16.2685 25.0259 16.0918 25.1753 15.8493C25.3247 15.6019 25.4368 15.2812 25.5115 14.8872C25.5863 14.4933 25.6236 14.0211 25.6236 13.4706Z" fill="currentColor"/>
<path fill-rule="evenodd" clip-rule="evenodd" d="M18.5721 13.984V15.4386H17.2122V17.9158H15.4114V15.4386H10.7264L10.6667 14.3401L15.3591 6.88552H17.2122V13.984H18.5721ZM12.5421 13.984L15.3948 9.34776V13.984H12.5421Z" fill="currentColor"/>
<path d="M31.7576 11.5084H32.8335C33.252 11.5084 33.5982 11.4352 33.8721 11.2887C34.1511 11.1423 34.3578 10.9402 34.4923 10.6827C34.6268 10.4251 34.6941 10.1296 34.6941 9.79631C34.6941 9.44782 34.6318 9.14985 34.5073 8.90237C34.3877 8.64985 34.2034 8.4554 33.9543 8.31904C33.7102 8.18267 33.3989 8.11449 33.0203 8.11449C32.7015 8.11449 32.4126 8.18015 32.1536 8.31146C31.8995 8.43772 31.6978 8.61954 31.5483 8.85692C31.3989 9.08924 31.3242 9.36702 31.3242 9.69025H29.516C29.516 9.10439 29.6679 8.58419 29.9717 8.12964C30.2756 7.6751 30.6891 7.31904 31.2121 7.06146C31.7401 6.79883 32.3329 6.66752 32.9904 6.66752C33.6928 6.66752 34.3055 6.78621 34.8286 7.02358C35.3566 7.25591 35.7675 7.60439 36.0614 8.06904C36.3553 8.53368 36.5023 9.10944 36.5023 9.79631C36.5023 10.1094 36.4301 10.4276 36.2856 10.7509C36.1411 11.0741 35.9269 11.3695 35.643 11.6372C35.4195 11.8439 35.1528 12.0209 34.8429 12.1682C35.2489 12.3162 35.5829 12.5418 35.8447 12.7887C36.1287 13.0514 36.3354 13.3519 36.4649 13.6902C36.5994 14.0286 36.6667 14.3872 36.6667 14.766C36.6667 15.2812 36.5745 15.7408 36.3902 16.1448C36.2109 16.5438 35.9543 16.8822 35.6206 17.1599C35.2868 17.4377 34.8958 17.6473 34.4475 17.7887C34.0041 17.9301 33.521 18.0009 32.9979 18.0009C32.5297 18.0009 32.0813 17.9352 31.6529 17.8039C31.2246 17.6726 30.841 17.4781 30.5023 17.2206C30.1635 16.9579 29.8945 16.6322 29.6953 16.2433C29.501 15.8493 29.4039 15.3948 29.4039 14.8796H31.2046C31.2046 15.2079 31.2793 15.4983 31.4288 15.7509C31.5832 15.9983 31.7974 16.1928 32.0714 16.3342C32.3503 16.4756 32.6691 16.5463 33.0278 16.5463C33.4064 16.5463 33.7327 16.4781 34.0066 16.3418C34.2806 16.2054 34.4898 16.0034 34.6343 15.7357C34.7837 15.468 34.8584 15.1448 34.8584 14.766C34.8584 14.3367 34.7762 13.9882 34.6119 13.7206C34.4475 13.4529 34.2134 13.2559 33.9095 13.1296C33.6056 12.9983 33.247 12.9327 32.8335 12.9327H31.7576V11.5084Z" fill="currentColor"/>
</svg>
