<svg width="48" height="48" viewBox="0 0 48 48" fill="none" xmlns="http://www.w3.org/2000/svg">
<path fill-rule="evenodd" clip-rule="evenodd" d="M3.57447 0.000854492H44.4255C46.3997 0.000854492 48 1.6012 48 3.57532V19.9157C48 21.8899 46.3997 23.4902 44.4255 23.4902H26.0426V28.717H28.8088C29.5549 28.717 30.2704 29.0134 30.798 29.541C31.3255 30.0685 31.6219 30.7841 31.6219 31.5301C31.6219 32.2674 31.3648 32.9732 30.902 33.4934C30.9714 33.5496 31.0378 33.6089 31.101 33.6711C31.6456 34.2071 31.9146 34.9194 31.9146 35.6245C31.9146 36.3296 31.6456 37.0418 31.101 37.5778C30.9453 37.731 30.7708 37.8663 30.579 37.9816C30.9914 38.4853 31.1954 39.1048 31.1954 39.7188C31.1954 40.4239 30.9263 41.1361 30.3818 41.6721C30.1309 41.919 29.8312 42.1194 29.4889 42.2643C29.8068 42.73 29.9643 43.2737 29.9643 43.8131C29.9643 44.5182 29.6953 45.2304 29.1507 45.7664C28.5997 46.3087 27.8132 46.6262 26.8585 46.6262H9.89928C9.46797 47.4256 8.62283 47.9688 7.65082 47.9688H5.10638C3.69629 47.9688 2.55319 46.8257 2.55319 45.4156V31.6604C2.55319 30.2503 3.69629 29.1072 5.10638 29.1072H7.65082C8.73855 29.1072 9.66742 29.7874 10.0353 30.7457L15.7273 26.3329C16.3247 25.7954 17.0894 25.4799 17.8927 25.4403C18.7073 25.4001 19.5102 25.6459 20.1626 26.1353L21.9574 27.4814V23.4902H3.57447C1.60035 23.4902 0 21.8899 0 19.9157V3.57532C0 1.6012 1.60034 0.000854492 3.57447 0.000854492ZM3.57447 1.53277C2.4464 1.53277 1.53192 2.44725 1.53192 3.57532V19.9157C1.53192 21.0438 2.4464 21.9583 3.57447 21.9583H44.4255C45.5536 21.9583 46.4681 21.0438 46.4681 19.9157V3.57532C46.4681 2.44725 45.5536 1.53277 44.4255 1.53277H3.57447ZM28.0761 42.9516C27.8471 42.7262 27.4637 42.5319 26.8585 42.5319H26.0792C25.6562 42.5319 25.3132 42.189 25.3132 41.766C25.3132 41.5545 25.399 41.363 25.5376 41.2244C25.5722 41.1897 25.6102 41.1584 25.6509 41.1308C25.7732 41.0482 25.9206 41 26.0792 41H28.0896C28.6948 41 29.0782 40.8057 29.3072 40.5803C29.5426 40.3486 29.6635 40.0373 29.6635 39.7188C29.6635 39.4003 29.5426 39.0889 29.3072 38.8572C29.0782 38.6319 28.6948 38.4376 28.0896 38.4376H26.0792C25.6562 38.4376 25.3133 38.0946 25.3133 37.6716C25.3133 37.2486 25.6562 36.9057 26.0792 36.9057H28.8088C29.414 36.9057 29.7974 36.7114 30.0264 36.486C30.2618 36.2543 30.3827 35.9429 30.3827 35.6245C30.3827 35.306 30.2618 34.9946 30.0264 34.7629C29.7974 34.5375 29.414 34.3433 28.8088 34.3433H26.0792C25.6562 34.3433 25.3133 34.0003 25.3133 33.5773C25.3133 33.1543 25.6562 32.8113 26.0792 32.8113H28.9671C29.5961 32.8113 30.09 32.3212 30.09 31.5301C30.09 31.1903 29.955 30.8645 29.7147 30.6242C29.4745 30.3839 29.1486 30.2489 28.8088 30.2489H23.3601C23.3528 30.249 23.3454 30.249 23.338 30.2489H19.2554C18.8324 30.2489 18.4894 29.906 18.4894 29.483C18.4894 29.06 18.8324 28.717 19.2554 28.717H21.0517L19.2434 27.3608C18.8769 27.0859 18.4258 26.9477 17.9683 26.9703C17.5107 26.9929 17.0754 27.1748 16.7378 27.4845C16.7223 27.4987 16.7061 27.5124 16.6894 27.5253L10.2128 32.5464V45.0943H26.8585C27.4637 45.0943 27.8471 44.9 28.0761 44.6746C28.3115 44.443 28.4324 44.1316 28.4324 43.8131C28.4324 43.4946 28.3115 43.1833 28.0761 42.9516ZM4.08511 31.6604C4.08511 31.0964 4.54235 30.6392 5.10638 30.6392H7.65082C8.21486 30.6392 8.6721 31.0964 8.6721 31.6604V45.4156C8.6721 45.9796 8.21486 46.4368 7.65082 46.4368H5.10638C4.54235 46.4368 4.08511 45.9796 4.08511 45.4156V31.6604Z" fill="currentColor"/>
<path d="M27.3467 11.4099V13.213C27.3467 14.0766 27.2619 14.814 27.0923 15.4251C26.9278 16.0312 26.6884 16.5236 26.3742 16.9024C26.06 17.2812 25.6835 17.5589 25.2447 17.7357C24.8108 17.9125 24.3246 18.0009 23.786 18.0009C23.3571 18.0009 22.9582 17.9453 22.5891 17.8342C22.2251 17.7231 21.8959 17.5488 21.6017 17.3115C21.3075 17.0741 21.0556 16.7685 20.8462 16.3948C20.6417 16.016 20.4821 15.564 20.3674 15.0387C20.2577 14.5135 20.2029 13.9049 20.2029 13.213V11.4099C20.2029 10.5413 20.2876 9.80894 20.4572 9.21298C20.6268 8.61197 20.8686 8.12459 21.1828 7.75085C21.497 7.37207 21.871 7.09681 22.3049 6.9251C22.7437 6.75338 23.2324 6.66752 23.771 6.66752C24.2049 6.66752 24.6038 6.72308 24.9679 6.83419C25.3369 6.94025 25.6661 7.10944 25.9553 7.34176C26.2495 7.57409 26.4989 7.87712 26.7033 8.25085C26.9128 8.61954 27.0724 9.06651 27.1821 9.59176C27.2918 10.112 27.3467 10.718 27.3467 11.4099ZM25.5439 13.4706V11.1372C25.5439 10.6978 25.5189 10.3115 25.4691 9.97813C25.4192 9.63974 25.3444 9.35439 25.2447 9.12207C25.1499 8.88469 25.0302 8.69277 24.8856 8.54631C24.741 8.39479 24.5764 8.28621 24.3919 8.22055C24.2074 8.14984 24.0004 8.11449 23.771 8.11449C23.4918 8.11449 23.2424 8.17005 23.023 8.28116C22.8036 8.38722 22.619 8.55894 22.4694 8.79631C22.3198 9.03368 22.2051 9.34681 22.1253 9.7357C22.0505 10.1195 22.0131 10.5867 22.0131 11.1372V13.4706C22.0131 13.915 22.0381 14.3064 22.0879 14.6448C22.1378 14.9832 22.2126 15.2736 22.3123 15.516C22.4121 15.7534 22.5318 15.9504 22.6714 16.1069C22.816 16.2584 22.9806 16.3695 23.1651 16.4403C23.3546 16.511 23.5616 16.5463 23.786 16.5463C24.0702 16.5463 24.3221 16.4908 24.5415 16.3796C24.7609 16.2685 24.9454 16.0918 25.0951 15.8493C25.2447 15.6019 25.3569 15.2812 25.4317 14.8872C25.5065 14.4933 25.5439 14.0211 25.5439 13.4706Z" fill="currentColor"/>
<path d="M36.6667 11.4099V13.213C36.6667 14.0766 36.5819 14.814 36.4123 15.4251C36.2478 16.0312 36.0084 16.5236 35.6942 16.9024C35.38 17.2812 35.0035 17.5589 34.5647 17.7357C34.1308 17.9125 33.6446 18.0009 33.106 18.0009C32.6771 18.0009 32.2782 17.9453 31.9091 17.8342C31.5451 17.7231 31.2159 17.5488 30.9217 17.3115C30.6275 17.0741 30.3756 16.7685 30.1662 16.3948C29.9617 16.016 29.8021 15.564 29.6874 15.0387C29.5777 14.5135 29.5229 13.9049 29.5229 13.213V11.4099C29.5229 10.5413 29.6076 9.80894 29.7772 9.21298C29.9468 8.61197 30.1886 8.12459 30.5028 7.75085C30.817 7.37207 31.191 7.09681 31.6249 6.9251C32.0637 6.75338 32.5524 6.66752 33.091 6.66752C33.5249 6.66752 33.9239 6.72308 34.2879 6.83419C34.6569 6.94025 34.9861 7.10944 35.2753 7.34176C35.5695 7.57409 35.8189 7.87712 36.0234 8.25085C36.2328 8.61954 36.3924 9.06651 36.5021 9.59176C36.6118 10.112 36.6667 10.718 36.6667 11.4099ZM34.8639 13.4706V11.1372C34.8639 10.6978 34.839 10.3115 34.7891 9.97813C34.7392 9.63974 34.6644 9.35439 34.5647 9.12207C34.4699 8.88469 34.3502 8.69277 34.2056 8.54631C34.061 8.39479 33.8964 8.28621 33.7119 8.22055C33.5274 8.14984 33.3204 8.11449 33.091 8.11449C32.8118 8.11449 32.5624 8.17005 32.343 8.28116C32.1236 8.38722 31.939 8.55894 31.7894 8.79631C31.6398 9.03368 31.5251 9.34681 31.4453 9.7357C31.3705 10.1195 31.3331 10.5867 31.3331 11.1372V13.4706C31.3331 13.915 31.3581 14.3064 31.4079 14.6448C31.4578 14.9832 31.5326 15.2736 31.6323 15.516C31.7321 15.7534 31.8518 15.9504 31.9914 16.1069C32.136 16.2584 32.3006 16.3695 32.4851 16.4403C32.6746 16.511 32.8816 16.5463 33.106 16.5463C33.3902 16.5463 33.6421 16.4908 33.8615 16.3796C34.0809 16.2685 34.2655 16.0918 34.4151 15.8493C34.5647 15.6019 34.6769 15.2812 34.7517 14.8872C34.8265 14.4933 34.8639 14.0211 34.8639 13.4706Z" fill="currentColor"/>
<path fill-rule="evenodd" clip-rule="evenodd" d="M18.581 13.984V15.4386H17.2195V17.9158H15.4167V15.4386H10.7265L10.6667 14.3401L15.3644 6.88552H17.2195V13.984H18.581ZM12.5443 13.984L15.4001 9.34776V13.984H12.5443Z" fill="currentColor"/>
</svg>
