<svg width="48" height="48" viewBox="0 0 48 48" fill="none" xmlns="http://www.w3.org/2000/svg">
<path fill-rule="evenodd" clip-rule="evenodd" d="M3.57447 0.000854492H44.4255C46.3997 0.000854492 48 1.6012 48 3.57532V19.9157C48 21.8899 46.3997 23.4902 44.4255 23.4902H26.0426V28.717H28.8088C29.5549 28.717 30.2704 29.0134 30.798 29.541C31.3255 30.0685 31.6219 30.7841 31.6219 31.5301C31.6219 32.2674 31.3648 32.9732 30.902 33.4934C30.9714 33.5496 31.0378 33.6089 31.101 33.6711C31.6456 34.2071 31.9146 34.9194 31.9146 35.6245C31.9146 36.3296 31.6456 37.0418 31.101 37.5778C30.9453 37.731 30.7708 37.8663 30.579 37.9816C30.9914 38.4853 31.1954 39.1048 31.1954 39.7188C31.1954 40.4239 30.9263 41.1361 30.3818 41.6721C30.1309 41.919 29.8312 42.1194 29.4889 42.2643C29.8068 42.73 29.9643 43.2737 29.9643 43.8131C29.9643 44.5182 29.6953 45.2304 29.1507 45.7664C28.5997 46.3087 27.8132 46.6262 26.8585 46.6262H9.89928C9.46797 47.4256 8.62283 47.9688 7.65082 47.9688H5.10638C3.69629 47.9688 2.55319 46.8257 2.55319 45.4156V31.6604C2.55319 30.2503 3.69629 29.1072 5.10638 29.1072H7.65082C8.73855 29.1072 9.66742 29.7874 10.0353 30.7457L15.7273 26.3329C16.3247 25.7954 17.0894 25.4799 17.8927 25.4403C18.7073 25.4001 19.5102 25.6459 20.1626 26.1353L21.9574 27.4814V23.4902H3.57447C1.60035 23.4902 0 21.8899 0 19.9157V3.57532C0 1.6012 1.60034 0.000854492 3.57447 0.000854492ZM3.57447 1.53277C2.4464 1.53277 1.53192 2.44725 1.53192 3.57532V19.9157C1.53192 21.0438 2.4464 21.9583 3.57447 21.9583H44.4255C45.5536 21.9583 46.4681 21.0438 46.4681 19.9157V3.57532C46.4681 2.44725 45.5536 1.53277 44.4255 1.53277H3.57447ZM28.0761 42.9516C27.8471 42.7262 27.4637 42.5319 26.8585 42.5319H26.0792C25.6562 42.5319 25.3132 42.189 25.3132 41.766C25.3132 41.5545 25.399 41.363 25.5376 41.2244C25.5722 41.1897 25.6102 41.1584 25.6509 41.1308C25.7732 41.0482 25.9206 41 26.0792 41H28.0896C28.6948 41 29.0782 40.8057 29.3072 40.5803C29.5426 40.3486 29.6635 40.0373 29.6635 39.7188C29.6635 39.4003 29.5426 39.0889 29.3072 38.8572C29.0782 38.6319 28.6948 38.4376 28.0896 38.4376H26.0792C25.6562 38.4376 25.3133 38.0946 25.3133 37.6716C25.3133 37.2486 25.6562 36.9057 26.0792 36.9057H28.8088C29.414 36.9057 29.7974 36.7114 30.0264 36.486C30.2618 36.2543 30.3827 35.9429 30.3827 35.6245C30.3827 35.306 30.2618 34.9946 30.0264 34.7629C29.7974 34.5375 29.414 34.3433 28.8088 34.3433H26.0792C25.6562 34.3433 25.3133 34.0003 25.3133 33.5773C25.3133 33.1543 25.6562 32.8113 26.0792 32.8113H28.9671C29.5961 32.8113 30.09 32.3212 30.09 31.5301C30.09 31.1903 29.955 30.8645 29.7147 30.6242C29.4745 30.3839 29.1486 30.2489 28.8088 30.2489H23.3601C23.3528 30.249 23.3454 30.249 23.338 30.2489H19.2554C18.8324 30.2489 18.4894 29.906 18.4894 29.483C18.4894 29.06 18.8324 28.717 19.2554 28.717H21.0517L19.2434 27.3608C18.8769 27.0859 18.4258 26.9477 17.9683 26.9703C17.5107 26.9929 17.0754 27.1748 16.7378 27.4845C16.7223 27.4987 16.7061 27.5124 16.6894 27.5253L10.2128 32.5464V45.0943H26.8585C27.4637 45.0943 27.8471 44.9 28.0761 44.6746C28.3115 44.443 28.4324 44.1316 28.4324 43.8131C28.4324 43.4946 28.3115 43.1833 28.0761 42.9516ZM4.08511 31.6604C4.08511 31.0964 4.54235 30.6392 5.10638 30.6392H7.65082C8.21486 30.6392 8.6721 31.0964 8.6721 31.6604V45.4156C8.6721 45.9796 8.21486 46.4368 7.65082 46.4368H5.10638C4.54235 46.4368 4.08511 45.9796 4.08511 45.4156V31.6604Z" fill="currentColor"/>
<path d="M27.5925 11.4099V13.213C27.5925 14.0766 27.5106 14.814 27.3468 15.4251C27.1879 16.0312 26.9566 16.5236 26.6531 16.9024C26.3496 17.2812 25.9858 17.5589 25.5619 17.7357C25.1427 17.9125 24.673 18.0009 24.1527 18.0009C23.7384 18.0009 23.353 17.9453 22.9964 17.8342C22.6447 17.7231 22.3268 17.5488 22.0425 17.3115C21.7583 17.0741 21.515 16.7685 21.3126 16.3948C21.1151 16.016 20.961 15.564 20.8501 15.0387C20.7442 14.5135 20.6912 13.9049 20.6912 13.213V11.4099C20.6912 10.5413 20.7731 9.80894 20.9369 9.21298C21.1007 8.61197 21.3343 8.12459 21.6378 7.75085C21.9414 7.37207 22.3027 7.09681 22.7218 6.9251C23.1458 6.75338 23.6179 6.66752 24.1382 6.66752C24.5574 6.66752 24.9428 6.72308 25.2945 6.83419C25.651 6.94025 25.969 7.10944 26.2484 7.34176C26.5326 7.57409 26.7735 7.87712 26.9711 8.25085C27.1734 8.61954 27.3276 9.06651 27.4336 9.59176C27.5395 10.112 27.5925 10.718 27.5925 11.4099ZM25.8509 13.4706V11.1372C25.8509 10.6978 25.8268 10.3115 25.7787 9.97813C25.7305 9.63974 25.6582 9.35439 25.5619 9.12207C25.4703 8.88469 25.3547 8.69277 25.215 8.54631C25.0753 8.39479 24.9163 8.28621 24.738 8.22055C24.5598 8.14984 24.3599 8.11449 24.1382 8.11449C23.8684 8.11449 23.6276 8.17005 23.4156 8.28116C23.2036 8.38722 23.0253 8.55894 22.8808 8.79631C22.7363 9.03368 22.6255 9.34681 22.5484 9.7357C22.4761 10.1195 22.44 10.5867 22.44 11.1372V13.4706C22.44 13.915 22.4641 14.3064 22.5123 14.6448C22.5604 14.9832 22.6327 15.2736 22.7291 15.516C22.8254 15.7534 22.941 15.9504 23.0759 16.1069C23.2156 16.2584 23.3746 16.3695 23.5529 16.4403C23.736 16.511 23.9359 16.5463 24.1527 16.5463C24.4273 16.5463 24.6706 16.4908 24.8826 16.3796C25.0946 16.2685 25.2728 16.0918 25.4173 15.8493C25.5619 15.6019 25.6703 15.2812 25.7425 14.8872C25.8148 14.4933 25.8509 14.0211 25.8509 13.4706Z" fill="currentColor"/>
<path fill-rule="evenodd" clip-rule="evenodd" d="M18.979 13.9175V15.3721H17.6638V17.8493H15.9222V15.3721H11.3911L11.3333 14.2736L15.8716 6.81904H17.6638V13.9175H18.979ZM13.1472 13.9175L15.9061 9.28127V13.9175H13.1472Z" fill="currentColor"/>
<path fill-rule="evenodd" clip-rule="evenodd" d="M36.6667 14.0236V15.4781H35.3514V17.9554H33.6098V15.4781H29.0788L29.021 14.3796L33.5592 6.9251H35.3514V14.0236H36.6667ZM30.8348 14.0236L33.5938 9.38733V14.0236H30.8348Z" fill="currentColor"/>
</svg>
