<svg width="48" height="48" viewBox="0 0 48 48" fill="none" xmlns="http://www.w3.org/2000/svg">
<path fill-rule="evenodd" clip-rule="evenodd" d="M3.57447 0.000854492H44.4255C46.3997 0.000854492 48 1.6012 48 3.57532V19.9157C48 21.8899 46.3997 23.4902 44.4255 23.4902H26.0426V28.717H28.8088C29.5549 28.717 30.2704 29.0134 30.798 29.541C31.3255 30.0685 31.6219 30.7841 31.6219 31.5301C31.6219 32.2674 31.3648 32.9732 30.902 33.4934C30.9714 33.5496 31.0378 33.6089 31.101 33.6711C31.6456 34.2071 31.9146 34.9194 31.9146 35.6245C31.9146 36.3296 31.6456 37.0418 31.101 37.5778C30.9453 37.731 30.7708 37.8663 30.579 37.9816C30.9914 38.4853 31.1954 39.1048 31.1954 39.7188C31.1954 40.4239 30.9263 41.1361 30.3818 41.6721C30.1309 41.919 29.8312 42.1194 29.4889 42.2643C29.8068 42.73 29.9643 43.2737 29.9643 43.8131C29.9643 44.5182 29.6953 45.2304 29.1507 45.7664C28.5997 46.3087 27.8132 46.6262 26.8585 46.6262H9.89928C9.46797 47.4256 8.62283 47.9688 7.65082 47.9688H5.10638C3.69629 47.9688 2.55319 46.8257 2.55319 45.4156V31.6604C2.55319 30.2503 3.69629 29.1072 5.10638 29.1072H7.65082C8.73855 29.1072 9.66742 29.7874 10.0353 30.7457L15.7273 26.3329C16.3247 25.7954 17.0894 25.4799 17.8927 25.4403C18.7073 25.4001 19.5102 25.6459 20.1626 26.1353L21.9574 27.4814V23.4902H3.57447C1.60035 23.4902 0 21.8899 0 19.9157V3.57532C0 1.6012 1.60034 0.000854492 3.57447 0.000854492ZM3.57447 1.53277C2.4464 1.53277 1.53192 2.44725 1.53192 3.57532V19.9157C1.53192 21.0438 2.4464 21.9583 3.57447 21.9583H44.4255C45.5536 21.9583 46.4681 21.0438 46.4681 19.9157V3.57532C46.4681 2.44725 45.5536 1.53277 44.4255 1.53277H3.57447ZM28.0761 42.9516C27.8471 42.7262 27.4637 42.5319 26.8585 42.5319H26.0792C25.6562 42.5319 25.3132 42.189 25.3132 41.766C25.3132 41.5545 25.399 41.363 25.5376 41.2244C25.5722 41.1897 25.6102 41.1584 25.6509 41.1308C25.7732 41.0482 25.9206 41 26.0792 41H28.0896C28.6948 41 29.0782 40.8057 29.3072 40.5803C29.5426 40.3486 29.6635 40.0373 29.6635 39.7188C29.6635 39.4003 29.5426 39.0889 29.3072 38.8572C29.0782 38.6319 28.6948 38.4376 28.0896 38.4376H26.0792C25.6562 38.4376 25.3133 38.0946 25.3133 37.6716C25.3133 37.2486 25.6562 36.9057 26.0792 36.9057H28.8088C29.414 36.9057 29.7974 36.7114 30.0264 36.486C30.2618 36.2543 30.3827 35.9429 30.3827 35.6245C30.3827 35.306 30.2618 34.9946 30.0264 34.7629C29.7974 34.5375 29.414 34.3433 28.8088 34.3433H26.0792C25.6562 34.3433 25.3133 34.0003 25.3133 33.5773C25.3133 33.1543 25.6562 32.8113 26.0792 32.8113H28.9671C29.5961 32.8113 30.09 32.3212 30.09 31.5301C30.09 31.1903 29.955 30.8645 29.7147 30.6242C29.4745 30.3839 29.1486 30.2489 28.8088 30.2489H23.3601C23.3528 30.249 23.3454 30.249 23.338 30.2489H19.2554C18.8324 30.2489 18.4894 29.906 18.4894 29.483C18.4894 29.06 18.8324 28.717 19.2554 28.717H21.0517L19.2434 27.3608C18.8769 27.0859 18.4258 26.9477 17.9683 26.9703C17.5107 26.9929 17.0754 27.1748 16.7378 27.4845C16.7223 27.4987 16.7061 27.5124 16.6894 27.5253L10.2128 32.5464V45.0943H26.8585C27.4637 45.0943 27.8471 44.9 28.0761 44.6746C28.3115 44.443 28.4324 44.1316 28.4324 43.8131C28.4324 43.4946 28.3115 43.1833 28.0761 42.9516ZM4.08511 31.6604C4.08511 31.0964 4.54235 30.6392 5.10638 30.6392H7.65082C8.21486 30.6392 8.6721 31.0964 8.6721 31.6604V45.4156C8.6721 45.9796 8.21486 46.4368 7.65082 46.4368H5.10638C4.54235 46.4368 4.08511 45.9796 4.08511 45.4156V31.6604Z" fill="currentColor"/>
<path d="M12.4588 12.7206L11.0008 12.3645L11.6007 6.81904H17.5618V8.36449H13.1195L12.8157 11.069C12.9878 10.968 13.2258 10.8695 13.5295 10.7736C13.8333 10.6726 14.1801 10.6221 14.5699 10.6221C15.0913 10.6221 15.5571 10.7079 15.9671 10.8796C16.3823 11.0463 16.7341 11.2913 17.0227 11.6145C17.3113 11.9327 17.5315 12.3216 17.6833 12.7812C17.8352 13.2357 17.9112 13.7483 17.9112 14.319C17.9112 14.8291 17.8352 15.3064 17.6833 15.7509C17.5365 16.1953 17.3138 16.5867 17.0151 16.9251C16.7164 17.2635 16.3392 17.5286 15.8836 17.7206C15.4331 17.9074 14.899 18.0009 14.2813 18.0009C13.8206 18.0009 13.3777 17.9352 12.9524 17.8039C12.5322 17.6675 12.1551 17.468 11.8209 17.2054C11.4868 16.9377 11.2185 16.6094 11.016 16.2206C10.8135 15.8266 10.697 15.3746 10.6667 14.8645H12.4588C12.5044 15.2231 12.6031 15.5286 12.755 15.7812C12.9119 16.0286 13.1195 16.218 13.3777 16.3493C13.6358 16.4807 13.9345 16.5463 14.2737 16.5463C14.5825 16.5463 14.8483 16.4933 15.0711 16.3872C15.2938 16.2761 15.4786 16.1195 15.6254 15.9175C15.7773 15.7105 15.8887 15.468 15.9596 15.1902C16.0355 14.9125 16.0735 14.6044 16.0735 14.266C16.0735 13.9428 16.0304 13.6473 15.9444 13.3796C15.8634 13.112 15.7393 12.8796 15.5723 12.6827C15.4103 12.4857 15.2052 12.3342 14.9572 12.2281C14.7091 12.117 14.4231 12.0615 14.0991 12.0615C13.6637 12.0615 13.3296 12.1246 13.0967 12.2509C12.8689 12.3771 12.6562 12.5337 12.4588 12.7206Z" fill="currentColor"/>
<path d="M27.2054 11.4099V13.213C27.2054 14.0766 27.1193 14.814 26.9472 15.4251C26.7801 16.0312 26.5371 16.5236 26.2182 16.9024C25.8992 17.2812 25.517 17.5589 25.0715 17.7357C24.6311 17.9125 24.1375 18.0009 23.5907 18.0009C23.1554 18.0009 22.7503 17.9453 22.3757 17.8342C22.0062 17.7231 21.672 17.5488 21.3733 17.3115C21.0746 17.0741 20.819 16.7685 20.6064 16.3948C20.3988 16.016 20.2368 15.564 20.1204 15.0387C20.009 14.5135 19.9533 13.9049 19.9533 13.213V11.4099C19.9533 10.5413 20.0394 9.80894 20.2115 9.21298C20.3836 8.61197 20.6291 8.12459 20.9481 7.75085C21.267 7.37207 21.6467 7.09681 22.0872 6.9251C22.5327 6.75338 23.0288 6.66752 23.5755 6.66752C24.016 6.66752 24.421 6.72308 24.7906 6.83419C25.1652 6.94025 25.4993 7.10944 25.7929 7.34176C26.0916 7.57409 26.3448 7.87712 26.5523 8.25085C26.7649 8.61954 26.9269 9.06651 27.0383 9.59176C27.1497 10.112 27.2054 10.718 27.2054 11.4099ZM25.3753 13.4706V11.1372C25.3753 10.6978 25.35 10.3115 25.2993 9.97813C25.2487 9.63974 25.1728 9.35439 25.0715 9.12207C24.9753 8.88469 24.8538 8.69277 24.707 8.54631C24.5602 8.39479 24.3931 8.28621 24.2058 8.22055C24.0185 8.14984 23.8084 8.11449 23.5755 8.11449C23.292 8.11449 23.0389 8.17005 22.8162 8.28116C22.5934 8.38722 22.4061 8.55894 22.2542 8.79631C22.1023 9.03368 21.9859 9.34681 21.9049 9.7357C21.829 10.1195 21.791 10.5867 21.791 11.1372V13.4706C21.791 13.915 21.8163 14.3064 21.8669 14.6448C21.9176 14.9832 21.9935 15.2736 22.0947 15.516C22.196 15.7534 22.3175 15.9504 22.4593 16.1069C22.6061 16.2584 22.7731 16.3695 22.9604 16.4403C23.1528 16.511 23.3629 16.5463 23.5907 16.5463C23.8793 16.5463 24.135 16.4908 24.3577 16.3796C24.5805 16.2685 24.7678 16.0918 24.9196 15.8493C25.0715 15.6019 25.1854 15.2812 25.2614 14.8872C25.3373 14.4933 25.3753 14.0211 25.3753 13.4706Z" fill="currentColor"/>
<path d="M36.6667 11.4099V13.213C36.6667 14.0766 36.5806 14.814 36.4085 15.4251C36.2414 16.0312 35.9984 16.5236 35.6795 16.9024C35.3605 17.2812 34.9783 17.5589 34.5328 17.7357C34.0924 17.9125 33.5988 18.0009 33.052 18.0009C32.6166 18.0009 32.2116 17.9453 31.837 17.8342C31.4674 17.7231 31.1333 17.5488 30.8346 17.3115C30.5359 17.0741 30.2803 16.7685 30.0676 16.3948C29.8601 16.016 29.6981 15.564 29.5816 15.0387C29.4703 14.5135 29.4146 13.9049 29.4146 13.213V11.4099C29.4146 10.5413 29.5006 9.80894 29.6728 9.21298C29.8449 8.61197 30.0904 8.12459 30.4094 7.75085C30.7283 7.37207 31.108 7.09681 31.5484 6.9251C31.9939 6.75338 32.4901 6.66752 33.0368 6.66752C33.4773 6.66752 33.8823 6.72308 34.2518 6.83419C34.6265 6.94025 34.9606 7.10944 35.2542 7.34176C35.5529 7.57409 35.806 7.87712 36.0136 8.25085C36.2262 8.61954 36.3882 9.06651 36.4996 9.59176C36.611 10.112 36.6667 10.718 36.6667 11.4099ZM34.8366 13.4706V11.1372C34.8366 10.6978 34.8112 10.3115 34.7606 9.97813C34.71 9.63974 34.6341 9.35439 34.5328 9.12207C34.4366 8.88469 34.3151 8.69277 34.1683 8.54631C34.0215 8.39479 33.8544 8.28621 33.6671 8.22055C33.4798 8.14984 33.2697 8.11449 33.0368 8.11449C32.7533 8.11449 32.5002 8.17005 32.2774 8.28116C32.0547 8.38722 31.8674 8.55894 31.7155 8.79631C31.5636 9.03368 31.4472 9.34681 31.3662 9.7357C31.2902 10.1195 31.2523 10.5867 31.2523 11.1372V13.4706C31.2523 13.915 31.2776 14.3064 31.3282 14.6448C31.3788 14.9832 31.4548 15.2736 31.556 15.516C31.6573 15.7534 31.7788 15.9504 31.9205 16.1069C32.0673 16.2584 32.2344 16.3695 32.4217 16.4403C32.6141 16.511 32.8242 16.5463 33.052 16.5463C33.3406 16.5463 33.5962 16.4908 33.819 16.3796C34.0417 16.2685 34.2291 16.0918 34.3809 15.8493C34.5328 15.6019 34.6467 15.2812 34.7227 14.8872C34.7986 14.4933 34.8366 14.0211 34.8366 13.4706Z" fill="currentColor"/>
</svg>
