<svg width="48" height="48" viewBox="0 0 48 48" fill="none" xmlns="http://www.w3.org/2000/svg">
<g clip-path="url(#clip0_4186_9921)">
<path fill-rule="evenodd" clip-rule="evenodd" d="M31.9152 8.23581C33.518 6.63304 36.1166 6.63303 37.7194 8.23581C39.2534 9.76987 39.3192 12.2162 37.9167 13.8285C38.8339 13.9153 39.7276 14.3099 40.43 15.0122C42.0327 16.615 42.0327 19.2136 40.43 20.8164L38.6072 22.6391C39.52 22.7284 40.4085 23.1225 41.1076 23.8216C42.7104 25.4244 42.7104 28.023 41.1076 29.6258L28.2025 42.5308C21.7509 48.9824 11.2908 48.9824 4.83918 42.5308C-0.0791974 37.6124 -1.39007 30.1402 1.56043 23.8413L7.38006 11.4173C8.33816 9.36341 10.7801 8.47435 12.8342 9.43221C14.8885 10.3901 15.7773 12.832 14.8193 14.8863L13.982 16.682L24.4611 6.20288C26.0639 4.6001 28.6625 4.6001 30.2653 6.20288C30.9644 6.90196 31.3586 7.7905 31.4478 8.70323L31.9152 8.23581ZM29.2046 10.9464C30.2216 9.92939 30.2216 8.28053 29.2046 7.26354C28.1877 6.24655 26.5388 6.24655 25.5218 7.26354L12.5658 20.2195L13.4502 21.1039C16.8673 24.521 16.8673 30.0612 13.4502 33.4782C13.1573 33.7711 12.6824 33.7711 12.3895 33.4782C12.0966 33.1853 12.0966 32.7105 12.3895 32.4176C15.2208 29.5863 15.2208 24.9958 12.3895 22.1645L10.9985 20.7735C10.7595 20.5552 10.685 20.2031 10.8249 19.903L13.4599 14.2524C14.0677 12.9489 13.5037 11.3995 12.2003 10.7917C10.8968 10.1838 9.34735 10.7478 8.73952 12.0513L8.73897 12.0525L2.91879 24.4776C0.236183 30.2045 1.42804 36.9983 5.89984 41.4701C11.7657 47.3359 21.2761 47.3359 27.1419 41.4701L40.0469 28.5651C41.0639 27.5481 41.0639 25.8993 40.0469 24.8823C39.0299 23.8653 37.3811 23.8653 36.3641 24.8823C36.3448 24.9016 36.3246 24.9197 36.3038 24.9364L27.1539 34.0863C26.861 34.3792 26.3861 34.3792 26.0933 34.0863C25.8004 33.7934 25.8004 33.3186 26.0933 33.0257L35.816 23.303L35.819 23.306L39.3693 19.7557C40.3863 18.7388 40.3863 17.0899 39.3693 16.0729C38.3871 15.0907 36.8156 15.0571 35.7931 15.972L24.5377 27.2274C24.2448 27.5203 23.7699 27.5203 23.477 27.2274C23.1841 26.9345 23.1841 26.4597 23.477 26.1668L34.5731 15.0707C34.5895 15.0505 34.607 15.031 34.6258 15.0122L36.6587 12.9793C37.6757 11.9623 37.6757 10.3135 36.6587 9.29647C35.6417 8.27948 33.9929 8.27948 32.9759 9.29647L31.6353 10.637L31.6369 10.6387L20.5 21.7756C20.2071 22.0685 19.7322 22.0685 19.4394 21.7756C19.1465 21.4827 19.1465 21.0078 19.4394 20.7149L29.1644 10.9899C29.1771 10.975 29.1905 10.9605 29.2046 10.9464Z" fill="currentColor"/>
<path fill-rule="evenodd" clip-rule="evenodd" d="M23.2502 4.10247C23.2673 4.51633 22.944 4.86094 22.5353 4.92836C20.5838 5.25032 18.8889 6.50243 18.0173 8.31227C17.8376 8.68546 17.3894 8.8423 17.0162 8.66257C16.643 8.48285 16.4862 8.03462 16.6659 7.66143C17.778 5.35214 19.9667 3.77218 22.4726 3.42065C22.8828 3.36311 23.2332 3.68861 23.2502 4.10247Z" fill="currentColor"/>
<path fill-rule="evenodd" clip-rule="evenodd" d="M22.8782 0.962267C22.8621 1.37617 22.5128 1.69491 22.0992 1.71873C19.0835 1.89243 16.4115 3.81105 15.3056 6.6709C15.1562 7.05723 14.722 7.24931 14.3356 7.09992C13.9493 6.95053 13.7572 6.51624 13.9066 6.1299C15.2438 2.67193 18.5 0.367297 22.1573 0.213994C22.5711 0.196647 22.8942 0.548363 22.8782 0.962267Z" fill="currentColor"/>
<path fill-rule="evenodd" clip-rule="evenodd" d="M39.0001 35.9974C38.9146 35.5921 39.1762 35.1986 39.5681 35.0643C41.4392 34.4231 42.9028 32.9072 43.4621 30.9778C43.5775 30.58 43.9935 30.351 44.3913 30.4663C44.7891 30.5816 45.0182 30.9976 44.9028 31.3955C44.1892 33.8573 42.293 35.7784 39.88 36.5407C39.4851 36.6655 39.0856 36.4027 39.0001 35.9974Z" fill="currentColor"/>
<path fill-rule="evenodd" clip-rule="evenodd" d="M39.8877 39.0326C39.8348 38.6217 40.1265 38.2495 40.5303 38.1574C43.4754 37.4858 45.7922 35.1505 46.4083 32.1469C46.4915 31.7411 46.8879 31.4796 47.2937 31.5629C47.6995 31.6461 47.9609 32.0425 47.8777 32.4483C47.1327 36.0802 44.3039 38.893 40.7227 39.6509C40.3174 39.7366 39.9405 39.4434 39.8877 39.0326Z" fill="currentColor"/>
</g>
<defs>
<clipPath id="clip0_4186_9921">
<rect width="48" height="48" fill="white" transform="translate(0 0.000854492)"/>
</clipPath>
</defs>
</svg>
