<svg width="48" height="48" viewBox="0 0 48 48" fill="none" xmlns="http://www.w3.org/2000/svg">
<path d="M22 30.0008V25.0008H17C16.4477 25.0008 16 24.5531 16 24.0008V22.0008C16 21.4485 16.4477 21.0008 17 21.0008H22V16.0008C22 15.4485 22.4477 15.0008 23 15.0008H25C25.5523 15.0008 26 15.4485 26 16.0008V21.0008H31C31.5523 21.0008 32 21.4485 32 22.0008V24.0008C32 24.5531 31.5523 25.0008 31 25.0008H26V30.0008C26 30.5531 25.5523 31.0008 25 31.0008H23C22.4477 31.0008 22 30.5531 22 30.0008Z" fill="currentColor"/>
<path fill-rule="evenodd" clip-rule="evenodd" d="M24.7473 42.6782C24.2681 42.8949 23.7319 42.8949 23.2528 42.678C19.4536 40.9587 8 34.6668 8 21.0713V13.514C8 12.6225 8.59113 11.8418 9.4418 11.5749C11.7547 10.8493 14.0245 9.99142 16.24 9.00528C18.5439 8.00833 20.7872 6.87735 22.9584 5.61824C23.6023 5.24488 24.3977 5.24488 25.0416 5.61824C27.2128 6.87735 29.4561 8.00833 31.76 9.00528C33.9755 9.99142 36.2453 10.8493 38.5582 11.5749C39.4089 11.8418 40 12.6225 40 13.514V21.0713C40 34.6791 28.5465 40.9604 24.7473 42.6782ZM31.9627 36.048C35.4146 32.7433 38.5 27.9035 38.5 21.0713V13.497C38.5 13.2773 38.3566 13.0836 38.147 13.0179C35.7687 12.2735 33.4349 11.3923 31.1571 10.3788C28.7893 9.35389 26.4841 8.19061 24.2534 6.89511C24.0967 6.80415 23.9033 6.80415 23.7466 6.89511C21.5159 8.19062 19.2106 9.3539 16.8428 10.3788C14.5651 11.3924 12.2313 12.2735 9.85304 13.0179C9.64342 13.0836 9.5 13.2773 9.5 13.497V21.0713C9.5 27.8965 12.5852 32.7365 16.0376 36.0433C18.9645 38.8468 22.1269 40.5152 23.7982 41.2782C23.9271 41.3371 24.0732 41.3371 24.2021 41.2783C25.8739 40.5159 29.036 38.8499 31.9627 36.048Z" fill="currentColor"/>
<path fill-rule="evenodd" clip-rule="evenodd" d="M24.7602 47.6719C24.2758 47.8897 23.7242 47.8897 23.2399 47.6718C18.678 45.6188 4 37.6886 4 20.3002V10.3536C4 9.46412 4.58823 8.68406 5.43742 8.4194C8.45474 7.47902 11.4142 6.3569 14.3 5.0589C17.2696 3.76035 20.1587 2.28178 22.9515 0.631381C23.598 0.249337 24.402 0.249338 25.0485 0.631382C27.8413 2.28178 30.7304 3.76035 33.7 5.0589C36.5858 6.3569 39.5453 7.47902 42.5626 8.4194C43.4118 8.68406 44 9.46412 44 10.3536V20.3002C44 37.7043 29.3222 45.6207 24.7602 47.6719ZM34.207 39.5088C38.576 35.282 42.5 29.0699 42.5 20.3002V10.3398C42.5 10.1201 42.3565 9.92623 42.1466 9.86092C39.0637 8.90143 36.04 7.75581 33.0918 6.4301C30.0587 5.10344 27.1082 3.59247 24.2564 1.90563C24.0983 1.8121 23.9017 1.8121 23.7436 1.90563C20.8918 3.59248 17.9413 5.10345 14.9081 6.43011C11.96 7.75582 8.93632 8.90143 5.85337 9.86092C5.64354 9.92623 5.5 10.1201 5.5 10.3398V20.3002C5.5 29.0612 9.42376 35.2734 13.7932 39.5027C17.6123 43.1992 21.7449 45.3487 23.7982 46.2781C23.9268 46.3363 24.0735 46.3363 24.2021 46.2781C26.256 45.3494 30.3883 43.2032 34.207 39.5088Z" fill="currentColor"/>
</svg>
