<svg width="48" height="48" viewBox="0 0 48 48" fill="none" xmlns="http://www.w3.org/2000/svg">
<path d="M3.75 24.0009C3.75 12.2638 13.2506 2.75085 24.9679 2.75085C30.9495 2.75085 36.3521 5.22879 40.2101 9.21791C40.5287 9.54726 40.8366 9.88689 41.1335 10.2363L38.8893 11.4896C38.5532 11.6773 38.5463 12.1583 38.8769 12.3555L44.8268 15.905C45.1573 16.1022 45.5774 15.8676 45.5829 15.4827L45.6819 8.55525C45.6874 8.17039 45.2742 7.9239 44.9381 8.11156L42.4668 9.49172C42.0909 9.03763 41.6978 8.59842 41.2884 8.17511C37.1596 3.90613 31.3729 1.25085 24.9679 1.25085C12.4201 1.25085 2.25 11.4374 2.25 24.0009C2.25 36.5643 12.4201 46.7509 24.9679 46.7509C34.3618 46.7509 42.4217 41.0415 45.8806 32.9029C46.0426 32.5217 45.8649 32.0813 45.4837 31.9193C45.1025 31.7573 44.6621 31.935 44.5001 32.3162C41.2678 39.9216 33.7381 45.2509 24.9679 45.2509C13.2506 45.2509 3.75 35.7379 3.75 24.0009Z" fill="currentColor"/>
<path d="M25.75 8.00085C25.75 7.58664 25.4142 7.25085 25 7.25085C24.5858 7.25085 24.25 7.58664 24.25 8.00085V25.3268L31.9883 32.5491C32.2911 32.8318 32.7657 32.8154 33.0483 32.5126C33.3309 32.2098 33.3146 31.7352 33.0117 31.4526L25.75 24.6749V8.00085Z" fill="currentColor"/>
</svg>
