<svg width="48" height="48" viewBox="0 0 48 48" fill="none" xmlns="http://www.w3.org/2000/svg">
<path d="M39.75 0.75C39.75 0.335786 39.4142 0 39 0C38.5858 0 38.25 0.335786 38.25 0.75V2.25C38.25 2.66421 38.5858 3 39 3C39.4142 3 39.75 2.66421 39.75 2.25V0.75Z" fill="currentColor"/>
<path d="M45.3641 3.69669C45.657 3.40379 45.657 2.92892 45.3641 2.63603C45.0712 2.34313 44.5963 2.34313 44.3034 2.63603L43.2428 3.69669C42.9499 3.98958 42.9499 4.46445 43.2428 4.75735C43.5357 5.05024 44.0105 5.05024 44.3034 4.75735L45.3641 3.69669Z" fill="currentColor"/>
<path d="M32.636 2.63604C32.9289 2.34315 33.4038 2.34315 33.6967 2.63604L34.7574 3.6967C35.0503 3.98959 35.0503 4.46447 34.7574 4.75736C34.4645 5.05025 33.9896 5.05025 33.6967 4.75736L32.636 3.6967C32.3431 3.40381 32.3431 2.92893 32.636 2.63604Z" fill="currentColor"/>
<path d="M45.75 8.25C45.3358 8.25 45 8.58578 45 9C45 9.41421 45.3358 9.75 45.75 9.75H47.25C47.6642 9.75 48 9.41421 48 9C48 8.58578 47.6642 8.25 47.25 8.25H45.75Z" fill="currentColor"/>
<path d="M30 9C30 8.58579 30.3358 8.25 30.75 8.25H32.25C32.6642 8.25 33 8.58579 33 9C33 9.41421 32.6642 9.75 32.25 9.75H30.75C30.3358 9.75 30 9.41421 30 9Z" fill="currentColor"/>
<path d="M34.7575 14.3033C35.0504 14.0104 35.0504 13.5355 34.7575 13.2426C34.4646 12.9497 33.9897 12.9497 33.6968 13.2426L32.6362 14.3033C32.3433 14.5962 32.3433 15.0711 32.6362 15.3639C32.9291 15.6568 33.4039 15.6568 33.6968 15.3639L34.7575 14.3033Z" fill="currentColor"/>
<path d="M43.2426 13.2426C43.5355 12.9497 44.0104 12.9497 44.3033 13.2426L45.364 14.3033C45.6569 14.5962 45.6569 15.0711 45.364 15.364C45.0711 15.6569 44.5962 15.6569 44.3033 15.364L43.2426 14.3033C42.9497 14.0104 42.9497 13.5355 43.2426 13.2426Z" fill="currentColor"/>
<path d="M39.75 15.75C39.75 15.3358 39.4142 15 39 15C38.5858 15 38.25 15.3358 38.25 15.75V17.25C38.25 17.6642 38.5858 18 39 18C39.4142 18 39.75 17.6642 39.75 17.25V15.75Z" fill="currentColor"/>
<path fill-rule="evenodd" clip-rule="evenodd" d="M39 14C41.7614 14 44 11.7614 44 9C44 6.23858 41.7614 4 39 4C36.2386 4 34 6.23858 34 9C34 11.7614 36.2386 14 39 14ZM39 12.5C40.933 12.5 42.5 10.933 42.5 9C42.5 7.067 40.933 5.5 39 5.5C37.067 5.5 35.5 7.067 35.5 9C35.5 10.933 37.067 12.5 39 12.5Z" fill="currentColor"/>
<path fill-rule="evenodd" clip-rule="evenodd" d="M15.8378 17.8332C15.5995 12.6967 10.9791 8.83729 5.90363 9.48487L8.06965 12.0119C8.33921 12.3264 8.30279 12.7999 7.9883 13.0694C7.67381 13.339 7.20033 13.3026 6.93076 12.9881L3.94081 9.4998C3.86505 9.41518 3.80743 9.31201 3.77589 9.19485C3.6682 8.79488 3.90515 8.38334 4.30512 8.27565C10.6804 6.5592 16.8634 11.1489 17.3206 17.4931C21.8908 11.8587 31.1594 13.5785 33.221 20.794C33.3347 21.1923 33.1041 21.6074 32.7058 21.7212C32.5701 21.76 32.4324 21.7588 32.3053 21.7245L30.3179 21.2277C29.9161 21.1272 29.6717 20.72 29.7722 20.3182C29.8727 19.9163 30.2799 19.672 30.6817 19.7725L31.2926 19.9252C28.8176 14.7931 21.4581 14.0211 18.0736 18.9922C18.8662 18.7067 19.8588 18.4182 20.9538 18.258C23.6704 17.8604 27.1242 18.2491 29.5998 21.5501C30.6017 22.886 31.0636 24.1688 31.1561 25.3565C31.2484 26.5406 30.9696 27.5793 30.5686 28.4258C30.1694 29.2687 29.645 29.9308 29.2257 30.3795C29.0149 30.6051 28.8274 30.7803 28.6901 30.901C28.6214 30.9614 28.565 31.0084 28.5242 31.0415L28.5034 31.0582L28.4751 31.0807L28.4717 31.0833C28.3922 31.1476 28.2982 31.1967 28.1931 31.2248C27.7928 31.3315 27.3819 31.0935 27.2751 30.6933C26.1081 26.3168 22.6828 22.9027 18.3024 21.75L16.5575 21.2908C13.0066 22.8403 10.1876 25.7026 8.69394 29.2842C8.62888 29.4433 8.50907 29.581 8.34441 29.6662C7.9765 29.8565 7.52398 29.7125 7.33368 29.3446C4.54902 23.9609 9.38882 18.0114 14.9953 19.2195L14.206 18.1461C10.7853 13.4939 3.69268 14.8527 1.99985 20.0559L6.36595 19.2621C6.77349 19.188 7.16392 19.4583 7.23802 19.8658C7.31212 20.2734 7.04181 20.6638 6.63428 20.7379L1.15145 21.7348C1.06347 21.7529 0.97073 21.7555 0.876818 21.7398C0.46824 21.6717 0.192225 21.2853 0.260322 20.8767C1.48966 13.5007 10.9847 11.233 15.4145 17.2575L15.8378 17.8332ZM21.171 19.7422C23.5794 19.3897 26.3756 19.751 28.3998 22.45C29.2525 23.5871 29.5929 24.6033 29.6607 25.473C29.7287 26.3463 29.5256 27.1236 29.213 27.7838C28.962 28.3136 28.6432 28.7617 28.3478 29.1103C26.7877 24.828 23.2375 21.5364 18.7942 20.3288C19.475 20.0952 20.2899 19.8711 21.171 19.7422ZM14.4828 20.649C11.808 22.1489 9.60164 24.3648 8.11309 27.0469C7.45572 23.3988 10.7155 19.9862 14.4828 20.649Z" fill="currentColor"/>
<path d="M17.2473 23.435C17.2125 23.035 16.8688 22.7333 16.4676 22.7507C16.0664 22.7681 15.7501 23.0984 15.7501 23.5C15.7501 26.5559 14.6266 30.532 13.1748 34.319C12.8969 35.044 12.6083 35.7587 12.3151 36.455C8.71695 35.4966 4.98188 35 1.19784 35H0.75C0.335786 35 0 35.3358 0 35.75C0 36.1642 0.335786 36.5 0.75 36.5H1.19784C4.77468 36.5 8.30619 36.9597 11.7127 37.8475C10.6704 40.194 9.62459 42.2428 8.84575 43.6336C8.64337 43.995 8.77228 44.452 9.13368 44.6544C9.49509 44.8568 9.95213 44.7279 10.1545 44.3665C11.3369 42.2551 13.1028 38.6974 14.5754 34.856C14.9772 33.8079 15.3598 32.732 15.7036 31.6534C15.1709 37.6486 13.7106 42.8407 12.7993 45.233C12.6518 45.6201 12.8461 46.0534 13.2331 46.2009C13.6202 46.3483 14.0535 46.1541 14.201 45.767C14.7337 44.3686 15.4411 42.0734 16.0558 39.237C21.0859 41.1553 25.7417 44.0464 29.7367 47.7968C30.0387 48.0803 30.5133 48.0653 30.7968 47.7633C31.0803 47.4613 31.0653 46.9867 30.7633 46.7032C26.5636 42.7606 21.6589 39.7346 16.3594 37.7482C17.1557 33.5839 17.6877 28.499 17.2473 23.435Z" fill="currentColor"/>
</svg>
