<svg width="48" height="48" viewBox="0 0 48 48" fill="none" xmlns="http://www.w3.org/2000/svg">
<path d="M18.7161 15.8032C17.4549 15.0401 17.9663 13.0009 19.4188 13.0009H28.5812C30.0337 13.0009 30.5451 15.0401 29.2839 15.8032L24.7027 18.5756C24.2673 18.8391 23.7327 18.8391 23.2973 18.5756L18.7161 15.8032Z" fill="currentColor"/>
<path fill-rule="evenodd" clip-rule="evenodd" d="M6 0.750854C6 0.336641 6.33579 0.000854492 6.75 0.000854492H41.25C41.6642 0.000854492 42 0.336641 42 0.750854C42 1.16507 41.6642 1.50085 41.25 1.50085H40V11.7343C40 13.7709 38.9669 15.6685 37.2562 16.7738L28.0212 22.7411C27.1067 23.332 27.1067 24.6699 28.0212 25.2609L37.2562 31.2281C38.9669 32.3334 40 34.231 40 36.2676V46.5009H41.25C41.6642 46.5009 42 46.8366 42 47.2509C42 47.6651 41.6642 48.0009 41.25 48.0009H6.75C6.33579 48.0009 6 47.6651 6 47.2509C6 46.8366 6.33579 46.5009 6.75 46.5009H8V36.2676C8 34.231 9.03308 32.3334 10.7437 31.2281L19.9788 25.2609C20.8933 24.6699 20.8933 23.332 19.9788 22.7411L10.7437 16.7738C9.03308 15.6685 8 13.7709 8 11.7343V1.50085H6.75C6.33579 1.50085 6 1.16507 6 0.750854ZM13 46.5009H9.5V36.2676C9.5 34.7401 10.2749 33.3169 11.5578 32.488L20.7929 26.5207C22.6219 25.3388 22.6218 22.6631 20.7929 21.4812L11.5578 15.5139C10.2748 14.685 9.5 13.2618 9.5 11.7343V1.50085H38.5V11.7343C38.5 13.2618 37.7251 14.685 36.4421 15.5139L27.2071 21.4812C25.3781 22.6632 25.3782 25.3388 27.2071 26.5207L36.4422 32.4881C37.7252 33.3169 38.5 34.7401 38.5 36.2676V46.5009H35L25.5889 34.874C24.6044 33.7098 23.3955 33.7098 22.4111 34.874L13 46.5009Z" fill="currentColor"/>
</svg>
