<svg width="48" height="48" viewBox="0 0 48 48" fill="none" xmlns="http://www.w3.org/2000/svg">
<g clip-path="url(#clip0_45_244)">
<path fill-rule="evenodd" clip-rule="evenodd" d="M24 24.5344C26.7614 24.5344 29 22.2958 29 19.5344C29 16.773 26.7614 14.5344 24 14.5344C21.2386 14.5344 19 16.773 19 19.5344C19 22.2958 21.2386 24.5344 24 24.5344ZM24 23.0344C25.933 23.0344 27.5 21.4674 27.5 19.5344C27.5 17.6014 25.933 16.0344 24 16.0344C22.067 16.0344 20.5 17.6014 20.5 19.5344C20.5 21.4674 22.067 23.0344 24 23.0344Z" fill="currentColor"/>
<path fill-rule="evenodd" clip-rule="evenodd" d="M6 26.5344V41.5344H15V26.5344H6ZM13.5 28.0344H7.5V33.2844H13.5V28.0344ZM7.5 40.0344V34.7844H13.5V40.0344H7.5Z" fill="currentColor"/>
<path fill-rule="evenodd" clip-rule="evenodd" d="M33 26.5344V41.5344H42V26.5344H33ZM40.5 28.0344H34.5V33.2844H40.5V28.0344ZM34.5 40.0344V34.7844H40.5V40.0344H34.5Z" fill="currentColor"/>
<path fill-rule="evenodd" clip-rule="evenodd" d="M2.80409 4.01908C3.03755 3.14358 3.83045 2.53441 4.73656 2.53441H21.2L23.2689 0.317682C23.6643 -0.105894 24.3357 -0.105894 24.7311 0.317682L26.8 2.53441H43.2634C44.1695 2.53441 44.9624 3.14358 45.1959 4.01908L48 14.5344V46C48 47.1046 47.1046 48 46 48H2C0.895431 48 0 47.1046 0 46V14.5344L2.80409 4.01908ZM10 14.5344H1.55242L4.25344 4.40558C4.31181 4.1867 4.51003 4.03441 4.73656 4.03441H19.8L10 14.5344ZM46.4476 14.5344L43.7466 4.40558C43.6882 4.1867 43.49 4.03441 43.2634 4.03441H28.2L38 14.5344H46.4476ZM28 46.5H46C46.2761 46.5 46.5 46.2761 46.5 46V16.0344H37.3482L24 1.7328L10.6518 16.0344H1.5V46C1.5 46.2761 1.72386 46.5 2 46.5H20V33.5344H28V46.5ZM26.5 46.5V35.0344H21.5V46.5H26.5Z" fill="currentColor"/>
</g>
<defs>
<clipPath id="clip0_45_244">
<rect width="48" height="48" fill="white"/>
</clipPath>
</defs>
</svg>
