<svg width="48" height="48" viewBox="0 0 48 48" fill="none" xmlns="http://www.w3.org/2000/svg">
<path fill-rule="evenodd" clip-rule="evenodd" d="M20 16.5C20 19.5376 17.5376 22 14.5 22C11.4624 22 9 19.5376 9 16.5C9 13.4624 11.4624 11 14.5 11C17.5376 11 20 13.4624 20 16.5ZM18.5 16.5C18.5 18.7091 16.7091 20.5 14.5 20.5C12.2909 20.5 10.5 18.7091 10.5 16.5C10.5 14.2909 12.2909 12.5 14.5 12.5C16.7091 12.5 18.5 14.2909 18.5 16.5Z" fill="currentColor"/>
<path d="M36.25 16.001C36.6642 16.001 37 16.3368 37 16.751C37 17.1652 36.6642 17.501 36.25 17.501H27.75C27.3358 17.501 27 17.1652 27 16.751C27 16.3368 27.3358 16.001 27.75 16.001H36.25Z" fill="currentColor"/>
<path d="M33.25 22.001C33.6642 22.001 34 22.3368 34 22.751C34 23.1652 33.6642 23.501 33.25 23.501H27.75C27.3358 23.501 27 23.1652 27 22.751C27 22.3368 27.3358 22.001 27.75 22.001H33.25Z" fill="currentColor"/>
<path fill-rule="evenodd" clip-rule="evenodd" d="M2 6C0.895431 6 0 6.89543 0 8V33C0 34.1046 0.89543 35 2 35H6V39C6 40.1046 6.89543 41 8 41H46C47.1046 41 48 40.1046 48 39V14C48 12.8954 47.1046 12 46 12H42V8C42 6.89543 41.1046 6 40 6H2ZM21.5 31.5V33.5H7.5V31.5C7.5 27.634 10.634 24.5 14.5 24.5C18.366 24.5 21.5 27.634 21.5 31.5ZM23 31.5V33.5H40C40.2761 33.5 40.5 33.2761 40.5 33V8C40.5 7.72386 40.2761 7.5 40 7.5H2C1.72386 7.5 1.5 7.72386 1.5 8V33C1.5 33.2761 1.72386 33.5 2 33.5H6V31.5C6 26.8056 9.80558 23 14.5 23C19.1944 23 23 26.8056 23 31.5ZM7.5 39V35H40C41.1046 35 42 34.1046 42 33V13.5H46C46.2761 13.5 46.5 13.7239 46.5 14V39C46.5 39.2761 46.2761 39.5 46 39.5H8C7.72386 39.5 7.5 39.2761 7.5 39Z" fill="currentColor"/>
</svg>
