<svg width="48" height="48" viewBox="0 0 48 48" fill="none" xmlns="http://www.w3.org/2000/svg">
<path fill-rule="evenodd" clip-rule="evenodd" d="M20 22.501C20 25.5385 17.5376 28.001 14.5 28.001C11.4624 28.001 9 25.5385 9 22.501C9 19.4634 11.4624 17.001 14.5 17.001C17.5376 17.001 20 19.4634 20 22.501ZM18.5 22.501C18.5 24.7101 16.7091 26.501 14.5 26.501C12.2909 26.501 10.5 24.7101 10.5 22.501C10.5 20.2918 12.2909 18.501 14.5 18.501C16.7091 18.501 18.5 20.2918 18.5 22.501Z" fill="currentColor"/>
<path fill-rule="evenodd" clip-rule="evenodd" d="M0 39.001C0 40.1055 0.895431 41.001 2 41.001H46C47.1046 41.001 48 40.1055 48 39.001V9.00098C48 7.89641 47.1046 7.00098 46 7.00098H2C0.895432 7.00098 0 7.89641 0 9.00098V39.001ZM2 8.50098C1.72386 8.50098 1.5 8.72483 1.5 9.00098V39.001C1.5 39.2771 1.72386 39.501 2 39.501H6V37.501C6 32.8066 9.80558 29.001 14.5 29.001C19.1944 29.001 23 32.8066 23 37.501V39.501H46C46.2761 39.501 46.5 39.2771 46.5 39.001V9.00098C46.5 8.72483 46.2761 8.50098 46 8.50098H2ZM21.5 39.501V37.501C21.5 33.635 18.366 30.501 14.5 30.501C10.634 30.501 7.5 33.635 7.5 37.501V39.501H21.5Z" fill="currentColor"/>
<path d="M34.25 30.501C34.6642 30.501 35 30.8368 35 31.251C35 31.6652 34.6642 32.001 34.25 32.001H27.75C27.3358 32.001 27 31.6652 27 31.251C27 30.8368 27.3358 30.501 27.75 30.501H34.25Z" fill="currentColor"/>
<path d="M43 35.251C43 35.6652 42.6642 36.001 42.25 36.001H27.75C27.3358 36.001 27 35.6652 27 35.251C27 34.8368 27.3358 34.501 27.75 34.501H42.25C42.6642 34.501 43 34.8368 43 35.251Z" fill="currentColor"/>
<path fill-rule="evenodd" clip-rule="evenodd" d="M33 25.501C36.5899 25.501 39.5 22.5908 39.5 19.001C39.5 15.4111 36.5899 12.501 33 12.501C29.4101 12.501 26.5 15.4111 26.5 19.001C26.5 22.5908 29.4101 25.501 33 25.501ZM41 19.001C41 23.4193 37.4183 27.001 33 27.001C28.5817 27.001 25 23.4193 25 19.001C25 14.5827 28.5817 11.001 33 11.001C37.4183 11.001 41 14.5827 41 19.001Z" fill="currentColor"/>
<path d="M34.2402 18.1323L34.1285 18.0205L31 18.1881V18.6351C31.1676 18.6909 31.2793 18.6909 31.4469 18.7468C31.6145 18.8027 31.7263 18.8585 31.7821 18.9144C31.8939 18.9703 32.0056 19.082 32.0615 19.1937L32.0615 19.1937C32.1173 19.3054 32.1732 19.4172 32.1732 19.5848V22.3278C32.1732 22.4954 32.1173 22.6071 32.0615 22.7189C32.0056 22.8306 31.8939 22.8865 31.7821 22.9423C31.7263 22.9423 31.6145 22.9982 31.5028 22.9982C31.3911 23.054 31.2793 23.054 31.1676 23.054V23.501H35.2458V23.054C35.1341 23.054 35.0223 23.054 34.9106 22.9982C34.7989 22.9423 34.743 22.9423 34.6313 22.8865C34.5196 22.8306 34.4078 22.7747 34.352 22.663C34.2961 22.5513 34.2402 22.4395 34.2402 22.2719V18.1323Z" fill="currentColor"/>
<path d="M33.905 14.8362C33.6816 14.6127 33.3464 14.501 33.0112 14.501C32.676 14.501 32.3408 14.6127 32.1173 14.8362C31.838 15.0596 31.7263 15.339 31.7263 15.6742C31.7263 16.0094 31.838 16.2887 32.1173 16.5121C32.3408 16.7356 32.676 16.8473 33.0112 16.8473C33.3464 16.8473 33.6257 16.7356 33.905 16.5121C34.1844 16.2887 34.2961 16.0094 34.2961 15.6742C34.2961 15.339 34.1285 15.0596 33.905 14.8362Z" fill="currentColor"/>
</svg>
