<svg width="48" height="48" viewBox="0 0 48 48" fill="none" xmlns="http://www.w3.org/2000/svg">
<path d="M34.25 17.501C34.6642 17.501 35 17.8368 35 18.251C35 18.6652 34.6642 19.001 34.25 19.001H26.75C26.3358 19.001 26 18.6652 26 18.251C26 17.8368 26.3358 17.501 26.75 17.501H34.25Z" fill="currentColor"/>
<path d="M43 22.251C43 22.6652 42.6642 23.001 42.25 23.001H26.75C26.3358 23.001 26 22.6652 26 22.251C26 21.8368 26.3358 21.501 26.75 21.501H42.25C42.6642 21.501 43 21.8368 43 22.251Z" fill="currentColor"/>
<path fill-rule="evenodd" clip-rule="evenodd" d="M20 22.501C20 25.5385 17.5376 28.001 14.5 28.001C11.4624 28.001 9 25.5385 9 22.501C9 19.4634 11.4624 17.001 14.5 17.001C17.5376 17.001 20 19.4634 20 22.501ZM18.5 22.501C18.5 24.7101 16.7091 26.501 14.5 26.501C12.2909 26.501 10.5 24.7101 10.5 22.501C10.5 20.2918 12.2909 18.501 14.5 18.501C16.7091 18.501 18.5 20.2918 18.5 22.501Z" fill="currentColor"/>
<path fill-rule="evenodd" clip-rule="evenodd" d="M0 39.001C0 40.1055 0.895431 41.001 2 41.001H46C47.1046 41.001 48 40.1055 48 39.001V9.00098C48 7.89641 47.1046 7.00098 46 7.00098H2C0.895432 7.00098 0 7.89641 0 9.00098V39.001ZM2 8.50098C1.72386 8.50098 1.5 8.72483 1.5 9.00098V39.001C1.5 39.2771 1.72386 39.501 2 39.501H6V37.501C6 32.8066 9.80558 29.001 14.5 29.001C19.1944 29.001 23 32.8066 23 37.501V39.501H46C46.2761 39.501 46.5 39.2771 46.5 39.001V9.00098C46.5 8.72483 46.2761 8.50098 46 8.50098H2ZM21.5 39.501V37.501C21.5 33.635 18.366 30.501 14.5 30.501C10.634 30.501 7.5 33.635 7.5 37.501V39.501H21.5Z" fill="currentColor"/>
</svg>
