<svg width="48" height="48" viewBox="0 0 48 48" fill="none" xmlns="http://www.w3.org/2000/svg">
<path d="M22.7302 22.5308C22.3182 22.3931 21.6038 22.7665 21.6038 23.1966C21.6038 23.3011 21.6401 23.402 21.7215 23.4686C22.0396 23.7287 23.0638 24.3581 25.5283 24.3581C27.9928 24.3581 29.017 23.7287 29.3351 23.4686C29.4165 23.402 29.4528 23.3011 29.4528 23.1966C29.4528 22.7665 28.7384 22.3931 28.3264 22.5308C27.7203 22.7335 26.823 22.9072 25.5283 22.9072C24.2336 22.9072 23.3363 22.7335 22.7302 22.5308Z" fill="currentColor"/>
<path d="M10.9566 22.5309C10.5447 22.3932 9.83019 22.7665 9.83019 23.1966C9.83019 23.3012 9.86651 23.402 9.94795 23.4686C10.266 23.7287 11.2902 24.3582 13.7547 24.3582C16.2192 24.3582 17.2435 23.7287 17.5615 23.4686C17.6429 23.402 17.6792 23.3012 17.6792 23.1966C17.6792 22.7665 16.9648 22.3932 16.5528 22.5309C15.9467 22.7335 15.0495 22.9072 13.7547 22.9072C12.46 22.9072 11.5628 22.7335 10.9566 22.5309Z" fill="currentColor"/>
<path d="M15.6038 33.6633C15.6038 34.0935 16.3182 34.4668 16.7302 34.3291C17.3363 34.1265 18.2336 33.9527 19.5283 33.9527C20.823 33.9527 21.7203 34.1265 22.3264 34.3291C22.7384 34.4668 23.4528 34.0935 23.4528 33.6633C23.4528 33.5588 23.4165 33.458 23.3351 33.3914C23.017 33.1312 21.9928 32.5018 19.5283 32.5018C17.0638 32.5018 16.0396 33.1312 15.7215 33.3914C15.6401 33.458 15.6038 33.5588 15.6038 33.6633Z" fill="currentColor"/>
<path fill-rule="evenodd" clip-rule="evenodd" d="M31.6538 4.97167C32.0097 5.09272 32.1619 5.5039 31.9937 5.84C31.9551 5.91718 31.9166 5.99474 31.8783 6.0726C31.756 6.3212 31.4654 6.4372 31.2031 6.34797C30.676 6.16866 30.1805 6.03731 29.801 5.96886C29.7754 5.96425 29.7507 5.95999 29.7269 5.95605C29.7061 6.22861 29.6809 6.5773 29.6546 6.98312C29.5883 8.00407 29.5149 9.38298 29.4855 10.8195C29.4561 12.2596 29.4715 13.7408 29.5793 14.9718C29.6333 15.5879 29.7091 16.1249 29.8087 16.5549C29.9124 17.0024 30.0262 17.2619 30.1146 17.3821C30.698 18.1749 31.7203 18.7196 32.6884 19.0679C33.0913 19.2129 33.4651 19.3169 33.7606 19.3883C33.9653 18.5138 34.1757 17.5306 34.3555 16.508C34.4198 16.1424 34.7823 15.9092 35.1506 15.9559C35.534 16.0044 35.8316 16.3464 35.7642 16.727C35.5318 18.0409 35.2378 19.3444 34.924 20.6404C36.7853 21.1496 38.1599 22.8831 38.1599 24.9387C38.1599 27.1973 36.5003 29.0671 34.359 29.3512C33.836 32.4307 32.3997 35.2667 30.1868 37.522C27.354 40.4092 23.5876 41.9996 19.5814 42H19.58C15.5687 42 11.7974 40.3848 8.96044 37.4517C6.78767 35.2052 5.36653 32.3979 4.82585 29.3544C2.67242 29.0817 1 27.2062 1 24.9388C1 22.7586 2.54637 20.9408 4.57955 20.5617V17.3298C3.62497 17.0958 2.8082 16.8316 2.19595 16.5404L1.8099 16.3568L1.78627 15.9232C1.60795 12.6518 2.18413 9.5532 3.65733 6.94452C5.13529 4.32743 7.49145 2.24828 10.7891 0.990667C11.7917 0.608314 13.3758 0.303335 15.1703 0.1376C16.9779 -0.0293487 19.0513 -0.0597633 21.0522 0.132378C23.0446 0.323706 25.0104 0.739838 26.5752 1.4942C27.9424 2.15331 29.0834 3.11348 29.5889 4.4769C29.7348 4.48923 29.8904 4.51149 30.0491 4.54011C30.5137 4.62393 31.0785 4.77595 31.6538 4.97167ZM6.15443 17.6667V26.559C6.15443 30.2378 7.54927 33.706 10.082 36.3247C12.6204 38.9491 15.9939 40.3946 19.58 40.3946H19.5814C23.167 40.3942 26.5379 38.9709 29.0733 36.3868C31.6091 33.8023 33.0055 30.366 33.0055 26.7108V20.6887C32.7634 20.6206 32.4957 20.5373 32.2146 20.4361C31.1661 20.0589 29.8158 19.3944 28.9757 18.2526C28.7082 17.8891 28.5402 17.393 28.4233 16.8883C28.3023 16.3661 28.2187 15.7544 28.1614 15.1009C28.1086 14.4983 28.0771 13.8461 28.0614 13.175C27.3099 14.4885 26.1974 15.7294 24.552 16.6868C22.5863 17.8305 19.9059 18.5431 16.2582 18.5431C13.5621 18.5431 10.6829 18.3393 8.17353 17.9924C7.47328 17.8955 6.79558 17.7868 6.15443 17.6667ZM15.2987 1.58263C13.5531 1.74386 12.1154 2.03404 11.288 2.3496C8.28097 3.49638 6.19398 5.3613 4.89112 7.66834C3.64787 9.86984 3.09646 12.5145 3.18823 15.3937C4.32833 15.8424 6.16643 16.2506 8.3649 16.5546C10.8109 16.8928 13.626 17.0921 16.2582 17.0921C19.7285 17.0921 22.1492 16.4141 23.8463 15.4267C25.5356 14.4438 26.5531 13.1283 27.1805 11.7659C27.8129 10.3925 28.0538 8.96003 28.1614 7.75377C28.2066 7.24607 28.2277 6.78836 28.2462 6.38684L28.251 6.28307L28.2566 6.16385C28.2672 5.94234 28.2788 5.73235 28.2964 5.55139C28.3058 5.45413 28.3184 5.34826 28.3379 5.24327C28.0661 4.23726 27.2579 3.42842 25.9665 2.80583C24.6118 2.15273 22.8295 1.76043 20.9186 1.57693C19.0163 1.39424 17.0313 1.42261 15.2987 1.58263ZM2.57487 24.9387C2.57487 23.6482 3.42232 22.5563 4.57955 22.2089V26.5591C4.57955 26.9349 4.59276 27.3086 4.61871 27.6799C3.44155 27.3455 2.57487 26.2437 2.57487 24.9387ZM34.55 27.6773C34.5695 27.3569 34.5805 27.0347 34.5805 26.7109V22.2089C35.7377 22.5563 36.585 23.6482 36.585 24.9387C36.585 26.2403 35.7228 27.34 34.55 27.6773Z" fill="currentColor"/>
<path fill-rule="evenodd" clip-rule="evenodd" d="M37.0977 3.68627L36.2629 2.24405C36.0703 1.91136 35.59 1.91136 35.3975 2.24405L34.5626 3.68627C33.9148 4.80551 32.8817 6.67553 32.2528 8.22609C32.0769 8.65962 31.9357 9.06071 31.8363 9.41659C31.7437 9.7478 31.6604 10.1322 31.6604 10.5C31.6604 12.8472 33.5273 14.75 35.8302 14.75C38.1331 14.75 40 12.8472 40 10.5C40 10.1322 39.9167 9.7478 39.8241 9.41659C39.7247 9.06071 39.5835 8.65962 39.4076 8.22609C38.7787 6.67553 37.7456 4.80551 37.0977 3.68627ZM38.0476 8.79915C37.6843 7.90347 37.1672 6.8747 36.6733 5.95708C36.3698 5.39338 36.0751 4.87163 35.8302 4.44846C35.5852 4.87163 35.2905 5.39338 34.9871 5.95708C34.4932 6.87469 33.9761 7.90347 33.6128 8.79915C33.2908 9.5932 33.1321 10.1804 33.1321 10.5C33.1321 12.0188 34.3401 13.25 35.8302 13.25C37.3203 13.25 38.5283 12.0188 38.5283 10.5C38.5283 10.1804 38.3696 9.5932 38.0476 8.79915Z" fill="currentColor"/>
<path d="M42 32C42.1989 32 42.3897 32.079 42.5303 32.2197C42.671 32.3603 42.75 32.5511 42.75 32.75V40.615C43.3201 40.7942 43.8071 41.1716 44.123 41.6788C44.4389 42.1861 44.5627 42.7896 44.4721 43.3803C44.3814 43.9709 44.0823 44.5096 43.6288 44.8988C43.1754 45.2879 42.5976 45.5019 42 45.5019C41.4024 45.5019 40.8246 45.2879 40.3712 44.8988C39.9177 44.5096 39.6186 43.9709 39.5279 43.3803C39.4373 42.7896 39.5611 42.1861 39.877 41.6788C40.1929 41.1716 40.6799 40.7942 41.25 40.615V32.75C41.25 32.5511 41.329 32.3603 41.4697 32.2197C41.6103 32.079 41.8011 32 42 32Z" fill="currentColor"/>
<path fill-rule="evenodd" clip-rule="evenodd" d="M42 26C42.83 25.9999 43.6285 26.3174 44.2319 26.8873C44.8353 27.4572 45.1978 28.2364 45.245 29.065L45.25 29.25L45.251 39.202L45.331 39.271C46.2629 40.1018 46.8495 41.2518 46.975 42.494L46.994 42.746L47 43C47.0001 43.8238 46.7967 44.6349 46.4079 45.3612C46.019 46.0874 45.4567 46.7063 44.7709 47.1629C44.0852 47.6194 43.2973 47.8994 42.4772 47.9781C41.6572 48.0567 40.8304 47.9315 40.0704 47.6135C39.3104 47.2956 38.6407 46.7948 38.1209 46.1557C37.6011 45.5166 37.2473 44.7589 37.0909 43.9501C36.9345 43.1412 36.9804 42.3063 37.2245 41.5195C37.4686 40.7326 37.9033 40.0183 38.49 39.44L38.67 39.27L38.749 39.202L38.75 29.25C38.7498 28.4513 39.0438 27.6805 39.5757 27.0847C40.1077 26.489 40.8404 26.1099 41.634 26.02L41.816 26.005L42 26ZM42 27.5C41.5606 27.5 41.1374 27.6653 40.8143 27.963C40.4912 28.2608 40.2919 28.6691 40.256 29.107L40.25 29.25V39.944L39.941 40.169C39.3506 40.5984 38.9093 41.2017 38.6788 41.8944C38.4484 42.5871 38.4402 43.3345 38.6556 44.0321C38.871 44.7296 39.2991 45.3423 39.88 45.7845C40.4609 46.2266 41.1656 46.476 41.8953 46.4979C42.625 46.5197 43.3432 46.3127 43.9495 45.9061C44.5558 45.4994 45.0197 44.9133 45.2764 44.2299C45.533 43.5465 45.5696 42.7999 45.3809 42.0947C45.1922 41.3895 44.7877 40.7609 44.224 40.297L44.059 40.17L43.752 39.945L43.75 29.25C43.75 28.7859 43.5656 28.3408 43.2374 28.0126C42.9092 27.6844 42.4641 27.5 42 27.5Z" fill="currentColor"/>
</svg>
