<svg width="48" height="48" viewBox="0 0 48 48" fill="none" xmlns="http://www.w3.org/2000/svg">
<path fill-rule="evenodd" clip-rule="evenodd" d="M30.341 43.21C30.7401 43.21 31.0395 43.5094 31.1393 43.9085V44.0083V47.2017C31.1393 47.6008 30.8399 47.9002 30.4407 48H30.341H16.7692C16.3701 48 16.0707 47.7006 15.9709 47.3015V47.2017V44.0083C15.9709 43.6091 16.2703 43.21 16.7692 43.21C17.1684 43.21 17.4678 43.5094 17.5676 43.9085V44.0083V46.4033H29.6424V44.0083C29.6424 43.6091 29.9418 43.3098 30.341 43.21ZM23.5551 0C35.4304 0 45.1102 9.67984 45.1102 21.5551C45.1102 33.4304 35.4304 43.1102 23.5551 43.1102C11.6798 43.1102 2 33.4304 2 21.5551C2 9.67984 11.6798 0 23.5551 0ZM23.5551 1.49688C12.4782 1.49688 3.49688 10.4782 3.49688 21.5551C3.49688 32.632 12.4782 41.6133 23.5551 41.6133C34.632 41.6133 43.6133 32.632 43.6133 21.5551C43.6133 10.4782 34.632 1.49688 23.5551 1.49688ZM23.5551 4.98961C32.736 4.98961 40.1206 12.3742 40.1206 21.5551C40.1206 30.736 32.736 38.1206 23.5551 38.1206C14.3742 38.1206 6.9896 30.736 6.9896 21.5551C6.9896 12.3742 14.3742 4.98961 23.5551 4.98961ZM23.5551 6.48649C15.2723 6.48649 8.48649 13.2724 8.48649 21.5551C8.48649 29.8378 15.2723 36.6237 23.5551 36.6237C31.8378 36.6237 38.6237 29.8378 38.6237 21.5551C38.6237 13.2724 31.9376 6.48649 23.5551 6.48649ZM25.4511 18.5613L25.6507 18.7609V27.9418C25.6507 28.2412 25.7505 28.4408 25.8503 28.6403C25.9501 28.8399 26.1497 28.9397 26.3493 29.0395C26.5489 29.1393 26.6486 29.1393 26.8482 29.2391C27.0478 29.3389 27.2474 29.3389 27.447 29.3389V30.1372H20.1622V29.3389C20.3617 29.3389 20.5613 29.3389 20.7609 29.2391C20.9605 29.2391 21.1601 29.1393 21.2599 29.1393C21.4595 29.0395 21.659 28.9397 21.7588 28.7401C21.8586 28.5405 21.9584 28.341 21.9584 28.0416V21.3555C21.9584 21.0561 21.8586 20.8566 21.7588 20.657C21.659 20.4574 21.4595 20.2578 21.2599 20.158C21.1601 20.0582 20.9605 19.9584 20.6611 19.8586C20.3617 19.7588 20.1622 19.7588 19.8628 19.659V18.8607L25.4511 18.5613ZM23.4553 12.2744C24.0541 12.2744 24.6528 12.474 25.052 12.8732C25.4511 13.2723 25.7505 13.7713 25.7505 14.3701C25.7505 14.9688 25.5509 15.4678 25.052 15.8669C24.553 16.2661 24.0541 16.4657 23.4553 16.4657C22.8565 16.4657 22.2578 16.2661 21.8586 15.8669C21.3597 15.4678 21.1601 14.9688 21.1601 14.3701C21.1601 13.7713 21.3597 13.2723 21.8586 12.8732C22.2578 12.474 22.8565 12.2744 23.4553 12.2744Z" fill="currentColor"/>
</svg>
