<svg width="48" height="48" viewBox="0 0 48 48" fill="none" xmlns="http://www.w3.org/2000/svg">
    <path fill-rule="evenodd" clip-rule="evenodd"
          d="M23.25 2.00085C23.25 0.896285 24.1454 0.000854492 25.25 0.000854492H33.5765C35.0239 0.000854492 35.992 1.49056 35.4042 2.81313L34.5153 4.81313C34.1943 5.53539 33.478 6.00085 32.6877 6.00085H24.75V9.06138L40.6409 18H43.694C44.9111 18 45.846 19.078 45.6739 20.2828L45.2453 23.2828C45.1046 24.2681 44.2453 25 43.25 25V40C44.2498 40 45.0931 40.7445 45.2171 41.7365L45.719 45.7519C45.8682 46.9456 44.9374 48 43.7344 48H4.26556C3.06257 48 2.1318 46.9456 2.28101 45.7519L2.78294 41.7365C2.90694 40.7445 3.75025 40 4.75 40V25C3.7547 25 2.89545 24.2681 2.75469 23.2828L2.32612 20.2828C2.154 19.078 3.08892 18 4.30602 18H6.85041L23.25 9.05477V2.00085ZM9.9829 18H37.5813L23.9944 10.3574L9.9829 18ZM24.75 4.50085H32.6877C32.8853 4.50085 33.0643 4.38449 33.1446 4.20392L34.0335 2.20392C34.1804 1.87328 33.9384 1.50085 33.5765 1.50085H25.25C24.9739 1.50085 24.75 1.72471 24.75 2.00085V4.50085ZM41.75 40V25H40.25V40H41.75ZM23.25 25H24.75V40H23.25V25ZM26.25 40V25H30.25V40H26.25ZM31.75 40H33.25V25H31.75V40ZM38.75 40H34.75V25H38.75V40ZM21.75 40V25H17.75V40H21.75ZM16.25 40H14.75V25H16.25V40ZM9.25 25H13.25V40H9.25V25ZM7.75 40H6.25V25H7.75V40ZM4.73459 23.5C4.48577 23.5 4.27481 23.317 4.23962 23.0707L3.81104 20.0707C3.76801 19.7695 4.00174 19.5 4.30602 19.5H43.694C43.9983 19.5 44.232 19.7695 44.189 20.0707L43.7604 23.0707C43.7252 23.317 43.5142 23.5 43.2654 23.5H4.73459ZM4.26556 46.5C3.96482 46.5 3.73212 46.2364 3.76943 45.938L4.26943 41.938C4.3007 41.6878 4.5134 41.5 4.76556 41.5H43.2344C43.4866 41.5 43.6993 41.6878 43.7306 41.938L44.2306 45.938C44.2679 46.2364 44.0352 46.5 43.7344 46.5H4.26556Z"
          fill="currentColor"/>
</svg>
