<svg width="48" height="48" viewBox="0 0 48 48" fill="none" xmlns="http://www.w3.org/2000/svg">
<g clip-path="url(#clip0_3795_10865)">
<path d="M9 6.75085C9 7.16507 9.33579 7.50085 9.75 7.50085H18.25C18.6642 7.50085 19 7.16507 19 6.75085C19 6.33664 18.6642 6.00085 18.25 6.00085H9.75C9.33579 6.00085 9 6.33664 9 6.75085Z" fill="currentColor"/>
<path d="M9 10.7509C9 11.1651 9.33579 11.5009 9.75 11.5009H18.25C18.6642 11.5009 19 11.1651 19 10.7509C19 10.3366 18.6642 10.0009 18.25 10.0009H9.75C9.33579 10.0009 9 10.3366 9 10.7509Z" fill="currentColor"/>
<path d="M16 14.7509C16 15.1651 15.6642 15.5009 15.25 15.5009H9.75C9.33579 15.5009 9 15.1651 9 14.7509C9 14.3366 9.33579 14.0009 9.75 14.0009H15.25C15.6642 14.0009 16 14.3366 16 14.7509Z" fill="currentColor"/>
<path d="M18.5 20.0009H21.5V23.0009H18.5V20.0009Z" fill="currentColor"/>
<path d="M18.5 25.0009H21.5V28.0009H18.5V25.0009Z" fill="currentColor"/>
<path d="M29.5 10.0009H26.5V13.0009H29.5V10.0009Z" fill="currentColor"/>
<path d="M34.5 10.0009H31.5V13.0009H34.5V10.0009Z" fill="currentColor"/>
<path d="M29.5 15.0009H26.5V18.0009H29.5V15.0009Z" fill="currentColor"/>
<path d="M29.5 20.0009H26.5V23.0009H29.5V20.0009Z" fill="currentColor"/>
<path d="M29.5 25.0009H26.5V28.0009H29.5V25.0009Z" fill="currentColor"/>
<path d="M34.5 15.0009H31.5V18.0009H34.5V15.0009Z" fill="currentColor"/>
<path d="M34.5 20.0009H31.5V23.0009H34.5V20.0009Z" fill="currentColor"/>
<path d="M34.5 25.0009H31.5V28.0009H34.5V25.0009Z" fill="currentColor"/>
<path fill-rule="evenodd" clip-rule="evenodd" d="M41 16.0009V2.00085C41 0.896285 40.1046 0.000854492 39 0.000854492H7C5.89543 0.000854492 5 0.896285 5 2.00085V16.0009H2C0.895431 16.0009 0 16.8963 0 18.0009V46.0009C0 47.1054 0.89543 48.0009 2 48.0009H43.3057C44.2834 48.0009 45.1178 47.294 45.2785 46.3297L47.6119 32.3297C47.815 31.1106 46.875 30.0009 45.6391 30.0009H45V18.0009C45 16.8963 44.1046 16.0009 43 16.0009H41ZM6.5 27.0009H15V17.0009H23V6.00085H26V5.00085H35V6.00085H38V30.0009H39.5V2.00085C39.5 1.72471 39.2761 1.50085 39 1.50085H7C6.72386 1.50085 6.5 1.72471 6.5 2.00085V27.0009ZM23 30.0009H18.25L16.5 27.0009V18.5009H23V30.0009ZM36.5 30.0009H24.5V7.50085H36.5V30.0009ZM41 30.0009H43.5V18.0009C43.5 17.7247 43.2761 17.5009 43 17.5009H41V30.0009ZM5 17.5009H2C1.72386 17.5009 1.5 17.7247 1.5 18.0009V37.5009L2.75469 28.718C2.89545 27.7327 3.73929 27.0009 4.73459 27.0009H5V17.5009ZM46.1323 32.0831C46.1831 31.7783 45.9481 31.5009 45.6391 31.5009H17.3884L15.7831 28.7489C15.6935 28.5953 15.5291 28.5009 15.3513 28.5009H4.73459C4.48577 28.5009 4.27481 28.6838 4.23962 28.9301L1.81104 45.9301C1.76801 46.2314 2.00174 46.5009 2.30602 46.5009H43.7293L46.1323 32.0831Z" fill="currentColor"/>
</g>
<defs>
<clipPath id="clip0_3795_10865">
<rect width="48" height="48" fill="white" transform="translate(0 0.000854492)"/>
</clipPath>
</defs>
</svg>
