<svg width="48" height="48" viewBox="0 0 48 48" fill="none" xmlns="http://www.w3.org/2000/svg">
<path d="M33.6412 30.5806C33.3483 30.2877 32.8734 30.2877 32.5806 30.5806C32.2877 30.8735 32.2877 31.3484 32.5806 31.6412L35.9393 35L32.5806 38.3588C32.2877 38.6516 32.2877 39.1265 32.5806 39.4194C32.8734 39.7123 33.3483 39.7123 33.6412 39.4194L37 36.0607L40.3587 39.4194C40.6516 39.7123 41.1265 39.7123 41.4194 39.4194C41.7123 39.1265 41.7123 38.6516 41.4194 38.3588L38.0606 35L41.4194 31.6412C41.7123 31.3484 41.7123 30.8735 41.4194 30.5806C41.1265 30.2877 40.6516 30.2877 40.3587 30.5806L37 33.9393L33.6412 30.5806Z" fill="currentColor"/>
<path fill-rule="evenodd" clip-rule="evenodd" d="M8.25 6.5V8H3C1.34315 8 0 9.34315 0 11V33C0 34.6569 1.34315 36 3 36H26.0448C26.5501 41.6065 31.262 46 37 46C43.0751 46 48 41.0751 48 35C48 29.262 43.6065 24.5501 38 24.0448V11C38 9.34315 36.6569 8 35 8H29.75V6.5C29.75 4.42893 28.0711 2.75 26 2.75H12C9.92893 2.75 8.25 4.42893 8.25 6.5ZM36.5 24.0112V19.8101L31.75 20.3379V23C31.75 23.4142 31.4142 23.75 31 23.75C30.5858 23.75 30.25 23.4142 30.25 23V20.5046L19.0001 21.7546L7.75 20.5046V23C7.75 23.4142 7.41421 23.75 7 23.75C6.58579 23.75 6.25 23.4142 6.25 23V20.3379L1.5 19.8101V33C1.5 33.8284 2.17157 34.5 3 34.5H26.0112C26.2651 28.8227 30.8227 24.2651 36.5 24.0112ZM12 4.25C10.7574 4.25 9.75 5.25736 9.75 6.5V8H28.25V6.5C28.25 5.25736 27.2426 4.25 26 4.25H12ZM35 9.5H3C2.17157 9.5 1.5 10.1716 1.5 11V18.3009L6.25 18.8287V17C6.25 16.5858 6.58579 16.25 7 16.25C7.41421 16.25 7.75 16.5858 7.75 17V18.9953L19.0001 20.2453L30.25 18.9953V17C30.25 16.5858 30.5858 16.25 31 16.25C31.4142 16.25 31.75 16.5858 31.75 17V18.8287L36.5 18.3009V11C36.5 10.1716 35.8284 9.5 35 9.5ZM37 44.5C42.2467 44.5 46.5 40.2467 46.5 35C46.5 29.7533 42.2467 25.5 37 25.5C31.7533 25.5 27.5 29.7533 27.5 35C27.5 40.2467 31.7533 44.5 37 44.5Z" fill="currentColor"/>
</svg>
