<svg width="48" height="48" viewBox="0 0 48 48" fill="none" xmlns="http://www.w3.org/2000/svg">
<g clip-path="url(#clip0_45_251)">
<path fill-rule="evenodd" clip-rule="evenodd" d="M32 13C34.2091 13 36 11.2091 36 9C36 6.79086 34.2091 5 32 5C29.7909 5 28 6.79086 28 9C28 11.2091 29.7909 13 32 13ZM32 11.5C33.3807 11.5 34.5 10.3807 34.5 9C34.5 7.61929 33.3807 6.5 32 6.5C30.6193 6.5 29.5 7.61929 29.5 9C29.5 10.3807 30.6193 11.5 32 11.5Z" fill="currentColor"/>
<path fill-rule="evenodd" clip-rule="evenodd" d="M40.8999 9.99381C40.9652 9.64184 41 9.3092 41 9C41 4.02944 36.9706 0 32 0C27.0294 0 23 4.02944 23 9C23 9.3092 23.0348 9.64184 23.1001 9.99381L16.9805 6.55153C16.3717 6.20906 15.6283 6.20906 15.0195 6.55153L1.01948 14.4265C0.389725 14.7808 0 15.4471 0 16.1697V46.2901C0 47.055 0.823657 47.5367 1.49026 47.1617L15.7549 39.1379C15.9071 39.0522 16.0929 39.0522 16.2451 39.1379L31.0195 47.4484C31.6283 47.7909 32.3717 47.7909 32.9805 47.4484L46.9805 39.5734C47.6103 39.2192 48 38.5528 48 37.8303V7.70983C48 6.945 47.1763 6.46329 46.5097 6.83825L40.8999 9.99381ZM38.2451 12.9403C39.0736 11.2386 39.5 9.87948 39.5 9C39.5 4.85786 36.1421 1.5 32 1.5C27.8579 1.5 24.5 4.85786 24.5 9C24.5 9.87948 24.9264 11.2386 25.7549 12.9403C26.5574 14.5887 27.6421 16.3711 28.7485 18.0325C29.8514 19.6887 30.9571 21.1967 31.7886 22.2921C31.8612 22.3879 31.9318 22.4804 32 22.5696C32.0682 22.4804 32.1388 22.3879 32.2114 22.2921C33.0429 21.1967 34.1486 19.6887 35.2515 18.0325C36.3579 16.3711 37.4426 14.5887 38.2451 12.9403ZM40.2723 12.0679C38.6547 16.1609 34.7613 21.4487 32.9529 23.7913C32.882 23.8832 32.8142 23.9705 32.75 24.0531V45.8571L46.2451 38.2661C46.4026 38.1775 46.5 38.0109 46.5 37.8303V8.56475L40.2723 12.0679ZM31.25 24.0531V45.8571L16.9805 37.8305C16.9056 37.7883 16.8285 37.7514 16.75 37.7196V8.14288L23.7277 12.0679C25.3453 16.1609 29.2387 21.4487 31.0471 23.7913C31.118 23.8832 31.1858 23.9705 31.25 24.0531ZM1.75487 15.7339L15.25 8.14288V37.7196C15.1715 37.7514 15.0944 37.7883 15.0195 37.8305L1.5 45.4352V16.1697C1.5 15.989 1.59743 15.8224 1.75487 15.7339Z" fill="currentColor"/>
</g>
<defs>
<clipPath id="clip0_45_251">
<rect width="48" height="48" fill="white"/>
</clipPath>
</defs>
</svg>
