<svg width="48" height="48" viewBox="0 0 48 48" fill="none" xmlns="http://www.w3.org/2000/svg">
<path d="M15 40.0009C15 39.4486 15.4477 39.0009 16 39.0009H19C19.5523 39.0009 20 39.4486 20 40.0009V43.0009C20 43.5531 19.5523 44.0009 19 44.0009H16C15.4477 44.0009 15 43.5531 15 43.0009V40.0009Z" fill="currentColor"/>
<path d="M21.5 40.0009C21.5 39.4486 21.9477 39.0009 22.5 39.0009H25.5C26.0523 39.0009 26.5 39.4486 26.5 40.0009V43.0009C26.5 43.5531 26.0523 44.0009 25.5 44.0009H22.5C21.9477 44.0009 21.5 43.5531 21.5 43.0009V40.0009Z" fill="currentColor"/>
<path d="M29 39.0009C28.4477 39.0009 28 39.4486 28 40.0009V43.0009C28 43.5531 28.4477 44.0009 29 44.0009H32C32.5523 44.0009 33 43.5531 33 43.0009V40.0009C33 39.4486 32.5523 39.0009 32 39.0009H29Z" fill="currentColor"/>
<path fill-rule="evenodd" clip-rule="evenodd" d="M15 0.000854492C12.7909 0.000854492 11 1.79171 11 4.00085V44.0009C11 46.21 12.7909 48.0009 15 48.0009H33C35.2091 48.0009 37 46.21 37 44.0009V4.00085C37 1.79172 35.2091 0.000854492 33 0.000854492H15ZM30 1.50085C29.4477 1.50085 29 1.94857 29 2.50085V3.00085C29 3.55314 28.5523 4.00085 28 4.00085H20C19.4477 4.00085 19 3.55314 19 3.00085V2.50085C19 1.94857 18.5523 1.50085 18 1.50085H15C13.6193 1.50085 12.5 2.62014 12.5 4.00085V44.0009C12.5 45.3816 13.6193 46.5009 15 46.5009H33C34.3807 46.5009 35.5 45.3816 35.5 44.0009V4.00085C35.5 2.62014 34.3807 1.50085 33 1.50085H30Z" fill="currentColor"/>
</svg>
