<svg width="48" height="48" viewBox="0 0 48 48" fill="none" xmlns="http://www.w3.org/2000/svg">
<path fill-rule="evenodd" clip-rule="evenodd" d="M29.0511 2.00098C29.0511 1.58676 28.7153 1.25098 28.3011 1.25098C27.8869 1.25098 27.5511 1.58676 27.5511 2.00098V4.72913C27.5511 5.62241 26.9064 6.38526 26.0256 6.5342C24.4232 6.80518 23.2502 8.19309 23.2502 9.81828V12.2745C17.1102 12.6612 12.25 17.7635 12.25 24.001V35.001C12.25 41.4903 17.5107 46.751 24 46.751C30.4893 46.751 35.75 41.4903 35.75 35.001V24.001C35.75 17.7636 30.89 12.6614 24.7502 12.2745V9.81828C24.7502 8.925 25.3949 8.16215 26.2757 8.01321C27.8782 7.74223 29.0511 6.35432 29.0511 4.72913V2.00098ZM24.7502 13.778V25.1094H34.25V24.001C34.25 18.5924 30.0609 14.1622 24.7502 13.778ZM23.2502 13.778C17.9394 14.1619 13.75 18.5922 13.75 24.001V25.1094H23.2502V13.778ZM34.25 26.6094V35.001C34.25 40.6619 29.6609 45.251 24 45.251C18.3391 45.251 13.75 40.6619 13.75 35.001V26.6094H34.25Z" fill="currentColor"/>
</svg>
