<svg width="48" height="48" viewBox="0 0 48 48" fill="none" xmlns="http://www.w3.org/2000/svg">
<g clip-path="url(#clip0_6263_11001)">
<path d="M39.6 46.001C39.6 47.1055 38.7046 48.001 37.6 48.001H6C4.89543 48.001 4 47.1055 4 46.001V2.00098C4 0.896407 4.89543 0.000976562 6 0.000976562H37.599C38.7035 0.000976562 39.599 0.896407 39.599 2.00098V9.46073C39.599 9.91049 39.2344 10.2751 38.7846 10.2751C38.3349 10.2751 37.9703 9.91049 37.9703 9.46073V2.63549C37.9703 2.08321 37.5225 1.63549 36.9703 1.63549H6.62871C6.07643 1.63549 5.62871 2.08321 5.62871 2.63549V45.3665C5.62871 45.9187 6.07643 46.3665 6.62871 46.3665H36.97C37.5223 46.3665 37.97 45.9187 37.97 45.3665V32.816C37.97 32.3659 38.3349 32.001 38.785 32.001C39.2351 32.001 39.6 32.3659 39.6 32.816V46.001Z" fill="currentColor"/>
<path d="M14.9431 37.2253C14.9266 36.9946 14.6325 36.9081 14.4937 37.0932L11.6004 40.9509L10.4004 40.0509L13.2937 36.1932C14.2653 34.8977 16.3239 35.5032 16.4393 37.1185L16.583 39.1312C16.5987 39.35 16.8684 39.444 17.0167 39.2823L19.3807 36.7034C20.3286 35.6693 22.0339 36.5577 21.7295 37.9271C21.6448 38.3082 22.0167 38.6313 22.3823 38.4942L24.237 37.7987L24.7637 39.2032L22.909 39.8987C21.5617 40.4039 20.1933 39.3659 20.2162 38.0118L18.1224 40.2959C17.0847 41.4279 15.1963 40.7699 15.0868 39.2381L14.9431 37.2253Z" fill="currentColor"/>
<path fill-rule="evenodd" clip-rule="evenodd" d="M43.7362 17.1222L32.2362 37.0407L27.1381 39.8709L27.04 34.0407L38.54 14.1222C39.0923 13.1656 40.3155 12.8378 41.2721 13.3901L43.0041 14.3901C43.9607 14.9424 44.2885 16.1656 43.7362 17.1222ZM28.5468 34.4309L37.0266 19.7436L39.6247 21.2436L31.1449 35.9309L28.5959 37.346L28.5468 34.4309ZM37.7766 18.4445L40.3747 19.9445L42.4372 16.3722C42.5752 16.133 42.4933 15.8272 42.2541 15.6891L40.5221 14.6891C40.2829 14.5511 39.9771 14.633 39.8391 14.8722L37.7766 18.4445Z" fill="currentColor"/>
<path d="M10.6846 22.4553H27.3886C27.8044 22.4553 28.1415 22.1182 28.1415 21.7024C28.1415 21.2865 27.8044 20.9494 27.3886 20.9494H10.6846C10.2688 20.9494 9.93164 21.2865 9.93164 21.7024C9.93164 22.1182 10.2688 22.4553 10.6846 22.4553Z" fill="currentColor"/>
<path d="M10.6846 16.4198H29.3886C29.8044 16.4198 30.1415 16.0827 30.1415 15.6669C30.1415 15.251 29.8044 14.9139 29.3886 14.9139H10.6846C10.2688 14.9139 9.93164 15.251 9.93164 15.6669C9.93164 16.0827 10.2688 16.4198 10.6846 16.4198Z" fill="currentColor"/>
<path d="M10.6846 10.3843H15.9441C16.36 10.3843 16.6971 10.0472 16.6971 9.63138C16.6971 9.21553 16.36 8.87842 15.9441 8.87842H10.6846C10.2688 8.87842 9.93164 9.21553 9.93164 9.63138C9.93164 10.0472 10.2688 10.3843 10.6846 10.3843Z" fill="currentColor"/>
</g>
<defs>
<clipPath id="clip0_6263_11001">
<rect width="48" height="48" fill="white" transform="translate(0 0.000976562)"/>
</clipPath>
</defs>
</svg>
