<svg width="48" height="48" viewBox="0 0 48 48" fill="none" xmlns="http://www.w3.org/2000/svg">
<g clip-path="url(#clip0_6263_11000)">
<path fill-rule="evenodd" clip-rule="evenodd" d="M24.25 5.00098C24.6642 5.00098 25 5.33676 25 5.75098C25 6.16519 24.6642 6.50098 24.25 6.50098H6.5C5.94772 6.50098 5.5 6.94869 5.5 7.50098V45.501C5.5 46.0533 5.94772 46.501 6.5 46.501H8.16109C8.84776 43.3558 11.6489 41.001 15 41.001C18.3511 41.001 21.1522 43.3558 21.8389 46.501H35.5C36.0523 46.501 36.5 46.0533 36.5 45.501V19.751C36.5 19.3368 36.8358 19.001 37.25 19.001C37.6642 19.001 38 19.3368 38 19.751V46.0007C38 47.1052 37.1046 48.0007 36 48.0007H22L8 48.001L6 48.0007C4.89543 48.0007 4 47.1052 4 46.0007V7.00098C4 5.89641 4.89543 5.00098 6 5.00098H24.25ZM20.293 46.501C19.64 44.1925 17.5176 42.501 15 42.501C12.4824 42.501 10.36 44.1925 9.70703 46.501H20.293Z" fill="currentColor"/>
<path d="M31.389 25.9494C31.8049 25.9494 32.142 26.2865 32.142 26.7023C32.142 27.1182 31.8049 27.4553 31.389 27.4553H10.6851C10.2692 27.4553 9.9321 27.1182 9.9321 26.7023C9.9321 26.2865 10.2692 25.9494 10.6851 25.9494H31.389Z" fill="currentColor"/>
<path d="M31.389 19.9139C31.8049 19.9139 32.142 20.251 32.142 20.6668C32.142 21.0827 31.8049 21.4198 31.389 21.4198H10.6851C10.2692 21.4198 9.9321 21.0827 9.9321 20.6668C9.9321 20.251 10.2692 19.9139 10.6851 19.9139H31.389Z" fill="currentColor"/>
<path d="M15.9446 13.8784C16.3604 13.8784 16.6975 14.2155 16.6975 14.6313C16.6975 15.0472 16.3604 15.3843 15.9446 15.3843H10.6851C10.2692 15.3843 9.9321 15.0472 9.9321 14.6313C9.9321 14.2155 10.2692 13.8784 10.6851 13.8784H15.9446Z" fill="currentColor"/>
<path fill-rule="evenodd" clip-rule="evenodd" d="M15 32.001C12.7907 32.001 11 33.7917 11 36.001C11 38.2103 12.7907 40.001 15 40.001C17.2093 40.001 19 38.2103 19 36.001C19 33.7917 17.2093 32.001 15 32.001ZM15 33.501C13.6191 33.501 12.5 34.6201 12.5 36.001C12.5 37.3819 13.6191 38.501 15 38.501C16.3809 38.501 17.5 37.3819 17.5 36.001C17.5 34.6201 16.3809 33.501 15 33.501Z" fill="currentColor"/>
<path d="M23.6846 34.3838H27.1787C27.5945 34.3838 27.9316 34.0467 27.9316 33.6309C27.9316 33.215 27.5945 32.8779 27.1787 32.8779H23.6846C23.2688 32.8779 22.9316 33.215 22.9316 33.6309C22.9316 34.0467 23.2688 34.3838 23.6846 34.3838Z" fill="currentColor"/>
<path d="M23.6846 38.3838H31.1787C31.5945 38.3838 31.9316 38.0467 31.9316 37.6309C31.9316 37.215 31.5945 36.8779 31.1787 36.8779H23.6846C23.2688 36.8779 22.9316 37.215 22.9316 37.6309C22.9316 38.0467 23.2688 38.3838 23.6846 38.3838Z" fill="currentColor"/>
<path fill-rule="evenodd" clip-rule="evenodd" d="M35.5 15.501C39.366 15.501 42.5 12.367 42.5 8.50098C42.5 4.63498 39.366 1.50098 35.5 1.50098C31.634 1.50098 28.5 4.63498 28.5 8.50098C28.5 12.367 31.634 15.501 35.5 15.501ZM35.5 17.001C40.1944 17.001 44 13.1954 44 8.50098C44 3.80656 40.1944 0.000976562 35.5 0.000976562C30.8056 0.000976562 27 3.80656 27 8.50098C27 13.1954 30.8056 17.001 35.5 17.001Z" fill="currentColor"/>
<path d="M36.7402 7.13226L36.6285 7.02053L33.5 7.18813V7.63506C33.6676 7.69092 33.7793 7.69092 33.9469 7.74679C34.1145 7.80265 34.2263 7.85852 34.2821 7.91438C34.3939 7.97025 34.5056 8.08198 34.5615 8.19371C34.6173 8.30545 34.6732 8.41718 34.6732 8.58477V12.3278C34.6732 12.4954 34.6173 12.6071 34.5615 12.7189C34.5056 12.8306 34.3939 12.8865 34.2821 12.9423C34.2263 12.9423 34.1145 12.9982 34.0028 12.9982C33.8911 13.054 33.7793 13.054 33.6676 13.054V13.501H37.7458V13.054C37.6341 13.054 37.5223 13.054 37.4106 12.9982C37.2989 12.9423 37.243 12.9423 37.1313 12.8865C37.0196 12.8306 36.9078 12.7747 36.852 12.663C36.7961 12.5513 36.7402 12.4395 36.7402 12.2719V7.13226Z" fill="currentColor"/>
<path d="M36.405 3.83617C36.1816 3.61271 35.8464 3.50098 35.5112 3.50098C35.176 3.50098 34.8408 3.61271 34.6173 3.83617C34.338 4.05964 34.2263 4.33896 34.2263 4.67416C34.2263 5.00936 34.338 5.28869 34.6173 5.51215C34.8408 5.73561 35.176 5.84735 35.5112 5.84735C35.8464 5.84735 36.1257 5.73561 36.405 5.51215C36.6844 5.28869 36.7961 5.00936 36.7961 4.67416C36.7961 4.33896 36.6285 4.05964 36.405 3.83617Z" fill="currentColor"/>
</g>
<defs>
<clipPath id="clip0_6263_11000">
<rect width="48" height="48" fill="white" transform="translate(0 0.000976562)"/>
</clipPath>
</defs>
</svg>
