<svg width="48" height="48" viewBox="0 0 48 48" fill="none" xmlns="http://www.w3.org/2000/svg">
<path fill-rule="evenodd" clip-rule="evenodd" d="M43.4183 19.939C43.8046 20.1418 44.2532 19.8088 44.1785 19.3746L43.0484 12.804L47.8378 8.14474C48.1538 7.83729 47.9818 7.29617 47.548 7.23324L40.9254 6.27238L37.9703 0.294221C37.7764 -0.0980439 37.2237 -0.0980819 37.0297 0.294156L34.0736 6.27238L27.4519 7.23324C27.0182 7.29618 26.8462 7.83724 27.1622 8.1447L31.9506 12.804L30.8215 19.3748C30.7469 19.809 31.1954 20.1419 31.5817 19.9391L37.5001 16.8322L43.4183 19.939ZM45.3878 8.43552L41.4362 12.2797L42.3673 17.6931L37.5001 15.138L32.6324 17.6934L33.5627 12.2797L29.6119 8.43552L35.0689 7.64367L37.4999 2.72751L39.93 7.64367L45.3878 8.43552Z" fill="currentColor"/>
<path d="M1 10.001C1 8.89641 1.89543 8.00098 3 8.00098H23.25C23.6642 8.00098 24 8.33676 24 8.75098C24 9.16519 23.6642 9.50098 23.25 9.50098H3C2.72386 9.50098 2.5 9.72483 2.5 10.001V38.001C2.5 38.2771 2.72386 38.501 3 38.501H8.23223C8.76267 38.501 9.27137 38.7117 9.64645 39.0868L16.3964 45.8368C16.5917 46.032 16.9083 46.032 17.1036 45.8368L23.8536 39.0868C24.2286 38.7117 24.7373 38.501 25.2678 38.501H42C42.2761 38.501 42.5 38.2771 42.5 38.001V23.751C42.5 23.3368 42.8358 23.001 43.25 23.001C43.6642 23.001 44 23.3368 44 23.751V38.001C44 39.1055 43.1046 40.001 42 40.001H25.2678C25.1352 40.001 25.008 40.0537 24.9142 40.1474L18.1642 46.8974C17.3832 47.6785 16.1168 47.6785 15.3358 46.8974L8.58579 40.1474C8.49202 40.0537 8.36484 40.001 8.23223 40.001H3C1.89543 40.001 1 39.1055 1 38.001V10.001Z" fill="currentColor"/>
<path d="M8.25 17.75C8.25 17.3358 8.58579 17 9 17H16C16.4142 17 16.75 17.3358 16.75 17.75C16.75 18.1642 16.4142 18.5 16 18.5H9C8.58579 18.5 8.25 18.1642 8.25 17.75Z" fill="currentColor"/>
<path d="M9 26C8.58579 26 8.25 26.3358 8.25 26.75C8.25 27.1642 8.58579 27.5 9 27.5H29C29.4142 27.5 29.75 27.1642 29.75 26.75C29.75 26.3358 29.4142 26 29 26H9Z" fill="currentColor"/>
</svg>
