<svg width="48" height="48" viewBox="0 0 48 48" fill="none" xmlns="http://www.w3.org/2000/svg">
<g clip-path="url(#clip0_45_257)">
<path d="M20 8.75C20 8.33579 20.3358 8 20.75 8C21.1642 8 21.5 8.33579 21.5 8.75V9.75C21.5 10.1642 21.1642 10.5 20.75 10.5C20.3358 10.5 20 10.1642 20 9.75V8.75Z" fill="currentColor"/>
<path d="M20.9144 12.0315C21.1731 11.7081 21.6451 11.6556 21.9685 11.9144C23.1562 12.8645 24.8438 12.8645 26.0315 11.9144C26.355 11.6556 26.8269 11.7081 27.0857 12.0315C27.3444 12.355 27.292 12.8269 26.9685 13.0857C25.233 14.4741 22.767 14.4741 21.0315 13.0857C20.7081 12.8269 20.6556 12.355 20.9144 12.0315Z" fill="currentColor"/>
<path d="M27.25 8C26.8358 8 26.5 8.33579 26.5 8.75V9.75C26.5 10.1642 26.8358 10.5 27.25 10.5C27.6642 10.5 28 10.1642 28 9.75V8.75C28 8.33579 27.6642 8 27.25 8Z" fill="currentColor"/>
<path fill-rule="evenodd" clip-rule="evenodd" d="M33.5 9.5C33.5 14.7467 29.2467 19 24 19C18.7533 19 14.5 14.7467 14.5 9.5C14.5 4.25329 18.7533 0 24 0C29.2467 0 33.5 4.25329 33.5 9.5ZM32 9.5C32 13.9183 28.4183 17.5 24 17.5C19.5817 17.5 16 13.9183 16 9.5C16 6.08007 18.146 3.16135 21.1648 2.01694C21.058 2.32492 21 2.65569 21 3C21 4.65685 22.3431 6 24 6C24.969 6 25.8307 5.54059 26.3792 4.82769C26.6319 4.4992 26.4492 4.04967 26.0683 3.8864C25.6876 3.72325 25.2523 3.92334 24.9268 4.17947C24.6717 4.38024 24.3498 4.5 24 4.5C23.1716 4.5 22.5 3.82843 22.5 3C22.5 2.17157 23.1716 1.5 24 1.5C28.4183 1.5 32 5.08172 32 9.5Z" fill="currentColor"/>
<path d="M21.5 28.25C21.0858 28.25 20.75 28.5858 20.75 29C20.75 29.4142 21.0858 29.75 21.5 29.75H26.5C26.9142 29.75 27.25 29.4142 27.25 29C27.25 28.5858 26.9142 28.25 26.5 28.25H21.5Z" fill="currentColor"/>
<path d="M16.5618 19C15.5231 19 14.5269 19.4126 13.7924 20.1471L10.0149 23.9246C8.64804 25.2915 8.64804 27.5075 10.0149 28.8744C11.3817 30.2412 13.5978 30.2412 14.9646 28.8744L15.0835 28.7555C15.3764 28.4626 15.3764 27.9877 15.0835 27.6948C14.7906 27.4019 14.3158 27.4019 14.0229 27.6948L13.904 27.8137C13.1229 28.5948 11.8566 28.5948 11.0755 27.8137C10.2945 27.0327 10.2945 25.7663 11.0755 24.9853L15.0405 21.0203C15.7714 20.2894 16.9311 20.253 17.8165 20.7864C19.6224 21.8742 21.738 22.5 23.9998 22.5C26.2617 22.5 28.3774 21.8742 30.1833 20.7863C31.0687 20.2528 32.2284 20.2892 32.9593 21.0201L36.9247 24.9853C37.7058 25.7663 37.7058 27.0327 36.9247 27.8137C36.1437 28.5948 34.8773 28.5948 34.0963 27.8137L33.9774 27.6948C33.6845 27.4019 33.2096 27.4019 32.9167 27.6948C32.6238 27.9877 32.6238 28.4626 32.9167 28.7555L33.0356 28.8744C34.4025 30.2412 36.6185 30.2412 37.9854 28.8744C39.3522 27.5075 39.3522 25.2915 37.9854 23.9246L34.208 20.1473C33.4734 19.4127 32.4771 19 31.4383 19C30.611 19 29.8162 19.2823 29.0931 19.6841C27.5846 20.5225 25.8479 21 23.9998 21C22.1517 21 20.4151 20.5224 18.9067 19.6841C18.1837 19.2822 17.389 19 16.5618 19Z" fill="currentColor"/>
<path fill-rule="evenodd" clip-rule="evenodd" d="M18.75 23.5C18.75 23.0858 18.4142 22.75 18 22.75C17.5858 22.75 17.25 23.0858 17.25 23.5V32.154L13.8688 35.5352C12.302 37.102 11.7263 39.4049 12.3714 41.5248L13.641 45.6963C14.1636 47.4134 15.9793 48.3818 17.6965 47.8592C19.4136 47.3366 20.382 45.5209 19.8594 43.8037L18.6772 39.9192L21.5052 37.0912L21.6645 37.1708C23.1346 37.9059 24.8651 37.9059 26.3353 37.1708L26.4957 37.0906L29.3243 39.9192L28.1421 43.8037C27.6194 45.5209 28.5878 47.3366 30.305 47.8592C32.0221 48.3818 33.8378 47.4134 34.3604 45.6963L35.63 41.5248C36.2752 39.4049 35.6995 37.102 34.1326 35.5352L30.75 32.1526V23.5C30.75 23.0858 30.4142 22.75 30 22.75C29.5858 22.75 29.25 23.0858 29.25 23.5V32.1465C27.7665 32.8937 26.5916 34.1478 25.9448 35.689L25.6645 35.8292C24.6166 36.3531 23.3832 36.3531 22.3353 35.8292L22.0571 35.6901C21.4102 34.1478 20.2345 32.8931 18.75 32.1458V23.5ZM18.0517 33.4736L14.9295 36.5958C13.7544 37.771 13.3226 39.4981 13.8064 41.088L15.076 45.2595C15.3574 46.1842 16.3351 46.7056 17.2597 46.4242C18.1844 46.1428 18.7058 45.1651 18.4244 44.2405L17.1548 40.069C17.0473 39.7157 17.1432 39.3319 17.4044 39.0707L20.5266 35.9485C19.9933 34.8763 19.1239 34.007 18.0517 33.4736ZM33.072 36.5958L29.9498 33.4736C28.8775 34.007 28.0082 34.8763 27.4749 35.9485L30.5971 39.0707C30.8582 39.3319 30.9542 39.7157 30.8467 40.069L29.5771 44.2405C29.2957 45.1651 29.8171 46.1428 30.7417 46.4242C31.6663 46.7056 32.644 46.1842 32.9254 45.2595L34.195 41.088C34.6789 39.4981 34.2471 37.771 33.072 36.5958Z" fill="currentColor"/>
</g>
<defs>
<clipPath id="clip0_45_257">
<rect width="48" height="48" fill="white"/>
</clipPath>
</defs>
</svg>
