<svg width="48" height="48" viewBox="0 0 48 48" fill="none" xmlns="http://www.w3.org/2000/svg">
<g clip-path="url(#clip0_985_3781)">
<path d="M10.5 7.25085C10.5 6.83664 10.8358 6.50085 11.25 6.50085H30.75C31.1642 6.50085 31.5 6.83664 31.5 7.25085C31.5 7.66507 31.1642 8.00085 30.75 8.00085H11.25C10.8358 8.00085 10.5 7.66507 10.5 7.25085Z" fill="currentColor"/>
<path d="M31.5 12.0009C31.5 11.4486 31.0523 11.0009 30.5 11.0009H11.5C10.9477 11.0009 10.5 11.4486 10.5 12.0009V20.0009C10.5 20.5531 10.9477 21.0009 11.5 21.0009H30.5C31.0523 21.0009 31.5 20.5531 31.5 20.0009V12.0009Z" fill="currentColor"/>
<path d="M10.5 25.7509C10.5 25.3366 10.8358 25.0009 11.25 25.0009H30.75C31.1642 25.0009 31.5 25.3366 31.5 25.7509C31.5 26.1651 31.1642 26.5009 30.75 26.5009H11.25C10.8358 26.5009 10.5 26.1651 10.5 25.7509Z" fill="currentColor"/>
<path d="M31.5 28.7509C31.5 28.3366 31.1642 28.0009 30.75 28.0009H11.25C10.8358 28.0009 10.5 28.3366 10.5 28.7509C10.5 29.1651 10.8358 29.5009 11.25 29.5009H30.75C31.1642 29.5009 31.5 29.1651 31.5 28.7509Z" fill="currentColor"/>
<path d="M10.5 34.7509C10.5 34.3366 10.8358 34.0009 11.25 34.0009H19.25C19.6642 34.0009 20 34.3366 20 34.7509C20 35.1651 19.6642 35.5009 19.25 35.5009H11.25C10.8358 35.5009 10.5 35.1651 10.5 34.7509Z" fill="currentColor"/>
<path d="M31.5 34.7509C31.5 34.3366 31.1642 34.0009 30.75 34.0009H22.75C22.3358 34.0009 22 34.3366 22 34.7509C22 35.1651 22.3358 35.5009 22.75 35.5009H30.75C31.1642 35.5009 31.5 35.1651 31.5 34.7509Z" fill="currentColor"/>
<path d="M10.5 37.7509C10.5 37.3366 10.8358 37.0009 11.25 37.0009H19.25C19.6642 37.0009 20 37.3366 20 37.7509C20 38.1651 19.6642 38.5009 19.25 38.5009H11.25C10.8358 38.5009 10.5 38.1651 10.5 37.7509Z" fill="currentColor"/>
<path d="M20 40.7509C20 40.3366 19.6642 40.0009 19.25 40.0009H11.25C10.8358 40.0009 10.5 40.3366 10.5 40.7509C10.5 41.1651 10.8358 41.5009 11.25 41.5009H19.25C19.6642 41.5009 20 41.1651 20 40.7509Z" fill="currentColor"/>
<path d="M22 37.7509C22 37.3366 22.3358 37.0009 22.75 37.0009H30.75C31.1642 37.0009 31.5 37.3366 31.5 37.7509C31.5 38.1651 31.1642 38.5009 30.75 38.5009H22.75C22.3358 38.5009 22 38.1651 22 37.7509Z" fill="currentColor"/>
<path d="M31.5 40.7509C31.5 40.3366 31.1642 40.0009 30.75 40.0009H22.75C22.3358 40.0009 22 40.3366 22 40.7509C22 41.1651 22.3358 41.5009 22.75 41.5009H30.75C31.1642 41.5009 31.5 41.1651 31.5 40.7509Z" fill="currentColor"/>
<path fill-rule="evenodd" clip-rule="evenodd" d="M6 0.000854492C4.89543 0.000854492 4 0.896286 4 2.00086V44.0009C4 46.21 5.79086 48.0009 8 48.0009H40L39.9912 47.9921C40.0767 47.9979 40.163 48.0009 40.25 48.0009C42.3211 48.0009 44 46.3219 44 44.2509V25.2509C44 24.1463 43.1046 23.2509 42 23.2509H38V2.00085C38 0.896285 37.1046 0.000854492 36 0.000854492H6ZM36.5 2.00085C36.5 1.72471 36.2761 1.50085 36 1.50085H6C5.72386 1.50085 5.5 1.72471 5.5 2.00085V44.0009C5.5 45.3816 6.61929 46.5009 8 46.5009H37.2497C36.779 45.8741 36.5 45.0951 36.5 44.2509V2.00085ZM38 44.2509V24.7509H42C42.2761 24.7509 42.5 24.9747 42.5 25.2509V44.2509C42.5 45.4935 41.4926 46.5009 40.25 46.5009C39.0074 46.5009 38 45.4935 38 44.2509Z" fill="currentColor"/>
</g>
<defs>
<clipPath id="clip0_985_3781">
<rect width="48" height="48" fill="white" transform="translate(0 0.000854492)"/>
</clipPath>
</defs>
</svg>
