<svg width="48" height="48" viewBox="0 0 48 48" fill="none" xmlns="http://www.w3.org/2000/svg">
<g clip-path="url(#clip0_45_226)">
<path fill-rule="evenodd" clip-rule="evenodd" d="M13 22C11.8954 22 11 22.8954 11 24V26C11 27.1046 11.8954 28 13 28H21C22.1046 28 23 27.1046 23 26V24C23 22.8954 22.1046 22 21 22H13ZM21 23.5H13C12.7239 23.5 12.5 23.7239 12.5 24V26C12.5 26.2761 12.7239 26.5 13 26.5H21C21.2761 26.5 21.5 26.2761 21.5 26V24C21.5 23.7239 21.2761 23.5 21 23.5Z" fill="currentColor"/>
<path fill-rule="evenodd" clip-rule="evenodd" d="M34.7072 15H41.655C42.3975 15 43.079 15.4114 43.4248 16.0685L47.8842 24.5343C48.2347 25.2002 47.7468 26 46.9943 26H42.9704L42.9948 41C42.9948 42.1046 42.0995 43 40.9951 43H5.72492C4.62048 43 3.72516 42.1046 3.72516 41V18L1.39948 22.0287C1.19239 22.3874 0.733756 22.5103 0.37508 22.3032C0.0164038 22.0961 -0.106488 21.6374 0.100594 21.2787L3.14788 16C3.5051 15.3812 4.16527 15 4.87972 15H8.29301L18.1466 5.14645C18.3418 4.95118 18.6584 4.95118 18.8537 5.14645L22.5001 8.7929L25.1466 6.14645C25.3418 5.95118 25.6584 5.95118 25.8537 6.14645L34.7072 15ZM28.7072 15H32.5859L25.5001 7.91421L23.5608 9.85356L28.7072 15ZM10.4143 15L18.5001 6.91421L26.5859 15H10.4143ZM34.3725 26C34.0013 26 33.6606 25.7943 33.4877 25.4657L29.9964 18.7852V41.5H40.9951C41.2712 41.5 41.495 41.2761 41.495 41V26H34.3725ZM28.4966 41.5V16.5H5.22498V41C5.22498 41.2761 5.44881 41.5 5.72492 41.5H28.4966ZM30.4643 16.5L34.6743 24.5H46.2279L41.955 16.5H30.4643Z" fill="currentColor"/>
</g>
<defs>
<clipPath id="clip0_45_226">
<rect width="48" height="48" fill="white"/>
</clipPath>
</defs>
</svg>
