<svg width="48" height="48" viewBox="0 0 48 48" fill="none" xmlns="http://www.w3.org/2000/svg">
<path fill-rule="evenodd" clip-rule="evenodd" d="M40 19.501C40 23.6431 36.6421 27.001 32.5 27.001C28.3579 27.001 25 23.6431 25 19.501C25 15.3588 28.3579 12.001 32.5 12.001C36.6421 12.001 40 15.3588 40 19.501ZM38.5 19.501C38.5 20.1097 38.4093 20.6973 38.2408 21.251H36.0727C36.1846 20.7033 36.25 20.1188 36.25 19.5006C36.25 18.8827 36.1847 18.2985 36.0728 17.751H38.2408C38.4093 18.3046 38.5 18.8922 38.5 19.501ZM34.5352 17.751C34.6694 18.2923 34.75 18.8771 34.75 19.5006C34.75 20.1245 34.6693 20.7094 34.535 21.251H30.465C30.3307 20.7094 30.25 20.1245 30.25 19.5006C30.25 18.8771 30.3306 18.2923 30.4648 17.751H34.5352ZM35.628 16.251H37.5444C36.7746 15.0586 35.5936 14.1567 34.202 13.7458C34.3398 13.925 34.482 14.1215 34.624 14.3346C34.9793 14.8676 35.3382 15.5103 35.628 16.251ZM30.798 13.7458C29.4064 14.1567 28.2254 15.0586 27.4556 16.251H29.372C29.6618 15.5103 30.0207 14.8676 30.376 14.3346C30.518 14.1215 30.6602 13.925 30.798 13.7458ZM31.0061 16.251C31.1976 15.8503 31.41 15.4878 31.624 15.1667C31.9382 14.6955 32.2521 14.3195 32.5 14.0506C32.7479 14.3195 33.0618 14.6955 33.376 15.1667C33.59 15.4878 33.8024 15.8503 33.9939 16.251H31.0061ZM28.9272 17.751H26.7592C26.5907 18.3046 26.5 18.8922 26.5 19.501C26.5 20.1097 26.5907 20.6973 26.7592 21.251H28.9273C28.8154 20.7033 28.75 20.1188 28.75 19.5006C28.75 18.8827 28.8153 18.2985 28.9272 17.751ZM29.3723 22.751H27.4556C28.2255 23.9435 29.4067 24.8455 30.7986 25.2563C30.6606 25.0769 30.5183 24.8801 30.376 24.6667C30.0208 24.1339 29.6621 23.4913 29.3723 22.751ZM34.2014 25.2563C35.5933 24.8455 36.7745 23.9435 37.5444 22.751H35.6277C35.3379 23.4913 34.9792 24.1339 34.624 24.6667C34.4817 24.8801 34.3394 25.0769 34.2014 25.2563ZM31.0065 22.751C31.1978 23.1514 31.4101 23.5137 31.624 23.8346C31.9382 24.3058 32.2521 24.6818 32.5 24.9507C32.7479 24.6818 33.0618 24.3058 33.376 23.8346C33.5899 23.5137 33.8022 23.1514 33.9935 22.751H31.0065Z" fill="currentColor"/>
<path d="M34.25 30.501C34.6642 30.501 35 30.8368 35 31.251C35 31.6652 34.6642 32.001 34.25 32.001H26.75C26.3358 32.001 26 31.6652 26 31.251C26 30.8368 26.3358 30.501 26.75 30.501H34.25Z" fill="currentColor"/>
<path d="M43 35.251C43 35.6652 42.6642 36.001 42.25 36.001H26.75C26.3358 36.001 26 35.6652 26 35.251C26 34.8368 26.3358 34.501 26.75 34.501H42.25C42.6642 34.501 43 34.8368 43 35.251Z" fill="currentColor"/>
<path fill-rule="evenodd" clip-rule="evenodd" d="M20 22.501C20 25.5385 17.5376 28.001 14.5 28.001C11.4624 28.001 9 25.5385 9 22.501C9 19.4634 11.4624 17.001 14.5 17.001C17.5376 17.001 20 19.4634 20 22.501ZM18.5 22.501C18.5 24.7101 16.7091 26.501 14.5 26.501C12.2909 26.501 10.5 24.7101 10.5 22.501C10.5 20.2918 12.2909 18.501 14.5 18.501C16.7091 18.501 18.5 20.2918 18.5 22.501Z" fill="currentColor"/>
<path fill-rule="evenodd" clip-rule="evenodd" d="M0 39.001C0 40.1055 0.895431 41.001 2 41.001H46C47.1046 41.001 48 40.1055 48 39.001V9.00098C48 7.89641 47.1046 7.00098 46 7.00098H2C0.895432 7.00098 0 7.89641 0 9.00098V39.001ZM2 8.50098C1.72386 8.50098 1.5 8.72483 1.5 9.00098V39.001C1.5 39.2771 1.72386 39.501 2 39.501H6V37.501C6 32.8066 9.80558 29.001 14.5 29.001C19.1944 29.001 23 32.8066 23 37.501V39.501H46C46.2761 39.501 46.5 39.2771 46.5 39.001V9.00098C46.5 8.72483 46.2761 8.50098 46 8.50098H2ZM21.5 39.501V37.501C21.5 33.635 18.366 30.501 14.5 30.501C10.634 30.501 7.5 33.635 7.5 37.501V39.501H21.5Z" fill="currentColor"/>
</svg>
