<svg width="48" height="48" viewBox="0 0 48 48" fill="none" xmlns="http://www.w3.org/2000/svg">
<g clip-path="url(#clip0_985_3784)">
<path fill-rule="evenodd" clip-rule="evenodd" d="M11.7 7.60096L11.6956 7.65805C11.5488 9.57934 12.0729 12.0267 13.167 13.9629C14.2703 15.9151 15.7377 17.0151 17.3556 17.0151C18.352 17.0151 19.2097 16.4429 19.8939 15.2724C20.5876 14.0858 20.9667 12.4722 20.9667 10.9723C20.9667 9.00122 20.3515 6.51273 19.2441 4.55313C18.1098 2.54589 16.717 1.50085 15.3111 1.50085C14.3147 1.50085 13.457 2.07313 12.7727 3.2436C12.079 4.43023 11.7 6.04384 11.7 7.54371V7.60096ZM34.243 13.9946C35.3523 12.0703 35.9593 9.67025 35.9593 7.88657C35.9593 6.3867 35.5802 4.77309 34.8865 3.58646C34.2023 2.41599 33.3446 1.84371 32.3482 1.84371C30.9375 1.84371 29.5443 2.89439 28.4088 4.86423C27.2996 6.78856 26.6926 9.18861 26.6926 10.9723C26.6926 12.4722 27.0716 14.0858 27.7653 15.2724C28.4496 16.4429 29.3073 17.0151 30.3037 17.0151C31.7144 17.0151 33.1076 15.9645 34.243 13.9946ZM38.431 19.5278C37.253 21.4013 36.5741 23.7836 36.5741 25.7151C36.5741 27.0686 36.8779 28.3112 37.4105 29.1623C37.9071 29.956 38.5697 30.3866 39.5037 30.3866C40.9697 30.3866 42.4447 29.3514 43.6431 27.4453C44.8211 25.5718 45.5 23.1895 45.5 21.258C45.5 19.9671 45.1388 18.7218 44.557 17.8436C43.9842 16.9792 43.2953 16.5866 42.5704 16.5866C41.1043 16.5866 39.6294 17.6217 38.431 19.5278ZM9.45289 19.5461C8.18732 17.5961 6.70706 16.5866 5.42963 16.5866C4.49564 16.5866 3.83305 17.0171 3.33639 17.8108C2.80383 18.6619 2.5 19.9046 2.5 21.258C2.5 23.1563 3.24432 25.5339 4.47304 27.4271C5.73861 29.377 7.21887 30.3866 8.4963 30.3866C9.43029 30.3866 10.0929 29.956 10.5895 29.1623C11.1221 28.3112 11.4259 27.0686 11.4259 25.7151C11.4259 23.8168 10.6816 21.4392 9.45289 19.5461ZM10.234 45.8475C10.8032 46.264 11.7094 46.5009 12.9259 46.5009C14.6486 46.5009 16.1882 45.9279 17.9573 45.2332C18.0228 45.2075 18.0887 45.1816 18.155 45.1555C19.7993 44.5084 21.7063 43.758 23.8296 43.758C25.7978 43.758 27.6288 44.5159 29.1745 45.1557C29.2454 45.1851 29.3157 45.2142 29.3853 45.2429C31.0791 45.9421 32.5183 46.5009 34.0519 46.5009C35.344 46.5009 36.4622 46.3277 37.2173 45.8893C37.8315 45.5328 38.3444 44.9314 38.3444 43.5437C38.3444 40.5974 37.4617 39.019 36.4432 37.8065C36.0417 37.3284 35.6373 36.9255 35.1953 36.4852C35.016 36.3066 34.8305 36.1218 34.6366 35.9234C34.0045 35.2767 33.3244 34.5216 32.8238 33.5671C31.9703 31.9395 31.3633 30.3406 30.8326 28.9294L30.8013 28.8459C30.2711 27.4357 29.8322 26.2682 29.2881 25.2863C28.7493 24.3139 28.1571 23.6211 27.3824 23.1523C26.6066 22.6828 25.5113 22.3555 23.8296 22.3555C22.148 22.3555 21.0526 22.6828 20.2769 23.1523C19.5022 23.6211 18.91 24.3139 18.3712 25.2863C17.8271 26.2682 17.3882 27.4357 16.858 28.8459L16.8266 28.9294C16.296 30.3406 15.689 31.9395 14.8355 33.5671C14.3349 34.5216 13.6548 35.2767 13.0227 35.9234C12.8287 36.1219 12.6433 36.3066 12.464 36.4852C12.022 36.9255 11.6176 37.3284 11.216 37.8065C10.1976 39.019 9.31482 40.5974 9.31482 43.5437C9.31482 44.8688 9.74965 45.4931 10.234 45.8475ZM37.4593 7.88657C37.4593 12.0009 34.7333 18.5151 30.3037 18.5151C26.8963 18.5151 25.1926 14.4009 25.1926 10.9723C25.1926 6.858 27.9185 0.343711 32.3482 0.343711C35.7556 0.343711 37.4593 4.458 37.4593 7.88657ZM22.4667 10.9723C22.4667 14.4009 20.763 18.5151 17.3556 18.5151C12.5852 18.5151 9.85926 12.0009 10.2 7.54371C10.2 4.11514 11.9037 0.000854492 15.3111 0.000854492C19.7407 0.000854492 22.4667 6.51514 22.4667 10.9723ZM35.0741 25.7151C35.0741 21.258 38.1407 15.0866 42.5704 15.0866C45.2963 15.0866 47 18.1723 47 21.258C47 25.7151 43.9333 31.8866 39.5037 31.8866C36.437 31.8866 35.0741 28.8009 35.0741 25.7151ZM5.42963 15.0866C9.51852 15.0866 12.9259 21.258 12.9259 25.7151C12.9259 28.8009 11.563 31.8866 8.4963 31.8866C4.40741 31.8866 1 25.7151 1 21.258C1 18.1723 2.36296 15.0866 5.42963 15.0866ZM15.4765 28.258C17.0452 24.0842 18.2586 20.8555 23.8296 20.8555C29.4006 20.8555 30.6141 24.0842 32.1828 28.258C32.7295 29.7129 33.3195 31.2826 34.1522 32.8704C34.6547 33.8287 35.412 34.5831 36.2115 35.3797C37.9302 37.092 39.8444 38.9991 39.8444 43.5437C39.8444 47.3151 36.7778 48.0009 34.0519 48.0009C32.1331 48.0009 30.393 47.2821 28.6943 46.5804C27.0747 45.9114 25.4927 45.258 23.8296 45.258C21.9963 45.258 20.326 45.9142 18.6194 46.5847C16.837 47.285 15.0148 48.0009 12.9259 48.0009C10.2 48.0009 7.81482 46.9723 7.81482 43.5437C7.81482 38.9991 9.72903 37.092 11.4477 35.3797C12.2473 34.5831 13.0046 33.8287 13.5071 32.8704C14.3398 31.2826 14.9297 29.7129 15.4765 28.258Z" fill="currentColor"/>
</g>
<defs>
<clipPath id="clip0_985_3784">
<rect width="48" height="48" fill="white" transform="translate(0 0.000854492)"/>
</clipPath>
</defs>
</svg>
