<svg width="48" height="48" viewBox="0 0 48 48" fill="none" xmlns="http://www.w3.org/2000/svg">
<g clip-path="url(#clip0_3028_9109)">
<path d="M8 26.7509C8 26.3366 8.33579 26.0009 8.75 26.0009H11.25C11.6642 26.0009 12 26.3366 12 26.7509C12 27.1651 11.6642 27.5009 11.25 27.5009H8.75C8.33579 27.5009 8 27.1651 8 26.7509Z" fill="currentColor"/>
<path d="M14.75 26.0009C14.3358 26.0009 14 26.3366 14 26.7509C14 27.1651 14.3358 27.5009 14.75 27.5009H23.25C23.6642 27.5009 24 27.1651 24 26.7509C24 26.3366 23.6642 26.0009 23.25 26.0009H14.75Z" fill="currentColor"/>
<path fill-rule="evenodd" clip-rule="evenodd" d="M10 5.00085C8.89543 5.00085 8 5.89629 8 7.00085V20.0009C8 21.1054 8.89543 22.0009 10 22.0009H26C27.1046 22.0009 28 21.1054 28 20.0009V7.00085C28 5.89629 27.1046 5.00085 26 5.00085H10ZM26 6.50085H10C9.72386 6.50085 9.5 6.72471 9.5 7.00085V20.0009C9.5 20.277 9.72386 20.5009 10 20.5009H26C26.2761 20.5009 26.5 20.277 26.5 20.0009V7.00085C26.5 6.72471 26.2761 6.50085 26 6.50085Z" fill="currentColor"/>
<path fill-rule="evenodd" clip-rule="evenodd" d="M33 25.2769V46.5009H39.25C39.6642 46.5009 40 46.8366 40 47.2509C40 47.6651 39.6642 48.0009 39.25 48.0009H1.75C1.33579 48.0009 1 47.6651 1 47.2509C1 46.8366 1.33579 46.5009 1.75 46.5009H3V6.00085C3 2.68715 5.68629 0.000854492 9 0.000854492H27C30.3137 0.000854492 33 2.68715 33 6.00085V23.7706C36.218 24.0253 38.75 26.7174 38.75 30.0009V37.7216C38.75 39.6708 40.3301 41.2509 42.2792 41.2509C44.3649 41.2509 45.9957 39.4518 45.7915 37.3762L44.3324 22.5416L41.1668 21.2754C39.998 20.8079 39.2959 19.6064 39.4623 18.3586L40.0251 14.1374C40.2072 12.7712 41.3727 11.7509 42.751 11.7509H42.9383C42.744 11.3913 42.4976 11.0591 42.2044 10.7659L35.9697 4.53118C35.6768 4.23829 35.6768 3.76342 35.9697 3.47052C36.2626 3.17763 36.7374 3.17763 37.0303 3.47052L43.265 9.70523C44.2059 10.6461 44.7913 11.8841 44.9216 13.2082L47.2843 37.2293C47.5752 40.1872 45.2514 42.7509 42.2792 42.7509C39.5017 42.7509 37.25 40.4992 37.25 37.7216V30.0009C37.25 27.5464 35.3883 25.5267 33 25.2769ZM9 1.50085H27C29.4853 1.50085 31.5 3.51557 31.5 6.00085V46.5009H4.5V6.00085C4.5 3.51557 6.51472 1.50085 9 1.50085ZM43.4172 13.2509H42.751C42.1245 13.2509 41.5947 13.7146 41.5119 14.3356L40.9491 18.5569C40.8735 19.124 41.1926 19.6702 41.7239 19.8827L44.1669 20.8599L43.4288 13.3551C43.4253 13.3203 43.4215 13.2855 43.4172 13.2509Z" fill="currentColor"/>
<path d="M41.75 46.5009C41.3358 46.5009 41 46.8366 41 47.2509C41 47.6651 41.3358 48.0009 41.75 48.0009H44.25C44.6642 48.0009 45 47.6651 45 47.2509C45 46.8366 44.6642 46.5009 44.25 46.5009H41.75Z" fill="currentColor"/>
</g>
<defs>
<clipPath id="clip0_3028_9109">
<rect width="48" height="48" fill="white" transform="translate(0 0.000854492)"/>
</clipPath>
</defs>
</svg>
