<svg width="48" height="48" viewBox="0 0 48 48" fill="none" xmlns="http://www.w3.org/2000/svg">
<path fill-rule="evenodd" clip-rule="evenodd" d="M0 12.0009C0 5.37344 5.37258 0.000854492 12 0.000854492C18.6274 0.000854492 24 5.37344 24 12.0009V36.0009C24 42.6283 18.6274 48.0009 12 48.0009C5.37258 48.0009 0 42.6283 0 36.0009V12.0009ZM1.5 23.2509V12.0009C1.5 6.20186 6.20101 1.50085 12 1.50085C17.799 1.50085 22.5 6.20186 22.5 12.0009V23.2509H1.5ZM1.5 24.7509V36.0009C1.5 41.7998 6.20101 46.5009 12 46.5009C17.799 46.5009 22.5 41.7998 22.5 36.0009V24.7509H1.5Z" fill="currentColor"/>
<path fill-rule="evenodd" clip-rule="evenodd" d="M36.5 48.0009C42.8513 48.0009 48 42.8521 48 36.5009C48 30.1496 42.8513 25.0009 36.5 25.0009C30.1487 25.0009 25 30.1496 25 36.5009C25 42.8521 30.1487 48.0009 36.5 48.0009ZM36.5 46.5009C42.0229 46.5009 46.5 42.0237 46.5 36.5009C46.5 34.0095 45.5889 31.7309 44.0818 29.9801L29.9792 44.0826C31.73 45.5898 34.0086 46.5009 36.5 46.5009ZM28.9186 43.022L43.0211 28.9194C41.2703 27.4121 38.9916 26.5009 36.5 26.5009C30.9772 26.5009 26.5 30.978 26.5 36.5009C26.5 38.9924 27.4112 41.2711 28.9186 43.022Z" fill="currentColor"/>
</svg>
