<svg width="48" height="48" viewBox="0 0 48 48" fill="none" xmlns="http://www.w3.org/2000/svg">
<path fill-rule="evenodd" clip-rule="evenodd" d="M5 12.0009C5 11.4486 5.44772 11.0009 6 11.0009H15C15.5523 11.0009 16 11.4486 16 12.0009V31.0009C16 31.5531 15.5523 32.0009 15 32.0009H6C5.44771 32.0009 5 31.5531 5 31.0009V12.0009ZM6.5 30.5009V12.5009H14.5V30.5009H6.5Z" fill="currentColor"/>
<path d="M40 13.0009C40 13.4151 39.6642 13.7509 39.25 13.7509H20.75C20.3358 13.7509 20 13.4151 20 13.0009C20 12.5866 20.3358 12.2509 20.75 12.2509H39.25C39.6642 12.2509 40 12.5866 40 13.0009Z" fill="currentColor"/>
<path d="M20 18.0009C20 18.4151 20.3358 18.7509 20.75 18.7509H39.25C39.6642 18.7509 40 18.4151 40 18.0009C40 17.5866 39.6642 17.2509 39.25 17.2509H20.75C20.3358 17.2509 20 17.5866 20 18.0009Z" fill="currentColor"/>
<path d="M28 23.0009C28 23.4151 27.6642 23.7509 27.25 23.7509H20.75C20.3358 23.7509 20 23.4151 20 23.0009C20 22.5866 20.3358 22.2509 20.75 22.2509H27.25C27.6642 22.2509 28 22.5866 28 23.0009Z" fill="currentColor"/>
<path d="M32.4975 23.0243L41.7489 26.4715C41.8213 26.4965 41.8841 26.5435 41.9285 26.6059C41.9729 26.6682 41.9968 26.7429 41.9968 26.8195C41.9968 26.8961 41.9729 26.9707 41.9285 27.0331C41.8841 27.0955 41.8213 27.1425 41.7489 27.1675L38.5706 28.1509L41.9184 31.4139C41.9869 31.4829 42.0254 31.5762 42.0254 31.6735C42.0254 31.7708 41.9869 31.8642 41.9184 31.9332L41.0529 32.7987C40.9839 32.8673 40.8905 32.9058 40.7932 32.9058C40.6959 32.9058 40.6026 32.8673 40.5336 32.7987L37.1748 29.5209L36.1841 32.7434C36.161 32.8165 36.1157 32.8806 36.0545 32.9267C35.9933 32.9728 35.9192 32.9987 35.8426 33.0007C35.766 33.0028 35.6907 32.9808 35.6271 32.938C35.5635 32.8952 35.5149 32.8336 35.488 32.7618L32.0224 23.4957C31.9982 23.4295 31.9935 23.3578 32.0088 23.289C32.0241 23.2203 32.0589 23.1573 32.1089 23.1077C32.1589 23.0581 32.2221 23.0239 32.291 23.0091C32.3599 22.9943 32.4315 22.9995 32.4975 23.0243Z" fill="currentColor"/>
<path fill-rule="evenodd" clip-rule="evenodd" d="M0 8.00085C0 6.89628 0.895431 6.00085 2 6.00085H46C47.1046 6.00085 48 6.89628 48 8.00085V35.0009C48 36.1054 47.1046 37.0009 46 37.0009H28.4545L29.2545 41.0009H40.4545C41.0068 41.0009 41.4545 41.4486 41.4545 42.0009C41.4545 42.5531 41.0068 43.0009 40.4545 43.0009H7.54541C6.99313 43.0009 6.54541 42.5531 6.54541 42.0009C6.54541 41.4486 6.99313 41.0009 7.54541 41.0009H18.7454L19.5454 37.0009H2C0.895432 37.0009 0 36.1054 0 35.0009V8.00085ZM2 7.50085H46C46.2761 7.50085 46.5 7.72471 46.5 8.00085V35.0009C46.5 35.277 46.2761 35.5009 46 35.5009H2C1.72386 35.5009 1.5 35.277 1.5 35.0009V8.00085C1.5 7.72471 1.72386 7.50085 2 7.50085Z" fill="currentColor"/>
</svg>
