<svg width="48" height="48" viewBox="0 0 48 48" fill="none" xmlns="http://www.w3.org/2000/svg">
<g clip-path="url(#clip0_45_255)">
<path fill-rule="evenodd" clip-rule="evenodd" d="M18 42.3485C18.0658 42.3489 18.131 42.3365 18.1919 42.312C18.2528 42.2876 18.3082 42.2516 18.355 42.2061L22.2394 38.3853C22.7267 37.9017 23 37.2487 23 36.5682C23 35.8878 22.7267 35.2348 22.2394 34.7512C21.7484 34.2701 21.0832 34 20.3897 34C19.6962 34 19.031 34.2701 18.5399 34.7512L18 35.2815L17.4601 34.7512C16.969 34.2701 16.3038 34 15.6103 34C14.9168 34 14.2516 34.2701 13.7606 34.7512C13.2733 35.2348 13 35.8878 13 36.5682C13 37.2487 13.2733 37.9017 13.7606 38.3853L17.645 42.2061C17.6918 42.2516 17.7472 42.2876 17.8081 42.312C17.869 42.3365 17.9342 42.3489 18 42.3485ZM18 40.4512L21.1846 37.3188C21.3898 37.1142 21.5 36.8441 21.5 36.5682C21.5 36.2931 21.3904 36.0237 21.1862 35.8192C20.9786 35.6177 20.6929 35.5 20.3897 35.5C20.0851 35.5 19.7981 35.6188 19.5902 35.8221C19.59 35.8223 19.5904 35.8219 19.5902 35.8221L18 37.3842L16.4104 35.8227C16.4102 35.8225 16.4106 35.8229 16.4104 35.8227C16.2025 35.6194 15.9149 35.5 15.6103 35.5C15.3071 35.5 15.0214 35.6177 14.8138 35.8192C14.6096 36.0237 14.5 36.2931 14.5 36.5682C14.5 36.8441 14.6102 37.1142 14.8154 37.3188L18 40.4512ZM18.0055 41.8474L18.0033 41.8419Z" fill="currentColor"/>
<path fill-rule="evenodd" clip-rule="evenodd" d="M33.7249 17.1595C34.7578 13.2858 34.6758 8.03226 32.7656 4.35782C31.7994 2.49908 30.3377 0.997708 28.2761 0.346423C26.2215 -0.302685 23.7007 -0.0662153 20.6934 1.2819C20.4405 1.39528 20.2811 1.63153 20.2541 1.88869C18.4107 3.48635 18.4681 5.69247 18.4949 6.72152C18.4977 6.82748 18.5001 6.921 18.5001 7.00004C18.5001 7.16699 18.4206 7.40831 18.2375 7.68692C18.0601 7.95692 17.8326 8.18928 17.6532 8.32636C17.4159 8.50775 17.2467 8.80425 17.2511 9.14595C17.2803 11.4344 18.0066 12.8717 19.0871 13.6521C19.8628 14.2124 20.7346 14.37 21.4656 14.3325C21.4838 14.5906 21.4588 14.9821 21.284 15.5205C20.8457 16.8699 19.4672 19.1343 15.5198 22.4238C14.8585 22.9749 14.4283 23.5657 14.2081 24.1855C13.9864 24.8098 13.9963 25.4114 14.1323 25.948C14.3679 26.8776 14.9819 27.6169 15.4269 28.0589C15.2457 28.2436 15.0452 28.4394 14.8323 28.6474C13.9816 29.4781 12.9325 30.5026 12.1231 31.7901C11.0065 33.5664 10.2962 35.8776 10.7574 39.106C11.2072 42.2542 12.4569 43.9405 14.2066 46.3015L14.2073 46.3025C14.5291 46.7368 14.8679 47.1939 15.2216 47.6871C15.4631 48.0237 15.9316 48.1008 16.2682 47.8594C16.6048 47.618 16.6819 47.1494 16.4405 46.8128C16.0601 46.2825 15.7062 45.8031 15.378 45.3587C13.6487 43.0168 12.6353 41.6443 12.2423 38.8939C11.8322 36.0228 12.4624 34.069 13.393 32.5885C14.099 31.4655 14.9545 30.6294 15.777 29.8257C16.0864 29.5234 16.3911 29.2256 16.6815 28.9188C17.2176 28.3523 17.0598 27.5352 16.5967 27.1031C16.2141 26.7461 15.7412 26.1904 15.5863 25.5794C15.5135 25.292 15.5118 24.9967 15.6216 24.6876C15.733 24.3741 15.9776 23.9949 16.4801 23.5761C20.5256 20.2049 22.147 17.7192 22.7106 15.9838C22.9952 15.1074 23.0096 14.4224 22.9262 13.9239C22.8848 13.6767 22.8206 13.4822 22.7593 13.3393C22.7287 13.268 22.6991 13.21 22.6737 13.165C22.6618 13.144 22.6509 13.1258 22.6412 13.1105C22.5481 12.9571 22.4034 12.8438 22.2367 12.7882C22.1594 12.7624 22.0773 12.7491 21.9934 12.7499C21.9284 12.7504 21.8631 12.7594 21.7994 12.777C21.295 12.8979 20.5622 12.8672 19.9654 12.4361C19.4128 12.037 18.8252 11.1828 18.7567 9.35924C19.0133 9.13224 19.2755 8.83872 19.491 8.51071C19.7554 8.10839 20.0001 7.57699 20.0001 7.00004C20.0001 6.89825 19.9985 6.79071 19.9968 6.67839C19.9801 5.56976 19.9563 3.99495 21.4161 2.87582C22.1003 3.04566 22.5196 3.15919 22.8982 3.36539C23.3317 3.60145 23.7503 3.98887 24.3785 4.91964C24.8619 5.63585 25.0868 6.47838 25.1685 7.44073C25.2464 8.35952 25.1911 9.33345 25.1323 10.3691L25.1217 10.5556C25.0027 12.6671 24.8718 15.131 26.4257 16.9822C27.6431 18.4326 28.9858 19.4859 30.5129 20.1266L34.7543 26.6518C35.8129 28.2805 35.6326 30.4197 34.3162 31.8482L28.2542 38.4261C28.073 38.0405 27.8827 37.6296 27.6827 37.1897C27.6114 37.0327 27.5456 36.8754 27.4852 36.7179L31.7262 30.4993C32.1397 29.893 32.131 29.0932 31.7045 28.4961L29.9837 26.087C29.5208 25.439 28.519 25.3548 27.9994 26.0573C26.1878 28.5063 24.2304 33.2191 26.3172 37.8103C26.9466 39.1952 27.4816 40.2967 27.9368 41.2187C28.051 41.4501 28.1596 41.669 28.263 41.8775L28.2635 41.8784C28.5745 42.5055 28.8392 43.0389 29.0699 43.5351C29.6718 44.8289 30.0217 45.8231 30.2588 47.3641C30.3218 47.7735 30.7047 48.0543 31.1141 47.9913C31.5235 47.9283 31.8043 47.5454 31.7414 47.136C31.4784 45.427 31.0783 44.2961 30.43 42.9024C30.1905 42.3877 29.9141 41.8305 29.6003 41.1978C29.4981 40.9918 29.392 40.7779 29.2818 40.5548C29.1761 40.3406 29.0662 40.1169 28.9518 39.8825L35.4192 32.8647C37.2002 30.9321 37.4443 28.0379 36.012 25.8343L32.7009 20.7404C33.767 20.905 34.8965 20.9016 36.0979 20.7437C36.5086 20.6897 36.7978 20.313 36.7438 19.9023C36.6898 19.4916 36.3131 19.2025 35.9024 19.2565C34.1831 19.4825 32.7069 19.3479 31.3965 18.8631C31.3178 18.8142 31.2311 18.7806 31.1412 18.7634C29.8559 18.2343 28.6835 17.3389 27.5746 16.0179C26.4655 14.6965 26.4932 12.8771 26.6193 10.64L26.6315 10.4261C26.689 9.41812 26.7504 8.34312 26.6631 7.31392C26.5686 6.20012 26.2971 5.0809 25.6218 4.08047C24.9346 3.06234 24.3533 2.44977 23.6156 2.04805C23.5196 1.99579 23.4216 1.94763 23.3214 1.90283C25.1537 1.37551 26.6369 1.40162 27.8243 1.77674C29.4127 2.27858 30.601 3.44594 31.4347 5.0497C33.1246 8.30024 33.2425 13.1467 32.2755 16.773C32.1688 17.1733 32.4067 17.5842 32.8069 17.691C33.2072 17.7977 33.6181 17.5597 33.7249 17.1595ZM30.487 29.6541L26.9946 34.775C26.6152 31.8635 27.7484 29.0641 28.9812 27.2643L30.4839 29.3679C30.5448 29.4532 30.546 29.5675 30.487 29.6541Z" fill="currentColor"/>
</g>
<defs>
<clipPath id="clip0_45_255">
<rect width="48" height="48" fill="white"/>
</clipPath>
</defs>
</svg>
