<svg width="48" height="48" viewBox="0 0 48 48" fill="none" xmlns="http://www.w3.org/2000/svg">
<g clip-path="url(#clip0_7051_11938)">
<path fill-rule="evenodd" clip-rule="evenodd" d="M34.167 26.1284C34.2693 26.1968 34.3532 26.2894 34.4113 26.398C34.4694 26.5065 34.4999 26.6277 34.5 26.7509V38.0009C34.5 38.1506 34.4551 38.297 34.3711 38.421C34.2872 38.5451 34.168 38.6411 34.029 38.6969L34.0245 38.6984L34.0155 38.7029L33.981 38.7164C33.7838 38.7947 33.5853 38.8697 33.3855 38.9414C32.9895 39.0839 32.439 39.2759 31.815 39.4664C30.591 39.8444 28.9965 40.2509 27.75 40.2509C26.4795 40.2509 25.428 39.8309 24.513 39.4634L24.471 39.4484C23.52 39.0659 22.71 38.7509 21.75 38.7509C20.7 38.7509 19.293 39.0959 18.0945 39.4664C17.5579 39.6336 17.0262 39.8162 16.5 40.0139V47.2509C16.5 47.4498 16.421 47.6405 16.2803 47.7812C16.1397 47.9218 15.9489 48.0009 15.75 48.0009C15.5511 48.0009 15.3603 47.9218 15.2197 47.7812C15.079 47.6405 15 47.4498 15 47.2509V26.7509C15 26.5519 15.079 26.3612 15.2197 26.2205C15.3603 26.0799 15.5511 26.0009 15.75 26.0009C15.9489 26.0009 16.1397 26.0799 16.2803 26.2205C16.421 26.3612 16.5 26.5519 16.5 26.7509V27.1739C16.839 27.0554 17.244 26.9189 17.685 26.7839C18.909 26.4089 20.505 26.0009 21.75 26.0009C23.01 26.0009 24.036 26.4164 24.9315 26.7794L24.996 26.8064C25.929 27.1829 26.742 27.5009 27.75 27.5009C28.8 27.5009 30.207 27.1559 31.4055 26.7854C32.0885 26.5721 32.7634 26.3339 33.429 26.0714C33.429 26.0714 33.8 25.9008 34.167 26.1284ZM33 27.8324C32.67 27.9494 32.28 28.0829 31.851 28.2149C30.636 28.5929 29.043 28.9994 27.75 28.9994C26.421 28.9994 25.362 28.5704 24.4455 28.1984L24.4335 28.1939C23.493 27.8159 22.7085 27.5009 21.75 27.5009C20.8136 27.5009 19.5272 27.7999 18.3734 28.1434C20.4207 28.9833 22.321 30.1455 24.0018 31.5862L24.9157 32.3696C26.6401 33.2057 28.6244 33.3354 30.4447 32.7286L33 31.8769V27.8339V27.8324ZM33 33.458L30.919 34.1517C28.842 34.844 26.5876 34.74 24.5902 33.8706L19.78 37.4783C20.4559 37.342 21.1367 37.2509 21.75 37.2509C23.0205 37.2509 24.072 37.6709 24.987 38.0384L25.029 38.0534C25.98 38.4359 26.79 38.7509 27.75 38.7509C28.752 38.7509 30.159 38.4074 31.3725 38.0339C31.9198 37.865 32.4625 37.6814 33 37.4834V33.458ZM16.5 38.0633V29.0088L17.6471 29.4676C19.6064 30.2513 21.4234 31.3518 23.0256 32.7251L23.3018 32.9619L16.5 38.0633Z" fill="currentColor"/>
<path fill-rule="evenodd" clip-rule="evenodd" d="M34.4409 10.5009L36.2132 8.72857L27.7279 0.243286L17.4704 10.5009H7.16065C6.44293 10.5009 5.78024 10.8854 5.42416 11.5086L0.263514 20.5397C0.0908306 20.8419 0 21.1839 0 21.532V46.0009C0 47.1054 0.895432 48.0009 2 48.0009H46C47.1046 48.0009 48 47.1054 48 46.0009V21.532C48 21.1839 47.9092 20.8419 47.7365 20.5397L42.5758 11.5086C42.2198 10.8854 41.5571 10.5009 40.8394 10.5009H34.4409ZM27.7279 2.36461L17.1213 12.9712L19.151 15.0009H27.8196L34.0919 8.72857L27.7279 2.36461ZM15 12.9712L17.0296 15.0009H12.75C12.3358 15.0009 12 15.3366 12 15.7509C12 16.1651 12.3358 16.5009 12.75 16.5009H35.25C35.6642 16.5009 36 16.1651 36 15.7509C36 15.3366 35.6642 15.0009 35.25 15.0009H29.9409L32.9409 12.0009H40.8394C41.0188 12.0009 41.1845 12.097 41.2735 12.2528L45.7009 20.0009H2.29905L6.72652 12.2528C6.81555 12.097 6.98122 12.0009 7.16065 12.0009H15.9704L15 12.9712ZM1.50097 21.5009C1.50032 21.5112 1.5 21.5216 1.5 21.532V46.0009C1.5 46.277 1.72386 46.5009 2 46.5009H46C46.2761 46.5009 46.5 46.277 46.5 46.0009V21.532C46.5 21.5216 46.4997 21.5112 46.499 21.5009H1.50097Z" fill="currentColor"/>
</g>
<defs>
<clipPath id="clip0_7051_11938">
<rect width="48" height="48" fill="white" transform="translate(0 0.000854492)"/>
</clipPath>
</defs>
</svg>
