<svg width="48" height="48" viewBox="0 0 48 48" fill="none" xmlns="http://www.w3.org/2000/svg">
<path fill-rule="evenodd" clip-rule="evenodd" d="M34 14.6493V20.6493H40V14.6493H34ZM38.5 16.1493H35.5V19.1493H38.5V16.1493Z" fill="currentColor"/>
<path fill-rule="evenodd" clip-rule="evenodd" d="M43 10.6493L32.6727 1.26079C32.2913 0.914046 31.7087 0.914046 31.3273 1.26079L21 10.6493V12.4618L16.9805 10.2008C16.3717 9.85835 15.6283 9.85835 15.0195 10.2008L1.01948 18.0758C0.389725 18.43 0 19.0964 0 19.819V45.9394C0 46.7043 0.823657 47.186 1.49026 46.811L16 38.6493L31.0195 47.0977C31.6283 47.4402 32.3717 47.4402 32.9805 47.0977L46.9805 39.2227C47.6103 38.8685 48 38.2021 48 37.4796V11.3591C48 10.5943 47.1763 10.1126 46.5097 10.4875L43 12.4618V10.6493ZM43 14.1828V24.6493H32.75V45.5064L46.5 37.772V12.214L43 14.1828ZM31.25 24.6493H21V14.1828L16.75 11.7922V37.3501L31.25 45.5064V24.6493ZM32 2.67646L41.5 11.3128V23.1493H31V14.6493H24V23.1493H22.5V11.3128L32 2.67646ZM25.5 23.1493H29.5V16.1493H25.5V23.1493ZM15.25 11.7922L1.5 19.5265V45.0845L15.25 37.3501V11.7922Z" fill="currentColor"/>
</svg>
