<svg width="48" height="48" viewBox="0 0 48 48" fill="none" xmlns="http://www.w3.org/2000/svg">
<g clip-path="url(#clip0_4209_9797)">
<path fill-rule="evenodd" clip-rule="evenodd" d="M16.6228 0.000854492L16.67 0.00105291L16.7173 0.000854492C18.2086 0.000854492 19.6387 0.593252 20.6932 1.64773C21.7477 2.7022 22.3401 4.13238 22.3401 5.62363C22.3401 7.11488 21.7477 8.54506 20.6932 9.59953C19.6387 10.654 18.2086 11.2464 16.7173 11.2464L16.67 11.2462L16.6228 11.2464C15.1315 11.2464 13.7013 10.654 12.6469 9.59953C11.5924 8.54506 11 7.11488 11 5.62363C11 4.13238 11.5924 2.7022 12.6469 1.64773C13.7013 0.593252 15.1315 0.000854492 16.6228 0.000854492ZM16.67 9.74614L16.7173 9.74641C17.8107 9.74641 18.8594 9.31204 19.6326 8.53887C20.4057 7.7657 20.8401 6.71706 20.8401 5.62363C20.8401 4.5302 20.4057 3.48156 19.6326 2.70839C18.8594 1.93522 17.8107 1.50085 16.7173 1.50085L16.67 1.50113L16.6228 1.50085C15.5293 1.50085 14.4807 1.93522 13.7075 2.70839C12.9344 3.48156 12.5 4.5302 12.5 5.62363C12.5 6.71706 12.9344 7.7657 13.7075 8.53887C14.4807 9.31204 15.5293 9.74641 16.6228 9.74641L16.67 9.74614Z" fill="currentColor"/>
<path d="M19.3517 12.7526C20.0118 12.751 20.3224 13.5968 19.8299 14.0365C19.6962 14.1558 19.5057 14.2455 19.3265 14.2455H12.6403C11.4182 14.2455 10.2563 14.5202 9.22971 15.1427L9.2281 15.1437C8.20164 15.7643 7.44215 16.6491 6.89578 17.6662L6.8952 17.6673C5.84347 19.6212 5.5 22.211 5.5 25.0231V28.9891C5.49995 29.3447 5.58424 29.6954 5.74595 30.0121C5.90766 30.3288 6.14217 30.6026 6.43024 30.8111C6.71831 31.0196 7.05172 31.1568 7.40309 31.2114C7.75447 31.266 8.11378 31.2365 8.45155 31.1254C8.60464 31.075 8.91992 31.0009 8.91992 31.0009V22.5009C8.91992 22.0866 9.25571 21.7509 9.66992 21.7509C10.0841 21.7509 10.4199 22.0866 10.4199 22.5009C10.4199 26.1234 10.4201 29.7457 10.4202 33.3679C10.4204 36.9901 10.4206 40.6122 10.4206 44.2346C10.4198 44.8138 10.6425 45.371 11.0424 45.79C11.4423 46.209 11.9884 46.4575 12.567 46.4838C13.1456 46.5101 13.7121 46.3121 14.1483 45.931C14.5739 45.5593 14.8435 45.0413 14.9044 44.4806L15.1663 33.9498C15.1865 33.1362 15.8519 32.4871 16.6658 32.4871L16.67 32.4871L16.6743 32.4871C17.4882 32.4871 18.1535 33.1362 18.1738 33.9498L18.4357 44.4806C18.4966 45.0413 18.7662 45.5593 19.1918 45.931C19.628 46.3121 20.1945 46.5101 20.7731 46.4838C20.8763 46.4791 20.9785 46.4673 21.0791 46.4488C21.4622 46.3781 21.893 46.5179 22.0952 46.8509C22.3071 47.2 22.2213 47.6749 21.833 47.8015C21.5147 47.9053 21.1813 47.9668 20.8411 47.9823C19.8765 48.0261 18.9322 47.696 18.205 47.0608C17.9387 46.8281 17.709 46.5611 17.5206 46.2689C17.2027 45.7759 17.0024 45.211 16.9419 44.6181L16.9387 44.5857L16.9375 44.5725L16.6742 33.9871L16.67 34.1552L16.6658 33.9871L16.4026 44.5725L16.4014 44.5857L16.3982 44.6181C16.3377 45.211 16.1374 45.7759 15.8195 46.2689C15.6311 46.5611 15.4014 46.8281 15.1351 47.0608C14.4078 47.696 13.4636 48.0261 12.499 47.9823C11.5344 47.9384 10.6239 47.5241 9.95728 46.8256C9.29065 46.127 8.91928 45.1982 8.92055 44.2326C8.92055 42.2853 8.92039 40.3382 8.92024 38.3912C8.92008 36.4442 8.91992 34.4974 8.91992 32.5504C8.43624 32.7095 7.92606 32.7681 7.42055 32.7237C7.33775 32.7164 7.25507 32.7064 7.17266 32.6936C6.58688 32.6025 6.03105 32.3738 5.55081 32.0263C5.07057 31.6787 4.67961 31.2222 4.41002 30.6942C4.14044 30.1663 3.99992 29.5819 4 28.9891V25.0231C4 22.1368 4.34361 19.2429 5.57438 16.9563C6.22412 15.7468 7.15625 14.6435 8.45199 13.86C9.75022 13.0729 11.1909 12.7455 12.6403 12.7455C13.5566 12.7455 14.4731 12.7476 15.3895 12.7498C16.7101 12.7529 18.031 12.756 19.3517 12.7526Z" fill="currentColor"/>
<path fill-rule="evenodd" clip-rule="evenodd" d="M30.67 0.00105291L30.6228 0.000854492C29.1315 0.000854492 27.7013 0.593252 26.6469 1.64773C25.5924 2.7022 25 4.13238 25 5.62363C25 7.11488 25.5924 8.54506 26.6469 9.59953C27.7013 10.654 29.1315 11.2464 30.6228 11.2464L30.67 11.2462L30.7173 11.2464C32.2086 11.2464 33.6387 10.654 34.6932 9.59953C35.7477 8.54506 36.3401 7.11488 36.3401 5.62363C36.3401 4.13238 35.7477 2.7022 34.6932 1.64773C33.6387 0.593252 32.2086 0.000854492 30.7173 0.000854492L30.67 0.00105291ZM30.7173 9.74641L30.67 9.74614L30.6228 9.74641C29.5293 9.74641 28.4807 9.31204 27.7075 8.53887C26.9344 7.7657 26.5 6.71706 26.5 5.62363C26.5 4.5302 26.9344 3.48156 27.7075 2.70839C28.4807 1.93522 29.5293 1.50085 30.6228 1.50085L30.67 1.50113L30.7173 1.50085C31.8107 1.50085 32.8594 1.93522 33.6326 2.70839C34.4057 3.48156 34.8401 4.5302 34.8401 5.62363C34.8401 6.71706 34.4057 7.7657 33.6326 8.53887C32.8594 9.31204 31.8107 9.74641 30.7173 9.74641Z" fill="currentColor"/>
<path fill-rule="evenodd" clip-rule="evenodd" d="M38.8881 13.86C37.5899 13.0729 36.1492 12.7455 34.6998 12.7455H26.6403C25.1909 12.7455 23.7502 13.0729 22.452 13.86C21.1562 14.6435 20.2241 15.7468 19.5744 16.9563C18.3436 19.2429 18 22.1368 18 25.0231V28.9891C17.9999 29.5819 18.1404 30.1663 18.41 30.6942C18.6796 31.2222 19.0706 31.6787 19.5508 32.0263C20.0311 32.3738 20.5869 32.6025 21.1727 32.6936C21.2551 32.7064 21.3377 32.7164 21.4206 32.7237C21.9261 32.7681 22.4362 32.7095 22.9199 32.5504C22.9199 34.4974 22.9201 36.4442 22.9202 38.3912C22.9204 40.3382 22.9206 42.2853 22.9206 44.2326C22.9193 45.1982 23.2906 46.127 23.9573 46.8256C24.6239 47.5241 25.5344 47.9384 26.499 47.9823C27.4636 48.0261 28.4078 47.696 29.1351 47.0608C29.4014 46.8281 29.6311 46.5611 29.8195 46.2689C30.1374 45.7759 30.3377 45.211 30.3982 44.6181L30.4014 44.5857L30.4026 44.5725L30.6658 33.9871L30.67 34.1552L30.6742 33.9871L30.9375 44.5725L30.9387 44.5857L30.9419 44.6181C31.0024 45.211 31.2027 45.7759 31.5206 46.2689C31.709 46.5611 31.9387 46.8281 32.205 47.0608C32.9322 47.696 33.8765 48.0261 34.8411 47.9823C35.8057 47.9384 36.7162 47.5241 37.3828 46.8256C38.0494 46.127 38.4208 45.1982 38.4195 44.2326C38.4195 42.2853 38.4197 40.3382 38.4199 38.3912C38.42 36.4444 38.4202 34.4973 38.4202 32.5504C38.9038 32.7095 39.414 32.7681 39.9195 32.7237C40.0023 32.7164 40.085 32.7064 40.1674 32.6936C40.7532 32.6025 41.309 32.3738 41.7893 32.0263C42.2695 31.6787 42.6605 31.2222 42.9301 30.6942C43.1996 30.1663 43.3402 29.5819 43.3401 28.9891V25.0231C43.3401 22.1368 42.9965 19.2429 41.7657 16.9563C41.116 15.7468 40.1838 14.6435 38.8881 13.86ZM30.6743 32.4871L30.67 32.4871L30.6658 32.4871C29.8519 32.4871 29.1865 33.1362 29.1663 33.9498L28.9044 44.4806C28.8435 45.0413 28.5739 45.5593 28.1483 45.931C27.7121 46.3121 27.1456 46.5101 26.567 46.4838C25.9884 46.4575 25.4423 46.209 25.0424 45.79C24.6425 45.371 24.4198 44.8138 24.4206 44.2346C24.4206 40.6554 24.4204 37.0765 24.4202 33.4975L24.4202 33.3679C24.4201 29.7457 24.4199 26.1234 24.4199 22.5009C24.4199 22.0866 24.0841 21.7509 23.6699 21.7509C23.2557 21.7509 22.9199 22.0866 22.9199 22.5009V31.0009C22.9199 31.0009 22.6046 31.075 22.4516 31.1254C22.1138 31.2365 21.7545 31.266 21.4031 31.2114C21.0517 31.1568 20.7183 31.0196 20.4302 30.8111C20.1422 30.6026 19.9077 30.3288 19.7459 30.0121C19.5842 29.6954 19.5 29.3447 19.5 28.9891V25.0231C19.5 22.211 19.8435 19.6212 20.8952 17.6673L20.8958 17.6662C21.4421 16.6491 22.2016 15.7643 23.2281 15.1437L23.2297 15.1427C24.2563 14.5202 25.4182 14.2455 26.6403 14.2455H34.6998C35.9219 14.2455 37.0838 14.5202 38.1104 15.1427L38.112 15.1437C39.1384 15.7643 39.8979 16.6491 40.4443 17.6662L40.4449 17.6673C41.4966 19.6212 41.8401 22.211 41.8401 25.0231V28.9891C41.8401 29.3447 41.7558 29.6954 41.5941 30.0121C41.4324 30.3288 41.1979 30.6026 40.9098 30.8111C40.6218 31.0196 40.2884 31.1568 39.937 31.2114C39.5856 31.266 39.2263 31.2365 38.8885 31.1254C38.7354 31.075 38.4202 31.0009 38.4202 31.0009V22.5009C38.4202 22.0866 38.0844 21.7509 37.6702 21.7509C37.256 21.7509 36.9202 22.0866 36.9202 22.5009C36.9202 26.0392 36.92 29.5773 36.9199 33.1153L36.9198 33.4976C36.9197 37.0765 36.9195 40.6556 36.9195 44.2346C36.9203 44.8138 36.6975 45.371 36.2977 45.79C35.8978 46.209 35.3516 46.4575 34.7731 46.4838C34.1945 46.5101 33.628 46.3121 33.1918 45.931C32.7662 45.5593 32.4966 45.0413 32.4357 44.4806L32.1738 33.9498C32.1535 33.1362 31.4882 32.4871 30.6743 32.4871Z" fill="currentColor"/>
</g>
<defs>
<clipPath id="clip0_4209_9797">
<rect width="48" height="48" fill="white" transform="translate(0 0.000854492)"/>
</clipPath>
</defs>
</svg>
