<svg width="48" height="48" viewBox="0 0 48 48" fill="none" xmlns="http://www.w3.org/2000/svg">
<path fill-rule="evenodd" clip-rule="evenodd" d="M34.7691 20.5691H25.7594L25.7594 12.2919C25.7594 9.96479 26.3379 7.96544 27.6974 6.30833C28.9147 4.82448 30.6048 3.78536 32.1863 2.86229L32.9225 2.43262L34.9846 7.3009L34.4147 7.63353C34.1179 7.80677 33.8549 7.95642 33.6185 8.09095C33.1726 8.34475 32.8211 8.54477 32.515 8.74793C32.0765 9.0389 31.8125 9.28688 31.609 9.61392L31.6003 9.62794L31.5909 9.64157C31.2045 10.2057 31.0453 10.7072 30.9952 11.5419H34.7691V20.5691ZM33.2691 19.0691V13.0419H29.4763V12.2919C29.4763 10.8574 29.6112 9.88384 30.3443 8.80721C30.6985 8.24344 31.1454 7.85659 31.6856 7.49809C32.0343 7.26669 32.4579 7.02543 32.9373 6.75238L33.0871 6.66703L32.2085 4.59287C30.902 5.38339 29.7229 6.2043 28.8571 7.2597C27.7661 8.5895 27.2594 10.2267 27.2594 12.2918L27.2594 19.0691H33.2691Z" fill="currentColor"/>
<path fill-rule="evenodd" clip-rule="evenodd" d="M9.27745 27.4328H0.267787V36.46H4.04163C3.99159 37.2947 3.83236 37.7962 3.44593 38.3603L3.43659 38.374L3.42787 38.388C3.22439 38.715 2.96036 38.963 2.52188 39.254C2.21581 39.4571 1.86443 39.6571 1.41862 39.9108C1.18224 40.0453 0.918971 40.1951 0.622177 40.3684L0.0522461 40.701L2.11432 45.5693L2.85051 45.1396C4.4321 44.2165 6.12219 43.1774 7.33949 41.6936C8.69893 40.0365 9.2775 38.0371 9.2775 35.71L9.27745 27.4328ZM1.76779 34.96V28.9328H7.77746L7.7775 35.7101C7.7775 37.7752 7.27072 39.4124 6.1798 40.7422C5.31398 41.7976 4.13484 42.6185 2.82831 43.409L1.94975 41.3349L2.09956 41.2495C2.57893 40.9765 3.00262 40.7352 3.35128 40.5038C3.89151 40.1453 4.33834 39.7585 4.69254 39.1947C5.4257 38.1181 5.5606 37.1445 5.5606 35.71V34.96H1.76779Z" fill="currentColor"/>
<path fill-rule="evenodd" clip-rule="evenodd" d="M22.2411 27.4328H13.2314V36.46H17.0053C16.9552 37.2947 16.796 37.7962 16.4096 38.3603L16.4002 38.374L16.3915 38.388C16.188 38.715 15.924 38.963 15.4855 39.254C15.1794 39.4571 14.8279 39.6571 14.382 39.9109C14.1458 40.0454 13.8823 40.1953 13.5858 40.3684L13.0159 40.701L15.078 45.5693L15.8141 45.1396C17.3957 44.2165 19.0858 43.1774 20.3031 41.6936C21.6626 40.0365 22.2411 38.0371 22.2411 35.71L22.2411 27.4328ZM14.7314 34.96V28.9328H20.7411L20.7411 35.7101C20.7411 37.7752 20.2344 39.4124 19.1434 40.7422C18.2776 41.7976 17.0985 42.6185 15.7919 43.409L14.9134 41.3349L15.0632 41.2495C15.5426 40.9765 15.9663 40.7352 16.3149 40.5038C16.8551 40.1453 17.302 39.7585 17.6562 39.1947C18.3893 38.1181 18.5242 37.1445 18.5242 35.71V34.96H14.7314Z" fill="currentColor"/>
<path fill-rule="evenodd" clip-rule="evenodd" d="M38.723 20.5691H47.7327V11.5419H43.9589C44.0089 10.7072 44.1681 10.2057 44.5546 9.64157L44.5639 9.62794L44.5726 9.61392C44.7761 9.28688 45.0401 9.03891 45.4786 8.74793C45.7847 8.54478 46.1362 8.34475 46.5821 8.09096C46.8185 7.95642 47.0815 7.80677 47.3783 7.63353L47.9482 7.3009L45.8862 2.43262L45.15 2.86229C43.5684 3.78536 41.8783 4.82448 40.661 6.30833C39.3016 7.96544 38.723 9.96479 38.723 12.2919L38.723 20.5691ZM46.2327 13.0419V19.0691H40.223L40.223 12.2918C40.223 10.2267 40.7298 8.5895 41.8207 7.25971C42.6865 6.2043 43.8657 5.38339 45.1722 4.59287L46.0507 6.66703L45.9009 6.75238C45.4215 7.02544 44.9979 7.26669 44.6492 7.49809C44.109 7.85659 43.6621 8.24344 43.3079 8.80722C42.5748 9.88385 42.4399 10.8574 42.4399 12.2919V13.0419L46.2327 13.0419Z" fill="currentColor"/>
</svg>
