<svg width="48" height="48" viewBox="0 0 48 48" fill="none" xmlns="http://www.w3.org/2000/svg">
<g clip-path="url(#clip0_7051_11945)">
<path d="M18 32.3342L19.5 31.5009L21 32.3342V33.1675L18.75 34.0009L18 32.3342Z" fill="currentColor"/>
<path fill-rule="evenodd" clip-rule="evenodd" d="M39.6166 34.6237L40.4078 35.0975L40.555 35.3817L40.6471 36.2344L40.4631 36.3671L40.2054 36.405L39.7086 36.3482L39.2853 36.386L39.083 36.5755L38.9725 36.9166L38.8069 37.2008L38.3469 37.5608L37.9788 37.8451L37.5187 38.1483L37.1875 38.4136L37.0219 38.9252L37.0403 39.4937L37.0587 39.9674L36.7275 40.3275L36.3042 40.1948L36.0833 40.4222L35.7153 40.8391L35.3657 41.218L34.9976 41.5592L34.6112 41.9192L34.0223 41.9949L33.5623 41.976L33.139 41.8813L32.7525 41.6728L32.3662 41.7486L32.1269 41.957L31.8141 42.317L31.5196 42.715L31.2068 43.2646L30.9491 42.7339L30.3051 42.6202L29.7714 42.355L29.5506 42.0708L29.2378 42.0518L28.8697 41.9949L28.6305 42.0897L28.3361 42.3739H28.0048L27.6 42.4118L27.1767 42.4497L26.827 42.3929L26.3118 42.1086L26.0174 41.7486L25.7597 41.4833L25.0605 41.4644L24.8212 41.3317L24.674 41.1044H24.4164L24.0484 41.1612H23.8235L23.4227 41.0096L23.0178 40.8769L22.6313 40.7632L22.3922 40.6496L21.9873 40.4222L21.6745 40.4032H21.4537L21.3616 40.5169L21.38 40.8012L21.196 41.3128L21.104 41.7297L20.9384 41.8813L20.4967 42.1276L20.1103 42.5445L20.0735 42.7909L19.8895 43.1887L19.5399 43.3782L19.2454 43.4162L18.8038 43.4919L18.3253 43.7003H17.3867L16.8971 43.5487L16.5034 43.3403L16.4667 43.0371V42.7718L16.301 42.4877L16.025 42.3929L15.7122 42.2931L15.565 41.9381L15.3238 41.5584C15.3238 41.4831 14.9579 41.0875 14.9579 41.0875L16.0593 40.0692L16.0617 40.0718L16.0664 40.077L16.0816 40.0936L16.1003 40.1141L16.132 40.1493C16.1722 40.1941 16.2284 40.2577 16.2868 40.3269C16.3411 40.3912 16.4161 40.4823 16.4842 40.5771C16.5164 40.6218 16.5688 40.6972 16.6196 40.7887C16.63 40.8074 16.6428 40.8312 16.6569 40.8596L16.7904 41.0697L17.316 41.2502L17.8697 42.2003H18.0128L18.3712 42.0442L18.6763 41.9919L18.6954 41.8645L19.5583 40.9334L19.7836 40.8078L19.863 40.5869L19.8269 40.0288L20.738 38.9032H21.7198L22.1188 38.9274L20.5932 36.7915C20.5301 36.7033 20.4999 36.6015 20.5 36.5008H16.5001V36.571L15.6125 39.6776L15.9957 40.0005L16.0593 40.0692C16.0593 40.0692 16.0591 40.069 14.9579 41.0875L14.5554 40.7484L14.2079 40.5412L13.4212 40.2398L13.2931 39.8254L12.9273 39.5428L12.3053 38.94L11.6101 38.0734L10.9515 37.3953L10.6222 37.3199L10.0734 37.075L9.7624 36.6229L9.41481 36.0389L9.1404 35.5115L8.75623 34.8334L8.48182 34.6449L8.33546 34.2494L8.46352 33.7031L8.73793 33.3829L8.97576 33.1191L8.88429 32.6294L8.40864 32.0454L7.49394 31.3295L7.40247 30.9151L7.10976 30.3876L7 30.124L7.20124 29.9355H7.96958L8.13423 29.6341L8.60988 29.1632L9.41481 28.7111L10.5856 28.5792L11.2076 28.8053L11.5918 28.146L12.2321 28.033L12.598 27.562L13.2017 27.2606H13.5675L13.9151 27.0157L14.0432 26.6955L14.464 26.4317L14.9396 26.3564H16.0006L16.1836 26.0926L16.641 25.6594L17.08 25.4333L17.574 25.245L17.7934 25.0001L17.7752 24.6233L17.5007 24.1901L17.5191 23.8698L17.9581 23.7003L18.635 24.0582L19.2386 24.6233L19.2753 25.0377L19.3302 25.5087L19.6778 25.8478L19.9907 25.6608L20.2265 25.4619L20.337 25.434L20.4783 25.4146H20.9752L21.3249 25.3387L21.3616 25.1303L21.3249 24.8461L21.2696 24.6566L21.2512 24.4292L21.4537 24.2397L21.6929 24.2965L22.1713 24.3534L22.5762 24.4861L22.8706 25.0166L22.889 25.3577L23.0915 25.604L23.1467 26.0209L23.2202 26.5136L23.4779 26.6463L23.7723 26.5515L24.2324 26.5325L24.7292 26.4188H25.4653L25.8518 26.7031L26.3302 27.1768L26.4039 27.5178L26.6799 27.5748L26.7719 27.2336L27.2319 27.1578L27.784 27.0631L28.2257 27.1768L28.5201 27.4042L28.6121 27.821L28.4833 28.1242L28.2624 28.2758L27.9128 28.579L27.6736 28.939L28.0417 29.4886L28.428 29.8296L28.8329 30.2276L29.0906 30.5876L29.3297 31.0234L29.4402 31.6109L29.7714 31.8003L30.0107 31.6866V31.4782L30.5627 31.4025L30.7835 31.175L30.9491 30.7771L31.0043 30.3981H31.5012L31.4829 30.1897L31.1148 29.9623L30.7284 29.7349L30.6363 29.1286L30.7835 28.7495L31.078 28.7117L31.7036 28.977L32.4213 29.2991L33.3046 29.8865L33.7279 30.0949H34.1327L34.4456 30.0192L34.5743 29.8676L34.9608 29.7918L35.1448 30.0571L35.2001 30.4171L35.108 30.6445L34.7216 30.7392L34.5927 30.9856L34.74 31.3456L35.1264 31.6488L35.5313 32.1983L35.9361 32.293L36.2305 32.1794L36.341 31.8572L36.525 31.6866L36.801 31.8193L36.9851 32.3878L37.5003 32.4826L37.7211 32.672L38.0155 32.8236L38.586 32.7857L38.8621 33.0699L39.6166 34.0743V34.6237ZM21.6144 36.5008L23.7945 39.553L23.9218 39.5947L24.05 39.6432L24.3013 39.6044H25.1813L27.8573 36.4824L27.7822 36.4523L24.2552 34.4369L21.6754 36.5008H21.6144ZM26.1647 39.9937L28.8381 36.8747L30.3144 37.4652C30.3584 37.4828 30.4035 37.4937 30.4484 37.4984L32.4636 38.506L33.13 40.1721L32.9914 40.0973L31.6835 40.354L31.0631 40.8944L30.8096 41.1861L30.7789 41.1807L30.7458 41.1642L30.3189 40.6145L29.3981 40.5588L28.696 40.4502L27.8021 40.8045L27.7082 40.8951L27.4663 40.9178L27.4603 40.9183L27.2886 40.9337L27.138 40.7495L26.4105 40.0004L26.1647 39.9937ZM24.3665 33.5191C24.4905 33.4847 24.6276 33.4979 24.7482 33.5668L28.218 35.5496L29.9585 36.2458L29.5525 33.4032L28.094 32.5689L28.0737 32.4607L23.8737 32.0408L24.3665 33.5191ZM23.5498 31.0034L27.8433 31.4327L27.8187 31.3878L27.6888 31.2063L27.4052 30.9276L26.9034 30.4846L25.8703 28.9422L25.872 28.9397L25.6258 28.889L24.126 29.4889L23.0672 29.6212L23.5273 31.0016C23.5348 31.002 23.5423 31.0026 23.5498 31.0034ZM31.0294 36.6709L30.5201 33.1053L31.0612 32.8481L31.2786 32.8183L31.4112 32.6818L31.5107 32.6345V32.5794L31.8527 32.2272L34.2506 36.2236L31.842 37.0265C31.8226 37.033 31.8038 37.0405 31.7858 37.049L31.0294 36.6709ZM35.3149 36.0539L32.8215 31.8981H33.1394L33.1006 31.458L33.1817 31.498L33.5018 32.2808L34.0399 32.7029L34.6515 33.533L36.0447 33.8589L36.2534 33.7783L36.8307 33.8846L36.8779 33.925L37.6994 34.348L37.9343 34.3324L38.1166 34.5749V35.4255L37.7752 35.7451L37.6197 36.2251L37.4263 36.3765L37.3238 36.4557L35.3149 36.0539ZM33.0461 37.6792L33.2508 37.7816L34.2288 40.2265L34.303 40.1577L34.6017 39.8341L34.9825 39.4026L35.5187 38.8507L35.5142 38.7121L35.8989 37.5239L36.2319 37.2571L35.0323 37.0172L33.0461 37.6792ZM15.5001 35.9898L15.5 36.0008L15.5001 36.0117V36.4309L14.7278 39.1341L14.639 39.1L14.586 38.9286L13.9107 38.407L13.4166 37.9282L12.7357 37.0794L11.7185 36.032L11.0996 35.8904L11.07 35.8772L11.0262 35.8134L10.7257 35.3086L10.4587 34.7955L10.0826 34.1315L10.2572 33.938C10.3642 33.9975 10.4932 34.0181 10.6214 33.986L14.4801 33.0214L15.5001 33.3614V35.9898ZM16.5001 35.5008H21.3246L23.4154 33.8281L22.0553 29.7477L20.0621 29.9969C19.95 30.0109 19.842 29.9866 19.751 29.9344L15.2032 32.2083L16.5001 32.6406V35.5008ZM23.8741 28.5126L20 28.9969V27.4026L20.8169 26.9146H21.136L21.7438 26.7827L21.8502 27.4954L23.3448 28.2649L24.0378 28.0418L24.4322 28.0256L24.8987 27.9188H24.9477L24.9581 27.9291L24.9879 28.0671L23.8741 28.5126ZM13.9563 32.1216L12.2524 29.9917L11.8728 30.6431L10.4039 30.1092L9.88455 30.1677L9.52115 30.3718L9.34547 30.5457L9.21993 30.7755L9.46551 30.9677L10.2886 31.9784L10.4778 32.9912L13.9563 32.1216ZM13.0647 29.4063L14.6379 31.3729L19 29.1918V27.2822L18.281 26.5807L17.6924 26.8051L17.5175 26.8952L17.3277 27.075L16.7856 27.8564H15.1945L15.1428 27.9856L14.0429 28.7606H13.5662L13.0647 29.4063Z" fill="currentColor"/>
<path fill-rule="evenodd" clip-rule="evenodd" d="M34.4409 10.5009L36.2132 8.72857L27.7279 0.243286L17.4704 10.5009H7.16065C6.44293 10.5009 5.78024 10.8854 5.42416 11.5086L0.263514 20.5397C0.0908306 20.8419 0 21.1839 0 21.532V46.0009C0 47.1054 0.895432 48.0009 2 48.0009H46C47.1046 48.0009 48 47.1054 48 46.0009V21.532C48 21.1839 47.9092 20.8419 47.7365 20.5397L42.5758 11.5086C42.2198 10.8854 41.5571 10.5009 40.8394 10.5009H34.4409ZM27.7279 2.36461L17.1213 12.9712L19.151 15.0009H27.8196L34.0919 8.72857L27.7279 2.36461ZM15 12.9712L17.0296 15.0009H12.75C12.3358 15.0009 12 15.3366 12 15.7509C12 16.1651 12.3358 16.5009 12.75 16.5009H35.25C35.6642 16.5009 36 16.1651 36 15.7509C36 15.3366 35.6642 15.0009 35.25 15.0009H29.9409L32.9409 12.0009H40.8394C41.0188 12.0009 41.1845 12.097 41.2735 12.2528L45.7009 20.0009H2.29905L6.72652 12.2528C6.81555 12.097 6.98122 12.0009 7.16065 12.0009H15.9704L15 12.9712ZM1.50097 21.5009C1.50032 21.5112 1.5 21.5216 1.5 21.532V46.0009C1.5 46.277 1.72386 46.5009 2 46.5009H46C46.2761 46.5009 46.5 46.277 46.5 46.0009V21.532C46.5 21.5216 46.4997 21.5112 46.499 21.5009H1.50097Z" fill="currentColor"/>
</g>
<defs>
<clipPath id="clip0_7051_11945">
<rect width="48" height="48" fill="white" transform="translate(0 0.000854492)"/>
</clipPath>
</defs>
</svg>
