<svg width="48" height="48" viewBox="0 0 48 48" fill="none" xmlns="http://www.w3.org/2000/svg">
<g clip-path="url(#clip0_6263_10997)">
<path d="M9 6.75098C9 7.16519 9.33579 7.50098 9.75 7.50098H18.25C18.6642 7.50098 19 7.16519 19 6.75098C19 6.33676 18.6642 6.00098 18.25 6.00098H9.75C9.33579 6.00098 9 6.33676 9 6.75098Z" fill="currentColor"/>
<path d="M19 10.751C19 11.1652 18.6642 11.501 18.25 11.501H9.75C9.33579 11.501 9 11.1652 9 10.751C9 10.3368 9.33579 10.001 9.75 10.001H18.25C18.6642 10.001 19 10.3368 19 10.751Z" fill="currentColor"/>
<path d="M9 14.751C9 15.1652 9.33579 15.501 9.75 15.501H15.25C15.6642 15.501 16 15.1652 16 14.751C16 14.3368 15.6642 14.001 15.25 14.001H9.75C9.33579 14.001 9 14.3368 9 14.751Z" fill="currentColor"/>
<path fill-rule="evenodd" clip-rule="evenodd" d="M34 11.501C34 14.5385 31.5376 17.001 28.5 17.001C25.4624 17.001 23 14.5385 23 11.501C23 8.46341 25.4624 6.00098 28.5 6.00098C31.5376 6.00098 34 8.46341 34 11.501ZM32.5 11.501C32.5 13.7101 30.7091 15.501 28.5 15.501C26.2909 15.501 24.5 13.7101 24.5 11.501C24.5 9.29184 26.2909 7.50098 28.5 7.50098C30.7091 7.50098 32.5 9.29184 32.5 11.501Z" fill="currentColor"/>
<path fill-rule="evenodd" clip-rule="evenodd" d="M41 2.00098C41 0.896407 40.1046 0.000976562 39 0.000976562H7C5.89543 0.000976562 5 0.896407 5 2.00098V16.001H2C0.89543 16.001 0 16.8964 0 18.001V46.001C0 47.1055 0.895431 48.001 2 48.001H43.3057C44.2834 48.001 45.1178 47.2942 45.2785 46.3298L47.6119 32.3298C47.815 31.1107 46.875 30.001 45.6391 30.001H45V18.001C45 16.8964 44.1046 16.001 43 16.001H41V2.00098ZM15.3513 27.001C16.0626 27.001 16.7204 27.3788 17.0788 27.9932L18.25 30.001H20V26.501C20 21.8066 23.8056 18.001 28.5 18.001C33.1944 18.001 37 21.8066 37 26.501V30.001H39.5V2.00098C39.5 1.72483 39.2761 1.50098 39 1.50098H7C6.72386 1.50098 6.5 1.72483 6.5 2.00098V27.001H15.3513ZM35.5 30.001V26.501C35.5 22.635 32.366 19.501 28.5 19.501C24.634 19.501 21.5 22.635 21.5 26.501V30.001H35.5ZM41 30.001H43.5V18.001C43.5 17.7248 43.2761 17.501 43 17.501H41V30.001ZM2 17.501C1.72386 17.501 1.5 17.7248 1.5 18.001V37.501L2.75469 28.7181C2.89545 27.7328 3.73929 27.001 4.73459 27.001H5V17.501H2ZM45.6391 31.501H17.3884L15.7831 28.749C15.6935 28.5954 15.5291 28.501 15.3513 28.501H4.73459C4.48577 28.501 4.27481 28.6839 4.23962 28.9303L1.81104 45.9303C1.76801 46.2315 2.00174 46.501 2.30602 46.501H43.3057C43.5502 46.501 43.7588 46.3243 43.7989 46.0832L46.1323 32.0832C46.1831 31.7784 45.948 31.501 45.6391 31.501Z" fill="currentColor"/>
</g>
<defs>
<clipPath id="clip0_6263_10997">
<rect width="48" height="48" fill="white" transform="translate(0 0.000976562)"/>
</clipPath>
</defs>
</svg>
