<svg width="48" height="48" viewBox="0 0 48 48" fill="none" xmlns="http://www.w3.org/2000/svg">
<g>
<path d="M15 21.501L16 23.501H19V21.501L17.5 20.501L15 21.501Z" fill="currentColor"/>
<path fill-rule="evenodd" clip-rule="evenodd" d="M15.2353 10.2207C15.4636 9.9924 15.8123 9.93581 16.1011 10.0802L18.0386 11.0489C18.2165 11.1379 18.3518 11.2939 18.4147 11.4826L18.8008 12.641L19.1563 12.8187L19.5118 12.641L19.8979 11.4826C20 11.1763 20.2866 10.9697 20.6094 10.9697H22.5469C22.8536 10.9697 23.1294 11.1565 23.2433 11.4412L24.0553 13.4712L26.5452 13.8862C26.6499 13.9036 26.7496 13.9431 26.8379 14.002L28.1021 14.8447H30.0331C30.314 14.8447 30.5713 15.0017 30.6999 15.2514L31.4481 16.7045C31.6228 17.0438 31.5148 17.4602 31.1973 17.6719L30.3944 18.2072L30.6155 18.5111L32.2603 20.3207L32.6728 19.9082C32.7552 19.8258 32.8555 19.7638 32.966 19.727L33.7364 19.4702L33.2381 17.7398C33.1522 17.4416 33.2589 17.1214 33.5063 16.9341C33.7538 16.7469 34.091 16.7314 34.3545 16.8951L37.2219 18.6761L39.353 18.2499C39.6846 18.1836 40.0196 18.3475 40.1709 18.65L40.6552 19.6187C40.7996 19.9075 40.743 20.2562 40.5147 20.4844L40.0059 20.9932L40.7444 21.9779L41.6847 21.6645C41.8387 21.6132 42.0051 21.6132 42.1591 21.6645L43.5849 22.1398L45.4944 22.6171C45.7068 22.6702 45.8854 22.8135 45.9834 23.0093L46.8977 24.838L47.7804 25.7207C47.921 25.8613 48 26.0521 48 26.251V27.7041C48 28.1183 47.6643 28.4541 47.25 28.4541H45.7139L44.9937 29.5344L44.5302 30.4614C44.4413 30.6393 44.2853 30.7746 44.0966 30.8375L43.034 31.1917L42.6495 32.7298C42.6253 32.8268 42.5819 32.9179 42.5219 32.9979L41.0688 34.9354C40.9581 35.083 40.7968 35.1846 40.6159 35.2208L38.194 35.7052C38.0969 35.7246 37.9969 35.7246 37.8998 35.7052L36.0072 35.3267L34.6095 37.7647C34.4731 38.0026 34.2177 38.1471 33.9434 38.1415C33.6692 38.1358 33.42 37.981 33.2934 37.7377L32.6996 36.5957L31.0665 36.2368L30.0959 36.6329C30.0059 36.6696 29.9097 36.6885 29.8125 36.6885H27.875C27.6761 36.6885 27.4854 36.6095 27.3447 36.4688L26.1112 35.2354H25.4532C25.3367 35.2354 25.2219 35.2083 25.1177 35.1562L23.2701 34.2324L21.5959 33.8975L20.8365 36.1757C20.7543 36.4223 20.5503 36.6087 20.2973 36.6684C20.1576 36.7014 20.0138 36.6931 19.8822 36.6481L19.3427 37.727C19.2349 37.9427 19.03 38.0933 18.792 38.1319C18.5541 38.1706 18.312 38.0924 18.1416 37.922L17.6076 37.388L16.6661 38.0157C16.5005 38.126 16.298 38.1661 16.1029 38.1271L13.6811 37.6427C13.4098 37.5884 13.1905 37.3893 13.1103 37.1246C13.0424 36.9001 13.0839 36.6593 13.2174 36.472L10.5039 34.1462L9.61775 33.7031C9.54565 33.667 9.47983 33.6196 9.42283 33.5626L6.73625 30.876H6.07816C5.87924 30.876 5.68848 30.797 5.54783 30.6563L4.0947 29.2032C4.01237 29.1209 3.95034 29.0205 3.91352 28.91L3.46763 27.5724L2.08753 25.7322C1.91709 25.505 1.88967 25.2009 2.01671 24.9468L2.8438 23.2927L1.38337 22.5624C1.20546 22.4735 1.07017 22.3175 1.00727 22.1288L0.0385197 19.2225C-0.057407 18.9348 0.0294664 18.6175 0.258631 18.4188C0.487795 18.22 0.814121 18.1789 1.08544 18.3145L2.43075 18.9872L3.03224 18.085C3.10464 17.9764 3.20413 17.8885 3.32087 17.8302L5.25837 16.8614C5.43628 16.7725 5.64225 16.7578 5.83095 16.8207L6.77125 17.1342L7.90003 15.6291C8.04168 15.4403 8.26397 15.3291 8.50003 15.3291H9.89697L10.2104 14.3888C10.2915 14.1456 10.4912 13.9606 10.74 13.8984L12.5976 13.434L14.4995 12.483L14.2666 12.2501C13.9737 11.9572 13.9737 11.4823 14.2666 11.1894L15.2353 10.2207ZM15.8576 11.7197L16.296 12.1582C16.4665 12.3286 16.5446 12.5707 16.506 12.8086C16.4674 13.0466 16.3167 13.2515 16.1011 13.3593L13.1948 14.8124C13.1459 14.8369 13.0944 14.856 13.0413 14.8692L11.5032 15.2538L11.149 16.3163C11.047 16.6226 10.7604 16.8291 10.4375 16.8291H8.87503L8.02395 17.9639C8.08238 18.0209 8.13243 18.0885 8.17099 18.1656L9.35473 20.533L15.572 17.8685L16.1201 17.3203L15.3038 15.2795C15.1924 15.001 15.2577 14.6828 15.4698 14.4706L17.2396 12.7009L17.0899 12.2516L15.9137 11.6636L15.8576 11.7197ZM18.0961 13.9657L16.8802 15.1816L17.317 16.2737C17.3756 16.259 17.4369 16.2512 17.5 16.2512H21.4824L21.5 16.251C21.5586 16.251 21.6157 16.2577 21.6704 16.2704L23.4978 16.6359L24.0463 14.9904L23.3924 14.8814C23.1339 14.8383 22.9166 14.6635 22.8193 14.4202L22.0391 12.4697H21.15L20.8365 13.41C20.7736 13.5987 20.6384 13.7547 20.4604 13.8437L19.4917 14.3281C19.2805 14.4336 19.032 14.4336 18.8209 14.3281L18.0961 13.9657ZM17.7072 17.7512C17.6707 17.8546 17.6112 17.9506 17.5305 18.0313L16.5305 19.0313C16.463 19.0988 16.3833 19.1527 16.2956 19.1903L10.6801 21.597L12.8726 22.8498C13.183 23.0272 13.325 23.399 13.212 23.7381L12.291 26.501L12.5396 27.2467L19.7281 26.7674L23.25 24.126V23.1227L22.7918 21.7479C22.786 21.7313 22.7808 21.7144 22.7762 21.6972C22.7623 21.6462 22.7539 21.5938 22.7511 21.541C22.7502 21.5245 22.7499 21.508 22.75 21.4916V20.876L21.05 19.601C20.8612 19.4593 20.75 19.237 20.75 19.001V17.7512H17.7072ZM6.82934 18.8364L7.95305 21.0838L4.26652 22.4244C4.19672 22.3266 4.10322 22.2453 3.99169 22.1895L2.33206 21.3597L2.03413 20.4659L2.35212 20.6249C2.69043 20.7941 3.10176 20.6849 3.31157 20.3701L4.16984 19.0827L5.65133 18.342L6.78244 18.719C6.79456 18.7588 6.81015 18.798 6.82934 18.8364ZM3.56565 25.2031L4.1326 24.0692L8.93011 22.3246L11.5945 23.8471L10.7889 26.2638C10.7376 26.4178 10.7376 26.5842 10.7889 26.7381L11.226 28.0492L10.3601 32.3785L7.57724 29.5957C7.43658 29.455 7.24582 29.376 7.04691 29.376H6.38882L5.28056 28.2677L4.85217 26.9826C4.82668 26.9061 4.78902 26.8342 4.74066 26.7697L3.56565 25.2031ZM14.8006 35.8534L11.7264 33.2184L12.6171 28.7448L19.25 28.3026V29.501C19.25 29.6999 19.329 29.8907 19.4697 30.0313L20.4697 31.0313C20.5267 31.0883 20.5925 31.1357 20.6646 31.1718L23.25 32.4645V32.6986L21.2409 32.2968C20.87 32.2226 20.5019 32.4362 20.3823 32.7951L19.7436 34.7112C19.6704 34.7011 19.5952 34.7017 19.5205 34.7138C19.2825 34.7524 19.0776 34.9031 18.9698 35.1187L18.4664 36.1255L18.2335 35.8925C17.9807 35.6397 17.5846 35.6005 17.2871 35.7988L16.0925 36.5953L15.0618 36.3891C15.0525 36.1822 14.958 35.9883 14.8006 35.8534ZM25.6302 33.7354L24.75 33.2953V32.001C24.75 31.7169 24.5895 31.4572 24.3354 31.3302L21.4443 29.8846L20.75 29.1903V27.876L24.2791 25.2292L27.1648 26.672C27.2283 26.7037 27.2961 26.7263 27.366 26.739L29.7501 27.1725V30.3232L28.9183 31.9867L26.2953 33.7354H25.6302ZM24.8356 23.8303C24.8075 23.8163 24.7789 23.8041 24.75 23.7939V23.001C24.75 22.9204 24.737 22.8403 24.7116 22.7638L24.4891 22.0965L26.3828 21.7809L29.1647 23.1718C29.4188 23.2989 29.7228 23.2715 29.9501 23.101L31.6212 21.8477L31.6794 21.9117C31.8174 22.0635 32.0115 22.1521 32.2165 22.157C32.3993 22.1614 32.5766 22.0988 32.7157 21.9825L32.2885 23.264C32.2324 23.4323 32.2378 23.615 32.3037 23.7797L33.1571 25.9134L32.9467 26.2291L27.7397 25.2824L24.8356 23.8303ZM26.3768 20.2612L24.25 20.6157V20.501C24.25 20.2649 24.1389 20.0426 23.95 19.901L22.25 18.626V17.916L23.8529 18.2366C24.2238 18.3108 24.5919 18.0972 24.7115 17.7384L25.5443 15.2401L26.1398 15.3393L27.459 16.2188C27.5822 16.3009 27.727 16.3447 27.875 16.3447H29.5757L29.8078 16.7955L28.9121 17.3926C28.7422 17.5059 28.6258 17.6836 28.5899 17.8847C28.5539 18.0857 28.6015 18.2928 28.7217 18.4579L29.4267 19.4267C29.4426 19.4486 29.4598 19.4697 29.4781 19.4898L30.6078 20.7327L29.4209 21.6229L26.8355 20.3302C26.6938 20.2593 26.5332 20.2352 26.3768 20.2612ZM28.1857 35.1885L27.6393 34.6421L29.9161 33.1243C30.0247 33.0519 30.1125 32.9524 30.1709 32.8357L31.1709 30.8357C31.223 30.7315 31.2501 30.6167 31.2501 30.5002V27.4452L32.261 27.629C32.2674 27.6658 32.2765 27.7024 32.2885 27.7383L32.7885 29.2383C32.8583 29.4476 33.0166 29.6156 33.2215 29.6975L33.9205 29.9771L37.1609 34.0277L35.7721 33.7499C35.456 33.6867 35.1348 33.8326 34.9744 34.1123L33.9909 35.8277L33.8686 35.5925C33.766 35.3953 33.5813 35.2537 33.3642 35.206L31.1604 34.7216C31.0119 34.689 30.8569 34.7022 30.716 34.7597L29.6654 35.1885H28.1857ZM39.0613 34.002L40.0407 33.8061L41.231 32.219L41.6787 30.4285C41.7409 30.1797 41.9258 29.9799 42.1691 29.8989L43.3275 29.5127L43.5242 29.1194L41.0924 28.772L36.384 30.6554L39.0613 34.002ZM34.7159 20.7248L34.7115 20.7383L33.7984 23.4777L34.6964 25.7226C34.7881 25.9519 34.761 26.2117 34.6241 26.4172L33.8275 27.612L34.1015 28.434L36 29.1934L39.7828 27.6803L38.5527 26.1426L35.7628 25.2127C35.4566 25.1106 35.25 24.824 35.25 24.5011V23.0011C35.25 22.8847 35.2771 22.7699 35.3292 22.6657L36.3292 20.6657C36.4018 20.5206 36.5195 20.4029 36.6646 20.3303L36.9196 20.2028C36.8364 20.1848 36.7561 20.1526 36.6824 20.1069L35.219 19.1979L35.377 19.7466C35.4883 20.133 35.275 20.5385 34.8935 20.6656L34.7159 20.7248ZM41.4001 27.3007L44.3949 27.7285L44.6885 27.2881C44.8276 27.0794 45.0618 26.9541 45.3125 26.9541H46.5V26.5617L45.751 25.8126C45.694 25.7556 45.6465 25.6898 45.6105 25.6177L44.796 23.9887L43.1931 23.588L43.1763 23.5836L43.1628 23.5797L43.1482 23.5752L43.1379 23.5719L41.9219 23.1666L40.706 23.5719C40.3997 23.674 40.0625 23.5686 39.8688 23.3104L38.4157 21.3729C38.3713 21.3137 38.3369 21.2499 38.3123 21.1835L37.559 21.5602L36.75 23.1782V23.9606L39.2372 24.7896C39.3743 24.8353 39.4953 24.9197 39.5857 25.0326L41.4001 27.3007Z" fill="currentColor"/>
</g>
</svg>
