<svg width="48" height="48" viewBox="0 0 48 48" fill="none" xmlns="http://www.w3.org/2000/svg">
<path fill-rule="evenodd" clip-rule="evenodd" d="M8 7.90748C8.65524 7.90748 9.27776 8.04694 9.83928 8.29769C16.7184 -1.43253 31.2817 -1.43256 38.161 8.29759C38.7224 8.04691 39.3449 7.90748 40 7.90748C42.1741 7.90748 43.9882 9.44296 44.4083 11.4844C46.4582 11.9028 48 13.7094 48 15.8745C48 18.2672 46.1172 20.2219 43.7467 20.3494C43.3584 20.9292 42.8381 21.4139 42.2284 21.7606C44.2563 22.2998 45.75 24.1418 45.75 26.3313C45.75 28.909 43.6797 31.0052 41.1047 31.0606C40.0027 39.4901 32.7647 46 24 46C15.2353 46 7.99728 39.4901 6.89526 31.0606C4.32028 31.0052 2.25 28.909 2.25 26.3313C2.25 24.1418 3.74366 22.2998 5.77157 21.7606C5.16194 21.4139 4.64158 20.9292 4.25333 20.3494C1.88277 20.2219 0 18.2672 0 15.8745C0 13.7094 1.54182 11.9028 3.59171 11.4844C4.01185 9.44296 5.82587 7.90748 8 7.90748ZM12.5 12.389C12.5 11.1039 11.9569 9.94524 11.0869 9.12809C17.3728 0.282465 30.6273 0.282405 36.9133 9.1279C36.0432 9.94507 35.5 11.1038 35.5 12.389C35.5 13.4203 35.8498 14.3703 36.4378 15.1276C35.8498 15.885 35.5 16.835 35.5 17.8663C35.5 18.2092 35.5387 18.5431 35.6119 18.8639C34.5574 18.2301 33.3215 17.8655 32 17.8655C28.4735 17.8655 25.5561 20.4624 25.0709 23.8408H22.9291C22.4439 20.4624 19.5265 17.8655 16 17.8655C14.6785 17.8655 13.4426 18.2301 12.3881 18.8639C12.4613 18.5431 12.5 18.2092 12.5 17.8663C12.5 16.835 12.1502 15.885 11.5622 15.1276C12.1502 14.3703 12.5 13.4203 12.5 12.389ZM10.3755 14.2139L9.66621 15.1276L10.3755 16.0413C10.7675 16.5463 11 17.1771 11 17.8663C11 19.5163 9.65685 20.854 8 20.854C6.9594 20.854 6.04162 20.3276 5.50132 19.5206L5.08449 18.8981L4.33425 18.8577C2.75517 18.7728 1.5 17.4691 1.5 15.8745C1.5 14.4328 2.52689 13.2266 3.89288 12.9478L4.86244 12.7499L5.06116 11.7843C5.34113 10.424 6.55234 9.4013 8 9.4013C9.65685 9.4013 11 10.7389 11 12.389C11 13.0781 10.7675 13.709 10.3755 14.2139ZM38.4252 22.0657C38.795 22.915 39 23.852 39 24.8366C39 28.6867 35.866 31.8078 32 31.8078C28.3021 31.8078 25.274 28.9523 25.0176 25.3346H22.9824C22.726 28.9523 19.6979 31.8078 16 31.8078C12.134 31.8078 9 28.6867 9 24.8366C9 23.852 9.20499 22.915 9.5748 22.0657C9.15887 22.2205 8.71379 22.3157 8.25 22.341V28.821C8.25 37.4837 15.3015 44.5062 24 44.5062C32.6985 44.5062 39.75 37.4837 39.75 28.821V22.341C39.2862 22.3157 38.8411 22.2205 38.4252 22.0657ZM3.75 26.3313C3.75 24.6275 5.07189 23.2313 6.75 23.1041V28.821C6.75 29.0685 6.75526 29.3147 6.76566 29.5596C5.08012 29.44 3.75 28.0404 3.75 26.3313ZM41.25 28.821V23.1041C42.9281 23.2313 44.25 24.6275 44.25 26.3313C44.25 28.0404 42.9199 29.44 41.2343 29.5596C41.2447 29.3147 41.25 29.0685 41.25 28.821ZM37.6245 14.2139L38.3338 15.1276L37.6245 16.0413C37.2325 16.5463 37 17.1771 37 17.8663C37 19.5163 38.3431 20.854 40 20.854C41.0406 20.854 41.9584 20.3276 42.4987 19.5206L42.9155 18.8981L43.6658 18.8577C45.2448 18.7728 46.5 17.4691 46.5 15.8745C46.5 14.4328 45.4731 13.2266 44.1071 12.9478L43.1376 12.7499L42.9388 11.7843C42.6589 10.424 41.4477 9.4013 40 9.4013C38.3431 9.4013 37 10.7389 37 12.389C37 13.0781 37.2325 13.709 37.6245 14.2139ZM21.5 24.8366C21.5 27.8617 19.0376 30.314 16 30.314C12.9624 30.314 10.5 27.8617 10.5 24.8366C10.5 21.8116 12.9624 19.3593 16 19.3593C19.0376 19.3593 21.5 21.8116 21.5 24.8366ZM37.5 24.8366C37.5 27.8617 35.0376 30.314 32 30.314C28.9624 30.314 26.5 27.8617 26.5 24.8366C26.5 21.8116 28.9624 19.3593 32 19.3593C35.0376 19.3593 37.5 21.8116 37.5 24.8366ZM19.7374 11.6038C22.5045 10.6852 25.496 10.6852 28.2631 11.6038C28.656 11.7342 29.0808 11.5227 29.2118 11.1314C29.3428 10.74 29.1304 10.317 28.7374 10.1866C25.6625 9.16583 22.338 9.16583 19.2631 10.1866C18.8701 10.317 18.6578 10.74 18.7887 11.1314C18.9197 11.5227 19.3445 11.7342 19.7374 11.6038ZM29.0835 15.5336C25.7207 14.9426 22.2799 14.9426 18.9171 15.5336L15.6306 16.1112C15.2227 16.1829 14.8337 15.9117 14.7617 15.5055C14.6897 15.0992 14.9621 14.7118 15.37 14.6401L18.6564 14.0625C22.1917 13.4412 25.8089 13.4412 29.3442 14.0625L32.6306 14.6401C33.0386 14.7118 33.3109 15.0992 33.2389 15.5055C33.1669 15.9117 32.7779 16.1829 32.37 16.1112L29.0835 15.5336ZM16.5002 26.8283C17.3287 26.8283 18.0002 26.1595 18.0002 25.3345C18.0002 24.5095 17.3287 23.8407 16.5002 23.8407C15.6718 23.8407 15.0002 24.5095 15.0002 25.3345C15.0002 26.1595 15.6718 26.8283 16.5002 26.8283ZM31.5 26.8283C32.3284 26.8283 33 26.1595 33 25.3345C33 24.5095 32.3284 23.8407 31.5 23.8407C30.6716 23.8407 30 24.5095 30 25.3345C30 26.1595 30.6716 26.8283 31.5 26.8283ZM27.2045 36.1006C25.1582 36.974 22.8418 36.974 20.7954 36.1006C20.4147 35.9381 19.9738 36.1138 19.8106 36.4929C19.6474 36.8721 19.8238 37.3112 20.2045 37.4737C22.6282 38.5081 25.3717 38.5081 27.7954 37.4737C28.1761 37.3112 28.3525 36.8721 28.1893 36.4929C28.0262 36.1138 27.5852 35.9381 27.2045 36.1006Z" fill="currentColor"/>
</svg>
