<svg width="48" height="48" viewBox="0 0 48 48" fill="none" xmlns="http://www.w3.org/2000/svg">
<path d="M22.1388 16.234C22.4662 15.9038 22.4329 15.3516 22.0359 15.1096C19.8398 13.7711 17.26 13 14.5 13C6.49187 13 0 19.4919 0 27.5C0 35.5081 6.49187 42 14.5 42C22.5081 42 29 35.5081 29 27.5C29 24.5133 28.097 21.7374 26.549 19.4307C26.2908 19.0458 25.754 18.9874 25.4241 19.3128C25.1507 19.5826 25.1339 20.0103 25.346 20.3305C26.7072 22.3857 27.5 24.8503 27.5 27.5C27.5 34.6797 21.6797 40.5 14.5 40.5C7.3203 40.5 1.5 34.6797 1.5 27.5C1.5 20.3203 7.3203 14.5 14.5 14.5C16.9461 14.5 19.2344 15.1756 21.1885 16.3504C21.4939 16.534 21.8879 16.487 22.1388 16.234Z" fill="currentColor"/>
<path d="M46.5 27.5C46.5 34.6797 40.6797 40.5 33.5 40.5C31.0538 40.5 28.7654 39.8244 26.8113 38.6495C26.5059 38.4659 26.1119 38.5129 25.861 38.7659Lnan nanL25.861 38.7659C25.5336 39.096 25.5668 39.6482 25.9639 39.8902C28.16 41.2288 30.7399 42 33.5 42C41.5081 42 48 35.5081 48 27.5C48 19.4919 41.5081 13 33.5 13C25.4919 13 19 19.4919 19 27.5C19 30.4867 19.903 33.2625 21.4509 35.5693C21.7091 35.9541 22.246 36.0126 22.5759 35.6871Lnan nanL22.5759 35.6871C22.8493 35.4173 22.8661 34.9897 22.654 34.6695C21.2927 32.6143 20.5 30.1497 20.5 27.5C20.5 20.3203 26.3203 14.5 33.5 14.5C40.6797 14.5 46.5 20.3203 46.5 27.5Z" fill="currentColor"/>
<path fill-rule="evenodd" clip-rule="evenodd" d="M11.1313 6.5L10.6158 8.30446L11.8704 10.5H17.1294L18.384 8.30446L17.8684 6.5H11.1313ZM10.7542 5C10.3077 5 9.91532 5.29598 9.79267 5.72528L9.11563 8.09492C9.04162 8.35395 9.07525 8.63188 9.20891 8.86578L10.712 11.4961C10.89 11.8077 11.2214 12 11.5802 12H17.4196C17.7784 12 18.1098 11.8077 18.2878 11.4961L19.7909 8.86578C19.9245 8.63188 19.9582 8.35395 19.8842 8.09492L19.2071 5.72528C19.0845 5.29598 18.6921 5 18.2456 5H10.7542Z" fill="currentColor"/>
</svg>
