<svg width="48" height="48" viewBox="0 0 48 48" fill="none" xmlns="http://www.w3.org/2000/svg">
<g clip-path="url(#clip0_7051_11941)">
<path fill-rule="evenodd" clip-rule="evenodd" d="M34 34.0009C34 39.5237 29.5228 44.0009 24 44.0009C18.4772 44.0009 14 39.5237 14 34.0009C14 28.478 18.4772 24.0009 24 24.0009C29.5228 24.0009 34 28.478 34 34.0009ZM32.5 34.0009C32.5 38.6953 28.6944 42.5009 24 42.5009C22.6199 42.5009 21.3167 42.172 20.1643 41.5883C20.196 41.432 20.2499 41.284 20.3261 41.1444C20.4203 40.985 20.5978 40.9053 20.8587 40.9053C20.9674 40.9053 21.3949 41.0357 22.1413 41.2966C22.8949 41.5574 23.6159 41.6879 24.3043 41.6879C25.6739 41.6879 26.7971 41.2966 27.6739 40.5139C28.558 39.7313 29 38.7567 29 37.59C29 36.7205 28.7536 35.9668 28.2609 35.3292C27.7609 34.6987 26.8986 34.0067 25.6739 33.2531L23.7174 32.0466C22.9855 31.5973 22.4457 31.1661 22.0978 30.7531C21.75 30.3473 21.5761 29.8582 21.5761 29.2857C21.5761 28.648 21.8007 28.1516 22.25 27.7966C22.7065 27.4342 23.2391 27.2531 23.8478 27.2531C24.6304 27.2531 25.4203 27.5357 26.2174 28.1009C27.0217 28.6661 27.6051 29.6625 27.9674 31.09H28.5L28.0277 26.5138C30.6904 27.9493 32.5 30.7637 32.5 34.0009ZM27.5375 26.2697C26.4604 25.776 25.2624 25.5009 24 25.5009C19.3056 25.5009 15.5 29.3064 15.5 34.0009C15.5 37.0892 17.1471 39.7929 19.6107 41.2814L19 36.9161H19.5109C19.8877 37.9161 20.3297 38.7132 20.837 39.3074C21.721 40.3437 22.8188 40.8618 24.1304 40.8618C24.8406 40.8618 25.4529 40.6371 25.9674 40.1879C26.4891 39.7386 26.75 39.1118 26.75 38.3074C26.75 37.5828 26.4891 36.9524 25.9674 36.4161C25.6268 36.0755 24.9094 35.5647 23.8152 34.8835L21.913 33.6987C21.3406 33.3364 20.8841 32.9705 20.5435 32.6009C19.913 31.898 19.5978 31.1226 19.5978 30.2748C19.5978 29.1516 19.971 28.2168 20.7174 27.4705C21.4638 26.7241 22.4529 26.3509 23.6848 26.3509C24.192 26.3509 24.8007 26.4777 25.5109 26.7313C26.2283 26.9777 26.6377 27.1009 26.7391 27.1009C27.0145 27.1009 27.2029 27.0357 27.3043 26.9053C27.4029 26.7869 27.4807 26.5004 27.5375 26.2697Z" fill="currentColor"/>
<path fill-rule="evenodd" clip-rule="evenodd" d="M34.4409 10.5009L36.2132 8.72857L27.7279 0.243286L17.4704 10.5009H7.16065C6.44293 10.5009 5.78024 10.8854 5.42416 11.5086L0.263514 20.5397C0.0908306 20.8419 0 21.1839 0 21.532V46.0009C0 47.1054 0.895432 48.0009 2 48.0009H46C47.1046 48.0009 48 47.1054 48 46.0009V21.532C48 21.1839 47.9092 20.8419 47.7365 20.5397L42.5758 11.5086C42.2198 10.8854 41.5571 10.5009 40.8394 10.5009H34.4409ZM27.7279 2.36461L17.1213 12.9712L19.151 15.0009H27.8196L34.0919 8.72857L27.7279 2.36461ZM15 12.9712L17.0296 15.0009H12.75C12.3358 15.0009 12 15.3366 12 15.7509C12 16.1651 12.3358 16.5009 12.75 16.5009H35.25C35.6642 16.5009 36 16.1651 36 15.7509C36 15.3366 35.6642 15.0009 35.25 15.0009H29.9409L32.9409 12.0009H40.8394C41.0188 12.0009 41.1845 12.097 41.2735 12.2528L45.7009 20.0009H2.29905L6.72652 12.2528C6.81555 12.097 6.98122 12.0009 7.16065 12.0009H15.9704L15 12.9712ZM1.50097 21.5009C1.50032 21.5112 1.5 21.5216 1.5 21.532V46.0009C1.5 46.277 1.72386 46.5009 2 46.5009H46C46.2761 46.5009 46.5 46.277 46.5 46.0009V21.532C46.5 21.5216 46.4997 21.5112 46.499 21.5009H1.50097Z" fill="currentColor"/>
</g>
<defs>
<clipPath id="clip0_7051_11941">
<rect width="48" height="48" fill="white" transform="translate(0 0.000854492)"/>
</clipPath>
</defs>
</svg>
