<svg width="48" height="48" viewBox="0 0 48 48" fill="none" xmlns="http://www.w3.org/2000/svg">
<path fill-rule="evenodd" clip-rule="evenodd" d="M22.0744 6.93752L22.0659 6.93294L22.0247 6.91107C21.987 6.8912 21.9297 6.86142 21.8567 6.82463C21.7099 6.75068 21.5036 6.65044 21.2678 6.54631C20.76 6.32214 20.2495 6.14075 19.9113 6.09169C19.1058 5.97486 18.108 6.22345 17.132 6.6833C16.4149 7.02122 15.8473 7.40699 15.5281 7.66008V11.4546C15.9537 11.8983 16.2167 12.5005 16.2167 13.1674V15.1253C16.2167 15.7923 15.9537 16.3944 15.5281 16.8381V44.2484L15.5283 44.3484C15.5295 44.8754 15.5315 45.7003 15.2667 46.3829C15.1008 46.8108 14.808 47.2605 14.3086 47.5831C13.8223 47.8972 13.28 48 12.7713 48C12.2625 48 11.7202 47.8972 11.2339 47.5831C10.7346 47.2605 10.4418 46.8108 10.2758 46.3829C10.011 45.7003 10.013 44.8754 10.0142 44.3484L10.0144 44.2484V16.8381C9.58887 16.3944 9.32587 15.7923 9.32587 15.1253V13.1674C9.32587 12.5238 9.57082 11.9405 9.97041 11.5017C9.95928 11.3224 9.95695 11.1435 9.95516 11.0062L9.9541 10.9301C9.94922 10.6234 9.94231 10.3098 9.91186 9.98954C9.8463 9.30003 9.69154 8.85111 9.48625 8.61504C9.36363 8.47402 9.18771 8.37615 8.63703 8.23633C8.59207 8.22492 8.53966 8.21255 8.48097 8.1987C8.00846 8.08719 7.12868 7.87957 6.45107 7.2997C4.78169 5.87112 4.38094 3.12044 6.16318 1.34671C6.87942 0.63389 7.78628 0.142629 8.8772 0.351814C9.72893 0.515137 10.4241 1.09183 10.8549 1.44924L10.8719 1.46332C11.0549 1.6151 11.3703 1.69506 11.7117 1.57795C12.8753 1.17882 14.523 0.670779 16.2383 0.33474C17.9707 -0.00467283 19.4474 -0.11926 21.4765 0.147483L21.5825 0.161343C22.2414 0.247253 23.3915 0.397213 24.5616 0.756698C25.7699 1.1279 27.2349 1.79005 28.1982 3.06474C28.9464 4.05483 28.9739 5.12381 28.9894 5.72402C28.9914 5.80111 28.9932 5.87047 28.9963 5.93093C29.0297 6.585 28.9059 7.30343 28.4157 7.88239C27.9186 8.46956 27.2585 8.66186 26.7509 8.70398C25.8274 8.78061 24.9061 8.41464 24.4485 8.19275C24.0255 7.98762 23.4227 7.66828 22.9439 7.41063C22.7005 7.27967 22.4822 7.16089 22.3248 7.07484L22.1381 6.97259L22.0871 6.94451L22.0744 6.93752ZM11.5144 44.2484V16.75H14.0281V44.2484C14.0281 45.4919 14.0207 46.5 12.7713 46.5C11.5218 46.5 11.5144 45.4919 11.5144 44.2484ZM14.0281 7.35367V11.5H11.4738C11.461 11.3606 11.4581 11.1738 11.4547 10.955C11.4403 10.0354 11.417 8.54941 10.6181 7.63074C10.1191 7.05689 9.45427 6.89269 8.81505 6.73482C8.30286 6.60832 7.80713 6.48589 7.42635 6.16003C6.33866 5.22924 6.13514 3.49088 7.2213 2.40991C8.26079 1.37538 8.94656 1.81528 9.91435 2.61791C10.5299 3.12846 11.4006 3.27045 12.1984 2.9968C13.3275 2.60952 14.9041 2.12464 16.5267 1.80676C18.1277 1.49308 19.4391 1.39255 21.281 1.63469L21.375 1.64701C22.7302 1.82421 25.6712 2.20877 27.0015 3.9691C27.442 4.55199 27.4636 5.12422 27.487 5.7423C27.4903 5.82969 27.4937 5.91809 27.4982 6.00747C27.5856 7.71829 25.8855 7.22251 25.103 6.84306C24.3205 6.46361 22.7932 5.62097 22.7932 5.62097C22.7932 5.62097 21.2297 4.76722 20.1266 4.60722C17.6753 4.25168 14.8648 6.13526 14.1944 6.84306C14.0991 6.94366 14.0281 7.11233 14.0281 7.35367Z" fill="currentColor"/>
<path fill-rule="evenodd" clip-rule="evenodd" d="M28.6233 21.7398C29.0319 21.6717 29.3079 21.2853 29.2398 20.8767C29.1717 20.4681 28.7853 20.1921 28.3767 20.2602L26.9803 20.4929C25.7301 20.7013 24.6704 21.5262 24.1596 22.6851L24.0784 22.8695C23.4765 24.2351 22.7765 25.8235 22.2184 27.1284C21.9674 27.7152 21.7432 28.249 21.5688 28.6817C21.2055 29.3747 21 30.1633 21 31C21 33.7614 23.2386 36 26 36C28.7614 36 31 33.7614 31 31C31 30.6389 30.9617 30.2868 30.889 29.9474C31.6121 29.7213 32.3879 29.7213 33.111 29.9475C33.0383 30.2868 33 30.6389 33 31C33 33.7614 35.2386 36 38 36C40.7614 36 43 33.7614 43 31C43 30.1633 42.7945 29.3747 42.4312 28.6817C42.2568 28.249 42.0326 27.7152 41.7816 27.1284C41.2235 25.8236 40.5235 24.2352 39.9217 22.8696L39.8404 22.6851C39.3296 21.5262 38.2699 20.7013 37.0197 20.4929L35.6233 20.2602C35.2147 20.1921 34.8283 20.4681 34.7602 20.8767C34.6921 21.2853 34.9681 21.6717 35.3767 21.7398L36.7731 21.9725C37.5236 22.0976 38.1605 22.5929 38.4677 23.29L38.5486 23.4734C38.9491 24.3822 39.391 25.3849 39.8051 26.3358C39.2452 26.1189 38.6365 26 38 26C36.1315 26 34.5023 27.025 33.6441 28.5434C32.577 28.1893 31.423 28.1893 30.3559 28.5433C29.4977 27.025 27.8685 26 26 26C25.3635 26 24.7548 26.1189 24.1949 26.3358C24.6091 25.3848 25.051 24.382 25.4515 23.4732L25.5323 23.29C25.8395 22.5929 26.4764 22.0976 27.2269 21.9725L28.6233 21.7398ZM41.1167 29.4346L41.071 29.3196C40.4763 28.2352 39.324 27.5 38 27.5C36.067 27.5 34.5 29.067 34.5 31C34.5 32.933 36.067 34.5 38 34.5C39.933 34.5 41.5 32.933 41.5 31C41.5 30.781 41.4799 30.5668 41.4414 30.359C41.3964 30.2765 41.3664 30.1847 41.3551 30.0872C41.3481 30.0618 41.3353 30.0208 41.3149 29.9611C41.2714 29.8342 41.2048 29.6573 41.1167 29.4346ZM22.5586 30.359C22.6036 30.2765 22.6336 30.1847 22.6449 30.0872C22.6519 30.0618 22.6647 30.0208 22.6851 29.9611C22.7286 29.8342 22.7952 29.6573 22.8833 29.4346L22.929 29.3196C23.5237 28.2352 24.676 27.5 26 27.5C27.933 27.5 29.5 29.067 29.5 31C29.5 32.933 27.933 34.5 26 34.5C24.067 34.5 22.5 32.933 22.5 31C22.5 30.781 22.5201 30.5668 22.5586 30.359Z" fill="currentColor"/>
</svg>
