<svg width="48" height="48" viewBox="0 0 48 48" fill="none" xmlns="http://www.w3.org/2000/svg">
<g clip-path="url(#clip0_3039_9134)">
<path fill-rule="evenodd" clip-rule="evenodd" d="M41.76 10.8661C41.76 13.0752 39.9691 14.8661 37.76 14.8661C35.5509 14.8661 33.76 13.0752 33.76 10.8661C33.76 8.65695 35.5509 6.86609 37.76 6.86609C39.9691 6.86609 41.76 8.65695 41.76 10.8661ZM40.26 10.8661C40.26 12.2468 39.1407 13.3661 37.76 13.3661C36.3793 13.3661 35.26 12.2468 35.26 10.8661C35.26 9.48538 36.3793 8.36609 37.76 8.36609C39.1407 8.36609 40.26 9.48538 40.26 10.8661Z" fill="currentColor"/>
<path fill-rule="evenodd" clip-rule="evenodd" d="M41.027 3.39743L40.6931 3.25105L40.4192 1.9975C40.2282 1.12372 39.4545 0.500854 38.5601 0.500854H36.9589C36.0654 0.500854 35.2923 1.12249 35.1004 1.99515L34.824 3.25194L34.4929 3.39722C33.9404 3.63927 33.4155 3.94222 32.9297 4.29976L32.6369 4.51374L31.4112 4.12319C30.5586 3.85152 29.6318 4.21061 29.1849 4.98587L28.382 6.37846C27.9354 7.15312 28.0884 8.13424 28.7496 8.73616L29.6988 9.60023L29.6591 9.95978L29.6589 9.96158C29.5911 10.5629 29.5911 11.17 29.6589 11.7708L29.6591 11.7727L29.6988 12.1314L28.7487 12.9976C28.0879 13.5999 27.9356 14.5811 28.3826 15.3554L29.1831 16.7417C29.6303 17.5163 30.5566 17.8749 31.4088 17.6034L32.6342 17.213L32.9251 17.4258L32.9264 17.4267C33.1754 17.6097 33.4348 17.7788 33.7055 17.9333C33.9586 18.0798 34.2165 18.2113 34.4822 18.3301L34.4924 18.3346L34.8263 18.481L35.1003 19.7346C35.2912 20.6083 36.0649 21.2312 36.9594 21.2312H38.56C39.4545 21.2312 40.2283 20.6082 40.4192 19.7344L40.6932 18.4799L41.027 18.3335L41.0315 18.3316C41.5799 18.089 42.1027 17.788 42.589 17.4317L42.8821 17.2172L44.11 17.6081C44.9621 17.8793 45.8881 17.5207 46.3352 16.7463L47.1357 15.3598C47.5828 14.5855 47.4304 13.6043 46.7696 13.002L45.8195 12.1359L45.8592 11.7767L45.8595 11.7745C45.9272 11.1734 45.9272 10.5665 45.8594 9.96601L45.8592 9.96383L45.8194 9.60438L46.7718 8.73494C47.4319 8.13237 47.5837 7.15165 47.1367 6.37772L46.3351 4.98997C45.8879 4.21565 44.9619 3.85718 44.1098 4.12853L42.8826 4.51936L42.5915 4.30662L42.5895 4.30517C42.1055 3.94924 41.5847 3.64626 41.0361 3.40142L41.027 3.39743ZM41.7025 5.51479C41.3045 5.2219 40.8761 4.97261 40.4248 4.77122L39.3909 4.31799L38.9538 2.31778C38.9133 2.13275 38.7495 2.00085 38.5601 2.00085H36.9589C36.7697 2.00085 36.606 2.13249 36.5654 2.31728L36.1252 4.3191L35.0946 4.77122C34.6427 4.96915 34.2142 5.21667 33.8169 5.50925L32.9071 6.17414L30.9558 5.55239C30.7753 5.49486 30.579 5.57091 30.4844 5.73507L29.6815 7.12766C29.5869 7.2917 29.6193 7.49946 29.7593 7.62692L31.2737 9.00546L31.1496 10.128C31.0942 10.6189 31.0942 11.1143 31.1496 11.6041L31.2737 12.7255L29.7592 14.1061C29.6193 14.2337 29.587 14.4414 29.6817 14.6054L30.4821 15.9917C30.5768 16.1558 30.7729 16.2317 30.9534 16.1742L32.9049 15.5524L33.8136 16.2173C34.0186 16.368 34.2314 16.5065 34.453 16.6328C34.6613 16.7536 34.8741 16.8622 35.0946 16.9608L36.1285 17.4141L36.5657 19.4143C36.6061 19.5993 36.77 19.7312 36.9594 19.7312H38.56C38.7495 19.7312 38.9133 19.5993 38.9537 19.4142L39.3909 17.413L40.4248 16.9597C40.8758 16.7603 41.3047 16.5132 41.7025 16.2217L42.6112 15.5568L44.565 16.1787C44.7454 16.2362 44.9415 16.1602 45.0362 15.9963L45.8367 14.6098C45.9313 14.4459 45.8991 14.2381 45.7591 14.1105L44.2446 12.7299L44.3687 11.6085C44.4241 11.1176 44.4241 10.6222 44.3687 10.1324L44.2446 9.01099L45.7605 7.62712C45.9003 7.49952 45.9325 7.29185 45.8378 7.12797L45.0362 5.74021C44.9415 5.57624 44.7454 5.50033 44.565 5.55779L42.6123 6.17968L41.7025 5.51479Z" fill="currentColor"/>
<path fill-rule="evenodd" clip-rule="evenodd" d="M23.2724 29.2141C23.2724 32.8602 20.3167 35.816 16.6706 35.816C13.0246 35.816 10.0688 32.8602 10.0688 29.2141C10.0688 25.568 13.0246 22.6122 16.6706 22.6122C20.3167 22.6122 23.2724 25.568 23.2724 29.2141ZM21.7724 29.2141C21.7724 32.0318 19.4883 34.316 16.6706 34.316C13.853 34.316 11.5688 32.0318 11.5688 29.2141C11.5688 26.3964 13.853 24.1122 16.6706 24.1122C19.4883 24.1122 21.7724 26.3964 21.7724 29.2141Z" fill="currentColor"/>
<path fill-rule="evenodd" clip-rule="evenodd" d="M12.7285 42.2019L11.5362 41.6792C11.0896 41.4795 10.6571 41.2588 10.233 41.0132C9.78073 40.7551 9.34705 40.4726 8.93007 40.1662L8.92829 40.1649L7.89191 39.4065L5.06561 40.3071C4.06534 40.6258 2.97812 40.2049 2.45321 39.2958L0.996166 36.7721C0.471444 35.8632 0.650217 34.7116 1.42578 34.0047L3.61841 32.0059L3.47689 30.7271L3.47668 30.7253C3.3634 29.7227 3.36345 28.7092 3.47665 27.7051L3.47684 27.7033L3.61841 26.4228L1.42685 24.4278C0.650756 23.7213 0.471217 22.5698 0.995401 21.6606L2.45691 19.1255C2.98151 18.2156 4.06924 17.7941 5.07 18.113L7.89646 19.0136L8.93554 18.2542C9.74746 17.6565 10.6232 17.1507 11.5468 16.7462L12.7235 16.23L13.3609 13.3309C13.5861 12.3067 14.4936 11.577 15.5424 11.577H18.457C19.5068 11.577 20.4149 12.3081 20.639 13.3337L21.2716 16.2282L22.4627 16.7503C23.3816 17.1603 24.2537 17.6678 25.0642 18.264L25.0663 18.2656L26.1038 19.0238L28.9329 18.1227C29.9329 17.8043 31.0198 18.225 31.5447 19.1338L33.0039 21.6601C33.5285 22.5685 33.3504 23.7195 32.5757 24.4268L30.3796 26.4315L30.5212 27.711L30.5215 27.7131C30.6347 28.7155 30.6346 29.7287 30.5215 30.7326L30.5213 30.7348L30.3797 32.014L32.5723 34.0127C33.3479 34.7197 33.5267 35.8713 33.0019 36.7801L31.5448 39.304C31.02 40.2129 29.9331 40.6339 28.933 40.3155L26.1024 39.4145L25.0638 40.1744C24.2514 40.7695 23.3763 41.2737 22.4582 41.6797L22.4537 41.6817L21.2717 42.1998L20.639 45.0962C20.415 46.1218 19.5068 46.853 18.4569 46.853H15.5431C14.4933 46.853 13.5852 46.122 13.3611 45.0964L12.7285 42.2019ZM12.1487 40.3099C11.7472 40.1304 11.3599 39.9327 10.9807 39.7128C10.5773 39.4828 10.1899 39.2307 9.81676 38.9563L8.16265 37.746L4.61021 38.8779C4.28171 38.9826 3.92464 38.8443 3.75225 38.5458L2.2952 36.0221C2.12288 35.7236 2.18159 35.3454 2.4363 35.1132L5.19331 32.6L4.96738 30.5585C4.86652 29.6669 4.86652 28.7652 4.96738 27.8715L5.19331 25.8281L2.4366 23.3186C2.18172 23.0866 2.12275 22.7084 2.29491 22.4098L3.75642 19.8747C3.92871 19.5759 4.28594 19.4375 4.61461 19.5422L8.16668 20.674L9.82281 19.4636C10.5459 18.931 11.326 18.4804 12.1487 18.1202L14.0247 17.2971L14.8259 13.653C14.8999 13.3167 15.1979 13.077 15.5424 13.077H18.457C18.8018 13.077 19.1 13.3171 19.1736 13.6539L19.9694 17.2951L21.8515 18.1202C22.673 18.4868 23.4527 18.9405 24.1773 19.4737L25.8334 20.6841L29.388 19.552C29.7165 19.4474 30.0734 19.5856 30.2458 19.8841L31.705 22.4103C31.8773 22.7087 31.8188 23.0867 31.5643 23.319L28.8048 25.8382L29.0307 27.8796C29.1316 28.7712 29.1316 29.6729 29.0307 30.5666L28.8048 32.608L31.5618 35.1213C31.8165 35.3535 31.8752 35.7317 31.7029 36.0301L30.2458 38.554C30.0734 38.8525 29.7165 38.9907 29.388 38.8862L25.8314 37.754L24.1773 38.9644C23.4531 39.4949 22.6725 39.9448 21.8515 40.3079L19.9694 41.1329L19.1736 44.776C19.1 45.1129 18.8017 45.353 18.4569 45.353H15.5431C15.1984 45.353 14.9001 45.1129 14.8265 44.7761L14.0307 41.135L12.1487 40.3099Z" fill="currentColor"/>
</g>
<defs>
<clipPath id="clip0_3039_9134">
<rect width="48" height="48" fill="white" transform="translate(0 0.000854492)"/>
</clipPath>
</defs>
</svg>
