<svg width="48" height="48" viewBox="0 0 48 48" fill="none" xmlns="http://www.w3.org/2000/svg">
<path fill-rule="evenodd" clip-rule="evenodd" d="M0 10C0 8.89543 0.895431 8 2 8H46C47.1046 8 48 8.89543 48 10V38C48 39.1046 47.1046 40 46 40H2C0.895432 40 0 39.1046 0 38V10ZM45.1815 9.5H2.81819L23.6865 26.2854C23.8695 26.4326 24.1302 26.4326 24.3132 26.2854L45.1815 9.5ZM1.5 10.3647V38C1.5 38.2761 1.72386 38.5 2 38.5H46C46.2761 38.5 46.5 38.2761 46.5 38V10.3645L25.2534 27.4542C24.5214 28.0429 23.4783 28.0429 22.7463 27.4542L1.5 10.3647Z" fill="currentColor"/>
</svg>
