<svg width="48" height="48" viewBox="0 0 48 48" fill="none" xmlns="http://www.w3.org/2000/svg">
<path d="M40.0832 17.9496C40.0832 19.0778 39.1457 20.0008 37.9998 20.0008C36.854 20.0008 35.9165 19.0778 35.9165 17.9496H40.0832Z" fill="currentColor"/>
<path d="M44.2498 13.498C44.2498 13.7213 44.3394 13.9352 44.4985 14.0918L46.1174 15.6859C46.2554 15.8218 46.3332 16.0073 46.3332 16.201C46.3332 16.6003 46.0095 16.9239 45.6102 16.9239H30.3894C29.9902 16.9239 29.6665 16.6003 29.6665 16.201C29.6665 16.0073 29.7442 15.8218 29.8822 15.6859L31.5012 14.0918C31.6603 13.9352 31.7498 13.7213 31.7498 13.498V8.71879C31.7498 5.53931 33.4165 2.97521 36.4373 2.25726V1.53931C36.4373 0.718802 37.1665 0.000854492 37.9998 0.000854492C38.8332 0.000854492 39.5623 0.718802 39.5623 1.53931V2.25726C42.5832 2.97521 44.2498 5.53931 44.2498 8.71879V13.498Z" fill="currentColor"/>
<path d="M3 8.00085C1.89543 8.00085 1 8.89629 1 10.0009V38.0009C1 39.1054 1.89543 40.0009 3 40.0009H8.23223C8.36484 40.0009 8.49202 40.0535 8.58579 40.1473L15.3358 46.8973C16.1168 47.6783 17.3832 47.6783 18.1642 46.8973L24.9142 40.1473C25.008 40.0535 25.1352 40.0009 25.2678 40.0009H42C43.1046 40.0009 44 39.1054 44 38.0009V21.7509C44 21.3366 43.6642 21.0009 43.25 21.0009C42.8358 21.0009 42.5 21.3366 42.5 21.7509V38.0009C42.5 38.277 42.2761 38.5009 42 38.5009H25.2678C24.7373 38.5009 24.2286 38.7116 23.8536 39.0866L17.1036 45.8366C16.9083 46.0319 16.5917 46.0319 16.3964 45.8366L9.64645 39.0866C9.27137 38.7116 8.76267 38.5009 8.23223 38.5009H3C2.72386 38.5009 2.5 38.277 2.5 38.0009V10.0009C2.5 9.72471 2.72386 9.50085 3 9.50085H27.25C27.6642 9.50085 28 9.16507 28 8.75085C28 8.33664 27.6642 8.00085 27.25 8.00085H3Z" fill="currentColor"/>
<path d="M8.25 17.7499C8.25 17.3357 8.58579 16.9999 9 16.9999H16C16.4142 16.9999 16.75 17.3357 16.75 17.7499C16.75 18.1641 16.4142 18.4999 16 18.4999H9C8.58579 18.4999 8.25 18.1641 8.25 17.7499Z" fill="currentColor"/>
<path d="M8.25 26.7499C8.25 26.3357 8.58579 25.9999 9 25.9999H29C29.4142 25.9999 29.75 26.3357 29.75 26.7499C29.75 27.1641 29.4142 27.4999 29 27.4999H9C8.58579 27.4999 8.25 27.1641 8.25 26.7499Z" fill="currentColor"/>
</svg>
