<svg width="48" height="48" viewBox="0 0 48 48" fill="none" xmlns="http://www.w3.org/2000/svg">
<path d="M14.8501 15.1571C14.8501 14.8915 14.8084 14.6571 14.7251 14.454C14.647 14.2456 14.5063 14.0581 14.3032 13.8915C14.1053 13.7248 13.8293 13.566 13.4751 13.4149C13.1261 13.2639 12.6834 13.1102 12.147 12.954C11.5845 12.7873 11.0767 12.6024 10.6235 12.3993C10.1704 12.191 9.78239 11.954 9.45947 11.6884C9.13656 11.4227 8.88916 11.118 8.71729 10.7743C8.54541 10.4305 8.45947 10.0373 8.45947 9.5946C8.45947 9.1519 8.55062 8.74304 8.73291 8.36804C8.9152 7.99304 9.17562 7.66752 9.51416 7.39148C9.85791 7.11023 10.2668 6.89148 10.7407 6.73523C11.2147 6.57898 11.7433 6.50085 12.3267 6.50085C13.1808 6.50085 13.9048 6.66492 14.4985 6.99304C15.0975 7.31596 15.5532 7.74044 15.8657 8.26648C16.0443 8.56409 16.1718 8.87361 16.2484 9.19503C16.3443 9.59798 15.9987 9.93835 15.5845 9.93835C15.1703 9.93835 14.8514 9.59432 14.7286 9.19871C14.6858 9.06059 14.6299 8.92953 14.561 8.80554C14.3787 8.47221 14.1027 8.21179 13.7329 8.02429C13.3631 7.83158 12.8944 7.73523 12.3267 7.73523C11.7902 7.73523 11.3475 7.81596 10.9985 7.97742C10.6496 8.13888 10.3892 8.35763 10.2173 8.63367C10.0506 8.90971 9.96729 9.22481 9.96729 9.57898C9.96729 9.81856 10.0168 10.0373 10.1157 10.2352C10.2199 10.4279 10.3787 10.6076 10.5923 10.7743C10.811 10.941 11.0871 11.0946 11.4204 11.2352C11.759 11.3759 12.1626 11.5113 12.6313 11.6415C13.2772 11.8238 13.8345 12.0269 14.3032 12.2509C14.772 12.4748 15.1574 12.7274 15.4595 13.0087C15.7668 13.2847 15.9933 13.5998 16.1392 13.954C16.2902 14.3029 16.3657 14.6988 16.3657 15.1415C16.3657 15.605 16.272 16.0243 16.0845 16.3993C15.897 16.7743 15.6287 17.0946 15.2798 17.3602C14.9308 17.6259 14.5116 17.8316 14.022 17.9774C13.5376 18.118 12.9959 18.1884 12.397 18.1884C11.8709 18.1884 11.3527 18.1154 10.8423 17.9696C10.3371 17.8238 9.87614 17.605 9.45947 17.3134C9.04801 17.0217 8.71729 16.6623 8.46729 16.2352C8.33573 16.0029 8.23952 15.751 8.17867 15.4796C8.08805 15.0754 8.43588 14.7352 8.8501 14.7352C9.26431 14.7352 9.5788 15.0811 9.71064 15.4737C9.74245 15.5685 9.78112 15.6582 9.82666 15.743C9.9777 16.0191 10.1834 16.2483 10.4438 16.4305C10.7095 16.6128 11.009 16.7483 11.3423 16.8368C11.6808 16.9201 12.0324 16.9618 12.397 16.9618C12.923 16.9618 13.3683 16.8889 13.7329 16.743C14.0975 16.5972 14.3735 16.3889 14.561 16.118C14.7537 15.8472 14.8501 15.5269 14.8501 15.1571Z" fill="currentColor"/>
<path fill-rule="evenodd" clip-rule="evenodd" d="M29.0454 11.9852V12.704C29.0454 13.5581 28.9386 14.3238 28.7251 15.0009C28.5116 15.6779 28.2043 16.2535 27.8032 16.7274C27.4022 17.2014 26.9204 17.5634 26.3579 17.8134C25.8006 18.0634 25.1756 18.1884 24.4829 18.1884C23.811 18.1884 23.1938 18.0634 22.6313 17.8134C22.0741 17.5634 21.5897 17.2014 21.1782 16.7274C20.772 16.2535 20.4569 15.6779 20.2329 15.0009C20.009 14.3238 19.897 13.5581 19.897 12.704V11.9852C19.897 11.1311 20.0063 10.368 20.2251 9.69617C20.4491 9.01908 20.7642 8.44356 21.1704 7.9696C21.5767 7.49044 22.0584 7.12585 22.6157 6.87585C23.1782 6.62585 23.7954 6.50085 24.4673 6.50085C25.16 6.50085 25.785 6.62585 26.3423 6.87585C26.9048 7.12585 27.3866 7.49044 27.7876 7.9696C28.1938 8.44356 28.5037 9.01908 28.7173 9.69617C28.936 10.368 29.0454 11.1311 29.0454 11.9852ZM27.5532 12.704V11.9696C27.5532 11.2925 27.4829 10.6936 27.3423 10.1727C27.2069 9.6519 27.0063 9.2144 26.7407 8.86023C26.4751 8.50606 26.1496 8.23783 25.7642 8.05554C25.384 7.87325 24.9517 7.7821 24.4673 7.7821C23.9985 7.7821 23.5741 7.87325 23.1938 8.05554C22.8188 8.23783 22.4959 8.50606 22.2251 8.86023C21.9595 9.2144 21.7537 9.6519 21.6079 10.1727C21.4621 10.6936 21.3892 11.2925 21.3892 11.9696V12.704C21.3892 13.3863 21.4621 13.9904 21.6079 14.5165C21.7537 15.0373 21.9621 15.4774 22.2329 15.8368C22.509 16.191 22.8345 16.4592 23.2095 16.6415C23.5897 16.8238 24.0142 16.9149 24.4829 16.9149C24.9725 16.9149 25.4074 16.8238 25.7876 16.6415C26.1678 16.4592 26.4881 16.191 26.7485 15.8368C27.0142 15.4774 27.2147 15.0373 27.3501 14.5165C27.4855 13.9904 27.5532 13.3863 27.5532 12.704Z" fill="currentColor"/>
<path d="M39.2407 14.454C39.3241 14.6571 39.3657 14.8915 39.3657 15.1571C39.3657 15.5269 39.2694 15.8472 39.0767 16.118C38.8892 16.3889 38.6131 16.5972 38.2485 16.743C37.884 16.8889 37.4386 16.9618 36.9126 16.9618C36.548 16.9618 36.1965 16.9201 35.8579 16.8368C35.5246 16.7483 35.2251 16.6128 34.9595 16.4305C34.6991 16.2483 34.4933 16.0191 34.3423 15.743C34.2967 15.6582 34.2581 15.5685 34.2263 15.4737C34.0944 15.0811 33.7799 14.7352 33.3657 14.7352C32.9515 14.7352 32.6037 15.0754 32.6943 15.4796C32.7551 15.751 32.8514 16.0029 32.9829 16.2352C33.2329 16.6623 33.5636 17.0217 33.9751 17.3134C34.3918 17.605 34.8527 17.8238 35.3579 17.9696C35.8683 18.1154 36.3866 18.1884 36.9126 18.1884C37.5116 18.1884 38.0532 18.118 38.5376 17.9774C39.0272 17.8316 39.4465 17.6259 39.7954 17.3602C40.1444 17.0946 40.4126 16.7743 40.6001 16.3993C40.7876 16.0243 40.8813 15.605 40.8813 15.1415C40.8813 14.6988 40.8058 14.3029 40.6548 13.954C40.509 13.5998 40.2824 13.2847 39.9751 13.0087C39.673 12.7274 39.2876 12.4748 38.8188 12.2509C38.3501 12.0269 37.7928 11.8238 37.147 11.6415C36.6782 11.5113 36.2746 11.3759 35.936 11.2352C35.6027 11.0946 35.3267 10.941 35.1079 10.7743C34.8944 10.6076 34.7355 10.4279 34.6313 10.2352C34.5324 10.0373 34.4829 9.81856 34.4829 9.57898C34.4829 9.22481 34.5662 8.90971 34.7329 8.63367C34.9048 8.35763 35.1652 8.13888 35.5142 7.97742C35.8631 7.81596 36.3058 7.73523 36.8423 7.73523C37.41 7.73523 37.8787 7.83158 38.2485 8.02429C38.6183 8.21179 38.8944 8.47221 39.0767 8.80554C39.1455 8.92953 39.2014 9.06059 39.2443 9.19871C39.367 9.59432 39.6859 9.93835 40.1001 9.93835C40.5143 9.93835 40.8599 9.59798 40.764 9.19503C40.6875 8.87361 40.5599 8.56409 40.3813 8.26648C40.0688 7.74044 39.6131 7.31596 39.0142 6.99304C38.4204 6.66492 37.6965 6.50085 36.8423 6.50085C36.259 6.50085 35.7303 6.57898 35.2563 6.73523C34.7824 6.89148 34.3735 7.11023 34.0298 7.39148C33.6912 7.66752 33.4308 7.99304 33.2485 8.36804C33.0662 8.74304 32.9751 9.1519 32.9751 9.5946C32.9751 10.0373 33.061 10.4305 33.2329 10.7743C33.4048 11.118 33.6522 11.4227 33.9751 11.6884C34.298 11.954 34.686 12.191 35.1392 12.3993C35.5923 12.6024 36.1001 12.7873 36.6626 12.954C37.1991 13.1102 37.6418 13.2639 37.9907 13.4149C38.3449 13.566 38.6209 13.7248 38.8188 13.8915C39.022 14.0581 39.1626 14.2456 39.2407 14.454Z" fill="currentColor"/>
<path fill-rule="evenodd" clip-rule="evenodd" d="M4.5 1.00085H44.5C46.433 1.00085 48 2.56786 48 4.50085V20.5009C48 22.4338 46.433 24.0009 44.5 24.0009H26.5V29.1188H29.2086C29.9391 29.1188 30.6398 29.409 31.1563 29.9256C31.6729 30.4421 31.9631 31.1427 31.9631 31.8733C31.9631 32.5952 31.7113 33.2863 31.2582 33.7956C31.3262 33.8507 31.3911 33.9087 31.4531 33.9697C31.9863 34.4945 32.2498 35.1919 32.2498 35.8823C32.2498 36.5727 31.9863 37.2701 31.4531 37.7949C31.3006 37.945 31.1297 38.0774 30.9419 38.1903C31.3457 38.6836 31.5455 39.2901 31.5455 39.8913C31.5455 40.5817 31.282 41.2791 30.7488 41.8039C30.5032 42.0457 30.2097 42.2419 29.8746 42.3838C30.1859 42.8398 30.3401 43.3721 30.3401 43.9004C30.3401 44.5908 30.0766 45.2882 29.5434 45.813C29.0039 46.344 28.2338 46.6549 27.2989 46.6549H10.693C10.2707 47.4376 9.44318 47.9694 8.49143 47.9694H6C4.61929 47.9694 3.5 46.8501 3.5 45.4694V32.0009C3.5 30.6201 4.61929 29.5009 6 29.5009H8.49143C9.5565 29.5009 10.466 30.1669 10.8262 31.1052L16.3996 26.7843C16.9846 26.258 17.7334 25.9491 18.52 25.9103C19.3175 25.8709 20.1038 26.1116 20.7426 26.5908L22.5 27.9089V24.0009H4.5C2.567 24.0009 1 22.4339 1 20.5009V4.50085C1 2.56786 2.567 1.00085 4.5 1.00085ZM4.5 2.50085C3.39543 2.50085 2.5 3.39629 2.5 4.50085V20.5009C2.5 21.6054 3.39543 22.5009 4.5 22.5009H44.5C45.6046 22.5009 46.5 21.6054 46.5 20.5009V4.50085C46.5 3.39629 45.6046 2.50085 44.5 2.50085H4.5ZM28.4912 43.0568C28.267 42.8361 27.8915 42.6459 27.2989 42.6459H26.5359C26.1217 42.6459 25.7859 42.3101 25.7859 41.8959C25.7859 41.6888 25.8698 41.5013 26.0056 41.3655C26.0395 41.3316 26.0767 41.3009 26.1166 41.2739C26.2363 41.1931 26.3806 41.1458 26.5359 41.1458H28.5044C29.097 41.1458 29.4724 40.9556 29.6966 40.7349C29.9271 40.508 30.0455 40.2032 30.0455 39.8913C30.0455 39.5795 29.9271 39.2746 29.6966 39.0477C29.4724 38.827 29.097 38.6368 28.5044 38.6368H26.5359C26.1217 38.6368 25.7859 38.301 25.7859 37.8868C25.7859 37.4726 26.1217 37.1368 26.5359 37.1368H29.2086C29.8012 37.1368 30.1766 36.9466 30.4009 36.7259C30.6314 36.499 30.7498 36.1942 30.7498 35.8823C30.7498 35.5704 30.6314 35.2656 30.4009 35.0387C30.1766 34.818 29.8012 34.6278 29.2086 34.6278H26.5359C26.1217 34.6278 25.7859 34.292 25.7859 33.8778C25.7859 33.4636 26.1217 33.1278 26.5359 33.1278H29.3636C29.9795 33.1278 30.4631 32.6479 30.4631 31.8733C30.4631 31.5406 30.3309 31.2215 30.0957 30.9862C29.8604 30.7509 29.5413 30.6188 29.2086 30.6188H23.8734C23.8662 30.6189 23.859 30.6189 23.8518 30.6188H19.8542C19.44 30.6188 19.1042 30.283 19.1042 29.8688C19.1042 29.4546 19.44 29.1188 19.8542 29.1188H21.6132L19.8425 27.7908C19.4837 27.5216 19.042 27.3863 18.5939 27.4085C18.1459 27.4306 17.7197 27.6087 17.3891 27.9119C17.3739 27.9259 17.3581 27.9392 17.3417 27.9519L11 32.8684V45.1549H27.2989C27.8915 45.1549 28.267 44.9646 28.4912 44.7439C28.7217 44.5171 28.8401 44.2122 28.8401 43.9004C28.8401 43.5885 28.7217 43.2837 28.4912 43.0568ZM5 32.0009C5 31.4486 5.44772 31.0009 6 31.0009H8.49143C9.04371 31.0009 9.49143 31.4486 9.49143 32.0009V45.4694C9.49143 46.0217 9.04371 46.4694 8.49143 46.4694H6C5.44772 46.4694 5 46.0217 5 45.4694V32.0009Z" fill="currentColor"/>
</svg>
