<svg width="48" height="48" viewBox="0 0 48 48" fill="none" xmlns="http://www.w3.org/2000/svg">
<path fill-rule="evenodd" clip-rule="evenodd" d="M26.3263 16.2397C26.6825 16.2397 26.7843 16.4432 26.8352 16.5959V16.6976C26.8352 16.7994 26.8352 16.9521 26.7843 17.0029L26.7334 17.1047V17.1556L26.7843 17.2065L26.9369 17.4609L27.0387 17.6135C27.2422 17.9697 27.4966 18.4276 27.4966 18.8855C27.4966 19.6487 27.6492 20.5646 28.3616 21.3278H28.2089L28.1072 21.2769C27.9036 21.226 27.7001 21.0734 27.4457 20.8699C27.3948 20.8699 27.3948 20.9716 27.3948 21.1243V22.3454C27.4457 22.6507 27.4966 22.9051 27.5984 23.0577C27.7001 23.1595 27.4966 23.1086 27.2931 22.9051L27.0387 22.6507C26.9878 22.5489 26.9369 22.498 26.886 22.5489H26.8352L26.7843 22.5998L26.6316 22.9051C26.5299 23.3121 26.4281 23.9227 26.7843 24.5333C26.8352 24.635 26.7843 24.635 26.6825 24.5841L26.6316 24.5333L26.5299 24.4824C26.3772 24.3806 26.1228 24.1771 26.0211 23.9736C26.0211 23.9227 25.9702 23.9736 25.9193 24.0753L25.8175 24.2789V24.4315C25.7158 24.8894 25.7158 25.6526 26.0719 26.3141C26.1228 26.4158 26.0211 26.365 25.9193 26.3141L25.7158 26.2123L25.8175 26.1614C25.8175 26.1614 25.7667 26.1614 25.7667 26.1106L25.614 25.9579V25.907C25.5123 25.7544 25.3596 26.1106 25.614 26.6703L25.9193 27.2299L26.1228 27.637C26.1637 27.7051 26.2009 27.7696 26.2355 27.8295C26.3299 27.9931 26.4045 28.1222 26.479 28.1967C26.5808 28.2984 26.7843 28.4511 27.0387 28.5528L27.4457 28.7564C27.4712 28.7818 27.4966 28.7945 27.522 28.8072C27.5475 28.82 27.5729 28.8327 27.5984 28.8581H27.6492L28.1072 29.1634C28.5142 29.4178 29.1248 29.7231 29.6845 29.7231C30.5494 29.7231 31.0074 29.1125 31.0074 28.8072H30.9565L30.6512 28.7564H30.5494L30.4477 28.7055L30.1424 28.6037H30.0915L29.9389 28.5528C29.1757 28.2476 28.2089 27.5861 28.2089 25.9579C28.2089 24.6859 29.023 23.7701 29.6845 23.2104L29.9898 23.0068L30.0915 22.9051L30.3968 22.7016L30.8547 23.1595L30.7021 23.2613L30.4986 23.4139L30.3459 23.5157L30.1424 23.7192C29.5827 24.228 28.8704 25.0421 28.8704 25.9579C28.8704 27.4843 30.2442 28.1967 31.0582 28.1967V27.637L31.0074 27.5352C30.8547 27.1791 30.4986 26.772 29.5827 26.365H29.888C30.1933 26.365 30.7021 26.4158 31.0582 26.9247C31.1848 27.0933 31.2414 27.0174 31.286 26.9574C31.2952 26.9451 31.3039 26.9334 31.3126 26.9247L31.3244 26.9125C31.3956 26.8377 31.6431 26.5779 32.025 26.7211L31.9232 26.772V26.8229L31.8723 26.8738C31.7197 27.0773 31.5162 27.5352 31.7197 28.1458H31.8723L31.9741 28.0949H32.025L32.1267 28.044C32.5847 27.7896 33.297 27.2808 33.297 26.1614C33.297 25.1438 32.5847 24.3806 31.8723 23.7192L31.6688 23.5157L31.2618 23.1595L31.0074 22.9051C30.9364 22.8696 30.8902 22.8094 30.8515 22.7589C30.8347 22.737 30.8192 22.717 30.8038 22.7016L30.753 22.6507C30.7021 22.5998 30.6512 22.5362 30.6003 22.4726C30.5494 22.409 30.4986 22.3454 30.4477 22.2945L29.9898 21.8366C29.4809 21.3278 29.023 20.7681 28.9213 19.954L28.8704 19.8522H28.8195C28.8077 19.8444 28.7944 19.8359 28.7798 19.8266C28.6063 19.7163 28.2598 19.4958 28.2598 18.8855C28.2598 18.4785 28.5142 18.0714 28.7686 17.7661L28.8704 17.6135L29.1248 17.3591L29.2265 17.3082L29.2774 17.2573H29.3283V17.3082L29.2774 17.5626L29.2265 17.6644C29.1757 17.8679 29.1757 18.1223 29.3792 18.1223C29.6845 18.1223 30.3459 17.3591 30.3459 17.2065C30.3459 17.1556 30.3968 17.2065 30.3968 17.2573V17.5117L30.3459 17.6135C30.295 17.7661 30.2442 17.9188 30.1424 18.0205L30.0915 18.0714C30.0661 18.1223 30.0279 18.1605 29.9898 18.1986C29.9516 18.2368 29.9134 18.275 29.888 18.3258L29.5827 18.682C29.5653 18.7052 29.5479 18.7277 29.531 18.7497C29.3992 18.9203 29.2948 19.0556 29.4301 19.1908C29.5827 19.3943 29.9389 19.1399 30.1424 18.9364L30.1933 18.8346L30.2442 18.7838V18.8855L30.1933 18.9873V19.0382L30.1424 19.1399C30.0406 19.3943 29.8371 19.6996 29.5318 19.8522V20.2084L29.5827 20.2593L29.6845 20.4628C29.6845 20.4628 29.6845 20.5137 29.7353 20.5137L29.7862 20.6155L30.0406 20.8699L30.1424 21.0225L30.4477 21.3278C30.3757 21.3638 30.3801 21.3743 30.3888 21.3954C30.3924 21.4041 30.3968 21.4146 30.3968 21.4295L30.9565 21.9892L31.4653 22.3963L31.6688 22.5998L31.9741 22.8542L32.4829 23.2613L32.7882 23.5665H32.8391C32.8899 23.5157 32.9408 23.4648 32.9408 23.3121V23.2613C32.9408 22.956 33.0426 22.6507 33.1952 22.5489V23.363C33.1952 23.7701 33.2461 24.228 33.3988 24.3297C33.5514 24.3806 33.6023 24.228 33.6023 24.0245C33.6532 23.8209 33.8058 23.6174 33.8567 23.6683L33.8058 23.8209L33.7549 24.0245V24.3297C33.704 24.7368 33.704 25.1438 33.9584 25.2965C33.9801 25.2965 33.9925 25.2965 34.0036 25.2926C34.0185 25.2873 34.0309 25.2749 34.0602 25.2456L34.1111 25.1947C34.1432 25.1304 34.216 25.0864 34.3294 25.0884C34.1509 25.2498 33.9692 25.5563 34.0093 25.9579C34.0602 26.6703 33.3988 28.502 31.7197 28.7564V28.8581L31.6688 28.9599L31.6179 29.0108L31.5162 29.2143C31.2618 29.6722 30.753 30.3337 29.4809 30.181L29.8371 30.5372L30.0406 30.8425C30.0406 30.8679 30.0534 30.8806 30.0661 30.8933C30.0788 30.9061 30.0915 30.9188 30.0915 30.9442L30.1933 31.0969C30.6512 31.7583 31.1091 32.725 31.0582 33.7935L31.0074 33.6918L30.9565 33.4883L30.753 32.9795L30.6512 32.8268C30.6512 32.8014 30.6385 32.7886 30.6258 32.7759C30.613 32.7632 30.6003 32.7505 30.6003 32.725L30.4986 32.5724L30.295 32.1654L29.9898 31.7583C29.9195 31.6178 29.825 31.5015 29.723 31.376C29.6772 31.3198 29.63 31.2616 29.5827 31.1986L29.3792 30.9951C28.8704 30.3845 28.2598 29.8249 27.5475 29.4178L27.3948 29.316C27.344 29.316 27.2931 29.3669 27.344 29.5704C27.3948 29.8249 27.1913 30.3845 27.0387 30.6389C27.0387 30.66 27.0299 30.6724 27.0197 30.6868C27.0053 30.7073 26.9878 30.732 26.9878 30.7916V31.5548C27.0896 32.4198 27.5475 33.59 28.9721 33.9971C29.2265 34.0479 29.4301 34.0479 29.6336 34.0479H29.8371L29.9389 33.9971V34.0479L29.8371 34.1497L29.888 34.0479C29.6845 34.2006 29.3283 34.4041 28.616 34.4041C28.3107 34.4041 28.3107 34.862 28.7686 34.862V35.1673L28.616 35.6252L28.4633 36.2358L28.1581 36.8464C28.1581 36.8718 28.1453 36.8845 28.1326 36.8973C28.1199 36.91 28.1072 36.9227 28.1072 36.9481L28.0054 37.1517C27.8019 37.6096 27.5475 38.0166 27.2931 38.271C27.1618 38.3585 27.2187 38.4084 27.2695 38.453C27.2778 38.4603 27.286 38.4674 27.2931 38.4746H27.3948C27.4263 38.4746 27.4577 38.494 27.5012 38.5209C27.528 38.5374 27.5595 38.5569 27.5984 38.5763L27.7001 38.6272C27.7001 38.6272 27.751 38.6272 27.751 38.6781L27.8528 38.729C27.8782 38.7544 27.9036 38.7671 27.9291 38.7798C27.9545 38.7926 27.98 38.8053 28.0054 38.8307H27.9545C27.8528 38.8307 27.751 38.8307 27.751 38.8816V39.1869L27.7434 39.2098C27.6945 39.3591 27.6342 39.5431 27.344 39.5431C26.9369 39.5431 26.8352 39.136 26.8352 38.9325C26.8352 38.729 26.6316 38.729 26.5299 38.729C26.479 38.729 26.1737 38.8307 26.0719 39.1869L26.0211 39.3395C25.9702 39.6957 25.8175 40.001 25.5123 40.001C25.1561 40.001 25.0543 39.7466 25.0543 39.5431C25.0543 39.5176 25.0543 39.5049 25.048 39.4985C25.0416 39.4922 25.0289 39.4922 25.0035 39.4922H24.9526C24.9017 39.4922 24.7999 39.4922 24.6982 39.4413L24.8508 39.3395L24.9526 39.2887L25.2579 39.0851C25.5123 38.8816 25.7158 38.6781 25.6649 38.5763C25.5631 38.3219 25.4105 38.3728 25.3087 38.4746L25.2579 38.5254L25.1561 38.5763C25.0035 38.6781 24.749 38.8307 24.5455 38.8816C24.2402 38.9325 24.0876 38.5254 24.2402 38.2202L24.2911 38.1693C24.3271 38.1333 24.3122 38.1228 24.2824 38.1017C24.27 38.093 24.2551 38.0824 24.2402 38.0675L24.1385 38.0166C24.113 37.9912 24.0876 37.9785 24.0622 37.9657C24.0367 37.953 24.0113 37.9403 23.9858 37.9149H24.5455C24.9526 37.9149 25.4105 37.9149 25.4105 37.7113C25.3596 37.4061 25.1052 37.4061 24.9526 37.4569C24.7999 37.5078 24.342 37.4569 24.342 37.1517C24.342 37.1262 24.3547 37.1008 24.3674 37.0753C24.3802 37.0499 24.3929 37.0245 24.3929 36.999L24.4438 36.8973C24.4946 36.8464 24.4946 36.7955 24.4946 36.7446C24.4946 36.6937 24.4438 36.6429 24.3929 36.592L24.342 36.5411H24.5455C24.6473 36.5411 24.7999 36.5411 24.9526 36.592C25.0543 36.6429 25.1561 36.6937 25.2579 36.8464L25.4614 37.0499C25.6649 37.2534 25.9193 37.5078 26.1228 37.5078C26.5299 37.5078 26.886 36.8973 26.886 35.6761V34.6076C26.8759 34.5669 26.8677 34.5303 26.8604 34.4973C26.8311 34.3654 26.8148 34.2922 26.7334 34.2515L26.6825 34.2006L26.5808 34.1497L26.5299 34.0988C26.5299 34.0988 26.479 34.0479 26.479 33.9971V33.8953C26.479 33.8444 26.479 33.7427 26.3772 33.6918C26.2246 33.6409 26.0211 33.8444 25.9702 34.6585V35.4726L25.9193 35.6252L25.8175 35.4217V35.3708L25.7158 35.0656C25.6649 34.862 25.614 34.6585 25.614 34.4041V33.9971C25.614 33.8953 25.614 33.8444 25.5631 33.7935C25.5631 33.7935 25.5123 33.7935 25.4614 33.8444L25.2579 34.0479C25.1052 34.2006 24.9017 34.4041 24.6473 34.5059L24.7999 34.2006C24.9017 33.9971 25.0035 33.6918 25.0035 33.4374C25.0035 33.3865 25.0035 33.3356 24.9526 33.2847V33.2339L25.0035 33.0812L24.8508 32.9286C24.6982 32.725 24.4946 32.318 24.4946 31.2495C24.4946 30.8933 24.5455 30.6389 24.5964 30.4354L24.6473 30.2828C24.6982 30.0793 24.749 29.8757 24.749 29.5704C24.749 29.2143 24.342 28.8072 23.8841 28.4002L23.477 28.0949L23.3753 27.9931L22.7138 27.5352L22.3068 27.2299L22.205 27.1282L21.9506 26.9247L21.34 26.3141V26.2632C21.3043 26.2275 21.3438 26.1668 21.3881 26.0986C21.4069 26.0695 21.4266 26.0392 21.4418 26.0088L21.7471 25.6526L21.8489 25.5C22.0015 25.2965 22.1033 25.093 21.9506 24.9912C21.7471 24.8386 21.6453 24.9403 21.4927 25.1438L21.34 25.4491C21.34 25.4746 21.3273 25.4873 21.3146 25.5C21.3019 25.5127 21.2892 25.5254 21.2892 25.5509C21.0856 25.8562 20.7295 26.1614 20.5768 26.2632C20.526 26.2632 20.526 26.2123 20.526 26.1106V25.5509C20.526 25.2965 20.4751 25.0421 20.3224 25.0421C19.9663 25.0421 19.9154 25.3982 19.9663 25.5509V25.6018C19.9663 25.6526 19.9663 25.6526 19.8645 25.6526H19.7627C19.6101 25.6526 19.4575 25.7035 19.3048 25.8562L19.2539 25.9579C19.2539 25.9579 19.2539 26.0088 19.2031 26.0088L19.1522 26.1106C19.1399 26.1351 19.1269 26.1603 19.1135 26.1865C19.0151 26.3776 18.8916 26.6175 18.8469 26.9755V26.8738C18.796 26.7211 18.7451 26.365 18.8469 26.0597L18.8978 25.9579C18.8978 25.9383 18.8978 25.9262 18.8919 25.9188C18.8826 25.907 18.8584 25.907 18.796 25.907H18.1854L17.7784 26.0088L17.4222 26.0597L16.9134 26.1614C16.8626 26.1614 16.8117 26.1614 16.7608 26.2123C16.6081 26.2632 16.5573 26.3141 16.5573 26.5685V27.637C16.5573 27.6879 16.5064 27.637 16.5064 27.5861V27.4335H16.3029C16.0993 27.4843 15.7941 27.4843 15.7941 27.1791C15.7941 26.9247 15.8449 26.8738 15.9467 26.8229L15.9976 26.772C16.0112 26.7584 16.0248 26.7484 16.0375 26.7391C16.0721 26.7138 16.0993 26.6939 16.0993 26.6194C16.0993 26.3141 15.8958 26.1614 15.6414 26.1614C15.4888 26.1614 15.387 26.2632 15.2853 26.365L15.1835 26.4667C15.0308 26.6194 14.8782 26.772 14.6747 26.772C14.2168 26.772 14.1659 26.4667 14.1659 26.3141C14.1659 26.2301 14.1813 26.1769 14.1952 26.1291C14.2065 26.09 14.2168 26.0545 14.2168 26.0088C14.2168 25.907 14.115 25.8053 14.0132 25.8053C13.9624 25.8053 14.0641 25.7544 14.2168 25.7544H14.2676L14.5729 25.8053C14.9291 25.8562 15.387 25.8053 15.387 25.5C15.387 25.3982 15.2853 25.3474 15.1835 25.3982H14.9291L14.7256 25.3474C14.4712 25.2965 14.115 25.1947 14.115 24.7877C14.115 24.5841 14.3185 24.4824 14.4203 24.4315H14.4712C14.4712 24.4104 14.4799 24.3806 14.4901 24.3457C14.5046 24.2963 14.522 24.2367 14.522 24.1771C14.522 24.1575 14.522 24.1454 14.5279 24.1409C14.5372 24.1338 14.5613 24.1458 14.6238 24.1771L14.6238 24.0753L14.7256 24.1262L14.8782 24.228L15.3361 24.6859C15.4379 24.8386 15.5905 24.7877 15.6414 24.7368H15.6923C15.7432 24.6859 15.8449 24.5333 15.5905 24.3806C15.2853 24.228 15.2853 24.0753 15.2853 23.8209C15.2853 23.6372 15.4097 23.5779 15.5087 23.5306C15.5194 23.5255 15.5298 23.5206 15.5397 23.5157H15.5905C15.6414 23.5157 15.6923 23.3121 15.6414 23.2104V23.1595C15.5905 23.0068 15.9976 23.363 16.2011 23.7701C16.2011 23.7955 16.2138 23.8209 16.2265 23.8464C16.2393 23.8718 16.252 23.8973 16.252 23.9227V24.1771C16.252 24.4315 16.3029 24.635 16.6081 24.7877H16.9643L17.0661 24.7368L17.2187 24.6859C17.2187 24.6859 17.2696 24.6859 17.3205 24.635L17.4222 24.5841L17.7275 24.4824L18.6434 24.1262L20.068 23.6174C20.1698 23.5665 20.3733 23.4648 20.2716 23.3121C20.1698 23.1086 19.8136 23.0577 19.3048 23.4139L19.2539 23.4648C19.1522 23.5665 19.1013 23.5157 19.1522 23.4139L19.2031 23.363L19.2539 23.2613C19.2539 23.2613 19.2539 23.2104 19.3048 23.2104L19.3557 23.1086C19.3557 23.1086 19.3557 23.0577 19.4066 23.0577L19.5083 22.956C19.5278 22.9365 19.5398 22.9171 19.5501 22.9005C19.5666 22.8736 19.5787 22.8542 19.6101 22.8542L19.7119 22.7524C20.068 22.2945 20.6277 21.8366 21.1365 21.8366C21.34 21.8366 21.3909 21.7348 21.3909 21.6331V21.5822C21.3909 21.4804 21.2892 21.3787 20.933 21.3787C20.4751 21.3787 19.8645 21.8366 19.6101 22.2945H19.5083L19.3557 22.1928C19.2539 22.091 19.0504 22.0401 18.796 22.0401C18.6172 22.0401 18.4733 22.0576 18.354 22.072C18.2698 22.0823 18.1978 22.091 18.1346 22.091L18.0328 22.1419H17.8802C17.7784 22.1419 18.1346 21.6331 18.7451 21.6331C18.8469 21.6331 18.8469 21.4804 18.6434 21.3278L18.5925 21.2769C18.526 21.2437 18.4378 21.1453 18.3421 21.0385C18.2913 20.9818 18.2384 20.9228 18.1854 20.8699L17.7275 20.2593L17.6258 20.1575C17.524 20.0558 17.4222 20.2084 17.2696 20.4628L17.2187 20.5646L17.0661 21.0225C17.0661 21.0734 17.0152 21.0225 17.0152 20.9716V20.819C17.0152 20.7681 16.9643 20.7681 16.9643 20.7681L16.8626 20.7172C16.7099 20.6663 16.5573 20.5646 16.5573 20.2593C16.5573 19.9031 16.7608 19.8522 16.9643 19.9031H17.0152L17.117 19.954H17.1678C17.3714 20.0049 17.5749 19.7505 17.524 19.547C17.4068 19.48 17.3061 19.4075 17.2128 19.3403C17.0228 19.2035 16.8638 19.089 16.659 19.089H16.6081C16.252 19.1399 15.7432 18.8855 15.7432 18.4785C15.7432 18.2749 15.8449 18.1732 15.9467 18.1223L16.0485 18.0714H16.0993C16.1502 18.0205 16.1502 17.817 16.1502 17.7661H16.2011L16.252 17.817L16.3537 17.8679L16.9643 18.4785C17.117 18.6311 17.1678 18.682 17.2696 18.6311C17.3714 18.5802 17.4222 18.3258 17.0661 18.0205C16.7099 17.7153 16.7608 17.3591 16.9134 17.1556H17.1678C17.3205 17.1556 17.4731 17.1556 17.524 17.0538C17.524 16.9521 17.5749 17.0029 17.5749 17.0538V17.2065L17.6258 17.3082V17.7153L17.6766 17.817V17.9697C17.6766 18.2749 17.7784 18.3258 17.8802 18.3258C17.9819 18.3258 18.0837 18.2749 18.0328 17.817C17.9819 17.41 18.0837 17.3082 18.1854 17.2573L18.2363 17.2065C18.3381 17.1556 18.4907 17.1556 18.5925 17.2573C18.6943 17.3591 18.8978 17.2065 18.8978 17.0538V17.2573C18.9487 17.41 18.9487 17.6135 18.796 17.817C18.7766 17.8365 18.7646 17.8559 18.7543 17.8725C18.7377 17.8994 18.7257 17.9188 18.6943 17.9188L18.4907 18.1223C18.2872 18.3258 18.1346 18.5802 18.3381 18.9873L18.389 19.089L20.4242 21.1751C20.4751 21.1751 20.526 21.1243 20.4242 21.0225C20.3224 20.8699 20.3224 20.7172 20.4242 20.6155V20.5646L20.4751 20.6155L20.6786 20.7172C20.6786 20.7172 20.7295 20.7172 20.7295 20.7681L20.8312 20.819C21.1874 20.9716 21.6962 21.1243 22.4594 21.0225C23.6577 20.8894 24.2366 20.1369 24.2299 19.8117L24.0367 20.0049L23.9673 20.0469C23.7277 20.1923 23.4497 20.3611 23.1717 20.3611C22.6121 20.3611 22.3068 19.8014 22.4085 19.4452V19.3943L22.5103 19.4961C22.6121 19.5978 22.8665 19.7505 23.1717 19.7505C23.6297 19.7505 24.1385 19.1908 24.0367 18.8855C24.0367 18.8346 23.9858 18.8346 23.8841 18.8855L23.7823 18.8346L23.2735 18.9873L23.07 19.0382C23.0191 19.0382 23.0191 19.0382 22.9682 19.089L22.7647 19.1399C22.4085 19.2417 21.8997 19.2926 21.3909 19.2926C19.7627 19.2926 19.5083 17.6644 20.6786 17.0029L20.6277 17.0538L20.5768 17.1556V17.6135C20.4751 18.1732 20.6277 18.8855 21.9506 18.8855C22.205 18.8855 22.4594 18.8855 22.6629 18.8346L22.8665 18.7838C22.9173 18.7838 23.0191 18.7838 23.07 18.7329L23.2735 18.682L23.5788 18.5802L23.7823 18.4785L23.935 18.4276V18.3258C23.8841 18.1732 23.6806 17.817 23.2226 17.817C22.7924 17.817 22.5867 18.1314 22.479 18.296L22.4594 18.3258L22.4085 18.3767V18.4276L22.3577 18.3767L22.2559 18.4785C22.1033 18.3767 21.8489 18.0714 21.9506 17.7153C21.9506 17.6644 22.0015 17.6644 22.0524 17.6644H22.2559C22.4085 17.6135 22.5612 17.5626 22.5612 17.3591C22.5612 17.2573 22.5103 17.2065 22.4594 17.2065H22.4085C22.3577 17.2065 22.3068 17.2573 22.2559 17.3082L22.205 17.41C22.1914 17.4236 22.1814 17.4372 22.1721 17.4499C22.1468 17.4845 22.1269 17.5117 22.0524 17.5117C21.8489 17.5117 21.8489 16.9012 22.2559 16.9012H22.3068C22.4085 16.9012 22.5612 16.9012 22.6121 16.7994V16.7485C22.6121 16.5959 22.9682 16.4432 23.7314 16.3924H24.3929C24.9118 16.3924 25.2558 16.4798 25.4653 16.5331L25.5123 16.545L25.614 16.5959L25.7667 16.7485V16.6976C25.8175 16.4941 25.9702 16.2397 26.3263 16.2397ZM23.4262 24.8894C23.3244 24.8894 23.2226 24.9403 23.2226 25.0421V25.1947C23.2226 25.1947 23.2226 25.2456 23.1717 25.2456L23.07 25.4491C22.9173 25.6526 22.7138 25.907 22.2559 26.1106C22.205 26.1614 22.1541 26.2632 22.205 26.365C22.2559 26.4158 22.3068 26.4667 22.4085 26.4667H22.4594C23.1209 26.1614 23.4262 25.7544 23.5279 25.4491L23.5788 25.3474V25.093C23.5788 24.9912 23.5279 24.8894 23.4262 24.8894ZM24.8508 24.7877C24.749 24.7877 24.6982 24.8386 24.6473 24.9403V25.1438C24.5964 25.3982 24.4438 25.8562 23.8841 26.1614C23.8332 26.2123 23.7823 26.3141 23.8332 26.4158C23.8841 26.4667 23.935 26.5176 24.0367 26.5176H24.0876C24.6982 26.2123 24.9526 25.7035 25.0543 25.3474V24.9912C25.0035 24.8386 24.9526 24.7877 24.8508 24.7877ZM22.5612 22.4472C22.5103 22.5489 22.5612 22.6507 22.6121 22.7524L22.6629 22.8033C22.7138 22.8542 22.8665 23.0068 22.9173 23.2104C23.0191 23.5665 22.9173 24.0753 22.6121 24.5841C22.5612 24.635 22.5612 24.7877 22.6629 24.8386C22.6922 24.8678 22.7046 24.8802 22.7196 24.8855C22.7306 24.8894 22.7431 24.8894 22.7647 24.8894C22.8156 24.8894 22.9173 24.8386 22.9682 24.7877C23.3244 24.1771 23.477 23.6174 23.3753 23.1595V23.0577C23.3311 22.7927 23.1718 22.6427 23.064 22.5411C23.0477 22.5257 23.0325 22.5114 23.0191 22.498L22.9682 22.4472L22.8156 22.3963C22.7138 22.3454 22.5612 22.3454 22.5612 22.4472ZM21.5944 22.5998L21.4927 22.6507L21.2892 22.8542C21.0348 23.1086 20.7804 23.5665 20.6786 24.3297C20.6786 24.4315 20.7295 24.5333 20.8312 24.5333H20.933C20.9839 24.5333 21.0856 24.4824 21.1365 24.3806V24.3297C21.1874 23.6174 21.4927 23.2104 21.6962 23.0068L21.798 22.9051C21.8997 22.8542 21.8997 22.7016 21.8489 22.6507C21.798 22.5998 21.6962 22.5998 21.5944 22.5998ZM23.9858 21.2769C23.935 21.3787 23.935 21.4804 24.0367 21.5313L24.1894 21.684V21.7348L24.2402 21.7857C24.3929 22.0401 24.5455 22.4472 24.3929 23.2104L24.342 23.363C24.2911 23.4648 24.342 23.5157 24.4438 23.5665H24.5455C24.5964 23.5665 24.6982 23.5157 24.749 23.4139C25.0035 22.2945 24.6473 21.684 24.4438 21.4295L24.342 21.3278L24.2911 21.226L24.2402 21.1751C24.1385 21.1751 24.0367 21.1751 23.9858 21.2769ZM24.8508 18.7838C24.7999 18.8855 24.8508 18.9873 24.9526 19.0382C25.5123 19.2417 26.0211 19.547 26.0719 19.6996H25.3087C25.2579 19.6996 25.1561 19.7505 25.1052 19.8014C25.0738 19.8328 25.0812 19.8643 25.0914 19.9077C25.0978 19.9346 25.1052 19.966 25.1052 20.0049L25.1561 20.1067L25.207 20.1575V20.7172C25.207 20.9207 25.207 21.1751 25.1561 21.4295C25.1561 21.5313 25.207 21.5822 25.3596 21.6331H25.4614C25.5123 21.6331 25.614 21.5313 25.614 21.4295V20.6155C25.614 20.3611 25.5631 20.2084 25.5123 20.0558C25.8175 20.0558 26.0719 20.0049 26.2246 19.8522C26.2755 19.8014 26.3263 19.6996 26.3263 19.5978C26.3263 19.2417 25.8175 18.9364 25.4105 18.7329L25.1052 18.6311L25.0035 18.5802H24.9526C24.984 18.6117 24.9572 18.6431 24.92 18.6866C24.8971 18.7134 24.8702 18.7449 24.8508 18.7838ZM24.3929 16.7994H23.477C23.3562 16.7994 23.331 16.8313 23.3006 16.8698C23.2925 16.8799 23.2841 16.8906 23.2735 16.9012C23.2735 16.9608 23.291 17.0029 23.3054 17.0379C23.3157 17.0625 23.3244 17.0836 23.3244 17.1047L23.3753 17.1556H23.935C23.9858 17.1556 24.0876 17.1556 24.0876 17.2065C24.0876 17.2573 23.935 17.3082 23.7823 17.3591L23.5279 17.3591L23.5788 17.41C23.6297 17.5117 23.7314 17.5626 23.935 17.5626C24.2402 17.5626 24.342 17.3082 24.342 17.1047V17.0029C24.3929 17.0029 24.5455 17.0029 24.5455 16.9012C24.5964 16.8503 24.4946 16.7994 24.3929 16.7994Z" fill="currentColor"/>
<path d="M34.3294 25.0884C34.377 25.0454 34.4244 25.0126 34.4672 24.9912L34.5181 24.9403L34.569 25.1438C34.4753 25.1064 34.3954 25.0896 34.3294 25.0884Z" fill="currentColor"/>
<path d="M20.933 27.9423H22.9173C22.9682 27.9423 22.9682 27.9931 22.9682 28.044V28.0949C22.9682 28.1458 22.9682 28.2476 23.1209 28.2984C23.3244 28.3493 23.935 28.8581 23.935 29.1125C23.935 29.1634 23.8841 29.2652 23.8332 29.316L23.6806 29.5196C23.6297 29.6213 23.5788 29.7231 23.6806 29.9266C23.935 30.2828 24.1385 30.2828 24.2911 30.2828H24.1894L24.1385 30.3337C23.9858 30.3845 23.6806 30.4354 23.2226 30.4354H23.1209C22.9173 30.4354 22.7138 30.3845 22.5103 30.3337L21.9506 30.2319L21.8853 30.2209C21.6083 30.1742 21.3689 30.1338 21.0856 30.181H20.933C20.3733 30.2828 20.0172 30.7916 20.2716 32.4198V32.5724C20.2716 32.6233 20.3733 32.6742 20.5768 32.6742C20.8821 32.6742 21.6453 33.0303 22.1033 33.7935L21.8997 33.6918V33.59L21.5944 33.4883C21.1874 33.2847 20.7804 33.1321 20.6277 33.3865C20.526 33.59 20.5768 33.7427 20.7295 33.8444C20.7804 33.8444 20.6786 33.8953 20.526 33.9462L20.3733 33.9971L20.1189 34.0988H19.8645L19.3557 34.2515L18.4398 34.5059C18.2872 34.5567 18.2363 34.6585 18.5416 34.862L18.5925 34.9129L18.8978 35.1164L18.9487 35.1673C18.9995 35.2182 19.0504 35.2691 18.9995 35.2691H18.8469C18.6943 35.2691 18.5416 35.2691 18.5416 35.3708C18.5416 35.4726 18.4907 35.727 18.2363 35.727C17.9819 35.727 17.8293 35.5744 17.8293 35.3708V35.1164C17.8293 34.9129 17.7275 34.7603 17.524 34.7603C17.2187 34.7603 17.0152 35.0656 17.0152 35.6252C17.0152 36.0323 16.6081 36.134 16.4555 36.134C16.3029 36.134 16.1502 36.0832 16.1502 35.8288C16.1502 35.7779 16.0485 35.7779 15.9467 35.7779H15.8449C15.7941 35.7779 15.8449 35.727 15.9467 35.6252L16.0485 35.5744L16.3537 35.3708L16.659 35.1164C16.7608 35.0656 16.7608 34.862 16.7099 34.8112L16.659 34.7603C16.5573 34.7094 16.4555 34.6585 16.252 34.8112C16.0485 35.0147 15.7941 35.1673 15.5905 35.1673C15.387 35.1673 15.1835 34.9638 15.1835 34.7603V34.5059C15.1835 34.4041 15.1835 34.2515 15.0308 34.2006L14.98 34.1497C14.9569 34.1266 14.9443 34.114 14.9469 34.1071C14.95 34.0988 14.9752 34.0988 15.0308 34.0988H16.2011C16.4046 34.0988 16.6081 34.0479 16.6081 33.9971C16.6081 33.7427 16.3537 33.6918 16.252 33.6918H16.0993C15.8449 33.6918 15.4888 33.6918 15.4888 33.3356C15.4888 33.2339 15.5397 33.183 15.5905 33.1321H15.6414C15.6414 33.1067 15.6541 33.0939 15.6669 33.0812C15.6796 33.0685 15.6923 33.0558 15.6923 33.0303C15.6923 32.9286 15.5397 32.9286 15.4888 32.9286L15.5905 32.8268C15.7432 32.7759 16.0485 32.6742 16.3537 32.9286L16.5573 33.1321L16.7608 33.4374C16.9134 33.6409 17.0661 33.7935 17.3205 33.7935H17.4222C17.931 33.7427 19.1522 33.2847 19.1522 31.911C19.1522 31.5039 19.0504 31.1477 18.9487 30.8425L18.8469 30.5372L18.6943 30.2319V30.181C18.6943 30.1556 18.6943 30.1429 18.7006 30.1365C18.707 30.1301 18.7197 30.1301 18.7451 30.1301H18.8469C18.9487 30.1301 19.1013 30.0793 19.1013 29.8757C19.1013 29.4687 16.659 29.4178 15.8958 30.181V29.9775L15.9467 29.8757C16.0993 29.6213 16.4555 29.2652 17.2696 29.2652C17.3888 29.2652 17.4906 29.2826 17.5749 29.2971C17.6345 29.3073 17.6854 29.316 17.7275 29.316L17.8802 29.3669C18.0328 29.4178 18.1346 29.4178 18.2872 29.3669C18.3381 29.3669 18.3381 29.316 18.2872 29.2652L18.0837 29.0108C17.931 28.8581 17.7784 28.7055 17.8293 28.4002L17.8802 28.4511C18.0328 28.6037 18.389 28.909 18.796 28.909C18.8176 28.909 18.8301 28.909 18.8411 28.9051C18.8561 28.8998 18.8685 28.8874 18.8978 28.8581L18.9487 28.8072L19.0504 28.6546L19.2539 28.4511C19.5592 28.2476 20.068 27.9423 20.933 27.9423Z" fill="currentColor"/>
<path d="M32.2285 17.41C32.3811 17.7153 32.6864 18.0714 32.9917 18.0205C33.0935 18.0205 33.0935 17.8679 33.0426 17.7153L32.9917 17.5117L32.9408 17.41V17.2065L33.2461 17.5117C33.3988 17.6644 33.5514 17.817 33.704 17.9188C34.0093 18.1223 34.0602 18.7329 33.9076 19.089C33.8567 19.1738 33.7945 19.2586 33.7324 19.3434C33.608 19.513 33.4836 19.6826 33.4496 19.8522V19.9031C33.3988 20.0558 33.297 20.2593 33.1444 20.5646L33.0426 20.7681C33.0214 20.8 33.0023 20.8296 32.9841 20.8579C32.9152 20.9654 32.8581 21.0544 32.7373 21.1751L32.5338 21.3787C32.3811 21.5822 32.1776 21.7857 31.9741 21.9892L31.8723 22.091L31.3635 21.6331L32.1776 20.819C32.5338 20.4119 32.8391 20.0049 32.7882 19.6996H32.7373L32.6864 19.6487H32.6355L32.5338 19.5978C32.3303 19.4452 32.025 19.1399 32.0759 18.682L32.1267 18.7838L32.1776 18.8346L32.2285 18.9364C32.3811 19.1399 32.6355 19.3434 32.7882 19.1908C33.0426 19.0382 32.8391 18.6311 32.5338 18.3258L32.432 18.2241V18.0714L32.3811 18.0205C32.1776 17.817 32.0759 17.5117 32.0759 17.3082V17.1047L32.2285 17.41Z" fill="currentColor"/>
<path fill-rule="evenodd" clip-rule="evenodd" d="M24.1894 14.001L24.342 14.0519L24.4946 14.2045L24.6473 14.2554C24.8508 14.408 25.0543 14.6115 25.0543 14.8151C25.0543 15.0695 24.7999 15.1712 24.6473 15.2221H24.5964C24.6982 15.4765 24.9017 15.5783 25.0035 15.6292H25.4614C25.7667 15.6292 25.7667 15.3748 25.7667 15.273V15.1712H25.7158C25.614 15.1712 25.4105 15.0695 25.4105 14.8659C25.4105 14.6115 25.7667 14.408 26.1228 14.3063L26.3263 14.2045L26.479 14.1536L26.3772 14.5607H26.3263C26.2246 14.5607 26.1228 14.6624 26.1228 14.8151C26.1228 14.8659 26.1737 14.9168 26.2246 14.9677H26.2755L25.9702 15.9853H22.6121L22.3577 15.0186C22.3697 15.0066 22.3845 14.9946 22.4002 14.9819C22.4509 14.9409 22.5103 14.8928 22.5103 14.8151C22.5103 14.6624 22.4085 14.5607 22.3068 14.5607H22.2559L22.1033 14.1027C22.4085 14.1536 23.1717 14.4589 23.1717 14.8151C23.1717 15.0695 22.9682 15.1712 22.8665 15.1712H22.8156C22.8156 15.4765 23.0191 15.5783 23.1209 15.5783H23.6806C23.935 15.5783 23.9858 15.273 23.9858 15.1712V15.1204H23.8332C23.6806 15.0695 23.5279 15.0186 23.5279 14.8659C23.5279 14.6115 23.7314 14.408 23.935 14.2045L24.1385 14.001H24.1894ZM24.2911 14.6115C24.1385 14.6115 24.0367 14.7133 24.0367 14.8659C24.0367 15.0186 24.1385 15.1204 24.2911 15.1204C24.4438 15.1204 24.5455 15.0186 24.5455 14.8659C24.5455 14.7133 24.4438 14.6115 24.2911 14.6115Z" fill="currentColor"/>
<path fill-rule="evenodd" clip-rule="evenodd" d="M45 10.001V6.00098C45 4.89641 44.1046 4.00098 43 4.00098H2C0.89543 4.00098 0 4.89641 0 6.00098V42.001C0 43.1055 0.895431 44.001 2 44.001H43.1687C44.2051 44.001 45.0699 43.2092 45.161 42.1768L47.808 12.1768C47.9112 11.0074 46.9897 10.001 45.8158 10.001H45ZM43.5 6.00098C43.5 5.72483 43.2761 5.50098 43 5.50098H2C1.72386 5.50098 1.5 5.72483 1.5 6.00098V25.501L2.85094 8.83934C2.93514 7.80086 3.8025 7.00098 4.8444 7.00098H20.1716C20.702 7.00098 21.2107 7.21169 21.5858 7.58676L24 10.001H43.5V6.00098ZM20.5251 8.64742C20.4314 8.55366 20.3042 8.50098 20.1716 8.50098H4.8444C4.58393 8.50098 4.36709 8.70095 4.34604 8.96057L1.67036 41.9606C1.64676 42.2517 1.87665 42.501 2.16873 42.501H43.1687C43.4278 42.501 43.644 42.303 43.6668 42.0449L46.3138 12.0449C46.3396 11.7526 46.1092 11.501 45.8158 11.501H23.3787L20.5251 8.64742Z" fill="currentColor"/>
</svg>
