<svg width="48" height="48" viewBox="0 0 48 48" fill="none" xmlns="http://www.w3.org/2000/svg">
<path d="M24.75 8.00073C24.75 7.58652 24.4142 7.25073 24 7.25073C23.5858 7.25073 23.25 7.58652 23.25 8.00073V24.3266L30.9883 31.549C31.2911 31.8316 31.7657 31.8153 32.0483 31.5125C32.3309 31.2097 32.3146 30.7351 32.0117 30.4524L24.75 23.6748V8.00073Z" fill="currentColor"/>
<path fill-rule="evenodd" clip-rule="evenodd" d="M24 45.4998C35.8741 45.4998 45.5 35.8739 45.5 23.9998C45.5 12.1256 35.8741 2.49976 24 2.49976C12.1259 2.49976 2.5 12.1256 2.5 23.9998C2.5 35.8739 12.1259 45.4998 24 45.4998ZM24 46.9998C36.7025 46.9998 47 36.7023 47 23.9998C47 11.2972 36.7025 0.999756 24 0.999756C11.2975 0.999756 1 11.2972 1 23.9998C1 36.7023 11.2975 46.9998 24 46.9998Z" fill="currentColor"/>
</svg>
