<svg width="48" height="48" viewBox="0 0 48 48" fill="none" xmlns="http://www.w3.org/2000/svg">
<path d="M12 32.75C12 32.3358 12.3358 32 12.75 32H35.25C35.6642 32 36 32.3358 36 32.75C36 33.1642 35.6642 33.5 35.25 33.5H12.75C12.3358 33.5 12 33.1642 12 32.75Z" fill="currentColor"/>
<path d="M12 36.75C12 36.3358 12.3358 36 12.75 36H35.25C35.6642 36 36 36.3358 36 36.75C36 37.1642 35.6642 37.5 35.25 37.5H12.75C12.3358 37.5 12 37.1642 12 36.75Z" fill="currentColor"/>
<path d="M12 40.75C12 40.3358 12.3358 40 12.75 40H35.25C35.6642 40 36 40.3358 36 40.75C36 41.1642 35.6642 41.5 35.25 41.5H12.75C12.3358 41.5 12 41.1642 12 40.75Z" fill="currentColor"/>
<path d="M24 7.75C24.4142 7.75 24.75 8.08579 24.75 8.5V15H30.25C30.6642 15 31 15.3358 31 15.75C31 16.1642 30.6642 16.5 30.25 16.5H24.75V27C24.75 27.4142 24.4142 27.75 24 27.75C23.5858 27.75 23.25 27.4142 23.25 27V16.5H17.75C17.3358 16.5 17 16.1642 17 15.75C17 15.3358 17.3358 15 17.75 15H23.25V8.5C23.25 8.08579 23.5858 7.75 24 7.75Z" fill="currentColor"/>
<path fill-rule="evenodd" clip-rule="evenodd" d="M24 0C13.5066 0 5 8.50659 5 19V46C5 47.1046 5.89543 48 7 48H41C42.1046 48 43 47.1046 43 46V19C43 8.50659 34.4934 0 24 0ZM41.5 19C41.5 9.33502 33.665 1.5 24 1.5C14.335 1.5 6.5 9.33502 6.5 19V46C6.5 46.2761 6.72386 46.5 7 46.5H41C41.2761 46.5 41.5 46.2761 41.5 46V19Z" fill="currentColor"/>
</svg>
