<svg width="48" height="48" viewBox="0 0 48 48" fill="none" xmlns="http://www.w3.org/2000/svg">
<g clip-path="url(#clip0_985_3803)">
<path d="M11.1193 1.15821C11.4122 1.4511 11.4122 1.92597 11.1193 2.21887L8.82119 4.51696L10.9425 6.63828C11.1378 6.83355 11.1378 7.15013 10.9425 7.34539L7.44357 10.8443C7.24831 11.0396 6.93173 11.0396 6.73646 10.8443L4.61514 8.72301L2.28045 11.0577C1.98756 11.3506 1.51269 11.3506 1.21979 11.0577C0.926899 10.7648 0.926899 10.2899 1.21979 9.99704L10.0586 1.15821C10.3515 0.865314 10.8264 0.865314 11.1193 1.15821Z" fill="currentColor"/>
<path fill-rule="evenodd" clip-rule="evenodd" d="M40.3733 41.3723L36.1242 42.1296C33.9954 42.4843 31.8889 41.7268 30.3629 40.2008L6.34632 16.1842C5.56527 15.4032 5.56527 14.1368 6.34632 13.3558L13.4174 6.28473C14.1984 5.50368 15.4648 5.50368 16.2458 6.28473L40.2624 30.3013C41.7884 31.8273 42.5318 33.948 42.177 36.0767L41.4339 40.3116L46.1714 45.0491L46.525 47.524L40.3733 41.3723ZM15.235 7.39526C15.0398 7.2 14.7232 7.2 14.5279 7.39526L7.45684 14.4663C7.26158 14.6616 7.26158 14.9782 7.45684 15.1734L10.9425 18.6591L13.5942 16.0074C13.8871 15.7146 14.3619 15.7146 14.6548 16.0074C14.9477 16.3003 14.9477 16.7752 14.6548 17.0681L12.0032 19.7198L15.8923 23.6088L18.5439 20.9572C18.8368 20.6643 19.3117 20.6643 19.6046 20.9572C19.8975 21.2501 19.8975 21.725 19.6046 22.0179L16.9529 24.6695L21.428 29.1446L36.8726 29.0328L15.235 7.39526Z" fill="currentColor"/>
</g>
<defs>
<clipPath id="clip0_985_3803">
<rect width="48" height="48" fill="white" transform="translate(0 0.000854492)"/>
</clipPath>
</defs>
</svg>
