<?xml version="1.0" encoding="utf-8"?>
<!-- Generator: Adobe Illustrator 27.9.0, SVG Export Plug-In . SVG Version: 6.00 Build 0)  -->
<svg version="1.1" id="Vrstva_1" xmlns="http://www.w3.org/2000/svg" xmlns:xlink="http://www.w3.org/1999/xlink" x="0px" y="0px"
	 viewBox="0 0 571 255" style="enable-background:new 0 0 571 255;" xml:space="preserve">
<style type="text/css">
	.st0{fill:#FFFFFF;}
</style>
<g>
	<path class="st0" d="M28.9,67.6c3-1.2,5.6-3,7.7-5.3c2.1-2.3,3.8-5,4.9-8.3c1.1-3.2,1.7-6.8,1.7-10.8c0-4-0.6-7.5-1.7-10.7
		c-1.1-3.2-2.8-5.9-4.9-8.1c-2.1-2.3-4.7-4-7.7-5.2c-3-1.2-6.4-1.8-10.2-1.8h-16v52h16C22.5,69.4,25.9,68.8,28.9,67.6z M10.6,24.1
		h8.1c3.4,0,6.3,0.8,8.7,2.4c2.4,1.5,4.3,3.8,5.6,6.6c1.3,2.9,2,6.3,2,10.2s-0.7,7.3-2,10.2c-1.3,2.9-3.2,5.2-5.6,6.8
		c-2.4,1.6-5.3,2.4-8.7,2.4h-8.1V24.1z"/>
	<path class="st0" d="M74.1,69.4H87v-6.7H74.1V24.1H87v-6.7H74.1h-7.9h-13v6.7h13v38.6h-13v6.7h13H74.1z"/>
	<path class="st0" d="M112.1,25.7c2.2-1.6,4.7-2.4,7.5-2.4c3.1,0,5.7,1,7.6,3c2,2,3.1,4.6,3.5,8h8.7c-0.3-3.7-1.3-6.9-3.1-9.5
		s-4.1-4.6-7-6c-2.9-1.4-6.1-2.1-9.7-2.1c-4.6,0-8.7,1.1-12.1,3.4c-3.5,2.3-6.2,5.4-8.1,9.4c-2,4-2.9,8.7-2.9,14.1
		c0,5.3,0.9,10.1,2.9,14.2c1.9,4,4.6,7.1,8,9.4c3.4,2.2,7.4,3.4,12.1,3.4c4.4,0,8.3-0.8,11.7-2.5c3.5-1.6,6.2-3.9,8.2-6.9V42h-16.6
		l-0.3,6.8l9.1-0.3v10.3c-1.3,1.4-2.9,2.6-4.8,3.5c-2,0.9-4.2,1.4-6.7,1.4c-2.9,0-5.5-0.8-7.8-2.4c-2.3-1.6-4.1-3.8-5.4-6.9
		c-1.3-3-2-6.7-2-11c0-4.3,0.6-7.8,2-10.8C108.2,29.6,109.9,27.3,112.1,25.7z"/>
	<path class="st0" d="M170.8,69.4h13v-6.7h-13V24.1h13v-6.7h-13H163h-13v6.7h13v38.6h-13v6.7h13H170.8z"/>
	<path class="st0" d="M194.6,24.1h16.8v45.3h7.9V24.1H236v-6.7h-41.4V24.1z"/>
	<path class="st0" d="M253.9,56.3h19.3l4,13.1h8.1l-16.1-52H258l-16.1,52h8L253.9,56.3z M260.5,35.1l3.1-11.5l3.1,11.4l4.4,14.6H256
		L260.5,35.1z"/>
	<path class="st0" d="M273.1,0.1h-8.2l-6.5,12.5h6.6L273.1,0.1z"/>
	<path class="st0" d="M331.2,62.7h-27.3V17.4H296v52h35.1V62.7z"/>
	<path class="st0" d="M348.8,43.7l-0.7-15.5L370,69.4h9.8v-52h-7.6V43l0.6,16.1l-21.7-41.7h-9.9v52h7.6V43.7z"/>
	<path class="st0" d="M418.5,0h-8.2l-6.5,12.5h6.6L418.5,0z"/>
	<path class="st0" d="M412.8,69.4h12.9v-6.7h-12.9V24.1h12.9v-6.7h-12.9h-7.9h-13v6.7h13v38.6h-13v6.7h13H412.8z"/>
	<path class="st0" d="M16.1,106.7L0,158.7h8l4.1-13.1h19.3l4,13.1h8.1l-16.1-52L16.1,106.7L16.1,106.7z M14.1,138.9l4.5-14.5
		l3.1-11.5l3.1,11.4l4.4,14.6H14.1z"/>
	<path class="st0" d="M101.5,152v6.7h13h7.9h12.9V152h-12.9v-38.5h12.9v-6.7h-12.9h-7.9h-13v6.7h13V152H101.5z"/>
	<path class="st0" d="M178.6,132.4l0.6,16.1l-21.7-41.7h-9.8v52h7.6V133l-0.7-15.6l21.8,41.3h9.8v-52h-7.6V132.4z"/>
	<path class="st0" d="M234.5,113.5v-6.7h-37.7v52h7.9v-23.6h20.6v-6.7h-20.6v-15H234.5z"/>
	<path class="st0" d="M275.3,109.1c-3.3-2.2-7.1-3.3-11.5-3.3s-8.3,1.1-11.5,3.3c-3.3,2.2-5.8,5.3-7.6,9.3c-1.8,4-2.7,8.8-2.7,14.3
		c0,5.5,0.9,10.2,2.7,14.2c1.8,4,4.3,7.1,7.6,9.3c3.3,2.2,7.1,3.3,11.5,3.3s8.3-1.1,11.5-3.3c3.3-2.2,5.8-5.3,7.6-9.3
		c1.8-4,2.7-8.7,2.7-14.2c0-5.5-0.9-10.3-2.7-14.3C281.1,114.4,278.6,111.3,275.3,109.1z M275.6,143.5c-1.1,3-2.7,5.3-4.8,7
		c-2.1,1.6-4.4,2.5-7.1,2.5s-5-0.8-7.1-2.5c-2.1-1.6-3.7-4-4.8-7c-1.1-3-1.7-6.6-1.7-10.7c0-4.1,0.6-7.7,1.7-10.7
		c1.1-3,2.8-5.3,4.8-7c2.1-1.6,4.4-2.5,7.1-2.5c2.7,0,5.1,0.8,7.1,2.5c2,1.6,3.6,4,4.8,7c1.1,3,1.7,6.6,1.7,10.8
		C277.4,136.9,276.8,140.4,275.6,143.5z"/>
	<path class="st0" d="M323.8,108.5c-2.7-1.2-5.8-1.7-9.1-1.7h-20.5v52h7.9V137h6.3c1.3,0.8,2.6,1.6,3.8,2.5c2.4,1.8,4.4,3.7,6.1,5.8
		c1.6,2.1,2.9,4.3,3.9,6.6c1,2.3,1.6,4.6,1.9,6.9h8c-0.2-2.5-0.8-4.9-1.6-7.3c-0.8-2.4-2-4.7-3.6-6.9c-1.5-2.3-3.5-4.3-5.9-6.4
		c-0.8-0.6-1.6-1.2-2.5-1.9c0.8-0.2,1.6-0.3,2.4-0.6c2.4-0.9,4.5-2,6.2-3.5c1.7-1.5,3-3.1,3.9-4.9c0.9-1.8,1.4-3.7,1.4-5.7
		c0-3.1-0.8-5.8-2.3-8C328.5,111.4,326.4,109.7,323.8,108.5L323.8,108.5z M322.7,126.1c-1,1.3-2.3,2.4-3.9,3.1
		c-1.7,0.7-3.6,1.1-5.8,1.1h-10.9v-16.8h12.6c1.8,0,3.4,0.3,4.8,1c1.4,0.6,2.6,1.5,3.4,2.8c0.8,1.2,1.3,2.6,1.3,4.3
		C324.2,123.2,323.7,124.8,322.7,126.1L322.7,126.1z"/>
	<path class="st0" d="M368.7,106.7l-6.5,30.8l-1.6,10.1l-1.6-10.1l-6.6-30.8h-10.3l-3.9,52h7.7l1.6-32.5l0.5-11.6l2.1,11.6l7,32.5
		h6.7l7.1-32.5l2.3-11.5l0.3,11.5l1.7,32.5h7.8l-3.9-52H368.7z"/>
	<path class="st0" d="M403.2,106.7l-16.1,52h8l4.1-13.1h19.3l4,13.1h8.1l-16.1-52H403.2z M401.2,138.9l4.5-14.5l3.1-11.5l3.1,11.4
		l4.4,14.6H401.2z"/>
	<path class="st0" d="M462.3,101.8l9-12.5H464l-5.9,8.3l-5.8-8.3H445l9,12.5H462.3z"/>
	<path class="st0" d="M468.4,147.4c-1.1,1.7-2.5,3.1-4.2,4.1c-1.7,1-3.8,1.4-6.1,1.4c-2.7,0-5.1-0.8-7.2-2.4c-2.1-1.6-3.8-3.9-5-7
		c-1.2-3-1.8-6.6-1.8-10.8c0-4.2,0.6-7.8,1.8-10.8s2.9-5.3,5-7c2.2-1.6,4.6-2.4,7.5-2.4c3.3,0,6,1,8,3c2.1,2,3.3,4.7,3.7,8h8.6
		c-0.3-3.7-1.4-6.8-3.2-9.5c-1.8-2.7-4.3-4.7-7.2-6.1c-3-1.4-6.3-2.1-9.9-2.1c-4.5,0-8.5,1.1-11.9,3.3c-3.4,2.2-6.1,5.3-7.9,9.3
		c-1.9,4-2.8,8.7-2.8,14.2s0.9,9.9,2.7,14c1.8,4,4.4,7.2,7.7,9.5c3.4,2.3,7.3,3.5,11.9,3.5c4,0,7.5-0.8,10.5-2.3
		c3-1.5,5.4-3.6,7.2-6.4c1.8-2.8,2.9-6,3.2-9.7h-8.7C470.1,143.6,469.4,145.6,468.4,147.4z"/>
	<path class="st0" d="M517.3,132.4l0.6,16.1l-21.7-41.7h-9.8v52h7.6V133l-0.7-15.6l21.8,41.3h9.7v-52h-7.6V132.4z"/>
	<path class="st0" d="M570.9,113.5v-6.7h-13H550h-13v6.7h13V152h-13v6.7h13h7.9h13V152h-13v-38.5H570.9z"/>
	<path class="st0" d="M563.6,89.3h-8.2l-6.5,12.5h6.6L563.6,89.3z"/>
	<path class="st0" d="M16.1,196.1L0,248h8l4.1-13.1h19.3l4,13.1h8.1l-16.1-52H16.1z M14.1,228.2l4.5-14.5l3.1-11.5l3.1,11.4
		l4.4,14.6H14.1z"/>
	<path class="st0" d="M63.8,204.3c2.2-1.6,4.7-2.4,7.5-2.4c3.1,0,5.7,1,7.6,3c2,2,3.1,4.6,3.5,8h8.7c-0.3-3.7-1.3-6.9-3.1-9.5
		c-1.8-2.6-4.1-4.6-7-6c-2.9-1.4-6.1-2.1-9.7-2.1c-4.6,0-8.7,1.1-12.1,3.4c-3.5,2.3-6.2,5.4-8.1,9.4c-2,4-2.9,8.7-2.9,14.1
		c0,5.3,0.9,10.1,2.9,14.2c1.9,4,4.6,7.1,8,9.4c3.4,2.2,7.4,3.4,12.1,3.4c4.4,0,8.3-0.8,11.7-2.5c3.5-1.6,6.2-3.9,8.2-6.9v-19.1
		H74.5l-0.3,6.8l9.1-0.3v10.3c-1.3,1.4-2.9,2.6-4.8,3.5c-2,0.9-4.2,1.4-6.7,1.4c-2.9,0-5.5-0.8-7.8-2.4c-2.3-1.6-4.1-3.8-5.4-6.9
		c-1.3-3-2-6.7-2-11s0.6-7.8,2-10.8C59.8,208.2,61.5,205.9,63.8,204.3z"/>
	<path class="st0" d="M108.4,224.4h20.2v-6.7h-20.2v-15h29.4v-6.7h-37.3v52h37.6v-6.7h-29.7V224.4z"/>
	<path class="st0" d="M178.6,221.7l0.6,16.1l-21.7-41.7h-9.8v52h7.6v-25.7l-0.7-15.5l21.8,41.2h9.8v-52h-7.6V221.7z"/>
	<path class="st0" d="M194.6,202.8h16.8V248h7.9v-45.3H236v-6.7h-41.4V202.8z"/>
	<path class="st0" d="M275.9,229.6c0,2.5-0.5,4.7-1.5,6.6c-1,1.9-2.4,3.4-4.2,4.4c-1.8,1-4,1.5-6.5,1.5c-2.5,0-4.6-0.5-6.5-1.5
		c-1.8-1-3.3-2.5-4.3-4.4c-1-1.9-1.5-4.1-1.5-6.6v-33.5h-8v33.5c0,3.9,0.8,7.3,2.5,10.2c1.7,2.9,4,5.1,7.1,6.8
		c3,1.6,6.6,2.4,10.7,2.4c4.1,0,7.6-0.8,10.6-2.4c3-1.6,5.3-3.9,7-6.8c1.7-2.9,2.5-6.3,2.5-10.2v-33.5h-8L275.9,229.6L275.9,229.6z"
		/>
	<path class="st0" d="M327.1,221.5c1.7-1.5,3-3.1,3.9-4.9c0.9-1.8,1.4-3.7,1.4-5.7c0-3.1-0.8-5.8-2.3-8c-1.5-2.2-3.6-3.9-6.3-5
		s-5.8-1.7-9.1-1.7h-20.5v52h7.9v-21.7h6.3c1.3,0.8,2.6,1.6,3.8,2.5c2.4,1.8,4.4,3.7,6.1,5.8c1.6,2.1,2.9,4.3,3.9,6.6
		c1,2.3,1.6,4.6,1.9,6.9h8c-0.2-2.5-0.8-4.9-1.6-7.3c-0.8-2.4-2-4.7-3.6-6.9c-1.5-2.2-3.5-4.3-5.9-6.4c-0.8-0.6-1.6-1.2-2.5-1.8
		c0.8-0.2,1.6-0.3,2.4-0.6C323.3,224.2,325.4,223,327.1,221.5L327.1,221.5z M313,219.6h-10.9v-16.8h12.6c1.8,0,3.4,0.3,4.8,1
		c1.4,0.6,2.6,1.5,3.4,2.8c0.8,1.2,1.3,2.6,1.3,4.3c0,1.7-0.5,3.3-1.4,4.6c-1,1.3-2.3,2.4-3.9,3.1
		C317.2,219.2,315.3,219.6,313,219.6L313,219.6z"/>
	<path class="st0" d="M354.8,196.1l-16.1,52h8l4.1-13.1h19.3l4,13.1h8.1l-16.1-52H354.8z M352.8,228.2l4.5-14.5l3.1-11.5l3.1,11.4
		l4.4,14.6H352.8z"/>
	<path class="st0" d="M390.9,254.6V248h35.9v6.6H390.9z"/>
</g>
</svg>
