<svg xmlns="http://www.w3.org/2000/svg" width="805" height="600"><rect width="805" height="600" x="0" y="0" fill="#FFFFFF" id="background"/><g transform="translate(50,50)" id="visualization"><g id="axis"><g transform="translate(0,500)" fill="none" font-size="10" font-family="sans-serif" text-anchor="middle"><path class="domain" stroke="currentColor" d="M0.5,6V0.5H705.5V6"/><g class="tick" opacity="1" transform="translate(0.5,0)"><line stroke="currentColor" y2="6"/><text fill="currentColor" y="9" dy="0.71em">0.0</text></g><g class="tick" opacity="1" transform="translate(78.5,0)"><line stroke="currentColor" y2="6"/><text fill="currentColor" y="9" dy="0.71em">0.5</text></g><g class="tick" opacity="1" transform="translate(157.5,0)"><line stroke="currentColor" y2="6"/><text fill="currentColor" y="9" dy="0.71em">1.0</text></g><g class="tick" opacity="1" transform="translate(235.5,0)"><line stroke="currentColor" y2="6"/><text fill="currentColor" y="9" dy="0.71em">1.5</text></g><g class="tick" opacity="1" transform="translate(313.5,0)"><line stroke="currentColor" y2="6"/><text fill="currentColor" y="9" dy="0.71em">2.0</text></g><g class="tick" opacity="1" transform="translate(392.5,0)"><line stroke="currentColor" y2="6"/><text fill="currentColor" y="9" dy="0.71em">2.5</text></g><g class="tick" opacity="1" transform="translate(470.5,0)"><line stroke="currentColor" y2="6"/><text fill="currentColor" y="9" dy="0.71em">3.0</text></g><g class="tick" opacity="1" transform="translate(548.5,0)"><line stroke="currentColor" y2="6"/><text fill="currentColor" y="9" dy="0.71em">3.5</text></g><g class="tick" opacity="1" transform="translate(627.5,0)"><line stroke="currentColor" y2="6"/><text fill="currentColor" y="9" dy="0.71em">4.0</text></g><g class="tick" opacity="1" transform="translate(705.5,0)"><line stroke="currentColor" y2="6"/><text fill="currentColor" y="9" dy="0.71em">4.5</text></g><text x="705" dy="-5" text-anchor="end" style="font-family: Arial, sans-serif; font-size: 12px; fill: rgb(123, 123, 123); font-weight: bold;">Podíl Ukrajinci 2021 (%)</text></g><g fill="none" font-size="10" font-family="sans-serif" text-anchor="end"><path class="domain" stroke="currentColor" d="M-6,500.5H0.5V0.5H-6"/><g class="tick" opacity="1" transform="translate(0,500.5)"><line stroke="currentColor" x2="-6"/><text fill="currentColor" x="-9" dy="0.32em">0.0</text></g><g class="tick" opacity="1" transform="translate(0,450.5)"><line stroke="currentColor" x2="-6"/><text fill="currentColor" x="-9" dy="0.32em">0.5</text></g><g class="tick" opacity="1" transform="translate(0,400.5)"><line stroke="currentColor" x2="-6"/><text fill="currentColor" x="-9" dy="0.32em">1.0</text></g><g class="tick" opacity="1" transform="translate(0,350.5)"><line stroke="currentColor" x2="-6"/><text fill="currentColor" x="-9" dy="0.32em">1.5</text></g><g class="tick" opacity="1" transform="translate(0,300.5)"><line stroke="currentColor" x2="-6"/><text fill="currentColor" x="-9" dy="0.32em">2.0</text></g><g class="tick" opacity="1" transform="translate(0,250.5)"><line stroke="currentColor" x2="-6"/><text fill="currentColor" x="-9" dy="0.32em">2.5</text></g><g class="tick" opacity="1" transform="translate(0,200.5)"><line stroke="currentColor" x2="-6"/><text fill="currentColor" x="-9" dy="0.32em">3.0</text></g><g class="tick" opacity="1" transform="translate(0,150.5)"><line stroke="currentColor" x2="-6"/><text fill="currentColor" x="-9" dy="0.32em">3.5</text></g><g class="tick" opacity="1" transform="translate(0,100.5)"><line stroke="currentColor" x2="-6"/><text fill="currentColor" x="-9" dy="0.32em">4.0</text></g><g class="tick" opacity="1" transform="translate(0,50.5)"><line stroke="currentColor" x2="-6"/><text fill="currentColor" x="-9" dy="0.32em">4.5</text></g><g class="tick" opacity="1" transform="translate(0,0.5)"><line stroke="currentColor" x2="-6"/><text fill="currentColor" x="-9" dy="0.32em">5.0</text></g><text x="4" text-anchor="start" dominant-baseline="hanging" style="font-family: Arial, sans-serif; font-size: 12px; fill: rgb(123, 123, 123); font-weight: bold;">Podíl uprchlíci 2022 (%)</text></g></g><g id="viz"><g><circle cx="702" cy="42" fill="#2ca02c" r="35" stroke="none"/></g><g><circle cx="353" cy="173" fill="#1f77b4" r="16" stroke="none"/></g><g><circle cx="592" cy="20" fill="#ff7f0e" r="14" stroke="none"/></g><g><circle cx="503" cy="191" fill="#2ca02c" r="11" stroke="none"/></g><g><circle cx="410" cy="146" fill="#2ca02c" r="10" stroke="none"/></g><g><circle cx="351" cy="200" fill="#2ca02c" r="10" stroke="none"/></g><g><circle cx="268" cy="42" fill="#ff7f0e" r="10" stroke="none"/></g><g><circle cx="345" cy="227" fill="#2ca02c" r="10" stroke="none"/></g><g><circle cx="287" cy="240" fill="#2ca02c" r="10" stroke="none"/></g><g><circle cx="204" cy="309" fill="#2ca02c" r="9" stroke="none"/></g><g><circle cx="175" cy="338" fill="#1f77b4" r="9" stroke="none"/></g><g><circle cx="332" cy="295" fill="#2ca02c" r="8" stroke="none"/></g><g><circle cx="318" cy="195" fill="#2ca02c" r="8" stroke="none"/></g><g><circle cx="224" cy="139" fill="#ff7f0e" r="8" stroke="none"/></g><g><circle cx="235" cy="306" fill="#2ca02c" r="8" stroke="none"/></g><g><circle cx="91" cy="372" fill="#1f77b4" r="8" stroke="none"/></g><g><circle cx="28" cy="340" fill="#1f77b4" r="8" stroke="none"/></g><g><circle cx="58" cy="391" fill="#1f77b4" r="8" stroke="none"/></g><g><circle cx="415" cy="249" fill="#2ca02c" r="7" stroke="none"/></g><g><circle cx="357" cy="260" fill="#2ca02c" r="7" stroke="none"/></g><g><circle cx="157" cy="264" fill="#2ca02c" r="7" stroke="none"/></g><g><circle cx="188" cy="296" fill="#2ca02c" r="7" stroke="none"/></g><g><circle cx="86" cy="363" fill="#1f77b4" r="7" stroke="none"/></g><g><circle cx="175" cy="287" fill="#2ca02c" r="7" stroke="none"/></g><g><circle cx="287" cy="265" fill="#2ca02c" r="7" stroke="none"/></g><g><circle cx="359" cy="111" fill="#ff7f0e" r="7" stroke="none"/></g><g><circle cx="227" cy="317" fill="#2ca02c" r="7" stroke="none"/></g><g><circle cx="244" cy="268" fill="#2ca02c" r="7" stroke="none"/></g><g><circle cx="122" cy="291" fill="#2ca02c" r="7" stroke="none"/></g><g><circle cx="139" cy="330" fill="#2ca02c" r="7" stroke="none"/></g><g><circle cx="190" cy="297" fill="#1f77b4" r="7" stroke="none"/></g><g><circle cx="116" cy="320" fill="#1f77b4" r="7" stroke="none"/></g><g><circle cx="218" cy="237" fill="#2ca02c" r="6" stroke="none"/></g><g><circle cx="208" cy="242" fill="#2ca02c" r="6" stroke="none"/></g><g><circle cx="165" cy="303" fill="#2ca02c" r="6" stroke="none"/></g><g><circle cx="124" cy="300" fill="#ff7f0e" r="6" stroke="none"/></g><g><circle cx="169" cy="338" fill="#2ca02c" r="6" stroke="none"/></g><g><circle cx="149" cy="345" fill="#2ca02c" r="6" stroke="none"/></g><g><circle cx="100" cy="322" fill="#2ca02c" r="6" stroke="none"/></g><g><circle cx="183" cy="296" fill="#2ca02c" r="6" stroke="none"/></g><g><circle cx="201" cy="287" fill="#2ca02c" r="6" stroke="none"/></g><g><circle cx="193" cy="277" fill="#2ca02c" r="6" stroke="none"/></g><g><circle cx="110" cy="333" fill="#2ca02c" r="6" stroke="none"/></g><g><circle cx="150" cy="316" fill="#2ca02c" r="6" stroke="none"/></g><g><circle cx="235" cy="256" fill="#2ca02c" r="6" stroke="none"/></g><g><circle cx="96" cy="346" fill="#1f77b4" r="6" stroke="none"/></g><g><circle cx="92" cy="348" fill="#1f77b4" r="6" stroke="none"/></g><g><circle cx="52" cy="345" fill="#1f77b4" r="6" stroke="none"/></g><g><circle cx="25" cy="425" fill="#1f77b4" r="6" stroke="none"/></g><g><circle cx="47" cy="387" fill="#1f77b4" r="6" stroke="none"/></g><g><circle cx="27" cy="409" fill="#1f77b4" r="6" stroke="none"/></g><g><circle cx="61" cy="386" fill="#1f77b4" r="6" stroke="none"/></g><g><circle cx="69" cy="364" fill="#1f77b4" r="6" stroke="none"/></g><g><circle cx="89" cy="366" fill="#2ca02c" r="5" stroke="none"/></g><g><circle cx="207" cy="297" fill="#2ca02c" r="5" stroke="none"/></g><g><circle cx="157" cy="271" fill="#2ca02c" r="5" stroke="none"/></g><g><circle cx="183" cy="294" fill="#2ca02c" r="5" stroke="none"/></g><g><circle cx="165" cy="323" fill="#ff7f0e" r="5" stroke="none"/></g><g><circle cx="188" cy="315" fill="#ff7f0e" r="5" stroke="none"/></g><g><circle cx="152" cy="340" fill="#ff7f0e" r="5" stroke="none"/></g><g><circle cx="282" cy="279" fill="#ff7f0e" r="5" stroke="none"/></g><g><circle cx="80" cy="360" fill="#ff7f0e" r="5" stroke="none"/></g><g><circle cx="49" cy="391" fill="#2ca02c" r="5" stroke="none"/></g><g><circle cx="108" cy="350" fill="#2ca02c" r="5" stroke="none"/></g><g><circle cx="97" cy="372" fill="#2ca02c" r="5" stroke="none"/></g><g><circle cx="114" cy="364" fill="#2ca02c" r="5" stroke="none"/></g><g><circle cx="94" cy="361" fill="#2ca02c" r="5" stroke="none"/></g><g><circle cx="72" cy="395" fill="#1f77b4" r="5" stroke="none"/></g><g><circle cx="56" cy="405" fill="#1f77b4" r="5" stroke="none"/></g><g><circle cx="124" cy="376" fill="#1f77b4" r="5" stroke="none"/></g><g><circle cx="81" cy="397" fill="#1f77b4" r="5" stroke="none"/></g><g><circle cx="61" cy="394" fill="#1f77b4" r="5" stroke="none"/></g><g><circle cx="44" cy="382" fill="#1f77b4" r="5" stroke="none"/></g><g><circle cx="47" cy="401" fill="#1f77b4" r="5" stroke="none"/></g><g><circle cx="174" cy="337" fill="#2ca02c" r="4" stroke="none"/></g><g><circle cx="24" cy="412" fill="#1f77b4" r="4" stroke="none"/></g><g><circle cx="22" cy="387" fill="#1f77b4" r="3" stroke="none"/></g></g><g id="labels"><g transform="translate(702,42)"><text x="0" y="0" text-anchor="middle" dominant-baseline="text-before-edge" transform="translate(0,-6.5)" style="opacity: 1;"><tspan x="0" y="0" dy="0" style="font-family: Arial, sans-serif; font-size: 10px; fill: black; font-weight: bold;">Hlavní město Praha</tspan></text></g><g transform="translate(353,173)"><text x="0" y="0" text-anchor="middle" dominant-baseline="text-before-edge" transform="translate(0,-6.5)" style="opacity: 1;"><tspan x="0" y="0" dy="0" style="font-family: Arial, sans-serif; font-size: 10px; fill: black; font-weight: bold;">Brno-město</tspan></text></g><g transform="translate(592,20)"><text x="0" y="0" text-anchor="middle" dominant-baseline="text-before-edge" transform="translate(0,-6.5)" style="opacity: 1;"><tspan x="0" y="0" dy="0" style="font-family: Arial, sans-serif; font-size: 10px; fill: black; font-weight: bold;">Plzeň-město</tspan></text></g><g transform="translate(503,191)"><text x="0" y="0" text-anchor="middle" dominant-baseline="text-before-edge" transform="translate(0,-6.5)" style="opacity: 1;"><tspan x="0" y="0" dy="0" style="font-family: Arial, sans-serif; font-size: 10px; fill: black; font-weight: bold;">Praha-východ</tspan></text></g><g transform="translate(410,146)"><text x="0" y="0" text-anchor="middle" dominant-baseline="text-before-edge" transform="translate(0,-6.5)" style="opacity: 1;"><tspan x="0" y="0" dy="0" style="font-family: Arial, sans-serif; font-size: 10px; fill: black; font-weight: bold;">Mladá Boleslav</tspan></text></g><g transform="translate(351,200)"><text x="0" y="0" text-anchor="middle" dominant-baseline="text-before-edge" transform="translate(0,-6.5)" style="opacity: 1;"><tspan x="0" y="0" dy="0" style="font-family: Arial, sans-serif; font-size: 10px; fill: black; font-weight: bold;">Praha-západ</tspan></text></g><g transform="translate(268,42)"><text x="0" y="0" text-anchor="middle" dominant-baseline="text-before-edge" transform="translate(0,-6.5)" style="opacity: 1;"><tspan x="0" y="0" dy="0" style="font-family: Arial, sans-serif; font-size: 10px; fill: black; font-weight: bold;">Karlovy Vary</tspan></text></g><g transform="translate(345,227)"><text x="0" y="0" text-anchor="middle" dominant-baseline="text-before-edge" transform="translate(0,-6.5)" style="opacity: 1;"><tspan x="0" y="0" dy="0" style="font-family: Arial, sans-serif; font-size: 10px; fill: black; font-weight: bold;">Liberec</tspan></text></g><g transform="translate(287,240)"><text x="0" y="0" text-anchor="middle" dominant-baseline="text-before-edge" transform="translate(0,-6.5)" style="opacity: 1;"><tspan x="0" y="0" dy="0" style="font-family: Arial, sans-serif; font-size: 10px; fill: black; font-weight: bold;">Pardubice</tspan></text></g><g transform="translate(204,309)"><text x="0" y="0" text-anchor="middle" dominant-baseline="text-before-edge" transform="translate(0,-6.5)" style="opacity: 1;"><tspan x="0" y="0" dy="0" style="font-family: Arial, sans-serif; font-size: 10px; fill: black; font-weight: bold;">České Budějovice</tspan></text></g><g transform="translate(175,338)"><text x="0" y="0" text-anchor="middle" dominant-baseline="text-before-edge" transform="translate(0,-6.5)" style="opacity: 1;"><tspan x="0" y="0" dy="0" style="font-family: Arial, sans-serif; font-size: 10px; fill: black; font-weight: bold;">Brno-venkov</tspan></text></g><g transform="translate(332,295)"><text x="0" y="0" text-anchor="middle" dominant-baseline="text-before-edge" transform="translate(0,-6.5)" style="opacity: 1;"><tspan x="0" y="0" dy="0" style="font-family: Arial, sans-serif; font-size: 10px; fill: black; font-weight: bold;">Kladno</tspan></text></g><g transform="translate(318,195)"><text x="0" y="0" text-anchor="middle" dominant-baseline="text-before-edge" transform="translate(0,-6.5)" style="opacity: 0;"><tspan x="0" y="0" dy="0" style="font-family: Arial, sans-serif; font-size: 10px; fill: black; font-weight: bold;">Nymburk</tspan></text></g><g transform="translate(224,139)"><text x="0" y="0" text-anchor="middle" dominant-baseline="text-before-edge" transform="translate(0,-6.5)" style="opacity: 1;"><tspan x="0" y="0" dy="0" style="font-family: Arial, sans-serif; font-size: 10px; fill: black; font-weight: bold;">Cheb</tspan></text></g><g transform="translate(235,306)"><text x="0" y="0" text-anchor="middle" dominant-baseline="text-before-edge" transform="translate(0,-6.5)" style="opacity: 0;"><tspan x="0" y="0" dy="0" style="font-family: Arial, sans-serif; font-size: 10px; fill: black; font-weight: bold;">Hradec Králové</tspan></text></g><g transform="translate(91,372)"><text x="0" y="0" text-anchor="middle" dominant-baseline="text-before-edge" transform="translate(0,-6.5)" style="opacity: 1;"><tspan x="0" y="0" dy="0" style="font-family: Arial, sans-serif; font-size: 10px; fill: black; font-weight: bold;">Olomouc</tspan></text></g><g transform="translate(28,340)"><text x="0" y="0" text-anchor="middle" dominant-baseline="text-before-edge" transform="translate(0,-6.5)" style="opacity: 1;"><tspan x="0" y="0" dy="0" style="font-family: Arial, sans-serif; font-size: 10px; fill: black; font-weight: bold;">Frýdek-Místek</tspan></text></g><g transform="translate(58,391)"><text x="0" y="0" text-anchor="middle" dominant-baseline="text-before-edge" transform="translate(0,-6.5)" style="opacity: 1;"><tspan x="0" y="0" dy="0" style="font-family: Arial, sans-serif; font-size: 10px; fill: black; font-weight: bold;">Ostrava-město</tspan></text></g><g transform="translate(415,249)"><text x="0" y="0" text-anchor="middle" dominant-baseline="text-before-edge" transform="translate(0,-6.5)" style="opacity: 1;"><tspan x="0" y="0" dy="0" style="font-family: Arial, sans-serif; font-size: 10px; fill: black; font-weight: bold;">Kolín</tspan></text></g><g transform="translate(357,260)"><text x="0" y="0" text-anchor="middle" dominant-baseline="text-before-edge" transform="translate(0,-6.5)" style="opacity: 1;"><tspan x="0" y="0" dy="0" style="font-family: Arial, sans-serif; font-size: 10px; fill: black; font-weight: bold;">Mělník</tspan></text></g><g transform="translate(157,264)"><text x="0" y="0" text-anchor="middle" dominant-baseline="text-before-edge" transform="translate(0,-6.5)" style="opacity: 1;"><tspan x="0" y="0" dy="0" style="font-family: Arial, sans-serif; font-size: 10px; fill: black; font-weight: bold;">Příbram</tspan></text></g><g transform="translate(188,296)"><text x="0" y="0" text-anchor="middle" dominant-baseline="text-before-edge" transform="translate(0,-6.5)" style="opacity: 0;"><tspan x="0" y="0" dy="0" style="font-family: Arial, sans-serif; font-size: 10px; fill: black; font-weight: bold;">Teplice</tspan></text></g><g transform="translate(86,363)"><text x="0" y="0" text-anchor="middle" dominant-baseline="text-before-edge" transform="translate(0,-6.5)" style="opacity: 0;"><tspan x="0" y="0" dy="0" style="font-family: Arial, sans-serif; font-size: 10px; fill: black; font-weight: bold;">Zlín</tspan></text></g><g transform="translate(175,287)"><text x="0" y="0" text-anchor="middle" dominant-baseline="text-before-edge" transform="translate(0,-6.5)" style="opacity: 1;"><tspan x="0" y="0" dy="0" style="font-family: Arial, sans-serif; font-size: 10px; fill: black; font-weight: bold;">Benešov</tspan></text></g><g transform="translate(287,265)"><text x="0" y="0" text-anchor="middle" dominant-baseline="text-before-edge" transform="translate(0,-6.5)" style="opacity: 1;"><tspan x="0" y="0" dy="0" style="font-family: Arial, sans-serif; font-size: 10px; fill: black; font-weight: bold;">Beroun</tspan></text></g><g transform="translate(359,111)"><text x="0" y="0" text-anchor="middle" dominant-baseline="text-before-edge" transform="translate(0,-6.5)" style="opacity: 1;"><tspan x="0" y="0" dy="0" style="font-family: Arial, sans-serif; font-size: 10px; fill: black; font-weight: bold;">Tachov</tspan></text></g><g transform="translate(227,317)"><text x="0" y="0" text-anchor="middle" dominant-baseline="text-before-edge" transform="translate(0,-6.5)" style="opacity: 0;"><tspan x="0" y="0" dy="0" style="font-family: Arial, sans-serif; font-size: 10px; fill: black; font-weight: bold;">Chomutov</tspan></text></g><g transform="translate(244,268)"><text x="0" y="0" text-anchor="middle" dominant-baseline="text-before-edge" transform="translate(0,-6.5)" style="opacity: 0;"><tspan x="0" y="0" dy="0" style="font-family: Arial, sans-serif; font-size: 10px; fill: black; font-weight: bold;">Jablonec nad Nisou</tspan></text></g><g transform="translate(122,291)"><text x="0" y="0" text-anchor="middle" dominant-baseline="text-before-edge" transform="translate(0,-6.5)" style="opacity: 1;"><tspan x="0" y="0" dy="0" style="font-family: Arial, sans-serif; font-size: 10px; fill: black; font-weight: bold;">Náchod</tspan></text></g><g transform="translate(139,330)"><text x="0" y="0" text-anchor="middle" dominant-baseline="text-before-edge" transform="translate(0,-6.5)" style="opacity: 0;"><tspan x="0" y="0" dy="0" style="font-family: Arial, sans-serif; font-size: 10px; fill: black; font-weight: bold;">Ústí nad Orlicí</tspan></text></g><g transform="translate(190,297)"><text x="0" y="0" text-anchor="middle" dominant-baseline="text-before-edge" transform="translate(0,-6.5)" style="opacity: 0;"><tspan x="0" y="0" dy="0" style="font-family: Arial, sans-serif; font-size: 10px; fill: black; font-weight: bold;">Jihlava</tspan></text></g><g transform="translate(116,320)"><text x="0" y="0" text-anchor="middle" dominant-baseline="text-before-edge" transform="translate(0,-6.5)" style="opacity: 1;"><tspan x="0" y="0" dy="0" style="font-family: Arial, sans-serif; font-size: 10px; fill: black; font-weight: bold;">Břeclav</tspan></text></g><g transform="translate(218,237)"><text x="0" y="0" text-anchor="middle" dominant-baseline="text-before-edge" transform="translate(0,-6.5)" style="opacity: 1;"><tspan x="0" y="0" dy="0" style="font-family: Arial, sans-serif; font-size: 10px; fill: black; font-weight: bold;">Kutná Hora</tspan></text></g><g transform="translate(208,242)"><text x="0" y="0" text-anchor="middle" dominant-baseline="text-before-edge" transform="translate(0,-6.5)" style="opacity: 0;"><tspan x="0" y="0" dy="0" style="font-family: Arial, sans-serif; font-size: 10px; fill: black; font-weight: bold;">Český Krumlov</tspan></text></g><g transform="translate(165,303)"><text x="0" y="0" text-anchor="middle" dominant-baseline="text-before-edge" transform="translate(0,-6.5)" style="opacity: 0;"><tspan x="0" y="0" dy="0" style="font-family: Arial, sans-serif; font-size: 10px; fill: black; font-weight: bold;">Tábor</tspan></text></g><g transform="translate(124,300)"><text x="0" y="0" text-anchor="middle" dominant-baseline="text-before-edge" transform="translate(0,-6.5)" style="opacity: 0;"><tspan x="0" y="0" dy="0" style="font-family: Arial, sans-serif; font-size: 10px; fill: black; font-weight: bold;">Klatovy</tspan></text></g><g transform="translate(169,338)"><text x="0" y="0" text-anchor="middle" dominant-baseline="text-before-edge" transform="translate(0,-6.5)" style="opacity: 0;"><tspan x="0" y="0" dy="0" style="font-family: Arial, sans-serif; font-size: 10px; fill: black; font-weight: bold;">Litoměřice</tspan></text></g><g transform="translate(149,345)"><text x="0" y="0" text-anchor="middle" dominant-baseline="text-before-edge" transform="translate(0,-6.5)" style="opacity: 0;"><tspan x="0" y="0" dy="0" style="font-family: Arial, sans-serif; font-size: 10px; fill: black; font-weight: bold;">Ústí nad Labem</tspan></text></g><g transform="translate(100,322)"><text x="0" y="0" text-anchor="middle" dominant-baseline="text-before-edge" transform="translate(0,-6.5)" style="opacity: 0;"><tspan x="0" y="0" dy="0" style="font-family: Arial, sans-serif; font-size: 10px; fill: black; font-weight: bold;">Česká Lípa</tspan></text></g><g transform="translate(183,296)"><text x="0" y="0" text-anchor="middle" dominant-baseline="text-before-edge" transform="translate(0,-6.5)" style="opacity: 0;"><tspan x="0" y="0" dy="0" style="font-family: Arial, sans-serif; font-size: 10px; fill: black; font-weight: bold;">Semily</tspan></text></g><g transform="translate(201,287)"><text x="0" y="0" text-anchor="middle" dominant-baseline="text-before-edge" transform="translate(0,-6.5)" style="opacity: 0;"><tspan x="0" y="0" dy="0" style="font-family: Arial, sans-serif; font-size: 10px; fill: black; font-weight: bold;">Jičín</tspan></text></g><g transform="translate(193,277)"><text x="0" y="0" text-anchor="middle" dominant-baseline="text-before-edge" transform="translate(0,-6.5)" style="opacity: 0;"><tspan x="0" y="0" dy="0" style="font-family: Arial, sans-serif; font-size: 10px; fill: black; font-weight: bold;">Rychnov nad Kněžnou</tspan></text></g><g transform="translate(110,333)"><text x="0" y="0" text-anchor="middle" dominant-baseline="text-before-edge" transform="translate(0,-6.5)" style="opacity: 0;"><tspan x="0" y="0" dy="0" style="font-family: Arial, sans-serif; font-size: 10px; fill: black; font-weight: bold;">Trutnov</tspan></text></g><g transform="translate(150,316)"><text x="0" y="0" text-anchor="middle" dominant-baseline="text-before-edge" transform="translate(0,-6.5)" style="opacity: 0;"><tspan x="0" y="0" dy="0" style="font-family: Arial, sans-serif; font-size: 10px; fill: black; font-weight: bold;">Chrudim</tspan></text></g><g transform="translate(235,256)"><text x="0" y="0" text-anchor="middle" dominant-baseline="text-before-edge" transform="translate(0,-6.5)" style="opacity: 1;"><tspan x="0" y="0" dy="0" style="font-family: Arial, sans-serif; font-size: 10px; fill: black; font-weight: bold;">Pelhřimov</tspan></text></g><g transform="translate(96,346)"><text x="0" y="0" text-anchor="middle" dominant-baseline="text-before-edge" transform="translate(0,-6.5)" style="opacity: 0;"><tspan x="0" y="0" dy="0" style="font-family: Arial, sans-serif; font-size: 10px; fill: black; font-weight: bold;">Žďár nad Sázavou</tspan></text></g><g transform="translate(92,348)"><text x="0" y="0" text-anchor="middle" dominant-baseline="text-before-edge" transform="translate(0,-6.5)" style="opacity: 1;"><tspan x="0" y="0" dy="0" style="font-family: Arial, sans-serif; font-size: 10px; fill: black; font-weight: bold;">Blansko</tspan></text></g><g transform="translate(52,345)"><text x="0" y="0" text-anchor="middle" dominant-baseline="text-before-edge" transform="translate(0,-6.5)" style="opacity: 0;"><tspan x="0" y="0" dy="0" style="font-family: Arial, sans-serif; font-size: 10px; fill: black; font-weight: bold;">Znojmo</tspan></text></g><g transform="translate(25,425)"><text x="0" y="0" text-anchor="middle" dominant-baseline="text-before-edge" transform="translate(0,-6.5)" style="opacity: 1;"><tspan x="0" y="0" dy="0" style="font-family: Arial, sans-serif; font-size: 10px; fill: black; font-weight: bold;">Karviná</tspan></text></g><g transform="translate(47,387)"><text x="0" y="0" text-anchor="middle" dominant-baseline="text-before-edge" transform="translate(0,-6.5)" style="opacity: 0;"><tspan x="0" y="0" dy="0" style="font-family: Arial, sans-serif; font-size: 10px; fill: black; font-weight: bold;">Nový Jičín</tspan></text></g><g transform="translate(27,409)"><text x="0" y="0" text-anchor="middle" dominant-baseline="text-before-edge" transform="translate(0,-6.5)" style="opacity: 1;"><tspan x="0" y="0" dy="0" style="font-family: Arial, sans-serif; font-size: 10px; fill: black; font-weight: bold;">Opava</tspan></text></g><g transform="translate(61,386)"><text x="0" y="0" text-anchor="middle" dominant-baseline="text-before-edge" transform="translate(0,-6.5)" style="opacity: 0;"><tspan x="0" y="0" dy="0" style="font-family: Arial, sans-serif; font-size: 10px; fill: black; font-weight: bold;">Uherské Hradiště</tspan></text></g><g transform="translate(69,364)"><text x="0" y="0" text-anchor="middle" dominant-baseline="text-before-edge" transform="translate(0,-6.5)" style="opacity: 0;"><tspan x="0" y="0" dy="0" style="font-family: Arial, sans-serif; font-size: 10px; fill: black; font-weight: bold;">Vsetín</tspan></text></g><g transform="translate(89,366)"><text x="0" y="0" text-anchor="middle" dominant-baseline="text-before-edge" transform="translate(0,-6.5)" style="opacity: 0;"><tspan x="0" y="0" dy="0" style="font-family: Arial, sans-serif; font-size: 10px; fill: black; font-weight: bold;">Jindřichův Hradec</tspan></text></g><g transform="translate(207,297)"><text x="0" y="0" text-anchor="middle" dominant-baseline="text-before-edge" transform="translate(0,-6.5)" style="opacity: 0;"><tspan x="0" y="0" dy="0" style="font-family: Arial, sans-serif; font-size: 10px; fill: black; font-weight: bold;">Písek</tspan></text></g><g transform="translate(157,271)"><text x="0" y="0" text-anchor="middle" dominant-baseline="text-before-edge" transform="translate(0,-6.5)" style="opacity: 0;"><tspan x="0" y="0" dy="0" style="font-family: Arial, sans-serif; font-size: 10px; fill: black; font-weight: bold;">Prachatice</tspan></text></g><g transform="translate(183,294)"><text x="0" y="0" text-anchor="middle" dominant-baseline="text-before-edge" transform="translate(0,-6.5)" style="opacity: 0;"><tspan x="0" y="0" dy="0" style="font-family: Arial, sans-serif; font-size: 10px; fill: black; font-weight: bold;">Strakonice</tspan></text></g><g transform="translate(165,323)"><text x="0" y="0" text-anchor="middle" dominant-baseline="text-before-edge" transform="translate(0,-6.5)" style="opacity: 0;"><tspan x="0" y="0" dy="0" style="font-family: Arial, sans-serif; font-size: 10px; fill: black; font-weight: bold;">Domažlice</tspan></text></g><g transform="translate(188,315)"><text x="0" y="0" text-anchor="middle" dominant-baseline="text-before-edge" transform="translate(0,-6.5)" style="opacity: 0;"><tspan x="0" y="0" dy="0" style="font-family: Arial, sans-serif; font-size: 10px; fill: black; font-weight: bold;">Plzeň-jih</tspan></text></g><g transform="translate(152,340)"><text x="0" y="0" text-anchor="middle" dominant-baseline="text-before-edge" transform="translate(0,-6.5)" style="opacity: 0;"><tspan x="0" y="0" dy="0" style="font-family: Arial, sans-serif; font-size: 10px; fill: black; font-weight: bold;">Plzeň-sever</tspan></text></g><g transform="translate(282,279)"><text x="0" y="0" text-anchor="middle" dominant-baseline="text-before-edge" transform="translate(0,-6.5)" style="opacity: 0;"><tspan x="0" y="0" dy="0" style="font-family: Arial, sans-serif; font-size: 10px; fill: black; font-weight: bold;">Rokycany</tspan></text></g><g transform="translate(80,360)"><text x="0" y="0" text-anchor="middle" dominant-baseline="text-before-edge" transform="translate(0,-6.5)" style="opacity: 0;"><tspan x="0" y="0" dy="0" style="font-family: Arial, sans-serif; font-size: 10px; fill: black; font-weight: bold;">Sokolov</tspan></text></g><g transform="translate(49,391)"><text x="0" y="0" text-anchor="middle" dominant-baseline="text-before-edge" transform="translate(0,-6.5)" style="opacity: 0;"><tspan x="0" y="0" dy="0" style="font-family: Arial, sans-serif; font-size: 10px; fill: black; font-weight: bold;">Děčín</tspan></text></g><g transform="translate(108,350)"><text x="0" y="0" text-anchor="middle" dominant-baseline="text-before-edge" transform="translate(0,-6.5)" style="opacity: 0;"><tspan x="0" y="0" dy="0" style="font-family: Arial, sans-serif; font-size: 10px; fill: black; font-weight: bold;">Louny</tspan></text></g><g transform="translate(97,372)"><text x="0" y="0" text-anchor="middle" dominant-baseline="text-before-edge" transform="translate(0,-6.5)" style="opacity: 0;"><tspan x="0" y="0" dy="0" style="font-family: Arial, sans-serif; font-size: 10px; fill: black; font-weight: bold;">Most</tspan></text></g><g transform="translate(114,364)"><text x="0" y="0" text-anchor="middle" dominant-baseline="text-before-edge" transform="translate(0,-6.5)" style="opacity: 0;"><tspan x="0" y="0" dy="0" style="font-family: Arial, sans-serif; font-size: 10px; fill: black; font-weight: bold;">Svitavy</tspan></text></g><g transform="translate(94,361)"><text x="0" y="0" text-anchor="middle" dominant-baseline="text-before-edge" transform="translate(0,-6.5)" style="opacity: 0;"><tspan x="0" y="0" dy="0" style="font-family: Arial, sans-serif; font-size: 10px; fill: black; font-weight: bold;">Havlíčkův Brod</tspan></text></g><g transform="translate(72,395)"><text x="0" y="0" text-anchor="middle" dominant-baseline="text-before-edge" transform="translate(0,-6.5)" style="opacity: 0;"><tspan x="0" y="0" dy="0" style="font-family: Arial, sans-serif; font-size: 10px; fill: black; font-weight: bold;">Třebíč</tspan></text></g><g transform="translate(56,405)"><text x="0" y="0" text-anchor="middle" dominant-baseline="text-before-edge" transform="translate(0,-6.5)" style="opacity: 0;"><tspan x="0" y="0" dy="0" style="font-family: Arial, sans-serif; font-size: 10px; fill: black; font-weight: bold;">Hodonín</tspan></text></g><g transform="translate(124,376)"><text x="0" y="0" text-anchor="middle" dominant-baseline="text-before-edge" transform="translate(0,-6.5)" style="opacity: 0;"><tspan x="0" y="0" dy="0" style="font-family: Arial, sans-serif; font-size: 10px; fill: black; font-weight: bold;">Vyškov</tspan></text></g><g transform="translate(81,397)"><text x="0" y="0" text-anchor="middle" dominant-baseline="text-before-edge" transform="translate(0,-6.5)" style="opacity: 0;"><tspan x="0" y="0" dy="0" style="font-family: Arial, sans-serif; font-size: 10px; fill: black; font-weight: bold;">Prostějov</tspan></text></g><g transform="translate(61,394)"><text x="0" y="0" text-anchor="middle" dominant-baseline="text-before-edge" transform="translate(0,-6.5)" style="opacity: 0;"><tspan x="0" y="0" dy="0" style="font-family: Arial, sans-serif; font-size: 10px; fill: black; font-weight: bold;">Přerov</tspan></text></g><g transform="translate(44,382)"><text x="0" y="0" text-anchor="middle" dominant-baseline="text-before-edge" transform="translate(0,-6.5)" style="opacity: 0;"><tspan x="0" y="0" dy="0" style="font-family: Arial, sans-serif; font-size: 10px; fill: black; font-weight: bold;">Šumperk</tspan></text></g><g transform="translate(47,401)"><text x="0" y="0" text-anchor="middle" dominant-baseline="text-before-edge" transform="translate(0,-6.5)" style="opacity: 0;"><tspan x="0" y="0" dy="0" style="font-family: Arial, sans-serif; font-size: 10px; fill: black; font-weight: bold;">Kroměříž</tspan></text></g><g transform="translate(174,337)"><text x="0" y="0" text-anchor="middle" dominant-baseline="text-before-edge" transform="translate(0,-6.5)" style="opacity: 0;"><tspan x="0" y="0" dy="0" style="font-family: Arial, sans-serif; font-size: 10px; fill: black; font-weight: bold;">Rakovník</tspan></text></g><g transform="translate(24,412)"><text x="0" y="0" text-anchor="middle" dominant-baseline="text-before-edge" transform="translate(0,-6.5)" style="opacity: 0;"><tspan x="0" y="0" dy="0" style="font-family: Arial, sans-serif; font-size: 10px; fill: black; font-weight: bold;">Bruntál</tspan></text></g><g transform="translate(22,387)"><text x="0" y="0" text-anchor="middle" dominant-baseline="text-before-edge" transform="translate(0,-6.5)" style="opacity: 0;"><tspan x="0" y="0" dy="0" style="font-family: Arial, sans-serif; font-size: 10px; fill: black; font-weight: bold;">Jeseník</tspan></text></g></g></g></svg>